%
M48
M72
T01C0.01181
T02C0.02559
T03C0.03150
T04C0.03346
T05C0.03600
T06C0.03937
T07C0.04000
T08C0.07300
T09C0.07874
T10C0.08268
T11C0.10827
%
T01
X104163Y52250
X119163Y51000
X139163Y51000
X141663Y42250
X147913Y63500
X165413Y67250
X157913Y78500
X151663Y86000
X136663Y86000
X166663Y86000
X202913Y98500
X215413Y91000
X224163Y79750
X230413Y77250
X235413Y77250
X234163Y91000
X230413Y91000
X256663Y71000
X309163Y83500
X295413Y113500
X291663Y119750
X284163Y124750
X280413Y121000
X277913Y113500
X290413Y131000
X300413Y134750
X311663Y124750
X270413Y134750
X127913Y131000
X127913Y118500
X100413Y101000
X90413Y78500
X127913Y63500
X19163Y148500
X29163Y151000
X29163Y189750
X19163Y192250
X339163Y32250
X339163Y21000
T02
X282913Y96000
X277913Y96000
X272913Y96000
X267913Y96000
X262913Y96000
X262913Y101000
X267913Y101000
X272913Y101000
X277913Y101000
X282913Y101000
X322913Y116000
X322913Y121000
X322913Y126000
X322913Y131000
X322913Y136000
X322913Y141000
X322913Y146000
X322913Y151000
X322913Y156000
X322913Y161000
X242913Y161000
X242913Y156000
X242913Y151000
X242913Y146000
X242913Y141000
X242913Y136000
X242913Y131000
X242913Y126000
X242913Y121000
X242913Y116000
T03
X222913Y66748
X222913Y58874
X222913Y51000
X222913Y43126
X222913Y35252
X257913Y35439
X257913Y43313
X257913Y51187
X257913Y59061
X287913Y58874
X287913Y66748
X287913Y51000
X287913Y43126
X287913Y35252
X317913Y35439
X317913Y43313
X317913Y51187
X317913Y59061
X22913Y127063
X22913Y134937
T04
X265413Y141000
X270413Y141000
X275413Y141000
X280413Y141000
X285413Y141000
X290413Y141000
X295413Y141000
X300413Y141000
T05
X300413Y67250
X300413Y51000
T06
X133858Y170094
X133858Y182299
X51969Y182299
X51969Y170094
X37913Y90921
X37913Y81079
T07
X187913Y91000
X187913Y111000
T08
X56663Y89000
X56663Y51500
T09
X182913Y161000
X182913Y181000
X318346Y100469
T10
X247480Y100469
T11
X26693Y14780
X255039Y14780
X255039Y207693
X26693Y207693
M30
