G75*
%MOIN*%
%OFA0B0*%
%FSLAX25Y25*%
%IPPOS*%
%LPD*%
%AMOC8*
5,1,8,0,0,1.08239X$1,22.5*
%
%ADD10R,0.03937X0.05512*%
%ADD11R,0.04331X0.03937*%
%ADD12R,0.05906X0.03543*%
%ADD13R,0.03100X0.03500*%
%ADD14R,0.07874X0.08268*%
%ADD15R,0.07480X0.06299*%
%ADD16R,0.05315X0.01575*%
%ADD17R,0.03150X0.03937*%
%ADD18R,0.02756X0.03937*%
%ADD19R,0.03937X0.03150*%
%ADD20R,0.03937X0.02756*%
%ADD21R,0.07874X0.07874*%
%ADD22R,0.02756X0.03543*%
%ADD23R,0.06299X0.07087*%
%ADD24C,0.05906*%
D10*
X0134173Y0046669D03*
X0141654Y0046669D03*
X0137913Y0055331D03*
X0154173Y0046669D03*
X0161654Y0046669D03*
X0157913Y0055331D03*
X0159173Y0091669D03*
X0166654Y0091669D03*
X0162913Y0100331D03*
X0151654Y0091669D03*
X0144173Y0091669D03*
X0136654Y0091669D03*
X0129173Y0091669D03*
X0132913Y0100331D03*
X0147913Y0100331D03*
D11*
X0147913Y0117654D03*
X0147913Y0124346D03*
X0132913Y0124346D03*
X0132913Y0117654D03*
X0127913Y0074346D03*
X0127913Y0067654D03*
X0137913Y0067654D03*
X0137913Y0074346D03*
X0147913Y0074346D03*
X0147913Y0067654D03*
X0157913Y0067654D03*
X0157913Y0074346D03*
X0192913Y0064346D03*
X0192913Y0057654D03*
X0202913Y0057654D03*
X0202913Y0064346D03*
X0202913Y0102654D03*
X0202913Y0109346D03*
X0202913Y0117654D03*
X0202913Y0124346D03*
X0125413Y0050596D03*
X0125413Y0043904D03*
D12*
X0167913Y0114898D03*
X0167913Y0127102D03*
D13*
X0141613Y0142000D03*
X0134013Y0142000D03*
X0137813Y0150000D03*
X0174213Y0055000D03*
X0181813Y0055000D03*
X0178013Y0047000D03*
D14*
X0028415Y0158795D03*
X0028415Y0183205D03*
D15*
X0019163Y0187142D03*
X0019163Y0154858D03*
D16*
X0029695Y0165882D03*
X0029695Y0168441D03*
X0029695Y0171000D03*
X0029695Y0173559D03*
X0029695Y0176118D03*
D17*
X0103976Y0100724D03*
X0111850Y0100724D03*
X0111850Y0091276D03*
X0103976Y0091276D03*
X0103976Y0065724D03*
X0111850Y0065724D03*
X0111850Y0056276D03*
X0103976Y0056276D03*
D18*
X0107913Y0056276D03*
X0107913Y0100724D03*
D19*
X0087638Y0107063D03*
X0078189Y0107063D03*
X0078189Y0114937D03*
X0078189Y0122063D03*
X0087638Y0122063D03*
X0087638Y0114937D03*
X0087638Y0129937D03*
X0078189Y0129937D03*
D20*
X0078189Y0126000D03*
X0078189Y0111000D03*
D21*
X0097146Y0078500D03*
X0113681Y0078500D03*
X0162913Y0162732D03*
X0162913Y0179268D03*
D22*
X0309173Y0080134D03*
X0316654Y0080134D03*
X0312913Y0071866D03*
D23*
X0274675Y0071000D03*
X0263652Y0071000D03*
D24*
X0025068Y0056639D02*
X0025068Y0042861D01*
X0019164Y0042861D01*
X0019164Y0056639D01*
X0025068Y0056639D01*
X0025068Y0048766D02*
X0019164Y0048766D01*
X0019164Y0054671D02*
X0025068Y0054671D01*
X0059322Y0067270D02*
X0073100Y0067270D01*
X0059322Y0067270D02*
X0059322Y0073174D01*
X0073100Y0073174D01*
X0073100Y0067270D01*
X0079005Y0056639D02*
X0079005Y0042861D01*
X0073101Y0042861D01*
X0073101Y0056639D01*
X0079005Y0056639D01*
X0079005Y0048766D02*
X0073101Y0048766D01*
X0073101Y0054671D02*
X0079005Y0054671D01*
M02*
