G75*
%MOIN*%
%OFA0B0*%
%FSLAX25Y25*%
%IPPOS*%
%LPD*%
%AMOC8*
5,1,8,0,0,1.08239X$1,22.5*
%
%ADD10C,0.00000*%
D10*
X0028356Y0005000D02*
X0028356Y0215000D01*
X0283356Y0215000D01*
X0288356Y0210000D01*
X0288356Y0165000D01*
X0328356Y0125000D01*
X0328356Y0035000D01*
X0288356Y0005000D01*
X0028356Y0005000D01*
X0077106Y0015000D02*
X0077108Y0015158D01*
X0077114Y0015315D01*
X0077124Y0015473D01*
X0077138Y0015630D01*
X0077156Y0015786D01*
X0077177Y0015943D01*
X0077203Y0016098D01*
X0077233Y0016253D01*
X0077266Y0016407D01*
X0077304Y0016560D01*
X0077345Y0016713D01*
X0077390Y0016864D01*
X0077439Y0017014D01*
X0077492Y0017162D01*
X0077548Y0017310D01*
X0077609Y0017455D01*
X0077672Y0017600D01*
X0077740Y0017742D01*
X0077811Y0017883D01*
X0077885Y0018022D01*
X0077963Y0018159D01*
X0078045Y0018294D01*
X0078129Y0018427D01*
X0078218Y0018558D01*
X0078309Y0018686D01*
X0078404Y0018813D01*
X0078501Y0018936D01*
X0078602Y0019058D01*
X0078706Y0019176D01*
X0078813Y0019292D01*
X0078923Y0019405D01*
X0079035Y0019516D01*
X0079151Y0019623D01*
X0079269Y0019728D01*
X0079389Y0019830D01*
X0079512Y0019928D01*
X0079638Y0020024D01*
X0079766Y0020116D01*
X0079896Y0020205D01*
X0080028Y0020291D01*
X0080163Y0020373D01*
X0080300Y0020452D01*
X0080438Y0020527D01*
X0080578Y0020599D01*
X0080721Y0020667D01*
X0080864Y0020732D01*
X0081010Y0020793D01*
X0081157Y0020850D01*
X0081305Y0020904D01*
X0081455Y0020954D01*
X0081605Y0021000D01*
X0081757Y0021042D01*
X0081910Y0021081D01*
X0082064Y0021115D01*
X0082219Y0021146D01*
X0082374Y0021172D01*
X0082530Y0021195D01*
X0082687Y0021214D01*
X0082844Y0021229D01*
X0083001Y0021240D01*
X0083159Y0021247D01*
X0083317Y0021250D01*
X0083474Y0021249D01*
X0083632Y0021244D01*
X0083789Y0021235D01*
X0083947Y0021222D01*
X0084103Y0021205D01*
X0084260Y0021184D01*
X0084415Y0021160D01*
X0084570Y0021131D01*
X0084725Y0021098D01*
X0084878Y0021062D01*
X0085031Y0021021D01*
X0085182Y0020977D01*
X0085332Y0020929D01*
X0085481Y0020878D01*
X0085629Y0020822D01*
X0085775Y0020763D01*
X0085920Y0020700D01*
X0086063Y0020633D01*
X0086204Y0020563D01*
X0086343Y0020490D01*
X0086481Y0020413D01*
X0086617Y0020332D01*
X0086750Y0020248D01*
X0086881Y0020161D01*
X0087010Y0020070D01*
X0087137Y0019976D01*
X0087262Y0019879D01*
X0087383Y0019779D01*
X0087503Y0019676D01*
X0087619Y0019570D01*
X0087733Y0019461D01*
X0087845Y0019349D01*
X0087953Y0019235D01*
X0088058Y0019117D01*
X0088161Y0018997D01*
X0088260Y0018875D01*
X0088356Y0018750D01*
X0088449Y0018622D01*
X0088539Y0018493D01*
X0088625Y0018361D01*
X0088709Y0018227D01*
X0088788Y0018091D01*
X0088865Y0017953D01*
X0088937Y0017813D01*
X0089006Y0017671D01*
X0089072Y0017528D01*
X0089134Y0017383D01*
X0089192Y0017236D01*
X0089247Y0017088D01*
X0089298Y0016939D01*
X0089345Y0016788D01*
X0089388Y0016637D01*
X0089427Y0016484D01*
X0089463Y0016330D01*
X0089494Y0016176D01*
X0089522Y0016021D01*
X0089546Y0015865D01*
X0089566Y0015708D01*
X0089582Y0015551D01*
X0089594Y0015394D01*
X0089602Y0015237D01*
X0089606Y0015079D01*
X0089606Y0014921D01*
X0089602Y0014763D01*
X0089594Y0014606D01*
X0089582Y0014449D01*
X0089566Y0014292D01*
X0089546Y0014135D01*
X0089522Y0013979D01*
X0089494Y0013824D01*
X0089463Y0013670D01*
X0089427Y0013516D01*
X0089388Y0013363D01*
X0089345Y0013212D01*
X0089298Y0013061D01*
X0089247Y0012912D01*
X0089192Y0012764D01*
X0089134Y0012617D01*
X0089072Y0012472D01*
X0089006Y0012329D01*
X0088937Y0012187D01*
X0088865Y0012047D01*
X0088788Y0011909D01*
X0088709Y0011773D01*
X0088625Y0011639D01*
X0088539Y0011507D01*
X0088449Y0011378D01*
X0088356Y0011250D01*
X0088260Y0011125D01*
X0088161Y0011003D01*
X0088058Y0010883D01*
X0087953Y0010765D01*
X0087845Y0010651D01*
X0087733Y0010539D01*
X0087619Y0010430D01*
X0087503Y0010324D01*
X0087383Y0010221D01*
X0087262Y0010121D01*
X0087137Y0010024D01*
X0087010Y0009930D01*
X0086881Y0009839D01*
X0086750Y0009752D01*
X0086617Y0009668D01*
X0086481Y0009587D01*
X0086343Y0009510D01*
X0086204Y0009437D01*
X0086063Y0009367D01*
X0085920Y0009300D01*
X0085775Y0009237D01*
X0085629Y0009178D01*
X0085481Y0009122D01*
X0085332Y0009071D01*
X0085182Y0009023D01*
X0085031Y0008979D01*
X0084878Y0008938D01*
X0084725Y0008902D01*
X0084570Y0008869D01*
X0084415Y0008840D01*
X0084260Y0008816D01*
X0084103Y0008795D01*
X0083947Y0008778D01*
X0083789Y0008765D01*
X0083632Y0008756D01*
X0083474Y0008751D01*
X0083317Y0008750D01*
X0083159Y0008753D01*
X0083001Y0008760D01*
X0082844Y0008771D01*
X0082687Y0008786D01*
X0082530Y0008805D01*
X0082374Y0008828D01*
X0082219Y0008854D01*
X0082064Y0008885D01*
X0081910Y0008919D01*
X0081757Y0008958D01*
X0081605Y0009000D01*
X0081455Y0009046D01*
X0081305Y0009096D01*
X0081157Y0009150D01*
X0081010Y0009207D01*
X0080864Y0009268D01*
X0080721Y0009333D01*
X0080578Y0009401D01*
X0080438Y0009473D01*
X0080300Y0009548D01*
X0080163Y0009627D01*
X0080028Y0009709D01*
X0079896Y0009795D01*
X0079766Y0009884D01*
X0079638Y0009976D01*
X0079512Y0010072D01*
X0079389Y0010170D01*
X0079269Y0010272D01*
X0079151Y0010377D01*
X0079035Y0010484D01*
X0078923Y0010595D01*
X0078813Y0010708D01*
X0078706Y0010824D01*
X0078602Y0010942D01*
X0078501Y0011064D01*
X0078404Y0011187D01*
X0078309Y0011314D01*
X0078218Y0011442D01*
X0078129Y0011573D01*
X0078045Y0011706D01*
X0077963Y0011841D01*
X0077885Y0011978D01*
X0077811Y0012117D01*
X0077740Y0012258D01*
X0077672Y0012400D01*
X0077609Y0012545D01*
X0077548Y0012690D01*
X0077492Y0012838D01*
X0077439Y0012986D01*
X0077390Y0013136D01*
X0077345Y0013287D01*
X0077304Y0013440D01*
X0077266Y0013593D01*
X0077233Y0013747D01*
X0077203Y0013902D01*
X0077177Y0014057D01*
X0077156Y0014214D01*
X0077138Y0014370D01*
X0077124Y0014527D01*
X0077114Y0014685D01*
X0077108Y0014842D01*
X0077106Y0015000D01*
X0071683Y0045000D02*
X0071685Y0045081D01*
X0071691Y0045163D01*
X0071701Y0045244D01*
X0071715Y0045324D01*
X0071732Y0045403D01*
X0071754Y0045482D01*
X0071779Y0045559D01*
X0071808Y0045636D01*
X0071841Y0045710D01*
X0071878Y0045783D01*
X0071917Y0045854D01*
X0071961Y0045923D01*
X0072007Y0045990D01*
X0072057Y0046054D01*
X0072110Y0046116D01*
X0072166Y0046176D01*
X0072224Y0046232D01*
X0072286Y0046286D01*
X0072350Y0046337D01*
X0072416Y0046384D01*
X0072484Y0046428D01*
X0072555Y0046469D01*
X0072627Y0046506D01*
X0072702Y0046540D01*
X0072777Y0046570D01*
X0072855Y0046596D01*
X0072933Y0046619D01*
X0073012Y0046637D01*
X0073092Y0046652D01*
X0073173Y0046663D01*
X0073254Y0046670D01*
X0073336Y0046673D01*
X0073417Y0046672D01*
X0073498Y0046667D01*
X0073579Y0046658D01*
X0073660Y0046645D01*
X0073740Y0046628D01*
X0073818Y0046608D01*
X0073896Y0046583D01*
X0073973Y0046555D01*
X0074048Y0046523D01*
X0074121Y0046488D01*
X0074192Y0046449D01*
X0074262Y0046406D01*
X0074329Y0046361D01*
X0074395Y0046312D01*
X0074457Y0046260D01*
X0074517Y0046204D01*
X0074574Y0046146D01*
X0074629Y0046086D01*
X0074680Y0046022D01*
X0074728Y0045957D01*
X0074773Y0045889D01*
X0074815Y0045819D01*
X0074853Y0045747D01*
X0074888Y0045673D01*
X0074919Y0045598D01*
X0074946Y0045521D01*
X0074969Y0045443D01*
X0074989Y0045364D01*
X0075005Y0045284D01*
X0075017Y0045203D01*
X0075025Y0045122D01*
X0075029Y0045041D01*
X0075029Y0044959D01*
X0075025Y0044878D01*
X0075017Y0044797D01*
X0075005Y0044716D01*
X0074989Y0044636D01*
X0074969Y0044557D01*
X0074946Y0044479D01*
X0074919Y0044402D01*
X0074888Y0044327D01*
X0074853Y0044253D01*
X0074815Y0044181D01*
X0074773Y0044111D01*
X0074728Y0044043D01*
X0074680Y0043978D01*
X0074629Y0043914D01*
X0074574Y0043854D01*
X0074517Y0043796D01*
X0074457Y0043740D01*
X0074395Y0043688D01*
X0074329Y0043639D01*
X0074262Y0043594D01*
X0074193Y0043551D01*
X0074121Y0043512D01*
X0074048Y0043477D01*
X0073973Y0043445D01*
X0073896Y0043417D01*
X0073818Y0043392D01*
X0073740Y0043372D01*
X0073660Y0043355D01*
X0073579Y0043342D01*
X0073498Y0043333D01*
X0073417Y0043328D01*
X0073336Y0043327D01*
X0073254Y0043330D01*
X0073173Y0043337D01*
X0073092Y0043348D01*
X0073012Y0043363D01*
X0072933Y0043381D01*
X0072855Y0043404D01*
X0072777Y0043430D01*
X0072702Y0043460D01*
X0072627Y0043494D01*
X0072555Y0043531D01*
X0072484Y0043572D01*
X0072416Y0043616D01*
X0072350Y0043663D01*
X0072286Y0043714D01*
X0072224Y0043768D01*
X0072166Y0043824D01*
X0072110Y0043884D01*
X0072057Y0043946D01*
X0072007Y0044010D01*
X0071961Y0044077D01*
X0071917Y0044146D01*
X0071878Y0044217D01*
X0071841Y0044290D01*
X0071808Y0044364D01*
X0071779Y0044441D01*
X0071754Y0044518D01*
X0071732Y0044597D01*
X0071715Y0044676D01*
X0071701Y0044756D01*
X0071691Y0044837D01*
X0071685Y0044919D01*
X0071683Y0045000D01*
X0066683Y0045000D02*
X0066685Y0045081D01*
X0066691Y0045163D01*
X0066701Y0045244D01*
X0066715Y0045324D01*
X0066732Y0045403D01*
X0066754Y0045482D01*
X0066779Y0045559D01*
X0066808Y0045636D01*
X0066841Y0045710D01*
X0066878Y0045783D01*
X0066917Y0045854D01*
X0066961Y0045923D01*
X0067007Y0045990D01*
X0067057Y0046054D01*
X0067110Y0046116D01*
X0067166Y0046176D01*
X0067224Y0046232D01*
X0067286Y0046286D01*
X0067350Y0046337D01*
X0067416Y0046384D01*
X0067484Y0046428D01*
X0067555Y0046469D01*
X0067627Y0046506D01*
X0067702Y0046540D01*
X0067777Y0046570D01*
X0067855Y0046596D01*
X0067933Y0046619D01*
X0068012Y0046637D01*
X0068092Y0046652D01*
X0068173Y0046663D01*
X0068254Y0046670D01*
X0068336Y0046673D01*
X0068417Y0046672D01*
X0068498Y0046667D01*
X0068579Y0046658D01*
X0068660Y0046645D01*
X0068740Y0046628D01*
X0068818Y0046608D01*
X0068896Y0046583D01*
X0068973Y0046555D01*
X0069048Y0046523D01*
X0069121Y0046488D01*
X0069192Y0046449D01*
X0069262Y0046406D01*
X0069329Y0046361D01*
X0069395Y0046312D01*
X0069457Y0046260D01*
X0069517Y0046204D01*
X0069574Y0046146D01*
X0069629Y0046086D01*
X0069680Y0046022D01*
X0069728Y0045957D01*
X0069773Y0045889D01*
X0069815Y0045819D01*
X0069853Y0045747D01*
X0069888Y0045673D01*
X0069919Y0045598D01*
X0069946Y0045521D01*
X0069969Y0045443D01*
X0069989Y0045364D01*
X0070005Y0045284D01*
X0070017Y0045203D01*
X0070025Y0045122D01*
X0070029Y0045041D01*
X0070029Y0044959D01*
X0070025Y0044878D01*
X0070017Y0044797D01*
X0070005Y0044716D01*
X0069989Y0044636D01*
X0069969Y0044557D01*
X0069946Y0044479D01*
X0069919Y0044402D01*
X0069888Y0044327D01*
X0069853Y0044253D01*
X0069815Y0044181D01*
X0069773Y0044111D01*
X0069728Y0044043D01*
X0069680Y0043978D01*
X0069629Y0043914D01*
X0069574Y0043854D01*
X0069517Y0043796D01*
X0069457Y0043740D01*
X0069395Y0043688D01*
X0069329Y0043639D01*
X0069262Y0043594D01*
X0069193Y0043551D01*
X0069121Y0043512D01*
X0069048Y0043477D01*
X0068973Y0043445D01*
X0068896Y0043417D01*
X0068818Y0043392D01*
X0068740Y0043372D01*
X0068660Y0043355D01*
X0068579Y0043342D01*
X0068498Y0043333D01*
X0068417Y0043328D01*
X0068336Y0043327D01*
X0068254Y0043330D01*
X0068173Y0043337D01*
X0068092Y0043348D01*
X0068012Y0043363D01*
X0067933Y0043381D01*
X0067855Y0043404D01*
X0067777Y0043430D01*
X0067702Y0043460D01*
X0067627Y0043494D01*
X0067555Y0043531D01*
X0067484Y0043572D01*
X0067416Y0043616D01*
X0067350Y0043663D01*
X0067286Y0043714D01*
X0067224Y0043768D01*
X0067166Y0043824D01*
X0067110Y0043884D01*
X0067057Y0043946D01*
X0067007Y0044010D01*
X0066961Y0044077D01*
X0066917Y0044146D01*
X0066878Y0044217D01*
X0066841Y0044290D01*
X0066808Y0044364D01*
X0066779Y0044441D01*
X0066754Y0044518D01*
X0066732Y0044597D01*
X0066715Y0044676D01*
X0066701Y0044756D01*
X0066691Y0044837D01*
X0066685Y0044919D01*
X0066683Y0045000D01*
X0061683Y0045000D02*
X0061685Y0045081D01*
X0061691Y0045163D01*
X0061701Y0045244D01*
X0061715Y0045324D01*
X0061732Y0045403D01*
X0061754Y0045482D01*
X0061779Y0045559D01*
X0061808Y0045636D01*
X0061841Y0045710D01*
X0061878Y0045783D01*
X0061917Y0045854D01*
X0061961Y0045923D01*
X0062007Y0045990D01*
X0062057Y0046054D01*
X0062110Y0046116D01*
X0062166Y0046176D01*
X0062224Y0046232D01*
X0062286Y0046286D01*
X0062350Y0046337D01*
X0062416Y0046384D01*
X0062484Y0046428D01*
X0062555Y0046469D01*
X0062627Y0046506D01*
X0062702Y0046540D01*
X0062777Y0046570D01*
X0062855Y0046596D01*
X0062933Y0046619D01*
X0063012Y0046637D01*
X0063092Y0046652D01*
X0063173Y0046663D01*
X0063254Y0046670D01*
X0063336Y0046673D01*
X0063417Y0046672D01*
X0063498Y0046667D01*
X0063579Y0046658D01*
X0063660Y0046645D01*
X0063740Y0046628D01*
X0063818Y0046608D01*
X0063896Y0046583D01*
X0063973Y0046555D01*
X0064048Y0046523D01*
X0064121Y0046488D01*
X0064192Y0046449D01*
X0064262Y0046406D01*
X0064329Y0046361D01*
X0064395Y0046312D01*
X0064457Y0046260D01*
X0064517Y0046204D01*
X0064574Y0046146D01*
X0064629Y0046086D01*
X0064680Y0046022D01*
X0064728Y0045957D01*
X0064773Y0045889D01*
X0064815Y0045819D01*
X0064853Y0045747D01*
X0064888Y0045673D01*
X0064919Y0045598D01*
X0064946Y0045521D01*
X0064969Y0045443D01*
X0064989Y0045364D01*
X0065005Y0045284D01*
X0065017Y0045203D01*
X0065025Y0045122D01*
X0065029Y0045041D01*
X0065029Y0044959D01*
X0065025Y0044878D01*
X0065017Y0044797D01*
X0065005Y0044716D01*
X0064989Y0044636D01*
X0064969Y0044557D01*
X0064946Y0044479D01*
X0064919Y0044402D01*
X0064888Y0044327D01*
X0064853Y0044253D01*
X0064815Y0044181D01*
X0064773Y0044111D01*
X0064728Y0044043D01*
X0064680Y0043978D01*
X0064629Y0043914D01*
X0064574Y0043854D01*
X0064517Y0043796D01*
X0064457Y0043740D01*
X0064395Y0043688D01*
X0064329Y0043639D01*
X0064262Y0043594D01*
X0064193Y0043551D01*
X0064121Y0043512D01*
X0064048Y0043477D01*
X0063973Y0043445D01*
X0063896Y0043417D01*
X0063818Y0043392D01*
X0063740Y0043372D01*
X0063660Y0043355D01*
X0063579Y0043342D01*
X0063498Y0043333D01*
X0063417Y0043328D01*
X0063336Y0043327D01*
X0063254Y0043330D01*
X0063173Y0043337D01*
X0063092Y0043348D01*
X0063012Y0043363D01*
X0062933Y0043381D01*
X0062855Y0043404D01*
X0062777Y0043430D01*
X0062702Y0043460D01*
X0062627Y0043494D01*
X0062555Y0043531D01*
X0062484Y0043572D01*
X0062416Y0043616D01*
X0062350Y0043663D01*
X0062286Y0043714D01*
X0062224Y0043768D01*
X0062166Y0043824D01*
X0062110Y0043884D01*
X0062057Y0043946D01*
X0062007Y0044010D01*
X0061961Y0044077D01*
X0061917Y0044146D01*
X0061878Y0044217D01*
X0061841Y0044290D01*
X0061808Y0044364D01*
X0061779Y0044441D01*
X0061754Y0044518D01*
X0061732Y0044597D01*
X0061715Y0044676D01*
X0061701Y0044756D01*
X0061691Y0044837D01*
X0061685Y0044919D01*
X0061683Y0045000D01*
X0056683Y0045000D02*
X0056685Y0045081D01*
X0056691Y0045163D01*
X0056701Y0045244D01*
X0056715Y0045324D01*
X0056732Y0045403D01*
X0056754Y0045482D01*
X0056779Y0045559D01*
X0056808Y0045636D01*
X0056841Y0045710D01*
X0056878Y0045783D01*
X0056917Y0045854D01*
X0056961Y0045923D01*
X0057007Y0045990D01*
X0057057Y0046054D01*
X0057110Y0046116D01*
X0057166Y0046176D01*
X0057224Y0046232D01*
X0057286Y0046286D01*
X0057350Y0046337D01*
X0057416Y0046384D01*
X0057484Y0046428D01*
X0057555Y0046469D01*
X0057627Y0046506D01*
X0057702Y0046540D01*
X0057777Y0046570D01*
X0057855Y0046596D01*
X0057933Y0046619D01*
X0058012Y0046637D01*
X0058092Y0046652D01*
X0058173Y0046663D01*
X0058254Y0046670D01*
X0058336Y0046673D01*
X0058417Y0046672D01*
X0058498Y0046667D01*
X0058579Y0046658D01*
X0058660Y0046645D01*
X0058740Y0046628D01*
X0058818Y0046608D01*
X0058896Y0046583D01*
X0058973Y0046555D01*
X0059048Y0046523D01*
X0059121Y0046488D01*
X0059192Y0046449D01*
X0059262Y0046406D01*
X0059329Y0046361D01*
X0059395Y0046312D01*
X0059457Y0046260D01*
X0059517Y0046204D01*
X0059574Y0046146D01*
X0059629Y0046086D01*
X0059680Y0046022D01*
X0059728Y0045957D01*
X0059773Y0045889D01*
X0059815Y0045819D01*
X0059853Y0045747D01*
X0059888Y0045673D01*
X0059919Y0045598D01*
X0059946Y0045521D01*
X0059969Y0045443D01*
X0059989Y0045364D01*
X0060005Y0045284D01*
X0060017Y0045203D01*
X0060025Y0045122D01*
X0060029Y0045041D01*
X0060029Y0044959D01*
X0060025Y0044878D01*
X0060017Y0044797D01*
X0060005Y0044716D01*
X0059989Y0044636D01*
X0059969Y0044557D01*
X0059946Y0044479D01*
X0059919Y0044402D01*
X0059888Y0044327D01*
X0059853Y0044253D01*
X0059815Y0044181D01*
X0059773Y0044111D01*
X0059728Y0044043D01*
X0059680Y0043978D01*
X0059629Y0043914D01*
X0059574Y0043854D01*
X0059517Y0043796D01*
X0059457Y0043740D01*
X0059395Y0043688D01*
X0059329Y0043639D01*
X0059262Y0043594D01*
X0059193Y0043551D01*
X0059121Y0043512D01*
X0059048Y0043477D01*
X0058973Y0043445D01*
X0058896Y0043417D01*
X0058818Y0043392D01*
X0058740Y0043372D01*
X0058660Y0043355D01*
X0058579Y0043342D01*
X0058498Y0043333D01*
X0058417Y0043328D01*
X0058336Y0043327D01*
X0058254Y0043330D01*
X0058173Y0043337D01*
X0058092Y0043348D01*
X0058012Y0043363D01*
X0057933Y0043381D01*
X0057855Y0043404D01*
X0057777Y0043430D01*
X0057702Y0043460D01*
X0057627Y0043494D01*
X0057555Y0043531D01*
X0057484Y0043572D01*
X0057416Y0043616D01*
X0057350Y0043663D01*
X0057286Y0043714D01*
X0057224Y0043768D01*
X0057166Y0043824D01*
X0057110Y0043884D01*
X0057057Y0043946D01*
X0057007Y0044010D01*
X0056961Y0044077D01*
X0056917Y0044146D01*
X0056878Y0044217D01*
X0056841Y0044290D01*
X0056808Y0044364D01*
X0056779Y0044441D01*
X0056754Y0044518D01*
X0056732Y0044597D01*
X0056715Y0044676D01*
X0056701Y0044756D01*
X0056691Y0044837D01*
X0056685Y0044919D01*
X0056683Y0045000D01*
X0051683Y0045000D02*
X0051685Y0045081D01*
X0051691Y0045163D01*
X0051701Y0045244D01*
X0051715Y0045324D01*
X0051732Y0045403D01*
X0051754Y0045482D01*
X0051779Y0045559D01*
X0051808Y0045636D01*
X0051841Y0045710D01*
X0051878Y0045783D01*
X0051917Y0045854D01*
X0051961Y0045923D01*
X0052007Y0045990D01*
X0052057Y0046054D01*
X0052110Y0046116D01*
X0052166Y0046176D01*
X0052224Y0046232D01*
X0052286Y0046286D01*
X0052350Y0046337D01*
X0052416Y0046384D01*
X0052484Y0046428D01*
X0052555Y0046469D01*
X0052627Y0046506D01*
X0052702Y0046540D01*
X0052777Y0046570D01*
X0052855Y0046596D01*
X0052933Y0046619D01*
X0053012Y0046637D01*
X0053092Y0046652D01*
X0053173Y0046663D01*
X0053254Y0046670D01*
X0053336Y0046673D01*
X0053417Y0046672D01*
X0053498Y0046667D01*
X0053579Y0046658D01*
X0053660Y0046645D01*
X0053740Y0046628D01*
X0053818Y0046608D01*
X0053896Y0046583D01*
X0053973Y0046555D01*
X0054048Y0046523D01*
X0054121Y0046488D01*
X0054192Y0046449D01*
X0054262Y0046406D01*
X0054329Y0046361D01*
X0054395Y0046312D01*
X0054457Y0046260D01*
X0054517Y0046204D01*
X0054574Y0046146D01*
X0054629Y0046086D01*
X0054680Y0046022D01*
X0054728Y0045957D01*
X0054773Y0045889D01*
X0054815Y0045819D01*
X0054853Y0045747D01*
X0054888Y0045673D01*
X0054919Y0045598D01*
X0054946Y0045521D01*
X0054969Y0045443D01*
X0054989Y0045364D01*
X0055005Y0045284D01*
X0055017Y0045203D01*
X0055025Y0045122D01*
X0055029Y0045041D01*
X0055029Y0044959D01*
X0055025Y0044878D01*
X0055017Y0044797D01*
X0055005Y0044716D01*
X0054989Y0044636D01*
X0054969Y0044557D01*
X0054946Y0044479D01*
X0054919Y0044402D01*
X0054888Y0044327D01*
X0054853Y0044253D01*
X0054815Y0044181D01*
X0054773Y0044111D01*
X0054728Y0044043D01*
X0054680Y0043978D01*
X0054629Y0043914D01*
X0054574Y0043854D01*
X0054517Y0043796D01*
X0054457Y0043740D01*
X0054395Y0043688D01*
X0054329Y0043639D01*
X0054262Y0043594D01*
X0054193Y0043551D01*
X0054121Y0043512D01*
X0054048Y0043477D01*
X0053973Y0043445D01*
X0053896Y0043417D01*
X0053818Y0043392D01*
X0053740Y0043372D01*
X0053660Y0043355D01*
X0053579Y0043342D01*
X0053498Y0043333D01*
X0053417Y0043328D01*
X0053336Y0043327D01*
X0053254Y0043330D01*
X0053173Y0043337D01*
X0053092Y0043348D01*
X0053012Y0043363D01*
X0052933Y0043381D01*
X0052855Y0043404D01*
X0052777Y0043430D01*
X0052702Y0043460D01*
X0052627Y0043494D01*
X0052555Y0043531D01*
X0052484Y0043572D01*
X0052416Y0043616D01*
X0052350Y0043663D01*
X0052286Y0043714D01*
X0052224Y0043768D01*
X0052166Y0043824D01*
X0052110Y0043884D01*
X0052057Y0043946D01*
X0052007Y0044010D01*
X0051961Y0044077D01*
X0051917Y0044146D01*
X0051878Y0044217D01*
X0051841Y0044290D01*
X0051808Y0044364D01*
X0051779Y0044441D01*
X0051754Y0044518D01*
X0051732Y0044597D01*
X0051715Y0044676D01*
X0051701Y0044756D01*
X0051691Y0044837D01*
X0051685Y0044919D01*
X0051683Y0045000D01*
X0046683Y0045000D02*
X0046685Y0045081D01*
X0046691Y0045163D01*
X0046701Y0045244D01*
X0046715Y0045324D01*
X0046732Y0045403D01*
X0046754Y0045482D01*
X0046779Y0045559D01*
X0046808Y0045636D01*
X0046841Y0045710D01*
X0046878Y0045783D01*
X0046917Y0045854D01*
X0046961Y0045923D01*
X0047007Y0045990D01*
X0047057Y0046054D01*
X0047110Y0046116D01*
X0047166Y0046176D01*
X0047224Y0046232D01*
X0047286Y0046286D01*
X0047350Y0046337D01*
X0047416Y0046384D01*
X0047484Y0046428D01*
X0047555Y0046469D01*
X0047627Y0046506D01*
X0047702Y0046540D01*
X0047777Y0046570D01*
X0047855Y0046596D01*
X0047933Y0046619D01*
X0048012Y0046637D01*
X0048092Y0046652D01*
X0048173Y0046663D01*
X0048254Y0046670D01*
X0048336Y0046673D01*
X0048417Y0046672D01*
X0048498Y0046667D01*
X0048579Y0046658D01*
X0048660Y0046645D01*
X0048740Y0046628D01*
X0048818Y0046608D01*
X0048896Y0046583D01*
X0048973Y0046555D01*
X0049048Y0046523D01*
X0049121Y0046488D01*
X0049192Y0046449D01*
X0049262Y0046406D01*
X0049329Y0046361D01*
X0049395Y0046312D01*
X0049457Y0046260D01*
X0049517Y0046204D01*
X0049574Y0046146D01*
X0049629Y0046086D01*
X0049680Y0046022D01*
X0049728Y0045957D01*
X0049773Y0045889D01*
X0049815Y0045819D01*
X0049853Y0045747D01*
X0049888Y0045673D01*
X0049919Y0045598D01*
X0049946Y0045521D01*
X0049969Y0045443D01*
X0049989Y0045364D01*
X0050005Y0045284D01*
X0050017Y0045203D01*
X0050025Y0045122D01*
X0050029Y0045041D01*
X0050029Y0044959D01*
X0050025Y0044878D01*
X0050017Y0044797D01*
X0050005Y0044716D01*
X0049989Y0044636D01*
X0049969Y0044557D01*
X0049946Y0044479D01*
X0049919Y0044402D01*
X0049888Y0044327D01*
X0049853Y0044253D01*
X0049815Y0044181D01*
X0049773Y0044111D01*
X0049728Y0044043D01*
X0049680Y0043978D01*
X0049629Y0043914D01*
X0049574Y0043854D01*
X0049517Y0043796D01*
X0049457Y0043740D01*
X0049395Y0043688D01*
X0049329Y0043639D01*
X0049262Y0043594D01*
X0049193Y0043551D01*
X0049121Y0043512D01*
X0049048Y0043477D01*
X0048973Y0043445D01*
X0048896Y0043417D01*
X0048818Y0043392D01*
X0048740Y0043372D01*
X0048660Y0043355D01*
X0048579Y0043342D01*
X0048498Y0043333D01*
X0048417Y0043328D01*
X0048336Y0043327D01*
X0048254Y0043330D01*
X0048173Y0043337D01*
X0048092Y0043348D01*
X0048012Y0043363D01*
X0047933Y0043381D01*
X0047855Y0043404D01*
X0047777Y0043430D01*
X0047702Y0043460D01*
X0047627Y0043494D01*
X0047555Y0043531D01*
X0047484Y0043572D01*
X0047416Y0043616D01*
X0047350Y0043663D01*
X0047286Y0043714D01*
X0047224Y0043768D01*
X0047166Y0043824D01*
X0047110Y0043884D01*
X0047057Y0043946D01*
X0047007Y0044010D01*
X0046961Y0044077D01*
X0046917Y0044146D01*
X0046878Y0044217D01*
X0046841Y0044290D01*
X0046808Y0044364D01*
X0046779Y0044441D01*
X0046754Y0044518D01*
X0046732Y0044597D01*
X0046715Y0044676D01*
X0046701Y0044756D01*
X0046691Y0044837D01*
X0046685Y0044919D01*
X0046683Y0045000D01*
X0041683Y0045000D02*
X0041685Y0045081D01*
X0041691Y0045163D01*
X0041701Y0045244D01*
X0041715Y0045324D01*
X0041732Y0045403D01*
X0041754Y0045482D01*
X0041779Y0045559D01*
X0041808Y0045636D01*
X0041841Y0045710D01*
X0041878Y0045783D01*
X0041917Y0045854D01*
X0041961Y0045923D01*
X0042007Y0045990D01*
X0042057Y0046054D01*
X0042110Y0046116D01*
X0042166Y0046176D01*
X0042224Y0046232D01*
X0042286Y0046286D01*
X0042350Y0046337D01*
X0042416Y0046384D01*
X0042484Y0046428D01*
X0042555Y0046469D01*
X0042627Y0046506D01*
X0042702Y0046540D01*
X0042777Y0046570D01*
X0042855Y0046596D01*
X0042933Y0046619D01*
X0043012Y0046637D01*
X0043092Y0046652D01*
X0043173Y0046663D01*
X0043254Y0046670D01*
X0043336Y0046673D01*
X0043417Y0046672D01*
X0043498Y0046667D01*
X0043579Y0046658D01*
X0043660Y0046645D01*
X0043740Y0046628D01*
X0043818Y0046608D01*
X0043896Y0046583D01*
X0043973Y0046555D01*
X0044048Y0046523D01*
X0044121Y0046488D01*
X0044192Y0046449D01*
X0044262Y0046406D01*
X0044329Y0046361D01*
X0044395Y0046312D01*
X0044457Y0046260D01*
X0044517Y0046204D01*
X0044574Y0046146D01*
X0044629Y0046086D01*
X0044680Y0046022D01*
X0044728Y0045957D01*
X0044773Y0045889D01*
X0044815Y0045819D01*
X0044853Y0045747D01*
X0044888Y0045673D01*
X0044919Y0045598D01*
X0044946Y0045521D01*
X0044969Y0045443D01*
X0044989Y0045364D01*
X0045005Y0045284D01*
X0045017Y0045203D01*
X0045025Y0045122D01*
X0045029Y0045041D01*
X0045029Y0044959D01*
X0045025Y0044878D01*
X0045017Y0044797D01*
X0045005Y0044716D01*
X0044989Y0044636D01*
X0044969Y0044557D01*
X0044946Y0044479D01*
X0044919Y0044402D01*
X0044888Y0044327D01*
X0044853Y0044253D01*
X0044815Y0044181D01*
X0044773Y0044111D01*
X0044728Y0044043D01*
X0044680Y0043978D01*
X0044629Y0043914D01*
X0044574Y0043854D01*
X0044517Y0043796D01*
X0044457Y0043740D01*
X0044395Y0043688D01*
X0044329Y0043639D01*
X0044262Y0043594D01*
X0044193Y0043551D01*
X0044121Y0043512D01*
X0044048Y0043477D01*
X0043973Y0043445D01*
X0043896Y0043417D01*
X0043818Y0043392D01*
X0043740Y0043372D01*
X0043660Y0043355D01*
X0043579Y0043342D01*
X0043498Y0043333D01*
X0043417Y0043328D01*
X0043336Y0043327D01*
X0043254Y0043330D01*
X0043173Y0043337D01*
X0043092Y0043348D01*
X0043012Y0043363D01*
X0042933Y0043381D01*
X0042855Y0043404D01*
X0042777Y0043430D01*
X0042702Y0043460D01*
X0042627Y0043494D01*
X0042555Y0043531D01*
X0042484Y0043572D01*
X0042416Y0043616D01*
X0042350Y0043663D01*
X0042286Y0043714D01*
X0042224Y0043768D01*
X0042166Y0043824D01*
X0042110Y0043884D01*
X0042057Y0043946D01*
X0042007Y0044010D01*
X0041961Y0044077D01*
X0041917Y0044146D01*
X0041878Y0044217D01*
X0041841Y0044290D01*
X0041808Y0044364D01*
X0041779Y0044441D01*
X0041754Y0044518D01*
X0041732Y0044597D01*
X0041715Y0044676D01*
X0041701Y0044756D01*
X0041691Y0044837D01*
X0041685Y0044919D01*
X0041683Y0045000D01*
X0036683Y0045000D02*
X0036685Y0045081D01*
X0036691Y0045163D01*
X0036701Y0045244D01*
X0036715Y0045324D01*
X0036732Y0045403D01*
X0036754Y0045482D01*
X0036779Y0045559D01*
X0036808Y0045636D01*
X0036841Y0045710D01*
X0036878Y0045783D01*
X0036917Y0045854D01*
X0036961Y0045923D01*
X0037007Y0045990D01*
X0037057Y0046054D01*
X0037110Y0046116D01*
X0037166Y0046176D01*
X0037224Y0046232D01*
X0037286Y0046286D01*
X0037350Y0046337D01*
X0037416Y0046384D01*
X0037484Y0046428D01*
X0037555Y0046469D01*
X0037627Y0046506D01*
X0037702Y0046540D01*
X0037777Y0046570D01*
X0037855Y0046596D01*
X0037933Y0046619D01*
X0038012Y0046637D01*
X0038092Y0046652D01*
X0038173Y0046663D01*
X0038254Y0046670D01*
X0038336Y0046673D01*
X0038417Y0046672D01*
X0038498Y0046667D01*
X0038579Y0046658D01*
X0038660Y0046645D01*
X0038740Y0046628D01*
X0038818Y0046608D01*
X0038896Y0046583D01*
X0038973Y0046555D01*
X0039048Y0046523D01*
X0039121Y0046488D01*
X0039192Y0046449D01*
X0039262Y0046406D01*
X0039329Y0046361D01*
X0039395Y0046312D01*
X0039457Y0046260D01*
X0039517Y0046204D01*
X0039574Y0046146D01*
X0039629Y0046086D01*
X0039680Y0046022D01*
X0039728Y0045957D01*
X0039773Y0045889D01*
X0039815Y0045819D01*
X0039853Y0045747D01*
X0039888Y0045673D01*
X0039919Y0045598D01*
X0039946Y0045521D01*
X0039969Y0045443D01*
X0039989Y0045364D01*
X0040005Y0045284D01*
X0040017Y0045203D01*
X0040025Y0045122D01*
X0040029Y0045041D01*
X0040029Y0044959D01*
X0040025Y0044878D01*
X0040017Y0044797D01*
X0040005Y0044716D01*
X0039989Y0044636D01*
X0039969Y0044557D01*
X0039946Y0044479D01*
X0039919Y0044402D01*
X0039888Y0044327D01*
X0039853Y0044253D01*
X0039815Y0044181D01*
X0039773Y0044111D01*
X0039728Y0044043D01*
X0039680Y0043978D01*
X0039629Y0043914D01*
X0039574Y0043854D01*
X0039517Y0043796D01*
X0039457Y0043740D01*
X0039395Y0043688D01*
X0039329Y0043639D01*
X0039262Y0043594D01*
X0039193Y0043551D01*
X0039121Y0043512D01*
X0039048Y0043477D01*
X0038973Y0043445D01*
X0038896Y0043417D01*
X0038818Y0043392D01*
X0038740Y0043372D01*
X0038660Y0043355D01*
X0038579Y0043342D01*
X0038498Y0043333D01*
X0038417Y0043328D01*
X0038336Y0043327D01*
X0038254Y0043330D01*
X0038173Y0043337D01*
X0038092Y0043348D01*
X0038012Y0043363D01*
X0037933Y0043381D01*
X0037855Y0043404D01*
X0037777Y0043430D01*
X0037702Y0043460D01*
X0037627Y0043494D01*
X0037555Y0043531D01*
X0037484Y0043572D01*
X0037416Y0043616D01*
X0037350Y0043663D01*
X0037286Y0043714D01*
X0037224Y0043768D01*
X0037166Y0043824D01*
X0037110Y0043884D01*
X0037057Y0043946D01*
X0037007Y0044010D01*
X0036961Y0044077D01*
X0036917Y0044146D01*
X0036878Y0044217D01*
X0036841Y0044290D01*
X0036808Y0044364D01*
X0036779Y0044441D01*
X0036754Y0044518D01*
X0036732Y0044597D01*
X0036715Y0044676D01*
X0036701Y0044756D01*
X0036691Y0044837D01*
X0036685Y0044919D01*
X0036683Y0045000D01*
X0282106Y0035000D02*
X0282108Y0035158D01*
X0282114Y0035315D01*
X0282124Y0035473D01*
X0282138Y0035630D01*
X0282156Y0035786D01*
X0282177Y0035943D01*
X0282203Y0036098D01*
X0282233Y0036253D01*
X0282266Y0036407D01*
X0282304Y0036560D01*
X0282345Y0036713D01*
X0282390Y0036864D01*
X0282439Y0037014D01*
X0282492Y0037162D01*
X0282548Y0037310D01*
X0282609Y0037455D01*
X0282672Y0037600D01*
X0282740Y0037742D01*
X0282811Y0037883D01*
X0282885Y0038022D01*
X0282963Y0038159D01*
X0283045Y0038294D01*
X0283129Y0038427D01*
X0283218Y0038558D01*
X0283309Y0038686D01*
X0283404Y0038813D01*
X0283501Y0038936D01*
X0283602Y0039058D01*
X0283706Y0039176D01*
X0283813Y0039292D01*
X0283923Y0039405D01*
X0284035Y0039516D01*
X0284151Y0039623D01*
X0284269Y0039728D01*
X0284389Y0039830D01*
X0284512Y0039928D01*
X0284638Y0040024D01*
X0284766Y0040116D01*
X0284896Y0040205D01*
X0285028Y0040291D01*
X0285163Y0040373D01*
X0285300Y0040452D01*
X0285438Y0040527D01*
X0285578Y0040599D01*
X0285721Y0040667D01*
X0285864Y0040732D01*
X0286010Y0040793D01*
X0286157Y0040850D01*
X0286305Y0040904D01*
X0286455Y0040954D01*
X0286605Y0041000D01*
X0286757Y0041042D01*
X0286910Y0041081D01*
X0287064Y0041115D01*
X0287219Y0041146D01*
X0287374Y0041172D01*
X0287530Y0041195D01*
X0287687Y0041214D01*
X0287844Y0041229D01*
X0288001Y0041240D01*
X0288159Y0041247D01*
X0288317Y0041250D01*
X0288474Y0041249D01*
X0288632Y0041244D01*
X0288789Y0041235D01*
X0288947Y0041222D01*
X0289103Y0041205D01*
X0289260Y0041184D01*
X0289415Y0041160D01*
X0289570Y0041131D01*
X0289725Y0041098D01*
X0289878Y0041062D01*
X0290031Y0041021D01*
X0290182Y0040977D01*
X0290332Y0040929D01*
X0290481Y0040878D01*
X0290629Y0040822D01*
X0290775Y0040763D01*
X0290920Y0040700D01*
X0291063Y0040633D01*
X0291204Y0040563D01*
X0291343Y0040490D01*
X0291481Y0040413D01*
X0291617Y0040332D01*
X0291750Y0040248D01*
X0291881Y0040161D01*
X0292010Y0040070D01*
X0292137Y0039976D01*
X0292262Y0039879D01*
X0292383Y0039779D01*
X0292503Y0039676D01*
X0292619Y0039570D01*
X0292733Y0039461D01*
X0292845Y0039349D01*
X0292953Y0039235D01*
X0293058Y0039117D01*
X0293161Y0038997D01*
X0293260Y0038875D01*
X0293356Y0038750D01*
X0293449Y0038622D01*
X0293539Y0038493D01*
X0293625Y0038361D01*
X0293709Y0038227D01*
X0293788Y0038091D01*
X0293865Y0037953D01*
X0293937Y0037813D01*
X0294006Y0037671D01*
X0294072Y0037528D01*
X0294134Y0037383D01*
X0294192Y0037236D01*
X0294247Y0037088D01*
X0294298Y0036939D01*
X0294345Y0036788D01*
X0294388Y0036637D01*
X0294427Y0036484D01*
X0294463Y0036330D01*
X0294494Y0036176D01*
X0294522Y0036021D01*
X0294546Y0035865D01*
X0294566Y0035708D01*
X0294582Y0035551D01*
X0294594Y0035394D01*
X0294602Y0035237D01*
X0294606Y0035079D01*
X0294606Y0034921D01*
X0294602Y0034763D01*
X0294594Y0034606D01*
X0294582Y0034449D01*
X0294566Y0034292D01*
X0294546Y0034135D01*
X0294522Y0033979D01*
X0294494Y0033824D01*
X0294463Y0033670D01*
X0294427Y0033516D01*
X0294388Y0033363D01*
X0294345Y0033212D01*
X0294298Y0033061D01*
X0294247Y0032912D01*
X0294192Y0032764D01*
X0294134Y0032617D01*
X0294072Y0032472D01*
X0294006Y0032329D01*
X0293937Y0032187D01*
X0293865Y0032047D01*
X0293788Y0031909D01*
X0293709Y0031773D01*
X0293625Y0031639D01*
X0293539Y0031507D01*
X0293449Y0031378D01*
X0293356Y0031250D01*
X0293260Y0031125D01*
X0293161Y0031003D01*
X0293058Y0030883D01*
X0292953Y0030765D01*
X0292845Y0030651D01*
X0292733Y0030539D01*
X0292619Y0030430D01*
X0292503Y0030324D01*
X0292383Y0030221D01*
X0292262Y0030121D01*
X0292137Y0030024D01*
X0292010Y0029930D01*
X0291881Y0029839D01*
X0291750Y0029752D01*
X0291617Y0029668D01*
X0291481Y0029587D01*
X0291343Y0029510D01*
X0291204Y0029437D01*
X0291063Y0029367D01*
X0290920Y0029300D01*
X0290775Y0029237D01*
X0290629Y0029178D01*
X0290481Y0029122D01*
X0290332Y0029071D01*
X0290182Y0029023D01*
X0290031Y0028979D01*
X0289878Y0028938D01*
X0289725Y0028902D01*
X0289570Y0028869D01*
X0289415Y0028840D01*
X0289260Y0028816D01*
X0289103Y0028795D01*
X0288947Y0028778D01*
X0288789Y0028765D01*
X0288632Y0028756D01*
X0288474Y0028751D01*
X0288317Y0028750D01*
X0288159Y0028753D01*
X0288001Y0028760D01*
X0287844Y0028771D01*
X0287687Y0028786D01*
X0287530Y0028805D01*
X0287374Y0028828D01*
X0287219Y0028854D01*
X0287064Y0028885D01*
X0286910Y0028919D01*
X0286757Y0028958D01*
X0286605Y0029000D01*
X0286455Y0029046D01*
X0286305Y0029096D01*
X0286157Y0029150D01*
X0286010Y0029207D01*
X0285864Y0029268D01*
X0285721Y0029333D01*
X0285578Y0029401D01*
X0285438Y0029473D01*
X0285300Y0029548D01*
X0285163Y0029627D01*
X0285028Y0029709D01*
X0284896Y0029795D01*
X0284766Y0029884D01*
X0284638Y0029976D01*
X0284512Y0030072D01*
X0284389Y0030170D01*
X0284269Y0030272D01*
X0284151Y0030377D01*
X0284035Y0030484D01*
X0283923Y0030595D01*
X0283813Y0030708D01*
X0283706Y0030824D01*
X0283602Y0030942D01*
X0283501Y0031064D01*
X0283404Y0031187D01*
X0283309Y0031314D01*
X0283218Y0031442D01*
X0283129Y0031573D01*
X0283045Y0031706D01*
X0282963Y0031841D01*
X0282885Y0031978D01*
X0282811Y0032117D01*
X0282740Y0032258D01*
X0282672Y0032400D01*
X0282609Y0032545D01*
X0282548Y0032690D01*
X0282492Y0032838D01*
X0282439Y0032986D01*
X0282390Y0033136D01*
X0282345Y0033287D01*
X0282304Y0033440D01*
X0282266Y0033593D01*
X0282233Y0033747D01*
X0282203Y0033902D01*
X0282177Y0034057D01*
X0282156Y0034214D01*
X0282138Y0034370D01*
X0282124Y0034527D01*
X0282114Y0034685D01*
X0282108Y0034842D01*
X0282106Y0035000D01*
X0282106Y0145000D02*
X0282108Y0145158D01*
X0282114Y0145315D01*
X0282124Y0145473D01*
X0282138Y0145630D01*
X0282156Y0145786D01*
X0282177Y0145943D01*
X0282203Y0146098D01*
X0282233Y0146253D01*
X0282266Y0146407D01*
X0282304Y0146560D01*
X0282345Y0146713D01*
X0282390Y0146864D01*
X0282439Y0147014D01*
X0282492Y0147162D01*
X0282548Y0147310D01*
X0282609Y0147455D01*
X0282672Y0147600D01*
X0282740Y0147742D01*
X0282811Y0147883D01*
X0282885Y0148022D01*
X0282963Y0148159D01*
X0283045Y0148294D01*
X0283129Y0148427D01*
X0283218Y0148558D01*
X0283309Y0148686D01*
X0283404Y0148813D01*
X0283501Y0148936D01*
X0283602Y0149058D01*
X0283706Y0149176D01*
X0283813Y0149292D01*
X0283923Y0149405D01*
X0284035Y0149516D01*
X0284151Y0149623D01*
X0284269Y0149728D01*
X0284389Y0149830D01*
X0284512Y0149928D01*
X0284638Y0150024D01*
X0284766Y0150116D01*
X0284896Y0150205D01*
X0285028Y0150291D01*
X0285163Y0150373D01*
X0285300Y0150452D01*
X0285438Y0150527D01*
X0285578Y0150599D01*
X0285721Y0150667D01*
X0285864Y0150732D01*
X0286010Y0150793D01*
X0286157Y0150850D01*
X0286305Y0150904D01*
X0286455Y0150954D01*
X0286605Y0151000D01*
X0286757Y0151042D01*
X0286910Y0151081D01*
X0287064Y0151115D01*
X0287219Y0151146D01*
X0287374Y0151172D01*
X0287530Y0151195D01*
X0287687Y0151214D01*
X0287844Y0151229D01*
X0288001Y0151240D01*
X0288159Y0151247D01*
X0288317Y0151250D01*
X0288474Y0151249D01*
X0288632Y0151244D01*
X0288789Y0151235D01*
X0288947Y0151222D01*
X0289103Y0151205D01*
X0289260Y0151184D01*
X0289415Y0151160D01*
X0289570Y0151131D01*
X0289725Y0151098D01*
X0289878Y0151062D01*
X0290031Y0151021D01*
X0290182Y0150977D01*
X0290332Y0150929D01*
X0290481Y0150878D01*
X0290629Y0150822D01*
X0290775Y0150763D01*
X0290920Y0150700D01*
X0291063Y0150633D01*
X0291204Y0150563D01*
X0291343Y0150490D01*
X0291481Y0150413D01*
X0291617Y0150332D01*
X0291750Y0150248D01*
X0291881Y0150161D01*
X0292010Y0150070D01*
X0292137Y0149976D01*
X0292262Y0149879D01*
X0292383Y0149779D01*
X0292503Y0149676D01*
X0292619Y0149570D01*
X0292733Y0149461D01*
X0292845Y0149349D01*
X0292953Y0149235D01*
X0293058Y0149117D01*
X0293161Y0148997D01*
X0293260Y0148875D01*
X0293356Y0148750D01*
X0293449Y0148622D01*
X0293539Y0148493D01*
X0293625Y0148361D01*
X0293709Y0148227D01*
X0293788Y0148091D01*
X0293865Y0147953D01*
X0293937Y0147813D01*
X0294006Y0147671D01*
X0294072Y0147528D01*
X0294134Y0147383D01*
X0294192Y0147236D01*
X0294247Y0147088D01*
X0294298Y0146939D01*
X0294345Y0146788D01*
X0294388Y0146637D01*
X0294427Y0146484D01*
X0294463Y0146330D01*
X0294494Y0146176D01*
X0294522Y0146021D01*
X0294546Y0145865D01*
X0294566Y0145708D01*
X0294582Y0145551D01*
X0294594Y0145394D01*
X0294602Y0145237D01*
X0294606Y0145079D01*
X0294606Y0144921D01*
X0294602Y0144763D01*
X0294594Y0144606D01*
X0294582Y0144449D01*
X0294566Y0144292D01*
X0294546Y0144135D01*
X0294522Y0143979D01*
X0294494Y0143824D01*
X0294463Y0143670D01*
X0294427Y0143516D01*
X0294388Y0143363D01*
X0294345Y0143212D01*
X0294298Y0143061D01*
X0294247Y0142912D01*
X0294192Y0142764D01*
X0294134Y0142617D01*
X0294072Y0142472D01*
X0294006Y0142329D01*
X0293937Y0142187D01*
X0293865Y0142047D01*
X0293788Y0141909D01*
X0293709Y0141773D01*
X0293625Y0141639D01*
X0293539Y0141507D01*
X0293449Y0141378D01*
X0293356Y0141250D01*
X0293260Y0141125D01*
X0293161Y0141003D01*
X0293058Y0140883D01*
X0292953Y0140765D01*
X0292845Y0140651D01*
X0292733Y0140539D01*
X0292619Y0140430D01*
X0292503Y0140324D01*
X0292383Y0140221D01*
X0292262Y0140121D01*
X0292137Y0140024D01*
X0292010Y0139930D01*
X0291881Y0139839D01*
X0291750Y0139752D01*
X0291617Y0139668D01*
X0291481Y0139587D01*
X0291343Y0139510D01*
X0291204Y0139437D01*
X0291063Y0139367D01*
X0290920Y0139300D01*
X0290775Y0139237D01*
X0290629Y0139178D01*
X0290481Y0139122D01*
X0290332Y0139071D01*
X0290182Y0139023D01*
X0290031Y0138979D01*
X0289878Y0138938D01*
X0289725Y0138902D01*
X0289570Y0138869D01*
X0289415Y0138840D01*
X0289260Y0138816D01*
X0289103Y0138795D01*
X0288947Y0138778D01*
X0288789Y0138765D01*
X0288632Y0138756D01*
X0288474Y0138751D01*
X0288317Y0138750D01*
X0288159Y0138753D01*
X0288001Y0138760D01*
X0287844Y0138771D01*
X0287687Y0138786D01*
X0287530Y0138805D01*
X0287374Y0138828D01*
X0287219Y0138854D01*
X0287064Y0138885D01*
X0286910Y0138919D01*
X0286757Y0138958D01*
X0286605Y0139000D01*
X0286455Y0139046D01*
X0286305Y0139096D01*
X0286157Y0139150D01*
X0286010Y0139207D01*
X0285864Y0139268D01*
X0285721Y0139333D01*
X0285578Y0139401D01*
X0285438Y0139473D01*
X0285300Y0139548D01*
X0285163Y0139627D01*
X0285028Y0139709D01*
X0284896Y0139795D01*
X0284766Y0139884D01*
X0284638Y0139976D01*
X0284512Y0140072D01*
X0284389Y0140170D01*
X0284269Y0140272D01*
X0284151Y0140377D01*
X0284035Y0140484D01*
X0283923Y0140595D01*
X0283813Y0140708D01*
X0283706Y0140824D01*
X0283602Y0140942D01*
X0283501Y0141064D01*
X0283404Y0141187D01*
X0283309Y0141314D01*
X0283218Y0141442D01*
X0283129Y0141573D01*
X0283045Y0141706D01*
X0282963Y0141841D01*
X0282885Y0141978D01*
X0282811Y0142117D01*
X0282740Y0142258D01*
X0282672Y0142400D01*
X0282609Y0142545D01*
X0282548Y0142690D01*
X0282492Y0142838D01*
X0282439Y0142986D01*
X0282390Y0143136D01*
X0282345Y0143287D01*
X0282304Y0143440D01*
X0282266Y0143593D01*
X0282233Y0143747D01*
X0282203Y0143902D01*
X0282177Y0144057D01*
X0282156Y0144214D01*
X0282138Y0144370D01*
X0282124Y0144527D01*
X0282114Y0144685D01*
X0282108Y0144842D01*
X0282106Y0145000D01*
X0082106Y0205000D02*
X0082108Y0205158D01*
X0082114Y0205315D01*
X0082124Y0205473D01*
X0082138Y0205630D01*
X0082156Y0205786D01*
X0082177Y0205943D01*
X0082203Y0206098D01*
X0082233Y0206253D01*
X0082266Y0206407D01*
X0082304Y0206560D01*
X0082345Y0206713D01*
X0082390Y0206864D01*
X0082439Y0207014D01*
X0082492Y0207162D01*
X0082548Y0207310D01*
X0082609Y0207455D01*
X0082672Y0207600D01*
X0082740Y0207742D01*
X0082811Y0207883D01*
X0082885Y0208022D01*
X0082963Y0208159D01*
X0083045Y0208294D01*
X0083129Y0208427D01*
X0083218Y0208558D01*
X0083309Y0208686D01*
X0083404Y0208813D01*
X0083501Y0208936D01*
X0083602Y0209058D01*
X0083706Y0209176D01*
X0083813Y0209292D01*
X0083923Y0209405D01*
X0084035Y0209516D01*
X0084151Y0209623D01*
X0084269Y0209728D01*
X0084389Y0209830D01*
X0084512Y0209928D01*
X0084638Y0210024D01*
X0084766Y0210116D01*
X0084896Y0210205D01*
X0085028Y0210291D01*
X0085163Y0210373D01*
X0085300Y0210452D01*
X0085438Y0210527D01*
X0085578Y0210599D01*
X0085721Y0210667D01*
X0085864Y0210732D01*
X0086010Y0210793D01*
X0086157Y0210850D01*
X0086305Y0210904D01*
X0086455Y0210954D01*
X0086605Y0211000D01*
X0086757Y0211042D01*
X0086910Y0211081D01*
X0087064Y0211115D01*
X0087219Y0211146D01*
X0087374Y0211172D01*
X0087530Y0211195D01*
X0087687Y0211214D01*
X0087844Y0211229D01*
X0088001Y0211240D01*
X0088159Y0211247D01*
X0088317Y0211250D01*
X0088474Y0211249D01*
X0088632Y0211244D01*
X0088789Y0211235D01*
X0088947Y0211222D01*
X0089103Y0211205D01*
X0089260Y0211184D01*
X0089415Y0211160D01*
X0089570Y0211131D01*
X0089725Y0211098D01*
X0089878Y0211062D01*
X0090031Y0211021D01*
X0090182Y0210977D01*
X0090332Y0210929D01*
X0090481Y0210878D01*
X0090629Y0210822D01*
X0090775Y0210763D01*
X0090920Y0210700D01*
X0091063Y0210633D01*
X0091204Y0210563D01*
X0091343Y0210490D01*
X0091481Y0210413D01*
X0091617Y0210332D01*
X0091750Y0210248D01*
X0091881Y0210161D01*
X0092010Y0210070D01*
X0092137Y0209976D01*
X0092262Y0209879D01*
X0092383Y0209779D01*
X0092503Y0209676D01*
X0092619Y0209570D01*
X0092733Y0209461D01*
X0092845Y0209349D01*
X0092953Y0209235D01*
X0093058Y0209117D01*
X0093161Y0208997D01*
X0093260Y0208875D01*
X0093356Y0208750D01*
X0093449Y0208622D01*
X0093539Y0208493D01*
X0093625Y0208361D01*
X0093709Y0208227D01*
X0093788Y0208091D01*
X0093865Y0207953D01*
X0093937Y0207813D01*
X0094006Y0207671D01*
X0094072Y0207528D01*
X0094134Y0207383D01*
X0094192Y0207236D01*
X0094247Y0207088D01*
X0094298Y0206939D01*
X0094345Y0206788D01*
X0094388Y0206637D01*
X0094427Y0206484D01*
X0094463Y0206330D01*
X0094494Y0206176D01*
X0094522Y0206021D01*
X0094546Y0205865D01*
X0094566Y0205708D01*
X0094582Y0205551D01*
X0094594Y0205394D01*
X0094602Y0205237D01*
X0094606Y0205079D01*
X0094606Y0204921D01*
X0094602Y0204763D01*
X0094594Y0204606D01*
X0094582Y0204449D01*
X0094566Y0204292D01*
X0094546Y0204135D01*
X0094522Y0203979D01*
X0094494Y0203824D01*
X0094463Y0203670D01*
X0094427Y0203516D01*
X0094388Y0203363D01*
X0094345Y0203212D01*
X0094298Y0203061D01*
X0094247Y0202912D01*
X0094192Y0202764D01*
X0094134Y0202617D01*
X0094072Y0202472D01*
X0094006Y0202329D01*
X0093937Y0202187D01*
X0093865Y0202047D01*
X0093788Y0201909D01*
X0093709Y0201773D01*
X0093625Y0201639D01*
X0093539Y0201507D01*
X0093449Y0201378D01*
X0093356Y0201250D01*
X0093260Y0201125D01*
X0093161Y0201003D01*
X0093058Y0200883D01*
X0092953Y0200765D01*
X0092845Y0200651D01*
X0092733Y0200539D01*
X0092619Y0200430D01*
X0092503Y0200324D01*
X0092383Y0200221D01*
X0092262Y0200121D01*
X0092137Y0200024D01*
X0092010Y0199930D01*
X0091881Y0199839D01*
X0091750Y0199752D01*
X0091617Y0199668D01*
X0091481Y0199587D01*
X0091343Y0199510D01*
X0091204Y0199437D01*
X0091063Y0199367D01*
X0090920Y0199300D01*
X0090775Y0199237D01*
X0090629Y0199178D01*
X0090481Y0199122D01*
X0090332Y0199071D01*
X0090182Y0199023D01*
X0090031Y0198979D01*
X0089878Y0198938D01*
X0089725Y0198902D01*
X0089570Y0198869D01*
X0089415Y0198840D01*
X0089260Y0198816D01*
X0089103Y0198795D01*
X0088947Y0198778D01*
X0088789Y0198765D01*
X0088632Y0198756D01*
X0088474Y0198751D01*
X0088317Y0198750D01*
X0088159Y0198753D01*
X0088001Y0198760D01*
X0087844Y0198771D01*
X0087687Y0198786D01*
X0087530Y0198805D01*
X0087374Y0198828D01*
X0087219Y0198854D01*
X0087064Y0198885D01*
X0086910Y0198919D01*
X0086757Y0198958D01*
X0086605Y0199000D01*
X0086455Y0199046D01*
X0086305Y0199096D01*
X0086157Y0199150D01*
X0086010Y0199207D01*
X0085864Y0199268D01*
X0085721Y0199333D01*
X0085578Y0199401D01*
X0085438Y0199473D01*
X0085300Y0199548D01*
X0085163Y0199627D01*
X0085028Y0199709D01*
X0084896Y0199795D01*
X0084766Y0199884D01*
X0084638Y0199976D01*
X0084512Y0200072D01*
X0084389Y0200170D01*
X0084269Y0200272D01*
X0084151Y0200377D01*
X0084035Y0200484D01*
X0083923Y0200595D01*
X0083813Y0200708D01*
X0083706Y0200824D01*
X0083602Y0200942D01*
X0083501Y0201064D01*
X0083404Y0201187D01*
X0083309Y0201314D01*
X0083218Y0201442D01*
X0083129Y0201573D01*
X0083045Y0201706D01*
X0082963Y0201841D01*
X0082885Y0201978D01*
X0082811Y0202117D01*
X0082740Y0202258D01*
X0082672Y0202400D01*
X0082609Y0202545D01*
X0082548Y0202690D01*
X0082492Y0202838D01*
X0082439Y0202986D01*
X0082390Y0203136D01*
X0082345Y0203287D01*
X0082304Y0203440D01*
X0082266Y0203593D01*
X0082233Y0203747D01*
X0082203Y0203902D01*
X0082177Y0204057D01*
X0082156Y0204214D01*
X0082138Y0204370D01*
X0082124Y0204527D01*
X0082114Y0204685D01*
X0082108Y0204842D01*
X0082106Y0205000D01*
M02*
