G75*
%MOIN*%
%OFA0B0*%
%FSLAX25Y25*%
%IPPOS*%
%LPD*%
%AMOC8*
5,1,8,0,0,1.08239X$1,22.5*
%
%ADD10OC8,0.06600*%
%ADD11C,0.04331*%
%ADD12C,0.09449*%
%ADD13C,0.15000*%
%ADD14C,0.06000*%
%ADD15C,0.02184*%
%ADD16C,0.03600*%
%ADD17C,0.04000*%
%ADD18C,0.01200*%
%ADD19C,0.01600*%
%ADD20C,0.00800*%
D10*
X0278856Y0105000D03*
X0288856Y0105000D03*
X0288856Y0115000D03*
X0278856Y0115000D03*
X0278856Y0125000D03*
X0288856Y0125000D03*
X0168356Y0170000D03*
X0158356Y0170000D03*
X0148356Y0170000D03*
X0148356Y0180000D03*
X0158356Y0180000D03*
X0168356Y0180000D03*
D11*
X0073356Y0045788D02*
X0073356Y0044212D01*
X0073356Y0045788D02*
X0073356Y0045788D01*
X0073356Y0044212D01*
X0073356Y0044212D01*
X0068356Y0044212D02*
X0068356Y0045788D01*
X0068356Y0045788D01*
X0068356Y0044212D01*
X0068356Y0044212D01*
X0063356Y0044212D02*
X0063356Y0045788D01*
X0063356Y0045788D01*
X0063356Y0044212D01*
X0063356Y0044212D01*
X0058356Y0044212D02*
X0058356Y0045788D01*
X0058356Y0045788D01*
X0058356Y0044212D01*
X0058356Y0044212D01*
X0053356Y0044212D02*
X0053356Y0045788D01*
X0053356Y0045788D01*
X0053356Y0044212D01*
X0053356Y0044212D01*
X0048356Y0044212D02*
X0048356Y0045788D01*
X0048356Y0045788D01*
X0048356Y0044212D01*
X0048356Y0044212D01*
X0043356Y0044212D02*
X0043356Y0045788D01*
X0043356Y0045788D01*
X0043356Y0044212D01*
X0043356Y0044212D01*
X0038356Y0044212D02*
X0038356Y0045788D01*
X0038356Y0045788D01*
X0038356Y0044212D01*
X0038356Y0044212D01*
D12*
X0047942Y0175246D02*
X0057391Y0175246D01*
X0064478Y0189026D02*
X0064478Y0198474D01*
X0040856Y0198474D02*
X0040856Y0189026D01*
D13*
X0309871Y0105787D03*
X0309871Y0054213D03*
D14*
X0278356Y0018000D02*
X0278356Y0012000D01*
X0268356Y0012000D02*
X0268356Y0018000D01*
X0258356Y0018000D02*
X0258356Y0012000D01*
X0248356Y0012000D02*
X0248356Y0018000D01*
X0238356Y0018000D02*
X0238356Y0012000D01*
X0228356Y0012000D02*
X0228356Y0018000D01*
X0208356Y0018000D02*
X0208356Y0012000D01*
X0198356Y0012000D02*
X0198356Y0018000D01*
X0188356Y0018000D02*
X0188356Y0012000D01*
X0178356Y0012000D02*
X0178356Y0018000D01*
X0168356Y0018000D02*
X0168356Y0012000D01*
X0158356Y0012000D02*
X0158356Y0018000D01*
X0148356Y0018000D02*
X0148356Y0012000D01*
X0138356Y0012000D02*
X0138356Y0018000D01*
X0142356Y0202000D02*
X0142356Y0208000D01*
X0152356Y0208000D02*
X0152356Y0202000D01*
X0162356Y0202000D02*
X0162356Y0208000D01*
X0172356Y0208000D02*
X0172356Y0202000D01*
X0182356Y0202000D02*
X0182356Y0208000D01*
X0192356Y0208000D02*
X0192356Y0202000D01*
X0208356Y0202000D02*
X0208356Y0208000D01*
X0218356Y0208000D02*
X0218356Y0202000D01*
X0228356Y0202000D02*
X0228356Y0208000D01*
X0238356Y0208000D02*
X0238356Y0202000D01*
X0248356Y0202000D02*
X0248356Y0208000D01*
X0258356Y0208000D02*
X0258356Y0202000D01*
X0268356Y0202000D02*
X0268356Y0208000D01*
X0278356Y0208000D02*
X0278356Y0202000D01*
X0132356Y0202000D02*
X0132356Y0208000D01*
X0122356Y0208000D02*
X0122356Y0202000D01*
X0112356Y0202000D02*
X0112356Y0208000D01*
X0102356Y0208000D02*
X0102356Y0202000D01*
D15*
X0085856Y0167500D03*
X0078356Y0167500D03*
X0079606Y0157500D03*
X0085856Y0157500D03*
X0092106Y0157500D03*
X0098356Y0157500D03*
X0098356Y0148750D03*
X0092106Y0148750D03*
X0085856Y0148750D03*
X0079606Y0148750D03*
X0079606Y0140000D03*
X0085856Y0140000D03*
X0092106Y0140000D03*
X0098356Y0140000D03*
X0075856Y0122500D03*
X0084606Y0117500D03*
X0095856Y0107500D03*
X0105856Y0101250D03*
X0107106Y0097500D03*
X0115856Y0100000D03*
X0120856Y0100000D03*
X0120856Y0090000D03*
X0105856Y0087500D03*
X0102106Y0080000D03*
X0090856Y0077500D03*
X0083356Y0080000D03*
X0078356Y0093750D03*
X0060856Y0103750D03*
X0042106Y0101250D03*
X0035856Y0097500D03*
X0038356Y0077500D03*
X0053356Y0056250D03*
X0048356Y0053750D03*
X0080856Y0067500D03*
X0095856Y0062500D03*
X0104606Y0061250D03*
X0095856Y0050000D03*
X0110856Y0047500D03*
X0100856Y0040000D03*
X0110856Y0033750D03*
X0114606Y0036250D03*
X0108356Y0030000D03*
X0117106Y0027500D03*
X0082106Y0037500D03*
X0165856Y0050000D03*
X0165856Y0057500D03*
X0175856Y0050000D03*
X0175856Y0045000D03*
X0190856Y0040000D03*
X0193356Y0045000D03*
X0198356Y0047500D03*
X0210856Y0052500D03*
X0210856Y0060000D03*
X0223356Y0062500D03*
X0223356Y0070000D03*
X0218356Y0068750D03*
X0215856Y0071250D03*
X0210856Y0072500D03*
X0198356Y0077500D03*
X0194497Y0081358D03*
X0185856Y0075000D03*
X0180856Y0072500D03*
X0183356Y0070000D03*
X0190856Y0067500D03*
X0187106Y0061250D03*
X0180856Y0061250D03*
X0177745Y0064360D03*
X0165856Y0072500D03*
X0162106Y0077500D03*
X0165856Y0080000D03*
X0170856Y0087500D03*
X0157106Y0096250D03*
X0150856Y0095000D03*
X0152106Y0103750D03*
X0157106Y0102500D03*
X0180856Y0105000D03*
X0180856Y0097500D03*
X0193356Y0097500D03*
X0193356Y0102500D03*
X0203356Y0096250D03*
X0203356Y0092500D03*
X0219606Y0091250D03*
X0227106Y0090000D03*
X0233356Y0087500D03*
X0240856Y0085000D03*
X0245856Y0085000D03*
X0245856Y0090000D03*
X0253356Y0092500D03*
X0253356Y0097500D03*
X0252106Y0105000D03*
X0264606Y0108750D03*
X0270856Y0092500D03*
X0275856Y0092500D03*
X0263356Y0087500D03*
X0258356Y0087500D03*
X0255856Y0085000D03*
X0255856Y0080000D03*
X0255856Y0075000D03*
X0263356Y0072500D03*
X0265856Y0070000D03*
X0265856Y0075000D03*
X0253356Y0070000D03*
X0248356Y0070000D03*
X0240856Y0060000D03*
X0235856Y0055000D03*
X0233356Y0045000D03*
X0235856Y0042500D03*
X0238356Y0040000D03*
X0253356Y0035000D03*
X0258356Y0035000D03*
X0268356Y0040000D03*
X0270856Y0042500D03*
X0273356Y0045000D03*
X0275856Y0047500D03*
X0283356Y0052500D03*
X0280856Y0055000D03*
X0278356Y0057500D03*
X0275856Y0060000D03*
X0280856Y0075000D03*
X0285856Y0075000D03*
X0298356Y0077500D03*
X0298356Y0081250D03*
X0310856Y0082500D03*
X0320856Y0077500D03*
X0323356Y0080000D03*
X0323356Y0085000D03*
X0323356Y0090000D03*
X0320856Y0092500D03*
X0298356Y0090000D03*
X0310856Y0072500D03*
X0233356Y0106250D03*
X0225856Y0082500D03*
X0228356Y0080000D03*
X0215856Y0082500D03*
X0188356Y0120000D03*
X0183356Y0120000D03*
X0178356Y0120000D03*
X0173356Y0120000D03*
X0163356Y0120000D03*
X0182106Y0128750D03*
X0185856Y0142500D03*
X0190856Y0142500D03*
X0195856Y0142500D03*
X0200856Y0142500D03*
X0205856Y0142500D03*
X0210856Y0142500D03*
X0215856Y0142500D03*
X0220856Y0142500D03*
X0225856Y0142500D03*
X0230856Y0142500D03*
X0235856Y0142500D03*
X0240856Y0142500D03*
X0245856Y0142500D03*
X0253356Y0142500D03*
X0253356Y0137500D03*
X0253356Y0132500D03*
X0264606Y0126250D03*
X0230856Y0128750D03*
X0227106Y0132500D03*
X0163356Y0145000D03*
X0158356Y0145000D03*
X0147106Y0138750D03*
X0153356Y0132500D03*
X0125856Y0110000D03*
X0060856Y0122500D03*
X0048356Y0126250D03*
X0042106Y0140000D03*
X0035856Y0142500D03*
X0043356Y0156250D03*
X0062106Y0145000D03*
D16*
X0095856Y0126250D03*
X0140856Y0140000D03*
X0140856Y0145000D03*
X0140856Y0150000D03*
X0148356Y0152500D03*
X0153356Y0152500D03*
X0153356Y0157500D03*
X0148356Y0157500D03*
X0133356Y0172500D03*
X0093356Y0187500D03*
X0088356Y0187500D03*
X0083356Y0187500D03*
X0145856Y0112500D03*
X0145856Y0107500D03*
X0064606Y0071250D03*
X0064606Y0065000D03*
X0123356Y0050000D03*
D17*
X0093356Y0030000D02*
X0103356Y0020000D01*
X0128356Y0020000D01*
X0135231Y0026875D01*
X0143981Y0026875D01*
X0148356Y0022500D01*
X0148356Y0015000D01*
X0093356Y0030000D02*
X0043356Y0030000D01*
X0038356Y0035000D01*
X0038356Y0045000D01*
D18*
X0030137Y0010000D02*
X0030137Y0210000D01*
X0081998Y0210000D01*
X0081547Y0209549D01*
X0080325Y0206597D01*
X0080325Y0203403D01*
X0081547Y0200451D01*
X0083806Y0198192D01*
X0086758Y0196969D01*
X0089953Y0196969D01*
X0092905Y0198192D01*
X0095164Y0200451D01*
X0096387Y0203403D01*
X0096387Y0206597D01*
X0095164Y0209549D01*
X0094713Y0210000D01*
X0098422Y0210000D01*
X0097956Y0208875D01*
X0097956Y0201125D01*
X0098625Y0199508D01*
X0099863Y0198270D01*
X0101480Y0197600D01*
X0103231Y0197600D01*
X0104848Y0198270D01*
X0106086Y0199508D01*
X0106756Y0201125D01*
X0106756Y0208875D01*
X0106290Y0210000D01*
X0108422Y0210000D01*
X0107956Y0208875D01*
X0107956Y0201125D01*
X0108625Y0199508D01*
X0109863Y0198270D01*
X0111480Y0197600D01*
X0113231Y0197600D01*
X0114848Y0198270D01*
X0116086Y0199508D01*
X0116756Y0201125D01*
X0116756Y0208875D01*
X0116290Y0210000D01*
X0118422Y0210000D01*
X0117956Y0208875D01*
X0117956Y0201125D01*
X0118625Y0199508D01*
X0119863Y0198270D01*
X0121480Y0197600D01*
X0123231Y0197600D01*
X0124848Y0198270D01*
X0126086Y0199508D01*
X0126756Y0201125D01*
X0126756Y0208875D01*
X0126290Y0210000D01*
X0128451Y0210000D01*
X0128290Y0209684D01*
X0128076Y0209027D01*
X0127968Y0208345D01*
X0127968Y0205400D01*
X0131956Y0205400D01*
X0131956Y0204600D01*
X0132756Y0204600D01*
X0132756Y0205400D01*
X0136743Y0205400D01*
X0136743Y0208345D01*
X0136635Y0209027D01*
X0136422Y0209684D01*
X0136261Y0210000D01*
X0138422Y0210000D01*
X0137956Y0208875D01*
X0137956Y0201125D01*
X0138625Y0199508D01*
X0139863Y0198270D01*
X0141480Y0197600D01*
X0143231Y0197600D01*
X0144848Y0198270D01*
X0146086Y0199508D01*
X0146756Y0201125D01*
X0146756Y0208875D01*
X0146290Y0210000D01*
X0148422Y0210000D01*
X0147956Y0208875D01*
X0147956Y0201125D01*
X0148625Y0199508D01*
X0149863Y0198270D01*
X0151480Y0197600D01*
X0153231Y0197600D01*
X0154848Y0198270D01*
X0156086Y0199508D01*
X0156756Y0201125D01*
X0156756Y0208875D01*
X0156290Y0210000D01*
X0158422Y0210000D01*
X0157956Y0208875D01*
X0157956Y0201125D01*
X0158625Y0199508D01*
X0159863Y0198270D01*
X0161480Y0197600D01*
X0163210Y0197600D01*
X0171556Y0189254D01*
X0172610Y0188200D01*
X0182106Y0188200D01*
X0182106Y0141250D01*
X0183665Y0141277D01*
X0183743Y0141088D01*
X0184444Y0140387D01*
X0185360Y0140008D01*
X0186351Y0140008D01*
X0187267Y0140387D01*
X0187968Y0141088D01*
X0188078Y0141353D01*
X0188629Y0141362D01*
X0188743Y0141088D01*
X0189444Y0140387D01*
X0190360Y0140008D01*
X0191351Y0140008D01*
X0192267Y0140387D01*
X0192968Y0141088D01*
X0193114Y0141440D01*
X0193594Y0141448D01*
X0193743Y0141088D01*
X0194444Y0140387D01*
X0195360Y0140008D01*
X0196351Y0140008D01*
X0197267Y0140387D01*
X0197968Y0141088D01*
X0198150Y0141527D01*
X0198558Y0141534D01*
X0198743Y0141088D01*
X0199444Y0140387D01*
X0200360Y0140008D01*
X0201351Y0140008D01*
X0202267Y0140387D01*
X0202968Y0141088D01*
X0203186Y0141613D01*
X0203523Y0141619D01*
X0203743Y0141088D01*
X0204444Y0140387D01*
X0205360Y0140008D01*
X0206351Y0140008D01*
X0207267Y0140387D01*
X0207968Y0141088D01*
X0208222Y0141700D01*
X0208488Y0141705D01*
X0208743Y0141088D01*
X0209444Y0140387D01*
X0210360Y0140008D01*
X0211351Y0140008D01*
X0212267Y0140387D01*
X0212968Y0141088D01*
X0213258Y0141787D01*
X0213452Y0141790D01*
X0213743Y0141088D01*
X0214444Y0140387D01*
X0215360Y0140008D01*
X0216351Y0140008D01*
X0217267Y0140387D01*
X0217968Y0141088D01*
X0218294Y0141874D01*
X0218417Y0141876D01*
X0218743Y0141088D01*
X0219444Y0140387D01*
X0220360Y0140008D01*
X0221351Y0140008D01*
X0222267Y0140387D01*
X0222968Y0141088D01*
X0223330Y0141961D01*
X0223381Y0141962D01*
X0223743Y0141088D01*
X0224444Y0140387D01*
X0225360Y0140008D01*
X0226351Y0140008D01*
X0227267Y0140387D01*
X0227968Y0141088D01*
X0228348Y0142004D01*
X0228348Y0142047D01*
X0228364Y0142048D01*
X0228364Y0142004D01*
X0228743Y0141088D01*
X0229444Y0140387D01*
X0230360Y0140008D01*
X0231351Y0140008D01*
X0232267Y0140387D01*
X0232968Y0141088D01*
X0233348Y0142004D01*
X0233348Y0142133D01*
X0233364Y0142134D01*
X0233364Y0142004D01*
X0233743Y0141088D01*
X0234444Y0140387D01*
X0235360Y0140008D01*
X0236351Y0140008D01*
X0237267Y0140387D01*
X0237968Y0141088D01*
X0238348Y0142004D01*
X0238348Y0142220D01*
X0238364Y0142220D01*
X0238364Y0142004D01*
X0238743Y0141088D01*
X0239444Y0140387D01*
X0240360Y0140008D01*
X0241351Y0140008D01*
X0242267Y0140387D01*
X0242968Y0141088D01*
X0243348Y0142004D01*
X0243348Y0142306D01*
X0243364Y0142306D01*
X0243364Y0142004D01*
X0243743Y0141088D01*
X0244444Y0140387D01*
X0245360Y0140008D01*
X0246351Y0140008D01*
X0247267Y0140387D01*
X0247968Y0141088D01*
X0248348Y0142004D01*
X0248348Y0142392D01*
X0250864Y0142435D01*
X0250864Y0142004D01*
X0251243Y0141088D01*
X0251944Y0140387D01*
X0252860Y0140008D01*
X0253318Y0140008D01*
X0253302Y0139992D01*
X0252860Y0139992D01*
X0251944Y0139613D01*
X0251243Y0138912D01*
X0250864Y0137996D01*
X0250864Y0137004D01*
X0251243Y0136088D01*
X0251944Y0135387D01*
X0252860Y0135008D01*
X0253318Y0135008D01*
X0253302Y0134992D01*
X0252860Y0134992D01*
X0251944Y0134613D01*
X0251243Y0133912D01*
X0250864Y0132996D01*
X0250864Y0132004D01*
X0251243Y0131088D01*
X0251944Y0130387D01*
X0252860Y0130008D01*
X0253851Y0130008D01*
X0254767Y0130387D01*
X0255468Y0131088D01*
X0255848Y0132004D01*
X0255848Y0132447D01*
X0265901Y0142500D01*
X0280698Y0142500D01*
X0281547Y0140451D01*
X0283806Y0138192D01*
X0286758Y0136969D01*
X0289953Y0136969D01*
X0292905Y0138192D01*
X0295164Y0140451D01*
X0296013Y0142500D01*
X0303356Y0142500D01*
X0323356Y0122500D01*
X0323356Y0092492D01*
X0323348Y0092492D01*
X0323348Y0092996D01*
X0322968Y0093912D01*
X0322267Y0094613D01*
X0321351Y0094992D01*
X0320360Y0094992D01*
X0319444Y0094613D01*
X0318743Y0093912D01*
X0318364Y0092996D01*
X0318364Y0092004D01*
X0318743Y0091088D01*
X0319444Y0090387D01*
X0320360Y0090008D01*
X0320864Y0090008D01*
X0320864Y0089504D01*
X0321243Y0088588D01*
X0321944Y0087887D01*
X0322860Y0087508D01*
X0323356Y0087508D01*
X0323356Y0087492D01*
X0322860Y0087492D01*
X0321944Y0087113D01*
X0321243Y0086412D01*
X0320864Y0085496D01*
X0320864Y0084504D01*
X0321243Y0083588D01*
X0321944Y0082887D01*
X0322860Y0082508D01*
X0323356Y0082508D01*
X0323356Y0082492D01*
X0322860Y0082492D01*
X0321944Y0082113D01*
X0321243Y0081412D01*
X0320864Y0080496D01*
X0320864Y0079992D01*
X0320360Y0079992D01*
X0319444Y0079613D01*
X0318743Y0078912D01*
X0318364Y0077996D01*
X0318364Y0077004D01*
X0318743Y0076088D01*
X0319444Y0075387D01*
X0320360Y0075008D01*
X0321351Y0075008D01*
X0322267Y0075387D01*
X0322968Y0076088D01*
X0323348Y0077004D01*
X0323348Y0077508D01*
X0323356Y0077508D01*
X0323356Y0037500D01*
X0288356Y0010000D01*
X0282290Y0010000D01*
X0282756Y0011125D01*
X0282756Y0018875D01*
X0282086Y0020492D01*
X0280848Y0021730D01*
X0279231Y0022400D01*
X0277480Y0022400D01*
X0275863Y0021730D01*
X0274625Y0020492D01*
X0273956Y0018875D01*
X0273956Y0011125D01*
X0274422Y0010000D01*
X0272290Y0010000D01*
X0272756Y0011125D01*
X0272756Y0018875D01*
X0272086Y0020492D01*
X0270848Y0021730D01*
X0269231Y0022400D01*
X0267480Y0022400D01*
X0265863Y0021730D01*
X0264625Y0020492D01*
X0263956Y0018875D01*
X0263956Y0011125D01*
X0264422Y0010000D01*
X0262290Y0010000D01*
X0262756Y0011125D01*
X0262756Y0018875D01*
X0262086Y0020492D01*
X0260848Y0021730D01*
X0259231Y0022400D01*
X0257480Y0022400D01*
X0255863Y0021730D01*
X0254625Y0020492D01*
X0253956Y0018875D01*
X0253956Y0011125D01*
X0254422Y0010000D01*
X0252290Y0010000D01*
X0252756Y0011125D01*
X0252756Y0018875D01*
X0252086Y0020492D01*
X0250848Y0021730D01*
X0249231Y0022400D01*
X0247480Y0022400D01*
X0245863Y0021730D01*
X0244625Y0020492D01*
X0243956Y0018875D01*
X0243956Y0011125D01*
X0244422Y0010000D01*
X0242290Y0010000D01*
X0242756Y0011125D01*
X0242756Y0018875D01*
X0242086Y0020492D01*
X0240848Y0021730D01*
X0239231Y0022400D01*
X0237480Y0022400D01*
X0235863Y0021730D01*
X0234625Y0020492D01*
X0233956Y0018875D01*
X0233956Y0011125D01*
X0234422Y0010000D01*
X0232290Y0010000D01*
X0232756Y0011125D01*
X0232756Y0018875D01*
X0232086Y0020492D01*
X0230848Y0021730D01*
X0229231Y0022400D01*
X0227480Y0022400D01*
X0225863Y0021730D01*
X0224625Y0020492D01*
X0223956Y0018875D01*
X0223956Y0011125D01*
X0224422Y0010000D01*
X0212290Y0010000D01*
X0212756Y0011125D01*
X0212756Y0018875D01*
X0212086Y0020492D01*
X0210848Y0021730D01*
X0209231Y0022400D01*
X0207480Y0022400D01*
X0205863Y0021730D01*
X0204625Y0020492D01*
X0203956Y0018875D01*
X0203956Y0011125D01*
X0204422Y0010000D01*
X0202261Y0010000D01*
X0202422Y0010316D01*
X0202635Y0010973D01*
X0202743Y0011655D01*
X0202743Y0014600D01*
X0198756Y0014600D01*
X0198756Y0015400D01*
X0202743Y0015400D01*
X0202743Y0018345D01*
X0202635Y0019027D01*
X0202422Y0019684D01*
X0202108Y0020299D01*
X0201702Y0020858D01*
X0201214Y0021347D01*
X0200655Y0021752D01*
X0200040Y0022066D01*
X0199383Y0022279D01*
X0198756Y0022379D01*
X0198756Y0015400D01*
X0197956Y0015400D01*
X0197956Y0022379D01*
X0197328Y0022279D01*
X0196671Y0022066D01*
X0196056Y0021752D01*
X0195497Y0021347D01*
X0195009Y0020858D01*
X0194603Y0020299D01*
X0194290Y0019684D01*
X0194076Y0019027D01*
X0193968Y0018345D01*
X0193968Y0015400D01*
X0197956Y0015400D01*
X0197956Y0014600D01*
X0193968Y0014600D01*
X0193968Y0011655D01*
X0194076Y0010973D01*
X0194290Y0010316D01*
X0194451Y0010000D01*
X0192261Y0010000D01*
X0192422Y0010316D01*
X0192635Y0010973D01*
X0192743Y0011655D01*
X0192743Y0014600D01*
X0188756Y0014600D01*
X0188756Y0015400D01*
X0192743Y0015400D01*
X0192743Y0018345D01*
X0192635Y0019027D01*
X0192422Y0019684D01*
X0192108Y0020299D01*
X0191702Y0020858D01*
X0191214Y0021347D01*
X0190655Y0021752D01*
X0190040Y0022066D01*
X0189383Y0022279D01*
X0188756Y0022379D01*
X0188756Y0015400D01*
X0187956Y0015400D01*
X0187956Y0022379D01*
X0187328Y0022279D01*
X0186671Y0022066D01*
X0186056Y0021752D01*
X0185497Y0021347D01*
X0185009Y0020858D01*
X0184603Y0020299D01*
X0184290Y0019684D01*
X0184076Y0019027D01*
X0183968Y0018345D01*
X0183968Y0015400D01*
X0187956Y0015400D01*
X0187956Y0014600D01*
X0183968Y0014600D01*
X0183968Y0011655D01*
X0184076Y0010973D01*
X0184290Y0010316D01*
X0184451Y0010000D01*
X0182290Y0010000D01*
X0182756Y0011125D01*
X0182756Y0018875D01*
X0182086Y0020492D01*
X0180848Y0021730D01*
X0179231Y0022400D01*
X0177480Y0022400D01*
X0175863Y0021730D01*
X0174625Y0020492D01*
X0173956Y0018875D01*
X0173956Y0011125D01*
X0174422Y0010000D01*
X0172290Y0010000D01*
X0172756Y0011125D01*
X0172756Y0018875D01*
X0172086Y0020492D01*
X0170848Y0021730D01*
X0169231Y0022400D01*
X0167480Y0022400D01*
X0165863Y0021730D01*
X0164625Y0020492D01*
X0163956Y0018875D01*
X0163956Y0011125D01*
X0164422Y0010000D01*
X0162290Y0010000D01*
X0162756Y0011125D01*
X0162756Y0018875D01*
X0162086Y0020492D01*
X0160848Y0021730D01*
X0159231Y0022400D01*
X0157480Y0022400D01*
X0155863Y0021730D01*
X0154625Y0020492D01*
X0153956Y0018875D01*
X0153956Y0011125D01*
X0154422Y0010000D01*
X0152290Y0010000D01*
X0152756Y0011125D01*
X0152756Y0018875D01*
X0152086Y0020492D01*
X0151756Y0020823D01*
X0151756Y0023176D01*
X0151238Y0024426D01*
X0150282Y0025382D01*
X0145907Y0029757D01*
X0144657Y0030275D01*
X0134554Y0030275D01*
X0133305Y0029757D01*
X0132348Y0028801D01*
X0126947Y0023400D01*
X0104764Y0023400D01*
X0095282Y0032882D01*
X0094032Y0033400D01*
X0044764Y0033400D01*
X0041756Y0036408D01*
X0041756Y0041016D01*
X0042646Y0040647D01*
X0044065Y0040647D01*
X0045375Y0041190D01*
X0045856Y0041670D01*
X0046336Y0041190D01*
X0047646Y0040647D01*
X0049065Y0040647D01*
X0050375Y0041190D01*
X0050856Y0041670D01*
X0051336Y0041190D01*
X0052646Y0040647D01*
X0054065Y0040647D01*
X0055375Y0041190D01*
X0055856Y0041670D01*
X0056336Y0041190D01*
X0057646Y0040647D01*
X0059065Y0040647D01*
X0060375Y0041190D01*
X0060856Y0041670D01*
X0061336Y0041190D01*
X0062646Y0040647D01*
X0064065Y0040647D01*
X0065375Y0041190D01*
X0065865Y0041679D01*
X0066091Y0041453D01*
X0066673Y0041064D01*
X0067319Y0040796D01*
X0067873Y0040686D01*
X0067873Y0041546D01*
X0068838Y0041546D01*
X0068838Y0040686D01*
X0069392Y0040796D01*
X0070038Y0041064D01*
X0070620Y0041453D01*
X0070847Y0041679D01*
X0071336Y0041190D01*
X0072646Y0040647D01*
X0074065Y0040647D01*
X0075375Y0041190D01*
X0076378Y0042193D01*
X0076921Y0043503D01*
X0076921Y0046497D01*
X0076378Y0047807D01*
X0075375Y0048810D01*
X0074065Y0049353D01*
X0072646Y0049353D01*
X0071336Y0048810D01*
X0070847Y0048321D01*
X0070620Y0048547D01*
X0070038Y0048936D01*
X0069392Y0049204D01*
X0068838Y0049314D01*
X0068838Y0048454D01*
X0067873Y0048454D01*
X0067873Y0049314D01*
X0067319Y0049204D01*
X0066673Y0048936D01*
X0066091Y0048547D01*
X0065865Y0048321D01*
X0065375Y0048810D01*
X0064065Y0049353D01*
X0062646Y0049353D01*
X0061336Y0048810D01*
X0060856Y0048330D01*
X0060375Y0048810D01*
X0059065Y0049353D01*
X0057646Y0049353D01*
X0056336Y0048810D01*
X0055856Y0048330D01*
X0055375Y0048810D01*
X0054065Y0049353D01*
X0052646Y0049353D01*
X0051336Y0048810D01*
X0050856Y0048330D01*
X0050375Y0048810D01*
X0049065Y0049353D01*
X0047646Y0049353D01*
X0046336Y0048810D01*
X0045856Y0048330D01*
X0045375Y0048810D01*
X0044065Y0049353D01*
X0042646Y0049353D01*
X0041336Y0048810D01*
X0040856Y0048330D01*
X0040375Y0048810D01*
X0039065Y0049353D01*
X0037646Y0049353D01*
X0036336Y0048810D01*
X0035333Y0047807D01*
X0034790Y0046497D01*
X0034790Y0043503D01*
X0034956Y0043104D01*
X0034956Y0034324D01*
X0035473Y0033074D01*
X0040473Y0028074D01*
X0041430Y0027118D01*
X0042679Y0026600D01*
X0091947Y0026600D01*
X0100473Y0018074D01*
X0101430Y0017118D01*
X0102679Y0016600D01*
X0129032Y0016600D01*
X0130282Y0017118D01*
X0136639Y0023475D01*
X0142572Y0023475D01*
X0144956Y0021092D01*
X0144956Y0020823D01*
X0144625Y0020492D01*
X0143956Y0018875D01*
X0143956Y0011125D01*
X0144422Y0010000D01*
X0142290Y0010000D01*
X0142756Y0011125D01*
X0142756Y0018875D01*
X0142086Y0020492D01*
X0140848Y0021730D01*
X0139231Y0022400D01*
X0137480Y0022400D01*
X0135863Y0021730D01*
X0134625Y0020492D01*
X0133956Y0018875D01*
X0133956Y0011125D01*
X0134422Y0010000D01*
X0089713Y0010000D01*
X0090164Y0010451D01*
X0091387Y0013403D01*
X0091387Y0016597D01*
X0090164Y0019549D01*
X0087905Y0021808D01*
X0084953Y0023031D01*
X0081758Y0023031D01*
X0078806Y0021808D01*
X0076547Y0019549D01*
X0075325Y0016597D01*
X0075325Y0013403D01*
X0076547Y0010451D01*
X0076998Y0010000D01*
X0030137Y0010000D01*
X0030137Y0010993D02*
X0076323Y0010993D01*
X0075826Y0012191D02*
X0030137Y0012191D01*
X0030137Y0013390D02*
X0075330Y0013390D01*
X0075325Y0014588D02*
X0030137Y0014588D01*
X0030137Y0015787D02*
X0075325Y0015787D01*
X0075485Y0016985D02*
X0030137Y0016985D01*
X0030137Y0018184D02*
X0075982Y0018184D01*
X0076478Y0019382D02*
X0030137Y0019382D01*
X0030137Y0020581D02*
X0077579Y0020581D01*
X0078777Y0021779D02*
X0030137Y0021779D01*
X0030137Y0022978D02*
X0081629Y0022978D01*
X0085082Y0022978D02*
X0095570Y0022978D01*
X0096768Y0021779D02*
X0087934Y0021779D01*
X0089133Y0020581D02*
X0097967Y0020581D01*
X0099165Y0019382D02*
X0090233Y0019382D01*
X0090730Y0018184D02*
X0100364Y0018184D01*
X0101750Y0016985D02*
X0091226Y0016985D01*
X0091387Y0015787D02*
X0133956Y0015787D01*
X0133956Y0016985D02*
X0129962Y0016985D01*
X0131348Y0018184D02*
X0133956Y0018184D01*
X0134166Y0019382D02*
X0132546Y0019382D01*
X0133745Y0020581D02*
X0134714Y0020581D01*
X0134943Y0021779D02*
X0135982Y0021779D01*
X0136142Y0022978D02*
X0143070Y0022978D01*
X0144268Y0021779D02*
X0140730Y0021779D01*
X0141998Y0020581D02*
X0144714Y0020581D01*
X0144166Y0019382D02*
X0142546Y0019382D01*
X0142756Y0018184D02*
X0143956Y0018184D01*
X0143956Y0016985D02*
X0142756Y0016985D01*
X0142756Y0015787D02*
X0143956Y0015787D01*
X0143956Y0014588D02*
X0142756Y0014588D01*
X0142756Y0013390D02*
X0143956Y0013390D01*
X0143956Y0012191D02*
X0142756Y0012191D01*
X0142701Y0010993D02*
X0144010Y0010993D01*
X0152701Y0010993D02*
X0154010Y0010993D01*
X0153956Y0012191D02*
X0152756Y0012191D01*
X0152756Y0013390D02*
X0153956Y0013390D01*
X0153956Y0014588D02*
X0152756Y0014588D01*
X0152756Y0015787D02*
X0153956Y0015787D01*
X0153956Y0016985D02*
X0152756Y0016985D01*
X0152756Y0018184D02*
X0153956Y0018184D01*
X0154166Y0019382D02*
X0152546Y0019382D01*
X0151998Y0020581D02*
X0154714Y0020581D01*
X0155982Y0021779D02*
X0151756Y0021779D01*
X0151756Y0022978D02*
X0304873Y0022978D01*
X0306398Y0024176D02*
X0151341Y0024176D01*
X0150289Y0025375D02*
X0307923Y0025375D01*
X0309449Y0026573D02*
X0149091Y0026573D01*
X0147892Y0027772D02*
X0284820Y0027772D01*
X0283806Y0028192D02*
X0286758Y0026969D01*
X0289953Y0026969D01*
X0292905Y0028192D01*
X0295164Y0030451D01*
X0296387Y0033403D01*
X0296387Y0036597D01*
X0295164Y0039549D01*
X0292905Y0041808D01*
X0289953Y0043031D01*
X0286758Y0043031D01*
X0283806Y0041808D01*
X0281547Y0039549D01*
X0280325Y0036597D01*
X0280325Y0033403D01*
X0281547Y0030451D01*
X0283806Y0028192D01*
X0283028Y0028970D02*
X0146694Y0028970D01*
X0144913Y0030169D02*
X0281829Y0030169D01*
X0281168Y0031367D02*
X0111582Y0031367D01*
X0111579Y0031366D02*
X0112030Y0031553D01*
X0112436Y0031824D01*
X0112782Y0032169D01*
X0113053Y0032575D01*
X0113240Y0033027D01*
X0113335Y0033506D01*
X0113335Y0033750D01*
X0113335Y0033994D01*
X0113317Y0034086D01*
X0114110Y0033758D01*
X0115101Y0033758D01*
X0116017Y0034137D01*
X0116718Y0034838D01*
X0117098Y0035754D01*
X0117098Y0036746D01*
X0116718Y0037662D01*
X0116017Y0038363D01*
X0115101Y0038742D01*
X0114110Y0038742D01*
X0113194Y0038363D01*
X0112493Y0037662D01*
X0112114Y0036746D01*
X0112114Y0035892D01*
X0112030Y0035947D01*
X0111579Y0036134D01*
X0111100Y0036230D01*
X0110856Y0036230D01*
X0110856Y0033750D01*
X0113335Y0033750D01*
X0110856Y0033750D01*
X0110856Y0033750D01*
X0110856Y0033750D01*
X0110856Y0031270D01*
X0111100Y0031270D01*
X0111579Y0031366D01*
X0110856Y0031367D02*
X0110856Y0031367D01*
X0110856Y0031270D02*
X0110856Y0033750D01*
X0110856Y0033750D01*
X0110856Y0036230D01*
X0110611Y0036230D01*
X0110132Y0036134D01*
X0109681Y0035947D01*
X0109275Y0035676D01*
X0108930Y0035331D01*
X0108658Y0034924D01*
X0108471Y0034473D01*
X0108376Y0033994D01*
X0108376Y0033750D01*
X0110855Y0033750D01*
X0108376Y0033750D01*
X0108376Y0033506D01*
X0108471Y0033027D01*
X0108658Y0032575D01*
X0108714Y0032492D01*
X0107860Y0032492D01*
X0106944Y0032113D01*
X0106243Y0031412D01*
X0105864Y0030496D01*
X0105864Y0029504D01*
X0106243Y0028588D01*
X0106944Y0027887D01*
X0107860Y0027508D01*
X0108851Y0027508D01*
X0109767Y0027887D01*
X0110468Y0028588D01*
X0110848Y0029504D01*
X0110848Y0030496D01*
X0110519Y0031289D01*
X0110611Y0031270D01*
X0110856Y0031270D01*
X0110848Y0030169D02*
X0134298Y0030169D01*
X0132518Y0028970D02*
X0119160Y0028970D01*
X0119218Y0028912D02*
X0118517Y0029613D01*
X0117601Y0029992D01*
X0116610Y0029992D01*
X0115694Y0029613D01*
X0114993Y0028912D01*
X0114614Y0027996D01*
X0114614Y0027004D01*
X0114993Y0026088D01*
X0115694Y0025387D01*
X0116610Y0025008D01*
X0117601Y0025008D01*
X0118517Y0025387D01*
X0119218Y0026088D01*
X0119598Y0027004D01*
X0119598Y0027996D01*
X0119218Y0028912D01*
X0119598Y0027772D02*
X0131319Y0027772D01*
X0130121Y0026573D02*
X0119419Y0026573D01*
X0118487Y0025375D02*
X0128922Y0025375D01*
X0127723Y0024176D02*
X0103988Y0024176D01*
X0102789Y0025375D02*
X0115724Y0025375D01*
X0114792Y0026573D02*
X0101591Y0026573D01*
X0100392Y0027772D02*
X0107223Y0027772D01*
X0106085Y0028970D02*
X0099194Y0028970D01*
X0097995Y0030169D02*
X0105864Y0030169D01*
X0106225Y0031367D02*
X0096797Y0031367D01*
X0095598Y0032566D02*
X0108665Y0032566D01*
X0108376Y0033764D02*
X0044400Y0033764D01*
X0043201Y0034963D02*
X0108684Y0034963D01*
X0110268Y0036161D02*
X0084193Y0036161D01*
X0084303Y0036325D02*
X0084032Y0035919D01*
X0083686Y0035574D01*
X0083280Y0035303D01*
X0082829Y0035116D01*
X0082350Y0035020D01*
X0082106Y0035020D01*
X0082106Y0037500D01*
X0084585Y0037500D01*
X0084585Y0037744D01*
X0084490Y0038223D01*
X0084303Y0038674D01*
X0084032Y0039081D01*
X0083686Y0039426D01*
X0083280Y0039697D01*
X0082829Y0039884D01*
X0082350Y0039980D01*
X0082106Y0039980D01*
X0082106Y0037500D01*
X0082106Y0037500D01*
X0084585Y0037500D01*
X0084585Y0037256D01*
X0084490Y0036777D01*
X0084303Y0036325D01*
X0084585Y0037360D02*
X0112368Y0037360D01*
X0112114Y0036161D02*
X0111443Y0036161D01*
X0110856Y0036161D02*
X0110856Y0036161D01*
X0110856Y0034963D02*
X0110856Y0034963D01*
X0110856Y0033764D02*
X0110856Y0033764D01*
X0110855Y0033750D02*
X0110855Y0033750D01*
X0110856Y0032566D02*
X0110856Y0032566D01*
X0113046Y0032566D02*
X0252884Y0032566D01*
X0253111Y0032520D02*
X0253356Y0032520D01*
X0253600Y0032520D01*
X0254079Y0032616D01*
X0254530Y0032803D01*
X0254936Y0033074D01*
X0255282Y0033419D01*
X0255553Y0033825D01*
X0255740Y0034277D01*
X0255835Y0034756D01*
X0255835Y0035000D01*
X0255835Y0035244D01*
X0255740Y0035723D01*
X0255553Y0036174D01*
X0255282Y0036581D01*
X0254936Y0036926D01*
X0254530Y0037197D01*
X0254079Y0037384D01*
X0253600Y0037480D01*
X0253356Y0037480D01*
X0253356Y0035000D01*
X0255835Y0035000D01*
X0253356Y0035000D01*
X0253356Y0035000D01*
X0253356Y0035000D01*
X0253356Y0032520D01*
X0253356Y0035000D01*
X0253356Y0035000D01*
X0253356Y0037480D01*
X0253111Y0037480D01*
X0252632Y0037384D01*
X0252181Y0037197D01*
X0251775Y0036926D01*
X0251430Y0036581D01*
X0251158Y0036174D01*
X0250971Y0035723D01*
X0250876Y0035244D01*
X0250876Y0035000D01*
X0253355Y0035000D01*
X0250876Y0035000D01*
X0250876Y0034756D01*
X0250971Y0034277D01*
X0251158Y0033825D01*
X0251430Y0033419D01*
X0251775Y0033074D01*
X0252181Y0032803D01*
X0252632Y0032616D01*
X0253111Y0032520D01*
X0253356Y0032566D02*
X0253356Y0032566D01*
X0253828Y0032566D02*
X0257884Y0032566D01*
X0258111Y0032520D02*
X0258356Y0032520D01*
X0258600Y0032520D01*
X0259079Y0032616D01*
X0259530Y0032803D01*
X0259936Y0033074D01*
X0260282Y0033419D01*
X0260553Y0033825D01*
X0260740Y0034277D01*
X0260835Y0034756D01*
X0260835Y0035000D01*
X0260835Y0035244D01*
X0260740Y0035723D01*
X0260553Y0036174D01*
X0260282Y0036581D01*
X0259936Y0036926D01*
X0259530Y0037197D01*
X0259079Y0037384D01*
X0258600Y0037480D01*
X0258356Y0037480D01*
X0258356Y0035000D01*
X0260835Y0035000D01*
X0258356Y0035000D01*
X0258356Y0035000D01*
X0258356Y0035000D01*
X0258356Y0032520D01*
X0258356Y0035000D01*
X0258356Y0035000D01*
X0258356Y0037480D01*
X0258111Y0037480D01*
X0257632Y0037384D01*
X0257181Y0037197D01*
X0256775Y0036926D01*
X0256430Y0036581D01*
X0256158Y0036174D01*
X0255971Y0035723D01*
X0255876Y0035244D01*
X0255876Y0035000D01*
X0258355Y0035000D01*
X0255876Y0035000D01*
X0255876Y0034756D01*
X0255971Y0034277D01*
X0256158Y0033825D01*
X0256430Y0033419D01*
X0256775Y0033074D01*
X0257181Y0032803D01*
X0257632Y0032616D01*
X0258111Y0032520D01*
X0258356Y0032566D02*
X0258356Y0032566D01*
X0258828Y0032566D02*
X0280671Y0032566D01*
X0280325Y0033764D02*
X0260512Y0033764D01*
X0260835Y0034963D02*
X0280325Y0034963D01*
X0280325Y0036161D02*
X0260558Y0036161D01*
X0259138Y0037360D02*
X0280640Y0037360D01*
X0281137Y0038558D02*
X0270438Y0038558D01*
X0270468Y0038588D02*
X0270848Y0039504D01*
X0270848Y0040008D01*
X0271351Y0040008D01*
X0272267Y0040387D01*
X0272968Y0041088D01*
X0273348Y0042004D01*
X0273348Y0042508D01*
X0273851Y0042508D01*
X0274767Y0042887D01*
X0275468Y0043588D01*
X0275848Y0044504D01*
X0275848Y0045008D01*
X0276351Y0045008D01*
X0277267Y0045387D01*
X0277968Y0046088D01*
X0278348Y0047004D01*
X0278348Y0047996D01*
X0277968Y0048912D01*
X0277267Y0049613D01*
X0276351Y0049992D01*
X0275360Y0049992D01*
X0274444Y0049613D01*
X0273743Y0048912D01*
X0273364Y0047996D01*
X0273364Y0047492D01*
X0272860Y0047492D01*
X0271944Y0047113D01*
X0271243Y0046412D01*
X0270864Y0045496D01*
X0270864Y0044992D01*
X0270360Y0044992D01*
X0269444Y0044613D01*
X0268743Y0043912D01*
X0268364Y0042996D01*
X0268364Y0042492D01*
X0267860Y0042492D01*
X0266944Y0042113D01*
X0266243Y0041412D01*
X0265864Y0040496D01*
X0265864Y0039504D01*
X0266243Y0038588D01*
X0266944Y0037887D01*
X0267860Y0037508D01*
X0268851Y0037508D01*
X0269767Y0037887D01*
X0270468Y0038588D01*
X0270848Y0039757D02*
X0281755Y0039757D01*
X0282953Y0040955D02*
X0272835Y0040955D01*
X0273348Y0042154D02*
X0284640Y0042154D01*
X0292071Y0042154D02*
X0323356Y0042154D01*
X0323356Y0043352D02*
X0275232Y0043352D01*
X0275848Y0044551D02*
X0323356Y0044551D01*
X0323356Y0045749D02*
X0312625Y0045749D01*
X0312734Y0045779D02*
X0313811Y0046225D01*
X0314820Y0046807D01*
X0315744Y0047516D01*
X0316568Y0048340D01*
X0317277Y0049264D01*
X0317859Y0050273D01*
X0318305Y0051350D01*
X0318607Y0052475D01*
X0318756Y0053613D01*
X0310471Y0053613D01*
X0310471Y0045327D01*
X0311609Y0045477D01*
X0312734Y0045779D01*
X0310471Y0045749D02*
X0309271Y0045749D01*
X0309271Y0045327D02*
X0309271Y0053613D01*
X0300986Y0053613D01*
X0301136Y0052475D01*
X0301438Y0051350D01*
X0301883Y0050273D01*
X0302466Y0049264D01*
X0303175Y0048340D01*
X0303999Y0047516D01*
X0304923Y0046807D01*
X0305932Y0046225D01*
X0307008Y0045779D01*
X0308134Y0045477D01*
X0309271Y0045327D01*
X0309271Y0046948D02*
X0310471Y0046948D01*
X0310471Y0048146D02*
X0309271Y0048146D01*
X0309271Y0049345D02*
X0310471Y0049345D01*
X0310471Y0050543D02*
X0309271Y0050543D01*
X0309271Y0051742D02*
X0310471Y0051742D01*
X0310471Y0052940D02*
X0309271Y0052940D01*
X0309271Y0053613D02*
X0310471Y0053613D01*
X0310471Y0054813D01*
X0309271Y0054813D01*
X0309271Y0063098D01*
X0308134Y0062948D01*
X0307008Y0062646D01*
X0305932Y0062201D01*
X0304923Y0061618D01*
X0303999Y0060909D01*
X0303175Y0060085D01*
X0302466Y0059161D01*
X0301883Y0058152D01*
X0301438Y0057075D01*
X0301136Y0055950D01*
X0300986Y0054813D01*
X0309271Y0054813D01*
X0309271Y0053613D01*
X0309271Y0054139D02*
X0285241Y0054139D01*
X0285468Y0053912D02*
X0284767Y0054613D01*
X0283851Y0054992D01*
X0283348Y0054992D01*
X0283348Y0055496D01*
X0282968Y0056412D01*
X0282267Y0057113D01*
X0281351Y0057492D01*
X0280848Y0057492D01*
X0280848Y0057996D01*
X0280468Y0058912D01*
X0279767Y0059613D01*
X0278851Y0059992D01*
X0278348Y0059992D01*
X0278348Y0060496D01*
X0277968Y0061412D01*
X0277267Y0062113D01*
X0276351Y0062492D01*
X0275360Y0062492D01*
X0274444Y0062113D01*
X0273743Y0061412D01*
X0273364Y0060496D01*
X0273364Y0059504D01*
X0273743Y0058588D01*
X0274444Y0057887D01*
X0275360Y0057508D01*
X0275864Y0057508D01*
X0275864Y0057004D01*
X0276243Y0056088D01*
X0276944Y0055387D01*
X0277860Y0055008D01*
X0278364Y0055008D01*
X0278364Y0054504D01*
X0278743Y0053588D01*
X0279444Y0052887D01*
X0280360Y0052508D01*
X0280864Y0052508D01*
X0280864Y0052004D01*
X0281243Y0051088D01*
X0281944Y0050387D01*
X0282860Y0050008D01*
X0283851Y0050008D01*
X0284767Y0050387D01*
X0285468Y0051088D01*
X0285848Y0052004D01*
X0285848Y0052996D01*
X0285468Y0053912D01*
X0285848Y0052940D02*
X0301075Y0052940D01*
X0301332Y0051742D02*
X0285739Y0051742D01*
X0284923Y0050543D02*
X0301772Y0050543D01*
X0302419Y0049345D02*
X0277535Y0049345D01*
X0278285Y0048146D02*
X0303369Y0048146D01*
X0304740Y0046948D02*
X0278324Y0046948D01*
X0277629Y0045749D02*
X0307118Y0045749D01*
X0315003Y0046948D02*
X0323356Y0046948D01*
X0323356Y0048146D02*
X0316374Y0048146D01*
X0317323Y0049345D02*
X0323356Y0049345D01*
X0323356Y0050543D02*
X0317971Y0050543D01*
X0318410Y0051742D02*
X0323356Y0051742D01*
X0323356Y0052940D02*
X0318668Y0052940D01*
X0318756Y0054813D02*
X0318607Y0055950D01*
X0318305Y0057075D01*
X0317859Y0058152D01*
X0317277Y0059161D01*
X0316568Y0060085D01*
X0315744Y0060909D01*
X0314820Y0061618D01*
X0313811Y0062201D01*
X0312734Y0062646D01*
X0311609Y0062948D01*
X0310471Y0063098D01*
X0310471Y0054813D01*
X0318756Y0054813D01*
X0318687Y0055337D02*
X0323356Y0055337D01*
X0323356Y0054139D02*
X0310471Y0054139D01*
X0310471Y0055337D02*
X0309271Y0055337D01*
X0309271Y0056536D02*
X0310471Y0056536D01*
X0310471Y0057734D02*
X0309271Y0057734D01*
X0309271Y0058933D02*
X0310471Y0058933D01*
X0310471Y0060132D02*
X0309271Y0060132D01*
X0309271Y0061330D02*
X0310471Y0061330D01*
X0310471Y0062529D02*
X0309271Y0062529D01*
X0306724Y0062529D02*
X0225848Y0062529D01*
X0225848Y0062996D02*
X0225848Y0062004D01*
X0225468Y0061088D01*
X0224767Y0060387D01*
X0223851Y0060008D01*
X0222860Y0060008D01*
X0221944Y0060387D01*
X0221243Y0061088D01*
X0220864Y0062004D01*
X0220864Y0062996D01*
X0221243Y0063912D01*
X0221944Y0064613D01*
X0222860Y0064992D01*
X0223851Y0064992D01*
X0224767Y0064613D01*
X0225468Y0063912D01*
X0225848Y0062996D01*
X0225545Y0063727D02*
X0323356Y0063727D01*
X0323356Y0062529D02*
X0313019Y0062529D01*
X0315195Y0061330D02*
X0323356Y0061330D01*
X0323356Y0060132D02*
X0316521Y0060132D01*
X0317408Y0058933D02*
X0323356Y0058933D01*
X0323356Y0057734D02*
X0318032Y0057734D01*
X0318450Y0056536D02*
X0323356Y0056536D01*
X0323356Y0064926D02*
X0224012Y0064926D01*
X0222699Y0064926D02*
X0180209Y0064926D01*
X0180238Y0064856D02*
X0179858Y0065772D01*
X0179157Y0066473D01*
X0178241Y0066852D01*
X0177250Y0066852D01*
X0176334Y0066473D01*
X0175633Y0065772D01*
X0175253Y0064856D01*
X0175253Y0063865D01*
X0175633Y0062949D01*
X0176334Y0062248D01*
X0177250Y0061868D01*
X0178241Y0061868D01*
X0178450Y0061955D01*
X0178364Y0061746D01*
X0178364Y0060754D01*
X0178743Y0059838D01*
X0179444Y0059137D01*
X0180360Y0058758D01*
X0181351Y0058758D01*
X0182267Y0059137D01*
X0182968Y0059838D01*
X0183348Y0060754D01*
X0183348Y0061746D01*
X0182968Y0062662D01*
X0182267Y0063363D01*
X0181351Y0063742D01*
X0180360Y0063742D01*
X0180151Y0063656D01*
X0180238Y0063865D01*
X0180238Y0064856D01*
X0180181Y0063727D02*
X0180324Y0063727D01*
X0181388Y0063727D02*
X0186574Y0063727D01*
X0186610Y0063742D02*
X0185694Y0063363D01*
X0184993Y0062662D01*
X0184614Y0061746D01*
X0184614Y0060754D01*
X0184993Y0059838D01*
X0185694Y0059137D01*
X0186610Y0058758D01*
X0187601Y0058758D01*
X0188517Y0059137D01*
X0189218Y0059838D01*
X0189598Y0060754D01*
X0189598Y0061746D01*
X0189218Y0062662D01*
X0188517Y0063363D01*
X0187601Y0063742D01*
X0186610Y0063742D01*
X0187638Y0063727D02*
X0221166Y0063727D01*
X0220864Y0062529D02*
X0189273Y0062529D01*
X0189598Y0061330D02*
X0208709Y0061330D01*
X0208743Y0061412D02*
X0208364Y0060496D01*
X0208364Y0059504D01*
X0208743Y0058588D01*
X0209444Y0057887D01*
X0210360Y0057508D01*
X0211351Y0057508D01*
X0212267Y0057887D01*
X0212968Y0058588D01*
X0213348Y0059504D01*
X0213348Y0060496D01*
X0212968Y0061412D01*
X0212267Y0062113D01*
X0211351Y0062492D01*
X0210360Y0062492D01*
X0209444Y0062113D01*
X0208743Y0061412D01*
X0208364Y0060132D02*
X0189340Y0060132D01*
X0188024Y0058933D02*
X0208600Y0058933D01*
X0209813Y0057734D02*
X0168348Y0057734D01*
X0168348Y0057996D02*
X0167968Y0058912D01*
X0167267Y0059613D01*
X0166351Y0059992D01*
X0165360Y0059992D01*
X0164444Y0059613D01*
X0163743Y0058912D01*
X0163364Y0057996D01*
X0163364Y0057004D01*
X0163743Y0056088D01*
X0164444Y0055387D01*
X0165360Y0055008D01*
X0166351Y0055008D01*
X0167267Y0055387D01*
X0167968Y0056088D01*
X0168348Y0057004D01*
X0168348Y0057996D01*
X0167947Y0058933D02*
X0179937Y0058933D01*
X0178621Y0060132D02*
X0106826Y0060132D01*
X0106803Y0060075D02*
X0106990Y0060527D01*
X0107085Y0061006D01*
X0107085Y0061250D01*
X0107085Y0061494D01*
X0106990Y0061973D01*
X0106803Y0062424D01*
X0106532Y0062831D01*
X0106186Y0063176D01*
X0105780Y0063447D01*
X0105329Y0063634D01*
X0104850Y0063730D01*
X0104606Y0063730D01*
X0104606Y0061250D01*
X0107085Y0061250D01*
X0104606Y0061250D01*
X0104606Y0061250D01*
X0104606Y0061250D01*
X0104606Y0058770D01*
X0104850Y0058770D01*
X0105329Y0058866D01*
X0105780Y0059053D01*
X0106186Y0059324D01*
X0106532Y0059669D01*
X0106803Y0060075D01*
X0107085Y0061330D02*
X0178364Y0061330D01*
X0176053Y0062529D02*
X0106733Y0062529D01*
X0104606Y0062529D02*
X0104606Y0062529D01*
X0104606Y0063727D02*
X0104606Y0063727D01*
X0104606Y0063730D02*
X0104361Y0063730D01*
X0103882Y0063634D01*
X0103431Y0063447D01*
X0103025Y0063176D01*
X0102680Y0062831D01*
X0102408Y0062424D01*
X0102221Y0061973D01*
X0102126Y0061494D01*
X0102126Y0061250D01*
X0104605Y0061250D01*
X0102126Y0061250D01*
X0102126Y0061006D01*
X0102221Y0060527D01*
X0102408Y0060075D01*
X0102680Y0059669D01*
X0103025Y0059324D01*
X0103431Y0059053D01*
X0103882Y0058866D01*
X0104361Y0058770D01*
X0104606Y0058770D01*
X0104606Y0061250D01*
X0104606Y0061250D01*
X0104606Y0063730D01*
X0104862Y0063727D02*
X0175310Y0063727D01*
X0175282Y0064926D02*
X0096512Y0064926D01*
X0096351Y0064992D02*
X0095360Y0064992D01*
X0094444Y0064613D01*
X0093743Y0063912D01*
X0093364Y0062996D01*
X0093364Y0062004D01*
X0093743Y0061088D01*
X0094444Y0060387D01*
X0095360Y0060008D01*
X0096351Y0060008D01*
X0097267Y0060387D01*
X0097968Y0061088D01*
X0098348Y0062004D01*
X0098348Y0062996D01*
X0097968Y0063912D01*
X0097267Y0064613D01*
X0096351Y0064992D01*
X0095199Y0064926D02*
X0067806Y0064926D01*
X0067806Y0064363D02*
X0067806Y0065637D01*
X0067318Y0066813D01*
X0066418Y0067713D01*
X0065423Y0068125D01*
X0066418Y0068537D01*
X0067318Y0069437D01*
X0067806Y0070613D01*
X0067806Y0071887D01*
X0067318Y0073063D01*
X0066418Y0073963D01*
X0065242Y0074450D01*
X0063969Y0074450D01*
X0062793Y0073963D01*
X0061893Y0073063D01*
X0061406Y0071887D01*
X0061406Y0070613D01*
X0061893Y0069437D01*
X0062793Y0068537D01*
X0063788Y0068125D01*
X0062793Y0067713D01*
X0061893Y0066813D01*
X0061406Y0065637D01*
X0061406Y0064363D01*
X0061893Y0063187D01*
X0062793Y0062287D01*
X0063969Y0061800D01*
X0065242Y0061800D01*
X0066418Y0062287D01*
X0067318Y0063187D01*
X0067806Y0064363D01*
X0067542Y0063727D02*
X0093666Y0063727D01*
X0093364Y0062529D02*
X0066660Y0062529D01*
X0062552Y0062529D02*
X0030137Y0062529D01*
X0030137Y0063727D02*
X0061669Y0063727D01*
X0061406Y0064926D02*
X0030137Y0064926D01*
X0030137Y0066124D02*
X0061608Y0066124D01*
X0062403Y0067323D02*
X0030137Y0067323D01*
X0030137Y0068521D02*
X0062832Y0068521D01*
X0061776Y0069720D02*
X0030137Y0069720D01*
X0030137Y0070918D02*
X0061406Y0070918D01*
X0061501Y0072117D02*
X0030137Y0072117D01*
X0030137Y0073315D02*
X0062145Y0073315D01*
X0067066Y0073315D02*
X0163496Y0073315D01*
X0163364Y0072996D02*
X0163364Y0072004D01*
X0163743Y0071088D01*
X0164444Y0070387D01*
X0165360Y0070008D01*
X0166351Y0070008D01*
X0167267Y0070387D01*
X0167580Y0070700D01*
X0176601Y0070700D01*
X0178364Y0072462D01*
X0178364Y0072004D01*
X0178743Y0071088D01*
X0179444Y0070387D01*
X0180360Y0070008D01*
X0180864Y0070008D01*
X0180864Y0069504D01*
X0181243Y0068588D01*
X0181944Y0067887D01*
X0182860Y0067508D01*
X0183851Y0067508D01*
X0184767Y0067887D01*
X0185468Y0068588D01*
X0185848Y0069504D01*
X0185848Y0070496D01*
X0185468Y0071412D01*
X0184767Y0072113D01*
X0183851Y0072492D01*
X0183348Y0072492D01*
X0183348Y0072996D01*
X0182968Y0073912D01*
X0182641Y0074239D01*
X0183364Y0074962D01*
X0183364Y0074504D01*
X0183743Y0073588D01*
X0184444Y0072887D01*
X0185360Y0072508D01*
X0186351Y0072508D01*
X0187267Y0072887D01*
X0187968Y0073588D01*
X0188348Y0074504D01*
X0188348Y0075496D01*
X0188263Y0075700D01*
X0192610Y0075700D01*
X0194056Y0074254D01*
X0195110Y0073200D01*
X0201601Y0073200D01*
X0204101Y0075700D01*
X0227851Y0075700D01*
X0229101Y0076950D01*
X0230156Y0078004D01*
X0230156Y0078276D01*
X0230468Y0078588D01*
X0230848Y0079504D01*
X0230848Y0080496D01*
X0230468Y0081412D01*
X0229767Y0082113D01*
X0228851Y0082492D01*
X0228348Y0082492D01*
X0228348Y0082996D01*
X0227968Y0083912D01*
X0227641Y0084239D01*
X0227851Y0084450D01*
X0228906Y0085504D01*
X0228906Y0088276D01*
X0229218Y0088588D01*
X0229598Y0089504D01*
X0229598Y0090496D01*
X0229218Y0091412D01*
X0228517Y0092113D01*
X0227601Y0092492D01*
X0226610Y0092492D01*
X0225694Y0092113D01*
X0224993Y0091412D01*
X0224614Y0090496D01*
X0224614Y0089504D01*
X0224993Y0088588D01*
X0225306Y0088276D01*
X0225306Y0086996D01*
X0225110Y0086800D01*
X0220201Y0086800D01*
X0220351Y0086950D01*
X0220351Y0086950D01*
X0221406Y0088004D01*
X0221406Y0089526D01*
X0221718Y0089838D01*
X0222098Y0090754D01*
X0222098Y0091746D01*
X0221718Y0092662D01*
X0221017Y0093363D01*
X0220101Y0093742D01*
X0219110Y0093742D01*
X0218194Y0093363D01*
X0217493Y0092662D01*
X0217114Y0091746D01*
X0217114Y0090754D01*
X0217493Y0089838D01*
X0217806Y0089526D01*
X0217806Y0089496D01*
X0217610Y0089300D01*
X0212610Y0089300D01*
X0211556Y0088246D01*
X0210110Y0086800D01*
X0201601Y0086800D01*
X0194101Y0094300D01*
X0174101Y0094300D01*
X0172851Y0095550D01*
X0166360Y0095550D01*
X0165306Y0094496D01*
X0161360Y0090550D01*
X0157851Y0090550D01*
X0153348Y0095053D01*
X0153348Y0095496D01*
X0152968Y0096412D01*
X0152267Y0097113D01*
X0151351Y0097492D01*
X0150360Y0097492D01*
X0149444Y0097113D01*
X0148743Y0096412D01*
X0148364Y0095496D01*
X0148364Y0094504D01*
X0148743Y0093588D01*
X0149444Y0092887D01*
X0150360Y0092508D01*
X0150802Y0092508D01*
X0155306Y0088004D01*
X0156360Y0086950D01*
X0160306Y0086950D01*
X0160306Y0079224D01*
X0159993Y0078912D01*
X0159614Y0077996D01*
X0159614Y0077004D01*
X0159993Y0076088D01*
X0160694Y0075387D01*
X0161610Y0075008D01*
X0162601Y0075008D01*
X0163517Y0075387D01*
X0164218Y0076088D01*
X0164598Y0077004D01*
X0164598Y0077824D01*
X0165360Y0077508D01*
X0166351Y0077508D01*
X0167267Y0077887D01*
X0167968Y0078588D01*
X0168348Y0079504D01*
X0168348Y0080496D01*
X0167968Y0081412D01*
X0167656Y0081724D01*
X0167656Y0088004D01*
X0169101Y0089450D01*
X0169281Y0089450D01*
X0168743Y0088912D01*
X0168364Y0087996D01*
X0168364Y0087004D01*
X0168743Y0086088D01*
X0169444Y0085387D01*
X0170360Y0085008D01*
X0171351Y0085008D01*
X0172267Y0085387D01*
X0172580Y0085700D01*
X0180110Y0085700D01*
X0184056Y0081754D01*
X0185110Y0080700D01*
X0191601Y0080700D01*
X0192005Y0081104D01*
X0192005Y0080863D01*
X0192385Y0079947D01*
X0193031Y0079300D01*
X0182610Y0079300D01*
X0181556Y0078246D01*
X0180110Y0076800D01*
X0177610Y0076800D01*
X0176556Y0075746D01*
X0175110Y0074300D01*
X0167580Y0074300D01*
X0167267Y0074613D01*
X0166351Y0074992D01*
X0165360Y0074992D01*
X0164444Y0074613D01*
X0163743Y0073912D01*
X0163364Y0072996D01*
X0163364Y0072117D02*
X0067710Y0072117D01*
X0067806Y0070918D02*
X0163913Y0070918D01*
X0164345Y0074514D02*
X0030137Y0074514D01*
X0030137Y0075712D02*
X0036637Y0075712D01*
X0036775Y0075574D02*
X0037181Y0075303D01*
X0037632Y0075116D01*
X0038111Y0075020D01*
X0038356Y0075020D01*
X0038600Y0075020D01*
X0039079Y0075116D01*
X0039530Y0075303D01*
X0039936Y0075574D01*
X0040282Y0075919D01*
X0040553Y0076325D01*
X0040740Y0076777D01*
X0040835Y0077256D01*
X0040835Y0077500D01*
X0040835Y0077744D01*
X0040740Y0078223D01*
X0040553Y0078674D01*
X0040282Y0079081D01*
X0039936Y0079426D01*
X0039530Y0079697D01*
X0039079Y0079884D01*
X0038600Y0079980D01*
X0038356Y0079980D01*
X0038356Y0077500D01*
X0040835Y0077500D01*
X0038356Y0077500D01*
X0038356Y0077500D01*
X0038356Y0077500D01*
X0038356Y0075020D01*
X0038356Y0077500D01*
X0038356Y0077500D01*
X0038356Y0079980D01*
X0038111Y0079980D01*
X0037632Y0079884D01*
X0037181Y0079697D01*
X0036775Y0079426D01*
X0036430Y0079081D01*
X0036158Y0078674D01*
X0035971Y0078223D01*
X0035876Y0077744D01*
X0035876Y0077500D01*
X0038355Y0077500D01*
X0035876Y0077500D01*
X0035876Y0077256D01*
X0035971Y0076777D01*
X0036158Y0076325D01*
X0036430Y0075919D01*
X0036775Y0075574D01*
X0035945Y0076911D02*
X0030137Y0076911D01*
X0030137Y0078109D02*
X0035949Y0078109D01*
X0036657Y0079308D02*
X0030137Y0079308D01*
X0030137Y0080506D02*
X0080928Y0080506D01*
X0080971Y0080723D02*
X0080876Y0080244D01*
X0080876Y0080000D01*
X0083355Y0080000D01*
X0080876Y0080000D01*
X0080876Y0079756D01*
X0080971Y0079277D01*
X0081158Y0078825D01*
X0081430Y0078419D01*
X0081775Y0078074D01*
X0082181Y0077803D01*
X0082632Y0077616D01*
X0083111Y0077520D01*
X0083356Y0077520D01*
X0083600Y0077520D01*
X0084079Y0077616D01*
X0084530Y0077803D01*
X0084936Y0078074D01*
X0085282Y0078419D01*
X0085553Y0078825D01*
X0085740Y0079277D01*
X0085835Y0079756D01*
X0085835Y0080000D01*
X0085835Y0080244D01*
X0085740Y0080723D01*
X0085553Y0081174D01*
X0085282Y0081581D01*
X0084936Y0081926D01*
X0084530Y0082197D01*
X0084079Y0082384D01*
X0083600Y0082480D01*
X0083356Y0082480D01*
X0083356Y0080000D01*
X0085835Y0080000D01*
X0083356Y0080000D01*
X0083356Y0080000D01*
X0083356Y0080000D01*
X0083356Y0077520D01*
X0083356Y0080000D01*
X0083356Y0080000D01*
X0083356Y0082480D01*
X0083111Y0082480D01*
X0082632Y0082384D01*
X0082181Y0082197D01*
X0081775Y0081926D01*
X0081430Y0081581D01*
X0081158Y0081174D01*
X0080971Y0080723D01*
X0081554Y0081705D02*
X0030137Y0081705D01*
X0030137Y0082903D02*
X0160306Y0082903D01*
X0160306Y0081705D02*
X0103907Y0081705D01*
X0104032Y0081581D02*
X0103686Y0081926D01*
X0103280Y0082197D01*
X0102829Y0082384D01*
X0102350Y0082480D01*
X0102106Y0082480D01*
X0102106Y0080000D01*
X0104585Y0080000D01*
X0104585Y0080244D01*
X0104490Y0080723D01*
X0104303Y0081174D01*
X0104032Y0081581D01*
X0104533Y0080506D02*
X0160306Y0080506D01*
X0160306Y0079308D02*
X0104496Y0079308D01*
X0104490Y0079277D02*
X0104585Y0079756D01*
X0104585Y0080000D01*
X0102106Y0080000D01*
X0102106Y0080000D01*
X0102106Y0080000D01*
X0102106Y0077520D01*
X0102350Y0077520D01*
X0102829Y0077616D01*
X0103280Y0077803D01*
X0103686Y0078074D01*
X0104032Y0078419D01*
X0104303Y0078825D01*
X0104490Y0079277D01*
X0103721Y0078109D02*
X0159661Y0078109D01*
X0159652Y0076911D02*
X0093266Y0076911D01*
X0093240Y0076777D02*
X0093335Y0077256D01*
X0093335Y0077500D01*
X0093335Y0077744D01*
X0093240Y0078223D01*
X0093053Y0078674D01*
X0092782Y0079081D01*
X0092436Y0079426D01*
X0092030Y0079697D01*
X0091579Y0079884D01*
X0091100Y0079980D01*
X0090856Y0079980D01*
X0090856Y0077500D01*
X0093335Y0077500D01*
X0090856Y0077500D01*
X0090856Y0077500D01*
X0090856Y0077500D01*
X0090856Y0075020D01*
X0091100Y0075020D01*
X0091579Y0075116D01*
X0092030Y0075303D01*
X0092436Y0075574D01*
X0092782Y0075919D01*
X0093053Y0076325D01*
X0093240Y0076777D01*
X0092574Y0075712D02*
X0160369Y0075712D01*
X0163842Y0075712D02*
X0176522Y0075712D01*
X0175324Y0074514D02*
X0167366Y0074514D01*
X0164559Y0076911D02*
X0180221Y0076911D01*
X0181419Y0078109D02*
X0167489Y0078109D01*
X0168266Y0079308D02*
X0193024Y0079308D01*
X0192153Y0080506D02*
X0168343Y0080506D01*
X0167675Y0081705D02*
X0184105Y0081705D01*
X0182907Y0082903D02*
X0167656Y0082903D01*
X0167656Y0084102D02*
X0181708Y0084102D01*
X0180510Y0085300D02*
X0172057Y0085300D01*
X0169654Y0085300D02*
X0167656Y0085300D01*
X0167656Y0086499D02*
X0168573Y0086499D01*
X0168364Y0087697D02*
X0167656Y0087697D01*
X0168547Y0088896D02*
X0168736Y0088896D01*
X0162103Y0091293D02*
X0157108Y0091293D01*
X0155910Y0092491D02*
X0163301Y0092491D01*
X0164500Y0093690D02*
X0154711Y0093690D01*
X0155694Y0094137D02*
X0156610Y0093758D01*
X0157601Y0093758D01*
X0158517Y0094137D01*
X0159218Y0094838D01*
X0159598Y0095754D01*
X0159598Y0096746D01*
X0159218Y0097662D01*
X0158517Y0098363D01*
X0157601Y0098742D01*
X0156610Y0098742D01*
X0155694Y0098363D01*
X0154993Y0097662D01*
X0154614Y0096746D01*
X0154614Y0095754D01*
X0154993Y0094838D01*
X0155694Y0094137D01*
X0154972Y0094888D02*
X0153513Y0094888D01*
X0153103Y0096087D02*
X0154614Y0096087D01*
X0154837Y0097285D02*
X0151850Y0097285D01*
X0149861Y0097285D02*
X0109598Y0097285D01*
X0109598Y0097004D02*
X0109598Y0097996D01*
X0109218Y0098912D01*
X0108517Y0099613D01*
X0107969Y0099840D01*
X0108348Y0100754D01*
X0108348Y0101746D01*
X0107968Y0102662D01*
X0107267Y0103363D01*
X0106351Y0103742D01*
X0105360Y0103742D01*
X0104444Y0103363D01*
X0103743Y0102662D01*
X0103364Y0101746D01*
X0103364Y0100754D01*
X0103743Y0099838D01*
X0104444Y0099137D01*
X0104992Y0098910D01*
X0104614Y0097996D01*
X0104614Y0097004D01*
X0104993Y0096088D01*
X0105694Y0095387D01*
X0106610Y0095008D01*
X0107601Y0095008D01*
X0108517Y0095387D01*
X0109218Y0096088D01*
X0109598Y0097004D01*
X0109217Y0096087D02*
X0148608Y0096087D01*
X0148364Y0094888D02*
X0080582Y0094888D01*
X0080468Y0095162D02*
X0079767Y0095863D01*
X0078851Y0096242D01*
X0077860Y0096242D01*
X0076944Y0095863D01*
X0076243Y0095162D01*
X0075864Y0094246D01*
X0075864Y0093254D01*
X0076243Y0092338D01*
X0076944Y0091637D01*
X0077860Y0091258D01*
X0078851Y0091258D01*
X0079767Y0091637D01*
X0080468Y0092338D01*
X0080848Y0093254D01*
X0080848Y0094246D01*
X0080468Y0095162D01*
X0080848Y0093690D02*
X0148701Y0093690D01*
X0150819Y0092491D02*
X0121353Y0092491D01*
X0121351Y0092492D02*
X0120360Y0092492D01*
X0119444Y0092113D01*
X0118743Y0091412D01*
X0118364Y0090496D01*
X0118364Y0089504D01*
X0118743Y0088588D01*
X0119444Y0087887D01*
X0120360Y0087508D01*
X0121351Y0087508D01*
X0122267Y0087887D01*
X0122968Y0088588D01*
X0123348Y0089504D01*
X0123348Y0090496D01*
X0122968Y0091412D01*
X0122267Y0092113D01*
X0121351Y0092492D01*
X0120358Y0092491D02*
X0080532Y0092491D01*
X0078936Y0091293D02*
X0118694Y0091293D01*
X0118364Y0090094D02*
X0030137Y0090094D01*
X0030137Y0088896D02*
X0103806Y0088896D01*
X0103930Y0089081D02*
X0103658Y0088674D01*
X0103471Y0088223D01*
X0103376Y0087744D01*
X0103376Y0087500D01*
X0105855Y0087500D01*
X0103376Y0087500D01*
X0103376Y0087256D01*
X0103471Y0086777D01*
X0103658Y0086325D01*
X0103930Y0085919D01*
X0104275Y0085574D01*
X0104681Y0085303D01*
X0105132Y0085116D01*
X0105611Y0085020D01*
X0105856Y0085020D01*
X0106100Y0085020D01*
X0106579Y0085116D01*
X0107030Y0085303D01*
X0107436Y0085574D01*
X0107782Y0085919D01*
X0108053Y0086325D01*
X0108240Y0086777D01*
X0108335Y0087256D01*
X0108335Y0087500D01*
X0108335Y0087744D01*
X0108240Y0088223D01*
X0108053Y0088674D01*
X0107782Y0089081D01*
X0107436Y0089426D01*
X0107030Y0089697D01*
X0106579Y0089884D01*
X0106100Y0089980D01*
X0105856Y0089980D01*
X0105856Y0087500D01*
X0108335Y0087500D01*
X0105856Y0087500D01*
X0105856Y0087500D01*
X0105856Y0087500D01*
X0105856Y0085020D01*
X0105856Y0087500D01*
X0105856Y0087500D01*
X0105856Y0089980D01*
X0105611Y0089980D01*
X0105132Y0089884D01*
X0104681Y0089697D01*
X0104275Y0089426D01*
X0103930Y0089081D01*
X0103376Y0087697D02*
X0030137Y0087697D01*
X0030137Y0086499D02*
X0103587Y0086499D01*
X0104687Y0085300D02*
X0030137Y0085300D01*
X0030137Y0084102D02*
X0160306Y0084102D01*
X0160306Y0085300D02*
X0107024Y0085300D01*
X0105856Y0085300D02*
X0105856Y0085300D01*
X0105856Y0086499D02*
X0105856Y0086499D01*
X0105855Y0087500D02*
X0105855Y0087500D01*
X0105856Y0087697D02*
X0105856Y0087697D01*
X0105856Y0088896D02*
X0105856Y0088896D01*
X0107905Y0088896D02*
X0118616Y0088896D01*
X0119903Y0087697D02*
X0108335Y0087697D01*
X0108125Y0086499D02*
X0160306Y0086499D01*
X0155613Y0087697D02*
X0121809Y0087697D01*
X0123096Y0088896D02*
X0154414Y0088896D01*
X0153216Y0090094D02*
X0123348Y0090094D01*
X0123018Y0091293D02*
X0152017Y0091293D01*
X0159239Y0094888D02*
X0165698Y0094888D01*
X0159598Y0096087D02*
X0178818Y0096087D01*
X0178930Y0095919D02*
X0179275Y0095574D01*
X0179681Y0095303D01*
X0180132Y0095116D01*
X0180611Y0095020D01*
X0180856Y0095020D01*
X0181100Y0095020D01*
X0181579Y0095116D01*
X0182030Y0095303D01*
X0182436Y0095574D01*
X0182782Y0095919D01*
X0183053Y0096325D01*
X0183240Y0096777D01*
X0183335Y0097256D01*
X0183335Y0097500D01*
X0183335Y0097744D01*
X0183240Y0098223D01*
X0183053Y0098674D01*
X0182782Y0099081D01*
X0182436Y0099426D01*
X0182030Y0099697D01*
X0181579Y0099884D01*
X0181100Y0099980D01*
X0180856Y0099980D01*
X0180856Y0097500D01*
X0183335Y0097500D01*
X0180856Y0097500D01*
X0180856Y0097500D01*
X0180856Y0097500D01*
X0180856Y0095020D01*
X0180856Y0097500D01*
X0180856Y0097500D01*
X0180856Y0099980D01*
X0180611Y0099980D01*
X0180132Y0099884D01*
X0179681Y0099697D01*
X0179275Y0099426D01*
X0178930Y0099081D01*
X0178658Y0098674D01*
X0178471Y0098223D01*
X0178376Y0097744D01*
X0178376Y0097500D01*
X0180855Y0097500D01*
X0178376Y0097500D01*
X0178376Y0097256D01*
X0178471Y0096777D01*
X0178658Y0096325D01*
X0178930Y0095919D01*
X0178376Y0097285D02*
X0159374Y0097285D01*
X0158225Y0098484D02*
X0178579Y0098484D01*
X0179659Y0099682D02*
X0123321Y0099682D01*
X0123335Y0099756D02*
X0123335Y0100000D01*
X0123335Y0100244D01*
X0123240Y0100723D01*
X0123053Y0101174D01*
X0122782Y0101581D01*
X0122436Y0101926D01*
X0122030Y0102197D01*
X0121579Y0102384D01*
X0121100Y0102480D01*
X0120856Y0102480D01*
X0120856Y0100000D01*
X0123335Y0100000D01*
X0120856Y0100000D01*
X0120856Y0100000D01*
X0120856Y0100000D01*
X0120856Y0097520D01*
X0121100Y0097520D01*
X0121579Y0097616D01*
X0122030Y0097803D01*
X0122436Y0098074D01*
X0122782Y0098419D01*
X0123053Y0098825D01*
X0123240Y0099277D01*
X0123335Y0099756D01*
X0123175Y0100881D02*
X0155200Y0100881D01*
X0154993Y0101088D02*
X0155694Y0100387D01*
X0156610Y0100008D01*
X0157601Y0100008D01*
X0158517Y0100387D01*
X0159218Y0101088D01*
X0159598Y0102004D01*
X0159598Y0102996D01*
X0159218Y0103912D01*
X0158906Y0104224D01*
X0158906Y0109254D01*
X0161601Y0111950D01*
X0190110Y0111950D01*
X0191556Y0110504D01*
X0191556Y0104224D01*
X0191243Y0103912D01*
X0190864Y0102996D01*
X0190864Y0102004D01*
X0191243Y0101088D01*
X0191944Y0100387D01*
X0192860Y0100008D01*
X0193318Y0100008D01*
X0193302Y0099992D01*
X0192860Y0099992D01*
X0191944Y0099613D01*
X0191243Y0098912D01*
X0190864Y0097996D01*
X0190864Y0097004D01*
X0191243Y0096088D01*
X0191944Y0095387D01*
X0192860Y0095008D01*
X0193851Y0095008D01*
X0194767Y0095387D01*
X0195468Y0096088D01*
X0195848Y0097004D01*
X0195848Y0097447D01*
X0196601Y0098200D01*
X0197656Y0099254D01*
X0197656Y0114496D01*
X0195156Y0116996D01*
X0194101Y0118050D01*
X0189900Y0118050D01*
X0189936Y0118074D01*
X0190282Y0118419D01*
X0190553Y0118825D01*
X0190740Y0119277D01*
X0190835Y0119756D01*
X0190835Y0120000D01*
X0190835Y0120244D01*
X0190740Y0120723D01*
X0190553Y0121174D01*
X0190282Y0121581D01*
X0189936Y0121926D01*
X0189530Y0122197D01*
X0189079Y0122384D01*
X0188600Y0122480D01*
X0188356Y0122480D01*
X0188356Y0120000D01*
X0190835Y0120000D01*
X0188356Y0120000D01*
X0188356Y0120000D01*
X0188356Y0120000D01*
X0188356Y0122480D01*
X0188111Y0122480D01*
X0187632Y0122384D01*
X0187181Y0122197D01*
X0186775Y0121926D01*
X0186430Y0121581D01*
X0186158Y0121174D01*
X0185971Y0120723D01*
X0185876Y0120244D01*
X0185876Y0120000D01*
X0188355Y0120000D01*
X0185876Y0120000D01*
X0185876Y0119756D01*
X0185971Y0119277D01*
X0186158Y0118825D01*
X0186430Y0118419D01*
X0186775Y0118074D01*
X0186811Y0118050D01*
X0184900Y0118050D01*
X0184936Y0118074D01*
X0185282Y0118419D01*
X0185553Y0118825D01*
X0185740Y0119277D01*
X0185835Y0119756D01*
X0185835Y0120000D01*
X0185835Y0120244D01*
X0185740Y0120723D01*
X0185553Y0121174D01*
X0185282Y0121581D01*
X0184936Y0121926D01*
X0184530Y0122197D01*
X0184079Y0122384D01*
X0183600Y0122480D01*
X0183356Y0122480D01*
X0183356Y0120000D01*
X0185835Y0120000D01*
X0183356Y0120000D01*
X0183356Y0120000D01*
X0183356Y0120000D01*
X0183356Y0122480D01*
X0183111Y0122480D01*
X0182632Y0122384D01*
X0182181Y0122197D01*
X0181775Y0121926D01*
X0181430Y0121581D01*
X0181158Y0121174D01*
X0180971Y0120723D01*
X0180876Y0120244D01*
X0180876Y0120000D01*
X0183355Y0120000D01*
X0180876Y0120000D01*
X0180876Y0119756D01*
X0180971Y0119277D01*
X0181158Y0118825D01*
X0181430Y0118419D01*
X0181775Y0118074D01*
X0181811Y0118050D01*
X0179900Y0118050D01*
X0179936Y0118074D01*
X0180282Y0118419D01*
X0180553Y0118825D01*
X0180740Y0119277D01*
X0180835Y0119756D01*
X0180835Y0120000D01*
X0180835Y0120244D01*
X0180740Y0120723D01*
X0180553Y0121174D01*
X0180282Y0121581D01*
X0179936Y0121926D01*
X0179530Y0122197D01*
X0179079Y0122384D01*
X0178600Y0122480D01*
X0178356Y0122480D01*
X0178356Y0120000D01*
X0180835Y0120000D01*
X0178356Y0120000D01*
X0178356Y0120000D01*
X0178356Y0120000D01*
X0178356Y0122480D01*
X0178111Y0122480D01*
X0177632Y0122384D01*
X0177181Y0122197D01*
X0176775Y0121926D01*
X0176430Y0121581D01*
X0176158Y0121174D01*
X0175971Y0120723D01*
X0175876Y0120244D01*
X0175876Y0120000D01*
X0178355Y0120000D01*
X0175876Y0120000D01*
X0175876Y0119756D01*
X0175971Y0119277D01*
X0176158Y0118825D01*
X0176430Y0118419D01*
X0176775Y0118074D01*
X0176811Y0118050D01*
X0174900Y0118050D01*
X0174936Y0118074D01*
X0175282Y0118419D01*
X0175553Y0118825D01*
X0175740Y0119277D01*
X0175835Y0119756D01*
X0175835Y0120000D01*
X0175835Y0120244D01*
X0175740Y0120723D01*
X0175553Y0121174D01*
X0175282Y0121581D01*
X0174936Y0121926D01*
X0174530Y0122197D01*
X0174079Y0122384D01*
X0173600Y0122480D01*
X0173356Y0122480D01*
X0173356Y0120000D01*
X0175835Y0120000D01*
X0173356Y0120000D01*
X0173356Y0120000D01*
X0173356Y0120000D01*
X0173356Y0122480D01*
X0173111Y0122480D01*
X0172632Y0122384D01*
X0172181Y0122197D01*
X0171775Y0121926D01*
X0171430Y0121581D01*
X0171158Y0121174D01*
X0170971Y0120723D01*
X0170876Y0120244D01*
X0170876Y0120000D01*
X0173355Y0120000D01*
X0170876Y0120000D01*
X0170876Y0119756D01*
X0170971Y0119277D01*
X0171158Y0118825D01*
X0171430Y0118419D01*
X0171775Y0118074D01*
X0171811Y0118050D01*
X0164900Y0118050D01*
X0164936Y0118074D01*
X0165282Y0118419D01*
X0165553Y0118825D01*
X0165740Y0119277D01*
X0165835Y0119756D01*
X0165835Y0120000D01*
X0165835Y0120244D01*
X0165740Y0120723D01*
X0165553Y0121174D01*
X0165282Y0121581D01*
X0164936Y0121926D01*
X0164530Y0122197D01*
X0164079Y0122384D01*
X0163600Y0122480D01*
X0163356Y0122480D01*
X0163356Y0120000D01*
X0165835Y0120000D01*
X0163356Y0120000D01*
X0163356Y0120000D01*
X0163356Y0120000D01*
X0163356Y0122480D01*
X0163111Y0122480D01*
X0162632Y0122384D01*
X0162181Y0122197D01*
X0161775Y0121926D01*
X0161430Y0121581D01*
X0161158Y0121174D01*
X0160971Y0120723D01*
X0160876Y0120244D01*
X0160876Y0120000D01*
X0163355Y0120000D01*
X0160876Y0120000D01*
X0160876Y0119756D01*
X0160971Y0119277D01*
X0161158Y0118825D01*
X0161430Y0118419D01*
X0161775Y0118074D01*
X0161811Y0118050D01*
X0158860Y0118050D01*
X0153860Y0113050D01*
X0152806Y0111996D01*
X0152806Y0106996D01*
X0152052Y0106242D01*
X0151610Y0106242D01*
X0150694Y0105863D01*
X0149993Y0105162D01*
X0149614Y0104246D01*
X0149614Y0103254D01*
X0149993Y0102338D01*
X0150694Y0101637D01*
X0151610Y0101258D01*
X0152601Y0101258D01*
X0153517Y0101637D01*
X0154218Y0102338D01*
X0154598Y0103254D01*
X0154598Y0103697D01*
X0155306Y0104404D01*
X0155306Y0104224D01*
X0154993Y0103912D01*
X0154614Y0102996D01*
X0154614Y0102004D01*
X0154993Y0101088D01*
X0154614Y0102079D02*
X0153959Y0102079D01*
X0154598Y0103278D02*
X0154730Y0103278D01*
X0158906Y0104476D02*
X0178375Y0104476D01*
X0178364Y0104504D02*
X0178743Y0103588D01*
X0179444Y0102887D01*
X0180360Y0102508D01*
X0181351Y0102508D01*
X0182267Y0102887D01*
X0182968Y0103588D01*
X0183348Y0104504D01*
X0183348Y0105496D01*
X0182968Y0106412D01*
X0182267Y0107113D01*
X0181351Y0107492D01*
X0180360Y0107492D01*
X0179444Y0107113D01*
X0178743Y0106412D01*
X0178364Y0105496D01*
X0178364Y0104504D01*
X0178438Y0105675D02*
X0158906Y0105675D01*
X0158906Y0106873D02*
X0179205Y0106873D01*
X0182507Y0106873D02*
X0191556Y0106873D01*
X0191556Y0105675D02*
X0183274Y0105675D01*
X0183336Y0104476D02*
X0191556Y0104476D01*
X0190980Y0103278D02*
X0182658Y0103278D01*
X0179053Y0103278D02*
X0159481Y0103278D01*
X0159598Y0102079D02*
X0190864Y0102079D01*
X0191450Y0100881D02*
X0159011Y0100881D01*
X0155987Y0098484D02*
X0122825Y0098484D01*
X0120856Y0098484D02*
X0120856Y0098484D01*
X0120856Y0097520D02*
X0120856Y0100000D01*
X0120856Y0100000D01*
X0120856Y0102480D01*
X0120611Y0102480D01*
X0120132Y0102384D01*
X0119681Y0102197D01*
X0119275Y0101926D01*
X0118930Y0101581D01*
X0118658Y0101174D01*
X0118471Y0100723D01*
X0118376Y0100244D01*
X0118376Y0100000D01*
X0120855Y0100000D01*
X0118376Y0100000D01*
X0118376Y0099756D01*
X0118471Y0099277D01*
X0118658Y0098825D01*
X0118930Y0098419D01*
X0119275Y0098074D01*
X0119681Y0097803D01*
X0120132Y0097616D01*
X0120611Y0097520D01*
X0120856Y0097520D01*
X0120856Y0099682D02*
X0120856Y0099682D01*
X0120855Y0100000D02*
X0120855Y0100000D01*
X0120856Y0100881D02*
X0120856Y0100881D01*
X0120856Y0102079D02*
X0120856Y0102079D01*
X0122207Y0102079D02*
X0150252Y0102079D01*
X0149614Y0103278D02*
X0107352Y0103278D01*
X0108210Y0102079D02*
X0114411Y0102079D01*
X0114444Y0102113D02*
X0113743Y0101412D01*
X0113364Y0100496D01*
X0113364Y0099504D01*
X0113743Y0098588D01*
X0114444Y0097887D01*
X0115360Y0097508D01*
X0116351Y0097508D01*
X0117267Y0097887D01*
X0117968Y0098588D01*
X0118348Y0099504D01*
X0118348Y0100496D01*
X0117968Y0101412D01*
X0117267Y0102113D01*
X0116351Y0102492D01*
X0115360Y0102492D01*
X0114444Y0102113D01*
X0113523Y0100881D02*
X0108348Y0100881D01*
X0108349Y0099682D02*
X0113364Y0099682D01*
X0113847Y0098484D02*
X0109396Y0098484D01*
X0104816Y0098484D02*
X0038132Y0098484D01*
X0038053Y0098674D02*
X0037782Y0099081D01*
X0037436Y0099426D01*
X0037030Y0099697D01*
X0036579Y0099884D01*
X0036100Y0099980D01*
X0035856Y0099980D01*
X0035856Y0097500D01*
X0038335Y0097500D01*
X0038335Y0097744D01*
X0038240Y0098223D01*
X0038053Y0098674D01*
X0038335Y0097500D02*
X0035856Y0097500D01*
X0035856Y0097500D01*
X0035856Y0097500D01*
X0035856Y0095020D01*
X0036100Y0095020D01*
X0036579Y0095116D01*
X0037030Y0095303D01*
X0037436Y0095574D01*
X0037782Y0095919D01*
X0038053Y0096325D01*
X0038240Y0096777D01*
X0038335Y0097256D01*
X0038335Y0097500D01*
X0038335Y0097285D02*
X0104614Y0097285D01*
X0104994Y0096087D02*
X0079226Y0096087D01*
X0077485Y0096087D02*
X0037893Y0096087D01*
X0035856Y0096087D02*
X0035856Y0096087D01*
X0035856Y0095020D02*
X0035856Y0097500D01*
X0035856Y0097500D01*
X0035856Y0099980D01*
X0035611Y0099980D01*
X0035132Y0099884D01*
X0034681Y0099697D01*
X0034275Y0099426D01*
X0033930Y0099081D01*
X0033658Y0098674D01*
X0033471Y0098223D01*
X0033376Y0097744D01*
X0033376Y0097500D01*
X0035855Y0097500D01*
X0033376Y0097500D01*
X0033376Y0097256D01*
X0033471Y0096777D01*
X0033658Y0096325D01*
X0033930Y0095919D01*
X0034275Y0095574D01*
X0034681Y0095303D01*
X0035132Y0095116D01*
X0035611Y0095020D01*
X0035856Y0095020D01*
X0035856Y0097285D02*
X0035856Y0097285D01*
X0035855Y0097500D02*
X0035855Y0097500D01*
X0035856Y0098484D02*
X0035856Y0098484D01*
X0035856Y0099682D02*
X0035856Y0099682D01*
X0037052Y0099682D02*
X0040171Y0099682D01*
X0040180Y0099669D02*
X0040525Y0099324D01*
X0040931Y0099053D01*
X0041382Y0098866D01*
X0041861Y0098770D01*
X0042106Y0098770D01*
X0042350Y0098770D01*
X0042829Y0098866D01*
X0043280Y0099053D01*
X0043686Y0099324D01*
X0044032Y0099669D01*
X0044303Y0100075D01*
X0044490Y0100527D01*
X0044585Y0101006D01*
X0044585Y0101250D01*
X0044585Y0101494D01*
X0044490Y0101973D01*
X0044303Y0102424D01*
X0044032Y0102831D01*
X0043686Y0103176D01*
X0043280Y0103447D01*
X0042829Y0103634D01*
X0042350Y0103730D01*
X0042106Y0103730D01*
X0042106Y0101250D01*
X0044585Y0101250D01*
X0042106Y0101250D01*
X0042106Y0101250D01*
X0042106Y0101250D01*
X0042106Y0098770D01*
X0042106Y0101250D01*
X0042106Y0101250D01*
X0042106Y0103730D01*
X0041861Y0103730D01*
X0041382Y0103634D01*
X0040931Y0103447D01*
X0040525Y0103176D01*
X0040180Y0102831D01*
X0039908Y0102424D01*
X0039721Y0101973D01*
X0039626Y0101494D01*
X0039626Y0101250D01*
X0042105Y0101250D01*
X0039626Y0101250D01*
X0039626Y0101006D01*
X0039721Y0100527D01*
X0039908Y0100075D01*
X0040180Y0099669D01*
X0039651Y0100881D02*
X0030137Y0100881D01*
X0030137Y0102079D02*
X0039765Y0102079D01*
X0040678Y0103278D02*
X0030137Y0103278D01*
X0030137Y0104476D02*
X0058473Y0104476D01*
X0058471Y0104473D02*
X0058376Y0103994D01*
X0058376Y0103750D01*
X0060855Y0103750D01*
X0058376Y0103750D01*
X0058376Y0103506D01*
X0058471Y0103027D01*
X0058658Y0102575D01*
X0058930Y0102169D01*
X0059275Y0101824D01*
X0059681Y0101553D01*
X0060132Y0101366D01*
X0060611Y0101270D01*
X0060856Y0101270D01*
X0061100Y0101270D01*
X0061579Y0101366D01*
X0062030Y0101553D01*
X0062436Y0101824D01*
X0062782Y0102169D01*
X0063053Y0102575D01*
X0063240Y0103027D01*
X0063335Y0103506D01*
X0063335Y0103750D01*
X0063335Y0103994D01*
X0063240Y0104473D01*
X0063053Y0104924D01*
X0062782Y0105331D01*
X0062436Y0105676D01*
X0062030Y0105947D01*
X0061579Y0106134D01*
X0061100Y0106230D01*
X0060856Y0106230D01*
X0060856Y0103750D01*
X0063335Y0103750D01*
X0060856Y0103750D01*
X0060856Y0103750D01*
X0060856Y0103750D01*
X0060856Y0101270D01*
X0060856Y0103750D01*
X0060856Y0103750D01*
X0060856Y0106230D01*
X0060611Y0106230D01*
X0060132Y0106134D01*
X0059681Y0105947D01*
X0059275Y0105676D01*
X0058930Y0105331D01*
X0058658Y0104924D01*
X0058471Y0104473D01*
X0058421Y0103278D02*
X0043534Y0103278D01*
X0042106Y0103278D02*
X0042106Y0103278D01*
X0042106Y0102079D02*
X0042106Y0102079D01*
X0042105Y0101250D02*
X0042105Y0101250D01*
X0042106Y0100881D02*
X0042106Y0100881D01*
X0042106Y0099682D02*
X0042106Y0099682D01*
X0044040Y0099682D02*
X0103899Y0099682D01*
X0103364Y0100881D02*
X0044560Y0100881D01*
X0044446Y0102079D02*
X0059020Y0102079D01*
X0060856Y0102079D02*
X0060856Y0102079D01*
X0060856Y0103278D02*
X0060856Y0103278D01*
X0060855Y0103750D02*
X0060855Y0103750D01*
X0060856Y0104476D02*
X0060856Y0104476D01*
X0060856Y0105675D02*
X0060856Y0105675D01*
X0062437Y0105675D02*
X0094174Y0105675D01*
X0094275Y0105574D02*
X0093930Y0105919D01*
X0093658Y0106325D01*
X0093471Y0106777D01*
X0093376Y0107256D01*
X0093376Y0107500D01*
X0095855Y0107500D01*
X0093376Y0107500D01*
X0093376Y0107744D01*
X0093471Y0108223D01*
X0093658Y0108674D01*
X0093930Y0109081D01*
X0094275Y0109426D01*
X0094681Y0109697D01*
X0095132Y0109884D01*
X0095611Y0109980D01*
X0095856Y0109980D01*
X0096100Y0109980D01*
X0096579Y0109884D01*
X0097030Y0109697D01*
X0097436Y0109426D01*
X0097782Y0109081D01*
X0098053Y0108674D01*
X0098240Y0108223D01*
X0098335Y0107744D01*
X0098335Y0107500D01*
X0095856Y0107500D01*
X0095856Y0107500D01*
X0098335Y0107500D01*
X0098335Y0107256D01*
X0098240Y0106777D01*
X0098053Y0106325D01*
X0097782Y0105919D01*
X0097436Y0105574D01*
X0097030Y0105303D01*
X0096579Y0105116D01*
X0096100Y0105020D01*
X0095856Y0105020D01*
X0095856Y0107500D01*
X0095856Y0107500D01*
X0095856Y0109980D01*
X0095856Y0107500D01*
X0095856Y0107500D01*
X0095856Y0105020D01*
X0095611Y0105020D01*
X0095132Y0105116D01*
X0094681Y0105303D01*
X0094275Y0105574D01*
X0093452Y0106873D02*
X0030137Y0106873D01*
X0030137Y0105675D02*
X0059274Y0105675D01*
X0063239Y0104476D02*
X0144793Y0104476D01*
X0145219Y0104300D02*
X0146492Y0104300D01*
X0147668Y0104787D01*
X0148568Y0105687D01*
X0149056Y0106863D01*
X0149056Y0108137D01*
X0148568Y0109313D01*
X0147881Y0110000D01*
X0148568Y0110687D01*
X0149056Y0111863D01*
X0149056Y0113137D01*
X0148568Y0114313D01*
X0147668Y0115213D01*
X0146492Y0115700D01*
X0145219Y0115700D01*
X0144043Y0115213D01*
X0143143Y0114313D01*
X0142656Y0113137D01*
X0142656Y0111863D01*
X0143143Y0110687D01*
X0143830Y0110000D01*
X0143143Y0109313D01*
X0142656Y0108137D01*
X0142656Y0106863D01*
X0143143Y0105687D01*
X0144043Y0104787D01*
X0145219Y0104300D01*
X0146918Y0104476D02*
X0149709Y0104476D01*
X0150506Y0105675D02*
X0148556Y0105675D01*
X0149056Y0106873D02*
X0152684Y0106873D01*
X0152806Y0108072D02*
X0149056Y0108072D01*
X0148586Y0109270D02*
X0152806Y0109270D01*
X0152806Y0110469D02*
X0148350Y0110469D01*
X0148974Y0111668D02*
X0152806Y0111668D01*
X0153676Y0112866D02*
X0149056Y0112866D01*
X0148671Y0114065D02*
X0154875Y0114065D01*
X0156073Y0115263D02*
X0147547Y0115263D01*
X0144164Y0115263D02*
X0085717Y0115263D01*
X0086017Y0115387D02*
X0086718Y0116088D01*
X0087098Y0117004D01*
X0087098Y0117996D01*
X0086718Y0118912D01*
X0086017Y0119613D01*
X0085101Y0119992D01*
X0084110Y0119992D01*
X0083194Y0119613D01*
X0082493Y0118912D01*
X0082114Y0117996D01*
X0082114Y0117004D01*
X0082493Y0116088D01*
X0083194Y0115387D01*
X0084110Y0115008D01*
X0085101Y0115008D01*
X0086017Y0115387D01*
X0086873Y0116462D02*
X0157272Y0116462D01*
X0158470Y0117660D02*
X0087098Y0117660D01*
X0086740Y0118859D02*
X0161145Y0118859D01*
X0160876Y0120057D02*
X0076284Y0120057D01*
X0076100Y0120020D02*
X0076579Y0120116D01*
X0077030Y0120303D01*
X0077436Y0120574D01*
X0077782Y0120919D01*
X0078053Y0121325D01*
X0078240Y0121777D01*
X0078335Y0122256D01*
X0078335Y0122500D01*
X0078335Y0122744D01*
X0078240Y0123223D01*
X0078053Y0123674D01*
X0077782Y0124081D01*
X0077436Y0124426D01*
X0077030Y0124697D01*
X0076579Y0124884D01*
X0076100Y0124980D01*
X0075856Y0124980D01*
X0075856Y0122500D01*
X0078335Y0122500D01*
X0075856Y0122500D01*
X0075856Y0122500D01*
X0075856Y0122500D01*
X0075856Y0120020D01*
X0076100Y0120020D01*
X0075856Y0120020D02*
X0075856Y0122500D01*
X0075856Y0122500D01*
X0075856Y0124980D01*
X0075611Y0124980D01*
X0075132Y0124884D01*
X0074681Y0124697D01*
X0074275Y0124426D01*
X0073930Y0124081D01*
X0073658Y0123674D01*
X0073471Y0123223D01*
X0073376Y0122744D01*
X0073376Y0122500D01*
X0075855Y0122500D01*
X0073376Y0122500D01*
X0073376Y0122256D01*
X0073471Y0121777D01*
X0073658Y0121325D01*
X0073930Y0120919D01*
X0074275Y0120574D01*
X0074681Y0120303D01*
X0075132Y0120116D01*
X0075611Y0120020D01*
X0075856Y0120020D01*
X0075856Y0120057D02*
X0075856Y0120057D01*
X0075427Y0120057D02*
X0061284Y0120057D01*
X0061100Y0120020D02*
X0061579Y0120116D01*
X0062030Y0120303D01*
X0062436Y0120574D01*
X0062782Y0120919D01*
X0063053Y0121325D01*
X0063240Y0121777D01*
X0063335Y0122256D01*
X0063335Y0122500D01*
X0063335Y0122744D01*
X0063240Y0123223D01*
X0063053Y0123674D01*
X0062782Y0124081D01*
X0062436Y0124426D01*
X0062030Y0124697D01*
X0061579Y0124884D01*
X0061100Y0124980D01*
X0060856Y0124980D01*
X0060856Y0122500D01*
X0063335Y0122500D01*
X0060856Y0122500D01*
X0060856Y0122500D01*
X0060856Y0122500D01*
X0060856Y0120020D01*
X0061100Y0120020D01*
X0060856Y0120020D02*
X0060856Y0122500D01*
X0060856Y0122500D01*
X0060856Y0124980D01*
X0060611Y0124980D01*
X0060132Y0124884D01*
X0059681Y0124697D01*
X0059275Y0124426D01*
X0058930Y0124081D01*
X0058658Y0123674D01*
X0058471Y0123223D01*
X0058376Y0122744D01*
X0058376Y0122500D01*
X0060855Y0122500D01*
X0058376Y0122500D01*
X0058376Y0122256D01*
X0058471Y0121777D01*
X0058658Y0121325D01*
X0058930Y0120919D01*
X0059275Y0120574D01*
X0059681Y0120303D01*
X0060132Y0120116D01*
X0060611Y0120020D01*
X0060856Y0120020D01*
X0060856Y0120057D02*
X0060856Y0120057D01*
X0060427Y0120057D02*
X0030137Y0120057D01*
X0030137Y0118859D02*
X0082471Y0118859D01*
X0082114Y0117660D02*
X0030137Y0117660D01*
X0030137Y0116462D02*
X0082338Y0116462D01*
X0083494Y0115263D02*
X0030137Y0115263D01*
X0030137Y0114065D02*
X0143040Y0114065D01*
X0142656Y0112866D02*
X0030137Y0112866D01*
X0030137Y0111668D02*
X0123999Y0111668D01*
X0123743Y0111412D02*
X0123364Y0110496D01*
X0123364Y0109504D01*
X0123743Y0108588D01*
X0124444Y0107887D01*
X0125360Y0107508D01*
X0126351Y0107508D01*
X0127267Y0107887D01*
X0127968Y0108588D01*
X0128348Y0109504D01*
X0128348Y0110496D01*
X0127968Y0111412D01*
X0127267Y0112113D01*
X0126351Y0112492D01*
X0125360Y0112492D01*
X0124444Y0112113D01*
X0123743Y0111412D01*
X0123364Y0110469D02*
X0030137Y0110469D01*
X0030137Y0109270D02*
X0094120Y0109270D01*
X0093441Y0108072D02*
X0030137Y0108072D01*
X0030137Y0099682D02*
X0034659Y0099682D01*
X0033579Y0098484D02*
X0030137Y0098484D01*
X0030137Y0097285D02*
X0033376Y0097285D01*
X0033818Y0096087D02*
X0030137Y0096087D01*
X0030137Y0094888D02*
X0076130Y0094888D01*
X0075864Y0093690D02*
X0030137Y0093690D01*
X0030137Y0092491D02*
X0076180Y0092491D01*
X0077776Y0091293D02*
X0030137Y0091293D01*
X0038356Y0079308D02*
X0038356Y0079308D01*
X0038356Y0078109D02*
X0038356Y0078109D01*
X0038355Y0077500D02*
X0038355Y0077500D01*
X0038356Y0076911D02*
X0038356Y0076911D01*
X0038356Y0075712D02*
X0038356Y0075712D01*
X0040074Y0075712D02*
X0089137Y0075712D01*
X0089275Y0075574D02*
X0089681Y0075303D01*
X0090132Y0075116D01*
X0090611Y0075020D01*
X0090856Y0075020D01*
X0090856Y0077500D01*
X0090856Y0077500D01*
X0090856Y0079980D01*
X0090611Y0079980D01*
X0090132Y0079884D01*
X0089681Y0079697D01*
X0089275Y0079426D01*
X0088930Y0079081D01*
X0088658Y0078674D01*
X0088471Y0078223D01*
X0088376Y0077744D01*
X0088376Y0077500D01*
X0090855Y0077500D01*
X0088376Y0077500D01*
X0088376Y0077256D01*
X0088471Y0076777D01*
X0088658Y0076325D01*
X0088930Y0075919D01*
X0089275Y0075574D01*
X0088445Y0076911D02*
X0040766Y0076911D01*
X0040763Y0078109D02*
X0081740Y0078109D01*
X0080965Y0079308D02*
X0040054Y0079308D01*
X0066379Y0068521D02*
X0078595Y0068521D01*
X0078658Y0068674D02*
X0078471Y0068223D01*
X0078376Y0067744D01*
X0078376Y0067500D01*
X0080855Y0067500D01*
X0078376Y0067500D01*
X0078376Y0067256D01*
X0078471Y0066777D01*
X0078658Y0066325D01*
X0078930Y0065919D01*
X0079275Y0065574D01*
X0079681Y0065303D01*
X0080132Y0065116D01*
X0080611Y0065020D01*
X0080856Y0065020D01*
X0081100Y0065020D01*
X0081579Y0065116D01*
X0082030Y0065303D01*
X0082436Y0065574D01*
X0082782Y0065919D01*
X0083053Y0066325D01*
X0083240Y0066777D01*
X0083335Y0067256D01*
X0083335Y0067500D01*
X0083335Y0067744D01*
X0083240Y0068223D01*
X0083053Y0068674D01*
X0082782Y0069081D01*
X0082436Y0069426D01*
X0082030Y0069697D01*
X0081579Y0069884D01*
X0081100Y0069980D01*
X0080856Y0069980D01*
X0080856Y0067500D01*
X0083335Y0067500D01*
X0080856Y0067500D01*
X0080856Y0067500D01*
X0080856Y0067500D01*
X0080856Y0065020D01*
X0080856Y0067500D01*
X0080856Y0067500D01*
X0080856Y0069980D01*
X0080611Y0069980D01*
X0080132Y0069884D01*
X0079681Y0069697D01*
X0079275Y0069426D01*
X0078930Y0069081D01*
X0078658Y0068674D01*
X0078376Y0067323D02*
X0066809Y0067323D01*
X0067604Y0066124D02*
X0078793Y0066124D01*
X0080856Y0066124D02*
X0080856Y0066124D01*
X0080856Y0067323D02*
X0080856Y0067323D01*
X0080855Y0067500D02*
X0080855Y0067500D01*
X0080856Y0068521D02*
X0080856Y0068521D01*
X0080856Y0069720D02*
X0080856Y0069720D01*
X0081976Y0069720D02*
X0180864Y0069720D01*
X0181310Y0068521D02*
X0083116Y0068521D01*
X0083335Y0067323D02*
X0188364Y0067323D01*
X0188364Y0067004D02*
X0188743Y0066088D01*
X0189444Y0065387D01*
X0190360Y0065008D01*
X0191351Y0065008D01*
X0192267Y0065387D01*
X0192968Y0066088D01*
X0193348Y0067004D01*
X0193348Y0067996D01*
X0192968Y0068912D01*
X0192267Y0069613D01*
X0191351Y0069992D01*
X0190360Y0069992D01*
X0189444Y0069613D01*
X0188743Y0068912D01*
X0188364Y0067996D01*
X0188364Y0067004D01*
X0188728Y0066124D02*
X0179506Y0066124D01*
X0175985Y0066124D02*
X0082918Y0066124D01*
X0079735Y0069720D02*
X0067435Y0069720D01*
X0055468Y0057662D02*
X0054767Y0058363D01*
X0053851Y0058742D01*
X0052860Y0058742D01*
X0051944Y0058363D01*
X0051243Y0057662D01*
X0050864Y0056746D01*
X0050864Y0055754D01*
X0051243Y0054838D01*
X0051944Y0054137D01*
X0052860Y0053758D01*
X0053851Y0053758D01*
X0054767Y0054137D01*
X0055468Y0054838D01*
X0055848Y0055754D01*
X0055848Y0056746D01*
X0055468Y0057662D01*
X0055396Y0057734D02*
X0163364Y0057734D01*
X0163557Y0056536D02*
X0055848Y0056536D01*
X0055675Y0055337D02*
X0164564Y0055337D01*
X0167147Y0055337D02*
X0233364Y0055337D01*
X0233364Y0055496D02*
X0233364Y0054504D01*
X0233743Y0053588D01*
X0234444Y0052887D01*
X0235360Y0052508D01*
X0236351Y0052508D01*
X0237267Y0052887D01*
X0237968Y0053588D01*
X0238348Y0054504D01*
X0238348Y0055496D01*
X0237968Y0056412D01*
X0237267Y0057113D01*
X0236351Y0057492D01*
X0235360Y0057492D01*
X0234444Y0057113D01*
X0233743Y0056412D01*
X0233364Y0055496D01*
X0233867Y0056536D02*
X0168154Y0056536D01*
X0163764Y0058933D02*
X0105491Y0058933D01*
X0104606Y0058933D02*
X0104606Y0058933D01*
X0103720Y0058933D02*
X0030137Y0058933D01*
X0030137Y0057734D02*
X0051316Y0057734D01*
X0050864Y0056536D02*
X0030137Y0056536D01*
X0030137Y0055337D02*
X0046419Y0055337D01*
X0046243Y0055162D02*
X0045864Y0054246D01*
X0045864Y0053254D01*
X0046243Y0052338D01*
X0046944Y0051637D01*
X0047860Y0051258D01*
X0048851Y0051258D01*
X0049767Y0051637D01*
X0050468Y0052338D01*
X0050848Y0053254D01*
X0050848Y0054246D01*
X0050468Y0055162D01*
X0049767Y0055863D01*
X0048851Y0056242D01*
X0047860Y0056242D01*
X0046944Y0055863D01*
X0046243Y0055162D01*
X0045864Y0054139D02*
X0030137Y0054139D01*
X0030137Y0052940D02*
X0045993Y0052940D01*
X0046839Y0051742D02*
X0030137Y0051742D01*
X0030137Y0050543D02*
X0093383Y0050543D01*
X0093364Y0050496D02*
X0093364Y0049504D01*
X0093743Y0048588D01*
X0094444Y0047887D01*
X0095360Y0047508D01*
X0096351Y0047508D01*
X0097267Y0047887D01*
X0097968Y0048588D01*
X0098348Y0049504D01*
X0098348Y0050496D01*
X0097968Y0051412D01*
X0097267Y0052113D01*
X0096351Y0052492D01*
X0095360Y0052492D01*
X0094444Y0052113D01*
X0093743Y0051412D01*
X0093364Y0050496D01*
X0093430Y0049345D02*
X0074084Y0049345D01*
X0072628Y0049345D02*
X0064084Y0049345D01*
X0062628Y0049345D02*
X0059084Y0049345D01*
X0057628Y0049345D02*
X0054084Y0049345D01*
X0052628Y0049345D02*
X0049084Y0049345D01*
X0047628Y0049345D02*
X0044084Y0049345D01*
X0042628Y0049345D02*
X0039084Y0049345D01*
X0037628Y0049345D02*
X0030137Y0049345D01*
X0030137Y0048146D02*
X0035672Y0048146D01*
X0034977Y0046948D02*
X0030137Y0046948D01*
X0030137Y0045749D02*
X0034790Y0045749D01*
X0034790Y0044551D02*
X0030137Y0044551D01*
X0030137Y0043352D02*
X0034853Y0043352D01*
X0034956Y0042154D02*
X0030137Y0042154D01*
X0030137Y0040955D02*
X0034956Y0040955D01*
X0034956Y0039757D02*
X0030137Y0039757D01*
X0030137Y0038558D02*
X0034956Y0038558D01*
X0034956Y0037360D02*
X0030137Y0037360D01*
X0030137Y0036161D02*
X0034956Y0036161D01*
X0034956Y0034963D02*
X0030137Y0034963D01*
X0030137Y0033764D02*
X0035187Y0033764D01*
X0035982Y0032566D02*
X0030137Y0032566D01*
X0030137Y0031367D02*
X0037180Y0031367D01*
X0038379Y0030169D02*
X0030137Y0030169D01*
X0030137Y0028970D02*
X0039577Y0028970D01*
X0040776Y0027772D02*
X0030137Y0027772D01*
X0030137Y0026573D02*
X0091974Y0026573D01*
X0093173Y0025375D02*
X0030137Y0025375D01*
X0030137Y0024176D02*
X0094371Y0024176D01*
X0091387Y0014588D02*
X0133956Y0014588D01*
X0133956Y0013390D02*
X0091381Y0013390D01*
X0090885Y0012191D02*
X0133956Y0012191D01*
X0134010Y0010993D02*
X0090388Y0010993D01*
X0109488Y0027772D02*
X0114614Y0027772D01*
X0115051Y0028970D02*
X0110627Y0028970D01*
X0113335Y0033764D02*
X0114094Y0033764D01*
X0115117Y0033764D02*
X0251199Y0033764D01*
X0250876Y0034963D02*
X0116770Y0034963D01*
X0117098Y0036161D02*
X0251153Y0036161D01*
X0252573Y0037360D02*
X0116843Y0037360D01*
X0115545Y0038558D02*
X0188773Y0038558D01*
X0188743Y0038588D02*
X0189444Y0037887D01*
X0190360Y0037508D01*
X0191351Y0037508D01*
X0192267Y0037887D01*
X0192968Y0038588D01*
X0193348Y0039504D01*
X0193348Y0040496D01*
X0192968Y0041412D01*
X0192267Y0042113D01*
X0191351Y0042492D01*
X0190360Y0042492D01*
X0189444Y0042113D01*
X0188743Y0041412D01*
X0188364Y0040496D01*
X0188364Y0039504D01*
X0188743Y0038588D01*
X0188364Y0039757D02*
X0103348Y0039757D01*
X0103348Y0039504D02*
X0102968Y0038588D01*
X0102267Y0037887D01*
X0101351Y0037508D01*
X0100360Y0037508D01*
X0099444Y0037887D01*
X0098743Y0038588D01*
X0098364Y0039504D01*
X0098364Y0040496D01*
X0098743Y0041412D01*
X0099444Y0042113D01*
X0100360Y0042492D01*
X0101351Y0042492D01*
X0102267Y0042113D01*
X0102968Y0041412D01*
X0103348Y0040496D01*
X0103348Y0039504D01*
X0102938Y0038558D02*
X0113666Y0038558D01*
X0111351Y0045008D02*
X0112267Y0045387D01*
X0112968Y0046088D01*
X0113348Y0047004D01*
X0113348Y0047996D01*
X0112968Y0048912D01*
X0112267Y0049613D01*
X0111351Y0049992D01*
X0110360Y0049992D01*
X0109444Y0049613D01*
X0108743Y0048912D01*
X0108364Y0047996D01*
X0108364Y0047004D01*
X0108743Y0046088D01*
X0109444Y0045387D01*
X0110360Y0045008D01*
X0111351Y0045008D01*
X0112629Y0045749D02*
X0173482Y0045749D01*
X0173471Y0045723D02*
X0173376Y0045244D01*
X0173376Y0045000D01*
X0175855Y0045000D01*
X0173376Y0045000D01*
X0173376Y0044756D01*
X0173471Y0044277D01*
X0173658Y0043825D01*
X0173930Y0043419D01*
X0174275Y0043074D01*
X0174681Y0042803D01*
X0175132Y0042616D01*
X0175611Y0042520D01*
X0175856Y0042520D01*
X0176100Y0042520D01*
X0176579Y0042616D01*
X0177030Y0042803D01*
X0177436Y0043074D01*
X0177782Y0043419D01*
X0178053Y0043825D01*
X0178240Y0044277D01*
X0178335Y0044756D01*
X0178335Y0045000D01*
X0178335Y0045244D01*
X0178240Y0045723D01*
X0178053Y0046174D01*
X0177782Y0046581D01*
X0177436Y0046926D01*
X0177030Y0047197D01*
X0176579Y0047384D01*
X0176100Y0047480D01*
X0175856Y0047480D01*
X0175856Y0045000D01*
X0178335Y0045000D01*
X0175856Y0045000D01*
X0175856Y0045000D01*
X0175856Y0045000D01*
X0175856Y0042520D01*
X0175856Y0045000D01*
X0175856Y0045000D01*
X0175856Y0047480D01*
X0175611Y0047480D01*
X0175132Y0047384D01*
X0174681Y0047197D01*
X0174275Y0046926D01*
X0173930Y0046581D01*
X0173658Y0046174D01*
X0173471Y0045723D01*
X0173417Y0044551D02*
X0076921Y0044551D01*
X0076921Y0045749D02*
X0109082Y0045749D01*
X0108387Y0046948D02*
X0076734Y0046948D01*
X0076039Y0048146D02*
X0094185Y0048146D01*
X0097526Y0048146D02*
X0108426Y0048146D01*
X0109176Y0049345D02*
X0098282Y0049345D01*
X0098328Y0050543D02*
X0120156Y0050543D01*
X0120156Y0050637D02*
X0120156Y0049363D01*
X0120643Y0048187D01*
X0121543Y0047287D01*
X0122719Y0046800D01*
X0123992Y0046800D01*
X0125168Y0047287D01*
X0126068Y0048187D01*
X0126556Y0049363D01*
X0126556Y0050637D01*
X0126068Y0051813D01*
X0125168Y0052713D01*
X0123992Y0053200D01*
X0122719Y0053200D01*
X0121543Y0052713D01*
X0120643Y0051813D01*
X0120156Y0050637D01*
X0120614Y0051742D02*
X0097638Y0051742D01*
X0094073Y0051742D02*
X0049872Y0051742D01*
X0050718Y0052940D02*
X0122093Y0052940D01*
X0124619Y0052940D02*
X0208364Y0052940D01*
X0208364Y0052996D02*
X0208364Y0052004D01*
X0208743Y0051088D01*
X0209444Y0050387D01*
X0210360Y0050008D01*
X0211351Y0050008D01*
X0212267Y0050387D01*
X0212968Y0051088D01*
X0213348Y0052004D01*
X0213348Y0052996D01*
X0212968Y0053912D01*
X0212267Y0054613D01*
X0211351Y0054992D01*
X0210360Y0054992D01*
X0209444Y0054613D01*
X0208743Y0053912D01*
X0208364Y0052996D01*
X0208472Y0051742D02*
X0177620Y0051742D01*
X0177782Y0051581D02*
X0177436Y0051926D01*
X0177030Y0052197D01*
X0176579Y0052384D01*
X0176100Y0052480D01*
X0175856Y0052480D01*
X0175856Y0050000D01*
X0178335Y0050000D01*
X0178335Y0050244D01*
X0178240Y0050723D01*
X0178053Y0051174D01*
X0177782Y0051581D01*
X0178276Y0050543D02*
X0209288Y0050543D01*
X0212423Y0050543D02*
X0281788Y0050543D01*
X0280972Y0051742D02*
X0213239Y0051742D01*
X0213348Y0052940D02*
X0234391Y0052940D01*
X0233515Y0054139D02*
X0212741Y0054139D01*
X0211898Y0057734D02*
X0239813Y0057734D01*
X0239444Y0057887D02*
X0240360Y0057508D01*
X0241351Y0057508D01*
X0242267Y0057887D01*
X0242968Y0058588D01*
X0243348Y0059504D01*
X0243348Y0060496D01*
X0242968Y0061412D01*
X0242267Y0062113D01*
X0241351Y0062492D01*
X0240360Y0062492D01*
X0239444Y0062113D01*
X0238743Y0061412D01*
X0238364Y0060496D01*
X0238364Y0059504D01*
X0238743Y0058588D01*
X0239444Y0057887D01*
X0238600Y0058933D02*
X0213111Y0058933D01*
X0213348Y0060132D02*
X0222561Y0060132D01*
X0224150Y0060132D02*
X0238364Y0060132D01*
X0238709Y0061330D02*
X0225568Y0061330D01*
X0221143Y0061330D02*
X0213002Y0061330D01*
X0216944Y0066637D02*
X0217860Y0066258D01*
X0218851Y0066258D01*
X0219767Y0066637D01*
X0220468Y0067338D01*
X0220848Y0068254D01*
X0220848Y0069246D01*
X0220468Y0070162D01*
X0219767Y0070863D01*
X0218851Y0071242D01*
X0218348Y0071242D01*
X0218348Y0071746D01*
X0217968Y0072662D01*
X0217267Y0073363D01*
X0216351Y0073742D01*
X0215360Y0073742D01*
X0214444Y0073363D01*
X0213743Y0072662D01*
X0213364Y0071746D01*
X0213364Y0070754D01*
X0213743Y0069838D01*
X0214444Y0069137D01*
X0215360Y0068758D01*
X0215864Y0068758D01*
X0215864Y0068254D01*
X0216243Y0067338D01*
X0216944Y0066637D01*
X0216259Y0067323D02*
X0193348Y0067323D01*
X0193130Y0068521D02*
X0215864Y0068521D01*
X0213862Y0069720D02*
X0192009Y0069720D01*
X0189702Y0069720D02*
X0185848Y0069720D01*
X0185673Y0070918D02*
X0208913Y0070918D01*
X0208743Y0071088D02*
X0209444Y0070387D01*
X0210360Y0070008D01*
X0211351Y0070008D01*
X0212267Y0070387D01*
X0212968Y0071088D01*
X0213348Y0072004D01*
X0213348Y0072996D01*
X0212968Y0073912D01*
X0212267Y0074613D01*
X0211351Y0074992D01*
X0210360Y0074992D01*
X0209444Y0074613D01*
X0208743Y0073912D01*
X0208364Y0072996D01*
X0208364Y0072004D01*
X0208743Y0071088D01*
X0208364Y0072117D02*
X0184758Y0072117D01*
X0184016Y0073315D02*
X0183215Y0073315D01*
X0183364Y0074514D02*
X0182915Y0074514D01*
X0187695Y0073315D02*
X0194995Y0073315D01*
X0193796Y0074514D02*
X0188348Y0074514D01*
X0188581Y0068521D02*
X0185401Y0068521D01*
X0178913Y0070918D02*
X0176819Y0070918D01*
X0178018Y0072117D02*
X0178364Y0072117D01*
X0183023Y0062529D02*
X0184938Y0062529D01*
X0184614Y0061330D02*
X0183348Y0061330D01*
X0183090Y0060132D02*
X0184871Y0060132D01*
X0186187Y0058933D02*
X0181774Y0058933D01*
X0175856Y0052480D02*
X0175611Y0052480D01*
X0175132Y0052384D01*
X0174681Y0052197D01*
X0174275Y0051926D01*
X0173930Y0051581D01*
X0173658Y0051174D01*
X0173471Y0050723D01*
X0173376Y0050244D01*
X0173376Y0050000D01*
X0175855Y0050000D01*
X0173376Y0050000D01*
X0173376Y0049756D01*
X0173471Y0049277D01*
X0173658Y0048825D01*
X0173930Y0048419D01*
X0174275Y0048074D01*
X0174681Y0047803D01*
X0175132Y0047616D01*
X0175611Y0047520D01*
X0175856Y0047520D01*
X0176100Y0047520D01*
X0176579Y0047616D01*
X0177030Y0047803D01*
X0177436Y0048074D01*
X0177782Y0048419D01*
X0178053Y0048825D01*
X0178240Y0049277D01*
X0178335Y0049756D01*
X0178335Y0050000D01*
X0175856Y0050000D01*
X0175856Y0050000D01*
X0175856Y0050000D01*
X0175856Y0047520D01*
X0175856Y0050000D01*
X0175856Y0050000D01*
X0175856Y0052480D01*
X0175856Y0051742D02*
X0175856Y0051742D01*
X0175856Y0050543D02*
X0175856Y0050543D01*
X0175855Y0050000D02*
X0175855Y0050000D01*
X0175856Y0049345D02*
X0175856Y0049345D01*
X0175856Y0048146D02*
X0175856Y0048146D01*
X0175856Y0046948D02*
X0175856Y0046948D01*
X0175856Y0045749D02*
X0175856Y0045749D01*
X0175855Y0045000D02*
X0175855Y0045000D01*
X0175856Y0044551D02*
X0175856Y0044551D01*
X0175856Y0043352D02*
X0175856Y0043352D01*
X0177715Y0043352D02*
X0191479Y0043352D01*
X0191243Y0043588D02*
X0191944Y0042887D01*
X0192860Y0042508D01*
X0193851Y0042508D01*
X0194767Y0042887D01*
X0195468Y0043588D01*
X0195848Y0044504D01*
X0195848Y0045496D01*
X0195468Y0046412D01*
X0194767Y0047113D01*
X0193851Y0047492D01*
X0192860Y0047492D01*
X0191944Y0047113D01*
X0191243Y0046412D01*
X0190864Y0045496D01*
X0190864Y0044504D01*
X0191243Y0043588D01*
X0190864Y0044551D02*
X0178294Y0044551D01*
X0178229Y0045749D02*
X0190969Y0045749D01*
X0191779Y0046948D02*
X0177403Y0046948D01*
X0177509Y0048146D02*
X0195926Y0048146D01*
X0195864Y0047996D02*
X0195864Y0047004D01*
X0196243Y0046088D01*
X0196944Y0045387D01*
X0197860Y0045008D01*
X0198851Y0045008D01*
X0199767Y0045387D01*
X0200468Y0046088D01*
X0200848Y0047004D01*
X0200848Y0047996D01*
X0200468Y0048912D01*
X0199767Y0049613D01*
X0198851Y0049992D01*
X0197860Y0049992D01*
X0196944Y0049613D01*
X0196243Y0048912D01*
X0195864Y0047996D01*
X0195887Y0046948D02*
X0194932Y0046948D01*
X0195743Y0045749D02*
X0196582Y0045749D01*
X0195848Y0044551D02*
X0230864Y0044551D01*
X0230864Y0044504D02*
X0231243Y0043588D01*
X0231944Y0042887D01*
X0232860Y0042508D01*
X0233364Y0042508D01*
X0233364Y0042004D01*
X0233743Y0041088D01*
X0234444Y0040387D01*
X0235360Y0040008D01*
X0235864Y0040008D01*
X0235864Y0039504D01*
X0236243Y0038588D01*
X0236944Y0037887D01*
X0237860Y0037508D01*
X0238851Y0037508D01*
X0239767Y0037887D01*
X0240468Y0038588D01*
X0240848Y0039504D01*
X0240848Y0040496D01*
X0240468Y0041412D01*
X0239767Y0042113D01*
X0238851Y0042492D01*
X0238348Y0042492D01*
X0238348Y0042996D01*
X0237968Y0043912D01*
X0237267Y0044613D01*
X0236351Y0044992D01*
X0235848Y0044992D01*
X0235848Y0045496D01*
X0235468Y0046412D01*
X0234767Y0047113D01*
X0233851Y0047492D01*
X0232860Y0047492D01*
X0231944Y0047113D01*
X0231243Y0046412D01*
X0230864Y0045496D01*
X0230864Y0044504D01*
X0230969Y0045749D02*
X0200129Y0045749D01*
X0200824Y0046948D02*
X0231779Y0046948D01*
X0234932Y0046948D02*
X0271779Y0046948D01*
X0270969Y0045749D02*
X0235743Y0045749D01*
X0237329Y0044551D02*
X0269382Y0044551D01*
X0268511Y0043352D02*
X0238200Y0043352D01*
X0239668Y0042154D02*
X0267043Y0042154D01*
X0266054Y0040955D02*
X0240657Y0040955D01*
X0240848Y0039757D02*
X0265864Y0039757D01*
X0266273Y0038558D02*
X0240438Y0038558D01*
X0236273Y0038558D02*
X0192938Y0038558D01*
X0193348Y0039757D02*
X0235864Y0039757D01*
X0233876Y0040955D02*
X0193157Y0040955D01*
X0192168Y0042154D02*
X0233364Y0042154D01*
X0231479Y0043352D02*
X0195232Y0043352D01*
X0189543Y0042154D02*
X0102168Y0042154D01*
X0103157Y0040955D02*
X0188554Y0040955D01*
X0200785Y0048146D02*
X0273426Y0048146D01*
X0274176Y0049345D02*
X0200035Y0049345D01*
X0196676Y0049345D02*
X0178253Y0049345D01*
X0174203Y0048146D02*
X0167526Y0048146D01*
X0167267Y0047887D02*
X0167968Y0048588D01*
X0168348Y0049504D01*
X0168348Y0050496D01*
X0167968Y0051412D01*
X0167267Y0052113D01*
X0166351Y0052492D01*
X0165360Y0052492D01*
X0164444Y0052113D01*
X0163743Y0051412D01*
X0163364Y0050496D01*
X0163364Y0049504D01*
X0163743Y0048588D01*
X0164444Y0047887D01*
X0165360Y0047508D01*
X0166351Y0047508D01*
X0167267Y0047887D01*
X0168282Y0049345D02*
X0173458Y0049345D01*
X0173436Y0050543D02*
X0168328Y0050543D01*
X0167638Y0051742D02*
X0174091Y0051742D01*
X0174308Y0046948D02*
X0124349Y0046948D01*
X0122362Y0046948D02*
X0113324Y0046948D01*
X0113285Y0048146D02*
X0120684Y0048146D01*
X0120163Y0049345D02*
X0112535Y0049345D01*
X0126028Y0048146D02*
X0164185Y0048146D01*
X0163430Y0049345D02*
X0126548Y0049345D01*
X0126556Y0050543D02*
X0163383Y0050543D01*
X0164073Y0051742D02*
X0126098Y0051742D01*
X0104606Y0060132D02*
X0104606Y0060132D01*
X0104605Y0061250D02*
X0104605Y0061250D01*
X0104606Y0061330D02*
X0104606Y0061330D01*
X0104349Y0063727D02*
X0098045Y0063727D01*
X0098348Y0062529D02*
X0102478Y0062529D01*
X0102126Y0061330D02*
X0098068Y0061330D01*
X0096650Y0060132D02*
X0102385Y0060132D01*
X0095061Y0060132D02*
X0030137Y0060132D01*
X0030137Y0061330D02*
X0093643Y0061330D01*
X0090856Y0075712D02*
X0090856Y0075712D01*
X0090856Y0076911D02*
X0090856Y0076911D01*
X0090855Y0077500D02*
X0090855Y0077500D01*
X0090856Y0078109D02*
X0090856Y0078109D01*
X0090856Y0079308D02*
X0090856Y0079308D01*
X0092554Y0079308D02*
X0099715Y0079308D01*
X0099721Y0079277D02*
X0099908Y0078825D01*
X0100180Y0078419D01*
X0100525Y0078074D01*
X0100931Y0077803D01*
X0101382Y0077616D01*
X0101861Y0077520D01*
X0102106Y0077520D01*
X0102106Y0080000D01*
X0102106Y0080000D01*
X0102106Y0082480D01*
X0101861Y0082480D01*
X0101382Y0082384D01*
X0100931Y0082197D01*
X0100525Y0081926D01*
X0100180Y0081581D01*
X0099908Y0081174D01*
X0099721Y0080723D01*
X0099626Y0080244D01*
X0099626Y0080000D01*
X0102105Y0080000D01*
X0099626Y0080000D01*
X0099626Y0079756D01*
X0099721Y0079277D01*
X0099678Y0080506D02*
X0085783Y0080506D01*
X0085746Y0079308D02*
X0089157Y0079308D01*
X0088449Y0078109D02*
X0084971Y0078109D01*
X0083356Y0078109D02*
X0083356Y0078109D01*
X0083356Y0079308D02*
X0083356Y0079308D01*
X0083355Y0080000D02*
X0083355Y0080000D01*
X0083356Y0080506D02*
X0083356Y0080506D01*
X0083356Y0081705D02*
X0083356Y0081705D01*
X0085157Y0081705D02*
X0100304Y0081705D01*
X0102106Y0081705D02*
X0102106Y0081705D01*
X0102106Y0080506D02*
X0102106Y0080506D01*
X0102105Y0080000D02*
X0102105Y0080000D01*
X0102106Y0079308D02*
X0102106Y0079308D01*
X0102106Y0078109D02*
X0102106Y0078109D01*
X0100490Y0078109D02*
X0093263Y0078109D01*
X0117864Y0098484D02*
X0118887Y0098484D01*
X0118391Y0099682D02*
X0118348Y0099682D01*
X0118188Y0100881D02*
X0118537Y0100881D01*
X0119505Y0102079D02*
X0117301Y0102079D01*
X0124259Y0108072D02*
X0098270Y0108072D01*
X0098259Y0106873D02*
X0142656Y0106873D01*
X0142656Y0108072D02*
X0127452Y0108072D01*
X0128251Y0109270D02*
X0143125Y0109270D01*
X0143361Y0110469D02*
X0128348Y0110469D01*
X0127712Y0111668D02*
X0142737Y0111668D01*
X0143155Y0105675D02*
X0097537Y0105675D01*
X0095856Y0105675D02*
X0095856Y0105675D01*
X0095856Y0106873D02*
X0095856Y0106873D01*
X0095855Y0107500D02*
X0095855Y0107500D01*
X0095856Y0108072D02*
X0095856Y0108072D01*
X0095856Y0109270D02*
X0095856Y0109270D01*
X0097592Y0109270D02*
X0123460Y0109270D01*
X0104359Y0103278D02*
X0063290Y0103278D01*
X0062692Y0102079D02*
X0103502Y0102079D01*
X0096785Y0123185D02*
X0097365Y0123425D01*
X0097887Y0123774D01*
X0098331Y0124218D01*
X0098680Y0124740D01*
X0098921Y0125320D01*
X0099043Y0125936D01*
X0099043Y0126250D01*
X0099043Y0126564D01*
X0098921Y0127180D01*
X0098680Y0127760D01*
X0098331Y0128282D01*
X0097887Y0128726D01*
X0097365Y0129075D01*
X0096785Y0129315D01*
X0096170Y0129437D01*
X0095856Y0129437D01*
X0095856Y0126250D01*
X0099043Y0126250D01*
X0095856Y0126250D01*
X0095856Y0126250D01*
X0095856Y0126250D01*
X0095856Y0123063D01*
X0096170Y0123063D01*
X0096785Y0123185D01*
X0095856Y0123063D02*
X0095856Y0126250D01*
X0095856Y0126250D01*
X0095856Y0129437D01*
X0095542Y0129437D01*
X0094926Y0129315D01*
X0094346Y0129075D01*
X0093824Y0128726D01*
X0093380Y0128282D01*
X0093031Y0127760D01*
X0092791Y0127180D01*
X0092668Y0126564D01*
X0092668Y0126250D01*
X0092668Y0125936D01*
X0092791Y0125320D01*
X0093031Y0124740D01*
X0093380Y0124218D01*
X0093824Y0123774D01*
X0094346Y0123425D01*
X0094926Y0123185D01*
X0095542Y0123063D01*
X0095856Y0123063D01*
X0095856Y0123653D02*
X0095856Y0123653D01*
X0095856Y0124851D02*
X0095856Y0124851D01*
X0095856Y0126050D02*
X0095856Y0126050D01*
X0095855Y0126250D02*
X0092668Y0126250D01*
X0095855Y0126250D01*
X0095855Y0126250D01*
X0095856Y0127248D02*
X0095856Y0127248D01*
X0095856Y0128447D02*
X0095856Y0128447D01*
X0098167Y0128447D02*
X0179638Y0128447D01*
X0179626Y0128506D02*
X0179721Y0128027D01*
X0179908Y0127575D01*
X0180180Y0127169D01*
X0180525Y0126824D01*
X0180931Y0126553D01*
X0181382Y0126366D01*
X0181861Y0126270D01*
X0182106Y0126270D01*
X0182350Y0126270D01*
X0182829Y0126366D01*
X0183280Y0126553D01*
X0183686Y0126824D01*
X0184032Y0127169D01*
X0184303Y0127575D01*
X0184490Y0128027D01*
X0184585Y0128506D01*
X0184585Y0128750D01*
X0184585Y0128994D01*
X0184490Y0129473D01*
X0184303Y0129924D01*
X0184032Y0130331D01*
X0183686Y0130676D01*
X0183280Y0130947D01*
X0182829Y0131134D01*
X0182350Y0131230D01*
X0182106Y0131230D01*
X0182106Y0128750D01*
X0184585Y0128750D01*
X0182106Y0128750D01*
X0182106Y0128750D01*
X0182106Y0128750D01*
X0182106Y0126270D01*
X0182106Y0128750D01*
X0182106Y0128750D01*
X0182106Y0131230D01*
X0181861Y0131230D01*
X0181382Y0131134D01*
X0180931Y0130947D01*
X0180525Y0130676D01*
X0180180Y0130331D01*
X0179908Y0129924D01*
X0179721Y0129473D01*
X0179626Y0128994D01*
X0179626Y0128750D01*
X0182105Y0128750D01*
X0179626Y0128750D01*
X0179626Y0128506D01*
X0179793Y0129645D02*
X0030137Y0129645D01*
X0030137Y0128447D02*
X0047180Y0128447D01*
X0047181Y0128447D02*
X0046775Y0128176D01*
X0046430Y0127831D01*
X0046158Y0127424D01*
X0045971Y0126973D01*
X0045876Y0126494D01*
X0045876Y0126250D01*
X0048355Y0126250D01*
X0045876Y0126250D01*
X0045876Y0126006D01*
X0045971Y0125527D01*
X0046158Y0125075D01*
X0046430Y0124669D01*
X0046775Y0124324D01*
X0047181Y0124053D01*
X0047632Y0123866D01*
X0048111Y0123770D01*
X0048356Y0123770D01*
X0048600Y0123770D01*
X0049079Y0123866D01*
X0049530Y0124053D01*
X0049936Y0124324D01*
X0050282Y0124669D01*
X0050553Y0125075D01*
X0050740Y0125527D01*
X0050835Y0126006D01*
X0050835Y0126250D01*
X0050835Y0126494D01*
X0050740Y0126973D01*
X0050553Y0127424D01*
X0050282Y0127831D01*
X0049936Y0128176D01*
X0049530Y0128447D01*
X0049079Y0128634D01*
X0048600Y0128730D01*
X0048356Y0128730D01*
X0048356Y0126250D01*
X0050835Y0126250D01*
X0048356Y0126250D01*
X0048356Y0126250D01*
X0048356Y0126250D01*
X0048356Y0123770D01*
X0048356Y0126250D01*
X0048356Y0126250D01*
X0048356Y0128730D01*
X0048111Y0128730D01*
X0047632Y0128634D01*
X0047181Y0128447D01*
X0048356Y0128447D02*
X0048356Y0128447D01*
X0049531Y0128447D02*
X0093545Y0128447D01*
X0092819Y0127248D02*
X0050626Y0127248D01*
X0050835Y0126050D02*
X0092668Y0126050D01*
X0092985Y0124851D02*
X0076659Y0124851D01*
X0075856Y0124851D02*
X0075856Y0124851D01*
X0075052Y0124851D02*
X0061659Y0124851D01*
X0060856Y0124851D02*
X0060856Y0124851D01*
X0060052Y0124851D02*
X0050403Y0124851D01*
X0048356Y0124851D02*
X0048356Y0124851D01*
X0048356Y0126050D02*
X0048356Y0126050D01*
X0048355Y0126250D02*
X0048355Y0126250D01*
X0048356Y0127248D02*
X0048356Y0127248D01*
X0046085Y0127248D02*
X0030137Y0127248D01*
X0030137Y0126050D02*
X0045876Y0126050D01*
X0046308Y0124851D02*
X0030137Y0124851D01*
X0030137Y0123653D02*
X0058649Y0123653D01*
X0058376Y0122454D02*
X0030137Y0122454D01*
X0030137Y0121256D02*
X0058705Y0121256D01*
X0060856Y0121256D02*
X0060856Y0121256D01*
X0060856Y0122454D02*
X0060856Y0122454D01*
X0060855Y0122500D02*
X0060855Y0122500D01*
X0060856Y0123653D02*
X0060856Y0123653D01*
X0063062Y0123653D02*
X0073649Y0123653D01*
X0073376Y0122454D02*
X0063335Y0122454D01*
X0063006Y0121256D02*
X0073705Y0121256D01*
X0075856Y0121256D02*
X0075856Y0121256D01*
X0075856Y0122454D02*
X0075856Y0122454D01*
X0075855Y0122500D02*
X0075855Y0122500D01*
X0075856Y0123653D02*
X0075856Y0123653D01*
X0078062Y0123653D02*
X0094006Y0123653D01*
X0097706Y0123653D02*
X0274156Y0123653D01*
X0274156Y0123053D02*
X0276909Y0120300D01*
X0280802Y0120300D01*
X0283556Y0123053D01*
X0283556Y0126947D01*
X0280802Y0129700D01*
X0276909Y0129700D01*
X0274156Y0126947D01*
X0274156Y0123053D01*
X0274755Y0122454D02*
X0188728Y0122454D01*
X0188356Y0122454D02*
X0188356Y0122454D01*
X0187984Y0122454D02*
X0183728Y0122454D01*
X0183356Y0122454D02*
X0183356Y0122454D01*
X0182984Y0122454D02*
X0178728Y0122454D01*
X0178356Y0122454D02*
X0178356Y0122454D01*
X0177984Y0122454D02*
X0173728Y0122454D01*
X0173356Y0122454D02*
X0173356Y0122454D01*
X0172984Y0122454D02*
X0163728Y0122454D01*
X0163356Y0122454D02*
X0163356Y0122454D01*
X0162984Y0122454D02*
X0078335Y0122454D01*
X0078006Y0121256D02*
X0161213Y0121256D01*
X0163356Y0121256D02*
X0163356Y0121256D01*
X0163356Y0120057D02*
X0163356Y0120057D01*
X0163355Y0120000D02*
X0163355Y0120000D01*
X0165835Y0120057D02*
X0170876Y0120057D01*
X0171145Y0118859D02*
X0165567Y0118859D01*
X0165499Y0121256D02*
X0171213Y0121256D01*
X0173356Y0121256D02*
X0173356Y0121256D01*
X0173356Y0120057D02*
X0173356Y0120057D01*
X0173355Y0120000D02*
X0173355Y0120000D01*
X0175835Y0120057D02*
X0175876Y0120057D01*
X0176145Y0118859D02*
X0175567Y0118859D01*
X0175499Y0121256D02*
X0176212Y0121256D01*
X0178356Y0121256D02*
X0178356Y0121256D01*
X0178356Y0120057D02*
X0178356Y0120057D01*
X0178355Y0120000D02*
X0178355Y0120000D01*
X0180835Y0120057D02*
X0180876Y0120057D01*
X0181145Y0118859D02*
X0180567Y0118859D01*
X0180499Y0121256D02*
X0181212Y0121256D01*
X0183356Y0121256D02*
X0183356Y0121256D01*
X0183356Y0120057D02*
X0183356Y0120057D01*
X0183355Y0120000D02*
X0183355Y0120000D01*
X0185835Y0120057D02*
X0185876Y0120057D01*
X0186145Y0118859D02*
X0185567Y0118859D01*
X0185499Y0121256D02*
X0186212Y0121256D01*
X0188356Y0121256D02*
X0188356Y0121256D01*
X0188356Y0120057D02*
X0188356Y0120057D01*
X0188355Y0120000D02*
X0188355Y0120000D01*
X0190835Y0120057D02*
X0323356Y0120057D01*
X0323356Y0118859D02*
X0291644Y0118859D01*
X0290802Y0119700D02*
X0293556Y0116947D01*
X0293556Y0113053D01*
X0290802Y0110300D01*
X0286909Y0110300D01*
X0284156Y0113053D01*
X0284156Y0116947D01*
X0286909Y0119700D01*
X0290802Y0119700D01*
X0290802Y0120300D02*
X0293556Y0123053D01*
X0293556Y0126947D01*
X0290802Y0129700D01*
X0286909Y0129700D01*
X0284156Y0126947D01*
X0284156Y0123053D01*
X0286909Y0120300D01*
X0290802Y0120300D01*
X0291758Y0121256D02*
X0323356Y0121256D01*
X0323356Y0122454D02*
X0292957Y0122454D01*
X0293556Y0123653D02*
X0322203Y0123653D01*
X0321005Y0124851D02*
X0293556Y0124851D01*
X0293556Y0126050D02*
X0319806Y0126050D01*
X0318607Y0127248D02*
X0293254Y0127248D01*
X0292056Y0128447D02*
X0317409Y0128447D01*
X0316210Y0129645D02*
X0290857Y0129645D01*
X0286854Y0129645D02*
X0280857Y0129645D01*
X0282056Y0128447D02*
X0285656Y0128447D01*
X0284457Y0127248D02*
X0283254Y0127248D01*
X0283556Y0126050D02*
X0284156Y0126050D01*
X0284156Y0124851D02*
X0283556Y0124851D01*
X0283556Y0123653D02*
X0284156Y0123653D01*
X0284755Y0122454D02*
X0282957Y0122454D01*
X0281758Y0121256D02*
X0285953Y0121256D01*
X0286067Y0118859D02*
X0281644Y0118859D01*
X0280802Y0119700D02*
X0276909Y0119700D01*
X0274156Y0116947D01*
X0274156Y0113053D01*
X0276909Y0110300D01*
X0280802Y0110300D01*
X0283556Y0113053D01*
X0283556Y0116947D01*
X0280802Y0119700D01*
X0282842Y0117660D02*
X0284869Y0117660D01*
X0284156Y0116462D02*
X0283556Y0116462D01*
X0283556Y0115263D02*
X0284156Y0115263D01*
X0284156Y0114065D02*
X0283556Y0114065D01*
X0283368Y0112866D02*
X0284343Y0112866D01*
X0285541Y0111668D02*
X0282170Y0111668D01*
X0280971Y0110469D02*
X0286740Y0110469D01*
X0286914Y0109687D02*
X0284168Y0106942D01*
X0284168Y0105400D01*
X0288456Y0105400D01*
X0288456Y0109687D01*
X0286914Y0109687D01*
X0286497Y0109270D02*
X0281232Y0109270D01*
X0280802Y0109700D02*
X0276909Y0109700D01*
X0274156Y0106947D01*
X0274156Y0103053D01*
X0276909Y0100300D01*
X0280802Y0100300D01*
X0283556Y0103053D01*
X0283556Y0106947D01*
X0280802Y0109700D01*
X0282430Y0108072D02*
X0285299Y0108072D01*
X0284168Y0106873D02*
X0283556Y0106873D01*
X0283556Y0105675D02*
X0284168Y0105675D01*
X0284168Y0104600D02*
X0284168Y0103058D01*
X0286914Y0100313D01*
X0288456Y0100313D01*
X0288456Y0104600D01*
X0289256Y0104600D01*
X0289256Y0105400D01*
X0293543Y0105400D01*
X0293543Y0106942D01*
X0290797Y0109687D01*
X0289256Y0109687D01*
X0289256Y0105400D01*
X0288456Y0105400D01*
X0288456Y0104600D01*
X0284168Y0104600D01*
X0284168Y0104476D02*
X0283556Y0104476D01*
X0283556Y0103278D02*
X0284168Y0103278D01*
X0285147Y0102079D02*
X0282582Y0102079D01*
X0281383Y0100881D02*
X0286346Y0100881D01*
X0288456Y0100881D02*
X0289256Y0100881D01*
X0289256Y0100313D02*
X0290797Y0100313D01*
X0293543Y0103058D01*
X0293543Y0104600D01*
X0289256Y0104600D01*
X0289256Y0100313D01*
X0289256Y0102079D02*
X0288456Y0102079D01*
X0288456Y0103278D02*
X0289256Y0103278D01*
X0289256Y0104476D02*
X0288456Y0104476D01*
X0288456Y0105675D02*
X0289256Y0105675D01*
X0289256Y0106873D02*
X0288456Y0106873D01*
X0288456Y0108072D02*
X0289256Y0108072D01*
X0289256Y0109270D02*
X0288456Y0109270D01*
X0291214Y0109270D02*
X0301681Y0109270D01*
X0301184Y0108072D02*
X0292413Y0108072D01*
X0293543Y0106873D02*
X0300971Y0106873D01*
X0300971Y0107558D02*
X0300971Y0104017D01*
X0302326Y0100746D01*
X0304830Y0098242D01*
X0308101Y0096887D01*
X0311642Y0096887D01*
X0314913Y0098242D01*
X0317416Y0100746D01*
X0318771Y0104017D01*
X0318771Y0107558D01*
X0317416Y0110829D01*
X0314913Y0113332D01*
X0311642Y0114687D01*
X0308101Y0114687D01*
X0304830Y0113332D01*
X0302326Y0110829D01*
X0300971Y0107558D01*
X0300971Y0105675D02*
X0293543Y0105675D01*
X0293543Y0104476D02*
X0300971Y0104476D01*
X0301278Y0103278D02*
X0293543Y0103278D01*
X0292564Y0102079D02*
X0301774Y0102079D01*
X0302270Y0100881D02*
X0291366Y0100881D01*
X0296944Y0092113D02*
X0296243Y0091412D01*
X0295864Y0090496D01*
X0295864Y0089504D01*
X0296243Y0088588D01*
X0296944Y0087887D01*
X0297860Y0087508D01*
X0298851Y0087508D01*
X0299767Y0087887D01*
X0300468Y0088588D01*
X0300848Y0089504D01*
X0300848Y0090496D01*
X0300468Y0091412D01*
X0299767Y0092113D01*
X0298851Y0092492D01*
X0297860Y0092492D01*
X0296944Y0092113D01*
X0297858Y0092491D02*
X0278348Y0092491D01*
X0278348Y0092004D02*
X0277968Y0091088D01*
X0277267Y0090387D01*
X0276351Y0090008D01*
X0275360Y0090008D01*
X0274444Y0090387D01*
X0273743Y0091088D01*
X0273364Y0092004D01*
X0273364Y0092996D01*
X0273743Y0093912D01*
X0274444Y0094613D01*
X0275360Y0094992D01*
X0276351Y0094992D01*
X0277267Y0094613D01*
X0277968Y0093912D01*
X0278348Y0092996D01*
X0278348Y0092004D01*
X0278053Y0091293D02*
X0296194Y0091293D01*
X0295864Y0090094D02*
X0276560Y0090094D01*
X0275151Y0090094D02*
X0271471Y0090094D01*
X0271579Y0090116D02*
X0272030Y0090303D01*
X0272436Y0090574D01*
X0272782Y0090919D01*
X0273053Y0091325D01*
X0273240Y0091777D01*
X0273335Y0092256D01*
X0273335Y0092500D01*
X0273335Y0092744D01*
X0273240Y0093223D01*
X0273053Y0093674D01*
X0272782Y0094081D01*
X0272436Y0094426D01*
X0272030Y0094697D01*
X0271579Y0094884D01*
X0271100Y0094980D01*
X0270856Y0094980D01*
X0270856Y0092500D01*
X0273335Y0092500D01*
X0270856Y0092500D01*
X0270856Y0092500D01*
X0270856Y0092500D01*
X0270856Y0090020D01*
X0271100Y0090020D01*
X0271579Y0090116D01*
X0270856Y0090094D02*
X0270856Y0090094D01*
X0270856Y0090020D02*
X0270856Y0092500D01*
X0270856Y0092500D01*
X0270856Y0094980D01*
X0270611Y0094980D01*
X0270132Y0094884D01*
X0269681Y0094697D01*
X0269275Y0094426D01*
X0268930Y0094081D01*
X0268658Y0093674D01*
X0268471Y0093223D01*
X0268376Y0092744D01*
X0268376Y0092500D01*
X0270855Y0092500D01*
X0268376Y0092500D01*
X0268376Y0092256D01*
X0268471Y0091777D01*
X0268658Y0091325D01*
X0268930Y0090919D01*
X0269275Y0090574D01*
X0269681Y0090303D01*
X0270132Y0090116D01*
X0270611Y0090020D01*
X0270856Y0090020D01*
X0270240Y0090094D02*
X0254060Y0090094D01*
X0253851Y0090008D02*
X0254767Y0090387D01*
X0255468Y0091088D01*
X0255848Y0092004D01*
X0255848Y0092996D01*
X0255468Y0093912D01*
X0254767Y0094613D01*
X0253851Y0094992D01*
X0252860Y0094992D01*
X0251944Y0094613D01*
X0251243Y0093912D01*
X0250864Y0092996D01*
X0250864Y0092004D01*
X0251243Y0091088D01*
X0251944Y0090387D01*
X0252860Y0090008D01*
X0253851Y0090008D01*
X0252651Y0090094D02*
X0248348Y0090094D01*
X0248348Y0090496D02*
X0247968Y0091412D01*
X0247267Y0092113D01*
X0246351Y0092492D01*
X0245360Y0092492D01*
X0244444Y0092113D01*
X0243743Y0091412D01*
X0243364Y0090496D01*
X0243364Y0089504D01*
X0243743Y0088588D01*
X0244444Y0087887D01*
X0245360Y0087508D01*
X0246351Y0087508D01*
X0247267Y0087887D01*
X0247968Y0088588D01*
X0248348Y0089504D01*
X0248348Y0090496D01*
X0248018Y0091293D02*
X0251158Y0091293D01*
X0250864Y0092491D02*
X0246353Y0092491D01*
X0245358Y0092491D02*
X0227603Y0092491D01*
X0226608Y0092491D02*
X0221789Y0092491D01*
X0222098Y0091293D02*
X0224944Y0091293D01*
X0224614Y0090094D02*
X0221824Y0090094D01*
X0221406Y0088896D02*
X0224866Y0088896D01*
X0225306Y0087697D02*
X0221098Y0087697D01*
X0217387Y0090094D02*
X0204060Y0090094D01*
X0203851Y0090008D02*
X0204767Y0090387D01*
X0205468Y0091088D01*
X0205848Y0092004D01*
X0205848Y0092996D01*
X0205468Y0093912D01*
X0205005Y0094375D01*
X0205468Y0094838D01*
X0205848Y0095754D01*
X0205848Y0096746D01*
X0205468Y0097662D01*
X0204767Y0098363D01*
X0203851Y0098742D01*
X0202860Y0098742D01*
X0201944Y0098363D01*
X0201243Y0097662D01*
X0200864Y0096746D01*
X0200864Y0095754D01*
X0201243Y0094838D01*
X0201706Y0094375D01*
X0201243Y0093912D01*
X0200864Y0092996D01*
X0200864Y0092004D01*
X0201243Y0091088D01*
X0201944Y0090387D01*
X0202860Y0090008D01*
X0203851Y0090008D01*
X0202651Y0090094D02*
X0198307Y0090094D01*
X0199505Y0088896D02*
X0212206Y0088896D01*
X0211007Y0087697D02*
X0200704Y0087697D01*
X0201158Y0091293D02*
X0197108Y0091293D01*
X0195910Y0092491D02*
X0200864Y0092491D01*
X0201151Y0093690D02*
X0194711Y0093690D01*
X0195467Y0096087D02*
X0200864Y0096087D01*
X0201087Y0097285D02*
X0195848Y0097285D01*
X0196885Y0098484D02*
X0202237Y0098484D01*
X0204475Y0098484D02*
X0251079Y0098484D01*
X0251158Y0098674D02*
X0250971Y0098223D01*
X0250876Y0097744D01*
X0250876Y0097500D01*
X0253355Y0097500D01*
X0250876Y0097500D01*
X0250876Y0097256D01*
X0250971Y0096777D01*
X0251158Y0096325D01*
X0251430Y0095919D01*
X0251775Y0095574D01*
X0252181Y0095303D01*
X0252632Y0095116D01*
X0253111Y0095020D01*
X0253356Y0095020D01*
X0253600Y0095020D01*
X0254079Y0095116D01*
X0254530Y0095303D01*
X0254936Y0095574D01*
X0255282Y0095919D01*
X0255553Y0096325D01*
X0255740Y0096777D01*
X0255835Y0097256D01*
X0255835Y0097500D01*
X0255835Y0097744D01*
X0255740Y0098223D01*
X0255553Y0098674D01*
X0255282Y0099081D01*
X0254936Y0099426D01*
X0254530Y0099697D01*
X0254079Y0099884D01*
X0253600Y0099980D01*
X0253356Y0099980D01*
X0253356Y0097500D01*
X0255835Y0097500D01*
X0253356Y0097500D01*
X0253356Y0097500D01*
X0253356Y0097500D01*
X0253356Y0095020D01*
X0253356Y0097500D01*
X0253356Y0097500D01*
X0253356Y0099980D01*
X0253111Y0099980D01*
X0252632Y0099884D01*
X0252181Y0099697D01*
X0251775Y0099426D01*
X0251430Y0099081D01*
X0251158Y0098674D01*
X0250876Y0097285D02*
X0205624Y0097285D01*
X0205848Y0096087D02*
X0251318Y0096087D01*
X0252609Y0094888D02*
X0205489Y0094888D01*
X0205560Y0093690D02*
X0218984Y0093690D01*
X0220228Y0093690D02*
X0251151Y0093690D01*
X0254102Y0094888D02*
X0270153Y0094888D01*
X0270856Y0094888D02*
X0270856Y0094888D01*
X0271558Y0094888D02*
X0275109Y0094888D01*
X0276602Y0094888D02*
X0320109Y0094888D01*
X0321602Y0094888D02*
X0323356Y0094888D01*
X0323356Y0093690D02*
X0323060Y0093690D01*
X0323356Y0096087D02*
X0255393Y0096087D01*
X0255835Y0097285D02*
X0307140Y0097285D01*
X0304588Y0098484D02*
X0255632Y0098484D01*
X0254552Y0099682D02*
X0303390Y0099682D01*
X0312602Y0097285D02*
X0323356Y0097285D01*
X0323356Y0098484D02*
X0315154Y0098484D01*
X0316353Y0099682D02*
X0323356Y0099682D01*
X0323356Y0100881D02*
X0317472Y0100881D01*
X0317969Y0102079D02*
X0323356Y0102079D01*
X0323356Y0103278D02*
X0318465Y0103278D01*
X0318771Y0104476D02*
X0323356Y0104476D01*
X0323356Y0105675D02*
X0318771Y0105675D01*
X0318771Y0106873D02*
X0323356Y0106873D01*
X0323356Y0108072D02*
X0318558Y0108072D01*
X0318062Y0109270D02*
X0323356Y0109270D01*
X0323356Y0110469D02*
X0317565Y0110469D01*
X0316578Y0111668D02*
X0323356Y0111668D01*
X0323356Y0112866D02*
X0315379Y0112866D01*
X0313145Y0114065D02*
X0323356Y0114065D01*
X0323356Y0115263D02*
X0293556Y0115263D01*
X0293556Y0114065D02*
X0306597Y0114065D01*
X0304364Y0112866D02*
X0293368Y0112866D01*
X0292170Y0111668D02*
X0303165Y0111668D01*
X0302177Y0110469D02*
X0290971Y0110469D01*
X0293556Y0116462D02*
X0323356Y0116462D01*
X0323356Y0117660D02*
X0292842Y0117660D01*
X0276067Y0118859D02*
X0190567Y0118859D01*
X0190499Y0121256D02*
X0275953Y0121256D01*
X0274156Y0124851D02*
X0266724Y0124851D01*
X0266718Y0124838D02*
X0267098Y0125754D01*
X0267098Y0126746D01*
X0266718Y0127662D01*
X0266017Y0128363D01*
X0265101Y0128742D01*
X0264110Y0128742D01*
X0263194Y0128363D01*
X0262493Y0127662D01*
X0262114Y0126746D01*
X0262114Y0125754D01*
X0262493Y0124838D01*
X0263194Y0124137D01*
X0264110Y0123758D01*
X0265101Y0123758D01*
X0266017Y0124137D01*
X0266718Y0124838D01*
X0267098Y0126050D02*
X0274156Y0126050D01*
X0274457Y0127248D02*
X0266890Y0127248D01*
X0265815Y0128447D02*
X0275656Y0128447D01*
X0276854Y0129645D02*
X0233182Y0129645D01*
X0233348Y0129246D02*
X0232968Y0130162D01*
X0232267Y0130863D01*
X0231351Y0131242D01*
X0230360Y0131242D01*
X0229444Y0130863D01*
X0228743Y0130162D01*
X0228364Y0129246D01*
X0228364Y0128254D01*
X0228743Y0127338D01*
X0229444Y0126637D01*
X0230360Y0126258D01*
X0231351Y0126258D01*
X0232267Y0126637D01*
X0232968Y0127338D01*
X0233348Y0128254D01*
X0233348Y0129246D01*
X0233348Y0128447D02*
X0263397Y0128447D01*
X0262322Y0127248D02*
X0232878Y0127248D01*
X0228833Y0127248D02*
X0184084Y0127248D01*
X0184573Y0128447D02*
X0228364Y0128447D01*
X0228529Y0129645D02*
X0184419Y0129645D01*
X0183435Y0130844D02*
X0225238Y0130844D01*
X0224993Y0131088D02*
X0225694Y0130387D01*
X0226610Y0130008D01*
X0227601Y0130008D01*
X0228517Y0130387D01*
X0229218Y0131088D01*
X0229598Y0132004D01*
X0229598Y0132996D01*
X0229218Y0133912D01*
X0228517Y0134613D01*
X0227601Y0134992D01*
X0226610Y0134992D01*
X0225694Y0134613D01*
X0224993Y0133912D01*
X0224614Y0132996D01*
X0224614Y0132004D01*
X0224993Y0131088D01*
X0224614Y0132042D02*
X0155793Y0132042D01*
X0155835Y0132256D02*
X0155835Y0132500D01*
X0155835Y0132744D01*
X0155740Y0133223D01*
X0155553Y0133674D01*
X0155282Y0134081D01*
X0154936Y0134426D01*
X0154530Y0134697D01*
X0154079Y0134884D01*
X0153600Y0134980D01*
X0153356Y0134980D01*
X0153356Y0132500D01*
X0155835Y0132500D01*
X0153356Y0132500D01*
X0153356Y0132500D01*
X0153356Y0132500D01*
X0153356Y0130020D01*
X0153600Y0130020D01*
X0154079Y0130116D01*
X0154530Y0130303D01*
X0154936Y0130574D01*
X0155282Y0130919D01*
X0155553Y0131325D01*
X0155740Y0131777D01*
X0155835Y0132256D01*
X0155733Y0133241D02*
X0224715Y0133241D01*
X0225520Y0134439D02*
X0154916Y0134439D01*
X0153356Y0134439D02*
X0153356Y0134439D01*
X0153356Y0134980D02*
X0153111Y0134980D01*
X0152632Y0134884D01*
X0152181Y0134697D01*
X0151775Y0134426D01*
X0151430Y0134081D01*
X0151158Y0133674D01*
X0150971Y0133223D01*
X0150876Y0132744D01*
X0150876Y0132500D01*
X0153355Y0132500D01*
X0150876Y0132500D01*
X0150876Y0132256D01*
X0150971Y0131777D01*
X0151158Y0131325D01*
X0151430Y0130919D01*
X0151775Y0130574D01*
X0152181Y0130303D01*
X0152632Y0130116D01*
X0153111Y0130020D01*
X0153356Y0130020D01*
X0153356Y0132500D01*
X0153356Y0132500D01*
X0153356Y0134980D01*
X0151795Y0134439D02*
X0030137Y0134439D01*
X0030137Y0133241D02*
X0150979Y0133241D01*
X0150919Y0132042D02*
X0030137Y0132042D01*
X0030137Y0130844D02*
X0151505Y0130844D01*
X0153356Y0130844D02*
X0153356Y0130844D01*
X0153356Y0132042D02*
X0153356Y0132042D01*
X0153355Y0132500D02*
X0153355Y0132500D01*
X0153356Y0133241D02*
X0153356Y0133241D01*
X0155206Y0130844D02*
X0180776Y0130844D01*
X0182106Y0130844D02*
X0182106Y0130844D01*
X0182106Y0129645D02*
X0182106Y0129645D01*
X0182105Y0128750D02*
X0182105Y0128750D01*
X0182106Y0128447D02*
X0182106Y0128447D01*
X0182106Y0127248D02*
X0182106Y0127248D01*
X0180127Y0127248D02*
X0098892Y0127248D01*
X0099043Y0126050D02*
X0262114Y0126050D01*
X0262488Y0124851D02*
X0098726Y0124851D01*
X0098600Y0137520D02*
X0099079Y0137616D01*
X0099530Y0137803D01*
X0099936Y0138074D01*
X0100282Y0138419D01*
X0100553Y0138825D01*
X0100740Y0139277D01*
X0100835Y0139756D01*
X0100835Y0140000D01*
X0100835Y0140244D01*
X0100740Y0140723D01*
X0100553Y0141174D01*
X0100282Y0141581D01*
X0099936Y0141926D01*
X0099530Y0142197D01*
X0099079Y0142384D01*
X0098600Y0142480D01*
X0098356Y0142480D01*
X0098356Y0140000D01*
X0100835Y0140000D01*
X0098356Y0140000D01*
X0098356Y0140000D01*
X0098356Y0140000D01*
X0098356Y0137520D01*
X0098600Y0137520D01*
X0098356Y0137520D02*
X0098356Y0140000D01*
X0098356Y0140000D01*
X0098356Y0142480D01*
X0098111Y0142480D01*
X0097632Y0142384D01*
X0097181Y0142197D01*
X0096775Y0141926D01*
X0096430Y0141581D01*
X0096158Y0141174D01*
X0095971Y0140723D01*
X0095876Y0140244D01*
X0095876Y0140000D01*
X0098355Y0140000D01*
X0095876Y0140000D01*
X0095876Y0139756D01*
X0095971Y0139277D01*
X0096158Y0138825D01*
X0096430Y0138419D01*
X0096775Y0138074D01*
X0097181Y0137803D01*
X0097632Y0137616D01*
X0098111Y0137520D01*
X0098356Y0137520D01*
X0098356Y0138035D02*
X0098356Y0138035D01*
X0098356Y0139233D02*
X0098356Y0139233D01*
X0098355Y0140000D02*
X0098355Y0140000D01*
X0098356Y0140432D02*
X0098356Y0140432D01*
X0098356Y0141630D02*
X0098356Y0141630D01*
X0100232Y0141630D02*
X0138067Y0141630D01*
X0138143Y0141813D02*
X0137656Y0140637D01*
X0137656Y0139363D01*
X0138143Y0138187D01*
X0139043Y0137287D01*
X0140219Y0136800D01*
X0141492Y0136800D01*
X0142668Y0137287D01*
X0143568Y0138187D01*
X0144056Y0139363D01*
X0144056Y0140637D01*
X0143568Y0141813D01*
X0142881Y0142500D01*
X0143568Y0143187D01*
X0144056Y0144363D01*
X0144056Y0145637D01*
X0143568Y0146813D01*
X0142881Y0147500D01*
X0143568Y0148187D01*
X0144056Y0149363D01*
X0144056Y0150637D01*
X0143568Y0151813D01*
X0142668Y0152713D01*
X0141492Y0153200D01*
X0140219Y0153200D01*
X0139043Y0152713D01*
X0138143Y0151813D01*
X0137656Y0150637D01*
X0137656Y0149363D01*
X0138143Y0148187D01*
X0138830Y0147500D01*
X0138143Y0146813D01*
X0137656Y0145637D01*
X0137656Y0144363D01*
X0138143Y0143187D01*
X0138830Y0142500D01*
X0138143Y0141813D01*
X0138501Y0142829D02*
X0063376Y0142829D01*
X0063517Y0142887D02*
X0064218Y0143588D01*
X0064598Y0144504D01*
X0064598Y0145496D01*
X0064218Y0146412D01*
X0063517Y0147113D01*
X0062601Y0147492D01*
X0061610Y0147492D01*
X0060694Y0147113D01*
X0059993Y0146412D01*
X0059614Y0145496D01*
X0059614Y0144504D01*
X0059993Y0143588D01*
X0060694Y0142887D01*
X0061610Y0142508D01*
X0062601Y0142508D01*
X0063517Y0142887D01*
X0064400Y0144027D02*
X0137795Y0144027D01*
X0137656Y0145226D02*
X0064598Y0145226D01*
X0064206Y0146424D02*
X0078741Y0146424D01*
X0078882Y0146366D02*
X0079361Y0146270D01*
X0079606Y0146270D01*
X0079850Y0146270D01*
X0080329Y0146366D01*
X0080780Y0146553D01*
X0081186Y0146824D01*
X0081532Y0147169D01*
X0081803Y0147575D01*
X0081990Y0148027D01*
X0082085Y0148506D01*
X0082085Y0148750D01*
X0082085Y0148994D01*
X0081990Y0149473D01*
X0081803Y0149924D01*
X0081532Y0150331D01*
X0081186Y0150676D01*
X0080780Y0150947D01*
X0080329Y0151134D01*
X0079850Y0151230D01*
X0079606Y0151230D01*
X0079606Y0148750D01*
X0082085Y0148750D01*
X0079606Y0148750D01*
X0079606Y0148750D01*
X0079606Y0148750D01*
X0079606Y0146270D01*
X0079606Y0148750D01*
X0079606Y0148750D01*
X0079606Y0151230D01*
X0079361Y0151230D01*
X0078882Y0151134D01*
X0078431Y0150947D01*
X0078025Y0150676D01*
X0077680Y0150331D01*
X0077408Y0149924D01*
X0077221Y0149473D01*
X0077126Y0148994D01*
X0077126Y0148750D01*
X0079605Y0148750D01*
X0077126Y0148750D01*
X0077126Y0148506D01*
X0077221Y0148027D01*
X0077408Y0147575D01*
X0077680Y0147169D01*
X0078025Y0146824D01*
X0078431Y0146553D01*
X0078882Y0146366D01*
X0079606Y0146424D02*
X0079606Y0146424D01*
X0080470Y0146424D02*
X0084991Y0146424D01*
X0085132Y0146366D02*
X0085611Y0146270D01*
X0085856Y0146270D01*
X0086100Y0146270D01*
X0086579Y0146366D01*
X0087030Y0146553D01*
X0087436Y0146824D01*
X0087782Y0147169D01*
X0088053Y0147575D01*
X0088240Y0148027D01*
X0088335Y0148506D01*
X0088335Y0148750D01*
X0088335Y0148994D01*
X0088240Y0149473D01*
X0088053Y0149924D01*
X0087782Y0150331D01*
X0087436Y0150676D01*
X0087030Y0150947D01*
X0086579Y0151134D01*
X0086100Y0151230D01*
X0085856Y0151230D01*
X0085856Y0148750D01*
X0088335Y0148750D01*
X0085856Y0148750D01*
X0085856Y0148750D01*
X0085856Y0148750D01*
X0085856Y0146270D01*
X0085856Y0148750D01*
X0085856Y0148750D01*
X0085856Y0151230D01*
X0085611Y0151230D01*
X0085132Y0151134D01*
X0084681Y0150947D01*
X0084275Y0150676D01*
X0083930Y0150331D01*
X0083658Y0149924D01*
X0083471Y0149473D01*
X0083376Y0148994D01*
X0083376Y0148750D01*
X0085855Y0148750D01*
X0083376Y0148750D01*
X0083376Y0148506D01*
X0083471Y0148027D01*
X0083658Y0147575D01*
X0083930Y0147169D01*
X0084275Y0146824D01*
X0084681Y0146553D01*
X0085132Y0146366D01*
X0085856Y0146424D02*
X0085856Y0146424D01*
X0086720Y0146424D02*
X0091241Y0146424D01*
X0091382Y0146366D02*
X0091861Y0146270D01*
X0092106Y0146270D01*
X0092350Y0146270D01*
X0092829Y0146366D01*
X0093280Y0146553D01*
X0093686Y0146824D01*
X0094032Y0147169D01*
X0094303Y0147575D01*
X0094490Y0148027D01*
X0094585Y0148506D01*
X0094585Y0148750D01*
X0094585Y0148994D01*
X0094490Y0149473D01*
X0094303Y0149924D01*
X0094032Y0150331D01*
X0093686Y0150676D01*
X0093280Y0150947D01*
X0092829Y0151134D01*
X0092350Y0151230D01*
X0092106Y0151230D01*
X0092106Y0148750D01*
X0094585Y0148750D01*
X0092106Y0148750D01*
X0092106Y0148750D01*
X0092106Y0148750D01*
X0092106Y0146270D01*
X0092106Y0148750D01*
X0092106Y0148750D01*
X0092106Y0151230D01*
X0091861Y0151230D01*
X0091382Y0151134D01*
X0090931Y0150947D01*
X0090525Y0150676D01*
X0090180Y0150331D01*
X0089908Y0149924D01*
X0089721Y0149473D01*
X0089626Y0148994D01*
X0089626Y0148750D01*
X0092105Y0148750D01*
X0089626Y0148750D01*
X0089626Y0148506D01*
X0089721Y0148027D01*
X0089908Y0147575D01*
X0090180Y0147169D01*
X0090525Y0146824D01*
X0090931Y0146553D01*
X0091382Y0146366D01*
X0092106Y0146424D02*
X0092106Y0146424D01*
X0092970Y0146424D02*
X0097491Y0146424D01*
X0097632Y0146366D02*
X0098111Y0146270D01*
X0098356Y0146270D01*
X0098600Y0146270D01*
X0099079Y0146366D01*
X0099530Y0146553D01*
X0099936Y0146824D01*
X0100282Y0147169D01*
X0100553Y0147575D01*
X0100740Y0148027D01*
X0100835Y0148506D01*
X0100835Y0148750D01*
X0100835Y0148994D01*
X0100740Y0149473D01*
X0100553Y0149924D01*
X0100282Y0150331D01*
X0099936Y0150676D01*
X0099530Y0150947D01*
X0099079Y0151134D01*
X0098600Y0151230D01*
X0098356Y0151230D01*
X0098356Y0148750D01*
X0100835Y0148750D01*
X0098356Y0148750D01*
X0098356Y0148750D01*
X0098356Y0148750D01*
X0098356Y0146270D01*
X0098356Y0148750D01*
X0098356Y0148750D01*
X0098356Y0151230D01*
X0098111Y0151230D01*
X0097632Y0151134D01*
X0097181Y0150947D01*
X0096775Y0150676D01*
X0096430Y0150331D01*
X0096158Y0149924D01*
X0095971Y0149473D01*
X0095876Y0148994D01*
X0095876Y0148750D01*
X0098355Y0148750D01*
X0095876Y0148750D01*
X0095876Y0148506D01*
X0095971Y0148027D01*
X0096158Y0147575D01*
X0096430Y0147169D01*
X0096775Y0146824D01*
X0097181Y0146553D01*
X0097632Y0146366D01*
X0098356Y0146424D02*
X0098356Y0146424D01*
X0099220Y0146424D02*
X0137982Y0146424D01*
X0138707Y0147623D02*
X0100573Y0147623D01*
X0100835Y0148821D02*
X0137880Y0148821D01*
X0137656Y0150020D02*
X0100489Y0150020D01*
X0098356Y0150020D02*
X0098356Y0150020D01*
X0098356Y0151218D02*
X0098356Y0151218D01*
X0098656Y0151218D02*
X0137897Y0151218D01*
X0138747Y0152417D02*
X0030137Y0152417D01*
X0030137Y0153615D02*
X0145354Y0153615D01*
X0145156Y0153137D02*
X0145156Y0151863D01*
X0145643Y0150687D01*
X0146543Y0149787D01*
X0147719Y0149300D01*
X0148992Y0149300D01*
X0150168Y0149787D01*
X0150856Y0150475D01*
X0151543Y0149787D01*
X0152719Y0149300D01*
X0153992Y0149300D01*
X0155168Y0149787D01*
X0156068Y0150687D01*
X0156556Y0151863D01*
X0156556Y0153137D01*
X0156068Y0154313D01*
X0155381Y0155000D01*
X0156068Y0155687D01*
X0156556Y0156863D01*
X0156556Y0158137D01*
X0156068Y0159313D01*
X0155168Y0160213D01*
X0153992Y0160700D01*
X0152719Y0160700D01*
X0151543Y0160213D01*
X0150856Y0159525D01*
X0150168Y0160213D01*
X0148992Y0160700D01*
X0147719Y0160700D01*
X0146543Y0160213D01*
X0145643Y0159313D01*
X0145156Y0158137D01*
X0145156Y0156863D01*
X0145643Y0155687D01*
X0146330Y0155000D01*
X0145643Y0154313D01*
X0145156Y0153137D01*
X0145156Y0152417D02*
X0142964Y0152417D01*
X0143815Y0151218D02*
X0145423Y0151218D01*
X0146310Y0150020D02*
X0144056Y0150020D01*
X0143831Y0148821D02*
X0182106Y0148821D01*
X0182106Y0147623D02*
X0143004Y0147623D01*
X0143729Y0146424D02*
X0156325Y0146424D01*
X0156430Y0146581D02*
X0156158Y0146174D01*
X0155971Y0145723D01*
X0155876Y0145244D01*
X0155876Y0145000D01*
X0158355Y0145000D01*
X0155876Y0145000D01*
X0155876Y0144756D01*
X0155971Y0144277D01*
X0156158Y0143825D01*
X0156430Y0143419D01*
X0156775Y0143074D01*
X0157181Y0142803D01*
X0157632Y0142616D01*
X0158111Y0142520D01*
X0158356Y0142520D01*
X0158600Y0142520D01*
X0159079Y0142616D01*
X0159530Y0142803D01*
X0159936Y0143074D01*
X0160282Y0143419D01*
X0160553Y0143825D01*
X0160740Y0144277D01*
X0160835Y0144756D01*
X0160835Y0145000D01*
X0160835Y0145244D01*
X0160740Y0145723D01*
X0160553Y0146174D01*
X0160282Y0146581D01*
X0159936Y0146926D01*
X0159530Y0147197D01*
X0159079Y0147384D01*
X0158600Y0147480D01*
X0158356Y0147480D01*
X0158356Y0145000D01*
X0160835Y0145000D01*
X0158356Y0145000D01*
X0158356Y0145000D01*
X0158356Y0145000D01*
X0158356Y0142520D01*
X0158356Y0145000D01*
X0158356Y0145000D01*
X0158356Y0147480D01*
X0158111Y0147480D01*
X0157632Y0147384D01*
X0157181Y0147197D01*
X0156775Y0146926D01*
X0156430Y0146581D01*
X0155876Y0145226D02*
X0144056Y0145226D01*
X0143916Y0144027D02*
X0156075Y0144027D01*
X0157142Y0142829D02*
X0143210Y0142829D01*
X0143644Y0141630D02*
X0182106Y0141630D01*
X0182106Y0142829D02*
X0164569Y0142829D01*
X0164530Y0142803D02*
X0164936Y0143074D01*
X0165282Y0143419D01*
X0165553Y0143825D01*
X0165740Y0144277D01*
X0165835Y0144756D01*
X0165835Y0145000D01*
X0165835Y0145244D01*
X0165740Y0145723D01*
X0165553Y0146174D01*
X0165282Y0146581D01*
X0164936Y0146926D01*
X0164530Y0147197D01*
X0164079Y0147384D01*
X0163600Y0147480D01*
X0163356Y0147480D01*
X0163356Y0145000D01*
X0165835Y0145000D01*
X0163356Y0145000D01*
X0163356Y0145000D01*
X0163356Y0145000D01*
X0163356Y0142520D01*
X0163600Y0142520D01*
X0164079Y0142616D01*
X0164530Y0142803D01*
X0163356Y0142829D02*
X0163356Y0142829D01*
X0163356Y0142520D02*
X0163356Y0145000D01*
X0163356Y0145000D01*
X0163356Y0147480D01*
X0163111Y0147480D01*
X0162632Y0147384D01*
X0162181Y0147197D01*
X0161775Y0146926D01*
X0161430Y0146581D01*
X0161158Y0146174D01*
X0160971Y0145723D01*
X0160876Y0145244D01*
X0160876Y0145000D01*
X0163355Y0145000D01*
X0160876Y0145000D01*
X0160876Y0144756D01*
X0160971Y0144277D01*
X0161158Y0143825D01*
X0161430Y0143419D01*
X0161775Y0143074D01*
X0162181Y0142803D01*
X0162632Y0142616D01*
X0163111Y0142520D01*
X0163356Y0142520D01*
X0162142Y0142829D02*
X0159569Y0142829D01*
X0158356Y0142829D02*
X0158356Y0142829D01*
X0158356Y0144027D02*
X0158356Y0144027D01*
X0158355Y0145000D02*
X0158355Y0145000D01*
X0158356Y0145226D02*
X0158356Y0145226D01*
X0158356Y0146424D02*
X0158356Y0146424D01*
X0160386Y0146424D02*
X0161325Y0146424D01*
X0160876Y0145226D02*
X0160835Y0145226D01*
X0160637Y0144027D02*
X0161075Y0144027D01*
X0163356Y0144027D02*
X0163356Y0144027D01*
X0163355Y0145000D02*
X0163355Y0145000D01*
X0163356Y0145226D02*
X0163356Y0145226D01*
X0163356Y0146424D02*
X0163356Y0146424D01*
X0165386Y0146424D02*
X0182106Y0146424D01*
X0182106Y0145226D02*
X0165835Y0145226D01*
X0165637Y0144027D02*
X0182106Y0144027D01*
X0184399Y0140432D02*
X0148930Y0140432D01*
X0149032Y0140331D02*
X0148686Y0140676D01*
X0148280Y0140947D01*
X0147829Y0141134D01*
X0147350Y0141230D01*
X0147106Y0141230D01*
X0147106Y0138750D01*
X0149585Y0138750D01*
X0149585Y0138994D01*
X0149490Y0139473D01*
X0149303Y0139924D01*
X0149032Y0140331D01*
X0149538Y0139233D02*
X0251565Y0139233D01*
X0251899Y0140432D02*
X0247312Y0140432D01*
X0248193Y0141630D02*
X0251018Y0141630D01*
X0250880Y0138035D02*
X0149491Y0138035D01*
X0149490Y0138027D02*
X0149585Y0138506D01*
X0149585Y0138750D01*
X0147106Y0138750D01*
X0147106Y0138750D01*
X0147106Y0138750D01*
X0147106Y0136270D01*
X0147350Y0136270D01*
X0147829Y0136366D01*
X0148280Y0136553D01*
X0148686Y0136824D01*
X0149032Y0137169D01*
X0149303Y0137575D01*
X0149490Y0138027D01*
X0148698Y0136836D02*
X0250933Y0136836D01*
X0251694Y0135638D02*
X0030137Y0135638D01*
X0030137Y0136836D02*
X0140132Y0136836D01*
X0141580Y0136836D02*
X0145513Y0136836D01*
X0145525Y0136824D02*
X0145931Y0136553D01*
X0146382Y0136366D01*
X0146861Y0136270D01*
X0147106Y0136270D01*
X0147106Y0138750D01*
X0147106Y0138750D01*
X0147106Y0141230D01*
X0146861Y0141230D01*
X0146382Y0141134D01*
X0145931Y0140947D01*
X0145525Y0140676D01*
X0145180Y0140331D01*
X0144908Y0139924D01*
X0144721Y0139473D01*
X0144626Y0138994D01*
X0144626Y0138750D01*
X0147105Y0138750D01*
X0144626Y0138750D01*
X0144626Y0138506D01*
X0144721Y0138027D01*
X0144908Y0137575D01*
X0145180Y0137169D01*
X0145525Y0136824D01*
X0144720Y0138035D02*
X0143416Y0138035D01*
X0144002Y0139233D02*
X0144674Y0139233D01*
X0145281Y0140432D02*
X0144056Y0140432D01*
X0147106Y0140432D02*
X0147106Y0140432D01*
X0147106Y0139233D02*
X0147106Y0139233D01*
X0147105Y0138750D02*
X0147105Y0138750D01*
X0147106Y0138035D02*
X0147106Y0138035D01*
X0147106Y0136836D02*
X0147106Y0136836D01*
X0138295Y0138035D02*
X0099877Y0138035D01*
X0100722Y0139233D02*
X0137710Y0139233D01*
X0137656Y0140432D02*
X0100798Y0140432D01*
X0096479Y0141630D02*
X0093982Y0141630D01*
X0094032Y0141581D02*
X0093686Y0141926D01*
X0093280Y0142197D01*
X0092829Y0142384D01*
X0092350Y0142480D01*
X0092106Y0142480D01*
X0092106Y0140000D01*
X0094585Y0140000D01*
X0094585Y0140244D01*
X0094490Y0140723D01*
X0094303Y0141174D01*
X0094032Y0141581D01*
X0094548Y0140432D02*
X0095913Y0140432D01*
X0095989Y0139233D02*
X0094472Y0139233D01*
X0094490Y0139277D02*
X0094585Y0139756D01*
X0094585Y0140000D01*
X0092106Y0140000D01*
X0092106Y0140000D01*
X0092106Y0140000D01*
X0092106Y0137520D01*
X0092350Y0137520D01*
X0092829Y0137616D01*
X0093280Y0137803D01*
X0093686Y0138074D01*
X0094032Y0138419D01*
X0094303Y0138825D01*
X0094490Y0139277D01*
X0093627Y0138035D02*
X0096834Y0138035D01*
X0092106Y0138035D02*
X0092106Y0138035D01*
X0092106Y0137520D02*
X0092106Y0140000D01*
X0092106Y0140000D01*
X0092106Y0142480D01*
X0091861Y0142480D01*
X0091382Y0142384D01*
X0090931Y0142197D01*
X0090525Y0141926D01*
X0090180Y0141581D01*
X0089908Y0141174D01*
X0089721Y0140723D01*
X0089626Y0140244D01*
X0089626Y0140000D01*
X0092105Y0140000D01*
X0089626Y0140000D01*
X0089626Y0139756D01*
X0089721Y0139277D01*
X0089908Y0138825D01*
X0090180Y0138419D01*
X0090525Y0138074D01*
X0090931Y0137803D01*
X0091382Y0137616D01*
X0091861Y0137520D01*
X0092106Y0137520D01*
X0090584Y0138035D02*
X0087377Y0138035D01*
X0087436Y0138074D02*
X0087782Y0138419D01*
X0088053Y0138825D01*
X0088240Y0139277D01*
X0088335Y0139756D01*
X0088335Y0140000D01*
X0088335Y0140244D01*
X0088240Y0140723D01*
X0088053Y0141174D01*
X0087782Y0141581D01*
X0087436Y0141926D01*
X0087030Y0142197D01*
X0086579Y0142384D01*
X0086100Y0142480D01*
X0085856Y0142480D01*
X0085856Y0140000D01*
X0088335Y0140000D01*
X0085856Y0140000D01*
X0085856Y0140000D01*
X0085856Y0140000D01*
X0085856Y0137520D01*
X0086100Y0137520D01*
X0086579Y0137616D01*
X0087030Y0137803D01*
X0087436Y0138074D01*
X0088222Y0139233D02*
X0089739Y0139233D01*
X0089663Y0140432D02*
X0088298Y0140432D01*
X0087732Y0141630D02*
X0090229Y0141630D01*
X0092106Y0141630D02*
X0092106Y0141630D01*
X0092106Y0140432D02*
X0092106Y0140432D01*
X0092105Y0140000D02*
X0092105Y0140000D01*
X0092106Y0139233D02*
X0092106Y0139233D01*
X0085856Y0139233D02*
X0085856Y0139233D01*
X0085856Y0140000D02*
X0085856Y0140000D01*
X0085856Y0137520D01*
X0085611Y0137520D01*
X0085132Y0137616D01*
X0084681Y0137803D01*
X0084275Y0138074D01*
X0083930Y0138419D01*
X0083658Y0138825D01*
X0083471Y0139277D01*
X0083376Y0139756D01*
X0083376Y0140000D01*
X0085855Y0140000D01*
X0083376Y0140000D01*
X0083376Y0140244D01*
X0083471Y0140723D01*
X0083658Y0141174D01*
X0083930Y0141581D01*
X0084275Y0141926D01*
X0084681Y0142197D01*
X0085132Y0142384D01*
X0085611Y0142480D01*
X0085856Y0142480D01*
X0085856Y0140000D01*
X0085855Y0140000D02*
X0085855Y0140000D01*
X0085856Y0140432D02*
X0085856Y0140432D01*
X0085856Y0141630D02*
X0085856Y0141630D01*
X0083979Y0141630D02*
X0081482Y0141630D01*
X0081532Y0141581D02*
X0081186Y0141926D01*
X0080780Y0142197D01*
X0080329Y0142384D01*
X0079850Y0142480D01*
X0079606Y0142480D01*
X0079606Y0140000D01*
X0082085Y0140000D01*
X0082085Y0140244D01*
X0081990Y0140723D01*
X0081803Y0141174D01*
X0081532Y0141581D01*
X0082048Y0140432D02*
X0083413Y0140432D01*
X0083489Y0139233D02*
X0081972Y0139233D01*
X0081990Y0139277D02*
X0082085Y0139756D01*
X0082085Y0140000D01*
X0079606Y0140000D01*
X0079606Y0140000D01*
X0079606Y0140000D01*
X0079606Y0137520D01*
X0079850Y0137520D01*
X0080329Y0137616D01*
X0080780Y0137803D01*
X0081186Y0138074D01*
X0081532Y0138419D01*
X0081803Y0138825D01*
X0081990Y0139277D01*
X0081127Y0138035D02*
X0084334Y0138035D01*
X0085856Y0138035D02*
X0085856Y0138035D01*
X0079606Y0138035D02*
X0079606Y0138035D01*
X0079606Y0137520D02*
X0079606Y0140000D01*
X0079606Y0140000D01*
X0079606Y0142480D01*
X0079361Y0142480D01*
X0078882Y0142384D01*
X0078431Y0142197D01*
X0078025Y0141926D01*
X0077680Y0141581D01*
X0077408Y0141174D01*
X0077221Y0140723D01*
X0077126Y0140244D01*
X0077126Y0140000D01*
X0079605Y0140000D01*
X0077126Y0140000D01*
X0077126Y0139756D01*
X0077221Y0139277D01*
X0077408Y0138825D01*
X0077680Y0138419D01*
X0078025Y0138074D01*
X0078431Y0137803D01*
X0078882Y0137616D01*
X0079361Y0137520D01*
X0079606Y0137520D01*
X0078084Y0138035D02*
X0043627Y0138035D01*
X0043686Y0138074D02*
X0044032Y0138419D01*
X0044303Y0138825D01*
X0044490Y0139277D01*
X0044585Y0139756D01*
X0044585Y0140000D01*
X0044585Y0140244D01*
X0044490Y0140723D01*
X0044303Y0141174D01*
X0044032Y0141581D01*
X0043686Y0141926D01*
X0043280Y0142197D01*
X0042829Y0142384D01*
X0042350Y0142480D01*
X0042106Y0142480D01*
X0042106Y0140000D01*
X0044585Y0140000D01*
X0042106Y0140000D01*
X0042106Y0140000D01*
X0042106Y0140000D01*
X0042106Y0137520D01*
X0042350Y0137520D01*
X0042829Y0137616D01*
X0043280Y0137803D01*
X0043686Y0138074D01*
X0044472Y0139233D02*
X0077239Y0139233D01*
X0077163Y0140432D02*
X0044548Y0140432D01*
X0043982Y0141630D02*
X0077729Y0141630D01*
X0079606Y0141630D02*
X0079606Y0141630D01*
X0079606Y0140432D02*
X0079606Y0140432D01*
X0079605Y0140000D02*
X0079605Y0140000D01*
X0079606Y0139233D02*
X0079606Y0139233D01*
X0079606Y0147623D02*
X0079606Y0147623D01*
X0079605Y0148750D02*
X0079605Y0148750D01*
X0079606Y0148821D02*
X0079606Y0148821D01*
X0079606Y0150020D02*
X0079606Y0150020D01*
X0079606Y0151218D02*
X0079606Y0151218D01*
X0079906Y0151218D02*
X0085555Y0151218D01*
X0085856Y0151218D02*
X0085856Y0151218D01*
X0086156Y0151218D02*
X0091805Y0151218D01*
X0092106Y0151218D02*
X0092106Y0151218D01*
X0092406Y0151218D02*
X0098055Y0151218D01*
X0096222Y0150020D02*
X0094239Y0150020D01*
X0094585Y0148821D02*
X0095876Y0148821D01*
X0096139Y0147623D02*
X0094323Y0147623D01*
X0092106Y0147623D02*
X0092106Y0147623D01*
X0092105Y0148750D02*
X0092105Y0148750D01*
X0092106Y0148821D02*
X0092106Y0148821D01*
X0092106Y0150020D02*
X0092106Y0150020D01*
X0089972Y0150020D02*
X0087989Y0150020D01*
X0088335Y0148821D02*
X0089626Y0148821D01*
X0089889Y0147623D02*
X0088073Y0147623D01*
X0085856Y0147623D02*
X0085856Y0147623D01*
X0085855Y0148750D02*
X0085855Y0148750D01*
X0085856Y0148821D02*
X0085856Y0148821D01*
X0085856Y0150020D02*
X0085856Y0150020D01*
X0083722Y0150020D02*
X0081739Y0150020D01*
X0082085Y0148821D02*
X0083376Y0148821D01*
X0083639Y0147623D02*
X0081823Y0147623D01*
X0079305Y0151218D02*
X0030137Y0151218D01*
X0030137Y0150020D02*
X0077472Y0150020D01*
X0077126Y0148821D02*
X0030137Y0148821D01*
X0030137Y0147623D02*
X0077389Y0147623D01*
X0078882Y0155116D02*
X0079361Y0155020D01*
X0079606Y0155020D01*
X0079850Y0155020D01*
X0080329Y0155116D01*
X0080780Y0155303D01*
X0081186Y0155574D01*
X0081532Y0155919D01*
X0081803Y0156325D01*
X0081990Y0156777D01*
X0082085Y0157256D01*
X0082085Y0157500D01*
X0082085Y0157744D01*
X0081990Y0158223D01*
X0081803Y0158674D01*
X0081532Y0159081D01*
X0081186Y0159426D01*
X0080780Y0159697D01*
X0080329Y0159884D01*
X0079850Y0159980D01*
X0079606Y0159980D01*
X0079606Y0157500D01*
X0082085Y0157500D01*
X0079606Y0157500D01*
X0079606Y0157500D01*
X0079606Y0157500D01*
X0079606Y0155020D01*
X0079606Y0157500D01*
X0079606Y0157500D01*
X0079606Y0159980D01*
X0079361Y0159980D01*
X0078882Y0159884D01*
X0078431Y0159697D01*
X0078025Y0159426D01*
X0077680Y0159081D01*
X0077408Y0158674D01*
X0077221Y0158223D01*
X0077126Y0157744D01*
X0077126Y0157500D01*
X0079605Y0157500D01*
X0077126Y0157500D01*
X0077126Y0157256D01*
X0077221Y0156777D01*
X0077408Y0156325D01*
X0077680Y0155919D01*
X0078025Y0155574D01*
X0078431Y0155303D01*
X0078882Y0155116D01*
X0079606Y0156012D02*
X0079606Y0156012D01*
X0079606Y0157211D02*
X0079606Y0157211D01*
X0079605Y0157500D02*
X0079605Y0157500D01*
X0079606Y0158409D02*
X0079606Y0158409D01*
X0079606Y0159608D02*
X0079606Y0159608D01*
X0080914Y0159608D02*
X0084547Y0159608D01*
X0084681Y0159697D02*
X0084275Y0159426D01*
X0083930Y0159081D01*
X0083658Y0158674D01*
X0083471Y0158223D01*
X0083376Y0157744D01*
X0083376Y0157500D01*
X0085855Y0157500D01*
X0083376Y0157500D01*
X0083376Y0157256D01*
X0083471Y0156777D01*
X0083658Y0156325D01*
X0083930Y0155919D01*
X0084275Y0155574D01*
X0084681Y0155303D01*
X0085132Y0155116D01*
X0085611Y0155020D01*
X0085856Y0155020D01*
X0086100Y0155020D01*
X0086579Y0155116D01*
X0087030Y0155303D01*
X0087436Y0155574D01*
X0087782Y0155919D01*
X0088053Y0156325D01*
X0088240Y0156777D01*
X0088335Y0157256D01*
X0088335Y0157500D01*
X0088335Y0157744D01*
X0088240Y0158223D01*
X0088053Y0158674D01*
X0087782Y0159081D01*
X0087436Y0159426D01*
X0087030Y0159697D01*
X0086579Y0159884D01*
X0086100Y0159980D01*
X0085856Y0159980D01*
X0085856Y0157500D01*
X0088335Y0157500D01*
X0085856Y0157500D01*
X0085856Y0157500D01*
X0085856Y0157500D01*
X0085856Y0155020D01*
X0085856Y0157500D01*
X0085856Y0157500D01*
X0085856Y0159980D01*
X0085611Y0159980D01*
X0085132Y0159884D01*
X0084681Y0159697D01*
X0085856Y0159608D02*
X0085856Y0159608D01*
X0085856Y0158409D02*
X0085856Y0158409D01*
X0085855Y0157500D02*
X0085855Y0157500D01*
X0085856Y0157211D02*
X0085856Y0157211D01*
X0085856Y0156012D02*
X0085856Y0156012D01*
X0087844Y0156012D02*
X0090117Y0156012D01*
X0090180Y0155919D02*
X0090525Y0155574D01*
X0090931Y0155303D01*
X0091382Y0155116D01*
X0091861Y0155020D01*
X0092106Y0155020D01*
X0092350Y0155020D01*
X0092829Y0155116D01*
X0093280Y0155303D01*
X0093686Y0155574D01*
X0094032Y0155919D01*
X0094303Y0156325D01*
X0094490Y0156777D01*
X0094585Y0157256D01*
X0094585Y0157500D01*
X0094585Y0157744D01*
X0094490Y0158223D01*
X0094303Y0158674D01*
X0094032Y0159081D01*
X0093686Y0159426D01*
X0093280Y0159697D01*
X0092829Y0159884D01*
X0092350Y0159980D01*
X0092106Y0159980D01*
X0092106Y0157500D01*
X0094585Y0157500D01*
X0092106Y0157500D01*
X0092106Y0157500D01*
X0092106Y0157500D01*
X0092106Y0155020D01*
X0092106Y0157500D01*
X0092106Y0157500D01*
X0092106Y0159980D01*
X0091861Y0159980D01*
X0091382Y0159884D01*
X0090931Y0159697D01*
X0090525Y0159426D01*
X0090180Y0159081D01*
X0089908Y0158674D01*
X0089721Y0158223D01*
X0089626Y0157744D01*
X0089626Y0157500D01*
X0092105Y0157500D01*
X0089626Y0157500D01*
X0089626Y0157256D01*
X0089721Y0156777D01*
X0089908Y0156325D01*
X0090180Y0155919D01*
X0089635Y0157211D02*
X0088326Y0157211D01*
X0088163Y0158409D02*
X0089799Y0158409D01*
X0090797Y0159608D02*
X0087164Y0159608D01*
X0083549Y0158409D02*
X0081913Y0158409D01*
X0082076Y0157211D02*
X0083385Y0157211D01*
X0083867Y0156012D02*
X0081594Y0156012D01*
X0077617Y0156012D02*
X0045848Y0156012D01*
X0045848Y0155754D02*
X0045468Y0154838D01*
X0044767Y0154137D01*
X0043851Y0153758D01*
X0042860Y0153758D01*
X0041944Y0154137D01*
X0041243Y0154838D01*
X0040864Y0155754D01*
X0040864Y0156746D01*
X0041243Y0157662D01*
X0041944Y0158363D01*
X0042860Y0158742D01*
X0043851Y0158742D01*
X0044767Y0158363D01*
X0045468Y0157662D01*
X0045848Y0156746D01*
X0045848Y0155754D01*
X0045444Y0154814D02*
X0146144Y0154814D01*
X0145508Y0156012D02*
X0100344Y0156012D01*
X0100282Y0155919D02*
X0100553Y0156325D01*
X0100740Y0156777D01*
X0100835Y0157256D01*
X0100835Y0157500D01*
X0100835Y0157744D01*
X0100740Y0158223D01*
X0100553Y0158674D01*
X0100282Y0159081D01*
X0099936Y0159426D01*
X0099530Y0159697D01*
X0099079Y0159884D01*
X0098600Y0159980D01*
X0098356Y0159980D01*
X0098356Y0157500D01*
X0100835Y0157500D01*
X0098356Y0157500D01*
X0098356Y0157500D01*
X0098356Y0157500D01*
X0098356Y0155020D01*
X0098600Y0155020D01*
X0099079Y0155116D01*
X0099530Y0155303D01*
X0099936Y0155574D01*
X0100282Y0155919D01*
X0100826Y0157211D02*
X0145156Y0157211D01*
X0145269Y0158409D02*
X0100663Y0158409D01*
X0099664Y0159608D02*
X0145938Y0159608D01*
X0150773Y0159608D02*
X0150938Y0159608D01*
X0155773Y0159608D02*
X0182106Y0159608D01*
X0182106Y0160806D02*
X0030137Y0160806D01*
X0030137Y0159608D02*
X0078297Y0159608D01*
X0077299Y0158409D02*
X0044654Y0158409D01*
X0045655Y0157211D02*
X0077135Y0157211D01*
X0078111Y0165020D02*
X0078356Y0165020D01*
X0078600Y0165020D01*
X0079079Y0165116D01*
X0079530Y0165303D01*
X0079936Y0165574D01*
X0080282Y0165919D01*
X0080553Y0166325D01*
X0080740Y0166777D01*
X0080835Y0167256D01*
X0080835Y0167500D01*
X0080835Y0167744D01*
X0080740Y0168223D01*
X0080553Y0168674D01*
X0080282Y0169081D01*
X0079936Y0169426D01*
X0079530Y0169697D01*
X0079079Y0169884D01*
X0078600Y0169980D01*
X0078356Y0169980D01*
X0078356Y0167500D01*
X0080835Y0167500D01*
X0078356Y0167500D01*
X0078356Y0167500D01*
X0078356Y0167500D01*
X0078356Y0165020D01*
X0078356Y0167500D01*
X0078356Y0167500D01*
X0078356Y0169980D01*
X0078111Y0169980D01*
X0077632Y0169884D01*
X0077181Y0169697D01*
X0076775Y0169426D01*
X0076430Y0169081D01*
X0076158Y0168674D01*
X0075971Y0168223D01*
X0075876Y0167744D01*
X0075876Y0167500D01*
X0078355Y0167500D01*
X0075876Y0167500D01*
X0075876Y0167256D01*
X0075971Y0166777D01*
X0076158Y0166325D01*
X0076430Y0165919D01*
X0076775Y0165574D01*
X0077181Y0165303D01*
X0077632Y0165116D01*
X0078111Y0165020D01*
X0078356Y0165601D02*
X0078356Y0165601D01*
X0078356Y0166799D02*
X0078356Y0166799D01*
X0078355Y0167500D02*
X0078355Y0167500D01*
X0078356Y0167998D02*
X0078356Y0167998D01*
X0078356Y0169196D02*
X0078356Y0169196D01*
X0080166Y0169196D02*
X0084045Y0169196D01*
X0083930Y0169081D02*
X0083658Y0168674D01*
X0083471Y0168223D01*
X0083376Y0167744D01*
X0083376Y0167500D01*
X0085855Y0167500D01*
X0083376Y0167500D01*
X0083376Y0167256D01*
X0083471Y0166777D01*
X0083658Y0166325D01*
X0083930Y0165919D01*
X0084275Y0165574D01*
X0084681Y0165303D01*
X0085132Y0165116D01*
X0085611Y0165020D01*
X0085856Y0165020D01*
X0086100Y0165020D01*
X0086579Y0165116D01*
X0087030Y0165303D01*
X0087436Y0165574D01*
X0087782Y0165919D01*
X0088053Y0166325D01*
X0088240Y0166777D01*
X0088335Y0167256D01*
X0088335Y0167500D01*
X0088335Y0167744D01*
X0088240Y0168223D01*
X0088053Y0168674D01*
X0087782Y0169081D01*
X0087436Y0169426D01*
X0087030Y0169697D01*
X0086579Y0169884D01*
X0086100Y0169980D01*
X0085856Y0169980D01*
X0085856Y0167500D01*
X0088335Y0167500D01*
X0085856Y0167500D01*
X0085856Y0167500D01*
X0085856Y0167500D01*
X0085856Y0165020D01*
X0085856Y0167500D01*
X0085856Y0167500D01*
X0085856Y0169980D01*
X0085611Y0169980D01*
X0085132Y0169884D01*
X0084681Y0169697D01*
X0084275Y0169426D01*
X0083930Y0169081D01*
X0083427Y0167998D02*
X0080785Y0167998D01*
X0080744Y0166799D02*
X0083467Y0166799D01*
X0084249Y0165601D02*
X0079963Y0165601D01*
X0076749Y0165601D02*
X0030137Y0165601D01*
X0030137Y0166799D02*
X0075967Y0166799D01*
X0075927Y0167998D02*
X0030137Y0167998D01*
X0030137Y0169196D02*
X0047071Y0169196D01*
X0047461Y0169134D02*
X0052067Y0169134D01*
X0052067Y0174646D01*
X0053267Y0174646D01*
X0053267Y0175846D01*
X0063484Y0175846D01*
X0063352Y0176677D01*
X0063055Y0177592D01*
X0062618Y0178449D01*
X0062053Y0179228D01*
X0061373Y0179908D01*
X0060594Y0180473D01*
X0059737Y0180910D01*
X0058822Y0181207D01*
X0057872Y0181358D01*
X0053267Y0181358D01*
X0053267Y0175846D01*
X0052067Y0175846D01*
X0052067Y0181358D01*
X0047461Y0181358D01*
X0046511Y0181207D01*
X0045596Y0180910D01*
X0044739Y0180473D01*
X0043961Y0179908D01*
X0043280Y0179228D01*
X0042715Y0178449D01*
X0042278Y0177592D01*
X0041981Y0176677D01*
X0041849Y0175846D01*
X0052067Y0175846D01*
X0052067Y0174646D01*
X0041849Y0174646D01*
X0041981Y0173815D01*
X0042278Y0172900D01*
X0042715Y0172043D01*
X0043280Y0171264D01*
X0043961Y0170584D01*
X0044739Y0170019D01*
X0045596Y0169582D01*
X0046511Y0169285D01*
X0047461Y0169134D01*
X0044222Y0170395D02*
X0030137Y0170395D01*
X0030137Y0171593D02*
X0043042Y0171593D01*
X0042333Y0172792D02*
X0030137Y0172792D01*
X0030137Y0173990D02*
X0041953Y0173990D01*
X0041935Y0176387D02*
X0030137Y0176387D01*
X0030137Y0175189D02*
X0052067Y0175189D01*
X0052067Y0176387D02*
X0053267Y0176387D01*
X0053267Y0175189D02*
X0131642Y0175189D01*
X0131846Y0175325D02*
X0131324Y0174976D01*
X0130880Y0174532D01*
X0130531Y0174010D01*
X0130291Y0173430D01*
X0130168Y0172814D01*
X0130168Y0172500D01*
X0130168Y0172186D01*
X0130291Y0171570D01*
X0130531Y0170990D01*
X0130880Y0170468D01*
X0131324Y0170024D01*
X0131846Y0169675D01*
X0132426Y0169435D01*
X0133042Y0169313D01*
X0133356Y0169313D01*
X0133670Y0169313D01*
X0134285Y0169435D01*
X0134865Y0169675D01*
X0135387Y0170024D01*
X0135831Y0170468D01*
X0136180Y0170990D01*
X0136421Y0171570D01*
X0136543Y0172186D01*
X0136543Y0172500D01*
X0136543Y0172814D01*
X0136421Y0173430D01*
X0136180Y0174010D01*
X0135831Y0174532D01*
X0135387Y0174976D01*
X0134865Y0175325D01*
X0134285Y0175565D01*
X0133670Y0175687D01*
X0133356Y0175687D01*
X0133356Y0172500D01*
X0136543Y0172500D01*
X0133356Y0172500D01*
X0133356Y0172500D01*
X0133356Y0172500D01*
X0133356Y0169313D01*
X0133356Y0172500D01*
X0133356Y0172500D01*
X0133356Y0175687D01*
X0133042Y0175687D01*
X0132426Y0175565D01*
X0131846Y0175325D01*
X0133356Y0175189D02*
X0133356Y0175189D01*
X0133356Y0173990D02*
X0133356Y0173990D01*
X0133356Y0172792D02*
X0133356Y0172792D01*
X0133355Y0172500D02*
X0133355Y0172500D01*
X0130168Y0172500D01*
X0133355Y0172500D01*
X0133356Y0171593D02*
X0133356Y0171593D01*
X0133356Y0170395D02*
X0133356Y0170395D01*
X0135758Y0170395D02*
X0143656Y0170395D01*
X0143656Y0171593D02*
X0136425Y0171593D01*
X0136543Y0172792D02*
X0144500Y0172792D01*
X0143656Y0171947D02*
X0143656Y0168053D01*
X0146409Y0165300D01*
X0150302Y0165300D01*
X0153056Y0168053D01*
X0153056Y0171947D01*
X0150302Y0174700D01*
X0146409Y0174700D01*
X0143656Y0171947D01*
X0145699Y0173990D02*
X0136188Y0173990D01*
X0135069Y0175189D02*
X0182106Y0175189D01*
X0182106Y0176387D02*
X0171390Y0176387D01*
X0170302Y0175300D02*
X0173056Y0178053D01*
X0173056Y0181947D01*
X0170302Y0184700D01*
X0166409Y0184700D01*
X0163656Y0181947D01*
X0163656Y0178053D01*
X0166409Y0175300D01*
X0170302Y0175300D01*
X0170302Y0174700D02*
X0166409Y0174700D01*
X0163656Y0171947D01*
X0163656Y0168053D01*
X0166409Y0165300D01*
X0170302Y0165300D01*
X0173056Y0168053D01*
X0173056Y0171947D01*
X0170302Y0174700D01*
X0171012Y0173990D02*
X0182106Y0173990D01*
X0182106Y0172792D02*
X0172211Y0172792D01*
X0173056Y0171593D02*
X0182106Y0171593D01*
X0182106Y0170395D02*
X0173056Y0170395D01*
X0173056Y0169196D02*
X0182106Y0169196D01*
X0182106Y0167998D02*
X0173000Y0167998D01*
X0171801Y0166799D02*
X0182106Y0166799D01*
X0182106Y0165601D02*
X0170603Y0165601D01*
X0166108Y0165601D02*
X0160603Y0165601D01*
X0160302Y0165300D02*
X0163056Y0168053D01*
X0163056Y0171947D01*
X0160302Y0174700D01*
X0156409Y0174700D01*
X0153656Y0171947D01*
X0153656Y0168053D01*
X0156409Y0165300D01*
X0160302Y0165300D01*
X0161801Y0166799D02*
X0164910Y0166799D01*
X0163711Y0167998D02*
X0163000Y0167998D01*
X0163056Y0169196D02*
X0163656Y0169196D01*
X0163656Y0170395D02*
X0163056Y0170395D01*
X0163056Y0171593D02*
X0163656Y0171593D01*
X0164500Y0172792D02*
X0162211Y0172792D01*
X0161012Y0173990D02*
X0165699Y0173990D01*
X0165322Y0176387D02*
X0161390Y0176387D01*
X0160302Y0175300D02*
X0163056Y0178053D01*
X0163056Y0181947D01*
X0160302Y0184700D01*
X0156409Y0184700D01*
X0153656Y0181947D01*
X0153656Y0178053D01*
X0156409Y0175300D01*
X0160302Y0175300D01*
X0162588Y0177586D02*
X0164123Y0177586D01*
X0163656Y0178784D02*
X0163056Y0178784D01*
X0163056Y0179983D02*
X0163656Y0179983D01*
X0163656Y0181181D02*
X0163056Y0181181D01*
X0162623Y0182380D02*
X0164089Y0182380D01*
X0165287Y0183578D02*
X0161424Y0183578D01*
X0155287Y0183578D02*
X0151424Y0183578D01*
X0150302Y0184700D02*
X0146409Y0184700D01*
X0143656Y0181947D01*
X0143656Y0178053D01*
X0146409Y0175300D01*
X0150302Y0175300D01*
X0153056Y0178053D01*
X0153056Y0181947D01*
X0150302Y0184700D01*
X0152623Y0182380D02*
X0154089Y0182380D01*
X0153656Y0181181D02*
X0153056Y0181181D01*
X0153056Y0179983D02*
X0153656Y0179983D01*
X0153656Y0178784D02*
X0153056Y0178784D01*
X0152588Y0177586D02*
X0154123Y0177586D01*
X0155322Y0176387D02*
X0151390Y0176387D01*
X0151012Y0173990D02*
X0155699Y0173990D01*
X0154500Y0172792D02*
X0152211Y0172792D01*
X0153056Y0171593D02*
X0153656Y0171593D01*
X0153656Y0170395D02*
X0153056Y0170395D01*
X0153056Y0169196D02*
X0153656Y0169196D01*
X0153711Y0167998D02*
X0153000Y0167998D01*
X0151801Y0166799D02*
X0154910Y0166799D01*
X0156108Y0165601D02*
X0150603Y0165601D01*
X0146108Y0165601D02*
X0087463Y0165601D01*
X0088244Y0166799D02*
X0144910Y0166799D01*
X0143711Y0167998D02*
X0088285Y0167998D01*
X0087666Y0169196D02*
X0143656Y0169196D01*
X0145322Y0176387D02*
X0063398Y0176387D01*
X0063057Y0177586D02*
X0144123Y0177586D01*
X0143656Y0178784D02*
X0062375Y0178784D01*
X0061270Y0179983D02*
X0143656Y0179983D01*
X0143656Y0181181D02*
X0058903Y0181181D01*
X0061008Y0183834D02*
X0063259Y0182901D01*
X0065696Y0182901D01*
X0067947Y0183834D01*
X0069670Y0185556D01*
X0070602Y0187807D01*
X0070602Y0199693D01*
X0069670Y0201944D01*
X0067947Y0203666D01*
X0065696Y0204599D01*
X0063259Y0204599D01*
X0061008Y0203666D01*
X0059286Y0201944D01*
X0058353Y0199693D01*
X0058353Y0187807D01*
X0059286Y0185556D01*
X0061008Y0183834D01*
X0061625Y0183578D02*
X0043627Y0183578D01*
X0043202Y0183362D02*
X0044059Y0183798D01*
X0044837Y0184364D01*
X0045517Y0185044D01*
X0046083Y0185822D01*
X0046520Y0186679D01*
X0046817Y0187594D01*
X0046967Y0188545D01*
X0046967Y0193150D01*
X0041456Y0193150D01*
X0041456Y0194350D01*
X0046967Y0194350D01*
X0046967Y0198955D01*
X0046817Y0199906D01*
X0046520Y0200821D01*
X0046083Y0201678D01*
X0045517Y0202456D01*
X0044837Y0203136D01*
X0044059Y0203702D01*
X0043202Y0204138D01*
X0042287Y0204436D01*
X0041456Y0204567D01*
X0041456Y0194350D01*
X0040256Y0194350D01*
X0040256Y0204567D01*
X0039424Y0204436D01*
X0038510Y0204138D01*
X0037652Y0203702D01*
X0036874Y0203136D01*
X0036194Y0202456D01*
X0035628Y0201678D01*
X0035192Y0200821D01*
X0034894Y0199906D01*
X0034744Y0198955D01*
X0034744Y0194350D01*
X0040256Y0194350D01*
X0040256Y0193150D01*
X0041456Y0193150D01*
X0041456Y0182933D01*
X0042287Y0183064D01*
X0043202Y0183362D01*
X0041456Y0183578D02*
X0040256Y0183578D01*
X0040256Y0182933D02*
X0040256Y0193150D01*
X0034744Y0193150D01*
X0034744Y0188545D01*
X0034894Y0187594D01*
X0035192Y0186679D01*
X0035628Y0185822D01*
X0036194Y0185044D01*
X0036874Y0184364D01*
X0037652Y0183798D01*
X0038510Y0183362D01*
X0039424Y0183064D01*
X0040256Y0182933D01*
X0040256Y0184777D02*
X0041456Y0184777D01*
X0041456Y0185975D02*
X0040256Y0185975D01*
X0040256Y0187174D02*
X0041456Y0187174D01*
X0041456Y0188372D02*
X0040256Y0188372D01*
X0040256Y0189571D02*
X0041456Y0189571D01*
X0041456Y0190769D02*
X0040256Y0190769D01*
X0040256Y0191968D02*
X0041456Y0191968D01*
X0041456Y0193166D02*
X0058353Y0193166D01*
X0058353Y0191968D02*
X0046967Y0191968D01*
X0046967Y0190769D02*
X0058353Y0190769D01*
X0058353Y0189571D02*
X0046967Y0189571D01*
X0046940Y0188372D02*
X0058353Y0188372D01*
X0058616Y0187174D02*
X0046680Y0187174D01*
X0046161Y0185975D02*
X0059112Y0185975D01*
X0060065Y0184777D02*
X0045250Y0184777D01*
X0046430Y0181181D02*
X0030137Y0181181D01*
X0030137Y0179983D02*
X0044064Y0179983D01*
X0042958Y0178784D02*
X0030137Y0178784D01*
X0030137Y0177586D02*
X0042276Y0177586D01*
X0038084Y0183578D02*
X0030137Y0183578D01*
X0030137Y0182380D02*
X0144089Y0182380D01*
X0145287Y0183578D02*
X0067330Y0183578D01*
X0068890Y0184777D02*
X0081568Y0184777D01*
X0081543Y0184787D02*
X0082719Y0184300D01*
X0083992Y0184300D01*
X0085168Y0184787D01*
X0085856Y0185475D01*
X0086543Y0184787D01*
X0087719Y0184300D01*
X0088992Y0184300D01*
X0090168Y0184787D01*
X0090856Y0185475D01*
X0091543Y0184787D01*
X0092719Y0184300D01*
X0093992Y0184300D01*
X0095168Y0184787D01*
X0096068Y0185687D01*
X0096556Y0186863D01*
X0096556Y0188137D01*
X0096068Y0189313D01*
X0095168Y0190213D01*
X0093992Y0190700D01*
X0092719Y0190700D01*
X0091543Y0190213D01*
X0090856Y0189525D01*
X0090168Y0190213D01*
X0088992Y0190700D01*
X0087719Y0190700D01*
X0086543Y0190213D01*
X0085856Y0189525D01*
X0085168Y0190213D01*
X0083992Y0190700D01*
X0082719Y0190700D01*
X0081543Y0190213D01*
X0080643Y0189313D01*
X0080156Y0188137D01*
X0080156Y0186863D01*
X0080643Y0185687D01*
X0081543Y0184787D01*
X0080524Y0185975D02*
X0069843Y0185975D01*
X0070340Y0187174D02*
X0080156Y0187174D01*
X0080253Y0188372D02*
X0070602Y0188372D01*
X0070602Y0189571D02*
X0080901Y0189571D01*
X0085810Y0189571D02*
X0085901Y0189571D01*
X0090810Y0189571D02*
X0090901Y0189571D01*
X0095810Y0189571D02*
X0171239Y0189571D01*
X0170041Y0190769D02*
X0070602Y0190769D01*
X0070602Y0191968D02*
X0168842Y0191968D01*
X0167644Y0193166D02*
X0070602Y0193166D01*
X0070602Y0194365D02*
X0166445Y0194365D01*
X0165247Y0195563D02*
X0070602Y0195563D01*
X0070602Y0196762D02*
X0164048Y0196762D01*
X0160611Y0197960D02*
X0154101Y0197960D01*
X0155737Y0199159D02*
X0158974Y0199159D01*
X0158274Y0200357D02*
X0156438Y0200357D01*
X0156756Y0201556D02*
X0157956Y0201556D01*
X0157956Y0202754D02*
X0156756Y0202754D01*
X0156756Y0203953D02*
X0157956Y0203953D01*
X0157956Y0205151D02*
X0156756Y0205151D01*
X0156756Y0206350D02*
X0157956Y0206350D01*
X0157956Y0207548D02*
X0156756Y0207548D01*
X0156756Y0208747D02*
X0157956Y0208747D01*
X0158399Y0209945D02*
X0156312Y0209945D01*
X0148399Y0209945D02*
X0146312Y0209945D01*
X0146756Y0208747D02*
X0147956Y0208747D01*
X0147956Y0207548D02*
X0146756Y0207548D01*
X0146756Y0206350D02*
X0147956Y0206350D01*
X0147956Y0205151D02*
X0146756Y0205151D01*
X0146756Y0203953D02*
X0147956Y0203953D01*
X0147956Y0202754D02*
X0146756Y0202754D01*
X0146756Y0201556D02*
X0147956Y0201556D01*
X0148274Y0200357D02*
X0146438Y0200357D01*
X0145737Y0199159D02*
X0148974Y0199159D01*
X0150611Y0197960D02*
X0144101Y0197960D01*
X0140611Y0197960D02*
X0134091Y0197960D01*
X0134040Y0197934D02*
X0134655Y0198248D01*
X0135214Y0198653D01*
X0135702Y0199142D01*
X0136108Y0199700D01*
X0136422Y0200316D01*
X0136635Y0200973D01*
X0136743Y0201655D01*
X0136743Y0204600D01*
X0132756Y0204600D01*
X0132756Y0197621D01*
X0133383Y0197721D01*
X0134040Y0197934D01*
X0132756Y0197960D02*
X0131956Y0197960D01*
X0131956Y0197621D02*
X0131956Y0204600D01*
X0127968Y0204600D01*
X0127968Y0201655D01*
X0128076Y0200973D01*
X0128290Y0200316D01*
X0128603Y0199700D01*
X0129009Y0199142D01*
X0129497Y0198653D01*
X0130056Y0198248D01*
X0130671Y0197934D01*
X0131328Y0197721D01*
X0131956Y0197621D01*
X0130620Y0197960D02*
X0124101Y0197960D01*
X0125737Y0199159D02*
X0128997Y0199159D01*
X0128276Y0200357D02*
X0126438Y0200357D01*
X0126756Y0201556D02*
X0127984Y0201556D01*
X0127968Y0202754D02*
X0126756Y0202754D01*
X0126756Y0203953D02*
X0127968Y0203953D01*
X0126756Y0205151D02*
X0131956Y0205151D01*
X0132756Y0205151D02*
X0137956Y0205151D01*
X0137956Y0203953D02*
X0136743Y0203953D01*
X0136743Y0202754D02*
X0137956Y0202754D01*
X0137956Y0201556D02*
X0136727Y0201556D01*
X0136435Y0200357D02*
X0138274Y0200357D01*
X0138974Y0199159D02*
X0135715Y0199159D01*
X0132756Y0199159D02*
X0131956Y0199159D01*
X0131956Y0200357D02*
X0132756Y0200357D01*
X0132756Y0201556D02*
X0131956Y0201556D01*
X0131956Y0202754D02*
X0132756Y0202754D01*
X0132756Y0203953D02*
X0131956Y0203953D01*
X0127968Y0206350D02*
X0126756Y0206350D01*
X0126756Y0207548D02*
X0127968Y0207548D01*
X0128032Y0208747D02*
X0126756Y0208747D01*
X0126312Y0209945D02*
X0128423Y0209945D01*
X0136288Y0209945D02*
X0138399Y0209945D01*
X0137956Y0208747D02*
X0136679Y0208747D01*
X0136743Y0207548D02*
X0137956Y0207548D01*
X0137956Y0206350D02*
X0136743Y0206350D01*
X0120611Y0197960D02*
X0114101Y0197960D01*
X0115737Y0199159D02*
X0118974Y0199159D01*
X0118274Y0200357D02*
X0116438Y0200357D01*
X0116756Y0201556D02*
X0117956Y0201556D01*
X0117956Y0202754D02*
X0116756Y0202754D01*
X0116756Y0203953D02*
X0117956Y0203953D01*
X0117956Y0205151D02*
X0116756Y0205151D01*
X0116756Y0206350D02*
X0117956Y0206350D01*
X0117956Y0207548D02*
X0116756Y0207548D01*
X0116756Y0208747D02*
X0117956Y0208747D01*
X0118399Y0209945D02*
X0116312Y0209945D01*
X0108399Y0209945D02*
X0106312Y0209945D01*
X0106756Y0208747D02*
X0107956Y0208747D01*
X0107956Y0207548D02*
X0106756Y0207548D01*
X0106756Y0206350D02*
X0107956Y0206350D01*
X0107956Y0205151D02*
X0106756Y0205151D01*
X0106756Y0203953D02*
X0107956Y0203953D01*
X0107956Y0202754D02*
X0106756Y0202754D01*
X0106756Y0201556D02*
X0107956Y0201556D01*
X0108274Y0200357D02*
X0106438Y0200357D01*
X0105737Y0199159D02*
X0108974Y0199159D01*
X0110611Y0197960D02*
X0104101Y0197960D01*
X0100611Y0197960D02*
X0092347Y0197960D01*
X0093872Y0199159D02*
X0098974Y0199159D01*
X0098274Y0200357D02*
X0095071Y0200357D01*
X0095622Y0201556D02*
X0097956Y0201556D01*
X0097956Y0202754D02*
X0096118Y0202754D01*
X0096387Y0203953D02*
X0097956Y0203953D01*
X0097956Y0205151D02*
X0096387Y0205151D01*
X0096387Y0206350D02*
X0097956Y0206350D01*
X0097956Y0207548D02*
X0095993Y0207548D01*
X0095496Y0208747D02*
X0097956Y0208747D01*
X0098399Y0209945D02*
X0094768Y0209945D01*
X0081943Y0209945D02*
X0030137Y0209945D01*
X0030137Y0208747D02*
X0081215Y0208747D01*
X0080718Y0207548D02*
X0030137Y0207548D01*
X0030137Y0206350D02*
X0080325Y0206350D01*
X0080325Y0205151D02*
X0030137Y0205151D01*
X0030137Y0203953D02*
X0038145Y0203953D01*
X0036492Y0202754D02*
X0030137Y0202754D01*
X0030137Y0201556D02*
X0035566Y0201556D01*
X0035041Y0200357D02*
X0030137Y0200357D01*
X0030137Y0199159D02*
X0034776Y0199159D01*
X0034744Y0197960D02*
X0030137Y0197960D01*
X0030137Y0196762D02*
X0034744Y0196762D01*
X0034744Y0195563D02*
X0030137Y0195563D01*
X0030137Y0194365D02*
X0034744Y0194365D01*
X0034744Y0191968D02*
X0030137Y0191968D01*
X0030137Y0193166D02*
X0040256Y0193166D01*
X0040256Y0194365D02*
X0041456Y0194365D01*
X0041456Y0195563D02*
X0040256Y0195563D01*
X0040256Y0196762D02*
X0041456Y0196762D01*
X0041456Y0197960D02*
X0040256Y0197960D01*
X0040256Y0199159D02*
X0041456Y0199159D01*
X0041456Y0200357D02*
X0040256Y0200357D01*
X0040256Y0201556D02*
X0041456Y0201556D01*
X0041456Y0202754D02*
X0040256Y0202754D01*
X0040256Y0203953D02*
X0041456Y0203953D01*
X0043566Y0203953D02*
X0061700Y0203953D01*
X0060096Y0202754D02*
X0045219Y0202754D01*
X0046145Y0201556D02*
X0059125Y0201556D01*
X0058629Y0200357D02*
X0046670Y0200357D01*
X0046935Y0199159D02*
X0058353Y0199159D01*
X0058353Y0197960D02*
X0046967Y0197960D01*
X0046967Y0196762D02*
X0058353Y0196762D01*
X0058353Y0195563D02*
X0046967Y0195563D01*
X0046967Y0194365D02*
X0058353Y0194365D01*
X0070602Y0197960D02*
X0084365Y0197960D01*
X0082839Y0199159D02*
X0070602Y0199159D01*
X0070327Y0200357D02*
X0081641Y0200357D01*
X0081089Y0201556D02*
X0069830Y0201556D01*
X0068859Y0202754D02*
X0080593Y0202754D01*
X0080325Y0203953D02*
X0067255Y0203953D01*
X0096458Y0188372D02*
X0172438Y0188372D01*
X0171424Y0183578D02*
X0182106Y0183578D01*
X0182106Y0182380D02*
X0172623Y0182380D01*
X0173056Y0181181D02*
X0182106Y0181181D01*
X0182106Y0179983D02*
X0173056Y0179983D01*
X0173056Y0178784D02*
X0182106Y0178784D01*
X0182106Y0177586D02*
X0172588Y0177586D01*
X0182106Y0184777D02*
X0095143Y0184777D01*
X0096188Y0185975D02*
X0182106Y0185975D01*
X0182106Y0187174D02*
X0096556Y0187174D01*
X0091568Y0184777D02*
X0090143Y0184777D01*
X0086568Y0184777D02*
X0085143Y0184777D01*
X0063484Y0174646D02*
X0053267Y0174646D01*
X0053267Y0169134D01*
X0057872Y0169134D01*
X0058822Y0169285D01*
X0059737Y0169582D01*
X0060594Y0170019D01*
X0061373Y0170584D01*
X0062053Y0171264D01*
X0062618Y0172043D01*
X0063055Y0172900D01*
X0063352Y0173815D01*
X0063484Y0174646D01*
X0063380Y0173990D02*
X0130523Y0173990D01*
X0130168Y0172792D02*
X0063000Y0172792D01*
X0062292Y0171593D02*
X0130286Y0171593D01*
X0130953Y0170395D02*
X0061112Y0170395D01*
X0058262Y0169196D02*
X0076545Y0169196D01*
X0085856Y0169196D02*
X0085856Y0169196D01*
X0085856Y0167998D02*
X0085856Y0167998D01*
X0085855Y0167500D02*
X0085855Y0167500D01*
X0085856Y0166799D02*
X0085856Y0166799D01*
X0085856Y0165601D02*
X0085856Y0165601D01*
X0092106Y0159608D02*
X0092106Y0159608D01*
X0092106Y0158409D02*
X0092106Y0158409D01*
X0092105Y0157500D02*
X0092105Y0157500D01*
X0092106Y0157211D02*
X0092106Y0157211D01*
X0092106Y0156012D02*
X0092106Y0156012D01*
X0094094Y0156012D02*
X0096367Y0156012D01*
X0096430Y0155919D02*
X0096775Y0155574D01*
X0097181Y0155303D01*
X0097632Y0155116D01*
X0098111Y0155020D01*
X0098356Y0155020D01*
X0098356Y0157500D01*
X0098356Y0157500D01*
X0098356Y0159980D01*
X0098111Y0159980D01*
X0097632Y0159884D01*
X0097181Y0159697D01*
X0096775Y0159426D01*
X0096430Y0159081D01*
X0096158Y0158674D01*
X0095971Y0158223D01*
X0095876Y0157744D01*
X0095876Y0157500D01*
X0098355Y0157500D01*
X0095876Y0157500D01*
X0095876Y0157256D01*
X0095971Y0156777D01*
X0096158Y0156325D01*
X0096430Y0155919D01*
X0095885Y0157211D02*
X0094576Y0157211D01*
X0094413Y0158409D02*
X0096049Y0158409D01*
X0097047Y0159608D02*
X0093414Y0159608D01*
X0098356Y0159608D02*
X0098356Y0159608D01*
X0098356Y0158409D02*
X0098356Y0158409D01*
X0098355Y0157500D02*
X0098355Y0157500D01*
X0098356Y0157211D02*
X0098356Y0157211D01*
X0098356Y0156012D02*
X0098356Y0156012D01*
X0098356Y0148821D02*
X0098356Y0148821D01*
X0098355Y0148750D02*
X0098355Y0148750D01*
X0098356Y0147623D02*
X0098356Y0147623D01*
X0060835Y0142829D02*
X0038318Y0142829D01*
X0038335Y0142744D02*
X0038240Y0143223D01*
X0038053Y0143674D01*
X0037782Y0144081D01*
X0037436Y0144426D01*
X0037030Y0144697D01*
X0036579Y0144884D01*
X0036100Y0144980D01*
X0035856Y0144980D01*
X0035856Y0142500D01*
X0038335Y0142500D01*
X0038335Y0142744D01*
X0038335Y0142500D02*
X0035856Y0142500D01*
X0035856Y0142500D01*
X0035856Y0142500D01*
X0035856Y0140020D01*
X0036100Y0140020D01*
X0036579Y0140116D01*
X0037030Y0140303D01*
X0037436Y0140574D01*
X0037782Y0140919D01*
X0038053Y0141325D01*
X0038240Y0141777D01*
X0038335Y0142256D01*
X0038335Y0142500D01*
X0038179Y0141630D02*
X0040229Y0141630D01*
X0040180Y0141581D02*
X0039908Y0141174D01*
X0039721Y0140723D01*
X0039626Y0140244D01*
X0039626Y0140000D01*
X0042105Y0140000D01*
X0039626Y0140000D01*
X0039626Y0139756D01*
X0039721Y0139277D01*
X0039908Y0138825D01*
X0040180Y0138419D01*
X0040525Y0138074D01*
X0040931Y0137803D01*
X0041382Y0137616D01*
X0041861Y0137520D01*
X0042106Y0137520D01*
X0042106Y0140000D01*
X0042106Y0140000D01*
X0042106Y0142480D01*
X0041861Y0142480D01*
X0041382Y0142384D01*
X0040931Y0142197D01*
X0040525Y0141926D01*
X0040180Y0141581D01*
X0039663Y0140432D02*
X0037223Y0140432D01*
X0035856Y0140432D02*
X0035856Y0140432D01*
X0035856Y0140020D02*
X0035856Y0142500D01*
X0035856Y0142500D01*
X0035856Y0144980D01*
X0035611Y0144980D01*
X0035132Y0144884D01*
X0034681Y0144697D01*
X0034275Y0144426D01*
X0033930Y0144081D01*
X0033658Y0143674D01*
X0033471Y0143223D01*
X0033376Y0142744D01*
X0033376Y0142500D01*
X0035855Y0142500D01*
X0033376Y0142500D01*
X0033376Y0142256D01*
X0033471Y0141777D01*
X0033658Y0141325D01*
X0033930Y0140919D01*
X0034275Y0140574D01*
X0034681Y0140303D01*
X0035132Y0140116D01*
X0035611Y0140020D01*
X0035856Y0140020D01*
X0034488Y0140432D02*
X0030137Y0140432D01*
X0030137Y0141630D02*
X0033532Y0141630D01*
X0033393Y0142829D02*
X0030137Y0142829D01*
X0030137Y0144027D02*
X0033894Y0144027D01*
X0035856Y0144027D02*
X0035856Y0144027D01*
X0035856Y0142829D02*
X0035856Y0142829D01*
X0035855Y0142500D02*
X0035855Y0142500D01*
X0035856Y0141630D02*
X0035856Y0141630D01*
X0037817Y0144027D02*
X0059811Y0144027D01*
X0059614Y0145226D02*
X0030137Y0145226D01*
X0030137Y0146424D02*
X0060006Y0146424D01*
X0042106Y0141630D02*
X0042106Y0141630D01*
X0042106Y0140432D02*
X0042106Y0140432D01*
X0042105Y0140000D02*
X0042105Y0140000D01*
X0042106Y0139233D02*
X0042106Y0139233D01*
X0042106Y0138035D02*
X0042106Y0138035D01*
X0040584Y0138035D02*
X0030137Y0138035D01*
X0030137Y0139233D02*
X0039739Y0139233D01*
X0041267Y0154814D02*
X0030137Y0154814D01*
X0030137Y0156012D02*
X0040864Y0156012D01*
X0041056Y0157211D02*
X0030137Y0157211D01*
X0030137Y0158409D02*
X0042057Y0158409D01*
X0030137Y0162005D02*
X0182106Y0162005D01*
X0182106Y0163203D02*
X0030137Y0163203D01*
X0030137Y0164402D02*
X0182106Y0164402D01*
X0182106Y0158409D02*
X0156443Y0158409D01*
X0156556Y0157211D02*
X0182106Y0157211D01*
X0182106Y0156012D02*
X0156203Y0156012D01*
X0155567Y0154814D02*
X0182106Y0154814D01*
X0182106Y0153615D02*
X0156357Y0153615D01*
X0156556Y0152417D02*
X0182106Y0152417D01*
X0182106Y0151218D02*
X0156288Y0151218D01*
X0155401Y0150020D02*
X0182106Y0150020D01*
X0187312Y0140432D02*
X0189399Y0140432D01*
X0192312Y0140432D02*
X0194399Y0140432D01*
X0197312Y0140432D02*
X0199399Y0140432D01*
X0202312Y0140432D02*
X0204399Y0140432D01*
X0207312Y0140432D02*
X0209399Y0140432D01*
X0208518Y0141630D02*
X0208193Y0141630D01*
X0212312Y0140432D02*
X0214399Y0140432D01*
X0213518Y0141630D02*
X0213193Y0141630D01*
X0217312Y0140432D02*
X0219399Y0140432D01*
X0218518Y0141630D02*
X0218193Y0141630D01*
X0222312Y0140432D02*
X0224399Y0140432D01*
X0223518Y0141630D02*
X0223193Y0141630D01*
X0227312Y0140432D02*
X0229399Y0140432D01*
X0228518Y0141630D02*
X0228193Y0141630D01*
X0232312Y0140432D02*
X0234399Y0140432D01*
X0233518Y0141630D02*
X0233193Y0141630D01*
X0237312Y0140432D02*
X0239399Y0140432D01*
X0238518Y0141630D02*
X0238193Y0141630D01*
X0242312Y0140432D02*
X0244399Y0140432D01*
X0243518Y0141630D02*
X0243193Y0141630D01*
X0251770Y0134439D02*
X0228691Y0134439D01*
X0229496Y0133241D02*
X0250965Y0133241D01*
X0250864Y0132042D02*
X0229598Y0132042D01*
X0229425Y0130844D02*
X0228974Y0130844D01*
X0232286Y0130844D02*
X0251488Y0130844D01*
X0255224Y0130844D02*
X0315012Y0130844D01*
X0313813Y0132042D02*
X0255848Y0132042D01*
X0256642Y0133241D02*
X0312615Y0133241D01*
X0311416Y0134439D02*
X0257840Y0134439D01*
X0259039Y0135638D02*
X0310218Y0135638D01*
X0309019Y0136836D02*
X0260237Y0136836D01*
X0261436Y0138035D02*
X0284185Y0138035D01*
X0282765Y0139233D02*
X0262634Y0139233D01*
X0263833Y0140432D02*
X0281566Y0140432D01*
X0281059Y0141630D02*
X0265031Y0141630D01*
X0292526Y0138035D02*
X0307821Y0138035D01*
X0306622Y0139233D02*
X0293947Y0139233D01*
X0295145Y0140432D02*
X0305424Y0140432D01*
X0304225Y0141630D02*
X0295653Y0141630D01*
X0274869Y0117660D02*
X0194491Y0117660D01*
X0195690Y0116462D02*
X0274156Y0116462D01*
X0274156Y0115263D02*
X0196888Y0115263D01*
X0197656Y0114065D02*
X0274156Y0114065D01*
X0274343Y0112866D02*
X0197656Y0112866D01*
X0197656Y0111668D02*
X0275541Y0111668D01*
X0276740Y0110469D02*
X0266411Y0110469D01*
X0266718Y0110162D02*
X0266017Y0110863D01*
X0265101Y0111242D01*
X0264110Y0111242D01*
X0263194Y0110863D01*
X0262493Y0110162D01*
X0262114Y0109246D01*
X0262114Y0108254D01*
X0262493Y0107338D01*
X0263194Y0106637D01*
X0264110Y0106258D01*
X0265101Y0106258D01*
X0266017Y0106637D01*
X0266718Y0107338D01*
X0267098Y0108254D01*
X0267098Y0109246D01*
X0266718Y0110162D01*
X0267087Y0109270D02*
X0276479Y0109270D01*
X0275281Y0108072D02*
X0267022Y0108072D01*
X0266253Y0106873D02*
X0274156Y0106873D01*
X0274156Y0105675D02*
X0254524Y0105675D01*
X0254598Y0105496D02*
X0254218Y0106412D01*
X0253517Y0107113D01*
X0252601Y0107492D01*
X0251610Y0107492D01*
X0250694Y0107113D01*
X0249993Y0106412D01*
X0249614Y0105496D01*
X0249614Y0104504D01*
X0249993Y0103588D01*
X0250694Y0102887D01*
X0251610Y0102508D01*
X0252601Y0102508D01*
X0253517Y0102887D01*
X0254218Y0103588D01*
X0254598Y0104504D01*
X0254598Y0105496D01*
X0254586Y0104476D02*
X0274156Y0104476D01*
X0274156Y0103278D02*
X0253908Y0103278D01*
X0250303Y0103278D02*
X0197656Y0103278D01*
X0197656Y0104476D02*
X0231605Y0104476D01*
X0231944Y0104137D02*
X0232860Y0103758D01*
X0233851Y0103758D01*
X0234767Y0104137D01*
X0235468Y0104838D01*
X0235848Y0105754D01*
X0235848Y0106746D01*
X0235468Y0107662D01*
X0234767Y0108363D01*
X0233851Y0108742D01*
X0232860Y0108742D01*
X0231944Y0108363D01*
X0231243Y0107662D01*
X0230864Y0106746D01*
X0230864Y0105754D01*
X0231243Y0104838D01*
X0231944Y0104137D01*
X0230896Y0105675D02*
X0197656Y0105675D01*
X0197656Y0106873D02*
X0230916Y0106873D01*
X0231653Y0108072D02*
X0197656Y0108072D01*
X0197656Y0109270D02*
X0262124Y0109270D01*
X0262189Y0108072D02*
X0235058Y0108072D01*
X0235795Y0106873D02*
X0250455Y0106873D01*
X0249688Y0105675D02*
X0235815Y0105675D01*
X0235106Y0104476D02*
X0249625Y0104476D01*
X0253757Y0106873D02*
X0262958Y0106873D01*
X0262800Y0110469D02*
X0197656Y0110469D01*
X0191556Y0110469D02*
X0160120Y0110469D01*
X0158922Y0109270D02*
X0191556Y0109270D01*
X0191556Y0108072D02*
X0158906Y0108072D01*
X0161319Y0111668D02*
X0190393Y0111668D01*
X0197656Y0102079D02*
X0275129Y0102079D01*
X0276328Y0100881D02*
X0197656Y0100881D01*
X0197656Y0099682D02*
X0252159Y0099682D01*
X0253356Y0099682D02*
X0253356Y0099682D01*
X0253356Y0098484D02*
X0253356Y0098484D01*
X0253355Y0097500D02*
X0253355Y0097500D01*
X0253356Y0097285D02*
X0253356Y0097285D01*
X0253356Y0096087D02*
X0253356Y0096087D01*
X0255560Y0093690D02*
X0268669Y0093690D01*
X0268376Y0092491D02*
X0255848Y0092491D01*
X0255553Y0091293D02*
X0268680Y0091293D01*
X0270856Y0091293D02*
X0270856Y0091293D01*
X0270856Y0092491D02*
X0270856Y0092491D01*
X0270855Y0092500D02*
X0270855Y0092500D01*
X0270856Y0093690D02*
X0270856Y0093690D01*
X0273043Y0093690D02*
X0273651Y0093690D01*
X0273364Y0092491D02*
X0273335Y0092491D01*
X0273031Y0091293D02*
X0273658Y0091293D01*
X0278060Y0093690D02*
X0318651Y0093690D01*
X0318364Y0092491D02*
X0298853Y0092491D01*
X0300518Y0091293D02*
X0318658Y0091293D01*
X0320151Y0090094D02*
X0300848Y0090094D01*
X0300596Y0088896D02*
X0321116Y0088896D01*
X0322403Y0087697D02*
X0299309Y0087697D01*
X0297403Y0087697D02*
X0265848Y0087697D01*
X0265848Y0087996D02*
X0265468Y0088912D01*
X0264767Y0089613D01*
X0263851Y0089992D01*
X0262860Y0089992D01*
X0261944Y0089613D01*
X0261243Y0088912D01*
X0260864Y0087996D01*
X0260864Y0087004D01*
X0261243Y0086088D01*
X0261944Y0085387D01*
X0262860Y0085008D01*
X0263851Y0085008D01*
X0264767Y0085387D01*
X0265468Y0086088D01*
X0265848Y0087004D01*
X0265848Y0087996D01*
X0265475Y0088896D02*
X0296116Y0088896D01*
X0297632Y0083634D02*
X0297181Y0083447D01*
X0296775Y0083176D01*
X0296430Y0082831D01*
X0296158Y0082424D01*
X0295971Y0081973D01*
X0295876Y0081494D01*
X0295876Y0081250D01*
X0298355Y0081250D01*
X0295876Y0081250D01*
X0295876Y0081006D01*
X0295971Y0080527D01*
X0296158Y0080075D01*
X0296430Y0079669D01*
X0296724Y0079375D01*
X0296430Y0079081D01*
X0296158Y0078674D01*
X0295971Y0078223D01*
X0295876Y0077744D01*
X0295876Y0077500D01*
X0298355Y0077500D01*
X0295876Y0077500D01*
X0295876Y0077256D01*
X0295971Y0076777D01*
X0296158Y0076325D01*
X0296430Y0075919D01*
X0296775Y0075574D01*
X0297181Y0075303D01*
X0297632Y0075116D01*
X0298111Y0075020D01*
X0298356Y0075020D01*
X0298600Y0075020D01*
X0299079Y0075116D01*
X0299530Y0075303D01*
X0299936Y0075574D01*
X0300282Y0075919D01*
X0300553Y0076325D01*
X0300740Y0076777D01*
X0300835Y0077256D01*
X0300835Y0077500D01*
X0300835Y0077744D01*
X0300740Y0078223D01*
X0300553Y0078674D01*
X0300282Y0079081D01*
X0299987Y0079375D01*
X0300282Y0079669D01*
X0300553Y0080075D01*
X0300740Y0080527D01*
X0300835Y0081006D01*
X0300835Y0081250D01*
X0300835Y0081494D01*
X0300740Y0081973D01*
X0300553Y0082424D01*
X0300282Y0082831D01*
X0299936Y0083176D01*
X0299530Y0083447D01*
X0299079Y0083634D01*
X0298600Y0083730D01*
X0298356Y0083730D01*
X0298356Y0081250D01*
X0300835Y0081250D01*
X0298356Y0081250D01*
X0298356Y0081250D01*
X0298356Y0081250D01*
X0298356Y0078770D01*
X0298356Y0077500D01*
X0300835Y0077500D01*
X0298356Y0077500D01*
X0298356Y0077500D01*
X0298356Y0077500D01*
X0298356Y0075020D01*
X0298356Y0077500D01*
X0298356Y0077500D01*
X0298356Y0081250D01*
X0298356Y0081250D01*
X0298356Y0083730D01*
X0298111Y0083730D01*
X0297632Y0083634D01*
X0298356Y0082903D02*
X0298356Y0082903D01*
X0298356Y0081705D02*
X0298356Y0081705D01*
X0298355Y0081250D02*
X0298355Y0081250D01*
X0298356Y0080506D02*
X0298356Y0080506D01*
X0298356Y0079308D02*
X0298356Y0079308D01*
X0298356Y0078109D02*
X0298356Y0078109D01*
X0298355Y0077500D02*
X0298355Y0077500D01*
X0298356Y0076911D02*
X0298356Y0076911D01*
X0298356Y0075712D02*
X0298356Y0075712D01*
X0300074Y0075712D02*
X0319119Y0075712D01*
X0318402Y0076911D02*
X0300766Y0076911D01*
X0300763Y0078109D02*
X0318411Y0078109D01*
X0319139Y0079308D02*
X0300054Y0079308D01*
X0300731Y0080506D02*
X0309325Y0080506D01*
X0309444Y0080387D02*
X0310360Y0080008D01*
X0311351Y0080008D01*
X0312267Y0080387D01*
X0312968Y0081088D01*
X0313348Y0082004D01*
X0313348Y0082996D01*
X0312968Y0083912D01*
X0312267Y0084613D01*
X0311351Y0084992D01*
X0310360Y0084992D01*
X0309444Y0084613D01*
X0308743Y0083912D01*
X0308364Y0082996D01*
X0308364Y0082004D01*
X0308743Y0081088D01*
X0309444Y0080387D01*
X0308488Y0081705D02*
X0300793Y0081705D01*
X0300209Y0082903D02*
X0308364Y0082903D01*
X0308933Y0084102D02*
X0258181Y0084102D01*
X0258348Y0084504D02*
X0257968Y0083588D01*
X0257267Y0082887D01*
X0256351Y0082508D01*
X0255360Y0082508D01*
X0254444Y0082887D01*
X0253743Y0083588D01*
X0253364Y0084504D01*
X0253364Y0085496D01*
X0253743Y0086412D01*
X0254444Y0087113D01*
X0255360Y0087492D01*
X0255864Y0087492D01*
X0255864Y0087996D01*
X0256243Y0088912D01*
X0256944Y0089613D01*
X0257860Y0089992D01*
X0258851Y0089992D01*
X0259767Y0089613D01*
X0260468Y0088912D01*
X0260848Y0087996D01*
X0260848Y0087004D01*
X0260468Y0086088D01*
X0259767Y0085387D01*
X0258851Y0085008D01*
X0258348Y0085008D01*
X0258348Y0084504D01*
X0259557Y0085300D02*
X0262154Y0085300D01*
X0261073Y0086499D02*
X0260638Y0086499D01*
X0260848Y0087697D02*
X0260864Y0087697D01*
X0261236Y0088896D02*
X0260475Y0088896D01*
X0256236Y0088896D02*
X0248096Y0088896D01*
X0246809Y0087697D02*
X0255864Y0087697D01*
X0253830Y0086499D02*
X0247836Y0086499D01*
X0247782Y0086581D02*
X0247436Y0086926D01*
X0247030Y0087197D01*
X0246579Y0087384D01*
X0246100Y0087480D01*
X0245856Y0087480D01*
X0245856Y0085000D01*
X0248335Y0085000D01*
X0248335Y0085244D01*
X0248240Y0085723D01*
X0248053Y0086174D01*
X0247782Y0086581D01*
X0248324Y0085300D02*
X0253364Y0085300D01*
X0253530Y0084102D02*
X0248167Y0084102D01*
X0248240Y0084277D02*
X0248335Y0084756D01*
X0248335Y0085000D01*
X0245856Y0085000D01*
X0245856Y0085000D01*
X0245856Y0085000D01*
X0245856Y0082520D01*
X0246100Y0082520D01*
X0246579Y0082616D01*
X0247030Y0082803D01*
X0247436Y0083074D01*
X0247782Y0083419D01*
X0248053Y0083825D01*
X0248240Y0084277D01*
X0247181Y0082903D02*
X0254428Y0082903D01*
X0254681Y0082197D02*
X0255132Y0082384D01*
X0255611Y0082480D01*
X0255856Y0082480D01*
X0256100Y0082480D01*
X0256579Y0082384D01*
X0257030Y0082197D01*
X0257436Y0081926D01*
X0257782Y0081581D01*
X0258053Y0081174D01*
X0258240Y0080723D01*
X0258335Y0080244D01*
X0258335Y0080000D01*
X0255856Y0080000D01*
X0255856Y0080000D01*
X0258335Y0080000D01*
X0258335Y0079756D01*
X0258240Y0079277D01*
X0258053Y0078825D01*
X0257782Y0078419D01*
X0257436Y0078074D01*
X0257030Y0077803D01*
X0256579Y0077616D01*
X0256100Y0077520D01*
X0255856Y0077520D01*
X0255856Y0080000D01*
X0255856Y0080000D01*
X0255856Y0082480D01*
X0255856Y0080000D01*
X0255856Y0080000D01*
X0255856Y0077520D01*
X0255611Y0077520D01*
X0255132Y0077616D01*
X0254681Y0077803D01*
X0254275Y0078074D01*
X0253930Y0078419D01*
X0253658Y0078825D01*
X0253471Y0079277D01*
X0253376Y0079756D01*
X0253376Y0080000D01*
X0255855Y0080000D01*
X0253376Y0080000D01*
X0253376Y0080244D01*
X0253471Y0080723D01*
X0253658Y0081174D01*
X0253930Y0081581D01*
X0254275Y0081926D01*
X0254681Y0082197D01*
X0254054Y0081705D02*
X0230175Y0081705D01*
X0230843Y0080506D02*
X0253428Y0080506D01*
X0253465Y0079308D02*
X0230766Y0079308D01*
X0230156Y0078109D02*
X0254240Y0078109D01*
X0254444Y0077113D02*
X0255360Y0077492D01*
X0256351Y0077492D01*
X0257267Y0077113D01*
X0257968Y0076412D01*
X0258348Y0075496D01*
X0258348Y0074504D01*
X0257968Y0073588D01*
X0257267Y0072887D01*
X0256351Y0072508D01*
X0255360Y0072508D01*
X0254444Y0072887D01*
X0253743Y0073588D01*
X0253364Y0074504D01*
X0253364Y0075496D01*
X0253743Y0076412D01*
X0254444Y0077113D01*
X0254242Y0076911D02*
X0229062Y0076911D01*
X0227863Y0075712D02*
X0253453Y0075712D01*
X0253364Y0074514D02*
X0212366Y0074514D01*
X0213215Y0073315D02*
X0214396Y0073315D01*
X0213517Y0072117D02*
X0213348Y0072117D01*
X0213364Y0070918D02*
X0212798Y0070918D01*
X0208496Y0073315D02*
X0201716Y0073315D01*
X0202915Y0074514D02*
X0209345Y0074514D01*
X0217315Y0073315D02*
X0254016Y0073315D01*
X0253851Y0072492D02*
X0252860Y0072492D01*
X0251944Y0072113D01*
X0251243Y0071412D01*
X0250864Y0070496D01*
X0250864Y0069504D01*
X0251243Y0068588D01*
X0251944Y0067887D01*
X0252860Y0067508D01*
X0253851Y0067508D01*
X0254767Y0067887D01*
X0255468Y0068588D01*
X0255848Y0069504D01*
X0255848Y0070496D01*
X0255468Y0071412D01*
X0254767Y0072113D01*
X0253851Y0072492D01*
X0254758Y0072117D02*
X0260864Y0072117D01*
X0260864Y0072004D02*
X0261243Y0071088D01*
X0261944Y0070387D01*
X0262860Y0070008D01*
X0263376Y0070008D01*
X0263376Y0070000D01*
X0265855Y0070000D01*
X0263376Y0070000D01*
X0263376Y0069756D01*
X0263471Y0069277D01*
X0263658Y0068825D01*
X0263930Y0068419D01*
X0264275Y0068074D01*
X0264681Y0067803D01*
X0265132Y0067616D01*
X0265611Y0067520D01*
X0265856Y0067520D01*
X0266100Y0067520D01*
X0266579Y0067616D01*
X0267030Y0067803D01*
X0267436Y0068074D01*
X0267782Y0068419D01*
X0268053Y0068825D01*
X0268240Y0069277D01*
X0268335Y0069756D01*
X0268335Y0070000D01*
X0268335Y0070244D01*
X0268240Y0070723D01*
X0268053Y0071174D01*
X0267782Y0071581D01*
X0267436Y0071926D01*
X0267030Y0072197D01*
X0266579Y0072384D01*
X0266100Y0072480D01*
X0265856Y0072480D01*
X0265856Y0070000D01*
X0268335Y0070000D01*
X0265856Y0070000D01*
X0265856Y0070000D01*
X0265856Y0070000D01*
X0265856Y0067520D01*
X0265856Y0070000D01*
X0265856Y0070000D01*
X0265856Y0072480D01*
X0265848Y0072480D01*
X0265848Y0072508D01*
X0266351Y0072508D01*
X0267267Y0072887D01*
X0267968Y0073588D01*
X0268348Y0074504D01*
X0268348Y0075496D01*
X0267968Y0076412D01*
X0267267Y0077113D01*
X0266351Y0077492D01*
X0265360Y0077492D01*
X0264444Y0077113D01*
X0263743Y0076412D01*
X0263364Y0075496D01*
X0263364Y0074992D01*
X0262860Y0074992D01*
X0261944Y0074613D01*
X0261243Y0073912D01*
X0260864Y0072996D01*
X0260864Y0072004D01*
X0261413Y0070918D02*
X0255673Y0070918D01*
X0255848Y0069720D02*
X0263383Y0069720D01*
X0263862Y0068521D02*
X0255401Y0068521D01*
X0251310Y0068521D02*
X0250350Y0068521D01*
X0250282Y0068419D02*
X0250553Y0068825D01*
X0250740Y0069277D01*
X0250835Y0069756D01*
X0250835Y0070000D01*
X0250835Y0070244D01*
X0250740Y0070723D01*
X0250553Y0071174D01*
X0250282Y0071581D01*
X0249936Y0071926D01*
X0249530Y0072197D01*
X0249079Y0072384D01*
X0248600Y0072480D01*
X0248356Y0072480D01*
X0248356Y0070000D01*
X0250835Y0070000D01*
X0248356Y0070000D01*
X0248356Y0070000D01*
X0248356Y0070000D01*
X0248356Y0067520D01*
X0248600Y0067520D01*
X0249079Y0067616D01*
X0249530Y0067803D01*
X0249936Y0068074D01*
X0250282Y0068419D01*
X0250828Y0069720D02*
X0250864Y0069720D01*
X0251038Y0070918D02*
X0250659Y0070918D01*
X0249651Y0072117D02*
X0251953Y0072117D01*
X0248356Y0072117D02*
X0248356Y0072117D01*
X0248356Y0072480D02*
X0248111Y0072480D01*
X0247632Y0072384D01*
X0247181Y0072197D01*
X0246775Y0071926D01*
X0246430Y0071581D01*
X0246158Y0071174D01*
X0245971Y0070723D01*
X0245876Y0070244D01*
X0245876Y0070000D01*
X0248355Y0070000D01*
X0245876Y0070000D01*
X0245876Y0069756D01*
X0245971Y0069277D01*
X0246158Y0068825D01*
X0246430Y0068419D01*
X0246775Y0068074D01*
X0247181Y0067803D01*
X0247632Y0067616D01*
X0248111Y0067520D01*
X0248356Y0067520D01*
X0248356Y0070000D01*
X0248356Y0070000D01*
X0248356Y0072480D01*
X0247060Y0072117D02*
X0224758Y0072117D01*
X0224767Y0072113D02*
X0223851Y0072492D01*
X0222860Y0072492D01*
X0221944Y0072113D01*
X0221243Y0071412D01*
X0220864Y0070496D01*
X0220864Y0069504D01*
X0221243Y0068588D01*
X0221944Y0067887D01*
X0222860Y0067508D01*
X0223851Y0067508D01*
X0224767Y0067887D01*
X0225468Y0068588D01*
X0225848Y0069504D01*
X0225848Y0070496D01*
X0225468Y0071412D01*
X0224767Y0072113D01*
X0225673Y0070918D02*
X0246052Y0070918D01*
X0245883Y0069720D02*
X0225848Y0069720D01*
X0225401Y0068521D02*
X0246362Y0068521D01*
X0248356Y0068521D02*
X0248356Y0068521D01*
X0248356Y0069720D02*
X0248356Y0069720D01*
X0248355Y0070000D02*
X0248355Y0070000D01*
X0248356Y0070918D02*
X0248356Y0070918D01*
X0257695Y0073315D02*
X0260996Y0073315D01*
X0261845Y0074514D02*
X0258348Y0074514D01*
X0258258Y0075712D02*
X0263453Y0075712D01*
X0264242Y0076911D02*
X0257469Y0076911D01*
X0257471Y0078109D02*
X0295949Y0078109D01*
X0295945Y0076911D02*
X0287469Y0076911D01*
X0287267Y0077113D02*
X0286351Y0077492D01*
X0285360Y0077492D01*
X0284444Y0077113D01*
X0283743Y0076412D01*
X0283364Y0075496D01*
X0283364Y0074504D01*
X0283743Y0073588D01*
X0284444Y0072887D01*
X0285360Y0072508D01*
X0286351Y0072508D01*
X0287267Y0072887D01*
X0287968Y0073588D01*
X0288348Y0074504D01*
X0288348Y0075496D01*
X0287968Y0076412D01*
X0287267Y0077113D01*
X0288258Y0075712D02*
X0296637Y0075712D01*
X0296657Y0079308D02*
X0258246Y0079308D01*
X0258283Y0080506D02*
X0295980Y0080506D01*
X0295918Y0081705D02*
X0257657Y0081705D01*
X0257283Y0082903D02*
X0296502Y0082903D01*
X0284242Y0076911D02*
X0282469Y0076911D01*
X0282267Y0077113D02*
X0281351Y0077492D01*
X0280360Y0077492D01*
X0279444Y0077113D01*
X0278743Y0076412D01*
X0278364Y0075496D01*
X0278364Y0074504D01*
X0278743Y0073588D01*
X0279444Y0072887D01*
X0280360Y0072508D01*
X0281351Y0072508D01*
X0282267Y0072887D01*
X0282968Y0073588D01*
X0283348Y0074504D01*
X0283348Y0075496D01*
X0282968Y0076412D01*
X0282267Y0077113D01*
X0283258Y0075712D02*
X0283453Y0075712D01*
X0283364Y0074514D02*
X0283348Y0074514D01*
X0282695Y0073315D02*
X0284016Y0073315D01*
X0287695Y0073315D02*
X0308496Y0073315D01*
X0308364Y0072996D02*
X0308364Y0072004D01*
X0308743Y0071088D01*
X0309444Y0070387D01*
X0310360Y0070008D01*
X0311351Y0070008D01*
X0312267Y0070387D01*
X0312968Y0071088D01*
X0313348Y0072004D01*
X0313348Y0072996D01*
X0312968Y0073912D01*
X0312267Y0074613D01*
X0311351Y0074992D01*
X0310360Y0074992D01*
X0309444Y0074613D01*
X0308743Y0073912D01*
X0308364Y0072996D01*
X0308364Y0072117D02*
X0267151Y0072117D01*
X0265856Y0072117D02*
X0265856Y0072117D01*
X0265856Y0070918D02*
X0265856Y0070918D01*
X0265855Y0070000D02*
X0265855Y0070000D01*
X0265856Y0069720D02*
X0265856Y0069720D01*
X0265856Y0068521D02*
X0265856Y0068521D01*
X0267850Y0068521D02*
X0323356Y0068521D01*
X0323356Y0067323D02*
X0220453Y0067323D01*
X0220848Y0068521D02*
X0221310Y0068521D01*
X0220864Y0069720D02*
X0220651Y0069720D01*
X0221038Y0070918D02*
X0219634Y0070918D01*
X0218194Y0072117D02*
X0221953Y0072117D01*
X0228348Y0082903D02*
X0239428Y0082903D01*
X0239444Y0082887D02*
X0240360Y0082508D01*
X0241351Y0082508D01*
X0242267Y0082887D01*
X0242968Y0083588D01*
X0243348Y0084504D01*
X0243348Y0085496D01*
X0242968Y0086412D01*
X0242267Y0087113D01*
X0241351Y0087492D01*
X0240360Y0087492D01*
X0239444Y0087113D01*
X0238743Y0086412D01*
X0238364Y0085496D01*
X0238364Y0084504D01*
X0238743Y0083588D01*
X0239444Y0082887D01*
X0238530Y0084102D02*
X0227778Y0084102D01*
X0228701Y0085300D02*
X0232154Y0085300D01*
X0231944Y0085387D02*
X0232860Y0085008D01*
X0233851Y0085008D01*
X0234767Y0085387D01*
X0235468Y0086088D01*
X0235848Y0087004D01*
X0235848Y0087996D01*
X0235468Y0088912D01*
X0234767Y0089613D01*
X0233851Y0089992D01*
X0232860Y0089992D01*
X0231944Y0089613D01*
X0231243Y0088912D01*
X0230864Y0087996D01*
X0230864Y0087004D01*
X0231243Y0086088D01*
X0231944Y0085387D01*
X0231073Y0086499D02*
X0228906Y0086499D01*
X0228906Y0087697D02*
X0230864Y0087697D01*
X0231236Y0088896D02*
X0229346Y0088896D01*
X0229598Y0090094D02*
X0243364Y0090094D01*
X0243616Y0088896D02*
X0235475Y0088896D01*
X0235848Y0087697D02*
X0244903Y0087697D01*
X0245132Y0087384D02*
X0244681Y0087197D01*
X0244275Y0086926D01*
X0243930Y0086581D01*
X0243658Y0086174D01*
X0243471Y0085723D01*
X0243376Y0085244D01*
X0243376Y0085000D01*
X0245855Y0085000D01*
X0243376Y0085000D01*
X0243376Y0084756D01*
X0243471Y0084277D01*
X0243658Y0083825D01*
X0243930Y0083419D01*
X0244275Y0083074D01*
X0244681Y0082803D01*
X0245132Y0082616D01*
X0245611Y0082520D01*
X0245856Y0082520D01*
X0245856Y0085000D01*
X0245856Y0085000D01*
X0245856Y0087480D01*
X0245611Y0087480D01*
X0245132Y0087384D01*
X0245856Y0086499D02*
X0245856Y0086499D01*
X0245856Y0085300D02*
X0245856Y0085300D01*
X0245855Y0085000D02*
X0245855Y0085000D01*
X0245856Y0084102D02*
X0245856Y0084102D01*
X0245856Y0082903D02*
X0245856Y0082903D01*
X0244531Y0082903D02*
X0242283Y0082903D01*
X0243181Y0084102D02*
X0243544Y0084102D01*
X0243387Y0085300D02*
X0243348Y0085300D01*
X0242881Y0086499D02*
X0243875Y0086499D01*
X0238830Y0086499D02*
X0235638Y0086499D01*
X0234557Y0085300D02*
X0238364Y0085300D01*
X0243694Y0091293D02*
X0229268Y0091293D01*
X0217422Y0092491D02*
X0205848Y0092491D01*
X0205553Y0091293D02*
X0217114Y0091293D01*
X0201222Y0094888D02*
X0173513Y0094888D01*
X0180856Y0096087D02*
X0180856Y0096087D01*
X0180856Y0097285D02*
X0180856Y0097285D01*
X0180855Y0097500D02*
X0180855Y0097500D01*
X0180856Y0098484D02*
X0180856Y0098484D01*
X0180856Y0099682D02*
X0180856Y0099682D01*
X0182052Y0099682D02*
X0192112Y0099682D01*
X0191066Y0098484D02*
X0183132Y0098484D01*
X0183335Y0097285D02*
X0190864Y0097285D01*
X0191244Y0096087D02*
X0182893Y0096087D01*
X0192983Y0066124D02*
X0323356Y0066124D01*
X0323356Y0069720D02*
X0268328Y0069720D01*
X0268159Y0070918D02*
X0308913Y0070918D01*
X0309345Y0074514D02*
X0288348Y0074514D01*
X0279016Y0073315D02*
X0267695Y0073315D01*
X0268348Y0074514D02*
X0278364Y0074514D01*
X0278453Y0075712D02*
X0268258Y0075712D01*
X0267469Y0076911D02*
X0279242Y0076911D01*
X0265638Y0086499D02*
X0321330Y0086499D01*
X0320864Y0085300D02*
X0264557Y0085300D01*
X0255856Y0081705D02*
X0255856Y0081705D01*
X0255856Y0080506D02*
X0255856Y0080506D01*
X0255855Y0080000D02*
X0255855Y0080000D01*
X0255856Y0079308D02*
X0255856Y0079308D01*
X0255856Y0078109D02*
X0255856Y0078109D01*
X0243002Y0061330D02*
X0273709Y0061330D01*
X0273364Y0060132D02*
X0243348Y0060132D01*
X0243111Y0058933D02*
X0273600Y0058933D01*
X0274813Y0057734D02*
X0241898Y0057734D01*
X0237844Y0056536D02*
X0276057Y0056536D01*
X0277064Y0055337D02*
X0238348Y0055337D01*
X0238196Y0054139D02*
X0278515Y0054139D01*
X0279391Y0052940D02*
X0237320Y0052940D01*
X0253356Y0037360D02*
X0253356Y0037360D01*
X0254138Y0037360D02*
X0257573Y0037360D01*
X0258356Y0037360D02*
X0258356Y0037360D01*
X0258356Y0036161D02*
X0258356Y0036161D01*
X0258355Y0035000D02*
X0258355Y0035000D01*
X0258356Y0034963D02*
X0258356Y0034963D01*
X0258356Y0033764D02*
X0258356Y0033764D01*
X0256199Y0033764D02*
X0255512Y0033764D01*
X0255835Y0034963D02*
X0255876Y0034963D01*
X0256153Y0036161D02*
X0255558Y0036161D01*
X0253356Y0036161D02*
X0253356Y0036161D01*
X0253355Y0035000D02*
X0253355Y0035000D01*
X0253356Y0034963D02*
X0253356Y0034963D01*
X0253356Y0033764D02*
X0253356Y0033764D01*
X0250730Y0021779D02*
X0255982Y0021779D01*
X0254714Y0020581D02*
X0251998Y0020581D01*
X0252546Y0019382D02*
X0254166Y0019382D01*
X0253956Y0018184D02*
X0252756Y0018184D01*
X0252756Y0016985D02*
X0253956Y0016985D01*
X0253956Y0015787D02*
X0252756Y0015787D01*
X0252756Y0014588D02*
X0253956Y0014588D01*
X0253956Y0013390D02*
X0252756Y0013390D01*
X0252756Y0012191D02*
X0253956Y0012191D01*
X0254010Y0010993D02*
X0252701Y0010993D01*
X0244010Y0010993D02*
X0242701Y0010993D01*
X0242756Y0012191D02*
X0243956Y0012191D01*
X0243956Y0013390D02*
X0242756Y0013390D01*
X0242756Y0014588D02*
X0243956Y0014588D01*
X0243956Y0015787D02*
X0242756Y0015787D01*
X0242756Y0016985D02*
X0243956Y0016985D01*
X0243956Y0018184D02*
X0242756Y0018184D01*
X0242546Y0019382D02*
X0244166Y0019382D01*
X0244714Y0020581D02*
X0241998Y0020581D01*
X0240730Y0021779D02*
X0245982Y0021779D01*
X0235982Y0021779D02*
X0230730Y0021779D01*
X0231998Y0020581D02*
X0234714Y0020581D01*
X0234166Y0019382D02*
X0232546Y0019382D01*
X0232756Y0018184D02*
X0233956Y0018184D01*
X0233956Y0016985D02*
X0232756Y0016985D01*
X0232756Y0015787D02*
X0233956Y0015787D01*
X0233956Y0014588D02*
X0232756Y0014588D01*
X0232756Y0013390D02*
X0233956Y0013390D01*
X0233956Y0012191D02*
X0232756Y0012191D01*
X0232701Y0010993D02*
X0234010Y0010993D01*
X0224010Y0010993D02*
X0212701Y0010993D01*
X0212756Y0012191D02*
X0223956Y0012191D01*
X0223956Y0013390D02*
X0212756Y0013390D01*
X0212756Y0014588D02*
X0223956Y0014588D01*
X0223956Y0015787D02*
X0212756Y0015787D01*
X0212756Y0016985D02*
X0223956Y0016985D01*
X0223956Y0018184D02*
X0212756Y0018184D01*
X0212546Y0019382D02*
X0224166Y0019382D01*
X0224714Y0020581D02*
X0211998Y0020581D01*
X0210730Y0021779D02*
X0225982Y0021779D01*
X0205982Y0021779D02*
X0200603Y0021779D01*
X0201904Y0020581D02*
X0204714Y0020581D01*
X0204166Y0019382D02*
X0202520Y0019382D01*
X0202743Y0018184D02*
X0203956Y0018184D01*
X0203956Y0016985D02*
X0202743Y0016985D01*
X0202743Y0015787D02*
X0203956Y0015787D01*
X0203956Y0014588D02*
X0202743Y0014588D01*
X0202743Y0013390D02*
X0203956Y0013390D01*
X0203956Y0012191D02*
X0202743Y0012191D01*
X0202638Y0010993D02*
X0204010Y0010993D01*
X0198756Y0015787D02*
X0197956Y0015787D01*
X0197956Y0016985D02*
X0198756Y0016985D01*
X0198756Y0018184D02*
X0197956Y0018184D01*
X0197956Y0019382D02*
X0198756Y0019382D01*
X0198756Y0020581D02*
X0197956Y0020581D01*
X0197956Y0021779D02*
X0198756Y0021779D01*
X0196109Y0021779D02*
X0190603Y0021779D01*
X0191904Y0020581D02*
X0194807Y0020581D01*
X0194192Y0019382D02*
X0192520Y0019382D01*
X0192743Y0018184D02*
X0193968Y0018184D01*
X0193968Y0016985D02*
X0192743Y0016985D01*
X0192743Y0015787D02*
X0193968Y0015787D01*
X0193968Y0014588D02*
X0192743Y0014588D01*
X0192743Y0013390D02*
X0193968Y0013390D01*
X0193968Y0012191D02*
X0192743Y0012191D01*
X0192638Y0010993D02*
X0194073Y0010993D01*
X0188756Y0015787D02*
X0187956Y0015787D01*
X0187956Y0016985D02*
X0188756Y0016985D01*
X0188756Y0018184D02*
X0187956Y0018184D01*
X0187956Y0019382D02*
X0188756Y0019382D01*
X0188756Y0020581D02*
X0187956Y0020581D01*
X0187956Y0021779D02*
X0188756Y0021779D01*
X0186109Y0021779D02*
X0180730Y0021779D01*
X0181998Y0020581D02*
X0184807Y0020581D01*
X0184192Y0019382D02*
X0182546Y0019382D01*
X0182756Y0018184D02*
X0183968Y0018184D01*
X0183968Y0016985D02*
X0182756Y0016985D01*
X0182756Y0015787D02*
X0183968Y0015787D01*
X0183968Y0014588D02*
X0182756Y0014588D01*
X0182756Y0013390D02*
X0183968Y0013390D01*
X0183968Y0012191D02*
X0182756Y0012191D01*
X0182701Y0010993D02*
X0184073Y0010993D01*
X0174010Y0010993D02*
X0172701Y0010993D01*
X0172756Y0012191D02*
X0173956Y0012191D01*
X0173956Y0013390D02*
X0172756Y0013390D01*
X0172756Y0014588D02*
X0173956Y0014588D01*
X0173956Y0015787D02*
X0172756Y0015787D01*
X0172756Y0016985D02*
X0173956Y0016985D01*
X0173956Y0018184D02*
X0172756Y0018184D01*
X0172546Y0019382D02*
X0174166Y0019382D01*
X0174714Y0020581D02*
X0171998Y0020581D01*
X0170730Y0021779D02*
X0175982Y0021779D01*
X0165982Y0021779D02*
X0160730Y0021779D01*
X0161998Y0020581D02*
X0164714Y0020581D01*
X0164166Y0019382D02*
X0162546Y0019382D01*
X0162756Y0018184D02*
X0163956Y0018184D01*
X0163956Y0016985D02*
X0162756Y0016985D01*
X0162756Y0015787D02*
X0163956Y0015787D01*
X0163956Y0014588D02*
X0162756Y0014588D01*
X0162756Y0013390D02*
X0163956Y0013390D01*
X0163956Y0012191D02*
X0162756Y0012191D01*
X0162701Y0010993D02*
X0164010Y0010993D01*
X0173997Y0043352D02*
X0076858Y0043352D01*
X0076339Y0042154D02*
X0099543Y0042154D01*
X0098554Y0040955D02*
X0074809Y0040955D01*
X0071903Y0040955D02*
X0069776Y0040955D01*
X0068838Y0040955D02*
X0067873Y0040955D01*
X0066936Y0040955D02*
X0064809Y0040955D01*
X0061903Y0040955D02*
X0059809Y0040955D01*
X0056903Y0040955D02*
X0054809Y0040955D01*
X0051903Y0040955D02*
X0049809Y0040955D01*
X0046903Y0040955D02*
X0044809Y0040955D01*
X0041903Y0040955D02*
X0041756Y0040955D01*
X0041756Y0039757D02*
X0081075Y0039757D01*
X0080931Y0039697D02*
X0080525Y0039426D01*
X0080180Y0039081D01*
X0079908Y0038674D01*
X0079721Y0038223D01*
X0079626Y0037744D01*
X0079626Y0037500D01*
X0082105Y0037500D01*
X0079626Y0037500D01*
X0079626Y0037256D01*
X0079721Y0036777D01*
X0079908Y0036325D01*
X0080180Y0035919D01*
X0080525Y0035574D01*
X0080931Y0035303D01*
X0081382Y0035116D01*
X0081861Y0035020D01*
X0082106Y0035020D01*
X0082106Y0037500D01*
X0082106Y0037500D01*
X0082106Y0037500D01*
X0082106Y0039980D01*
X0081861Y0039980D01*
X0081382Y0039884D01*
X0080931Y0039697D01*
X0082106Y0039757D02*
X0082106Y0039757D01*
X0083136Y0039757D02*
X0098364Y0039757D01*
X0098773Y0038558D02*
X0084351Y0038558D01*
X0082106Y0038558D02*
X0082106Y0038558D01*
X0082105Y0037500D02*
X0082105Y0037500D01*
X0082106Y0037360D02*
X0082106Y0037360D01*
X0082106Y0036161D02*
X0082106Y0036161D01*
X0080018Y0036161D02*
X0042003Y0036161D01*
X0041756Y0037360D02*
X0079626Y0037360D01*
X0079860Y0038558D02*
X0041756Y0038558D01*
X0050848Y0054139D02*
X0051942Y0054139D01*
X0051036Y0055337D02*
X0050293Y0055337D01*
X0054769Y0054139D02*
X0208970Y0054139D01*
X0260730Y0021779D02*
X0265982Y0021779D01*
X0264714Y0020581D02*
X0261998Y0020581D01*
X0262546Y0019382D02*
X0264166Y0019382D01*
X0263956Y0018184D02*
X0262756Y0018184D01*
X0262756Y0016985D02*
X0263956Y0016985D01*
X0263956Y0015787D02*
X0262756Y0015787D01*
X0262756Y0014588D02*
X0263956Y0014588D01*
X0263956Y0013390D02*
X0262756Y0013390D01*
X0262756Y0012191D02*
X0263956Y0012191D01*
X0264010Y0010993D02*
X0262701Y0010993D01*
X0272701Y0010993D02*
X0274010Y0010993D01*
X0273956Y0012191D02*
X0272756Y0012191D01*
X0272756Y0013390D02*
X0273956Y0013390D01*
X0273956Y0014588D02*
X0272756Y0014588D01*
X0272756Y0015787D02*
X0273956Y0015787D01*
X0273956Y0016985D02*
X0272756Y0016985D01*
X0272756Y0018184D02*
X0273956Y0018184D01*
X0274166Y0019382D02*
X0272546Y0019382D01*
X0271998Y0020581D02*
X0274714Y0020581D01*
X0275982Y0021779D02*
X0270730Y0021779D01*
X0280730Y0021779D02*
X0303347Y0021779D01*
X0301822Y0020581D02*
X0281998Y0020581D01*
X0282546Y0019382D02*
X0300297Y0019382D01*
X0298771Y0018184D02*
X0282756Y0018184D01*
X0282756Y0016985D02*
X0297246Y0016985D01*
X0295720Y0015787D02*
X0282756Y0015787D01*
X0282756Y0014588D02*
X0294195Y0014588D01*
X0292670Y0013390D02*
X0282756Y0013390D01*
X0282756Y0012191D02*
X0291144Y0012191D01*
X0289619Y0010993D02*
X0282701Y0010993D01*
X0291891Y0027772D02*
X0310974Y0027772D01*
X0312500Y0028970D02*
X0293684Y0028970D01*
X0294882Y0030169D02*
X0314025Y0030169D01*
X0315550Y0031367D02*
X0295544Y0031367D01*
X0296040Y0032566D02*
X0317076Y0032566D01*
X0318601Y0033764D02*
X0296387Y0033764D01*
X0296387Y0034963D02*
X0320126Y0034963D01*
X0321652Y0036161D02*
X0296387Y0036161D01*
X0296071Y0037360D02*
X0323177Y0037360D01*
X0323356Y0038558D02*
X0295575Y0038558D01*
X0294956Y0039757D02*
X0323356Y0039757D01*
X0323356Y0040955D02*
X0293758Y0040955D01*
X0301055Y0055337D02*
X0283348Y0055337D01*
X0282844Y0056536D02*
X0301293Y0056536D01*
X0301711Y0057734D02*
X0280848Y0057734D01*
X0280447Y0058933D02*
X0302334Y0058933D01*
X0303222Y0060132D02*
X0278348Y0060132D01*
X0278002Y0061330D02*
X0304548Y0061330D01*
X0312798Y0070918D02*
X0323356Y0070918D01*
X0323356Y0072117D02*
X0313348Y0072117D01*
X0313215Y0073315D02*
X0323356Y0073315D01*
X0323356Y0074514D02*
X0312366Y0074514D01*
X0322592Y0075712D02*
X0323356Y0075712D01*
X0323309Y0076911D02*
X0323356Y0076911D01*
X0320868Y0080506D02*
X0312386Y0080506D01*
X0313224Y0081705D02*
X0321536Y0081705D01*
X0321928Y0082903D02*
X0313348Y0082903D01*
X0312778Y0084102D02*
X0321030Y0084102D01*
X0151310Y0150020D02*
X0150401Y0150020D01*
X0053267Y0169196D02*
X0052067Y0169196D01*
X0052067Y0170395D02*
X0053267Y0170395D01*
X0053267Y0171593D02*
X0052067Y0171593D01*
X0052067Y0172792D02*
X0053267Y0172792D01*
X0053267Y0173990D02*
X0052067Y0173990D01*
X0052067Y0177586D02*
X0053267Y0177586D01*
X0053267Y0178784D02*
X0052067Y0178784D01*
X0052067Y0179983D02*
X0053267Y0179983D01*
X0053267Y0181181D02*
X0052067Y0181181D01*
X0036461Y0184777D02*
X0030137Y0184777D01*
X0030137Y0185975D02*
X0035550Y0185975D01*
X0035031Y0187174D02*
X0030137Y0187174D01*
X0030137Y0188372D02*
X0034771Y0188372D01*
X0034744Y0189571D02*
X0030137Y0189571D01*
X0030137Y0190769D02*
X0034744Y0190769D01*
D19*
X0068356Y0051250D02*
X0068356Y0045000D01*
X0068356Y0037500D01*
X0082106Y0037500D01*
X0079606Y0035000D01*
X0068356Y0035000D01*
D20*
X0162106Y0077500D02*
X0162106Y0088750D01*
X0157106Y0088750D01*
X0150856Y0095000D01*
X0152106Y0103750D02*
X0154606Y0106250D01*
X0154606Y0111250D01*
X0159606Y0116250D01*
X0193356Y0116250D01*
X0195856Y0113750D01*
X0195856Y0100000D01*
X0193356Y0097500D01*
X0193356Y0092500D02*
X0200856Y0085000D01*
X0210856Y0085000D01*
X0213356Y0087500D01*
X0218356Y0087500D01*
X0219606Y0088750D01*
X0219606Y0091250D01*
X0227106Y0090000D02*
X0227106Y0086250D01*
X0225856Y0085000D01*
X0214606Y0085000D01*
X0212106Y0082500D01*
X0200856Y0082500D01*
X0193356Y0090000D01*
X0173356Y0090000D01*
X0172106Y0091250D01*
X0168356Y0091250D01*
X0165856Y0088750D01*
X0165856Y0080000D01*
X0170856Y0087500D02*
X0180856Y0087500D01*
X0185856Y0082500D01*
X0190856Y0082500D01*
X0193356Y0085000D01*
X0195856Y0085000D01*
X0200856Y0080000D01*
X0223356Y0080000D01*
X0225856Y0082500D01*
X0228356Y0080000D02*
X0228356Y0078750D01*
X0227106Y0077500D01*
X0203356Y0077500D01*
X0200856Y0075000D01*
X0195856Y0075000D01*
X0193356Y0077500D01*
X0183356Y0077500D01*
X0180856Y0075000D01*
X0178356Y0075000D01*
X0175856Y0072500D01*
X0165856Y0072500D01*
X0162106Y0088750D02*
X0167106Y0093750D01*
X0172106Y0093750D01*
X0173356Y0092500D01*
X0193356Y0092500D01*
X0193356Y0102500D02*
X0193356Y0111250D01*
X0190856Y0113750D01*
X0160856Y0113750D01*
X0157106Y0110000D01*
X0157106Y0102500D01*
X0205856Y0142500D02*
X0205856Y0180000D01*
X0195856Y0190000D01*
X0173356Y0190000D01*
X0162356Y0201000D01*
X0162356Y0205000D01*
X0172356Y0205000D02*
X0172356Y0198500D01*
X0178356Y0192500D01*
X0195856Y0192500D01*
X0210856Y0177500D01*
X0210856Y0142500D01*
X0215856Y0142500D02*
X0215856Y0175000D01*
X0195856Y0195000D01*
X0185856Y0195000D01*
X0182356Y0198500D01*
X0182356Y0205000D01*
X0192356Y0205000D02*
X0192356Y0203500D01*
X0220856Y0175000D01*
X0220856Y0142500D01*
X0225856Y0142500D02*
X0225856Y0175000D01*
X0208356Y0192500D01*
X0208356Y0205000D01*
X0218356Y0205000D02*
X0218356Y0187500D01*
X0230856Y0175000D01*
X0230856Y0142500D01*
X0235856Y0142500D02*
X0235856Y0175000D01*
X0228356Y0182500D01*
X0228356Y0205000D01*
X0238356Y0205000D02*
X0238356Y0177500D01*
X0240856Y0175000D01*
X0240856Y0142500D01*
X0245856Y0142500D02*
X0248356Y0145000D01*
X0248356Y0205000D01*
X0258356Y0205000D02*
X0258356Y0147500D01*
X0253356Y0142500D01*
X0253356Y0137500D02*
X0268356Y0152500D01*
X0268356Y0205000D01*
X0278356Y0205000D02*
X0278356Y0157500D01*
X0253356Y0132500D01*
M02*
