%
M48
M72
T01C0.01200
T02C0.02400
T03C0.03150
T04C0.03346
T05C0.06299
T06C0.08661
T07C0.12500
%
T01
X82106Y37500
X100856Y40000
X110856Y33750
X114606Y36250
X108356Y30000
X117106Y27500
X110856Y47500
X95856Y50000
X95856Y62500
X104606Y61250
X80856Y67500
X90856Y77500
X83356Y80000
X102106Y80000
X105856Y87500
X120856Y90000
X107106Y97500
X105856Y101250
X115856Y100000
X120856Y100000
X125856Y110000
X152106Y103750
X157106Y102500
X157106Y96250
X150856Y95000
X170856Y87500
X165856Y80000
X162106Y77500
X165856Y72500
X177745Y65610
X183356Y70000
X180856Y72500
X185856Y75000
X194497Y81358
X198356Y77500
X210856Y72500
X215856Y71250
X218356Y68750
X223356Y70000
X223356Y62500
X210856Y60000
X210856Y52500
X198356Y47500
X193356Y45000
X190856Y40000
X175856Y45000
X175856Y50000
X165856Y50000
X165856Y57500
X180856Y62500
X187106Y61250
X190856Y67500
X215856Y82500
X225856Y82500
X228356Y80000
X233356Y87500
X240856Y85000
X245856Y85000
X245856Y90000
X253356Y92500
X253356Y97500
X252106Y105000
X264606Y108750
X270856Y92500
X275856Y92500
X263356Y87500
X258356Y87500
X255856Y85000
X255856Y80000
X255856Y75000
X263356Y72500
X265856Y70000
X265856Y75000
X253356Y70000
X248356Y70000
X240856Y60000
X235856Y55000
X233356Y45000
X235856Y42500
X238356Y40000
X253356Y35000
X258356Y35000
X268356Y40000
X270856Y42500
X273356Y45000
X275856Y47500
X283356Y52500
X280856Y55000
X278356Y57500
X275856Y60000
X280856Y75000
X285856Y75000
X298356Y77500
X298356Y81250
X310856Y82500
X320856Y77500
X323356Y80000
X323356Y85000
X323356Y90000
X320856Y92500
X298356Y90000
X310856Y72500
X233356Y106250
X227106Y90000
X219606Y91250
X203356Y92500
X203356Y96250
X193356Y97500
X193356Y102500
X180856Y105000
X180856Y97500
X183356Y120000
X188356Y120000
X178356Y120000
X173356Y120000
X163356Y120000
X182106Y128750
X185856Y142500
X190856Y142500
X195856Y142500
X200856Y142500
X205856Y142500
X210856Y142500
X215856Y142500
X220856Y142500
X225856Y142500
X230856Y142500
X235856Y142500
X240856Y142500
X245856Y142500
X253356Y142500
X253356Y137500
X253356Y132500
X264606Y126250
X230856Y128750
X227106Y132500
X163356Y145000
X158356Y145000
X147106Y138750
X153356Y132500
X98356Y140000
X92106Y140000
X85856Y140000
X79606Y140000
X79606Y148750
X85856Y148750
X92106Y148750
X98356Y148750
X98356Y157500
X92106Y157500
X85856Y157500
X79606Y157500
X78356Y167500
X85856Y167500
X62106Y145000
X42106Y140000
X35856Y142500
X43356Y156250
X48356Y126250
X60856Y122500
X75856Y122500
X84606Y117500
X95856Y107500
X78356Y93750
X60856Y103750
X42106Y101250
X35856Y97500
X38356Y77500
X53356Y56250
X48356Y53750
T02
X64606Y65000
X64606Y71250
X123356Y50000
X145856Y107500
X145856Y112500
X140856Y140000
X140856Y145000
X140856Y150000
X148356Y152500
X153356Y152500
X153356Y157500
X148356Y157500
X133356Y172500
X93356Y187500
X88356Y187500
X83356Y187500
X95856Y126250
T03
X148356Y170000
X158356Y170000
X168356Y170000
X168356Y180000
X158356Y180000
X148356Y180000
X152356Y205000
X142356Y205000
X132356Y205000
X122356Y205000
X112356Y205000
X102356Y205000
X162356Y205000
X172356Y205000
X182356Y205000
X192356Y205000
X208356Y205000
X218356Y205000
X228356Y205000
X238356Y205000
X248356Y205000
X258356Y205000
X268356Y205000
X278356Y205000
X278856Y125000
X288856Y125000
X288856Y115000
X278856Y115000
X278856Y105000
X288856Y105000
X278356Y15000
X268356Y15000
X258356Y15000
X248356Y15000
X238356Y15000
X228356Y15000
X208356Y15000
X198356Y15000
X188356Y15000
X178356Y15000
X168356Y15000
X158356Y15000
X148356Y15000
X138356Y15000
T04
X38356Y45000
X43356Y45000
X48356Y45000
X53356Y45000
X58356Y45000
X63356Y45000
X68356Y45000
X73356Y45000
T05
X52667Y175246
X64478Y193750
X40856Y193750
T06
X309871Y105787
X309871Y54213
T07
X288356Y35000
X288356Y145000
X88356Y205000
X83356Y15000
M30
