G75*
%MOIN*%
%OFA0B0*%
%FSLAX25Y25*%
%IPPOS*%
%LPD*%
%AMOC8*
5,1,8,0,0,1.08239X$1,22.5*
%
%ADD10C,0.04724*%
%ADD11C,0.09449*%
%ADD12C,0.15000*%
%ADD13C,0.02400*%
%ADD14C,0.02184*%
%ADD15C,0.03600*%
%ADD16C,0.04000*%
%ADD17C,0.00800*%
%ADD18C,0.01600*%
%ADD19C,0.00787*%
%ADD20C,0.01200*%
D10*
X0138356Y0015000D03*
X0148356Y0015000D03*
X0158356Y0015000D03*
X0168356Y0015000D03*
X0178356Y0015000D03*
X0188356Y0015000D03*
X0198356Y0015000D03*
X0208356Y0015000D03*
X0228356Y0015000D03*
X0238356Y0015000D03*
X0248356Y0015000D03*
X0258356Y0015000D03*
X0268356Y0015000D03*
X0278356Y0015000D03*
X0278856Y0105000D03*
X0288856Y0105000D03*
X0288856Y0115000D03*
X0278856Y0115000D03*
X0278856Y0125000D03*
X0288856Y0125000D03*
X0168356Y0170000D03*
X0158356Y0170000D03*
X0148356Y0170000D03*
X0148356Y0180000D03*
X0158356Y0180000D03*
X0168356Y0180000D03*
X0172356Y0205000D03*
X0182356Y0205000D03*
X0192356Y0205000D03*
X0208356Y0205000D03*
X0218356Y0205000D03*
X0228356Y0205000D03*
X0238356Y0205000D03*
X0248356Y0205000D03*
X0258356Y0205000D03*
X0268356Y0205000D03*
X0278356Y0205000D03*
X0162356Y0205000D03*
X0152356Y0205000D03*
X0142356Y0205000D03*
X0132356Y0205000D03*
X0122356Y0205000D03*
X0112356Y0205000D03*
X0102356Y0205000D03*
D11*
X0064478Y0193750D03*
X0040856Y0193750D03*
X0052667Y0175246D03*
D12*
X0309871Y0105787D03*
X0309871Y0054213D03*
D13*
X0258356Y0055369D02*
X0238935Y0055369D01*
X0238935Y0055613D02*
X0238466Y0056744D01*
X0237600Y0057611D01*
X0236468Y0058080D01*
X0235243Y0058080D01*
X0234111Y0057611D01*
X0233245Y0056744D01*
X0232776Y0055613D01*
X0232776Y0054387D01*
X0233245Y0053256D01*
X0234111Y0052389D01*
X0235243Y0051920D01*
X0236468Y0051920D01*
X0237600Y0052389D01*
X0238466Y0053256D01*
X0238935Y0054387D01*
X0238935Y0055613D01*
X0239111Y0057389D02*
X0240243Y0056920D01*
X0241468Y0056920D01*
X0242600Y0057389D01*
X0243466Y0058256D01*
X0243935Y0059387D01*
X0243935Y0060613D01*
X0243466Y0061744D01*
X0242600Y0062611D01*
X0241468Y0063080D01*
X0240243Y0063080D01*
X0239111Y0062611D01*
X0238245Y0061744D01*
X0237776Y0060613D01*
X0237776Y0059387D01*
X0238245Y0058256D01*
X0239111Y0057389D01*
X0238733Y0057767D02*
X0237222Y0057767D01*
X0237776Y0060166D02*
X0225377Y0060166D01*
X0225100Y0059889D02*
X0225966Y0060756D01*
X0226435Y0061887D01*
X0226435Y0063113D01*
X0225966Y0064244D01*
X0225100Y0065111D01*
X0223968Y0065580D01*
X0222743Y0065580D01*
X0221611Y0065111D01*
X0220745Y0064244D01*
X0220276Y0063113D01*
X0220276Y0061887D01*
X0220745Y0060756D01*
X0221611Y0059889D01*
X0222743Y0059420D01*
X0223968Y0059420D01*
X0225100Y0059889D01*
X0226435Y0062564D02*
X0239065Y0062564D01*
X0242646Y0062564D02*
X0258356Y0062564D01*
X0258356Y0060166D02*
X0243935Y0060166D01*
X0242978Y0057767D02*
X0258356Y0057767D01*
X0258356Y0052970D02*
X0238181Y0052970D01*
X0233530Y0052970D02*
X0213902Y0052970D01*
X0213935Y0052803D02*
X0213817Y0053398D01*
X0213585Y0053959D01*
X0213248Y0054463D01*
X0212819Y0054892D01*
X0212314Y0055229D01*
X0211754Y0055461D01*
X0211159Y0055580D01*
X0210856Y0055580D01*
X0210856Y0052500D01*
X0213935Y0052500D01*
X0213935Y0052803D01*
X0213935Y0052500D02*
X0210856Y0052500D01*
X0210856Y0052500D01*
X0210856Y0052500D01*
X0210856Y0049420D01*
X0211159Y0049420D01*
X0211754Y0049539D01*
X0212314Y0049771D01*
X0212819Y0050108D01*
X0213248Y0050537D01*
X0213585Y0051041D01*
X0213817Y0051602D01*
X0213935Y0052197D01*
X0213935Y0052500D01*
X0213271Y0050572D02*
X0258356Y0050572D01*
X0258356Y0048173D02*
X0201410Y0048173D01*
X0201435Y0048113D02*
X0200966Y0049244D01*
X0200100Y0050111D01*
X0198968Y0050580D01*
X0197743Y0050580D01*
X0196611Y0050111D01*
X0195745Y0049244D01*
X0195276Y0048113D01*
X0195276Y0047435D01*
X0195100Y0047611D01*
X0193968Y0048080D01*
X0192743Y0048080D01*
X0191611Y0047611D01*
X0190745Y0046744D01*
X0190276Y0045613D01*
X0190276Y0044387D01*
X0190745Y0043256D01*
X0190921Y0043080D01*
X0190243Y0043080D01*
X0189111Y0042611D01*
X0188245Y0041744D01*
X0187776Y0040613D01*
X0187776Y0039387D01*
X0188245Y0038256D01*
X0189111Y0037389D01*
X0190243Y0036920D01*
X0191468Y0036920D01*
X0192600Y0037389D01*
X0193466Y0038256D01*
X0193935Y0039387D01*
X0193935Y0040613D01*
X0193466Y0041744D01*
X0193290Y0041920D01*
X0193968Y0041920D01*
X0195100Y0042389D01*
X0195966Y0043256D01*
X0196435Y0044387D01*
X0196435Y0045065D01*
X0196611Y0044889D01*
X0197743Y0044420D01*
X0198968Y0044420D01*
X0200100Y0044889D01*
X0200966Y0045756D01*
X0201435Y0046887D01*
X0201435Y0048113D01*
X0200974Y0045775D02*
X0230343Y0045775D01*
X0230276Y0045613D02*
X0230276Y0044387D01*
X0230745Y0043256D01*
X0231611Y0042389D01*
X0232743Y0041920D01*
X0232776Y0041920D01*
X0232776Y0041887D01*
X0233245Y0040756D01*
X0234111Y0039889D01*
X0235243Y0039420D01*
X0235276Y0039420D01*
X0235276Y0039387D01*
X0235745Y0038256D01*
X0236611Y0037389D01*
X0237743Y0036920D01*
X0238968Y0036920D01*
X0240100Y0037389D01*
X0240966Y0038256D01*
X0241435Y0039387D01*
X0241435Y0040613D01*
X0240966Y0041744D01*
X0240100Y0042611D01*
X0238968Y0043080D01*
X0238935Y0043080D01*
X0238935Y0043113D01*
X0238466Y0044244D01*
X0237600Y0045111D01*
X0236468Y0045580D01*
X0236435Y0045580D01*
X0236435Y0045613D01*
X0235966Y0046744D01*
X0235100Y0047611D01*
X0233968Y0048080D01*
X0232743Y0048080D01*
X0231611Y0047611D01*
X0230745Y0046744D01*
X0230276Y0045613D01*
X0230695Y0043376D02*
X0196016Y0043376D01*
X0193784Y0040978D02*
X0233153Y0040978D01*
X0235611Y0038579D02*
X0193600Y0038579D01*
X0188111Y0038579D02*
X0175134Y0038579D01*
X0175614Y0038380D02*
X0174149Y0038987D01*
X0160007Y0038987D01*
X0149843Y0049152D01*
X0149843Y0092086D01*
X0150243Y0091920D01*
X0151468Y0091920D01*
X0152600Y0092389D01*
X0153466Y0093256D01*
X0153935Y0094387D01*
X0153935Y0095613D01*
X0153466Y0096744D01*
X0152600Y0097611D01*
X0151468Y0098080D01*
X0150243Y0098080D01*
X0149843Y0097914D01*
X0149843Y0101658D01*
X0150361Y0101139D01*
X0151493Y0100670D01*
X0152718Y0100670D01*
X0153850Y0101139D01*
X0154194Y0101483D01*
X0154495Y0100756D01*
X0155361Y0099889D01*
X0156493Y0099420D01*
X0157718Y0099420D01*
X0158850Y0099889D01*
X0159716Y0100756D01*
X0160185Y0101887D01*
X0160185Y0103113D01*
X0159716Y0104244D01*
X0158850Y0105111D01*
X0157718Y0105580D01*
X0156493Y0105580D01*
X0155361Y0105111D01*
X0155018Y0104767D01*
X0154716Y0105494D01*
X0153850Y0106361D01*
X0152718Y0106830D01*
X0151493Y0106830D01*
X0150361Y0106361D01*
X0149843Y0105842D01*
X0149843Y0113293D01*
X0149236Y0114759D01*
X0148114Y0115880D01*
X0146649Y0116487D01*
X0145062Y0116487D01*
X0144843Y0116396D01*
X0144843Y0136658D01*
X0145361Y0136139D01*
X0146493Y0135670D01*
X0147718Y0135670D01*
X0148850Y0136139D01*
X0149716Y0137006D01*
X0150185Y0138137D01*
X0150185Y0139363D01*
X0149716Y0140494D01*
X0148850Y0141361D01*
X0147718Y0141830D01*
X0146493Y0141830D01*
X0145361Y0141361D01*
X0144843Y0140842D01*
X0144843Y0150793D01*
X0144236Y0152259D01*
X0143399Y0153096D01*
X0143370Y0154375D01*
X0144912Y0155917D01*
X0144999Y0155706D01*
X0145414Y0155086D01*
X0145499Y0155000D01*
X0145414Y0154914D01*
X0144999Y0154294D01*
X0144714Y0153605D01*
X0144568Y0152873D01*
X0144568Y0152500D01*
X0144568Y0152127D01*
X0144714Y0151395D01*
X0144999Y0150706D01*
X0145414Y0150086D01*
X0145941Y0149558D01*
X0146562Y0149144D01*
X0147251Y0148858D01*
X0147983Y0148713D01*
X0148356Y0148713D01*
X0148729Y0148713D01*
X0149460Y0148858D01*
X0150150Y0149144D01*
X0150770Y0149558D01*
X0150856Y0149644D01*
X0150941Y0149558D01*
X0151562Y0149144D01*
X0152251Y0148858D01*
X0152983Y0148713D01*
X0153356Y0148713D01*
X0153729Y0148713D01*
X0154460Y0148858D01*
X0155150Y0149144D01*
X0155770Y0149558D01*
X0156297Y0150086D01*
X0156712Y0150706D01*
X0156997Y0151395D01*
X0157143Y0152127D01*
X0157143Y0152500D01*
X0157143Y0152873D01*
X0156997Y0153605D01*
X0156712Y0154294D01*
X0156297Y0154914D01*
X0156212Y0155000D01*
X0156297Y0155086D01*
X0156712Y0155706D01*
X0156997Y0156395D01*
X0157143Y0157127D01*
X0157143Y0157500D01*
X0157143Y0157873D01*
X0156997Y0158605D01*
X0156712Y0159294D01*
X0156399Y0159763D01*
X0163593Y0159763D01*
X0178356Y0145000D01*
X0184227Y0145159D01*
X0184111Y0145111D01*
X0183245Y0144244D01*
X0182776Y0143113D01*
X0182776Y0141887D01*
X0183245Y0140756D01*
X0184111Y0139889D01*
X0185243Y0139420D01*
X0186468Y0139420D01*
X0187600Y0139889D01*
X0188356Y0140645D01*
X0189111Y0139889D01*
X0190243Y0139420D01*
X0191468Y0139420D01*
X0192600Y0139889D01*
X0193356Y0140645D01*
X0193468Y0140532D01*
X0193468Y0114887D01*
X0192367Y0114887D01*
X0190968Y0113489D01*
X0183688Y0106209D01*
X0183585Y0106459D01*
X0183248Y0106963D01*
X0182819Y0107392D01*
X0182314Y0107729D01*
X0181754Y0107961D01*
X0181159Y0108080D01*
X0180856Y0108080D01*
X0180856Y0105000D01*
X0180856Y0105000D01*
X0180856Y0101920D01*
X0181159Y0101920D01*
X0181754Y0102039D01*
X0182314Y0102271D01*
X0182819Y0102608D01*
X0183248Y0103037D01*
X0183468Y0103367D01*
X0183468Y0099240D01*
X0183466Y0099244D01*
X0182600Y0100111D01*
X0181468Y0100580D01*
X0180243Y0100580D01*
X0179111Y0100111D01*
X0178245Y0099244D01*
X0177776Y0098113D01*
X0177776Y0096887D01*
X0178245Y0095756D01*
X0179111Y0094889D01*
X0180243Y0094420D01*
X0181468Y0094420D01*
X0182600Y0094889D01*
X0183466Y0095756D01*
X0183468Y0095760D01*
X0183468Y0085989D01*
X0174867Y0077387D01*
X0173468Y0075989D01*
X0173468Y0069011D01*
X0174867Y0067613D01*
X0175132Y0067348D01*
X0174666Y0066223D01*
X0174666Y0064998D01*
X0175135Y0063866D01*
X0176001Y0063000D01*
X0177133Y0062531D01*
X0177776Y0062531D01*
X0177776Y0061887D01*
X0178245Y0060756D01*
X0179111Y0059889D01*
X0180243Y0059420D01*
X0181468Y0059420D01*
X0182600Y0059889D01*
X0183466Y0060756D01*
X0183935Y0061887D01*
X0183935Y0063113D01*
X0183466Y0064244D01*
X0183243Y0064468D01*
X0183243Y0066920D01*
X0183968Y0066920D01*
X0185100Y0067389D01*
X0185966Y0068256D01*
X0186435Y0069387D01*
X0186435Y0070613D01*
X0185966Y0071744D01*
X0185790Y0071920D01*
X0186468Y0071920D01*
X0187600Y0072389D01*
X0188466Y0073256D01*
X0188935Y0074387D01*
X0188935Y0075613D01*
X0188466Y0076744D01*
X0187600Y0077611D01*
X0187595Y0077613D01*
X0189345Y0077613D01*
X0191728Y0079996D01*
X0191887Y0079614D01*
X0192753Y0078748D01*
X0193885Y0078279D01*
X0195110Y0078279D01*
X0195394Y0078396D01*
X0195276Y0078113D01*
X0195276Y0076887D01*
X0195745Y0075756D01*
X0196611Y0074889D01*
X0197743Y0074420D01*
X0198968Y0074420D01*
X0200100Y0074889D01*
X0200966Y0075756D01*
X0201435Y0076887D01*
X0201435Y0078113D01*
X0200966Y0079244D01*
X0200100Y0080111D01*
X0198968Y0080580D01*
X0197743Y0080580D01*
X0197459Y0080462D01*
X0197577Y0080746D01*
X0197577Y0081971D01*
X0197108Y0083103D01*
X0196242Y0083969D01*
X0195110Y0084438D01*
X0193885Y0084438D01*
X0193243Y0084172D01*
X0193243Y0094420D01*
X0193968Y0094420D01*
X0195100Y0094889D01*
X0195966Y0095756D01*
X0196435Y0096887D01*
X0196435Y0098113D01*
X0195966Y0099244D01*
X0195211Y0100000D01*
X0195966Y0100756D01*
X0196435Y0101887D01*
X0196435Y0103113D01*
X0195966Y0104244D01*
X0195100Y0105111D01*
X0195095Y0105113D01*
X0195595Y0105113D01*
X0201845Y0111363D01*
X0203243Y0112761D01*
X0203243Y0135113D01*
X0216845Y0135113D01*
X0218095Y0136363D01*
X0224345Y0136363D01*
X0226845Y0138863D01*
X0228243Y0140261D01*
X0228243Y0140532D01*
X0228356Y0140645D01*
X0229111Y0139889D01*
X0230243Y0139420D01*
X0231468Y0139420D01*
X0232600Y0139889D01*
X0233356Y0140645D01*
X0234111Y0139889D01*
X0235243Y0139420D01*
X0236468Y0139420D01*
X0237600Y0139889D01*
X0238356Y0140645D01*
X0239111Y0139889D01*
X0240243Y0139420D01*
X0241468Y0139420D01*
X0242600Y0139889D01*
X0243356Y0140645D01*
X0244111Y0139889D01*
X0245243Y0139420D01*
X0246468Y0139420D01*
X0247600Y0139889D01*
X0248466Y0140756D01*
X0248935Y0141887D01*
X0248935Y0143113D01*
X0248466Y0144244D01*
X0247600Y0145111D01*
X0247595Y0145113D01*
X0251616Y0145113D01*
X0251611Y0145111D01*
X0250745Y0144244D01*
X0250276Y0143113D01*
X0250276Y0141887D01*
X0250745Y0140756D01*
X0251501Y0140000D01*
X0250745Y0139244D01*
X0250494Y0138637D01*
X0233617Y0138637D01*
X0232218Y0137239D01*
X0229470Y0134491D01*
X0228850Y0135111D01*
X0227718Y0135580D01*
X0226493Y0135580D01*
X0225361Y0135111D01*
X0224495Y0134244D01*
X0224026Y0133113D01*
X0224026Y0131887D01*
X0224495Y0130756D01*
X0225361Y0129889D01*
X0226493Y0129420D01*
X0227718Y0129420D01*
X0227817Y0129461D01*
X0227776Y0129363D01*
X0227776Y0128137D01*
X0228245Y0127006D01*
X0229111Y0126139D01*
X0230243Y0125670D01*
X0231468Y0125670D01*
X0232600Y0126139D01*
X0233466Y0127006D01*
X0233935Y0128137D01*
X0233935Y0129363D01*
X0233466Y0130494D01*
X0233243Y0130718D01*
X0233243Y0131511D01*
X0235595Y0133863D01*
X0250587Y0133863D01*
X0250276Y0133113D01*
X0250276Y0131887D01*
X0250745Y0130756D01*
X0251611Y0129889D01*
X0252743Y0129420D01*
X0253968Y0129420D01*
X0255100Y0129889D01*
X0255966Y0130756D01*
X0256435Y0131887D01*
X0256435Y0133113D01*
X0255966Y0134244D01*
X0255211Y0135000D01*
X0255966Y0135756D01*
X0256435Y0136887D01*
X0256435Y0138113D01*
X0255966Y0139244D01*
X0255211Y0140000D01*
X0255966Y0140756D01*
X0256435Y0141887D01*
X0256435Y0143113D01*
X0255966Y0144244D01*
X0255100Y0145111D01*
X0255095Y0145113D01*
X0264867Y0145113D01*
X0265968Y0144011D01*
X0265968Y0136511D01*
X0270856Y0131624D01*
X0270856Y0095580D01*
X0270243Y0095580D01*
X0269111Y0095111D01*
X0268245Y0094244D01*
X0267776Y0093113D01*
X0267776Y0091887D01*
X0268245Y0090756D01*
X0269111Y0089889D01*
X0270243Y0089420D01*
X0270856Y0089420D01*
X0270856Y0087500D01*
X0263356Y0087500D01*
X0266435Y0087500D01*
X0266435Y0087803D01*
X0266317Y0088398D01*
X0266085Y0088959D01*
X0265748Y0089463D01*
X0265319Y0089892D01*
X0264814Y0090229D01*
X0264254Y0090461D01*
X0263659Y0090580D01*
X0263356Y0090580D01*
X0263356Y0087500D01*
X0263356Y0087500D01*
X0263356Y0087500D01*
X0263356Y0090580D01*
X0263052Y0090580D01*
X0262457Y0090461D01*
X0261897Y0090229D01*
X0261393Y0089892D01*
X0260964Y0089463D01*
X0260877Y0089334D01*
X0260100Y0090111D01*
X0258968Y0090580D01*
X0257743Y0090580D01*
X0256611Y0090111D01*
X0255745Y0089244D01*
X0255276Y0088113D01*
X0255276Y0088080D01*
X0255243Y0088080D01*
X0254111Y0087611D01*
X0253245Y0086744D01*
X0252776Y0085613D01*
X0252776Y0084387D01*
X0253245Y0083256D01*
X0254001Y0082500D01*
X0253245Y0081744D01*
X0252776Y0080613D01*
X0252776Y0079387D01*
X0253245Y0078256D01*
X0254022Y0077479D01*
X0253893Y0077392D01*
X0253464Y0076963D01*
X0253127Y0076459D01*
X0252894Y0075898D01*
X0252776Y0075303D01*
X0252776Y0075000D01*
X0255855Y0075000D01*
X0252776Y0075000D01*
X0252776Y0074697D01*
X0252894Y0074102D01*
X0253127Y0073541D01*
X0253435Y0073080D01*
X0253356Y0073080D01*
X0253356Y0070000D01*
X0256435Y0070000D01*
X0256435Y0070303D01*
X0256317Y0070898D01*
X0256085Y0071459D01*
X0255776Y0071920D01*
X0255856Y0071920D01*
X0256159Y0071920D01*
X0256754Y0072039D01*
X0257314Y0072271D01*
X0257819Y0072608D01*
X0258248Y0073037D01*
X0258356Y0073199D01*
X0258356Y0038080D01*
X0257743Y0038080D01*
X0256611Y0037611D01*
X0255856Y0036855D01*
X0255100Y0037611D01*
X0253968Y0038080D01*
X0252743Y0038080D01*
X0251611Y0037611D01*
X0250745Y0036744D01*
X0250276Y0035613D01*
X0250276Y0034387D01*
X0250745Y0033256D01*
X0251611Y0032389D01*
X0252743Y0031920D01*
X0253968Y0031920D01*
X0255100Y0032389D01*
X0255856Y0033145D01*
X0256611Y0032389D01*
X0257743Y0031920D01*
X0258356Y0031920D01*
X0258356Y0019350D01*
X0257490Y0019350D01*
X0255892Y0018687D01*
X0254668Y0017464D01*
X0254006Y0015865D01*
X0254006Y0014135D01*
X0254668Y0012536D01*
X0255892Y0011313D01*
X0257490Y0010650D01*
X0258356Y0010650D01*
X0258356Y0010137D01*
X0178356Y0010137D01*
X0178356Y0010650D01*
X0179221Y0010650D01*
X0180819Y0011313D01*
X0182043Y0012536D01*
X0182705Y0014135D01*
X0182705Y0015865D01*
X0182343Y0016740D01*
X0182343Y0021104D01*
X0182562Y0021013D01*
X0201704Y0021013D01*
X0204368Y0018348D01*
X0204368Y0016740D01*
X0204006Y0015865D01*
X0204006Y0014135D01*
X0204668Y0012536D01*
X0205892Y0011313D01*
X0207490Y0010650D01*
X0209221Y0010650D01*
X0210819Y0011313D01*
X0212043Y0012536D01*
X0212705Y0014135D01*
X0212705Y0015865D01*
X0212343Y0016740D01*
X0212343Y0020793D01*
X0211736Y0022259D01*
X0210614Y0023380D01*
X0205614Y0028380D01*
X0204149Y0028987D01*
X0185007Y0028987D01*
X0175614Y0038380D01*
X0177814Y0036181D02*
X0250511Y0036181D01*
X0250527Y0033782D02*
X0180213Y0033782D01*
X0182611Y0031384D02*
X0258356Y0031384D01*
X0258356Y0028985D02*
X0204154Y0028985D01*
X0207408Y0026587D02*
X0258356Y0026587D01*
X0258356Y0024188D02*
X0209807Y0024188D01*
X0211930Y0021790D02*
X0258356Y0021790D01*
X0258356Y0019391D02*
X0212343Y0019391D01*
X0212343Y0016993D02*
X0224473Y0016993D01*
X0224668Y0017464D02*
X0224006Y0015865D01*
X0224006Y0014135D01*
X0224668Y0012536D01*
X0225892Y0011313D01*
X0227490Y0010650D01*
X0229221Y0010650D01*
X0230819Y0011313D01*
X0232043Y0012536D01*
X0232705Y0014135D01*
X0232705Y0015865D01*
X0232043Y0017464D01*
X0230819Y0018687D01*
X0229221Y0019350D01*
X0227490Y0019350D01*
X0225892Y0018687D01*
X0224668Y0017464D01*
X0224006Y0014594D02*
X0212705Y0014594D01*
X0211702Y0012196D02*
X0225009Y0012196D01*
X0231702Y0012196D02*
X0235009Y0012196D01*
X0234668Y0012536D02*
X0235892Y0011313D01*
X0237490Y0010650D01*
X0239221Y0010650D01*
X0240819Y0011313D01*
X0242043Y0012536D01*
X0242705Y0014135D01*
X0242705Y0015865D01*
X0242043Y0017464D01*
X0240819Y0018687D01*
X0239221Y0019350D01*
X0237490Y0019350D01*
X0235892Y0018687D01*
X0234668Y0017464D01*
X0234006Y0015865D01*
X0234006Y0014135D01*
X0234668Y0012536D01*
X0234006Y0014594D02*
X0232705Y0014594D01*
X0232238Y0016993D02*
X0234473Y0016993D01*
X0242238Y0016993D02*
X0244473Y0016993D01*
X0244668Y0017464D02*
X0244006Y0015865D01*
X0244006Y0014135D01*
X0244668Y0012536D01*
X0245892Y0011313D01*
X0247490Y0010650D01*
X0249221Y0010650D01*
X0250819Y0011313D01*
X0252043Y0012536D01*
X0252705Y0014135D01*
X0252705Y0015865D01*
X0252043Y0017464D01*
X0250819Y0018687D01*
X0249221Y0019350D01*
X0247490Y0019350D01*
X0245892Y0018687D01*
X0244668Y0017464D01*
X0244006Y0014594D02*
X0242705Y0014594D01*
X0241702Y0012196D02*
X0245009Y0012196D01*
X0251702Y0012196D02*
X0255009Y0012196D01*
X0254006Y0014594D02*
X0252705Y0014594D01*
X0252238Y0016993D02*
X0254473Y0016993D01*
X0258356Y0038579D02*
X0241100Y0038579D01*
X0241284Y0040978D02*
X0258356Y0040978D01*
X0258356Y0043376D02*
X0238826Y0043376D01*
X0236368Y0045775D02*
X0258356Y0045775D01*
X0234489Y0057767D02*
X0212978Y0057767D01*
X0212600Y0057389D02*
X0213466Y0058256D01*
X0213935Y0059387D01*
X0213935Y0060613D01*
X0213466Y0061744D01*
X0212600Y0062611D01*
X0211468Y0063080D01*
X0210243Y0063080D01*
X0209111Y0062611D01*
X0208245Y0061744D01*
X0207776Y0060613D01*
X0207776Y0059387D01*
X0208245Y0058256D01*
X0209111Y0057389D01*
X0210243Y0056920D01*
X0211468Y0056920D01*
X0212600Y0057389D01*
X0211977Y0055369D02*
X0232776Y0055369D01*
X0221335Y0060166D02*
X0213935Y0060166D01*
X0212646Y0062564D02*
X0220276Y0062564D01*
X0221463Y0064963D02*
X0192674Y0064963D01*
X0192600Y0064889D02*
X0193466Y0065756D01*
X0193935Y0066887D01*
X0193935Y0068113D01*
X0193466Y0069244D01*
X0192600Y0070111D01*
X0191468Y0070580D01*
X0190243Y0070580D01*
X0189111Y0070111D01*
X0188245Y0069244D01*
X0187776Y0068113D01*
X0187776Y0066887D01*
X0188245Y0065756D01*
X0189111Y0064889D01*
X0190243Y0064420D01*
X0191468Y0064420D01*
X0192600Y0064889D01*
X0193935Y0067361D02*
X0215598Y0067361D01*
X0215745Y0067006D02*
X0216611Y0066139D01*
X0217743Y0065670D01*
X0218968Y0065670D01*
X0220100Y0066139D01*
X0220966Y0067006D01*
X0221268Y0067733D01*
X0221611Y0067389D01*
X0222743Y0066920D01*
X0223968Y0066920D01*
X0225100Y0067389D01*
X0225966Y0068256D01*
X0226435Y0069387D01*
X0226435Y0070613D01*
X0225966Y0071744D01*
X0225100Y0072611D01*
X0223968Y0073080D01*
X0222743Y0073080D01*
X0221611Y0072611D01*
X0220745Y0071744D01*
X0220444Y0071017D01*
X0220100Y0071361D01*
X0218968Y0071830D01*
X0218935Y0071830D01*
X0218935Y0071863D01*
X0218466Y0072994D01*
X0217600Y0073861D01*
X0216468Y0074330D01*
X0215243Y0074330D01*
X0214111Y0073861D01*
X0213768Y0073517D01*
X0213466Y0074244D01*
X0212600Y0075111D01*
X0211468Y0075580D01*
X0210243Y0075580D01*
X0209111Y0075111D01*
X0208245Y0074244D01*
X0207776Y0073113D01*
X0207776Y0071887D01*
X0208245Y0070756D01*
X0209111Y0069889D01*
X0210243Y0069420D01*
X0211468Y0069420D01*
X0212600Y0069889D01*
X0212944Y0070233D01*
X0213245Y0069506D01*
X0214111Y0068639D01*
X0215243Y0068170D01*
X0215276Y0068170D01*
X0215276Y0068137D01*
X0215745Y0067006D01*
X0213140Y0069760D02*
X0212287Y0069760D01*
X0209424Y0069760D02*
X0192951Y0069760D01*
X0188760Y0069760D02*
X0186435Y0069760D01*
X0187042Y0072158D02*
X0207776Y0072158D01*
X0208557Y0074557D02*
X0199297Y0074557D01*
X0197414Y0074557D02*
X0188935Y0074557D01*
X0188255Y0076955D02*
X0195276Y0076955D01*
X0192147Y0079354D02*
X0191086Y0079354D01*
X0195803Y0084151D02*
X0213206Y0084151D01*
X0213245Y0084244D02*
X0212776Y0083113D01*
X0212776Y0081887D01*
X0213245Y0080756D01*
X0214111Y0079889D01*
X0215243Y0079420D01*
X0216468Y0079420D01*
X0217600Y0079889D01*
X0218466Y0080756D01*
X0218935Y0081887D01*
X0218935Y0083113D01*
X0218466Y0084244D01*
X0217600Y0085111D01*
X0216468Y0085580D01*
X0215243Y0085580D01*
X0214111Y0085111D01*
X0213245Y0084244D01*
X0212832Y0081752D02*
X0197577Y0081752D01*
X0200857Y0079354D02*
X0225290Y0079354D01*
X0225276Y0079387D02*
X0225745Y0078256D01*
X0226611Y0077389D01*
X0227743Y0076920D01*
X0228968Y0076920D01*
X0230100Y0077389D01*
X0230966Y0078256D01*
X0231435Y0079387D01*
X0231435Y0080613D01*
X0230966Y0081744D01*
X0230100Y0082611D01*
X0228968Y0083080D01*
X0228935Y0083080D01*
X0228935Y0083113D01*
X0228466Y0084244D01*
X0227600Y0085111D01*
X0226468Y0085580D01*
X0225243Y0085580D01*
X0224111Y0085111D01*
X0223245Y0084244D01*
X0222776Y0083113D01*
X0222776Y0081887D01*
X0223245Y0080756D01*
X0224111Y0079889D01*
X0225243Y0079420D01*
X0225276Y0079420D01*
X0225276Y0079387D01*
X0222832Y0081752D02*
X0218879Y0081752D01*
X0218505Y0084151D02*
X0223206Y0084151D01*
X0225361Y0087389D02*
X0226493Y0086920D01*
X0227718Y0086920D01*
X0228850Y0087389D01*
X0229716Y0088256D01*
X0230185Y0089387D01*
X0230185Y0090613D01*
X0229716Y0091744D01*
X0228850Y0092611D01*
X0228845Y0092613D01*
X0241117Y0092613D01*
X0242876Y0090853D01*
X0242776Y0090613D01*
X0242776Y0089387D01*
X0243245Y0088256D01*
X0244001Y0087500D01*
X0243334Y0086834D01*
X0243248Y0086963D01*
X0242819Y0087392D01*
X0242314Y0087729D01*
X0241754Y0087961D01*
X0241159Y0088080D01*
X0240856Y0088080D01*
X0240856Y0085000D01*
X0240856Y0085000D01*
X0240856Y0081920D01*
X0241159Y0081920D01*
X0241754Y0082039D01*
X0242314Y0082271D01*
X0242819Y0082608D01*
X0243248Y0083037D01*
X0243334Y0083166D01*
X0244111Y0082389D01*
X0245243Y0081920D01*
X0246468Y0081920D01*
X0247600Y0082389D01*
X0248466Y0083256D01*
X0248935Y0084387D01*
X0248935Y0085613D01*
X0248466Y0086744D01*
X0247711Y0087500D01*
X0248466Y0088256D01*
X0248935Y0089387D01*
X0248935Y0090613D01*
X0248466Y0091744D01*
X0248243Y0091968D01*
X0248243Y0092239D01*
X0246845Y0093637D01*
X0246845Y0093637D01*
X0245369Y0095113D01*
X0249345Y0095113D01*
X0250523Y0096291D01*
X0250745Y0095756D01*
X0251522Y0094979D01*
X0251393Y0094892D01*
X0250964Y0094463D01*
X0250627Y0093959D01*
X0250394Y0093398D01*
X0250276Y0092803D01*
X0250276Y0092500D01*
X0253355Y0092500D01*
X0250276Y0092500D01*
X0250276Y0092197D01*
X0250394Y0091602D01*
X0250627Y0091041D01*
X0250964Y0090537D01*
X0251393Y0090108D01*
X0251897Y0089771D01*
X0252457Y0089539D01*
X0253052Y0089420D01*
X0253356Y0089420D01*
X0253659Y0089420D01*
X0254254Y0089539D01*
X0254814Y0089771D01*
X0255319Y0090108D01*
X0255748Y0090537D01*
X0256085Y0091041D01*
X0256317Y0091602D01*
X0256435Y0092197D01*
X0256435Y0092500D01*
X0256435Y0092803D01*
X0256317Y0093398D01*
X0256085Y0093959D01*
X0255748Y0094463D01*
X0255319Y0094892D01*
X0255189Y0094979D01*
X0255966Y0095756D01*
X0256435Y0096887D01*
X0256435Y0098113D01*
X0255966Y0099244D01*
X0255100Y0100111D01*
X0254493Y0100362D01*
X0254493Y0103032D01*
X0254716Y0103256D01*
X0255185Y0104387D01*
X0255185Y0105613D01*
X0254716Y0106744D01*
X0253850Y0107611D01*
X0252718Y0108080D01*
X0251493Y0108080D01*
X0250361Y0107611D01*
X0249495Y0106744D01*
X0249026Y0105613D01*
X0249026Y0104387D01*
X0249495Y0103256D01*
X0249718Y0103032D01*
X0249718Y0102239D01*
X0247367Y0099887D01*
X0212367Y0099887D01*
X0211117Y0098637D01*
X0205323Y0098637D01*
X0205100Y0098861D01*
X0203968Y0099330D01*
X0202743Y0099330D01*
X0201611Y0098861D01*
X0200745Y0097994D01*
X0200276Y0096863D01*
X0200276Y0095637D01*
X0200745Y0094506D01*
X0200876Y0094375D01*
X0200745Y0094244D01*
X0200276Y0093113D01*
X0200276Y0091887D01*
X0200745Y0090756D01*
X0201611Y0089889D01*
X0202743Y0089420D01*
X0203968Y0089420D01*
X0205100Y0089889D01*
X0205323Y0090113D01*
X0213095Y0090113D01*
X0215595Y0092613D01*
X0216837Y0092613D01*
X0216526Y0091863D01*
X0216526Y0090637D01*
X0216995Y0089506D01*
X0217861Y0088639D01*
X0218993Y0088170D01*
X0220218Y0088170D01*
X0221350Y0088639D01*
X0222216Y0089506D01*
X0222685Y0090637D01*
X0222685Y0091863D01*
X0222374Y0092613D01*
X0225366Y0092613D01*
X0225361Y0092611D01*
X0224495Y0091744D01*
X0224026Y0090613D01*
X0224026Y0089387D01*
X0224495Y0088256D01*
X0225361Y0087389D01*
X0224208Y0088948D02*
X0221659Y0088948D01*
X0222685Y0091346D02*
X0224330Y0091346D01*
X0229881Y0091346D02*
X0242383Y0091346D01*
X0242958Y0088948D02*
X0236089Y0088948D01*
X0235966Y0089244D02*
X0235100Y0090111D01*
X0233968Y0090580D01*
X0232743Y0090580D01*
X0231611Y0090111D01*
X0230745Y0089244D01*
X0230276Y0088113D01*
X0230276Y0086887D01*
X0230745Y0085756D01*
X0231611Y0084889D01*
X0232743Y0084420D01*
X0233968Y0084420D01*
X0235100Y0084889D01*
X0235966Y0085756D01*
X0236435Y0086887D01*
X0236435Y0088113D01*
X0235966Y0089244D01*
X0236295Y0086549D02*
X0238187Y0086549D01*
X0238127Y0086459D02*
X0237894Y0085898D01*
X0237776Y0085303D01*
X0237776Y0085000D01*
X0240855Y0085000D01*
X0237776Y0085000D01*
X0237776Y0084697D01*
X0237894Y0084102D01*
X0238127Y0083541D01*
X0238464Y0083037D01*
X0238893Y0082608D01*
X0239397Y0082271D01*
X0239957Y0082039D01*
X0240552Y0081920D01*
X0240856Y0081920D01*
X0240856Y0085000D01*
X0240856Y0085000D01*
X0240856Y0088080D01*
X0240552Y0088080D01*
X0239957Y0087961D01*
X0239397Y0087729D01*
X0238893Y0087392D01*
X0238464Y0086963D01*
X0238127Y0086459D01*
X0237885Y0084151D02*
X0228505Y0084151D01*
X0230416Y0086549D02*
X0193243Y0086549D01*
X0193243Y0088948D02*
X0217553Y0088948D01*
X0216526Y0091346D02*
X0214328Y0091346D01*
X0200500Y0091346D02*
X0193243Y0091346D01*
X0193243Y0093745D02*
X0200538Y0093745D01*
X0200276Y0096143D02*
X0196127Y0096143D01*
X0196257Y0098542D02*
X0201292Y0098542D01*
X0196043Y0100940D02*
X0248420Y0100940D01*
X0249460Y0103339D02*
X0234375Y0103339D01*
X0233968Y0103170D02*
X0235100Y0103639D01*
X0235966Y0104506D01*
X0236435Y0105637D01*
X0236435Y0106863D01*
X0235966Y0107994D01*
X0235100Y0108861D01*
X0233968Y0109330D01*
X0232743Y0109330D01*
X0231611Y0108861D01*
X0230745Y0107994D01*
X0230276Y0106863D01*
X0230276Y0105637D01*
X0230745Y0104506D01*
X0231611Y0103639D01*
X0232743Y0103170D01*
X0233968Y0103170D01*
X0232336Y0103339D02*
X0196341Y0103339D01*
X0196219Y0105737D02*
X0230276Y0105737D01*
X0230887Y0108136D02*
X0198618Y0108136D01*
X0201016Y0110534D02*
X0262094Y0110534D01*
X0262214Y0110713D02*
X0261877Y0110209D01*
X0261644Y0109648D01*
X0261526Y0109053D01*
X0261526Y0108750D01*
X0264605Y0108750D01*
X0261526Y0108750D01*
X0261526Y0108447D01*
X0261644Y0107852D01*
X0261877Y0107291D01*
X0262214Y0106787D01*
X0262643Y0106358D01*
X0263147Y0106021D01*
X0263707Y0105789D01*
X0264302Y0105670D01*
X0264606Y0105670D01*
X0264909Y0105670D01*
X0265504Y0105789D01*
X0266064Y0106021D01*
X0266569Y0106358D01*
X0266998Y0106787D01*
X0267335Y0107291D01*
X0267567Y0107852D01*
X0267685Y0108447D01*
X0267685Y0108750D01*
X0267685Y0109053D01*
X0267567Y0109648D01*
X0267335Y0110209D01*
X0266998Y0110713D01*
X0266569Y0111142D01*
X0266064Y0111479D01*
X0265504Y0111711D01*
X0264909Y0111830D01*
X0264606Y0111830D01*
X0264606Y0108750D01*
X0267685Y0108750D01*
X0264606Y0108750D01*
X0264606Y0108750D01*
X0264606Y0108750D01*
X0264606Y0105670D01*
X0264606Y0108750D01*
X0264606Y0108750D01*
X0264606Y0111830D01*
X0264302Y0111830D01*
X0263707Y0111711D01*
X0263147Y0111479D01*
X0262643Y0111142D01*
X0262214Y0110713D01*
X0264606Y0110534D02*
X0264606Y0110534D01*
X0264605Y0108750D02*
X0264605Y0108750D01*
X0264606Y0108136D02*
X0264606Y0108136D01*
X0264606Y0105737D02*
X0264606Y0105737D01*
X0265246Y0105737D02*
X0270856Y0105737D01*
X0270856Y0103339D02*
X0254751Y0103339D01*
X0254493Y0100940D02*
X0270856Y0100940D01*
X0270856Y0098542D02*
X0256257Y0098542D01*
X0256127Y0096143D02*
X0270856Y0096143D01*
X0268038Y0093745D02*
X0256173Y0093745D01*
X0256435Y0092500D02*
X0253356Y0092500D01*
X0253356Y0092500D01*
X0256435Y0092500D01*
X0256211Y0091346D02*
X0268000Y0091346D01*
X0266089Y0088948D02*
X0270856Y0088948D01*
X0263356Y0088948D02*
X0263356Y0088948D01*
X0255622Y0088948D02*
X0248753Y0088948D01*
X0248631Y0091346D02*
X0250500Y0091346D01*
X0250538Y0093745D02*
X0246737Y0093745D01*
X0250375Y0096143D02*
X0250584Y0096143D01*
X0253355Y0092500D02*
X0253355Y0092500D01*
X0253356Y0092500D02*
X0253356Y0092500D01*
X0253356Y0089420D01*
X0253356Y0092500D01*
X0253356Y0091346D02*
X0253356Y0091346D01*
X0253164Y0086549D02*
X0248547Y0086549D01*
X0248837Y0084151D02*
X0252874Y0084151D01*
X0253253Y0081752D02*
X0230958Y0081752D01*
X0231421Y0079354D02*
X0252790Y0079354D01*
X0253458Y0076955D02*
X0229052Y0076955D01*
X0227659Y0076955D02*
X0201435Y0076955D01*
X0213154Y0074557D02*
X0252804Y0074557D01*
X0253052Y0073080D02*
X0252457Y0072961D01*
X0251897Y0072729D01*
X0251393Y0072392D01*
X0250964Y0071963D01*
X0250877Y0071834D01*
X0250100Y0072611D01*
X0248968Y0073080D01*
X0247743Y0073080D01*
X0246611Y0072611D01*
X0245745Y0071744D01*
X0245276Y0070613D01*
X0245276Y0069387D01*
X0245745Y0068256D01*
X0246611Y0067389D01*
X0247743Y0066920D01*
X0248968Y0066920D01*
X0250100Y0067389D01*
X0250877Y0068166D01*
X0250964Y0068037D01*
X0251393Y0067608D01*
X0251897Y0067271D01*
X0252457Y0067039D01*
X0253052Y0066920D01*
X0253356Y0066920D01*
X0253659Y0066920D01*
X0254254Y0067039D01*
X0254814Y0067271D01*
X0255319Y0067608D01*
X0255748Y0068037D01*
X0256085Y0068541D01*
X0256317Y0069102D01*
X0256435Y0069697D01*
X0256435Y0070000D01*
X0253356Y0070000D01*
X0253356Y0070000D01*
X0253356Y0070000D01*
X0253356Y0066920D01*
X0253356Y0070000D01*
X0253356Y0070000D01*
X0253356Y0073080D01*
X0253052Y0073080D01*
X0253356Y0072158D02*
X0253356Y0072158D01*
X0251159Y0072158D02*
X0250552Y0072158D01*
X0253356Y0069760D02*
X0253356Y0069760D01*
X0253356Y0067361D02*
X0253356Y0067361D01*
X0254950Y0067361D02*
X0258356Y0067361D01*
X0258356Y0064963D02*
X0225248Y0064963D01*
X0225032Y0067361D02*
X0246679Y0067361D01*
X0245276Y0069760D02*
X0226435Y0069760D01*
X0225552Y0072158D02*
X0246159Y0072158D01*
X0250032Y0067361D02*
X0251762Y0067361D01*
X0256435Y0069760D02*
X0258356Y0069760D01*
X0258356Y0072158D02*
X0257042Y0072158D01*
X0255856Y0072158D02*
X0255856Y0072158D01*
X0255856Y0071920D02*
X0255856Y0075000D01*
X0255856Y0075000D01*
X0255856Y0071920D01*
X0255856Y0074557D02*
X0255856Y0074557D01*
X0255855Y0075000D02*
X0255855Y0075000D01*
X0240856Y0084151D02*
X0240856Y0084151D01*
X0240855Y0085000D02*
X0240855Y0085000D01*
X0240856Y0086549D02*
X0240856Y0086549D01*
X0230622Y0088948D02*
X0230003Y0088948D01*
X0236435Y0105737D02*
X0249078Y0105737D01*
X0255133Y0105737D02*
X0263965Y0105737D01*
X0261588Y0108136D02*
X0235825Y0108136D01*
X0263147Y0123521D02*
X0263707Y0123289D01*
X0264302Y0123170D01*
X0264606Y0123170D01*
X0264909Y0123170D01*
X0265504Y0123289D01*
X0266064Y0123521D01*
X0266569Y0123858D01*
X0266998Y0124287D01*
X0267335Y0124791D01*
X0267567Y0125352D01*
X0267685Y0125947D01*
X0267685Y0126250D01*
X0267685Y0126553D01*
X0267567Y0127148D01*
X0267335Y0127709D01*
X0266998Y0128213D01*
X0266569Y0128642D01*
X0266064Y0128979D01*
X0265504Y0129211D01*
X0264909Y0129330D01*
X0264606Y0129330D01*
X0264606Y0126250D01*
X0267685Y0126250D01*
X0264606Y0126250D01*
X0264606Y0126250D01*
X0264606Y0126250D01*
X0264606Y0123170D01*
X0264606Y0126250D01*
X0264606Y0126250D01*
X0264606Y0129330D01*
X0264302Y0129330D01*
X0263707Y0129211D01*
X0263147Y0128979D01*
X0262643Y0128642D01*
X0262214Y0128213D01*
X0261877Y0127709D01*
X0261644Y0127148D01*
X0261526Y0126553D01*
X0261526Y0126250D01*
X0264605Y0126250D01*
X0261526Y0126250D01*
X0261526Y0125947D01*
X0261644Y0125352D01*
X0261877Y0124791D01*
X0262214Y0124287D01*
X0262643Y0123858D01*
X0263147Y0123521D01*
X0261821Y0124926D02*
X0203243Y0124926D01*
X0203243Y0127324D02*
X0228113Y0127324D01*
X0225764Y0129723D02*
X0203243Y0129723D01*
X0203243Y0132121D02*
X0224026Y0132121D01*
X0224770Y0134520D02*
X0203243Y0134520D01*
X0193468Y0134520D02*
X0155691Y0134520D01*
X0155966Y0134244D02*
X0155100Y0135111D01*
X0153968Y0135580D01*
X0152743Y0135580D01*
X0151611Y0135111D01*
X0150745Y0134244D01*
X0150276Y0133113D01*
X0150276Y0131887D01*
X0150745Y0130756D01*
X0151611Y0129889D01*
X0152743Y0129420D01*
X0153968Y0129420D01*
X0155100Y0129889D01*
X0155966Y0130756D01*
X0156435Y0131887D01*
X0156435Y0133113D01*
X0155966Y0134244D01*
X0156435Y0132121D02*
X0193468Y0132121D01*
X0193468Y0129723D02*
X0185036Y0129723D01*
X0185185Y0129363D02*
X0184716Y0130494D01*
X0183850Y0131361D01*
X0182718Y0131830D01*
X0181493Y0131830D01*
X0180361Y0131361D01*
X0179495Y0130494D01*
X0179026Y0129363D01*
X0179026Y0128137D01*
X0179495Y0127006D01*
X0180361Y0126139D01*
X0181493Y0125670D01*
X0182718Y0125670D01*
X0183850Y0126139D01*
X0184716Y0127006D01*
X0185185Y0128137D01*
X0185185Y0129363D01*
X0184848Y0127324D02*
X0193468Y0127324D01*
X0193468Y0124926D02*
X0144843Y0124926D01*
X0144843Y0127324D02*
X0179363Y0127324D01*
X0179175Y0129723D02*
X0154698Y0129723D01*
X0152014Y0129723D02*
X0144843Y0129723D01*
X0144843Y0132121D02*
X0150276Y0132121D01*
X0151020Y0134520D02*
X0144843Y0134520D01*
X0149629Y0136918D02*
X0193468Y0136918D01*
X0193468Y0139317D02*
X0150185Y0139317D01*
X0147994Y0141715D02*
X0182847Y0141715D01*
X0183191Y0144114D02*
X0166322Y0144114D01*
X0166435Y0144387D02*
X0165966Y0143256D01*
X0165100Y0142389D01*
X0163968Y0141920D01*
X0162743Y0141920D01*
X0161611Y0142389D01*
X0160856Y0143145D01*
X0160100Y0142389D01*
X0158968Y0141920D01*
X0157743Y0141920D01*
X0156611Y0142389D01*
X0155745Y0143256D01*
X0155276Y0144387D01*
X0155276Y0145613D01*
X0155745Y0146744D01*
X0156611Y0147611D01*
X0157743Y0148080D01*
X0158968Y0148080D01*
X0160100Y0147611D01*
X0160856Y0146855D01*
X0161611Y0147611D01*
X0162743Y0148080D01*
X0163968Y0148080D01*
X0165100Y0147611D01*
X0165966Y0146744D01*
X0166435Y0145613D01*
X0166435Y0144387D01*
X0166063Y0146512D02*
X0176843Y0146512D01*
X0174445Y0148911D02*
X0154587Y0148911D01*
X0153356Y0148911D02*
X0153356Y0148911D01*
X0153356Y0148713D02*
X0153356Y0152500D01*
X0157143Y0152500D01*
X0153356Y0152500D01*
X0153356Y0152500D01*
X0153356Y0152500D01*
X0153356Y0153713D01*
X0153356Y0157500D01*
X0157143Y0157500D01*
X0153356Y0157500D01*
X0153356Y0157500D01*
X0153356Y0157500D01*
X0153356Y0152500D01*
X0153356Y0152500D01*
X0153356Y0148713D01*
X0152124Y0148911D02*
X0149587Y0148911D01*
X0148356Y0148911D02*
X0148356Y0148911D01*
X0148356Y0148713D02*
X0148356Y0152500D01*
X0152143Y0152500D01*
X0153355Y0152500D01*
X0148356Y0152500D01*
X0148356Y0152500D01*
X0148356Y0152500D01*
X0148356Y0153713D01*
X0148356Y0157500D01*
X0152143Y0157500D01*
X0153355Y0157500D01*
X0148356Y0157500D01*
X0148356Y0157500D01*
X0148356Y0157500D01*
X0148356Y0152500D01*
X0148356Y0152500D01*
X0148356Y0148713D01*
X0147124Y0148911D02*
X0144843Y0148911D01*
X0144843Y0146512D02*
X0155649Y0146512D01*
X0155390Y0144114D02*
X0144843Y0144114D01*
X0144843Y0141715D02*
X0146217Y0141715D01*
X0144749Y0151309D02*
X0144629Y0151309D01*
X0144568Y0152500D02*
X0148355Y0152500D01*
X0148355Y0152500D01*
X0144568Y0152500D01*
X0144756Y0153708D02*
X0143385Y0153708D01*
X0148356Y0153708D02*
X0148356Y0153708D01*
X0148356Y0156106D02*
X0148356Y0156106D01*
X0153356Y0156106D02*
X0153356Y0156106D01*
X0153355Y0157500D02*
X0153355Y0157500D01*
X0156878Y0156106D02*
X0167249Y0156106D01*
X0164851Y0158505D02*
X0157017Y0158505D01*
X0156955Y0153708D02*
X0169648Y0153708D01*
X0172046Y0151309D02*
X0156962Y0151309D01*
X0153356Y0151309D02*
X0153356Y0151309D01*
X0153355Y0152500D02*
X0153355Y0152500D01*
X0153356Y0153708D02*
X0153356Y0153708D01*
X0148356Y0151309D02*
X0148356Y0151309D01*
X0152126Y0167737D02*
X0152705Y0169135D01*
X0152705Y0170865D01*
X0152043Y0172464D01*
X0150819Y0173687D01*
X0149221Y0174350D01*
X0148356Y0174350D01*
X0148356Y0175650D01*
X0149221Y0175650D01*
X0150819Y0176313D01*
X0152043Y0177536D01*
X0152705Y0179135D01*
X0152705Y0180865D01*
X0152043Y0182464D01*
X0150819Y0183687D01*
X0149221Y0184350D01*
X0148356Y0184350D01*
X0148356Y0190000D01*
X0159606Y0190000D01*
X0159875Y0184080D01*
X0159374Y0184242D01*
X0158698Y0184350D01*
X0158356Y0184350D01*
X0158356Y0180000D01*
X0158356Y0180000D01*
X0158356Y0175650D01*
X0158698Y0175650D01*
X0159374Y0175757D01*
X0160025Y0175969D01*
X0160238Y0176078D01*
X0160339Y0173871D01*
X0160025Y0174031D01*
X0159374Y0174242D01*
X0158698Y0174350D01*
X0158356Y0174350D01*
X0158356Y0170000D01*
X0158356Y0170000D01*
X0158356Y0174350D01*
X0158013Y0174350D01*
X0157337Y0174242D01*
X0156686Y0174031D01*
X0156076Y0173720D01*
X0155522Y0173318D01*
X0155038Y0172834D01*
X0154636Y0172280D01*
X0154325Y0171670D01*
X0154113Y0171019D01*
X0154006Y0170342D01*
X0154006Y0170000D01*
X0158355Y0170000D01*
X0154006Y0170000D01*
X0154006Y0169658D01*
X0154113Y0168981D01*
X0154325Y0168330D01*
X0154627Y0167737D01*
X0152126Y0167737D01*
X0152276Y0168099D02*
X0154443Y0168099D01*
X0154031Y0170497D02*
X0152705Y0170497D01*
X0151611Y0172896D02*
X0155100Y0172896D01*
X0158356Y0172896D02*
X0158356Y0172896D01*
X0158356Y0170497D02*
X0158356Y0170497D01*
X0158355Y0170000D02*
X0158355Y0170000D01*
X0160274Y0175294D02*
X0148356Y0175294D01*
X0152108Y0177693D02*
X0154655Y0177693D01*
X0154636Y0177720D02*
X0155038Y0177166D01*
X0155522Y0176682D01*
X0156076Y0176280D01*
X0156686Y0175969D01*
X0157337Y0175757D01*
X0158013Y0175650D01*
X0158356Y0175650D01*
X0158356Y0180000D01*
X0158356Y0180000D01*
X0158356Y0184350D01*
X0158013Y0184350D01*
X0157337Y0184242D01*
X0156686Y0184031D01*
X0156076Y0183720D01*
X0155522Y0183318D01*
X0155038Y0182834D01*
X0154636Y0182280D01*
X0154325Y0181670D01*
X0154113Y0181019D01*
X0154006Y0180342D01*
X0154006Y0180000D01*
X0158355Y0180000D01*
X0154006Y0180000D01*
X0154006Y0179658D01*
X0154113Y0178981D01*
X0154325Y0178330D01*
X0154636Y0177720D01*
X0154006Y0180091D02*
X0152705Y0180091D01*
X0152017Y0182490D02*
X0154788Y0182490D01*
X0158356Y0182490D02*
X0158356Y0182490D01*
X0158356Y0180091D02*
X0158356Y0180091D01*
X0158355Y0180000D02*
X0158355Y0180000D01*
X0158356Y0177693D02*
X0158356Y0177693D01*
X0159838Y0184888D02*
X0148356Y0184888D01*
X0148356Y0187287D02*
X0159729Y0187287D01*
X0159620Y0189685D02*
X0148356Y0189685D01*
X0227299Y0139317D02*
X0250817Y0139317D01*
X0250347Y0141715D02*
X0248864Y0141715D01*
X0248520Y0144114D02*
X0250691Y0144114D01*
X0256020Y0144114D02*
X0265866Y0144114D01*
X0265968Y0141715D02*
X0256364Y0141715D01*
X0255894Y0139317D02*
X0265968Y0139317D01*
X0265968Y0136918D02*
X0256435Y0136918D01*
X0255691Y0134520D02*
X0267960Y0134520D01*
X0270358Y0132121D02*
X0256435Y0132121D01*
X0254698Y0129723D02*
X0270856Y0129723D01*
X0270856Y0127324D02*
X0267494Y0127324D01*
X0267390Y0124926D02*
X0270856Y0124926D01*
X0270856Y0122527D02*
X0203243Y0122527D01*
X0203243Y0120129D02*
X0270856Y0120129D01*
X0270856Y0117730D02*
X0203243Y0117730D01*
X0203243Y0115332D02*
X0270856Y0115332D01*
X0270856Y0112933D02*
X0203243Y0112933D01*
X0193468Y0115332D02*
X0148663Y0115332D01*
X0149843Y0112933D02*
X0190412Y0112933D01*
X0190968Y0113489D02*
X0190968Y0113489D01*
X0188014Y0110534D02*
X0149843Y0110534D01*
X0149843Y0108136D02*
X0185615Y0108136D01*
X0180856Y0108080D02*
X0180856Y0105000D01*
X0180856Y0105000D01*
X0180856Y0101920D01*
X0180552Y0101920D01*
X0179957Y0102039D01*
X0179397Y0102271D01*
X0178893Y0102608D01*
X0178464Y0103037D01*
X0178127Y0103541D01*
X0177894Y0104102D01*
X0177776Y0104697D01*
X0177776Y0105000D01*
X0180855Y0105000D01*
X0177776Y0105000D01*
X0177776Y0105303D01*
X0177894Y0105898D01*
X0178127Y0106459D01*
X0178464Y0106963D01*
X0178893Y0107392D01*
X0179397Y0107729D01*
X0179957Y0107961D01*
X0180552Y0108080D01*
X0180856Y0108080D01*
X0180856Y0105737D02*
X0180856Y0105737D01*
X0180855Y0105000D02*
X0180855Y0105000D01*
X0180856Y0103339D02*
X0180856Y0103339D01*
X0183449Y0103339D02*
X0183468Y0103339D01*
X0183468Y0100940D02*
X0159793Y0100940D01*
X0158850Y0098861D02*
X0157718Y0099330D01*
X0156493Y0099330D01*
X0155361Y0098861D01*
X0154495Y0097994D01*
X0154026Y0096863D01*
X0154026Y0095637D01*
X0154495Y0094506D01*
X0155361Y0093639D01*
X0156493Y0093170D01*
X0157718Y0093170D01*
X0158850Y0093639D01*
X0159716Y0094506D01*
X0160185Y0095637D01*
X0160185Y0096863D01*
X0159716Y0097994D01*
X0158850Y0098861D01*
X0159169Y0098542D02*
X0177954Y0098542D01*
X0178084Y0096143D02*
X0160185Y0096143D01*
X0158956Y0093745D02*
X0183468Y0093745D01*
X0183468Y0091346D02*
X0149843Y0091346D01*
X0149843Y0088948D02*
X0168122Y0088948D01*
X0168245Y0089244D02*
X0167776Y0088113D01*
X0167776Y0086887D01*
X0168245Y0085756D01*
X0169111Y0084889D01*
X0170243Y0084420D01*
X0171468Y0084420D01*
X0172600Y0084889D01*
X0173466Y0085756D01*
X0173935Y0086887D01*
X0173935Y0088113D01*
X0173466Y0089244D01*
X0172600Y0090111D01*
X0171468Y0090580D01*
X0170243Y0090580D01*
X0169111Y0090111D01*
X0168245Y0089244D01*
X0167916Y0086549D02*
X0149843Y0086549D01*
X0149843Y0084151D02*
X0181630Y0084151D01*
X0183468Y0086549D02*
X0173795Y0086549D01*
X0173589Y0088948D02*
X0183468Y0088948D01*
X0179232Y0081752D02*
X0168458Y0081752D01*
X0168466Y0081744D02*
X0167600Y0082611D01*
X0166468Y0083080D01*
X0165243Y0083080D01*
X0164111Y0082611D01*
X0163245Y0081744D01*
X0162776Y0080613D01*
X0162776Y0080556D01*
X0162718Y0080580D01*
X0161493Y0080580D01*
X0160361Y0080111D01*
X0159495Y0079244D01*
X0159026Y0078113D01*
X0159026Y0076887D01*
X0159495Y0075756D01*
X0160361Y0074889D01*
X0161493Y0074420D01*
X0162718Y0074420D01*
X0163850Y0074889D01*
X0164716Y0075756D01*
X0165185Y0076887D01*
X0165185Y0076944D01*
X0165243Y0076920D01*
X0166468Y0076920D01*
X0167600Y0077389D01*
X0168466Y0078256D01*
X0168935Y0079387D01*
X0168935Y0080613D01*
X0168466Y0081744D01*
X0168921Y0079354D02*
X0176833Y0079354D01*
X0174867Y0077387D02*
X0174867Y0077387D01*
X0174435Y0076955D02*
X0166552Y0076955D01*
X0166468Y0075580D02*
X0165243Y0075580D01*
X0164111Y0075111D01*
X0163245Y0074244D01*
X0162776Y0073113D01*
X0162776Y0071887D01*
X0163245Y0070756D01*
X0164111Y0069889D01*
X0165243Y0069420D01*
X0166468Y0069420D01*
X0167600Y0069889D01*
X0168466Y0070756D01*
X0168935Y0071887D01*
X0168935Y0073113D01*
X0168466Y0074244D01*
X0167600Y0075111D01*
X0166468Y0075580D01*
X0168154Y0074557D02*
X0173468Y0074557D01*
X0173468Y0072158D02*
X0168935Y0072158D01*
X0167287Y0069760D02*
X0173468Y0069760D01*
X0175118Y0067361D02*
X0149843Y0067361D01*
X0149843Y0064963D02*
X0174680Y0064963D01*
X0177052Y0062564D02*
X0149843Y0062564D01*
X0149843Y0060166D02*
X0164302Y0060166D01*
X0164397Y0060229D02*
X0163893Y0059892D01*
X0163464Y0059463D01*
X0163127Y0058959D01*
X0162894Y0058398D01*
X0162776Y0057803D01*
X0162776Y0057500D01*
X0165855Y0057500D01*
X0162776Y0057500D01*
X0162776Y0057197D01*
X0162894Y0056602D01*
X0163127Y0056041D01*
X0163464Y0055537D01*
X0163893Y0055108D01*
X0164397Y0054771D01*
X0164957Y0054539D01*
X0165552Y0054420D01*
X0165856Y0054420D01*
X0166159Y0054420D01*
X0166754Y0054539D01*
X0167314Y0054771D01*
X0167819Y0055108D01*
X0168248Y0055537D01*
X0168585Y0056041D01*
X0168817Y0056602D01*
X0168935Y0057197D01*
X0168935Y0057500D01*
X0168935Y0057803D01*
X0168817Y0058398D01*
X0168585Y0058959D01*
X0168248Y0059463D01*
X0167819Y0059892D01*
X0167314Y0060229D01*
X0166754Y0060461D01*
X0166159Y0060580D01*
X0165856Y0060580D01*
X0165856Y0057500D01*
X0168935Y0057500D01*
X0165856Y0057500D01*
X0165856Y0057500D01*
X0165856Y0057500D01*
X0165856Y0054420D01*
X0165856Y0057500D01*
X0165856Y0057500D01*
X0165856Y0060580D01*
X0165552Y0060580D01*
X0164957Y0060461D01*
X0164397Y0060229D01*
X0165856Y0060166D02*
X0165856Y0060166D01*
X0167409Y0060166D02*
X0178835Y0060166D01*
X0182877Y0060166D02*
X0184221Y0060166D01*
X0184026Y0060637D02*
X0184495Y0059506D01*
X0185361Y0058639D01*
X0186493Y0058170D01*
X0187718Y0058170D01*
X0188850Y0058639D01*
X0189716Y0059506D01*
X0190185Y0060637D01*
X0190185Y0061863D01*
X0189716Y0062994D01*
X0188850Y0063861D01*
X0187718Y0064330D01*
X0186493Y0064330D01*
X0185361Y0063861D01*
X0184495Y0062994D01*
X0184026Y0061863D01*
X0184026Y0060637D01*
X0183935Y0062564D02*
X0184317Y0062564D01*
X0183243Y0064963D02*
X0189038Y0064963D01*
X0189895Y0062564D02*
X0209065Y0062564D01*
X0207776Y0060166D02*
X0189990Y0060166D01*
X0187776Y0067361D02*
X0185032Y0067361D01*
X0168935Y0057767D02*
X0208733Y0057767D01*
X0209734Y0055369D02*
X0168079Y0055369D01*
X0165856Y0055369D02*
X0165856Y0055369D01*
X0165855Y0057500D02*
X0165855Y0057500D01*
X0165856Y0057767D02*
X0165856Y0057767D01*
X0162776Y0057767D02*
X0149843Y0057767D01*
X0149843Y0055369D02*
X0163632Y0055369D01*
X0164957Y0052961D02*
X0164397Y0052729D01*
X0163893Y0052392D01*
X0163464Y0051963D01*
X0163127Y0051459D01*
X0162894Y0050898D01*
X0162776Y0050303D01*
X0162776Y0050000D01*
X0165855Y0050000D01*
X0162776Y0050000D01*
X0162776Y0049697D01*
X0162894Y0049102D01*
X0163127Y0048541D01*
X0163464Y0048037D01*
X0163893Y0047608D01*
X0164397Y0047271D01*
X0164957Y0047039D01*
X0165552Y0046920D01*
X0165856Y0046920D01*
X0166159Y0046920D01*
X0166754Y0047039D01*
X0167314Y0047271D01*
X0167819Y0047608D01*
X0168248Y0048037D01*
X0168585Y0048541D01*
X0168817Y0049102D01*
X0168935Y0049697D01*
X0168935Y0050000D01*
X0168935Y0050303D01*
X0168817Y0050898D01*
X0168585Y0051459D01*
X0168248Y0051963D01*
X0167819Y0052392D01*
X0167314Y0052729D01*
X0166754Y0052961D01*
X0166159Y0053080D01*
X0165856Y0053080D01*
X0165856Y0050000D01*
X0168935Y0050000D01*
X0165856Y0050000D01*
X0165856Y0050000D01*
X0165856Y0050000D01*
X0165856Y0046920D01*
X0165856Y0050000D01*
X0165856Y0050000D01*
X0165856Y0053080D01*
X0165552Y0053080D01*
X0164957Y0052961D01*
X0165003Y0052970D02*
X0149843Y0052970D01*
X0149843Y0050572D02*
X0162830Y0050572D01*
X0163373Y0048173D02*
X0150821Y0048173D01*
X0153220Y0045775D02*
X0172843Y0045775D01*
X0172776Y0045613D02*
X0172776Y0044387D01*
X0173245Y0043256D01*
X0174111Y0042389D01*
X0175243Y0041920D01*
X0176468Y0041920D01*
X0177600Y0042389D01*
X0178466Y0043256D01*
X0178935Y0044387D01*
X0178935Y0045613D01*
X0178466Y0046744D01*
X0177711Y0047500D01*
X0178466Y0048256D01*
X0178935Y0049387D01*
X0178935Y0050613D01*
X0178466Y0051744D01*
X0177600Y0052611D01*
X0176468Y0053080D01*
X0175243Y0053080D01*
X0174111Y0052611D01*
X0173245Y0051744D01*
X0172776Y0050613D01*
X0172776Y0049387D01*
X0173245Y0048256D01*
X0174001Y0047500D01*
X0173245Y0046744D01*
X0172776Y0045613D01*
X0173195Y0043376D02*
X0155618Y0043376D01*
X0158017Y0040978D02*
X0187927Y0040978D01*
X0190695Y0043376D02*
X0178516Y0043376D01*
X0178868Y0045775D02*
X0190343Y0045775D01*
X0195301Y0048173D02*
X0178384Y0048173D01*
X0178935Y0050572D02*
X0197724Y0050572D01*
X0198987Y0050572D02*
X0208440Y0050572D01*
X0208464Y0050537D02*
X0208893Y0050108D01*
X0209397Y0049771D01*
X0209957Y0049539D01*
X0210552Y0049420D01*
X0210856Y0049420D01*
X0210856Y0052500D01*
X0210856Y0052500D01*
X0210856Y0055580D01*
X0210552Y0055580D01*
X0209957Y0055461D01*
X0209397Y0055229D01*
X0208893Y0054892D01*
X0208464Y0054463D01*
X0208127Y0053959D01*
X0207894Y0053398D01*
X0207776Y0052803D01*
X0207776Y0052500D01*
X0210855Y0052500D01*
X0207776Y0052500D01*
X0207776Y0052197D01*
X0207894Y0051602D01*
X0208127Y0051041D01*
X0208464Y0050537D01*
X0210856Y0050572D02*
X0210856Y0050572D01*
X0210855Y0052500D02*
X0210855Y0052500D01*
X0210856Y0052970D02*
X0210856Y0052970D01*
X0210856Y0055369D02*
X0210856Y0055369D01*
X0207809Y0052970D02*
X0176732Y0052970D01*
X0174979Y0052970D02*
X0166708Y0052970D01*
X0165856Y0052970D02*
X0165856Y0052970D01*
X0165856Y0050572D02*
X0165856Y0050572D01*
X0165855Y0050000D02*
X0165855Y0050000D01*
X0165856Y0048173D02*
X0165856Y0048173D01*
X0168339Y0048173D02*
X0173327Y0048173D01*
X0172776Y0050572D02*
X0168882Y0050572D01*
X0164424Y0069760D02*
X0149843Y0069760D01*
X0149843Y0072158D02*
X0162776Y0072158D01*
X0163047Y0074557D02*
X0163557Y0074557D01*
X0161164Y0074557D02*
X0149843Y0074557D01*
X0149843Y0076955D02*
X0159026Y0076955D01*
X0159604Y0079354D02*
X0149843Y0079354D01*
X0149843Y0081752D02*
X0163253Y0081752D01*
X0155256Y0093745D02*
X0153669Y0093745D01*
X0153715Y0096143D02*
X0154026Y0096143D01*
X0155042Y0098542D02*
X0149843Y0098542D01*
X0149843Y0100940D02*
X0150841Y0100940D01*
X0153370Y0100940D02*
X0154418Y0100940D01*
X0160091Y0103339D02*
X0178262Y0103339D01*
X0177862Y0105737D02*
X0154473Y0105737D01*
X0161611Y0117389D02*
X0160745Y0118256D01*
X0160276Y0119387D01*
X0160276Y0120613D01*
X0160745Y0121744D01*
X0161611Y0122611D01*
X0162743Y0123080D01*
X0163968Y0123080D01*
X0165100Y0122611D01*
X0165966Y0121744D01*
X0166435Y0120613D01*
X0166435Y0119387D01*
X0165966Y0118256D01*
X0165100Y0117389D01*
X0163968Y0116920D01*
X0162743Y0116920D01*
X0161611Y0117389D01*
X0161270Y0117730D02*
X0144843Y0117730D01*
X0144843Y0120129D02*
X0160276Y0120129D01*
X0161528Y0122527D02*
X0144843Y0122527D01*
X0165184Y0122527D02*
X0171528Y0122527D01*
X0171611Y0122611D02*
X0170745Y0121744D01*
X0170276Y0120613D01*
X0170276Y0119387D01*
X0170745Y0118256D01*
X0171611Y0117389D01*
X0172743Y0116920D01*
X0173968Y0116920D01*
X0175100Y0117389D01*
X0175856Y0118145D01*
X0176611Y0117389D01*
X0177743Y0116920D01*
X0178968Y0116920D01*
X0180100Y0117389D01*
X0180856Y0118145D01*
X0181611Y0117389D01*
X0182743Y0116920D01*
X0183968Y0116920D01*
X0185100Y0117389D01*
X0185856Y0118145D01*
X0186611Y0117389D01*
X0187743Y0116920D01*
X0188968Y0116920D01*
X0190100Y0117389D01*
X0190966Y0118256D01*
X0191435Y0119387D01*
X0191435Y0120613D01*
X0190966Y0121744D01*
X0190100Y0122611D01*
X0188968Y0123080D01*
X0187743Y0123080D01*
X0186611Y0122611D01*
X0185856Y0121855D01*
X0185100Y0122611D01*
X0183968Y0123080D01*
X0182743Y0123080D01*
X0181611Y0122611D01*
X0180856Y0121855D01*
X0180100Y0122611D01*
X0178968Y0123080D01*
X0177743Y0123080D01*
X0176611Y0122611D01*
X0175856Y0121855D01*
X0175100Y0122611D01*
X0173968Y0123080D01*
X0172743Y0123080D01*
X0171611Y0122611D01*
X0170276Y0120129D02*
X0166435Y0120129D01*
X0165441Y0117730D02*
X0171270Y0117730D01*
X0175441Y0117730D02*
X0176270Y0117730D01*
X0180441Y0117730D02*
X0181270Y0117730D01*
X0185441Y0117730D02*
X0186270Y0117730D01*
X0190441Y0117730D02*
X0193468Y0117730D01*
X0193468Y0120129D02*
X0191435Y0120129D01*
X0190184Y0122527D02*
X0193468Y0122527D01*
X0186528Y0122527D02*
X0185184Y0122527D01*
X0181528Y0122527D02*
X0180184Y0122527D01*
X0176528Y0122527D02*
X0175184Y0122527D01*
X0224900Y0136918D02*
X0231897Y0136918D01*
X0232218Y0137239D02*
X0232218Y0137239D01*
X0229499Y0134520D02*
X0229441Y0134520D01*
X0233853Y0132121D02*
X0250276Y0132121D01*
X0252014Y0129723D02*
X0233786Y0129723D01*
X0233598Y0127324D02*
X0261717Y0127324D01*
X0264606Y0127324D02*
X0264606Y0127324D01*
X0264605Y0126250D02*
X0264605Y0126250D01*
X0264606Y0124926D02*
X0264606Y0124926D01*
X0267117Y0110534D02*
X0270856Y0110534D01*
X0270856Y0108136D02*
X0267623Y0108136D01*
X0221159Y0072158D02*
X0218813Y0072158D01*
X0221114Y0067361D02*
X0221679Y0067361D01*
X0203326Y0019391D02*
X0182343Y0019391D01*
X0182343Y0016993D02*
X0184473Y0016993D01*
X0184668Y0017464D02*
X0184006Y0015865D01*
X0184006Y0014135D01*
X0184668Y0012536D01*
X0185892Y0011313D01*
X0187490Y0010650D01*
X0189221Y0010650D01*
X0190819Y0011313D01*
X0192043Y0012536D01*
X0192705Y0014135D01*
X0192705Y0015865D01*
X0192043Y0017464D01*
X0190819Y0018687D01*
X0189221Y0019350D01*
X0187490Y0019350D01*
X0185892Y0018687D01*
X0184668Y0017464D01*
X0184006Y0014594D02*
X0182705Y0014594D01*
X0181702Y0012196D02*
X0185009Y0012196D01*
X0191702Y0012196D02*
X0195009Y0012196D01*
X0194668Y0012536D02*
X0195892Y0011313D01*
X0197490Y0010650D01*
X0199221Y0010650D01*
X0200819Y0011313D01*
X0202043Y0012536D01*
X0202705Y0014135D01*
X0202705Y0015865D01*
X0202043Y0017464D01*
X0200819Y0018687D01*
X0199221Y0019350D01*
X0197490Y0019350D01*
X0195892Y0018687D01*
X0194668Y0017464D01*
X0194006Y0015865D01*
X0194006Y0014135D01*
X0194668Y0012536D01*
X0194006Y0014594D02*
X0192705Y0014594D01*
X0192238Y0016993D02*
X0194473Y0016993D01*
X0202238Y0016993D02*
X0204368Y0016993D01*
X0204006Y0014594D02*
X0202705Y0014594D01*
X0201702Y0012196D02*
X0205009Y0012196D01*
D14*
X0082106Y0037500D03*
X0100856Y0040000D03*
X0110856Y0033750D03*
X0114606Y0036250D03*
X0108356Y0030000D03*
X0117106Y0027500D03*
X0110856Y0047500D03*
X0095856Y0050000D03*
X0095856Y0062500D03*
X0104606Y0061250D03*
X0080856Y0067500D03*
X0090856Y0077500D03*
X0083356Y0080000D03*
X0102106Y0080000D03*
X0105856Y0087500D03*
X0120856Y0090000D03*
X0107106Y0097500D03*
X0105856Y0101250D03*
X0115856Y0100000D03*
X0120856Y0100000D03*
X0125856Y0110000D03*
X0152106Y0103750D03*
X0157106Y0102500D03*
X0157106Y0096250D03*
X0150856Y0095000D03*
X0170856Y0087500D03*
X0165856Y0080000D03*
X0162106Y0077500D03*
X0165856Y0072500D03*
X0177745Y0065610D03*
X0183356Y0070000D03*
X0180856Y0072500D03*
X0185856Y0075000D03*
X0194497Y0081358D03*
X0198356Y0077500D03*
X0210856Y0072500D03*
X0215856Y0071250D03*
X0218356Y0068750D03*
X0223356Y0070000D03*
X0223356Y0062500D03*
X0210856Y0060000D03*
X0210856Y0052500D03*
X0198356Y0047500D03*
X0193356Y0045000D03*
X0190856Y0040000D03*
X0175856Y0045000D03*
X0175856Y0050000D03*
X0165856Y0050000D03*
X0165856Y0057500D03*
X0180856Y0062500D03*
X0187106Y0061250D03*
X0190856Y0067500D03*
X0215856Y0082500D03*
X0225856Y0082500D03*
X0228356Y0080000D03*
X0233356Y0087500D03*
X0240856Y0085000D03*
X0245856Y0085000D03*
X0245856Y0090000D03*
X0253356Y0092500D03*
X0253356Y0097500D03*
X0252106Y0105000D03*
X0264606Y0108750D03*
X0270856Y0092500D03*
X0275856Y0092500D03*
X0263356Y0087500D03*
X0258356Y0087500D03*
X0255856Y0085000D03*
X0255856Y0080000D03*
X0255856Y0075000D03*
X0263356Y0072500D03*
X0265856Y0070000D03*
X0265856Y0075000D03*
X0253356Y0070000D03*
X0248356Y0070000D03*
X0240856Y0060000D03*
X0235856Y0055000D03*
X0233356Y0045000D03*
X0235856Y0042500D03*
X0238356Y0040000D03*
X0253356Y0035000D03*
X0258356Y0035000D03*
X0268356Y0040000D03*
X0270856Y0042500D03*
X0273356Y0045000D03*
X0275856Y0047500D03*
X0283356Y0052500D03*
X0280856Y0055000D03*
X0278356Y0057500D03*
X0275856Y0060000D03*
X0280856Y0075000D03*
X0285856Y0075000D03*
X0298356Y0077500D03*
X0298356Y0081250D03*
X0310856Y0082500D03*
X0320856Y0077500D03*
X0323356Y0080000D03*
X0323356Y0085000D03*
X0323356Y0090000D03*
X0320856Y0092500D03*
X0298356Y0090000D03*
X0310856Y0072500D03*
X0233356Y0106250D03*
X0227106Y0090000D03*
X0219606Y0091250D03*
X0203356Y0092500D03*
X0203356Y0096250D03*
X0193356Y0097500D03*
X0193356Y0102500D03*
X0180856Y0105000D03*
X0180856Y0097500D03*
X0183356Y0120000D03*
X0188356Y0120000D03*
X0178356Y0120000D03*
X0173356Y0120000D03*
X0163356Y0120000D03*
X0182106Y0128750D03*
X0185856Y0142500D03*
X0190856Y0142500D03*
X0195856Y0142500D03*
X0200856Y0142500D03*
X0205856Y0142500D03*
X0210856Y0142500D03*
X0215856Y0142500D03*
X0220856Y0142500D03*
X0225856Y0142500D03*
X0230856Y0142500D03*
X0235856Y0142500D03*
X0240856Y0142500D03*
X0245856Y0142500D03*
X0253356Y0142500D03*
X0253356Y0137500D03*
X0253356Y0132500D03*
X0264606Y0126250D03*
X0230856Y0128750D03*
X0227106Y0132500D03*
X0163356Y0145000D03*
X0158356Y0145000D03*
X0147106Y0138750D03*
X0153356Y0132500D03*
X0098356Y0140000D03*
X0092106Y0140000D03*
X0085856Y0140000D03*
X0079606Y0140000D03*
X0079606Y0148750D03*
X0085856Y0148750D03*
X0092106Y0148750D03*
X0098356Y0148750D03*
X0098356Y0157500D03*
X0092106Y0157500D03*
X0085856Y0157500D03*
X0079606Y0157500D03*
X0078356Y0167500D03*
X0085856Y0167500D03*
X0062106Y0145000D03*
X0042106Y0140000D03*
X0035856Y0142500D03*
X0043356Y0156250D03*
X0048356Y0126250D03*
X0060856Y0122500D03*
X0075856Y0122500D03*
X0084606Y0117500D03*
X0095856Y0107500D03*
X0078356Y0093750D03*
X0060856Y0103750D03*
X0042106Y0101250D03*
X0035856Y0097500D03*
X0038356Y0077500D03*
X0053356Y0056250D03*
X0048356Y0053750D03*
D15*
X0064606Y0065000D03*
X0064606Y0071250D03*
X0123356Y0050000D03*
X0145856Y0107500D03*
X0145856Y0112500D03*
X0140856Y0140000D03*
X0140856Y0145000D03*
X0140856Y0150000D03*
X0148356Y0152500D03*
X0153356Y0152500D03*
X0153356Y0157500D03*
X0148356Y0157500D03*
X0133356Y0172500D03*
X0093356Y0187500D03*
X0088356Y0187500D03*
X0083356Y0187500D03*
X0095856Y0126250D03*
D16*
X0140856Y0150000D02*
X0140856Y0045000D01*
X0155856Y0030000D01*
X0170856Y0030000D01*
X0178356Y0022500D01*
X0178356Y0015000D01*
X0168356Y0015000D02*
X0168356Y0021250D01*
X0167106Y0022500D01*
X0155856Y0022500D01*
X0135856Y0042500D01*
X0135856Y0152500D01*
X0147106Y0163750D01*
X0167106Y0163750D01*
X0168356Y0165000D01*
X0168356Y0170000D01*
X0168356Y0180000D01*
X0158356Y0180000D02*
X0158356Y0185000D01*
X0162106Y0188750D01*
X0174606Y0188750D01*
X0179606Y0183750D01*
X0179606Y0161250D01*
X0187106Y0153750D01*
X0269606Y0153750D01*
X0274606Y0148750D01*
X0274606Y0140000D01*
X0288856Y0125750D01*
X0158356Y0180000D02*
X0158356Y0186250D01*
X0155856Y0188750D01*
X0147106Y0188750D01*
X0142106Y0185000D01*
X0129606Y0185000D01*
X0122356Y0192250D01*
X0122356Y0205000D01*
X0093356Y0187500D02*
X0093356Y0182559D01*
X0088356Y0177559D01*
X0075915Y0177559D01*
X0075856Y0177500D01*
X0074606Y0177500D01*
X0069606Y0172500D01*
X0069606Y0155000D01*
X0069606Y0087500D01*
X0064606Y0082500D01*
X0064606Y0065000D01*
X0123356Y0050000D02*
X0130856Y0050000D01*
X0130856Y0040000D01*
X0148356Y0022500D01*
X0148356Y0015000D01*
X0173356Y0035000D02*
X0183356Y0025000D01*
X0203356Y0025000D01*
X0208356Y0020000D01*
X0208356Y0015000D01*
X0173356Y0035000D02*
X0158356Y0035000D01*
X0145856Y0047500D01*
X0145856Y0107500D01*
X0145856Y0112500D01*
X0130856Y0080000D02*
X0130856Y0050000D01*
X0130856Y0080000D02*
X0130856Y0156250D01*
X0142106Y0167500D01*
X0142106Y0185000D01*
X0093356Y0187500D02*
X0088356Y0187500D01*
X0083356Y0187500D01*
D17*
X0195856Y0145000D02*
X0195856Y0142500D01*
X0195856Y0113750D01*
X0194606Y0112500D01*
X0193356Y0112500D01*
X0185856Y0105000D01*
X0185856Y0085000D01*
X0175856Y0075000D01*
X0175856Y0070000D01*
X0177745Y0068110D01*
X0177745Y0065610D01*
X0180856Y0067500D02*
X0178356Y0070000D01*
X0178356Y0075000D01*
X0188356Y0085000D01*
X0188356Y0105000D01*
X0193356Y0110000D01*
X0194606Y0110000D01*
X0198356Y0113750D01*
X0198356Y0138750D01*
X0199606Y0140000D01*
X0209606Y0140000D01*
X0210856Y0141250D01*
X0210856Y0142500D01*
X0215856Y0137500D02*
X0217106Y0138750D01*
X0223356Y0138750D01*
X0225856Y0141250D01*
X0225856Y0142500D01*
X0234606Y0136250D02*
X0252106Y0136250D01*
X0253356Y0137500D01*
X0268356Y0137500D02*
X0268356Y0145000D01*
X0265856Y0147500D01*
X0205856Y0147500D01*
X0200856Y0142500D01*
X0198356Y0147500D02*
X0195856Y0145000D01*
X0198356Y0147500D02*
X0200856Y0147500D01*
X0203356Y0150000D01*
X0267106Y0150000D01*
X0270856Y0146250D01*
X0270856Y0138750D01*
X0283356Y0126250D01*
X0283356Y0119500D01*
X0278856Y0115000D01*
X0278856Y0127000D02*
X0268356Y0137500D01*
X0234606Y0136250D02*
X0230856Y0132500D01*
X0230856Y0128750D01*
X0215856Y0137500D02*
X0202106Y0137500D01*
X0200856Y0136250D01*
X0200856Y0113750D01*
X0194606Y0107500D01*
X0193356Y0107500D01*
X0190856Y0105000D01*
X0190856Y0082500D01*
X0188356Y0080000D01*
X0185856Y0080000D01*
X0180856Y0075000D01*
X0180856Y0072500D01*
X0180856Y0067500D02*
X0180856Y0062500D01*
X0203356Y0092500D02*
X0212106Y0092500D01*
X0214606Y0095000D01*
X0242106Y0095000D01*
X0245856Y0091250D01*
X0245856Y0090000D01*
X0248356Y0097500D02*
X0252106Y0101250D01*
X0252106Y0105000D01*
X0248356Y0097500D02*
X0213356Y0097500D01*
X0212106Y0096250D01*
X0203356Y0096250D01*
X0280856Y0047500D02*
X0283356Y0050000D01*
X0293356Y0050000D01*
X0295856Y0052500D01*
X0295856Y0057500D01*
X0308356Y0070000D01*
X0308356Y0075000D01*
X0310856Y0077500D01*
X0310856Y0082500D01*
X0323356Y0080000D02*
X0323356Y0070000D01*
X0320856Y0067500D01*
X0318356Y0067500D01*
X0315856Y0065000D01*
X0305856Y0065000D01*
X0298356Y0057500D01*
X0298356Y0050000D01*
X0295856Y0047500D01*
X0283356Y0047500D01*
X0280856Y0045000D01*
X0273356Y0045000D01*
X0275856Y0047500D02*
X0280856Y0047500D01*
X0117106Y0053750D02*
X0117106Y0038750D01*
X0114606Y0036250D01*
X0117106Y0027500D02*
X0095856Y0027500D01*
X0090856Y0032500D01*
X0090856Y0061250D01*
X0088356Y0063750D01*
X0079606Y0063750D01*
X0077106Y0066250D01*
X0077106Y0070000D01*
X0078356Y0071250D01*
X0078356Y0093750D01*
X0107106Y0097500D02*
X0108356Y0096250D01*
X0108356Y0077500D01*
X0110856Y0075000D01*
X0110856Y0060000D01*
X0117106Y0053750D01*
X0110856Y0047500D02*
X0109606Y0046250D01*
X0099606Y0046250D01*
X0095856Y0050000D01*
X0095856Y0062500D01*
X0113356Y0100000D02*
X0112106Y0101250D01*
X0112106Y0103750D01*
X0104606Y0111250D01*
X0090856Y0111250D01*
X0084606Y0117500D01*
X0113356Y0100000D02*
X0115856Y0100000D01*
D18*
X0115856Y0080000D01*
X0117106Y0078750D01*
X0129606Y0078750D01*
X0130856Y0080000D01*
X0069606Y0155000D02*
X0068356Y0156250D01*
X0043356Y0156250D01*
D19*
X0195856Y0142500D02*
X0196072Y0142008D01*
X0210245Y0142008D02*
X0210856Y0142500D01*
X0225206Y0142008D02*
X0225856Y0142500D01*
D20*
X0275856Y0092500D02*
X0275856Y0060000D01*
M02*
