G75*
%MOIN*%
%OFA0B0*%
%FSLAX25Y25*%
%IPPOS*%
%LPD*%
%AMOC8*
5,1,8,0,0,1.08239X$1,22.5*
%
%ADD10C,0.04724*%
%ADD11C,0.09449*%
%ADD12C,0.15000*%
%ADD13C,0.02184*%
%ADD14C,0.03600*%
%ADD15C,0.00800*%
%ADD16C,0.00787*%
D10*
X0138356Y0015000D03*
X0148356Y0015000D03*
X0158356Y0015000D03*
X0168356Y0015000D03*
X0178356Y0015000D03*
X0188356Y0015000D03*
X0198356Y0015000D03*
X0208356Y0015000D03*
X0228356Y0015000D03*
X0238356Y0015000D03*
X0248356Y0015000D03*
X0258356Y0015000D03*
X0268356Y0015000D03*
X0278356Y0015000D03*
X0278856Y0105000D03*
X0288856Y0105000D03*
X0288856Y0115000D03*
X0278856Y0115000D03*
X0278856Y0125000D03*
X0288856Y0125000D03*
X0168356Y0170000D03*
X0158356Y0170000D03*
X0148356Y0170000D03*
X0148356Y0180000D03*
X0158356Y0180000D03*
X0168356Y0180000D03*
X0172356Y0205000D03*
X0182356Y0205000D03*
X0192356Y0205000D03*
X0208356Y0205000D03*
X0218356Y0205000D03*
X0228356Y0205000D03*
X0238356Y0205000D03*
X0248356Y0205000D03*
X0258356Y0205000D03*
X0268356Y0205000D03*
X0278356Y0205000D03*
X0162356Y0205000D03*
X0152356Y0205000D03*
X0142356Y0205000D03*
X0132356Y0205000D03*
X0122356Y0205000D03*
X0112356Y0205000D03*
X0102356Y0205000D03*
D11*
X0064478Y0193750D03*
X0040856Y0193750D03*
X0052667Y0175246D03*
D12*
X0309871Y0105787D03*
X0309871Y0054213D03*
D13*
X0082106Y0037500D03*
X0100856Y0040000D03*
X0110856Y0033750D03*
X0114606Y0036250D03*
X0108356Y0030000D03*
X0117106Y0027500D03*
X0110856Y0047500D03*
X0095856Y0050000D03*
X0095856Y0062500D03*
X0104606Y0061250D03*
X0080856Y0067500D03*
X0090856Y0077500D03*
X0083356Y0080000D03*
X0102106Y0080000D03*
X0105856Y0087500D03*
X0120856Y0090000D03*
X0107106Y0097500D03*
X0105856Y0101250D03*
X0115856Y0100000D03*
X0120856Y0100000D03*
X0125856Y0110000D03*
X0152106Y0103750D03*
X0157106Y0102500D03*
X0157106Y0096250D03*
X0150856Y0095000D03*
X0170856Y0087500D03*
X0165856Y0080000D03*
X0162106Y0077500D03*
X0165856Y0072500D03*
X0177745Y0065610D03*
X0183356Y0070000D03*
X0180856Y0072500D03*
X0185856Y0075000D03*
X0194497Y0081358D03*
X0198356Y0077500D03*
X0210856Y0072500D03*
X0215856Y0071250D03*
X0218356Y0068750D03*
X0223356Y0070000D03*
X0223356Y0062500D03*
X0210856Y0060000D03*
X0210856Y0052500D03*
X0198356Y0047500D03*
X0193356Y0045000D03*
X0190856Y0040000D03*
X0175856Y0045000D03*
X0175856Y0050000D03*
X0165856Y0050000D03*
X0165856Y0057500D03*
X0180856Y0062500D03*
X0187106Y0061250D03*
X0190856Y0067500D03*
X0215856Y0082500D03*
X0225856Y0082500D03*
X0228356Y0080000D03*
X0233356Y0087500D03*
X0240856Y0085000D03*
X0245856Y0085000D03*
X0245856Y0090000D03*
X0253356Y0092500D03*
X0253356Y0097500D03*
X0252106Y0105000D03*
X0264606Y0108750D03*
X0270856Y0092500D03*
X0275856Y0092500D03*
X0263356Y0087500D03*
X0258356Y0087500D03*
X0255856Y0085000D03*
X0255856Y0080000D03*
X0255856Y0075000D03*
X0263356Y0072500D03*
X0265856Y0070000D03*
X0265856Y0075000D03*
X0253356Y0070000D03*
X0248356Y0070000D03*
X0240856Y0060000D03*
X0235856Y0055000D03*
X0233356Y0045000D03*
X0235856Y0042500D03*
X0238356Y0040000D03*
X0253356Y0035000D03*
X0258356Y0035000D03*
X0268356Y0040000D03*
X0270856Y0042500D03*
X0273356Y0045000D03*
X0275856Y0047500D03*
X0283356Y0052500D03*
X0280856Y0055000D03*
X0278356Y0057500D03*
X0275856Y0060000D03*
X0280856Y0075000D03*
X0285856Y0075000D03*
X0298356Y0077500D03*
X0298356Y0081250D03*
X0310856Y0082500D03*
X0320856Y0077500D03*
X0323356Y0080000D03*
X0323356Y0085000D03*
X0323356Y0090000D03*
X0320856Y0092500D03*
X0298356Y0090000D03*
X0310856Y0072500D03*
X0233356Y0106250D03*
X0227106Y0090000D03*
X0219606Y0091250D03*
X0203356Y0092500D03*
X0203356Y0096250D03*
X0193356Y0097500D03*
X0193356Y0102500D03*
X0180856Y0105000D03*
X0180856Y0097500D03*
X0183356Y0120000D03*
X0188356Y0120000D03*
X0178356Y0120000D03*
X0173356Y0120000D03*
X0163356Y0120000D03*
X0182106Y0128750D03*
X0185856Y0142500D03*
X0190856Y0142500D03*
X0195856Y0142500D03*
X0200856Y0142500D03*
X0205856Y0142500D03*
X0210856Y0142500D03*
X0215856Y0142500D03*
X0220856Y0142500D03*
X0225856Y0142500D03*
X0230856Y0142500D03*
X0235856Y0142500D03*
X0240856Y0142500D03*
X0245856Y0142500D03*
X0253356Y0142500D03*
X0253356Y0137500D03*
X0253356Y0132500D03*
X0264606Y0126250D03*
X0230856Y0128750D03*
X0227106Y0132500D03*
X0163356Y0145000D03*
X0158356Y0145000D03*
X0147106Y0138750D03*
X0153356Y0132500D03*
X0098356Y0140000D03*
X0092106Y0140000D03*
X0085856Y0140000D03*
X0079606Y0140000D03*
X0079606Y0148750D03*
X0085856Y0148750D03*
X0092106Y0148750D03*
X0098356Y0148750D03*
X0098356Y0157500D03*
X0092106Y0157500D03*
X0085856Y0157500D03*
X0079606Y0157500D03*
X0078356Y0167500D03*
X0085856Y0167500D03*
X0062106Y0145000D03*
X0042106Y0140000D03*
X0035856Y0142500D03*
X0043356Y0156250D03*
X0048356Y0126250D03*
X0060856Y0122500D03*
X0075856Y0122500D03*
X0084606Y0117500D03*
X0095856Y0107500D03*
X0078356Y0093750D03*
X0060856Y0103750D03*
X0042106Y0101250D03*
X0035856Y0097500D03*
X0038356Y0077500D03*
X0053356Y0056250D03*
X0048356Y0053750D03*
D14*
X0064606Y0065000D03*
X0064606Y0071250D03*
X0123356Y0050000D03*
X0145856Y0107500D03*
X0145856Y0112500D03*
X0140856Y0140000D03*
X0140856Y0145000D03*
X0140856Y0150000D03*
X0148356Y0152500D03*
X0153356Y0152500D03*
X0153356Y0157500D03*
X0148356Y0157500D03*
X0133356Y0172500D03*
X0093356Y0187500D03*
X0088356Y0187500D03*
X0083356Y0187500D03*
X0095856Y0126250D03*
D15*
X0093356Y0118750D02*
X0085856Y0126250D01*
X0080856Y0126250D01*
X0062106Y0145000D01*
X0093356Y0118750D02*
X0148356Y0118750D01*
X0159606Y0107500D01*
X0159606Y0100000D01*
X0158356Y0098750D01*
X0154606Y0098750D01*
X0153356Y0097500D01*
X0153356Y0078750D01*
X0160856Y0071250D01*
X0160856Y0065000D01*
X0163356Y0062500D01*
X0167106Y0062500D01*
X0170856Y0058750D01*
X0182106Y0058750D01*
X0184606Y0061250D01*
X0187106Y0061250D01*
X0189606Y0063750D02*
X0189606Y0053750D01*
X0183356Y0047500D01*
X0183356Y0027500D01*
X0188356Y0022500D01*
X0265856Y0022500D01*
X0268356Y0020000D01*
X0268356Y0015000D01*
X0278356Y0015000D02*
X0278356Y0022500D01*
X0275856Y0025000D01*
X0190856Y0025000D01*
X0185856Y0030000D01*
X0185856Y0047500D01*
X0193356Y0055000D01*
X0193356Y0066250D01*
X0190856Y0067500D01*
X0188356Y0070000D02*
X0183356Y0070000D01*
X0189606Y0063750D01*
X0188356Y0070000D02*
X0190856Y0072500D01*
X0190856Y0110000D01*
X0193356Y0112500D01*
X0193356Y0122500D01*
X0190856Y0125000D01*
X0190856Y0142500D01*
X0190856Y0190000D01*
X0188356Y0192500D01*
X0118356Y0192500D01*
X0112356Y0198500D01*
X0112356Y0205000D01*
X0102356Y0205000D02*
X0102356Y0196000D01*
X0108356Y0190000D01*
X0180856Y0190000D01*
X0185856Y0185000D01*
X0185856Y0142500D01*
X0185856Y0127500D01*
X0190856Y0122500D01*
X0190856Y0112500D01*
X0188356Y0110000D01*
X0188356Y0077500D01*
X0185856Y0075000D01*
X0194497Y0076358D02*
X0194497Y0081358D01*
X0198356Y0077500D02*
X0198356Y0055000D01*
X0203356Y0050000D01*
X0228356Y0050000D01*
X0230856Y0052500D01*
X0230856Y0057500D01*
X0235856Y0062500D01*
X0238356Y0062500D01*
X0240856Y0060000D01*
X0240856Y0065000D02*
X0235856Y0065000D01*
X0228356Y0057500D01*
X0223356Y0057500D01*
X0223297Y0057559D01*
X0213356Y0057559D01*
X0210915Y0060000D01*
X0210856Y0060000D01*
X0223356Y0062500D02*
X0225856Y0060000D01*
X0228356Y0060000D01*
X0235856Y0067500D01*
X0238356Y0067500D01*
X0240856Y0070000D01*
X0240856Y0075000D01*
X0245856Y0080000D01*
X0248356Y0080000D01*
X0250856Y0082500D01*
X0250856Y0085000D01*
X0253356Y0087500D01*
X0258356Y0087500D01*
X0255856Y0085000D02*
X0248356Y0077500D01*
X0245856Y0077500D01*
X0243356Y0075000D01*
X0243356Y0067500D01*
X0240856Y0065000D01*
X0232106Y0070000D02*
X0238356Y0076250D01*
X0238356Y0131250D01*
X0240856Y0133750D01*
X0240856Y0142500D01*
X0235856Y0142500D02*
X0235856Y0077500D01*
X0230856Y0072500D01*
X0222106Y0072500D01*
X0218356Y0068750D01*
X0215856Y0071250D02*
X0215856Y0073750D01*
X0210856Y0078750D01*
X0210856Y0133750D01*
X0205856Y0138750D01*
X0205856Y0142500D01*
X0208356Y0145000D01*
X0268356Y0145000D01*
X0273356Y0140000D01*
X0273356Y0122500D01*
X0275856Y0120000D01*
X0285856Y0120000D01*
X0288856Y0117000D01*
X0288856Y0115000D01*
X0275856Y0092500D02*
X0320856Y0092500D01*
X0323356Y0090000D02*
X0313356Y0090000D01*
X0308356Y0085000D01*
X0308356Y0080000D01*
X0303356Y0075000D01*
X0303356Y0072500D01*
X0290856Y0060000D01*
X0290856Y0057500D01*
X0288356Y0055000D01*
X0280856Y0055000D01*
X0283356Y0052500D02*
X0290856Y0052500D01*
X0293356Y0055000D01*
X0293356Y0057500D01*
X0305856Y0070000D01*
X0305856Y0075000D01*
X0310856Y0080000D01*
X0318356Y0080000D01*
X0323356Y0085000D01*
X0320856Y0077500D02*
X0310856Y0077500D01*
X0308356Y0075000D01*
X0308356Y0070000D01*
X0295856Y0057500D01*
X0295856Y0052500D01*
X0293356Y0050000D01*
X0283356Y0050000D01*
X0275856Y0042500D01*
X0270856Y0042500D01*
X0268356Y0040000D02*
X0275856Y0040000D01*
X0283356Y0047500D01*
X0295856Y0047500D01*
X0298356Y0050000D01*
X0298356Y0057500D01*
X0305856Y0065000D01*
X0308356Y0065000D01*
X0310856Y0067500D01*
X0310856Y0072500D01*
X0290856Y0062500D02*
X0285856Y0057500D01*
X0278356Y0057500D01*
X0290856Y0062500D02*
X0290856Y0085000D01*
X0293356Y0090000D01*
X0298356Y0090000D01*
X0285856Y0075000D02*
X0285856Y0072500D01*
X0283356Y0070000D01*
X0270856Y0070000D01*
X0268356Y0072500D01*
X0263356Y0072500D01*
X0265856Y0075000D02*
X0280856Y0075000D01*
X0233356Y0078750D02*
X0233356Y0087500D01*
X0228356Y0080000D02*
X0224606Y0080000D01*
X0223356Y0081250D01*
X0223356Y0085000D01*
X0222106Y0086250D01*
X0218356Y0086250D01*
X0215856Y0088750D01*
X0215856Y0092500D01*
X0222106Y0098750D01*
X0227106Y0098750D01*
X0228356Y0100000D01*
X0228356Y0131250D01*
X0227106Y0132500D01*
X0230856Y0128750D02*
X0230856Y0097500D01*
X0229606Y0096250D01*
X0224606Y0096250D01*
X0219606Y0091250D01*
X0217106Y0082500D02*
X0215856Y0082500D01*
X0217106Y0082500D02*
X0218356Y0081250D01*
X0218356Y0077500D01*
X0219606Y0076250D01*
X0230856Y0076250D01*
X0233356Y0078750D01*
X0232106Y0070000D02*
X0223356Y0070000D01*
X0210856Y0072500D02*
X0210856Y0075000D01*
X0208356Y0077500D01*
X0208356Y0133750D01*
X0200856Y0141250D01*
X0200856Y0142500D01*
X0200856Y0190000D01*
X0193356Y0197500D01*
X0153356Y0197500D01*
X0152356Y0198500D01*
X0152356Y0205000D01*
X0142356Y0205000D02*
X0142356Y0198500D01*
X0145856Y0195000D01*
X0190856Y0195000D01*
X0195856Y0190000D01*
X0195856Y0142500D01*
X0215856Y0142500D02*
X0215856Y0137500D01*
X0217106Y0136250D01*
X0228356Y0136250D01*
X0233356Y0131250D01*
X0233356Y0106250D01*
X0195856Y0075000D02*
X0194497Y0076358D01*
X0195856Y0075000D02*
X0195856Y0055000D01*
X0188356Y0047500D01*
X0188356Y0045000D01*
X0190856Y0042500D01*
X0235856Y0042500D01*
X0238356Y0040000D02*
X0190856Y0040000D01*
X0193356Y0045000D02*
X0193356Y0047500D01*
X0195856Y0050000D01*
X0200856Y0050000D01*
X0203356Y0047500D01*
X0230856Y0047500D01*
X0235856Y0052500D01*
X0235856Y0055000D01*
X0233356Y0045000D02*
X0200856Y0045000D01*
X0198356Y0047500D01*
X0165856Y0080000D02*
X0165856Y0093750D01*
X0163356Y0096250D01*
X0157106Y0096250D01*
X0152106Y0103750D02*
X0149606Y0103750D01*
X0145856Y0100000D01*
X0145856Y0091250D01*
X0100856Y0046250D01*
X0100856Y0040000D01*
X0097106Y0035000D02*
X0097106Y0047500D01*
X0100856Y0051250D01*
X0100856Y0076250D01*
X0099606Y0077500D01*
X0099606Y0095000D01*
X0105856Y0101250D01*
X0103356Y0103750D02*
X0109606Y0103750D01*
X0110856Y0102500D01*
X0110856Y0092500D01*
X0113356Y0090000D01*
X0120856Y0090000D01*
X0103356Y0103750D02*
X0097106Y0097500D01*
X0097106Y0085000D01*
X0095856Y0083750D01*
X0083356Y0083750D01*
X0075856Y0076250D01*
X0075856Y0068750D01*
X0064606Y0057500D01*
X0063356Y0057500D01*
X0059606Y0053750D01*
X0049360Y0053750D01*
X0048828Y0054281D01*
X0048356Y0053809D01*
X0048356Y0053750D01*
X0058277Y0056457D02*
X0061820Y0060000D01*
X0064606Y0060000D01*
X0073356Y0068750D01*
X0073356Y0077500D01*
X0082106Y0086250D01*
X0093356Y0086250D01*
X0094606Y0087500D01*
X0094606Y0098750D01*
X0105856Y0110000D01*
X0125856Y0110000D01*
X0097106Y0035000D02*
X0102106Y0030000D01*
X0108356Y0030000D01*
D16*
X0058277Y0056457D02*
X0053552Y0056457D01*
X0053356Y0056250D01*
M02*
