G75*
%MOIN*%
%OFA0B0*%
%FSLAX25Y25*%
%IPPOS*%
%LPD*%
%AMOC8*
5,1,8,0,0,1.08239X$1,22.5*
%
%ADD10R,0.03156X0.03943*%
%ADD11R,0.03943X0.03156*%
%ADD12R,0.06699X0.11030*%
%ADD13R,0.06699X0.07487*%
%ADD14C,0.01969*%
%ADD15C,0.00400*%
%ADD16R,0.01575X0.02677*%
%ADD17R,0.02874X0.01772*%
%ADD18R,0.04337X0.07487*%
%ADD19C,0.05124*%
%ADD20R,0.27959X0.27959*%
%ADD21R,0.10243X0.06306*%
%ADD22R,0.01778X0.01384*%
%ADD23C,0.00500*%
%ADD24R,0.11227X0.05912*%
%ADD25R,0.01384X0.01975*%
%ADD26R,0.01975X0.01384*%
%ADD27R,0.03943X0.01345*%
%ADD28R,0.01345X0.03943*%
%ADD29R,0.04337X0.11817*%
%ADD30R,0.08274X0.08668*%
%ADD31R,0.07880X0.06699*%
%ADD32R,0.05715X0.01975*%
%ADD33R,0.13786X0.07880*%
%ADD34C,0.04731*%
%ADD35C,0.03746*%
%ADD36R,0.04140X0.01778*%
%ADD37R,0.01778X0.04140*%
%ADD38R,0.05124X0.03746*%
%ADD39C,0.09849*%
%ADD40R,0.03550X0.03550*%
%ADD41R,0.02998X0.01306*%
%ADD42R,0.02998X0.01778*%
%ADD43C,0.15400*%
%ADD44C,0.12900*%
%ADD45C,0.05124*%
%ADD46C,0.04000*%
D10*
X0115797Y0095000D03*
X0120915Y0095000D03*
X0120915Y0105000D03*
X0115797Y0105000D03*
X0114665Y0110000D03*
X0109547Y0110000D03*
X0143297Y0130000D03*
X0148415Y0130000D03*
X0152047Y0138750D03*
X0157165Y0138750D03*
X0172047Y0128750D03*
X0177165Y0128750D03*
X0258297Y0121250D03*
X0263415Y0121250D03*
X0263415Y0113750D03*
X0258297Y0113750D03*
X0245915Y0080000D03*
X0240797Y0080000D03*
X0248297Y0065000D03*
X0253415Y0065000D03*
X0260797Y0065000D03*
X0265915Y0065000D03*
X0047165Y0150000D03*
X0042047Y0150000D03*
D11*
X0078356Y0172441D03*
X0078356Y0177559D03*
X0085856Y0177559D03*
X0085856Y0172441D03*
X0158356Y0155059D03*
X0163356Y0155059D03*
X0163356Y0149941D03*
X0158356Y0149941D03*
X0163356Y0115059D03*
X0163356Y0109941D03*
X0173356Y0109941D03*
X0178356Y0109941D03*
X0183356Y0109941D03*
X0188356Y0109941D03*
X0188356Y0115059D03*
X0183356Y0115059D03*
X0178356Y0115059D03*
X0173356Y0115059D03*
X0100856Y0073809D03*
X0095856Y0073809D03*
X0095856Y0068691D03*
X0100856Y0068691D03*
X0085856Y0067441D03*
X0085856Y0072559D03*
X0104606Y0056309D03*
X0104606Y0051191D03*
X0170856Y0050059D03*
X0170856Y0044941D03*
X0215856Y0052441D03*
X0220856Y0052441D03*
X0220856Y0057559D03*
X0215856Y0057559D03*
X0270856Y0082441D03*
X0270856Y0087559D03*
X0280856Y0087559D03*
X0285856Y0087559D03*
X0285856Y0082441D03*
X0280856Y0082441D03*
X0258356Y0092441D03*
X0258356Y0097559D03*
X0080856Y0112441D03*
X0075856Y0112441D03*
X0075856Y0117559D03*
X0080856Y0117559D03*
X0065856Y0117441D03*
X0065856Y0122559D03*
X0065856Y0108809D03*
X0065856Y0103691D03*
X0038356Y0088809D03*
X0038356Y0083691D03*
D12*
X0105344Y0126250D03*
X0116367Y0126250D03*
D13*
X0112844Y0170000D03*
X0123867Y0170000D03*
D14*
X0098572Y0097717D02*
X0088139Y0097717D01*
X0088139Y0087283D01*
X0098572Y0087283D01*
X0098572Y0097717D01*
X0098572Y0097450D02*
X0088139Y0097450D01*
X0088139Y0095483D02*
X0098572Y0095483D01*
X0098572Y0093516D02*
X0088139Y0093516D01*
X0088139Y0091549D02*
X0098572Y0091549D01*
X0098572Y0089582D02*
X0088139Y0089582D01*
X0088139Y0087615D02*
X0098572Y0087615D01*
D15*
X0101427Y0087492D02*
X0103395Y0087492D01*
X0103395Y0087185D02*
X0103395Y0087972D01*
X0101427Y0087972D01*
X0101427Y0087185D01*
X0103395Y0087185D01*
X0103395Y0087890D02*
X0101427Y0087890D01*
X0101427Y0089154D02*
X0101427Y0089941D01*
X0103395Y0089941D01*
X0103395Y0089154D01*
X0101427Y0089154D01*
X0101427Y0089484D02*
X0103395Y0089484D01*
X0103395Y0089883D02*
X0101427Y0089883D01*
X0101427Y0091122D02*
X0101427Y0091909D01*
X0103395Y0091909D01*
X0103395Y0091122D01*
X0101427Y0091122D01*
X0101427Y0091477D02*
X0103395Y0091477D01*
X0103395Y0091875D02*
X0101427Y0091875D01*
X0101427Y0093091D02*
X0101427Y0093878D01*
X0103395Y0093878D01*
X0103395Y0093091D01*
X0101427Y0093091D01*
X0101427Y0093470D02*
X0103395Y0093470D01*
X0103395Y0093868D02*
X0101427Y0093868D01*
X0101427Y0095059D02*
X0101427Y0095846D01*
X0103395Y0095846D01*
X0103395Y0095059D01*
X0101427Y0095059D01*
X0101427Y0095064D02*
X0103395Y0095064D01*
X0103395Y0095462D02*
X0101427Y0095462D01*
X0101427Y0097028D02*
X0101427Y0097815D01*
X0103395Y0097815D01*
X0103395Y0097028D01*
X0101427Y0097028D01*
X0101427Y0097056D02*
X0103395Y0097056D01*
X0103395Y0097455D02*
X0101427Y0097455D01*
X0101427Y0098996D02*
X0103395Y0098996D01*
X0103395Y0099783D01*
X0101623Y0099783D01*
X0101427Y0099587D01*
X0101427Y0098996D01*
X0101427Y0099049D02*
X0103395Y0099049D01*
X0103395Y0099447D02*
X0101427Y0099447D01*
X0100442Y0100571D02*
X0099852Y0100571D01*
X0099852Y0102539D01*
X0100639Y0102539D01*
X0100639Y0100768D01*
X0100442Y0100571D01*
X0100514Y0100643D02*
X0099852Y0100643D01*
X0099852Y0101041D02*
X0100639Y0101041D01*
X0100639Y0101440D02*
X0099852Y0101440D01*
X0099852Y0101838D02*
X0100639Y0101838D01*
X0100639Y0102237D02*
X0099852Y0102237D01*
X0098671Y0102237D02*
X0097883Y0102237D01*
X0097883Y0102539D02*
X0098671Y0102539D01*
X0098671Y0100571D01*
X0097883Y0100571D01*
X0097883Y0102539D01*
X0097883Y0101838D02*
X0098671Y0101838D01*
X0098671Y0101440D02*
X0097883Y0101440D01*
X0097883Y0101041D02*
X0098671Y0101041D01*
X0098671Y0100643D02*
X0097883Y0100643D01*
X0096702Y0100643D02*
X0095915Y0100643D01*
X0095915Y0100571D02*
X0095915Y0102539D01*
X0096702Y0102539D01*
X0096702Y0100571D01*
X0095915Y0100571D01*
X0095915Y0101041D02*
X0096702Y0101041D01*
X0096702Y0101440D02*
X0095915Y0101440D01*
X0095915Y0101838D02*
X0096702Y0101838D01*
X0096702Y0102237D02*
X0095915Y0102237D01*
X0094734Y0102237D02*
X0093946Y0102237D01*
X0093946Y0102539D02*
X0094734Y0102539D01*
X0094734Y0100571D01*
X0093946Y0100571D01*
X0093946Y0102539D01*
X0093946Y0101838D02*
X0094734Y0101838D01*
X0094734Y0101440D02*
X0093946Y0101440D01*
X0093946Y0101041D02*
X0094734Y0101041D01*
X0094734Y0100643D02*
X0093946Y0100643D01*
X0092765Y0100643D02*
X0091978Y0100643D01*
X0091978Y0100571D02*
X0091978Y0102539D01*
X0092765Y0102539D01*
X0092765Y0100571D01*
X0091978Y0100571D01*
X0091978Y0101041D02*
X0092765Y0101041D01*
X0092765Y0101440D02*
X0091978Y0101440D01*
X0091978Y0101838D02*
X0092765Y0101838D01*
X0092765Y0102237D02*
X0091978Y0102237D01*
X0090797Y0102237D02*
X0090009Y0102237D01*
X0090009Y0102539D02*
X0090797Y0102539D01*
X0090797Y0100571D01*
X0090009Y0100571D01*
X0090009Y0102539D01*
X0090009Y0101838D02*
X0090797Y0101838D01*
X0090797Y0101440D02*
X0090009Y0101440D01*
X0090009Y0101041D02*
X0090797Y0101041D01*
X0090797Y0100643D02*
X0090009Y0100643D01*
X0088828Y0100643D02*
X0088041Y0100643D01*
X0088041Y0100571D02*
X0088041Y0102539D01*
X0088828Y0102539D01*
X0088828Y0100571D01*
X0088041Y0100571D01*
X0088041Y0101041D02*
X0088828Y0101041D01*
X0088828Y0101440D02*
X0088041Y0101440D01*
X0088041Y0101838D02*
X0088828Y0101838D01*
X0088828Y0102237D02*
X0088041Y0102237D01*
X0086860Y0102237D02*
X0086072Y0102237D01*
X0086072Y0102539D02*
X0086860Y0102539D01*
X0086860Y0100571D01*
X0086269Y0100571D01*
X0086072Y0100768D01*
X0086072Y0102539D01*
X0086072Y0101838D02*
X0086860Y0101838D01*
X0086860Y0101440D02*
X0086072Y0101440D01*
X0086072Y0101041D02*
X0086860Y0101041D01*
X0086860Y0100643D02*
X0086197Y0100643D01*
X0085285Y0099587D02*
X0085285Y0098996D01*
X0083316Y0098996D01*
X0083316Y0099783D01*
X0085088Y0099783D01*
X0085285Y0099587D01*
X0085285Y0099447D02*
X0083316Y0099447D01*
X0083316Y0099049D02*
X0085285Y0099049D01*
X0085285Y0097815D02*
X0085285Y0097028D01*
X0083316Y0097028D01*
X0083316Y0097815D01*
X0085285Y0097815D01*
X0085285Y0097455D02*
X0083316Y0097455D01*
X0083316Y0097056D02*
X0085285Y0097056D01*
X0085285Y0095846D02*
X0083316Y0095846D01*
X0083316Y0095059D01*
X0085285Y0095059D01*
X0085285Y0095846D01*
X0085285Y0095462D02*
X0083316Y0095462D01*
X0083316Y0095064D02*
X0085285Y0095064D01*
X0085285Y0093878D02*
X0083316Y0093878D01*
X0083316Y0093091D01*
X0085285Y0093091D01*
X0085285Y0093878D01*
X0085285Y0093868D02*
X0083316Y0093868D01*
X0083316Y0093470D02*
X0085285Y0093470D01*
X0085285Y0091909D02*
X0085285Y0091122D01*
X0083316Y0091122D01*
X0083316Y0091909D01*
X0085285Y0091909D01*
X0085285Y0091875D02*
X0083316Y0091875D01*
X0083316Y0091477D02*
X0085285Y0091477D01*
X0085285Y0089941D02*
X0085285Y0089154D01*
X0083316Y0089154D01*
X0083316Y0089941D01*
X0085285Y0089941D01*
X0085285Y0089883D02*
X0083316Y0089883D01*
X0083316Y0089484D02*
X0085285Y0089484D01*
X0085285Y0087972D02*
X0083316Y0087972D01*
X0083316Y0087185D01*
X0085285Y0087185D01*
X0085285Y0087972D01*
X0085285Y0087890D02*
X0083316Y0087890D01*
X0083316Y0087492D02*
X0085285Y0087492D01*
X0085285Y0086004D02*
X0083316Y0086004D01*
X0083316Y0085217D01*
X0085088Y0085217D01*
X0085285Y0085413D01*
X0085285Y0086004D01*
X0085285Y0085898D02*
X0083316Y0085898D01*
X0083316Y0085499D02*
X0085285Y0085499D01*
X0086269Y0084429D02*
X0086860Y0084429D01*
X0086860Y0082461D01*
X0086072Y0082461D01*
X0086072Y0084232D01*
X0086269Y0084429D01*
X0086144Y0084304D02*
X0086860Y0084304D01*
X0086860Y0083905D02*
X0086072Y0083905D01*
X0086072Y0083507D02*
X0086860Y0083507D01*
X0086860Y0083108D02*
X0086072Y0083108D01*
X0086072Y0082710D02*
X0086860Y0082710D01*
X0088041Y0082710D02*
X0088828Y0082710D01*
X0088828Y0082461D02*
X0088041Y0082461D01*
X0088041Y0084429D01*
X0088828Y0084429D01*
X0088828Y0082461D01*
X0088828Y0083108D02*
X0088041Y0083108D01*
X0088041Y0083507D02*
X0088828Y0083507D01*
X0088828Y0083905D02*
X0088041Y0083905D01*
X0088041Y0084304D02*
X0088828Y0084304D01*
X0090009Y0084304D02*
X0090797Y0084304D01*
X0090797Y0084429D02*
X0090797Y0082461D01*
X0090009Y0082461D01*
X0090009Y0084429D01*
X0090797Y0084429D01*
X0090797Y0083905D02*
X0090009Y0083905D01*
X0090009Y0083507D02*
X0090797Y0083507D01*
X0090797Y0083108D02*
X0090009Y0083108D01*
X0090009Y0082710D02*
X0090797Y0082710D01*
X0091978Y0082710D02*
X0092765Y0082710D01*
X0092765Y0082461D02*
X0091978Y0082461D01*
X0091978Y0084429D01*
X0092765Y0084429D01*
X0092765Y0082461D01*
X0092765Y0083108D02*
X0091978Y0083108D01*
X0091978Y0083507D02*
X0092765Y0083507D01*
X0092765Y0083905D02*
X0091978Y0083905D01*
X0091978Y0084304D02*
X0092765Y0084304D01*
X0093946Y0084304D02*
X0094734Y0084304D01*
X0094734Y0084429D02*
X0094734Y0082461D01*
X0093946Y0082461D01*
X0093946Y0084429D01*
X0094734Y0084429D01*
X0094734Y0083905D02*
X0093946Y0083905D01*
X0093946Y0083507D02*
X0094734Y0083507D01*
X0094734Y0083108D02*
X0093946Y0083108D01*
X0093946Y0082710D02*
X0094734Y0082710D01*
X0095915Y0082710D02*
X0096702Y0082710D01*
X0096702Y0082461D02*
X0095915Y0082461D01*
X0095915Y0084429D01*
X0096702Y0084429D01*
X0096702Y0082461D01*
X0096702Y0083108D02*
X0095915Y0083108D01*
X0095915Y0083507D02*
X0096702Y0083507D01*
X0096702Y0083905D02*
X0095915Y0083905D01*
X0095915Y0084304D02*
X0096702Y0084304D01*
X0097883Y0084304D02*
X0098671Y0084304D01*
X0098671Y0084429D02*
X0098671Y0082461D01*
X0097883Y0082461D01*
X0097883Y0084429D01*
X0098671Y0084429D01*
X0098671Y0083905D02*
X0097883Y0083905D01*
X0097883Y0083507D02*
X0098671Y0083507D01*
X0098671Y0083108D02*
X0097883Y0083108D01*
X0097883Y0082710D02*
X0098671Y0082710D01*
X0099852Y0082710D02*
X0100639Y0082710D01*
X0100639Y0082461D02*
X0099852Y0082461D01*
X0099852Y0084429D01*
X0100442Y0084429D01*
X0100639Y0084232D01*
X0100639Y0082461D01*
X0100639Y0083108D02*
X0099852Y0083108D01*
X0099852Y0083507D02*
X0100639Y0083507D01*
X0100639Y0083905D02*
X0099852Y0083905D01*
X0099852Y0084304D02*
X0100568Y0084304D01*
X0101623Y0085217D02*
X0101427Y0085413D01*
X0101427Y0086004D01*
X0103395Y0086004D01*
X0103395Y0085217D01*
X0101623Y0085217D01*
X0101427Y0085499D02*
X0103395Y0085499D01*
X0103395Y0085898D02*
X0101427Y0085898D01*
D16*
X0105403Y0042500D03*
X0107371Y0042500D03*
X0109340Y0042500D03*
X0111308Y0042500D03*
X0111308Y0037500D03*
X0109340Y0037500D03*
X0107371Y0037500D03*
X0105403Y0037500D03*
D17*
X0104970Y0040000D03*
X0111741Y0040000D03*
D18*
X0163434Y0100000D03*
X0173277Y0100000D03*
D19*
X0278856Y0105000D03*
X0288856Y0105000D03*
X0288856Y0115000D03*
X0278856Y0115000D03*
X0278856Y0125000D03*
X0288856Y0125000D03*
X0168356Y0170000D03*
X0158356Y0170000D03*
X0148356Y0170000D03*
X0148356Y0180000D03*
X0158356Y0180000D03*
X0168356Y0180000D03*
D20*
X0088700Y0148750D03*
D21*
X0110354Y0139695D03*
X0110354Y0157805D03*
D22*
X0158198Y0131969D03*
X0158198Y0130000D03*
X0158198Y0128031D03*
X0163513Y0128031D03*
X0163513Y0131969D03*
D23*
X0163612Y0130492D02*
X0163612Y0129508D01*
X0162115Y0129508D01*
X0161643Y0128622D01*
X0160068Y0128622D01*
X0159596Y0129508D01*
X0157509Y0129508D01*
X0157509Y0130492D01*
X0159596Y0130492D01*
X0160068Y0131378D01*
X0161643Y0131378D01*
X0162234Y0130492D01*
X0163612Y0130492D01*
X0163612Y0130126D02*
X0157509Y0130126D01*
X0157509Y0129628D02*
X0163612Y0129628D01*
X0161914Y0129129D02*
X0159798Y0129129D01*
X0160064Y0128631D02*
X0161648Y0128631D01*
X0162145Y0130625D02*
X0159667Y0130625D01*
X0159932Y0131123D02*
X0161813Y0131123D01*
D24*
X0040068Y0017126D03*
X0040068Y0032874D03*
X0066643Y0032874D03*
X0066643Y0017126D03*
D25*
X0258887Y0078169D03*
X0260856Y0078169D03*
X0262824Y0078169D03*
X0262824Y0081831D03*
X0260856Y0081831D03*
X0258887Y0081831D03*
D26*
X0258493Y0080000D03*
X0263218Y0080000D03*
D27*
X0260974Y0056890D03*
X0260974Y0054921D03*
X0260974Y0052953D03*
X0260974Y0050984D03*
X0260974Y0049016D03*
X0260974Y0047047D03*
X0260974Y0045079D03*
X0260974Y0043110D03*
X0250738Y0043110D03*
X0250738Y0045079D03*
X0250738Y0047047D03*
X0250738Y0049016D03*
X0250738Y0050984D03*
X0250738Y0052953D03*
X0250738Y0054921D03*
X0250738Y0056890D03*
D28*
X0254871Y0059055D03*
X0256840Y0059055D03*
X0256840Y0040945D03*
X0254871Y0040945D03*
D29*
X0255856Y0050000D03*
D30*
X0042608Y0107795D03*
X0042608Y0132205D03*
D31*
X0033356Y0136142D03*
X0033356Y0103858D03*
D32*
X0043887Y0114882D03*
X0043887Y0117441D03*
X0043887Y0120000D03*
X0043887Y0122559D03*
X0043887Y0125118D03*
D33*
X0050856Y0087677D03*
X0050856Y0072323D03*
D34*
X0053356Y0045788D02*
X0053356Y0044212D01*
X0053356Y0045788D02*
X0053356Y0045788D01*
X0053356Y0044212D01*
X0053356Y0044212D01*
X0048356Y0044212D02*
X0048356Y0045788D01*
X0048356Y0045788D01*
X0048356Y0044212D01*
X0048356Y0044212D01*
X0043356Y0044212D02*
X0043356Y0045788D01*
X0043356Y0045788D01*
X0043356Y0044212D01*
X0043356Y0044212D01*
X0038356Y0044212D02*
X0038356Y0045788D01*
X0038356Y0045788D01*
X0038356Y0044212D01*
X0038356Y0044212D01*
X0058356Y0044212D02*
X0058356Y0045788D01*
X0058356Y0045788D01*
X0058356Y0044212D01*
X0058356Y0044212D01*
X0063356Y0044212D02*
X0063356Y0045788D01*
X0063356Y0045788D01*
X0063356Y0044212D01*
X0063356Y0044212D01*
X0068356Y0044212D02*
X0068356Y0045788D01*
X0068356Y0045788D01*
X0068356Y0044212D01*
X0068356Y0044212D01*
X0073356Y0044212D02*
X0073356Y0045788D01*
X0073356Y0045788D01*
X0073356Y0044212D01*
X0073356Y0044212D01*
D35*
X0073356Y0045000D03*
X0068356Y0045000D03*
X0063356Y0045000D03*
X0058356Y0045000D03*
X0053356Y0045000D03*
X0048356Y0045000D03*
X0043356Y0045000D03*
X0038356Y0045000D03*
D36*
X0172115Y0061673D03*
X0172115Y0063642D03*
X0172115Y0065610D03*
X0172115Y0067579D03*
X0172115Y0069547D03*
X0172115Y0071516D03*
X0172115Y0073484D03*
X0172115Y0075453D03*
X0172115Y0077421D03*
X0172115Y0079390D03*
X0172115Y0081358D03*
X0172115Y0083327D03*
X0204596Y0083327D03*
X0204596Y0081358D03*
X0204596Y0079390D03*
X0204596Y0077421D03*
X0204596Y0075453D03*
X0204596Y0073484D03*
X0204596Y0071516D03*
X0204596Y0069547D03*
X0204596Y0067579D03*
X0204596Y0065610D03*
X0204596Y0063642D03*
X0204596Y0061673D03*
D37*
X0199182Y0056260D03*
X0197214Y0056260D03*
X0195245Y0056260D03*
X0193277Y0056260D03*
X0191308Y0056260D03*
X0189340Y0056260D03*
X0187371Y0056260D03*
X0185403Y0056260D03*
X0183434Y0056260D03*
X0181466Y0056260D03*
X0179497Y0056260D03*
X0177529Y0056260D03*
X0177529Y0088740D03*
X0179497Y0088740D03*
X0181466Y0088740D03*
X0183434Y0088740D03*
X0185403Y0088740D03*
X0187371Y0088740D03*
X0189340Y0088740D03*
X0191308Y0088740D03*
X0193277Y0088740D03*
X0195245Y0088740D03*
X0197214Y0088740D03*
X0199182Y0088740D03*
D38*
X0069606Y0151496D03*
X0069606Y0163504D03*
X0094606Y0167746D03*
X0094606Y0179754D03*
D39*
X0064478Y0189026D02*
X0064478Y0198474D01*
X0040856Y0198474D02*
X0040856Y0189026D01*
X0047942Y0175246D02*
X0057391Y0175246D01*
D40*
X0055108Y0150000D03*
X0061604Y0150000D03*
X0246358Y0121250D03*
X0252854Y0121250D03*
X0252854Y0113750D03*
X0246358Y0113750D03*
D41*
X0305521Y0087087D03*
X0305521Y0085512D03*
X0305521Y0083937D03*
X0305521Y0082362D03*
X0305521Y0080787D03*
X0305521Y0079213D03*
X0305521Y0077638D03*
X0305521Y0076063D03*
X0305521Y0074488D03*
X0305521Y0072913D03*
X0316190Y0072913D03*
X0316190Y0074488D03*
X0316190Y0076063D03*
X0316190Y0077638D03*
X0316190Y0079213D03*
X0316190Y0080787D03*
X0316190Y0082362D03*
X0316190Y0083937D03*
X0316190Y0085512D03*
X0316190Y0087087D03*
D42*
X0316190Y0088957D03*
X0305521Y0088957D03*
X0305521Y0071043D03*
X0316190Y0071043D03*
D43*
X0309871Y0054213D03*
X0309871Y0105787D03*
D44*
X0288356Y0145000D03*
X0288356Y0035000D03*
X0083356Y0015000D03*
X0088356Y0205000D03*
D45*
X0102356Y0202638D02*
X0102356Y0207362D01*
X0112356Y0207362D02*
X0112356Y0202638D01*
X0122356Y0202638D02*
X0122356Y0207362D01*
X0132356Y0207362D02*
X0132356Y0202638D01*
X0142356Y0202638D02*
X0142356Y0207362D01*
X0152356Y0207362D02*
X0152356Y0202638D01*
X0162356Y0202638D02*
X0162356Y0207362D01*
X0172356Y0207362D02*
X0172356Y0202638D01*
X0182356Y0202638D02*
X0182356Y0207362D01*
X0192356Y0207362D02*
X0192356Y0202638D01*
X0208356Y0202638D02*
X0208356Y0207362D01*
X0218356Y0207362D02*
X0218356Y0202638D01*
X0228356Y0202638D02*
X0228356Y0207362D01*
X0238356Y0207362D02*
X0238356Y0202638D01*
X0248356Y0202638D02*
X0248356Y0207362D01*
X0258356Y0207362D02*
X0258356Y0202638D01*
X0268356Y0202638D02*
X0268356Y0207362D01*
X0278356Y0207362D02*
X0278356Y0202638D01*
X0278356Y0017362D02*
X0278356Y0012638D01*
X0268356Y0012638D02*
X0268356Y0017362D01*
X0258356Y0017362D02*
X0258356Y0012638D01*
X0248356Y0012638D02*
X0248356Y0017362D01*
X0238356Y0017362D02*
X0238356Y0012638D01*
X0228356Y0012638D02*
X0228356Y0017362D01*
X0208356Y0017362D02*
X0208356Y0012638D01*
X0198356Y0012638D02*
X0198356Y0017362D01*
X0188356Y0017362D02*
X0188356Y0012638D01*
X0178356Y0012638D02*
X0178356Y0017362D01*
X0168356Y0017362D02*
X0168356Y0012638D01*
X0158356Y0012638D02*
X0158356Y0017362D01*
X0148356Y0017362D02*
X0148356Y0012638D01*
X0138356Y0012638D02*
X0138356Y0017362D01*
D46*
X0123356Y0050000D03*
X0064606Y0065000D03*
X0064606Y0071250D03*
X0145856Y0107500D03*
X0145856Y0112500D03*
X0140856Y0140000D03*
X0140856Y0145000D03*
X0140856Y0150000D03*
X0148356Y0152500D03*
X0153356Y0152500D03*
X0153356Y0157500D03*
X0148356Y0157500D03*
X0133356Y0172500D03*
X0093356Y0187500D03*
X0088356Y0187500D03*
X0083356Y0187500D03*
X0095856Y0126250D03*
M02*
