%
M48
M72
T01C0.01200
T02C0.02559
T03C0.07874
T04C0.08268
%
T01
X45018Y23150
X57518Y19400
X62518Y19400
X72518Y23150
X80018Y23150
X93768Y29400
X93768Y34400
X93768Y39400
X96268Y41900
X97518Y44400
X97518Y49400
X106268Y46900
X97518Y58150
X106268Y59400
X95018Y68150
X92518Y66900
X94910Y72008
X95018Y76900
X103660Y72008
X108768Y71900
X112518Y70650
X110018Y78150
X107518Y81900
X103768Y84400
X115018Y85650
X86268Y86900
X76268Y84400
X72518Y83150
X73768Y75650
X71268Y69400
X66268Y64400
X65018Y60650
X60018Y63150
X60018Y66900
X62518Y71900
X52518Y66900
X47518Y66900
X46268Y69400
X42518Y75650
X52518Y85650
X47518Y86900
X58768Y89400
X80018Y64400
X85018Y63150
X77518Y55650
X75018Y56900
X81268Y53150
X78768Y50650
X87518Y49400
X76268Y43150
X68768Y39400
X78768Y34400
X102518Y23150
X107518Y28150
X110018Y31900
X115018Y26900
X120018Y29400
X52518Y43150
X45018Y45650
X45018Y50650
X45018Y38150
X51268Y63150
T02
X35018Y53150
X35018Y48150
X30018Y48150
X30018Y53150
X30018Y43150
X35018Y43150
X35018Y38150
X30018Y38150
X30018Y33150
X35018Y33150
X50018Y13150
X55018Y13150
X60018Y13150
X65018Y13150
X70018Y13150
X75018Y13150
X80018Y13150
X85018Y13150
X90018Y13150
X95018Y13150
X95018Y93150
X90018Y93150
X85018Y93150
X80018Y93150
X75018Y93150
X70018Y93150
X65018Y93150
X60018Y93150
X55018Y93150
X50018Y93150
T03
X34486Y88583
T04
X34486Y17717
M30
