G75*
%MOIN*%
%OFA0B0*%
%FSLAX25Y25*%
%IPPOS*%
%LPD*%
%AMOC8*
5,1,8,0,0,1.08239X$1,22.5*
%
%ADD10R,0.03543X0.02756*%
%ADD11R,0.02756X0.03543*%
%ADD12R,0.03150X0.03150*%
%ADD13R,0.00984X0.01378*%
%ADD14C,0.00500*%
%ADD15R,0.06102X0.06102*%
%ADD16R,0.01378X0.04134*%
%ADD17R,0.05709X0.04921*%
%ADD18R,0.04134X0.01378*%
%ADD19R,0.07874X0.07874*%
%ADD20R,0.07087X0.06299*%
D10*
X0050018Y0033091D03*
X0050018Y0038209D03*
X0075018Y0034459D03*
X0075018Y0029341D03*
D11*
X0070077Y0045650D03*
X0064959Y0045650D03*
X0064959Y0050650D03*
X0070077Y0050650D03*
X0070077Y0055650D03*
X0064959Y0055650D03*
X0126209Y0071900D03*
X0131327Y0071900D03*
D12*
X0055766Y0055650D03*
X0055766Y0050650D03*
X0055766Y0045650D03*
X0049270Y0045650D03*
X0049270Y0050650D03*
X0049270Y0055650D03*
D13*
X0065549Y0034557D03*
X0069486Y0034557D03*
X0069486Y0029243D03*
X0067518Y0029243D03*
X0065549Y0029243D03*
D14*
X0067026Y0029080D02*
X0068010Y0029080D01*
X0068010Y0028582D02*
X0067026Y0028582D01*
X0067026Y0028554D02*
X0067026Y0030640D01*
X0066140Y0031113D01*
X0066140Y0032687D01*
X0067026Y0033278D01*
X0067026Y0034656D01*
X0068010Y0034656D01*
X0068010Y0033160D01*
X0068896Y0032687D01*
X0068896Y0031113D01*
X0068010Y0030640D01*
X0068010Y0028554D01*
X0067026Y0028554D01*
X0067026Y0029579D02*
X0068010Y0029579D01*
X0068010Y0030077D02*
X0067026Y0030077D01*
X0067026Y0030576D02*
X0068010Y0030576D01*
X0068824Y0031074D02*
X0066212Y0031074D01*
X0066140Y0031573D02*
X0068896Y0031573D01*
X0068896Y0032071D02*
X0066140Y0032071D01*
X0066140Y0032570D02*
X0068896Y0032570D01*
X0068182Y0033068D02*
X0066711Y0033068D01*
X0067026Y0033567D02*
X0068010Y0033567D01*
X0068010Y0034065D02*
X0067026Y0034065D01*
X0067026Y0034564D02*
X0068010Y0034564D01*
D15*
X0102734Y0036772D03*
X0102734Y0064528D03*
D16*
X0107656Y0065512D03*
X0110215Y0065512D03*
X0112774Y0065512D03*
X0115333Y0065512D03*
X0117892Y0065512D03*
X0120451Y0065512D03*
X0123010Y0065512D03*
X0125569Y0065512D03*
X0130687Y0065512D03*
X0125569Y0035788D03*
X0123010Y0035788D03*
X0120451Y0035788D03*
X0117892Y0035788D03*
X0115333Y0035788D03*
X0112774Y0035788D03*
X0110215Y0035788D03*
X0107656Y0035788D03*
D17*
X0142498Y0036181D03*
X0142498Y0065119D03*
D18*
X0101750Y0059607D03*
X0101750Y0057048D03*
X0101750Y0054489D03*
X0101750Y0051930D03*
X0101750Y0049370D03*
X0101750Y0046811D03*
X0101750Y0044252D03*
X0101750Y0041693D03*
D19*
X0112675Y0045729D03*
X0122518Y0045729D03*
X0122518Y0055571D03*
X0112675Y0055571D03*
D20*
X0057518Y0037412D03*
X0057518Y0026388D03*
M02*
