G75*
%MOIN*%
%OFA0B0*%
%FSLAX25Y25*%
%IPPOS*%
%LPD*%
%AMOC8*
5,1,8,0,0,1.08239X$1,22.5*
%
%ADD10C,0.03839*%
%ADD11C,0.17717*%
%ADD12C,0.02184*%
%ADD13C,0.00800*%
%ADD14C,0.01600*%
%ADD15C,0.01200*%
D10*
X0030018Y0033150D03*
X0035018Y0033150D03*
X0035018Y0038150D03*
X0035018Y0043150D03*
X0030018Y0043150D03*
X0030018Y0038150D03*
X0030018Y0048150D03*
X0035018Y0048150D03*
X0035018Y0053150D03*
X0030018Y0053150D03*
X0050018Y0013150D03*
X0055018Y0013150D03*
X0060018Y0013150D03*
X0065018Y0013150D03*
X0070018Y0013150D03*
X0075018Y0013150D03*
X0080018Y0013150D03*
X0085018Y0013150D03*
X0090018Y0013150D03*
X0095018Y0013150D03*
X0095018Y0093150D03*
X0090018Y0093150D03*
X0085018Y0093150D03*
X0080018Y0093150D03*
X0075018Y0093150D03*
X0070018Y0093150D03*
X0065018Y0093150D03*
X0060018Y0093150D03*
X0055018Y0093150D03*
X0050018Y0093150D03*
D11*
X0034486Y0088583D03*
X0034486Y0017717D03*
D12*
X0045018Y0023150D03*
X0057518Y0019400D03*
X0062518Y0019400D03*
X0072518Y0023150D03*
X0080018Y0023150D03*
X0093768Y0029400D03*
X0093768Y0034400D03*
X0093768Y0039400D03*
X0096268Y0041900D03*
X0097518Y0044400D03*
X0097518Y0049400D03*
X0106268Y0046900D03*
X0097518Y0058150D03*
X0106268Y0059400D03*
X0095018Y0068150D03*
X0092518Y0066900D03*
X0094910Y0072008D03*
X0095018Y0076900D03*
X0103660Y0072008D03*
X0108768Y0071900D03*
X0112518Y0070650D03*
X0110018Y0078150D03*
X0107518Y0081900D03*
X0103768Y0084400D03*
X0115018Y0085650D03*
X0086268Y0086900D03*
X0076268Y0084400D03*
X0072518Y0083150D03*
X0073768Y0075650D03*
X0071268Y0069400D03*
X0066268Y0064400D03*
X0065018Y0060650D03*
X0060018Y0063150D03*
X0060018Y0066900D03*
X0062518Y0071900D03*
X0052518Y0066900D03*
X0047518Y0066900D03*
X0046268Y0069400D03*
X0042518Y0075650D03*
X0052518Y0085650D03*
X0047518Y0086900D03*
X0058768Y0089400D03*
X0080018Y0064400D03*
X0085018Y0063150D03*
X0077518Y0055650D03*
X0075018Y0056900D03*
X0081268Y0053150D03*
X0078768Y0050650D03*
X0087518Y0049400D03*
X0076268Y0043150D03*
X0068768Y0039400D03*
X0078768Y0034400D03*
X0102518Y0023150D03*
X0107518Y0028150D03*
X0110018Y0031900D03*
X0115018Y0026900D03*
X0120018Y0029400D03*
X0052518Y0043150D03*
X0045018Y0045650D03*
X0045018Y0050650D03*
X0045018Y0038150D03*
X0051268Y0063150D03*
D13*
X0047518Y0061900D02*
X0055018Y0054400D01*
X0055018Y0019400D01*
X0053768Y0018150D01*
X0051268Y0018150D01*
X0050018Y0016900D01*
X0050018Y0013150D01*
X0060018Y0021900D02*
X0060018Y0063150D01*
X0066268Y0064400D02*
X0066268Y0085650D01*
X0067518Y0086900D01*
X0086268Y0086900D01*
X0103660Y0072008D02*
X0108768Y0066900D01*
X0108768Y0045650D01*
X0107518Y0044400D01*
X0097518Y0044400D01*
X0081268Y0053150D02*
X0076268Y0053150D01*
X0075018Y0051900D01*
X0075018Y0045650D01*
X0073768Y0044400D01*
X0073768Y0031900D01*
X0071268Y0029400D01*
X0071268Y0025650D01*
X0070018Y0024400D01*
X0070018Y0013150D01*
X0075018Y0013150D02*
X0075018Y0021900D01*
X0076268Y0023150D01*
X0076268Y0043150D01*
X0062518Y0023150D02*
X0062518Y0071900D01*
X0047518Y0066900D02*
X0047518Y0061900D01*
X0062518Y0023150D02*
X0065018Y0020650D01*
X0065018Y0013150D01*
X0062518Y0019400D02*
X0060018Y0021900D01*
D14*
X0035018Y0033150D02*
X0030018Y0033150D01*
D15*
X0024299Y0020105D02*
X0024299Y0086195D01*
X0024741Y0084546D01*
X0026118Y0082162D01*
X0028065Y0080214D01*
X0030450Y0078838D01*
X0033109Y0078125D01*
X0035863Y0078125D01*
X0038523Y0078838D01*
X0040908Y0080214D01*
X0042855Y0082162D01*
X0044232Y0084546D01*
X0044826Y0086763D01*
X0044826Y0086364D01*
X0045236Y0085375D01*
X0045993Y0084618D01*
X0046982Y0084208D01*
X0048053Y0084208D01*
X0049043Y0084618D01*
X0049800Y0085375D01*
X0050060Y0086002D01*
X0050038Y0085894D01*
X0050038Y0085650D01*
X0050038Y0085406D01*
X0050134Y0084927D01*
X0050320Y0084475D01*
X0050592Y0084069D01*
X0050937Y0083724D01*
X0051343Y0083453D01*
X0051795Y0083266D01*
X0052274Y0083170D01*
X0052518Y0083170D01*
X0052762Y0083170D01*
X0053241Y0083266D01*
X0053692Y0083453D01*
X0054098Y0083724D01*
X0054444Y0084069D01*
X0054715Y0084475D01*
X0054902Y0084927D01*
X0054997Y0085406D01*
X0054997Y0085650D01*
X0054997Y0085894D01*
X0054902Y0086373D01*
X0054715Y0086824D01*
X0054444Y0087231D01*
X0054098Y0087576D01*
X0053692Y0087847D01*
X0053241Y0088034D01*
X0052762Y0088130D01*
X0052518Y0088130D01*
X0052518Y0085650D01*
X0054997Y0085650D01*
X0052518Y0085650D01*
X0052518Y0085650D01*
X0052518Y0085650D01*
X0052518Y0083170D01*
X0052518Y0085650D01*
X0052518Y0085650D01*
X0052518Y0088130D01*
X0052274Y0088130D01*
X0051795Y0088034D01*
X0051343Y0087847D01*
X0050937Y0087576D01*
X0050592Y0087231D01*
X0050320Y0086824D01*
X0050210Y0086558D01*
X0050210Y0087435D01*
X0049800Y0088425D01*
X0049043Y0089182D01*
X0048053Y0089592D01*
X0046982Y0089592D01*
X0045993Y0089182D01*
X0045236Y0088425D01*
X0044945Y0087722D01*
X0044945Y0089960D01*
X0044232Y0092620D01*
X0042855Y0095005D01*
X0040908Y0096952D01*
X0038523Y0098329D01*
X0038417Y0098357D01*
X0124880Y0098357D01*
X0124880Y0007431D01*
X0036507Y0007431D01*
X0038523Y0007971D01*
X0040908Y0009348D01*
X0042855Y0011295D01*
X0044232Y0013680D01*
X0044945Y0016340D01*
X0044945Y0019094D01*
X0044579Y0020458D01*
X0045553Y0020458D01*
X0046543Y0020868D01*
X0047300Y0021625D01*
X0047710Y0022614D01*
X0047710Y0023685D01*
X0047300Y0024675D01*
X0046543Y0025432D01*
X0045553Y0025842D01*
X0044482Y0025842D01*
X0043493Y0025432D01*
X0042736Y0024675D01*
X0042613Y0024380D01*
X0040908Y0026086D01*
X0038523Y0027462D01*
X0035863Y0028175D01*
X0033109Y0028175D01*
X0030450Y0027462D01*
X0028065Y0026086D01*
X0026118Y0024138D01*
X0024741Y0021754D01*
X0024299Y0020105D01*
X0024299Y0021231D02*
X0024601Y0021231D01*
X0024299Y0022429D02*
X0025131Y0022429D01*
X0025823Y0023628D02*
X0024299Y0023628D01*
X0024299Y0024826D02*
X0026805Y0024826D01*
X0028004Y0026025D02*
X0024299Y0026025D01*
X0024299Y0027223D02*
X0030035Y0027223D01*
X0030718Y0029631D02*
X0029318Y0029631D01*
X0028024Y0030166D01*
X0027034Y0031156D01*
X0026499Y0032450D01*
X0026499Y0033850D01*
X0027034Y0035144D01*
X0027541Y0035650D01*
X0027034Y0036156D01*
X0026499Y0037450D01*
X0026499Y0038850D01*
X0027034Y0040144D01*
X0027691Y0040800D01*
X0027449Y0041042D01*
X0027087Y0041584D01*
X0026838Y0042185D01*
X0026711Y0042824D01*
X0026711Y0043110D01*
X0029978Y0043110D01*
X0029978Y0043190D01*
X0026711Y0043190D01*
X0026711Y0043476D01*
X0026838Y0044115D01*
X0027087Y0044716D01*
X0027449Y0045258D01*
X0027691Y0045500D01*
X0027034Y0046156D01*
X0026499Y0047450D01*
X0026499Y0048850D01*
X0027034Y0050144D01*
X0027541Y0050650D01*
X0027034Y0051156D01*
X0026499Y0052450D01*
X0026499Y0053850D01*
X0027034Y0055144D01*
X0028024Y0056134D01*
X0029318Y0056669D01*
X0030718Y0056669D01*
X0032011Y0056134D01*
X0032518Y0055627D01*
X0033024Y0056134D01*
X0034318Y0056669D01*
X0035718Y0056669D01*
X0037011Y0056134D01*
X0038001Y0055144D01*
X0038537Y0053850D01*
X0038537Y0052450D01*
X0038001Y0051156D01*
X0037495Y0050650D01*
X0038001Y0050144D01*
X0038537Y0048850D01*
X0038537Y0047450D01*
X0038001Y0046156D01*
X0037344Y0045500D01*
X0037586Y0045258D01*
X0037948Y0044716D01*
X0038197Y0044115D01*
X0038324Y0043476D01*
X0038324Y0043190D01*
X0035058Y0043190D01*
X0035058Y0043110D01*
X0038324Y0043110D01*
X0038324Y0042824D01*
X0038197Y0042185D01*
X0037948Y0041584D01*
X0037586Y0041042D01*
X0037344Y0040800D01*
X0038001Y0040144D01*
X0038537Y0038850D01*
X0038537Y0037450D01*
X0038001Y0036156D01*
X0037495Y0035650D01*
X0038001Y0035144D01*
X0038537Y0033850D01*
X0038537Y0032450D01*
X0038001Y0031156D01*
X0037011Y0030166D01*
X0035718Y0029631D01*
X0034318Y0029631D01*
X0033024Y0030166D01*
X0032518Y0030673D01*
X0032011Y0030166D01*
X0030718Y0029631D01*
X0027372Y0030819D02*
X0024299Y0030819D01*
X0024299Y0032017D02*
X0026678Y0032017D01*
X0026499Y0033216D02*
X0024299Y0033216D01*
X0024299Y0034414D02*
X0026732Y0034414D01*
X0027504Y0035613D02*
X0024299Y0035613D01*
X0024299Y0036811D02*
X0026763Y0036811D01*
X0026499Y0038010D02*
X0024299Y0038010D01*
X0024299Y0039208D02*
X0026647Y0039208D01*
X0027298Y0040407D02*
X0024299Y0040407D01*
X0024299Y0041605D02*
X0027078Y0041605D01*
X0026715Y0042804D02*
X0024299Y0042804D01*
X0024299Y0044002D02*
X0026816Y0044002D01*
X0027411Y0045201D02*
X0024299Y0045201D01*
X0024299Y0046399D02*
X0026934Y0046399D01*
X0026499Y0047598D02*
X0024299Y0047598D01*
X0024299Y0048796D02*
X0026499Y0048796D01*
X0026973Y0049995D02*
X0024299Y0049995D01*
X0024299Y0051193D02*
X0027019Y0051193D01*
X0026523Y0052392D02*
X0024299Y0052392D01*
X0024299Y0053590D02*
X0026499Y0053590D01*
X0026887Y0054789D02*
X0024299Y0054789D01*
X0024299Y0055987D02*
X0027878Y0055987D01*
X0024299Y0057186D02*
X0049403Y0057186D01*
X0048205Y0058384D02*
X0024299Y0058384D01*
X0024299Y0059583D02*
X0047006Y0059583D01*
X0045808Y0060782D02*
X0024299Y0060782D01*
X0024299Y0061980D02*
X0045518Y0061980D01*
X0045518Y0061072D02*
X0053018Y0053572D01*
X0053018Y0045842D01*
X0051982Y0045842D01*
X0050993Y0045432D01*
X0050236Y0044675D01*
X0049826Y0043685D01*
X0049826Y0042614D01*
X0050236Y0041625D01*
X0050993Y0040868D01*
X0051982Y0040458D01*
X0053018Y0040458D01*
X0053018Y0020228D01*
X0052939Y0020150D01*
X0050439Y0020150D01*
X0049189Y0018900D01*
X0048018Y0017728D01*
X0048018Y0016127D01*
X0047034Y0015144D01*
X0046499Y0013850D01*
X0046499Y0012450D01*
X0047034Y0011156D01*
X0048024Y0010166D01*
X0049318Y0009631D01*
X0050718Y0009631D01*
X0052011Y0010166D01*
X0052518Y0010673D01*
X0053024Y0010166D01*
X0054318Y0009631D01*
X0055718Y0009631D01*
X0057011Y0010166D01*
X0057518Y0010673D01*
X0058024Y0010166D01*
X0059318Y0009631D01*
X0060718Y0009631D01*
X0062011Y0010166D01*
X0062518Y0010673D01*
X0063024Y0010166D01*
X0064318Y0009631D01*
X0065718Y0009631D01*
X0067011Y0010166D01*
X0067518Y0010673D01*
X0068024Y0010166D01*
X0069318Y0009631D01*
X0070718Y0009631D01*
X0072011Y0010166D01*
X0072518Y0010673D01*
X0073024Y0010166D01*
X0074318Y0009631D01*
X0075718Y0009631D01*
X0077011Y0010166D01*
X0077518Y0010673D01*
X0078024Y0010166D01*
X0079318Y0009631D01*
X0080718Y0009631D01*
X0082011Y0010166D01*
X0082518Y0010673D01*
X0083024Y0010166D01*
X0084318Y0009631D01*
X0085718Y0009631D01*
X0087011Y0010166D01*
X0087518Y0010673D01*
X0088024Y0010166D01*
X0089318Y0009631D01*
X0090718Y0009631D01*
X0092011Y0010166D01*
X0092518Y0010673D01*
X0093024Y0010166D01*
X0094318Y0009631D01*
X0095718Y0009631D01*
X0097011Y0010166D01*
X0098001Y0011156D01*
X0098537Y0012450D01*
X0098537Y0013850D01*
X0098001Y0015144D01*
X0097011Y0016134D01*
X0095718Y0016669D01*
X0094318Y0016669D01*
X0093024Y0016134D01*
X0092518Y0015627D01*
X0092011Y0016134D01*
X0090718Y0016669D01*
X0089318Y0016669D01*
X0088024Y0016134D01*
X0087518Y0015627D01*
X0087011Y0016134D01*
X0085718Y0016669D01*
X0084318Y0016669D01*
X0083024Y0016134D01*
X0082518Y0015627D01*
X0082011Y0016134D01*
X0080718Y0016669D01*
X0079318Y0016669D01*
X0078024Y0016134D01*
X0077518Y0015627D01*
X0077018Y0016127D01*
X0077018Y0021072D01*
X0077687Y0021741D01*
X0077736Y0021625D01*
X0078493Y0020868D01*
X0079482Y0020458D01*
X0080553Y0020458D01*
X0081543Y0020868D01*
X0082300Y0021625D01*
X0082710Y0022614D01*
X0082710Y0023685D01*
X0082300Y0024675D01*
X0081543Y0025432D01*
X0080553Y0025842D01*
X0079482Y0025842D01*
X0078493Y0025432D01*
X0078268Y0025207D01*
X0078268Y0031971D01*
X0078524Y0031920D01*
X0078768Y0031920D01*
X0079012Y0031920D01*
X0079491Y0032016D01*
X0079942Y0032203D01*
X0080348Y0032474D01*
X0080694Y0032819D01*
X0080965Y0033225D01*
X0081152Y0033677D01*
X0081247Y0034156D01*
X0081247Y0034400D01*
X0081247Y0034644D01*
X0081152Y0035123D01*
X0080965Y0035574D01*
X0080694Y0035981D01*
X0080348Y0036326D01*
X0079942Y0036597D01*
X0079491Y0036784D01*
X0079012Y0036880D01*
X0078768Y0036880D01*
X0078768Y0034400D01*
X0081247Y0034400D01*
X0078768Y0034400D01*
X0078768Y0034400D01*
X0078768Y0034400D01*
X0078768Y0031920D01*
X0078768Y0034400D01*
X0078768Y0034400D01*
X0078768Y0036880D01*
X0078524Y0036880D01*
X0078268Y0036829D01*
X0078268Y0041343D01*
X0078550Y0041625D01*
X0078960Y0042614D01*
X0078960Y0043685D01*
X0078550Y0044675D01*
X0077793Y0045432D01*
X0077018Y0045753D01*
X0077018Y0048593D01*
X0077243Y0048368D01*
X0078232Y0047958D01*
X0079303Y0047958D01*
X0080293Y0048368D01*
X0081050Y0049125D01*
X0081460Y0050114D01*
X0081460Y0050458D01*
X0081803Y0050458D01*
X0082793Y0050868D01*
X0083550Y0051625D01*
X0083960Y0052614D01*
X0083960Y0053685D01*
X0083550Y0054675D01*
X0082793Y0055432D01*
X0081803Y0055842D01*
X0080732Y0055842D01*
X0080210Y0055626D01*
X0080210Y0056185D01*
X0079800Y0057175D01*
X0079043Y0057932D01*
X0078053Y0058342D01*
X0077334Y0058342D01*
X0077300Y0058425D01*
X0076543Y0059182D01*
X0075553Y0059592D01*
X0074482Y0059592D01*
X0073493Y0059182D01*
X0072736Y0058425D01*
X0072326Y0057435D01*
X0072326Y0056364D01*
X0072736Y0055375D01*
X0073493Y0054618D01*
X0074482Y0054208D01*
X0074497Y0054208D01*
X0074268Y0053978D01*
X0073018Y0052728D01*
X0073018Y0046478D01*
X0071768Y0045228D01*
X0071768Y0032728D01*
X0069268Y0030228D01*
X0069268Y0026478D01*
X0068018Y0025228D01*
X0068018Y0016127D01*
X0067518Y0015627D01*
X0067018Y0016127D01*
X0067018Y0021478D01*
X0064518Y0023978D01*
X0064518Y0057958D01*
X0065553Y0057958D01*
X0066543Y0058368D01*
X0067300Y0059125D01*
X0067710Y0060114D01*
X0067710Y0061185D01*
X0067392Y0061952D01*
X0067793Y0062118D01*
X0068550Y0062875D01*
X0068960Y0063864D01*
X0068960Y0064935D01*
X0068550Y0065925D01*
X0068268Y0066207D01*
X0068268Y0084822D01*
X0068346Y0084900D01*
X0070461Y0084900D01*
X0070236Y0084675D01*
X0069826Y0083685D01*
X0069826Y0082614D01*
X0070236Y0081625D01*
X0070993Y0080868D01*
X0071982Y0080458D01*
X0073053Y0080458D01*
X0074043Y0080868D01*
X0074800Y0081625D01*
X0074966Y0082025D01*
X0075732Y0081708D01*
X0076803Y0081708D01*
X0077793Y0082118D01*
X0078550Y0082875D01*
X0078960Y0083864D01*
X0078960Y0084900D01*
X0084461Y0084900D01*
X0084743Y0084618D01*
X0085732Y0084208D01*
X0086803Y0084208D01*
X0087793Y0084618D01*
X0088550Y0085375D01*
X0088960Y0086364D01*
X0088960Y0087435D01*
X0088550Y0088425D01*
X0087793Y0089182D01*
X0086803Y0089592D01*
X0085732Y0089592D01*
X0084743Y0089182D01*
X0084461Y0088900D01*
X0066689Y0088900D01*
X0064268Y0086478D01*
X0064268Y0073957D01*
X0064043Y0074182D01*
X0063053Y0074592D01*
X0061982Y0074592D01*
X0060993Y0074182D01*
X0060236Y0073425D01*
X0059826Y0072435D01*
X0059826Y0071364D01*
X0060236Y0070375D01*
X0060518Y0070093D01*
X0060518Y0069592D01*
X0059482Y0069592D01*
X0058493Y0069182D01*
X0057736Y0068425D01*
X0057326Y0067435D01*
X0057326Y0066364D01*
X0057736Y0065375D01*
X0058086Y0065025D01*
X0057736Y0064675D01*
X0057326Y0063685D01*
X0057326Y0062614D01*
X0057736Y0061625D01*
X0058018Y0061343D01*
X0058018Y0022092D01*
X0057018Y0022092D01*
X0057018Y0055228D01*
X0055846Y0056400D01*
X0051788Y0060458D01*
X0051803Y0060458D01*
X0052793Y0060868D01*
X0053550Y0061625D01*
X0053960Y0062614D01*
X0053960Y0063685D01*
X0053642Y0064452D01*
X0054043Y0064618D01*
X0054800Y0065375D01*
X0055210Y0066364D01*
X0055210Y0067435D01*
X0054800Y0068425D01*
X0054043Y0069182D01*
X0053053Y0069592D01*
X0051982Y0069592D01*
X0050993Y0069182D01*
X0050236Y0068425D01*
X0050018Y0067899D01*
X0049800Y0068425D01*
X0049043Y0069182D01*
X0048960Y0069217D01*
X0048960Y0069935D01*
X0048550Y0070925D01*
X0047793Y0071682D01*
X0046803Y0072092D01*
X0045732Y0072092D01*
X0044743Y0071682D01*
X0043986Y0070925D01*
X0043576Y0069935D01*
X0043576Y0068864D01*
X0043986Y0067875D01*
X0044743Y0067118D01*
X0044826Y0067083D01*
X0044826Y0066364D01*
X0045236Y0065375D01*
X0045518Y0065093D01*
X0045518Y0061072D01*
X0045518Y0063179D02*
X0024299Y0063179D01*
X0024299Y0064377D02*
X0045518Y0064377D01*
X0045152Y0065576D02*
X0024299Y0065576D01*
X0024299Y0066774D02*
X0044826Y0066774D01*
X0043945Y0067973D02*
X0024299Y0067973D01*
X0024299Y0069171D02*
X0043576Y0069171D01*
X0043755Y0070370D02*
X0024299Y0070370D01*
X0024299Y0071568D02*
X0044629Y0071568D01*
X0043692Y0073453D02*
X0043241Y0073266D01*
X0042762Y0073170D01*
X0042518Y0073170D01*
X0042518Y0075650D01*
X0044997Y0075650D01*
X0044997Y0075894D01*
X0044902Y0076373D01*
X0044715Y0076824D01*
X0044444Y0077231D01*
X0044098Y0077576D01*
X0043692Y0077847D01*
X0043241Y0078034D01*
X0042762Y0078130D01*
X0042518Y0078130D01*
X0042518Y0075650D01*
X0042518Y0075650D01*
X0044997Y0075650D01*
X0044997Y0075406D01*
X0044902Y0074927D01*
X0044715Y0074475D01*
X0044444Y0074069D01*
X0044098Y0073724D01*
X0043692Y0073453D01*
X0044340Y0073965D02*
X0060776Y0073965D01*
X0059963Y0072767D02*
X0024299Y0072767D01*
X0024299Y0073965D02*
X0040696Y0073965D01*
X0040592Y0074069D02*
X0040937Y0073724D01*
X0041343Y0073453D01*
X0041795Y0073266D01*
X0042274Y0073170D01*
X0042518Y0073170D01*
X0042518Y0075650D01*
X0042518Y0075650D01*
X0042518Y0075650D01*
X0042518Y0078130D01*
X0042274Y0078130D01*
X0041795Y0078034D01*
X0041343Y0077847D01*
X0040937Y0077576D01*
X0040592Y0077231D01*
X0040320Y0076824D01*
X0040134Y0076373D01*
X0040038Y0075894D01*
X0040038Y0075650D01*
X0040038Y0075406D01*
X0040134Y0074927D01*
X0040320Y0074475D01*
X0040592Y0074069D01*
X0040086Y0075164D02*
X0024299Y0075164D01*
X0024299Y0076362D02*
X0040131Y0076362D01*
X0040038Y0075650D02*
X0042518Y0075650D01*
X0040038Y0075650D01*
X0040922Y0077561D02*
X0024299Y0077561D01*
X0024299Y0078759D02*
X0030742Y0078759D01*
X0028509Y0079958D02*
X0024299Y0079958D01*
X0024299Y0081156D02*
X0027123Y0081156D01*
X0026006Y0082355D02*
X0024299Y0082355D01*
X0024299Y0083553D02*
X0025314Y0083553D01*
X0024686Y0084752D02*
X0024299Y0084752D01*
X0024299Y0085950D02*
X0024365Y0085950D01*
X0038231Y0078759D02*
X0064268Y0078759D01*
X0064268Y0079958D02*
X0040463Y0079958D01*
X0041850Y0081156D02*
X0064268Y0081156D01*
X0064268Y0082355D02*
X0042967Y0082355D01*
X0043658Y0083553D02*
X0051193Y0083553D01*
X0052518Y0083553D02*
X0052518Y0083553D01*
X0052518Y0084752D02*
X0052518Y0084752D01*
X0052518Y0085650D02*
X0050038Y0085650D01*
X0052518Y0085650D01*
X0052518Y0085650D01*
X0052518Y0085950D02*
X0052518Y0085950D01*
X0052518Y0087149D02*
X0052518Y0087149D01*
X0050537Y0087149D02*
X0050210Y0087149D01*
X0050049Y0085950D02*
X0050038Y0085950D01*
X0050206Y0084752D02*
X0049177Y0084752D01*
X0045859Y0084752D02*
X0044287Y0084752D01*
X0044608Y0085950D02*
X0044997Y0085950D01*
X0044945Y0088347D02*
X0045203Y0088347D01*
X0044945Y0089546D02*
X0046870Y0089546D01*
X0048165Y0089546D02*
X0056076Y0089546D01*
X0056076Y0089779D02*
X0056076Y0088864D01*
X0056486Y0087875D01*
X0057243Y0087118D01*
X0058232Y0086708D01*
X0059303Y0086708D01*
X0060293Y0087118D01*
X0061050Y0087875D01*
X0061460Y0088864D01*
X0061460Y0089935D01*
X0061459Y0089938D01*
X0062011Y0090166D01*
X0062518Y0090673D01*
X0063024Y0090166D01*
X0064318Y0089631D01*
X0065718Y0089631D01*
X0067011Y0090166D01*
X0067518Y0090673D01*
X0068024Y0090166D01*
X0069318Y0089631D01*
X0070718Y0089631D01*
X0072011Y0090166D01*
X0072518Y0090673D01*
X0073024Y0090166D01*
X0074318Y0089631D01*
X0075718Y0089631D01*
X0077011Y0090166D01*
X0077518Y0090673D01*
X0078024Y0090166D01*
X0079318Y0089631D01*
X0080718Y0089631D01*
X0082011Y0090166D01*
X0082518Y0090673D01*
X0083024Y0090166D01*
X0084318Y0089631D01*
X0085718Y0089631D01*
X0087011Y0090166D01*
X0087518Y0090673D01*
X0088024Y0090166D01*
X0089318Y0089631D01*
X0090718Y0089631D01*
X0092011Y0090166D01*
X0092518Y0090673D01*
X0093024Y0090166D01*
X0094318Y0089631D01*
X0095718Y0089631D01*
X0097011Y0090166D01*
X0098001Y0091156D01*
X0098537Y0092450D01*
X0098537Y0093850D01*
X0098001Y0095144D01*
X0097011Y0096134D01*
X0095718Y0096669D01*
X0094318Y0096669D01*
X0093024Y0096134D01*
X0092518Y0095627D01*
X0092011Y0096134D01*
X0090718Y0096669D01*
X0089318Y0096669D01*
X0088024Y0096134D01*
X0087518Y0095627D01*
X0087011Y0096134D01*
X0085718Y0096669D01*
X0084318Y0096669D01*
X0083024Y0096134D01*
X0082518Y0095627D01*
X0082011Y0096134D01*
X0080718Y0096669D01*
X0079318Y0096669D01*
X0078024Y0096134D01*
X0077518Y0095627D01*
X0077011Y0096134D01*
X0075718Y0096669D01*
X0074318Y0096669D01*
X0073024Y0096134D01*
X0072518Y0095627D01*
X0072011Y0096134D01*
X0070718Y0096669D01*
X0069318Y0096669D01*
X0068024Y0096134D01*
X0067518Y0095627D01*
X0067011Y0096134D01*
X0065718Y0096669D01*
X0064318Y0096669D01*
X0063024Y0096134D01*
X0062518Y0095627D01*
X0062011Y0096134D01*
X0060718Y0096669D01*
X0059318Y0096669D01*
X0058024Y0096134D01*
X0057518Y0095627D01*
X0057011Y0096134D01*
X0055718Y0096669D01*
X0054318Y0096669D01*
X0053024Y0096134D01*
X0052367Y0095477D01*
X0052126Y0095718D01*
X0051584Y0096080D01*
X0050982Y0096330D01*
X0050343Y0096457D01*
X0050058Y0096457D01*
X0050058Y0093190D01*
X0049978Y0093190D01*
X0049978Y0096457D01*
X0049692Y0096457D01*
X0049053Y0096330D01*
X0048451Y0096080D01*
X0047910Y0095718D01*
X0047449Y0095258D01*
X0047087Y0094716D01*
X0046838Y0094115D01*
X0046711Y0093476D01*
X0046711Y0093190D01*
X0049978Y0093190D01*
X0049978Y0093110D01*
X0050058Y0093110D01*
X0050058Y0089843D01*
X0050343Y0089843D01*
X0050982Y0089970D01*
X0051584Y0090220D01*
X0052126Y0090582D01*
X0052367Y0090823D01*
X0053024Y0090166D01*
X0054318Y0089631D01*
X0055718Y0089631D01*
X0056076Y0089779D01*
X0056290Y0088347D02*
X0049832Y0088347D01*
X0049692Y0089843D02*
X0049053Y0089970D01*
X0048451Y0090220D01*
X0047910Y0090582D01*
X0047449Y0091042D01*
X0047087Y0091584D01*
X0046838Y0092185D01*
X0046711Y0092824D01*
X0046711Y0093110D01*
X0049978Y0093110D01*
X0049978Y0089843D01*
X0049692Y0089843D01*
X0049978Y0090744D02*
X0050058Y0090744D01*
X0050058Y0091943D02*
X0049978Y0091943D01*
X0052288Y0090744D02*
X0052446Y0090744D01*
X0049978Y0093141D02*
X0043931Y0093141D01*
X0043239Y0094340D02*
X0046932Y0094340D01*
X0047730Y0095538D02*
X0042321Y0095538D01*
X0041123Y0096737D02*
X0124880Y0096737D01*
X0124880Y0097935D02*
X0039204Y0097935D01*
X0044413Y0091943D02*
X0046939Y0091943D01*
X0047747Y0090744D02*
X0044734Y0090744D01*
X0049978Y0094340D02*
X0050058Y0094340D01*
X0050058Y0095538D02*
X0049978Y0095538D01*
X0052306Y0095538D02*
X0052429Y0095538D01*
X0061460Y0089546D02*
X0085620Y0089546D01*
X0086915Y0089546D02*
X0124880Y0089546D01*
X0124880Y0090744D02*
X0097589Y0090744D01*
X0098327Y0091943D02*
X0124880Y0091943D01*
X0124880Y0093141D02*
X0098537Y0093141D01*
X0098334Y0094340D02*
X0124880Y0094340D01*
X0124880Y0095538D02*
X0097606Y0095538D01*
X0088582Y0088347D02*
X0124880Y0088347D01*
X0124880Y0087149D02*
X0117311Y0087149D01*
X0117300Y0087175D02*
X0116543Y0087932D01*
X0115553Y0088342D01*
X0114482Y0088342D01*
X0113493Y0087932D01*
X0112736Y0087175D01*
X0112326Y0086185D01*
X0112326Y0085114D01*
X0112736Y0084125D01*
X0113493Y0083368D01*
X0114482Y0082958D01*
X0115553Y0082958D01*
X0116543Y0083368D01*
X0117300Y0084125D01*
X0117710Y0085114D01*
X0117710Y0086185D01*
X0117300Y0087175D01*
X0117710Y0085950D02*
X0124880Y0085950D01*
X0124880Y0084752D02*
X0117560Y0084752D01*
X0116728Y0083553D02*
X0124880Y0083553D01*
X0124880Y0082355D02*
X0110210Y0082355D01*
X0110210Y0082435D02*
X0109800Y0083425D01*
X0109043Y0084182D01*
X0108053Y0084592D01*
X0106982Y0084592D01*
X0106460Y0084376D01*
X0106460Y0084935D01*
X0106050Y0085925D01*
X0105293Y0086682D01*
X0104303Y0087092D01*
X0103232Y0087092D01*
X0102243Y0086682D01*
X0101486Y0085925D01*
X0101076Y0084935D01*
X0101076Y0083864D01*
X0101486Y0082875D01*
X0102243Y0082118D01*
X0103232Y0081708D01*
X0104303Y0081708D01*
X0104826Y0081924D01*
X0104826Y0081364D01*
X0105236Y0080375D01*
X0105993Y0079618D01*
X0106982Y0079208D01*
X0107542Y0079208D01*
X0107326Y0078685D01*
X0107326Y0077614D01*
X0107736Y0076625D01*
X0108493Y0075868D01*
X0109482Y0075458D01*
X0110553Y0075458D01*
X0111543Y0075868D01*
X0112300Y0076625D01*
X0112710Y0077614D01*
X0112710Y0078685D01*
X0112300Y0079675D01*
X0111543Y0080432D01*
X0110553Y0080842D01*
X0109994Y0080842D01*
X0110210Y0081364D01*
X0110210Y0082435D01*
X0109672Y0083553D02*
X0113307Y0083553D01*
X0112476Y0084752D02*
X0106460Y0084752D01*
X0106025Y0085950D02*
X0112326Y0085950D01*
X0112725Y0087149D02*
X0088960Y0087149D01*
X0088788Y0085950D02*
X0101511Y0085950D01*
X0101076Y0084752D02*
X0087927Y0084752D01*
X0084609Y0084752D02*
X0078960Y0084752D01*
X0078831Y0083553D02*
X0101205Y0083553D01*
X0102006Y0082355D02*
X0078030Y0082355D01*
X0074331Y0081156D02*
X0104912Y0081156D01*
X0105653Y0079958D02*
X0068268Y0079958D01*
X0068268Y0081156D02*
X0070704Y0081156D01*
X0069933Y0082355D02*
X0068268Y0082355D01*
X0068268Y0083553D02*
X0069826Y0083553D01*
X0070312Y0084752D02*
X0068268Y0084752D01*
X0064938Y0087149D02*
X0060324Y0087149D01*
X0061246Y0088347D02*
X0066137Y0088347D01*
X0064268Y0085950D02*
X0054986Y0085950D01*
X0054830Y0084752D02*
X0064268Y0084752D01*
X0064268Y0083553D02*
X0053843Y0083553D01*
X0054498Y0087149D02*
X0057212Y0087149D01*
X0068268Y0078759D02*
X0093070Y0078759D01*
X0092736Y0078425D02*
X0092326Y0077435D01*
X0092326Y0076364D01*
X0092736Y0075375D01*
X0093493Y0074618D01*
X0093834Y0074477D01*
X0093385Y0074291D01*
X0092627Y0073533D01*
X0092217Y0072544D01*
X0092217Y0071473D01*
X0092627Y0070483D01*
X0093086Y0070025D01*
X0092736Y0069675D01*
X0092701Y0069592D01*
X0091982Y0069592D01*
X0090993Y0069182D01*
X0090236Y0068425D01*
X0089826Y0067435D01*
X0089826Y0066364D01*
X0090236Y0065375D01*
X0090993Y0064618D01*
X0091982Y0064208D01*
X0093053Y0064208D01*
X0094043Y0064618D01*
X0094800Y0065375D01*
X0094834Y0065458D01*
X0095553Y0065458D01*
X0096543Y0065868D01*
X0097300Y0066625D01*
X0097710Y0067614D01*
X0097710Y0068685D01*
X0097300Y0069675D01*
X0096842Y0070133D01*
X0097192Y0070483D01*
X0097602Y0071473D01*
X0097602Y0072544D01*
X0097192Y0073533D01*
X0096434Y0074291D01*
X0096094Y0074432D01*
X0096543Y0074618D01*
X0097300Y0075375D01*
X0097710Y0076364D01*
X0097710Y0077435D01*
X0097300Y0078425D01*
X0096543Y0079182D01*
X0095553Y0079592D01*
X0094482Y0079592D01*
X0093493Y0079182D01*
X0092736Y0078425D01*
X0092378Y0077561D02*
X0075664Y0077561D01*
X0075293Y0077932D02*
X0076050Y0077175D01*
X0076460Y0076185D01*
X0076460Y0075114D01*
X0076050Y0074125D01*
X0075293Y0073368D01*
X0074303Y0072958D01*
X0073232Y0072958D01*
X0072243Y0073368D01*
X0071486Y0074125D01*
X0071076Y0075114D01*
X0071076Y0076185D01*
X0071486Y0077175D01*
X0072243Y0077932D01*
X0073232Y0078342D01*
X0074303Y0078342D01*
X0075293Y0077932D01*
X0076387Y0076362D02*
X0092327Y0076362D01*
X0092947Y0075164D02*
X0076460Y0075164D01*
X0075890Y0073965D02*
X0093059Y0073965D01*
X0092310Y0072767D02*
X0068268Y0072767D01*
X0068268Y0073965D02*
X0071645Y0073965D01*
X0071076Y0075164D02*
X0068268Y0075164D01*
X0068268Y0076362D02*
X0071149Y0076362D01*
X0071871Y0077561D02*
X0068268Y0077561D01*
X0064268Y0077561D02*
X0044114Y0077561D01*
X0044904Y0076362D02*
X0064268Y0076362D01*
X0064268Y0075164D02*
X0044949Y0075164D01*
X0042518Y0075164D02*
X0042518Y0075164D01*
X0042518Y0075650D02*
X0042518Y0075650D01*
X0042518Y0076362D02*
X0042518Y0076362D01*
X0042518Y0077561D02*
X0042518Y0077561D01*
X0042518Y0073965D02*
X0042518Y0073965D01*
X0047907Y0071568D02*
X0059826Y0071568D01*
X0060241Y0070370D02*
X0048780Y0070370D01*
X0049054Y0069171D02*
X0050982Y0069171D01*
X0050048Y0067973D02*
X0049987Y0067973D01*
X0054054Y0069171D02*
X0058482Y0069171D01*
X0057548Y0067973D02*
X0054987Y0067973D01*
X0055210Y0066774D02*
X0057326Y0066774D01*
X0057652Y0065576D02*
X0054883Y0065576D01*
X0053673Y0064377D02*
X0057612Y0064377D01*
X0057326Y0063179D02*
X0053960Y0063179D01*
X0053697Y0061980D02*
X0057588Y0061980D01*
X0058018Y0060782D02*
X0052585Y0060782D01*
X0052663Y0059583D02*
X0058018Y0059583D01*
X0058018Y0058384D02*
X0053862Y0058384D01*
X0055060Y0057186D02*
X0058018Y0057186D01*
X0058018Y0055987D02*
X0056259Y0055987D01*
X0057018Y0054789D02*
X0058018Y0054789D01*
X0058018Y0053590D02*
X0057018Y0053590D01*
X0057018Y0052392D02*
X0058018Y0052392D01*
X0058018Y0051193D02*
X0057018Y0051193D01*
X0057018Y0049995D02*
X0058018Y0049995D01*
X0058018Y0048796D02*
X0057018Y0048796D01*
X0057018Y0047598D02*
X0058018Y0047598D01*
X0058018Y0046399D02*
X0057018Y0046399D01*
X0057018Y0045201D02*
X0058018Y0045201D01*
X0058018Y0044002D02*
X0057018Y0044002D01*
X0057018Y0042804D02*
X0058018Y0042804D01*
X0058018Y0041605D02*
X0057018Y0041605D01*
X0057018Y0040407D02*
X0058018Y0040407D01*
X0058018Y0039208D02*
X0057018Y0039208D01*
X0057018Y0038010D02*
X0058018Y0038010D01*
X0058018Y0036811D02*
X0057018Y0036811D01*
X0057018Y0035613D02*
X0058018Y0035613D01*
X0058018Y0034414D02*
X0057018Y0034414D01*
X0057018Y0033216D02*
X0058018Y0033216D01*
X0058018Y0032017D02*
X0057018Y0032017D01*
X0057018Y0030819D02*
X0058018Y0030819D01*
X0058018Y0029620D02*
X0057018Y0029620D01*
X0057018Y0028422D02*
X0058018Y0028422D01*
X0058018Y0027223D02*
X0057018Y0027223D01*
X0057018Y0026025D02*
X0058018Y0026025D01*
X0058018Y0024826D02*
X0057018Y0024826D01*
X0057018Y0023628D02*
X0058018Y0023628D01*
X0058018Y0022429D02*
X0057018Y0022429D01*
X0053018Y0022429D02*
X0047633Y0022429D01*
X0047710Y0023628D02*
X0053018Y0023628D01*
X0053018Y0024826D02*
X0047149Y0024826D01*
X0046906Y0021231D02*
X0053018Y0021231D01*
X0050322Y0020032D02*
X0044693Y0020032D01*
X0044945Y0018834D02*
X0049123Y0018834D01*
X0048018Y0017635D02*
X0044945Y0017635D01*
X0044945Y0016437D02*
X0048018Y0016437D01*
X0047129Y0015238D02*
X0044649Y0015238D01*
X0044328Y0014040D02*
X0046577Y0014040D01*
X0046499Y0012841D02*
X0043747Y0012841D01*
X0043055Y0011643D02*
X0046833Y0011643D01*
X0047747Y0010444D02*
X0042004Y0010444D01*
X0040730Y0009246D02*
X0124880Y0009246D01*
X0124880Y0010444D02*
X0097289Y0010444D01*
X0098203Y0011643D02*
X0124880Y0011643D01*
X0124880Y0012841D02*
X0098537Y0012841D01*
X0098459Y0014040D02*
X0124880Y0014040D01*
X0124880Y0015238D02*
X0097907Y0015238D01*
X0096280Y0016437D02*
X0124880Y0016437D01*
X0124880Y0017635D02*
X0077018Y0017635D01*
X0077018Y0016437D02*
X0078756Y0016437D01*
X0081280Y0016437D02*
X0083756Y0016437D01*
X0086280Y0016437D02*
X0088756Y0016437D01*
X0091280Y0016437D02*
X0093756Y0016437D01*
X0092747Y0010444D02*
X0092289Y0010444D01*
X0087747Y0010444D02*
X0087289Y0010444D01*
X0082747Y0010444D02*
X0082289Y0010444D01*
X0077747Y0010444D02*
X0077289Y0010444D01*
X0072747Y0010444D02*
X0072289Y0010444D01*
X0067747Y0010444D02*
X0067289Y0010444D01*
X0062747Y0010444D02*
X0062289Y0010444D01*
X0057747Y0010444D02*
X0057289Y0010444D01*
X0052747Y0010444D02*
X0052289Y0010444D01*
X0038654Y0008047D02*
X0124880Y0008047D01*
X0124880Y0018834D02*
X0077018Y0018834D01*
X0077018Y0020032D02*
X0124880Y0020032D01*
X0124880Y0021231D02*
X0104406Y0021231D01*
X0104043Y0020868D02*
X0104800Y0021625D01*
X0105210Y0022614D01*
X0105210Y0023685D01*
X0104800Y0024675D01*
X0104043Y0025432D01*
X0103053Y0025842D01*
X0101982Y0025842D01*
X0100993Y0025432D01*
X0100236Y0024675D01*
X0099826Y0023685D01*
X0099826Y0022614D01*
X0100236Y0021625D01*
X0100993Y0020868D01*
X0101982Y0020458D01*
X0103053Y0020458D01*
X0104043Y0020868D01*
X0105133Y0022429D02*
X0124880Y0022429D01*
X0124880Y0023628D02*
X0105210Y0023628D01*
X0104649Y0024826D02*
X0113658Y0024826D01*
X0113843Y0024703D02*
X0114295Y0024516D01*
X0114774Y0024420D01*
X0115018Y0024420D01*
X0115262Y0024420D01*
X0115741Y0024516D01*
X0116192Y0024703D01*
X0116598Y0024974D01*
X0116944Y0025319D01*
X0117215Y0025725D01*
X0117402Y0026177D01*
X0117497Y0026656D01*
X0117497Y0026900D01*
X0117497Y0027144D01*
X0117402Y0027623D01*
X0117215Y0028074D01*
X0116944Y0028481D01*
X0116598Y0028826D01*
X0116192Y0029097D01*
X0115741Y0029284D01*
X0115262Y0029380D01*
X0115018Y0029380D01*
X0115018Y0026900D01*
X0117497Y0026900D01*
X0115018Y0026900D01*
X0115018Y0026900D01*
X0115018Y0026900D01*
X0115018Y0024420D01*
X0115018Y0026900D01*
X0115018Y0026900D01*
X0115018Y0029380D01*
X0114774Y0029380D01*
X0114295Y0029284D01*
X0113843Y0029097D01*
X0113437Y0028826D01*
X0113092Y0028481D01*
X0112820Y0028074D01*
X0112634Y0027623D01*
X0112538Y0027144D01*
X0112538Y0026900D01*
X0112538Y0026656D01*
X0112634Y0026177D01*
X0112820Y0025725D01*
X0113092Y0025319D01*
X0113437Y0024974D01*
X0113843Y0024703D01*
X0115018Y0024826D02*
X0115018Y0024826D01*
X0115018Y0026025D02*
X0115018Y0026025D01*
X0115018Y0026900D02*
X0112538Y0026900D01*
X0115018Y0026900D01*
X0115018Y0026900D01*
X0115018Y0027223D02*
X0115018Y0027223D01*
X0115018Y0028422D02*
X0115018Y0028422D01*
X0116983Y0028422D02*
X0117739Y0028422D01*
X0117820Y0028225D02*
X0118092Y0027819D01*
X0118437Y0027474D01*
X0118843Y0027203D01*
X0119295Y0027016D01*
X0119774Y0026920D01*
X0120018Y0026920D01*
X0120262Y0026920D01*
X0120741Y0027016D01*
X0121192Y0027203D01*
X0121598Y0027474D01*
X0121944Y0027819D01*
X0122215Y0028225D01*
X0122402Y0028677D01*
X0122497Y0029156D01*
X0122497Y0029400D01*
X0122497Y0029644D01*
X0122402Y0030123D01*
X0122215Y0030574D01*
X0121944Y0030981D01*
X0121598Y0031326D01*
X0121192Y0031597D01*
X0120741Y0031784D01*
X0120262Y0031880D01*
X0120018Y0031880D01*
X0120018Y0029400D01*
X0122497Y0029400D01*
X0120018Y0029400D01*
X0120018Y0029400D01*
X0120018Y0029400D01*
X0120018Y0026920D01*
X0120018Y0029400D01*
X0120018Y0029400D01*
X0120018Y0031880D01*
X0119774Y0031880D01*
X0119295Y0031784D01*
X0118843Y0031597D01*
X0118437Y0031326D01*
X0118092Y0030981D01*
X0117820Y0030574D01*
X0117634Y0030123D01*
X0117538Y0029644D01*
X0117538Y0029400D01*
X0117538Y0029156D01*
X0117634Y0028677D01*
X0117820Y0028225D01*
X0117482Y0027223D02*
X0118813Y0027223D01*
X0120018Y0027223D02*
X0120018Y0027223D01*
X0120018Y0028422D02*
X0120018Y0028422D01*
X0120018Y0029400D02*
X0117538Y0029400D01*
X0120018Y0029400D01*
X0120018Y0029400D01*
X0120018Y0029620D02*
X0120018Y0029620D01*
X0120018Y0030819D02*
X0120018Y0030819D01*
X0117984Y0030819D02*
X0112484Y0030819D01*
X0112300Y0030375D02*
X0112710Y0031364D01*
X0112710Y0032435D01*
X0112300Y0033425D01*
X0111543Y0034182D01*
X0110553Y0034592D01*
X0109482Y0034592D01*
X0108493Y0034182D01*
X0107736Y0033425D01*
X0107326Y0032435D01*
X0107326Y0031364D01*
X0107542Y0030842D01*
X0106982Y0030842D01*
X0105993Y0030432D01*
X0105236Y0029675D01*
X0104826Y0028685D01*
X0104826Y0027614D01*
X0105236Y0026625D01*
X0105993Y0025868D01*
X0106982Y0025458D01*
X0108053Y0025458D01*
X0109043Y0025868D01*
X0109800Y0026625D01*
X0110210Y0027614D01*
X0110210Y0028685D01*
X0109994Y0029208D01*
X0110553Y0029208D01*
X0111543Y0029618D01*
X0112300Y0030375D01*
X0111545Y0029620D02*
X0117538Y0029620D01*
X0121223Y0027223D02*
X0124880Y0027223D01*
X0124880Y0026025D02*
X0117339Y0026025D01*
X0116377Y0024826D02*
X0124880Y0024826D01*
X0124880Y0028422D02*
X0122296Y0028422D01*
X0122497Y0029620D02*
X0124880Y0029620D01*
X0124880Y0030819D02*
X0122052Y0030819D01*
X0124880Y0032017D02*
X0112710Y0032017D01*
X0112387Y0033216D02*
X0124880Y0033216D01*
X0124880Y0034414D02*
X0110983Y0034414D01*
X0109053Y0034414D02*
X0096460Y0034414D01*
X0096460Y0034935D02*
X0096050Y0035925D01*
X0095293Y0036682D01*
X0094767Y0036900D01*
X0095293Y0037118D01*
X0096050Y0037875D01*
X0096460Y0038864D01*
X0096460Y0039208D01*
X0096803Y0039208D01*
X0097793Y0039618D01*
X0098550Y0040375D01*
X0098960Y0041364D01*
X0098960Y0042083D01*
X0099043Y0042118D01*
X0099325Y0042400D01*
X0108346Y0042400D01*
X0109518Y0043572D01*
X0109596Y0043650D01*
X0110768Y0044822D01*
X0110768Y0067728D01*
X0109288Y0069208D01*
X0109303Y0069208D01*
X0110070Y0069525D01*
X0110236Y0069125D01*
X0110993Y0068368D01*
X0111982Y0067958D01*
X0113053Y0067958D01*
X0114043Y0068368D01*
X0114800Y0069125D01*
X0115210Y0070114D01*
X0115210Y0071185D01*
X0114800Y0072175D01*
X0114043Y0072932D01*
X0113053Y0073342D01*
X0111982Y0073342D01*
X0111216Y0073025D01*
X0111050Y0073425D01*
X0110293Y0074182D01*
X0109303Y0074592D01*
X0108232Y0074592D01*
X0107243Y0074182D01*
X0106486Y0073425D01*
X0106236Y0072823D01*
X0105942Y0073533D01*
X0105184Y0074291D01*
X0104195Y0074700D01*
X0103124Y0074700D01*
X0102135Y0074291D01*
X0101377Y0073533D01*
X0100967Y0072544D01*
X0100967Y0071473D01*
X0101377Y0070483D01*
X0102135Y0069726D01*
X0103124Y0069316D01*
X0103523Y0069316D01*
X0106768Y0066072D01*
X0106768Y0062092D01*
X0105732Y0062092D01*
X0104743Y0061682D01*
X0103986Y0060925D01*
X0103576Y0059935D01*
X0103576Y0058864D01*
X0103986Y0057875D01*
X0104743Y0057118D01*
X0105732Y0056708D01*
X0106768Y0056708D01*
X0106768Y0049329D01*
X0106512Y0049380D01*
X0106268Y0049380D01*
X0106268Y0046900D01*
X0106268Y0046900D01*
X0106268Y0049380D01*
X0106024Y0049380D01*
X0105545Y0049284D01*
X0105093Y0049097D01*
X0104687Y0048826D01*
X0104342Y0048481D01*
X0104070Y0048074D01*
X0103884Y0047623D01*
X0103788Y0047144D01*
X0103788Y0046900D01*
X0103788Y0046656D01*
X0103839Y0046400D01*
X0099325Y0046400D01*
X0099043Y0046682D01*
X0098517Y0046900D01*
X0099043Y0047118D01*
X0099800Y0047875D01*
X0100210Y0048864D01*
X0100210Y0049935D01*
X0099800Y0050925D01*
X0099043Y0051682D01*
X0098053Y0052092D01*
X0096982Y0052092D01*
X0095993Y0051682D01*
X0095236Y0050925D01*
X0094826Y0049935D01*
X0094826Y0048864D01*
X0095236Y0047875D01*
X0095993Y0047118D01*
X0096518Y0046900D01*
X0095993Y0046682D01*
X0095236Y0045925D01*
X0094826Y0044935D01*
X0094826Y0044217D01*
X0094743Y0044182D01*
X0093986Y0043425D01*
X0093576Y0042435D01*
X0093576Y0042092D01*
X0093232Y0042092D01*
X0092243Y0041682D01*
X0091486Y0040925D01*
X0091076Y0039935D01*
X0091076Y0038864D01*
X0091486Y0037875D01*
X0092243Y0037118D01*
X0092768Y0036900D01*
X0092243Y0036682D01*
X0091486Y0035925D01*
X0091076Y0034935D01*
X0091076Y0033864D01*
X0091486Y0032875D01*
X0092243Y0032118D01*
X0092768Y0031900D01*
X0092243Y0031682D01*
X0091486Y0030925D01*
X0091076Y0029935D01*
X0091076Y0028864D01*
X0091486Y0027875D01*
X0092243Y0027118D01*
X0093232Y0026708D01*
X0094303Y0026708D01*
X0095293Y0027118D01*
X0096050Y0027875D01*
X0096460Y0028864D01*
X0096460Y0029935D01*
X0096050Y0030925D01*
X0095293Y0031682D01*
X0094767Y0031900D01*
X0095293Y0032118D01*
X0096050Y0032875D01*
X0096460Y0033864D01*
X0096460Y0034935D01*
X0096179Y0035613D02*
X0124880Y0035613D01*
X0124880Y0036811D02*
X0094981Y0036811D01*
X0096106Y0038010D02*
X0124880Y0038010D01*
X0124880Y0039208D02*
X0096804Y0039208D01*
X0098563Y0040407D02*
X0124880Y0040407D01*
X0124880Y0041605D02*
X0098960Y0041605D01*
X0094563Y0044002D02*
X0078829Y0044002D01*
X0078960Y0042804D02*
X0093728Y0042804D01*
X0092166Y0041605D02*
X0078530Y0041605D01*
X0078268Y0040407D02*
X0091271Y0040407D01*
X0091076Y0039208D02*
X0078268Y0039208D01*
X0078268Y0038010D02*
X0091430Y0038010D01*
X0092554Y0036811D02*
X0079355Y0036811D01*
X0078768Y0036811D02*
X0078768Y0036811D01*
X0078768Y0035613D02*
X0078768Y0035613D01*
X0078768Y0034414D02*
X0078768Y0034414D01*
X0080940Y0035613D02*
X0091356Y0035613D01*
X0091076Y0034414D02*
X0081247Y0034414D01*
X0080959Y0033216D02*
X0091344Y0033216D01*
X0092485Y0032017D02*
X0079495Y0032017D01*
X0078768Y0032017D02*
X0078768Y0032017D01*
X0078768Y0033216D02*
X0078768Y0033216D01*
X0078268Y0030819D02*
X0091442Y0030819D01*
X0091076Y0029620D02*
X0078268Y0029620D01*
X0078268Y0028422D02*
X0091259Y0028422D01*
X0092137Y0027223D02*
X0078268Y0027223D01*
X0078268Y0026025D02*
X0105836Y0026025D01*
X0104988Y0027223D02*
X0095398Y0027223D01*
X0096277Y0028422D02*
X0104826Y0028422D01*
X0105213Y0029620D02*
X0096460Y0029620D01*
X0096094Y0030819D02*
X0106926Y0030819D01*
X0107326Y0032017D02*
X0095050Y0032017D01*
X0096191Y0033216D02*
X0107649Y0033216D01*
X0110210Y0028422D02*
X0113052Y0028422D01*
X0112554Y0027223D02*
X0110048Y0027223D01*
X0109200Y0026025D02*
X0112697Y0026025D01*
X0100387Y0024826D02*
X0082149Y0024826D01*
X0082710Y0023628D02*
X0099826Y0023628D01*
X0099902Y0022429D02*
X0082633Y0022429D01*
X0081906Y0021231D02*
X0100630Y0021231D01*
X0078130Y0021231D02*
X0077177Y0021231D01*
X0069268Y0027223D02*
X0064518Y0027223D01*
X0064518Y0026025D02*
X0068814Y0026025D01*
X0068018Y0024826D02*
X0064518Y0024826D01*
X0064869Y0023628D02*
X0068018Y0023628D01*
X0068018Y0022429D02*
X0066067Y0022429D01*
X0067018Y0021231D02*
X0068018Y0021231D01*
X0068018Y0020032D02*
X0067018Y0020032D01*
X0067018Y0018834D02*
X0068018Y0018834D01*
X0068018Y0017635D02*
X0067018Y0017635D01*
X0067018Y0016437D02*
X0068018Y0016437D01*
X0053018Y0026025D02*
X0040969Y0026025D01*
X0042167Y0024826D02*
X0042887Y0024826D01*
X0038937Y0027223D02*
X0053018Y0027223D01*
X0053018Y0028422D02*
X0024299Y0028422D01*
X0024299Y0029620D02*
X0053018Y0029620D01*
X0053018Y0030819D02*
X0037664Y0030819D01*
X0038358Y0032017D02*
X0053018Y0032017D01*
X0053018Y0033216D02*
X0038537Y0033216D01*
X0038303Y0034414D02*
X0053018Y0034414D01*
X0053018Y0035613D02*
X0045927Y0035613D01*
X0045553Y0035458D02*
X0046543Y0035868D01*
X0047300Y0036625D01*
X0047710Y0037614D01*
X0047710Y0038685D01*
X0047300Y0039675D01*
X0046543Y0040432D01*
X0045553Y0040842D01*
X0044482Y0040842D01*
X0043493Y0040432D01*
X0042736Y0039675D01*
X0042326Y0038685D01*
X0042326Y0037614D01*
X0042736Y0036625D01*
X0043493Y0035868D01*
X0044482Y0035458D01*
X0045553Y0035458D01*
X0044108Y0035613D02*
X0037532Y0035613D01*
X0038273Y0036811D02*
X0042658Y0036811D01*
X0042326Y0038010D02*
X0038537Y0038010D01*
X0038389Y0039208D02*
X0042542Y0039208D01*
X0043467Y0040407D02*
X0037738Y0040407D01*
X0037957Y0041605D02*
X0050255Y0041605D01*
X0049826Y0042804D02*
X0038320Y0042804D01*
X0038220Y0044002D02*
X0042858Y0044002D01*
X0042736Y0044125D02*
X0043493Y0043368D01*
X0044482Y0042958D01*
X0045553Y0042958D01*
X0046543Y0043368D01*
X0047300Y0044125D01*
X0047710Y0045114D01*
X0047710Y0046185D01*
X0047300Y0047175D01*
X0046543Y0047932D01*
X0046017Y0048150D01*
X0046543Y0048368D01*
X0047300Y0049125D01*
X0047710Y0050114D01*
X0047710Y0051185D01*
X0047300Y0052175D01*
X0046543Y0052932D01*
X0045553Y0053342D01*
X0044482Y0053342D01*
X0043493Y0052932D01*
X0042736Y0052175D01*
X0042326Y0051185D01*
X0042326Y0050114D01*
X0042736Y0049125D01*
X0043493Y0048368D01*
X0044018Y0048150D01*
X0043493Y0047932D01*
X0042736Y0047175D01*
X0042326Y0046185D01*
X0042326Y0045114D01*
X0042736Y0044125D01*
X0042326Y0045201D02*
X0037624Y0045201D01*
X0038102Y0046399D02*
X0042414Y0046399D01*
X0043158Y0047598D02*
X0038537Y0047598D01*
X0038537Y0048796D02*
X0043064Y0048796D01*
X0042375Y0049995D02*
X0038063Y0049995D01*
X0038017Y0051193D02*
X0042329Y0051193D01*
X0042953Y0052392D02*
X0038513Y0052392D01*
X0038537Y0053590D02*
X0052999Y0053590D01*
X0053018Y0052392D02*
X0047083Y0052392D01*
X0047707Y0051193D02*
X0053018Y0051193D01*
X0053018Y0049995D02*
X0047660Y0049995D01*
X0046971Y0048796D02*
X0053018Y0048796D01*
X0053018Y0047598D02*
X0046877Y0047598D01*
X0047621Y0046399D02*
X0053018Y0046399D01*
X0050761Y0045201D02*
X0047710Y0045201D01*
X0047177Y0044002D02*
X0049957Y0044002D01*
X0053018Y0040407D02*
X0046568Y0040407D01*
X0047493Y0039208D02*
X0053018Y0039208D01*
X0053018Y0038010D02*
X0047710Y0038010D01*
X0047377Y0036811D02*
X0053018Y0036811D01*
X0064518Y0036811D02*
X0067983Y0036811D01*
X0068232Y0036708D02*
X0069303Y0036708D01*
X0070293Y0037118D01*
X0071050Y0037875D01*
X0071460Y0038864D01*
X0071460Y0039935D01*
X0071050Y0040925D01*
X0070293Y0041682D01*
X0069303Y0042092D01*
X0068232Y0042092D01*
X0067243Y0041682D01*
X0066486Y0040925D01*
X0066076Y0039935D01*
X0066076Y0038864D01*
X0066486Y0037875D01*
X0067243Y0037118D01*
X0068232Y0036708D01*
X0069553Y0036811D02*
X0071768Y0036811D01*
X0071768Y0035613D02*
X0064518Y0035613D01*
X0064518Y0034414D02*
X0071768Y0034414D01*
X0071768Y0033216D02*
X0064518Y0033216D01*
X0064518Y0032017D02*
X0071057Y0032017D01*
X0069858Y0030819D02*
X0064518Y0030819D01*
X0064518Y0029620D02*
X0069268Y0029620D01*
X0069268Y0028422D02*
X0064518Y0028422D01*
X0064518Y0038010D02*
X0066430Y0038010D01*
X0066076Y0039208D02*
X0064518Y0039208D01*
X0064518Y0040407D02*
X0066271Y0040407D01*
X0067166Y0041605D02*
X0064518Y0041605D01*
X0064518Y0042804D02*
X0071768Y0042804D01*
X0071768Y0044002D02*
X0064518Y0044002D01*
X0064518Y0045201D02*
X0071768Y0045201D01*
X0072939Y0046399D02*
X0064518Y0046399D01*
X0064518Y0047598D02*
X0073018Y0047598D01*
X0073018Y0048796D02*
X0064518Y0048796D01*
X0064518Y0049995D02*
X0073018Y0049995D01*
X0073018Y0051193D02*
X0064518Y0051193D01*
X0064518Y0052392D02*
X0073018Y0052392D01*
X0073880Y0053590D02*
X0064518Y0053590D01*
X0064518Y0054789D02*
X0073322Y0054789D01*
X0072482Y0055987D02*
X0064518Y0055987D01*
X0064518Y0057186D02*
X0072326Y0057186D01*
X0072719Y0058384D02*
X0066560Y0058384D01*
X0067490Y0059583D02*
X0074460Y0059583D01*
X0075575Y0059583D02*
X0095197Y0059583D01*
X0095236Y0059675D02*
X0094826Y0058685D01*
X0094826Y0057614D01*
X0095236Y0056625D01*
X0095993Y0055868D01*
X0096982Y0055458D01*
X0098053Y0055458D01*
X0099043Y0055868D01*
X0099800Y0056625D01*
X0100210Y0057614D01*
X0100210Y0058685D01*
X0099800Y0059675D01*
X0099043Y0060432D01*
X0098053Y0060842D01*
X0096982Y0060842D01*
X0095993Y0060432D01*
X0095236Y0059675D01*
X0094826Y0058384D02*
X0077317Y0058384D01*
X0079789Y0057186D02*
X0095003Y0057186D01*
X0095873Y0055987D02*
X0080210Y0055987D01*
X0083436Y0054789D02*
X0106768Y0054789D01*
X0106768Y0055987D02*
X0099163Y0055987D01*
X0100032Y0057186D02*
X0104675Y0057186D01*
X0103774Y0058384D02*
X0100210Y0058384D01*
X0099838Y0059583D02*
X0103576Y0059583D01*
X0103926Y0060782D02*
X0098200Y0060782D01*
X0096836Y0060782D02*
X0086335Y0060782D01*
X0086543Y0060868D02*
X0087300Y0061625D01*
X0087710Y0062614D01*
X0087710Y0063685D01*
X0087300Y0064675D01*
X0086543Y0065432D01*
X0085553Y0065842D01*
X0084482Y0065842D01*
X0083493Y0065432D01*
X0082736Y0064675D01*
X0082710Y0064613D01*
X0082710Y0064935D01*
X0082300Y0065925D01*
X0081543Y0066682D01*
X0080553Y0067092D01*
X0079482Y0067092D01*
X0078493Y0066682D01*
X0077736Y0065925D01*
X0077326Y0064935D01*
X0077326Y0063864D01*
X0077736Y0062875D01*
X0078493Y0062118D01*
X0079482Y0061708D01*
X0080553Y0061708D01*
X0081543Y0062118D01*
X0082300Y0062875D01*
X0082326Y0062937D01*
X0082326Y0062614D01*
X0082736Y0061625D01*
X0083493Y0060868D01*
X0084482Y0060458D01*
X0085553Y0060458D01*
X0086543Y0060868D01*
X0087447Y0061980D02*
X0105462Y0061980D01*
X0106768Y0063179D02*
X0087710Y0063179D01*
X0087423Y0064377D02*
X0091574Y0064377D01*
X0090152Y0065576D02*
X0086197Y0065576D01*
X0083839Y0065576D02*
X0082445Y0065576D01*
X0081321Y0066774D02*
X0089826Y0066774D01*
X0090048Y0067973D02*
X0073590Y0067973D01*
X0073550Y0067875D02*
X0073960Y0068864D01*
X0073960Y0069935D01*
X0073550Y0070925D01*
X0072793Y0071682D01*
X0071803Y0072092D01*
X0070732Y0072092D01*
X0069743Y0071682D01*
X0068986Y0070925D01*
X0068576Y0069935D01*
X0068576Y0068864D01*
X0068986Y0067875D01*
X0069743Y0067118D01*
X0070732Y0066708D01*
X0071803Y0066708D01*
X0072793Y0067118D01*
X0073550Y0067875D01*
X0073960Y0069171D02*
X0090982Y0069171D01*
X0092741Y0070370D02*
X0073780Y0070370D01*
X0072907Y0071568D02*
X0092217Y0071568D01*
X0097078Y0070370D02*
X0101491Y0070370D01*
X0100967Y0071568D02*
X0097602Y0071568D01*
X0097509Y0072767D02*
X0101060Y0072767D01*
X0101809Y0073965D02*
X0096760Y0073965D01*
X0097089Y0075164D02*
X0124880Y0075164D01*
X0124880Y0076362D02*
X0112037Y0076362D01*
X0112688Y0077561D02*
X0124880Y0077561D01*
X0124880Y0078759D02*
X0112679Y0078759D01*
X0112017Y0079958D02*
X0124880Y0079958D01*
X0124880Y0081156D02*
X0110124Y0081156D01*
X0107356Y0078759D02*
X0096966Y0078759D01*
X0097658Y0077561D02*
X0107348Y0077561D01*
X0107998Y0076362D02*
X0097709Y0076362D01*
X0097509Y0069171D02*
X0103668Y0069171D01*
X0104867Y0067973D02*
X0097710Y0067973D01*
X0097362Y0066774D02*
X0106065Y0066774D01*
X0106768Y0065576D02*
X0095837Y0065576D01*
X0093462Y0064377D02*
X0106768Y0064377D01*
X0110768Y0064377D02*
X0124880Y0064377D01*
X0124880Y0063179D02*
X0110768Y0063179D01*
X0110768Y0061980D02*
X0124880Y0061980D01*
X0124880Y0060782D02*
X0110768Y0060782D01*
X0110768Y0059583D02*
X0124880Y0059583D01*
X0124880Y0058384D02*
X0110768Y0058384D01*
X0110768Y0057186D02*
X0124880Y0057186D01*
X0124880Y0055987D02*
X0110768Y0055987D01*
X0110768Y0054789D02*
X0124880Y0054789D01*
X0124880Y0053590D02*
X0110768Y0053590D01*
X0110768Y0052392D02*
X0124880Y0052392D01*
X0124880Y0051193D02*
X0110768Y0051193D01*
X0110768Y0049995D02*
X0124880Y0049995D01*
X0124880Y0048796D02*
X0110768Y0048796D01*
X0110768Y0047598D02*
X0124880Y0047598D01*
X0124880Y0046399D02*
X0110768Y0046399D01*
X0110768Y0045201D02*
X0124880Y0045201D01*
X0124880Y0044002D02*
X0109949Y0044002D01*
X0108750Y0042804D02*
X0124880Y0042804D01*
X0106768Y0049995D02*
X0100185Y0049995D01*
X0100182Y0048796D02*
X0104658Y0048796D01*
X0106268Y0048796D02*
X0106268Y0048796D01*
X0106268Y0047598D02*
X0106268Y0047598D01*
X0106268Y0046900D02*
X0106268Y0046900D01*
X0103788Y0046900D01*
X0106268Y0046900D01*
X0103879Y0047598D02*
X0099523Y0047598D01*
X0095710Y0046399D02*
X0077018Y0046399D01*
X0077018Y0047598D02*
X0085513Y0047598D01*
X0085236Y0047875D02*
X0085993Y0047118D01*
X0086982Y0046708D01*
X0088053Y0046708D01*
X0089043Y0047118D01*
X0089800Y0047875D01*
X0090210Y0048864D01*
X0090210Y0049935D01*
X0089800Y0050925D01*
X0089043Y0051682D01*
X0088053Y0052092D01*
X0086982Y0052092D01*
X0085993Y0051682D01*
X0085236Y0050925D01*
X0084826Y0049935D01*
X0084826Y0048864D01*
X0085236Y0047875D01*
X0084854Y0048796D02*
X0080721Y0048796D01*
X0081410Y0049995D02*
X0084850Y0049995D01*
X0085504Y0051193D02*
X0083118Y0051193D01*
X0083868Y0052392D02*
X0106768Y0052392D01*
X0106768Y0053590D02*
X0083960Y0053590D01*
X0089532Y0051193D02*
X0095504Y0051193D01*
X0094850Y0049995D02*
X0090185Y0049995D01*
X0090182Y0048796D02*
X0094854Y0048796D01*
X0095513Y0047598D02*
X0089523Y0047598D01*
X0094936Y0045201D02*
X0078024Y0045201D01*
X0071768Y0041605D02*
X0070370Y0041605D01*
X0071265Y0040407D02*
X0071768Y0040407D01*
X0071768Y0039208D02*
X0071460Y0039208D01*
X0071768Y0038010D02*
X0071106Y0038010D01*
X0051800Y0054789D02*
X0038148Y0054789D01*
X0037157Y0055987D02*
X0050602Y0055987D01*
X0067460Y0061980D02*
X0078825Y0061980D01*
X0077610Y0063179D02*
X0068676Y0063179D01*
X0068960Y0064377D02*
X0077326Y0064377D01*
X0077591Y0065576D02*
X0068695Y0065576D01*
X0068268Y0066774D02*
X0070572Y0066774D01*
X0071963Y0066774D02*
X0078715Y0066774D01*
X0081210Y0061980D02*
X0082588Y0061980D01*
X0083701Y0060782D02*
X0067710Y0060782D01*
X0068268Y0067973D02*
X0068945Y0067973D01*
X0068576Y0069171D02*
X0068268Y0069171D01*
X0068268Y0070370D02*
X0068755Y0070370D01*
X0068268Y0071568D02*
X0069629Y0071568D01*
X0064268Y0073965D02*
X0064260Y0073965D01*
X0032878Y0055987D02*
X0032157Y0055987D01*
X0033324Y0043110D02*
X0030058Y0043110D01*
X0030058Y0043190D01*
X0034978Y0043190D01*
X0034978Y0043110D01*
X0033324Y0043110D01*
X0099532Y0051193D02*
X0106768Y0051193D01*
X0110768Y0065576D02*
X0124880Y0065576D01*
X0124880Y0066774D02*
X0110768Y0066774D01*
X0110524Y0067973D02*
X0111947Y0067973D01*
X0113089Y0067973D02*
X0124880Y0067973D01*
X0124880Y0069171D02*
X0114819Y0069171D01*
X0115210Y0070370D02*
X0124880Y0070370D01*
X0124880Y0071568D02*
X0115051Y0071568D01*
X0114208Y0072767D02*
X0124880Y0072767D01*
X0124880Y0073965D02*
X0110510Y0073965D01*
X0107026Y0073965D02*
X0105510Y0073965D01*
X0109325Y0069171D02*
X0110216Y0069171D01*
M02*
