G75*
%MOIN*%
%OFA0B0*%
%FSLAX25Y25*%
%IPPOS*%
%LPD*%
%AMOC8*
5,1,8,0,0,1.08239X$1,22.5*
%
%ADD10C,0.00000*%
%ADD11C,0.00400*%
%ADD12C,0.00600*%
%ADD13C,0.00787*%
%ADD14C,0.02500*%
D10*
X0022518Y0005650D02*
X0022518Y0100138D01*
X0148502Y0100138D01*
X0148502Y0005650D01*
X0022518Y0005650D01*
D11*
X0130218Y0009600D02*
X0130218Y0012669D01*
X0130985Y0014204D02*
X0131752Y0014971D01*
X0131752Y0017273D01*
X0132520Y0017273D02*
X0133287Y0016506D01*
X0133287Y0014971D01*
X0130985Y0014204D02*
X0130218Y0014971D01*
X0130218Y0017273D01*
X0132520Y0017273D01*
X0133287Y0018808D02*
X0133287Y0021877D01*
X0130218Y0018808D01*
X0130218Y0021877D01*
X0130985Y0023412D02*
X0130218Y0024179D01*
X0130218Y0026481D01*
X0133287Y0026481D01*
X0133287Y0028016D02*
X0130218Y0028016D01*
X0131752Y0028016D02*
X0133287Y0029550D01*
X0133287Y0030318D01*
X0133287Y0031852D02*
X0133287Y0032620D01*
X0130218Y0032620D01*
X0130218Y0033387D02*
X0130218Y0031852D01*
X0133287Y0034922D02*
X0133287Y0036456D01*
X0134054Y0035689D02*
X0130985Y0035689D01*
X0130218Y0036456D01*
X0130985Y0037991D02*
X0130218Y0038758D01*
X0130218Y0040293D01*
X0131752Y0041060D02*
X0131752Y0037991D01*
X0130985Y0037991D02*
X0132520Y0037991D01*
X0133287Y0038758D01*
X0133287Y0040293D01*
X0132520Y0041060D01*
X0131752Y0041060D01*
X0132520Y0047199D02*
X0132520Y0049501D01*
X0131752Y0050268D01*
X0130985Y0050268D01*
X0130218Y0049501D01*
X0130218Y0047199D01*
X0134822Y0047199D01*
X0134822Y0049501D01*
X0134054Y0050268D01*
X0133287Y0050268D01*
X0132520Y0049501D01*
X0134822Y0051803D02*
X0130218Y0051803D01*
X0130218Y0054872D01*
X0130218Y0056407D02*
X0130218Y0059476D01*
X0132520Y0057941D02*
X0132520Y0056407D01*
X0134822Y0056407D02*
X0130218Y0056407D01*
X0134822Y0056407D02*
X0134822Y0059476D01*
X0133287Y0065614D02*
X0130218Y0065614D01*
X0131752Y0065614D02*
X0133287Y0067149D01*
X0133287Y0067916D01*
X0132520Y0069451D02*
X0130985Y0069451D01*
X0130218Y0070218D01*
X0130218Y0071753D01*
X0131752Y0072520D02*
X0131752Y0069451D01*
X0132520Y0069451D02*
X0133287Y0070218D01*
X0133287Y0071753D01*
X0132520Y0072520D01*
X0131752Y0072520D01*
X0133287Y0074055D02*
X0130218Y0075590D01*
X0133287Y0077124D01*
X0133287Y0078659D02*
X0134822Y0080193D01*
X0130218Y0080193D01*
X0130218Y0078659D02*
X0130218Y0081728D01*
X0134822Y0032620D02*
X0135589Y0032620D01*
X0133287Y0023412D02*
X0130985Y0023412D01*
X0130218Y0009600D02*
X0134822Y0009600D01*
D12*
X0140318Y0009700D02*
X0140318Y0013970D01*
X0140318Y0016145D02*
X0144588Y0016145D01*
X0146723Y0018281D01*
X0144588Y0020416D01*
X0140318Y0020416D01*
X0140318Y0022591D02*
X0146723Y0022591D01*
X0146723Y0025794D01*
X0145656Y0026861D01*
X0143521Y0026861D01*
X0142453Y0025794D01*
X0142453Y0022591D01*
X0143521Y0020416D02*
X0143521Y0016145D01*
X0146723Y0009700D02*
X0140318Y0009700D01*
X0140318Y0029036D02*
X0140318Y0031172D01*
X0140318Y0030104D02*
X0146723Y0030104D01*
X0146723Y0029036D02*
X0146723Y0031172D01*
X0145656Y0033333D02*
X0144588Y0033333D01*
X0143521Y0034401D01*
X0143521Y0036536D01*
X0142453Y0037604D01*
X0141385Y0037604D01*
X0140318Y0036536D01*
X0140318Y0034401D01*
X0141385Y0033333D01*
X0145656Y0033333D02*
X0146723Y0034401D01*
X0146723Y0036536D01*
X0145656Y0037604D01*
D13*
X0065392Y0030000D03*
X0052518Y0048150D03*
D14*
X0062518Y0053150D03*
M02*
