%
M48
M72
T01C0.01181
T02C0.01200
T03C0.11811
%
T01
X88428Y53798
X88528Y57298
X82028Y57898
X69528Y59498
X49528Y57498
T02
X46028Y55998
X64028Y45498
X50528Y39998
X69028Y53998
X82028Y47498
X85528Y47498
X81028Y36498
X45528Y71598
X69028Y74498
X77028Y78998
X88428Y79398
X99528Y79598
T03
X15370Y23341
X15370Y90270
X176787Y90270
X176787Y23341
M30
