G75*
%MOIN*%
%OFA0B0*%
%FSLAX25Y25*%
%IPPOS*%
%LPD*%
%AMOC8*
5,1,8,0,0,1.08239X$1,22.5*
%
%ADD10C,0.00000*%
D10*
X0017339Y0013498D02*
X0174819Y0013498D01*
X0170881Y0023341D02*
X0170883Y0023494D01*
X0170889Y0023648D01*
X0170899Y0023801D01*
X0170913Y0023953D01*
X0170931Y0024106D01*
X0170953Y0024257D01*
X0170978Y0024408D01*
X0171008Y0024559D01*
X0171042Y0024709D01*
X0171079Y0024857D01*
X0171120Y0025005D01*
X0171165Y0025151D01*
X0171214Y0025297D01*
X0171267Y0025441D01*
X0171323Y0025583D01*
X0171383Y0025724D01*
X0171447Y0025864D01*
X0171514Y0026002D01*
X0171585Y0026138D01*
X0171660Y0026272D01*
X0171737Y0026404D01*
X0171819Y0026534D01*
X0171903Y0026662D01*
X0171991Y0026788D01*
X0172082Y0026911D01*
X0172176Y0027032D01*
X0172274Y0027150D01*
X0172374Y0027266D01*
X0172478Y0027379D01*
X0172584Y0027490D01*
X0172693Y0027598D01*
X0172805Y0027703D01*
X0172919Y0027804D01*
X0173037Y0027903D01*
X0173156Y0027999D01*
X0173278Y0028092D01*
X0173403Y0028181D01*
X0173530Y0028268D01*
X0173659Y0028350D01*
X0173790Y0028430D01*
X0173923Y0028506D01*
X0174058Y0028579D01*
X0174195Y0028648D01*
X0174334Y0028713D01*
X0174474Y0028775D01*
X0174616Y0028833D01*
X0174759Y0028888D01*
X0174904Y0028939D01*
X0175050Y0028986D01*
X0175197Y0029029D01*
X0175345Y0029068D01*
X0175494Y0029104D01*
X0175644Y0029135D01*
X0175795Y0029163D01*
X0175946Y0029187D01*
X0176099Y0029207D01*
X0176251Y0029223D01*
X0176404Y0029235D01*
X0176557Y0029243D01*
X0176710Y0029247D01*
X0176864Y0029247D01*
X0177017Y0029243D01*
X0177170Y0029235D01*
X0177323Y0029223D01*
X0177475Y0029207D01*
X0177628Y0029187D01*
X0177779Y0029163D01*
X0177930Y0029135D01*
X0178080Y0029104D01*
X0178229Y0029068D01*
X0178377Y0029029D01*
X0178524Y0028986D01*
X0178670Y0028939D01*
X0178815Y0028888D01*
X0178958Y0028833D01*
X0179100Y0028775D01*
X0179240Y0028713D01*
X0179379Y0028648D01*
X0179516Y0028579D01*
X0179651Y0028506D01*
X0179784Y0028430D01*
X0179915Y0028350D01*
X0180044Y0028268D01*
X0180171Y0028181D01*
X0180296Y0028092D01*
X0180418Y0027999D01*
X0180537Y0027903D01*
X0180655Y0027804D01*
X0180769Y0027703D01*
X0180881Y0027598D01*
X0180990Y0027490D01*
X0181096Y0027379D01*
X0181200Y0027266D01*
X0181300Y0027150D01*
X0181398Y0027032D01*
X0181492Y0026911D01*
X0181583Y0026788D01*
X0181671Y0026662D01*
X0181755Y0026534D01*
X0181837Y0026404D01*
X0181914Y0026272D01*
X0181989Y0026138D01*
X0182060Y0026002D01*
X0182127Y0025864D01*
X0182191Y0025724D01*
X0182251Y0025583D01*
X0182307Y0025441D01*
X0182360Y0025297D01*
X0182409Y0025151D01*
X0182454Y0025005D01*
X0182495Y0024857D01*
X0182532Y0024709D01*
X0182566Y0024559D01*
X0182596Y0024408D01*
X0182621Y0024257D01*
X0182643Y0024106D01*
X0182661Y0023953D01*
X0182675Y0023801D01*
X0182685Y0023648D01*
X0182691Y0023494D01*
X0182693Y0023341D01*
X0182691Y0023188D01*
X0182685Y0023034D01*
X0182675Y0022881D01*
X0182661Y0022729D01*
X0182643Y0022576D01*
X0182621Y0022425D01*
X0182596Y0022274D01*
X0182566Y0022123D01*
X0182532Y0021973D01*
X0182495Y0021825D01*
X0182454Y0021677D01*
X0182409Y0021531D01*
X0182360Y0021385D01*
X0182307Y0021241D01*
X0182251Y0021099D01*
X0182191Y0020958D01*
X0182127Y0020818D01*
X0182060Y0020680D01*
X0181989Y0020544D01*
X0181914Y0020410D01*
X0181837Y0020278D01*
X0181755Y0020148D01*
X0181671Y0020020D01*
X0181583Y0019894D01*
X0181492Y0019771D01*
X0181398Y0019650D01*
X0181300Y0019532D01*
X0181200Y0019416D01*
X0181096Y0019303D01*
X0180990Y0019192D01*
X0180881Y0019084D01*
X0180769Y0018979D01*
X0180655Y0018878D01*
X0180537Y0018779D01*
X0180418Y0018683D01*
X0180296Y0018590D01*
X0180171Y0018501D01*
X0180044Y0018414D01*
X0179915Y0018332D01*
X0179784Y0018252D01*
X0179651Y0018176D01*
X0179516Y0018103D01*
X0179379Y0018034D01*
X0179240Y0017969D01*
X0179100Y0017907D01*
X0178958Y0017849D01*
X0178815Y0017794D01*
X0178670Y0017743D01*
X0178524Y0017696D01*
X0178377Y0017653D01*
X0178229Y0017614D01*
X0178080Y0017578D01*
X0177930Y0017547D01*
X0177779Y0017519D01*
X0177628Y0017495D01*
X0177475Y0017475D01*
X0177323Y0017459D01*
X0177170Y0017447D01*
X0177017Y0017439D01*
X0176864Y0017435D01*
X0176710Y0017435D01*
X0176557Y0017439D01*
X0176404Y0017447D01*
X0176251Y0017459D01*
X0176099Y0017475D01*
X0175946Y0017495D01*
X0175795Y0017519D01*
X0175644Y0017547D01*
X0175494Y0017578D01*
X0175345Y0017614D01*
X0175197Y0017653D01*
X0175050Y0017696D01*
X0174904Y0017743D01*
X0174759Y0017794D01*
X0174616Y0017849D01*
X0174474Y0017907D01*
X0174334Y0017969D01*
X0174195Y0018034D01*
X0174058Y0018103D01*
X0173923Y0018176D01*
X0173790Y0018252D01*
X0173659Y0018332D01*
X0173530Y0018414D01*
X0173403Y0018501D01*
X0173278Y0018590D01*
X0173156Y0018683D01*
X0173037Y0018779D01*
X0172919Y0018878D01*
X0172805Y0018979D01*
X0172693Y0019084D01*
X0172584Y0019192D01*
X0172478Y0019303D01*
X0172374Y0019416D01*
X0172274Y0019532D01*
X0172176Y0019650D01*
X0172082Y0019771D01*
X0171991Y0019894D01*
X0171903Y0020020D01*
X0171819Y0020148D01*
X0171737Y0020278D01*
X0171660Y0020410D01*
X0171585Y0020544D01*
X0171514Y0020680D01*
X0171447Y0020818D01*
X0171383Y0020958D01*
X0171323Y0021099D01*
X0171267Y0021241D01*
X0171214Y0021385D01*
X0171165Y0021531D01*
X0171120Y0021677D01*
X0171079Y0021825D01*
X0171042Y0021973D01*
X0171008Y0022123D01*
X0170978Y0022274D01*
X0170953Y0022425D01*
X0170931Y0022576D01*
X0170913Y0022729D01*
X0170899Y0022881D01*
X0170889Y0023034D01*
X0170883Y0023188D01*
X0170881Y0023341D01*
X0174819Y0013498D02*
X0175104Y0013501D01*
X0175390Y0013512D01*
X0175675Y0013529D01*
X0175959Y0013553D01*
X0176243Y0013584D01*
X0176526Y0013622D01*
X0176807Y0013667D01*
X0177088Y0013718D01*
X0177368Y0013776D01*
X0177646Y0013841D01*
X0177922Y0013913D01*
X0178196Y0013991D01*
X0178469Y0014076D01*
X0178739Y0014168D01*
X0179007Y0014266D01*
X0179273Y0014370D01*
X0179536Y0014481D01*
X0179796Y0014598D01*
X0180054Y0014721D01*
X0180308Y0014851D01*
X0180559Y0014987D01*
X0180807Y0015128D01*
X0181051Y0015276D01*
X0181292Y0015429D01*
X0181528Y0015589D01*
X0181761Y0015754D01*
X0181990Y0015924D01*
X0182215Y0016100D01*
X0182435Y0016282D01*
X0182651Y0016468D01*
X0182862Y0016660D01*
X0183069Y0016857D01*
X0183271Y0017059D01*
X0183468Y0017266D01*
X0183660Y0017477D01*
X0183846Y0017693D01*
X0184028Y0017913D01*
X0184204Y0018138D01*
X0184374Y0018367D01*
X0184539Y0018600D01*
X0184699Y0018836D01*
X0184852Y0019077D01*
X0185000Y0019321D01*
X0185141Y0019569D01*
X0185277Y0019820D01*
X0185407Y0020074D01*
X0185530Y0020332D01*
X0185647Y0020592D01*
X0185758Y0020855D01*
X0185862Y0021121D01*
X0185960Y0021389D01*
X0186052Y0021659D01*
X0186137Y0021932D01*
X0186215Y0022206D01*
X0186287Y0022482D01*
X0186352Y0022760D01*
X0186410Y0023040D01*
X0186461Y0023321D01*
X0186506Y0023602D01*
X0186544Y0023885D01*
X0186575Y0024169D01*
X0186599Y0024453D01*
X0186616Y0024738D01*
X0186627Y0025024D01*
X0186630Y0025309D01*
X0186630Y0088301D01*
X0170881Y0090270D02*
X0170883Y0090423D01*
X0170889Y0090577D01*
X0170899Y0090730D01*
X0170913Y0090882D01*
X0170931Y0091035D01*
X0170953Y0091186D01*
X0170978Y0091337D01*
X0171008Y0091488D01*
X0171042Y0091638D01*
X0171079Y0091786D01*
X0171120Y0091934D01*
X0171165Y0092080D01*
X0171214Y0092226D01*
X0171267Y0092370D01*
X0171323Y0092512D01*
X0171383Y0092653D01*
X0171447Y0092793D01*
X0171514Y0092931D01*
X0171585Y0093067D01*
X0171660Y0093201D01*
X0171737Y0093333D01*
X0171819Y0093463D01*
X0171903Y0093591D01*
X0171991Y0093717D01*
X0172082Y0093840D01*
X0172176Y0093961D01*
X0172274Y0094079D01*
X0172374Y0094195D01*
X0172478Y0094308D01*
X0172584Y0094419D01*
X0172693Y0094527D01*
X0172805Y0094632D01*
X0172919Y0094733D01*
X0173037Y0094832D01*
X0173156Y0094928D01*
X0173278Y0095021D01*
X0173403Y0095110D01*
X0173530Y0095197D01*
X0173659Y0095279D01*
X0173790Y0095359D01*
X0173923Y0095435D01*
X0174058Y0095508D01*
X0174195Y0095577D01*
X0174334Y0095642D01*
X0174474Y0095704D01*
X0174616Y0095762D01*
X0174759Y0095817D01*
X0174904Y0095868D01*
X0175050Y0095915D01*
X0175197Y0095958D01*
X0175345Y0095997D01*
X0175494Y0096033D01*
X0175644Y0096064D01*
X0175795Y0096092D01*
X0175946Y0096116D01*
X0176099Y0096136D01*
X0176251Y0096152D01*
X0176404Y0096164D01*
X0176557Y0096172D01*
X0176710Y0096176D01*
X0176864Y0096176D01*
X0177017Y0096172D01*
X0177170Y0096164D01*
X0177323Y0096152D01*
X0177475Y0096136D01*
X0177628Y0096116D01*
X0177779Y0096092D01*
X0177930Y0096064D01*
X0178080Y0096033D01*
X0178229Y0095997D01*
X0178377Y0095958D01*
X0178524Y0095915D01*
X0178670Y0095868D01*
X0178815Y0095817D01*
X0178958Y0095762D01*
X0179100Y0095704D01*
X0179240Y0095642D01*
X0179379Y0095577D01*
X0179516Y0095508D01*
X0179651Y0095435D01*
X0179784Y0095359D01*
X0179915Y0095279D01*
X0180044Y0095197D01*
X0180171Y0095110D01*
X0180296Y0095021D01*
X0180418Y0094928D01*
X0180537Y0094832D01*
X0180655Y0094733D01*
X0180769Y0094632D01*
X0180881Y0094527D01*
X0180990Y0094419D01*
X0181096Y0094308D01*
X0181200Y0094195D01*
X0181300Y0094079D01*
X0181398Y0093961D01*
X0181492Y0093840D01*
X0181583Y0093717D01*
X0181671Y0093591D01*
X0181755Y0093463D01*
X0181837Y0093333D01*
X0181914Y0093201D01*
X0181989Y0093067D01*
X0182060Y0092931D01*
X0182127Y0092793D01*
X0182191Y0092653D01*
X0182251Y0092512D01*
X0182307Y0092370D01*
X0182360Y0092226D01*
X0182409Y0092080D01*
X0182454Y0091934D01*
X0182495Y0091786D01*
X0182532Y0091638D01*
X0182566Y0091488D01*
X0182596Y0091337D01*
X0182621Y0091186D01*
X0182643Y0091035D01*
X0182661Y0090882D01*
X0182675Y0090730D01*
X0182685Y0090577D01*
X0182691Y0090423D01*
X0182693Y0090270D01*
X0182691Y0090117D01*
X0182685Y0089963D01*
X0182675Y0089810D01*
X0182661Y0089658D01*
X0182643Y0089505D01*
X0182621Y0089354D01*
X0182596Y0089203D01*
X0182566Y0089052D01*
X0182532Y0088902D01*
X0182495Y0088754D01*
X0182454Y0088606D01*
X0182409Y0088460D01*
X0182360Y0088314D01*
X0182307Y0088170D01*
X0182251Y0088028D01*
X0182191Y0087887D01*
X0182127Y0087747D01*
X0182060Y0087609D01*
X0181989Y0087473D01*
X0181914Y0087339D01*
X0181837Y0087207D01*
X0181755Y0087077D01*
X0181671Y0086949D01*
X0181583Y0086823D01*
X0181492Y0086700D01*
X0181398Y0086579D01*
X0181300Y0086461D01*
X0181200Y0086345D01*
X0181096Y0086232D01*
X0180990Y0086121D01*
X0180881Y0086013D01*
X0180769Y0085908D01*
X0180655Y0085807D01*
X0180537Y0085708D01*
X0180418Y0085612D01*
X0180296Y0085519D01*
X0180171Y0085430D01*
X0180044Y0085343D01*
X0179915Y0085261D01*
X0179784Y0085181D01*
X0179651Y0085105D01*
X0179516Y0085032D01*
X0179379Y0084963D01*
X0179240Y0084898D01*
X0179100Y0084836D01*
X0178958Y0084778D01*
X0178815Y0084723D01*
X0178670Y0084672D01*
X0178524Y0084625D01*
X0178377Y0084582D01*
X0178229Y0084543D01*
X0178080Y0084507D01*
X0177930Y0084476D01*
X0177779Y0084448D01*
X0177628Y0084424D01*
X0177475Y0084404D01*
X0177323Y0084388D01*
X0177170Y0084376D01*
X0177017Y0084368D01*
X0176864Y0084364D01*
X0176710Y0084364D01*
X0176557Y0084368D01*
X0176404Y0084376D01*
X0176251Y0084388D01*
X0176099Y0084404D01*
X0175946Y0084424D01*
X0175795Y0084448D01*
X0175644Y0084476D01*
X0175494Y0084507D01*
X0175345Y0084543D01*
X0175197Y0084582D01*
X0175050Y0084625D01*
X0174904Y0084672D01*
X0174759Y0084723D01*
X0174616Y0084778D01*
X0174474Y0084836D01*
X0174334Y0084898D01*
X0174195Y0084963D01*
X0174058Y0085032D01*
X0173923Y0085105D01*
X0173790Y0085181D01*
X0173659Y0085261D01*
X0173530Y0085343D01*
X0173403Y0085430D01*
X0173278Y0085519D01*
X0173156Y0085612D01*
X0173037Y0085708D01*
X0172919Y0085807D01*
X0172805Y0085908D01*
X0172693Y0086013D01*
X0172584Y0086121D01*
X0172478Y0086232D01*
X0172374Y0086345D01*
X0172274Y0086461D01*
X0172176Y0086579D01*
X0172082Y0086700D01*
X0171991Y0086823D01*
X0171903Y0086949D01*
X0171819Y0087077D01*
X0171737Y0087207D01*
X0171660Y0087339D01*
X0171585Y0087473D01*
X0171514Y0087609D01*
X0171447Y0087747D01*
X0171383Y0087887D01*
X0171323Y0088028D01*
X0171267Y0088170D01*
X0171214Y0088314D01*
X0171165Y0088460D01*
X0171120Y0088606D01*
X0171079Y0088754D01*
X0171042Y0088902D01*
X0171008Y0089052D01*
X0170978Y0089203D01*
X0170953Y0089354D01*
X0170931Y0089505D01*
X0170913Y0089658D01*
X0170899Y0089810D01*
X0170889Y0089963D01*
X0170883Y0090117D01*
X0170881Y0090270D01*
X0174819Y0100112D02*
X0175104Y0100109D01*
X0175390Y0100098D01*
X0175675Y0100081D01*
X0175959Y0100057D01*
X0176243Y0100026D01*
X0176526Y0099988D01*
X0176807Y0099943D01*
X0177088Y0099892D01*
X0177368Y0099834D01*
X0177646Y0099769D01*
X0177922Y0099697D01*
X0178196Y0099619D01*
X0178469Y0099534D01*
X0178739Y0099442D01*
X0179007Y0099344D01*
X0179273Y0099240D01*
X0179536Y0099129D01*
X0179796Y0099012D01*
X0180054Y0098889D01*
X0180308Y0098759D01*
X0180559Y0098623D01*
X0180807Y0098482D01*
X0181051Y0098334D01*
X0181292Y0098181D01*
X0181528Y0098021D01*
X0181761Y0097856D01*
X0181990Y0097686D01*
X0182215Y0097510D01*
X0182435Y0097328D01*
X0182651Y0097142D01*
X0182862Y0096950D01*
X0183069Y0096753D01*
X0183271Y0096551D01*
X0183468Y0096344D01*
X0183660Y0096133D01*
X0183846Y0095917D01*
X0184028Y0095697D01*
X0184204Y0095472D01*
X0184374Y0095243D01*
X0184539Y0095010D01*
X0184699Y0094774D01*
X0184852Y0094533D01*
X0185000Y0094289D01*
X0185141Y0094041D01*
X0185277Y0093790D01*
X0185407Y0093536D01*
X0185530Y0093278D01*
X0185647Y0093018D01*
X0185758Y0092755D01*
X0185862Y0092489D01*
X0185960Y0092221D01*
X0186052Y0091951D01*
X0186137Y0091678D01*
X0186215Y0091404D01*
X0186287Y0091128D01*
X0186352Y0090850D01*
X0186410Y0090570D01*
X0186461Y0090289D01*
X0186506Y0090008D01*
X0186544Y0089725D01*
X0186575Y0089441D01*
X0186599Y0089157D01*
X0186616Y0088872D01*
X0186627Y0088586D01*
X0186630Y0088301D01*
X0174819Y0100112D02*
X0017339Y0100112D01*
X0009464Y0090270D02*
X0009466Y0090423D01*
X0009472Y0090577D01*
X0009482Y0090730D01*
X0009496Y0090882D01*
X0009514Y0091035D01*
X0009536Y0091186D01*
X0009561Y0091337D01*
X0009591Y0091488D01*
X0009625Y0091638D01*
X0009662Y0091786D01*
X0009703Y0091934D01*
X0009748Y0092080D01*
X0009797Y0092226D01*
X0009850Y0092370D01*
X0009906Y0092512D01*
X0009966Y0092653D01*
X0010030Y0092793D01*
X0010097Y0092931D01*
X0010168Y0093067D01*
X0010243Y0093201D01*
X0010320Y0093333D01*
X0010402Y0093463D01*
X0010486Y0093591D01*
X0010574Y0093717D01*
X0010665Y0093840D01*
X0010759Y0093961D01*
X0010857Y0094079D01*
X0010957Y0094195D01*
X0011061Y0094308D01*
X0011167Y0094419D01*
X0011276Y0094527D01*
X0011388Y0094632D01*
X0011502Y0094733D01*
X0011620Y0094832D01*
X0011739Y0094928D01*
X0011861Y0095021D01*
X0011986Y0095110D01*
X0012113Y0095197D01*
X0012242Y0095279D01*
X0012373Y0095359D01*
X0012506Y0095435D01*
X0012641Y0095508D01*
X0012778Y0095577D01*
X0012917Y0095642D01*
X0013057Y0095704D01*
X0013199Y0095762D01*
X0013342Y0095817D01*
X0013487Y0095868D01*
X0013633Y0095915D01*
X0013780Y0095958D01*
X0013928Y0095997D01*
X0014077Y0096033D01*
X0014227Y0096064D01*
X0014378Y0096092D01*
X0014529Y0096116D01*
X0014682Y0096136D01*
X0014834Y0096152D01*
X0014987Y0096164D01*
X0015140Y0096172D01*
X0015293Y0096176D01*
X0015447Y0096176D01*
X0015600Y0096172D01*
X0015753Y0096164D01*
X0015906Y0096152D01*
X0016058Y0096136D01*
X0016211Y0096116D01*
X0016362Y0096092D01*
X0016513Y0096064D01*
X0016663Y0096033D01*
X0016812Y0095997D01*
X0016960Y0095958D01*
X0017107Y0095915D01*
X0017253Y0095868D01*
X0017398Y0095817D01*
X0017541Y0095762D01*
X0017683Y0095704D01*
X0017823Y0095642D01*
X0017962Y0095577D01*
X0018099Y0095508D01*
X0018234Y0095435D01*
X0018367Y0095359D01*
X0018498Y0095279D01*
X0018627Y0095197D01*
X0018754Y0095110D01*
X0018879Y0095021D01*
X0019001Y0094928D01*
X0019120Y0094832D01*
X0019238Y0094733D01*
X0019352Y0094632D01*
X0019464Y0094527D01*
X0019573Y0094419D01*
X0019679Y0094308D01*
X0019783Y0094195D01*
X0019883Y0094079D01*
X0019981Y0093961D01*
X0020075Y0093840D01*
X0020166Y0093717D01*
X0020254Y0093591D01*
X0020338Y0093463D01*
X0020420Y0093333D01*
X0020497Y0093201D01*
X0020572Y0093067D01*
X0020643Y0092931D01*
X0020710Y0092793D01*
X0020774Y0092653D01*
X0020834Y0092512D01*
X0020890Y0092370D01*
X0020943Y0092226D01*
X0020992Y0092080D01*
X0021037Y0091934D01*
X0021078Y0091786D01*
X0021115Y0091638D01*
X0021149Y0091488D01*
X0021179Y0091337D01*
X0021204Y0091186D01*
X0021226Y0091035D01*
X0021244Y0090882D01*
X0021258Y0090730D01*
X0021268Y0090577D01*
X0021274Y0090423D01*
X0021276Y0090270D01*
X0021274Y0090117D01*
X0021268Y0089963D01*
X0021258Y0089810D01*
X0021244Y0089658D01*
X0021226Y0089505D01*
X0021204Y0089354D01*
X0021179Y0089203D01*
X0021149Y0089052D01*
X0021115Y0088902D01*
X0021078Y0088754D01*
X0021037Y0088606D01*
X0020992Y0088460D01*
X0020943Y0088314D01*
X0020890Y0088170D01*
X0020834Y0088028D01*
X0020774Y0087887D01*
X0020710Y0087747D01*
X0020643Y0087609D01*
X0020572Y0087473D01*
X0020497Y0087339D01*
X0020420Y0087207D01*
X0020338Y0087077D01*
X0020254Y0086949D01*
X0020166Y0086823D01*
X0020075Y0086700D01*
X0019981Y0086579D01*
X0019883Y0086461D01*
X0019783Y0086345D01*
X0019679Y0086232D01*
X0019573Y0086121D01*
X0019464Y0086013D01*
X0019352Y0085908D01*
X0019238Y0085807D01*
X0019120Y0085708D01*
X0019001Y0085612D01*
X0018879Y0085519D01*
X0018754Y0085430D01*
X0018627Y0085343D01*
X0018498Y0085261D01*
X0018367Y0085181D01*
X0018234Y0085105D01*
X0018099Y0085032D01*
X0017962Y0084963D01*
X0017823Y0084898D01*
X0017683Y0084836D01*
X0017541Y0084778D01*
X0017398Y0084723D01*
X0017253Y0084672D01*
X0017107Y0084625D01*
X0016960Y0084582D01*
X0016812Y0084543D01*
X0016663Y0084507D01*
X0016513Y0084476D01*
X0016362Y0084448D01*
X0016211Y0084424D01*
X0016058Y0084404D01*
X0015906Y0084388D01*
X0015753Y0084376D01*
X0015600Y0084368D01*
X0015447Y0084364D01*
X0015293Y0084364D01*
X0015140Y0084368D01*
X0014987Y0084376D01*
X0014834Y0084388D01*
X0014682Y0084404D01*
X0014529Y0084424D01*
X0014378Y0084448D01*
X0014227Y0084476D01*
X0014077Y0084507D01*
X0013928Y0084543D01*
X0013780Y0084582D01*
X0013633Y0084625D01*
X0013487Y0084672D01*
X0013342Y0084723D01*
X0013199Y0084778D01*
X0013057Y0084836D01*
X0012917Y0084898D01*
X0012778Y0084963D01*
X0012641Y0085032D01*
X0012506Y0085105D01*
X0012373Y0085181D01*
X0012242Y0085261D01*
X0012113Y0085343D01*
X0011986Y0085430D01*
X0011861Y0085519D01*
X0011739Y0085612D01*
X0011620Y0085708D01*
X0011502Y0085807D01*
X0011388Y0085908D01*
X0011276Y0086013D01*
X0011167Y0086121D01*
X0011061Y0086232D01*
X0010957Y0086345D01*
X0010857Y0086461D01*
X0010759Y0086579D01*
X0010665Y0086700D01*
X0010574Y0086823D01*
X0010486Y0086949D01*
X0010402Y0087077D01*
X0010320Y0087207D01*
X0010243Y0087339D01*
X0010168Y0087473D01*
X0010097Y0087609D01*
X0010030Y0087747D01*
X0009966Y0087887D01*
X0009906Y0088028D01*
X0009850Y0088170D01*
X0009797Y0088314D01*
X0009748Y0088460D01*
X0009703Y0088606D01*
X0009662Y0088754D01*
X0009625Y0088902D01*
X0009591Y0089052D01*
X0009561Y0089203D01*
X0009536Y0089354D01*
X0009514Y0089505D01*
X0009496Y0089658D01*
X0009482Y0089810D01*
X0009472Y0089963D01*
X0009466Y0090117D01*
X0009464Y0090270D01*
X0005528Y0088301D02*
X0005528Y0025309D01*
X0009464Y0023341D02*
X0009466Y0023494D01*
X0009472Y0023648D01*
X0009482Y0023801D01*
X0009496Y0023953D01*
X0009514Y0024106D01*
X0009536Y0024257D01*
X0009561Y0024408D01*
X0009591Y0024559D01*
X0009625Y0024709D01*
X0009662Y0024857D01*
X0009703Y0025005D01*
X0009748Y0025151D01*
X0009797Y0025297D01*
X0009850Y0025441D01*
X0009906Y0025583D01*
X0009966Y0025724D01*
X0010030Y0025864D01*
X0010097Y0026002D01*
X0010168Y0026138D01*
X0010243Y0026272D01*
X0010320Y0026404D01*
X0010402Y0026534D01*
X0010486Y0026662D01*
X0010574Y0026788D01*
X0010665Y0026911D01*
X0010759Y0027032D01*
X0010857Y0027150D01*
X0010957Y0027266D01*
X0011061Y0027379D01*
X0011167Y0027490D01*
X0011276Y0027598D01*
X0011388Y0027703D01*
X0011502Y0027804D01*
X0011620Y0027903D01*
X0011739Y0027999D01*
X0011861Y0028092D01*
X0011986Y0028181D01*
X0012113Y0028268D01*
X0012242Y0028350D01*
X0012373Y0028430D01*
X0012506Y0028506D01*
X0012641Y0028579D01*
X0012778Y0028648D01*
X0012917Y0028713D01*
X0013057Y0028775D01*
X0013199Y0028833D01*
X0013342Y0028888D01*
X0013487Y0028939D01*
X0013633Y0028986D01*
X0013780Y0029029D01*
X0013928Y0029068D01*
X0014077Y0029104D01*
X0014227Y0029135D01*
X0014378Y0029163D01*
X0014529Y0029187D01*
X0014682Y0029207D01*
X0014834Y0029223D01*
X0014987Y0029235D01*
X0015140Y0029243D01*
X0015293Y0029247D01*
X0015447Y0029247D01*
X0015600Y0029243D01*
X0015753Y0029235D01*
X0015906Y0029223D01*
X0016058Y0029207D01*
X0016211Y0029187D01*
X0016362Y0029163D01*
X0016513Y0029135D01*
X0016663Y0029104D01*
X0016812Y0029068D01*
X0016960Y0029029D01*
X0017107Y0028986D01*
X0017253Y0028939D01*
X0017398Y0028888D01*
X0017541Y0028833D01*
X0017683Y0028775D01*
X0017823Y0028713D01*
X0017962Y0028648D01*
X0018099Y0028579D01*
X0018234Y0028506D01*
X0018367Y0028430D01*
X0018498Y0028350D01*
X0018627Y0028268D01*
X0018754Y0028181D01*
X0018879Y0028092D01*
X0019001Y0027999D01*
X0019120Y0027903D01*
X0019238Y0027804D01*
X0019352Y0027703D01*
X0019464Y0027598D01*
X0019573Y0027490D01*
X0019679Y0027379D01*
X0019783Y0027266D01*
X0019883Y0027150D01*
X0019981Y0027032D01*
X0020075Y0026911D01*
X0020166Y0026788D01*
X0020254Y0026662D01*
X0020338Y0026534D01*
X0020420Y0026404D01*
X0020497Y0026272D01*
X0020572Y0026138D01*
X0020643Y0026002D01*
X0020710Y0025864D01*
X0020774Y0025724D01*
X0020834Y0025583D01*
X0020890Y0025441D01*
X0020943Y0025297D01*
X0020992Y0025151D01*
X0021037Y0025005D01*
X0021078Y0024857D01*
X0021115Y0024709D01*
X0021149Y0024559D01*
X0021179Y0024408D01*
X0021204Y0024257D01*
X0021226Y0024106D01*
X0021244Y0023953D01*
X0021258Y0023801D01*
X0021268Y0023648D01*
X0021274Y0023494D01*
X0021276Y0023341D01*
X0021274Y0023188D01*
X0021268Y0023034D01*
X0021258Y0022881D01*
X0021244Y0022729D01*
X0021226Y0022576D01*
X0021204Y0022425D01*
X0021179Y0022274D01*
X0021149Y0022123D01*
X0021115Y0021973D01*
X0021078Y0021825D01*
X0021037Y0021677D01*
X0020992Y0021531D01*
X0020943Y0021385D01*
X0020890Y0021241D01*
X0020834Y0021099D01*
X0020774Y0020958D01*
X0020710Y0020818D01*
X0020643Y0020680D01*
X0020572Y0020544D01*
X0020497Y0020410D01*
X0020420Y0020278D01*
X0020338Y0020148D01*
X0020254Y0020020D01*
X0020166Y0019894D01*
X0020075Y0019771D01*
X0019981Y0019650D01*
X0019883Y0019532D01*
X0019783Y0019416D01*
X0019679Y0019303D01*
X0019573Y0019192D01*
X0019464Y0019084D01*
X0019352Y0018979D01*
X0019238Y0018878D01*
X0019120Y0018779D01*
X0019001Y0018683D01*
X0018879Y0018590D01*
X0018754Y0018501D01*
X0018627Y0018414D01*
X0018498Y0018332D01*
X0018367Y0018252D01*
X0018234Y0018176D01*
X0018099Y0018103D01*
X0017962Y0018034D01*
X0017823Y0017969D01*
X0017683Y0017907D01*
X0017541Y0017849D01*
X0017398Y0017794D01*
X0017253Y0017743D01*
X0017107Y0017696D01*
X0016960Y0017653D01*
X0016812Y0017614D01*
X0016663Y0017578D01*
X0016513Y0017547D01*
X0016362Y0017519D01*
X0016211Y0017495D01*
X0016058Y0017475D01*
X0015906Y0017459D01*
X0015753Y0017447D01*
X0015600Y0017439D01*
X0015447Y0017435D01*
X0015293Y0017435D01*
X0015140Y0017439D01*
X0014987Y0017447D01*
X0014834Y0017459D01*
X0014682Y0017475D01*
X0014529Y0017495D01*
X0014378Y0017519D01*
X0014227Y0017547D01*
X0014077Y0017578D01*
X0013928Y0017614D01*
X0013780Y0017653D01*
X0013633Y0017696D01*
X0013487Y0017743D01*
X0013342Y0017794D01*
X0013199Y0017849D01*
X0013057Y0017907D01*
X0012917Y0017969D01*
X0012778Y0018034D01*
X0012641Y0018103D01*
X0012506Y0018176D01*
X0012373Y0018252D01*
X0012242Y0018332D01*
X0012113Y0018414D01*
X0011986Y0018501D01*
X0011861Y0018590D01*
X0011739Y0018683D01*
X0011620Y0018779D01*
X0011502Y0018878D01*
X0011388Y0018979D01*
X0011276Y0019084D01*
X0011167Y0019192D01*
X0011061Y0019303D01*
X0010957Y0019416D01*
X0010857Y0019532D01*
X0010759Y0019650D01*
X0010665Y0019771D01*
X0010574Y0019894D01*
X0010486Y0020020D01*
X0010402Y0020148D01*
X0010320Y0020278D01*
X0010243Y0020410D01*
X0010168Y0020544D01*
X0010097Y0020680D01*
X0010030Y0020818D01*
X0009966Y0020958D01*
X0009906Y0021099D01*
X0009850Y0021241D01*
X0009797Y0021385D01*
X0009748Y0021531D01*
X0009703Y0021677D01*
X0009662Y0021825D01*
X0009625Y0021973D01*
X0009591Y0022123D01*
X0009561Y0022274D01*
X0009536Y0022425D01*
X0009514Y0022576D01*
X0009496Y0022729D01*
X0009482Y0022881D01*
X0009472Y0023034D01*
X0009466Y0023188D01*
X0009464Y0023341D01*
X0005528Y0025309D02*
X0005531Y0025024D01*
X0005542Y0024738D01*
X0005559Y0024453D01*
X0005583Y0024169D01*
X0005614Y0023885D01*
X0005652Y0023602D01*
X0005697Y0023321D01*
X0005748Y0023040D01*
X0005806Y0022760D01*
X0005871Y0022482D01*
X0005943Y0022206D01*
X0006021Y0021932D01*
X0006106Y0021659D01*
X0006198Y0021389D01*
X0006296Y0021121D01*
X0006400Y0020855D01*
X0006511Y0020592D01*
X0006628Y0020332D01*
X0006751Y0020074D01*
X0006881Y0019820D01*
X0007017Y0019569D01*
X0007158Y0019321D01*
X0007306Y0019077D01*
X0007459Y0018836D01*
X0007619Y0018600D01*
X0007784Y0018367D01*
X0007954Y0018138D01*
X0008130Y0017913D01*
X0008312Y0017693D01*
X0008498Y0017477D01*
X0008690Y0017266D01*
X0008887Y0017059D01*
X0009089Y0016857D01*
X0009296Y0016660D01*
X0009507Y0016468D01*
X0009723Y0016282D01*
X0009943Y0016100D01*
X0010168Y0015924D01*
X0010397Y0015754D01*
X0010630Y0015589D01*
X0010866Y0015429D01*
X0011107Y0015276D01*
X0011351Y0015128D01*
X0011599Y0014987D01*
X0011850Y0014851D01*
X0012104Y0014721D01*
X0012362Y0014598D01*
X0012622Y0014481D01*
X0012885Y0014370D01*
X0013151Y0014266D01*
X0013419Y0014168D01*
X0013689Y0014076D01*
X0013962Y0013991D01*
X0014236Y0013913D01*
X0014512Y0013841D01*
X0014790Y0013776D01*
X0015070Y0013718D01*
X0015351Y0013667D01*
X0015632Y0013622D01*
X0015915Y0013584D01*
X0016199Y0013553D01*
X0016483Y0013529D01*
X0016768Y0013512D01*
X0017054Y0013501D01*
X0017339Y0013498D01*
X0005528Y0088301D02*
X0005531Y0088586D01*
X0005542Y0088872D01*
X0005559Y0089157D01*
X0005583Y0089441D01*
X0005614Y0089725D01*
X0005652Y0090008D01*
X0005697Y0090289D01*
X0005748Y0090570D01*
X0005806Y0090850D01*
X0005871Y0091128D01*
X0005943Y0091404D01*
X0006021Y0091678D01*
X0006106Y0091951D01*
X0006198Y0092221D01*
X0006296Y0092489D01*
X0006400Y0092755D01*
X0006511Y0093018D01*
X0006628Y0093278D01*
X0006751Y0093536D01*
X0006881Y0093790D01*
X0007017Y0094041D01*
X0007158Y0094289D01*
X0007306Y0094533D01*
X0007459Y0094774D01*
X0007619Y0095010D01*
X0007784Y0095243D01*
X0007954Y0095472D01*
X0008130Y0095697D01*
X0008312Y0095917D01*
X0008498Y0096133D01*
X0008690Y0096344D01*
X0008887Y0096551D01*
X0009089Y0096753D01*
X0009296Y0096950D01*
X0009507Y0097142D01*
X0009723Y0097328D01*
X0009943Y0097510D01*
X0010168Y0097686D01*
X0010397Y0097856D01*
X0010630Y0098021D01*
X0010866Y0098181D01*
X0011107Y0098334D01*
X0011351Y0098482D01*
X0011599Y0098623D01*
X0011850Y0098759D01*
X0012104Y0098889D01*
X0012362Y0099012D01*
X0012622Y0099129D01*
X0012885Y0099240D01*
X0013151Y0099344D01*
X0013419Y0099442D01*
X0013689Y0099534D01*
X0013962Y0099619D01*
X0014236Y0099697D01*
X0014512Y0099769D01*
X0014790Y0099834D01*
X0015070Y0099892D01*
X0015351Y0099943D01*
X0015632Y0099988D01*
X0015915Y0100026D01*
X0016199Y0100057D01*
X0016483Y0100081D01*
X0016768Y0100098D01*
X0017054Y0100109D01*
X0017339Y0100112D01*
M02*
