G75*
%MOIN*%
%OFA0B0*%
%FSLAX25Y25*%
%IPPOS*%
%LPD*%
%AMOC8*
5,1,8,0,0,1.08239X$1,22.5*
%
%ADD10R,0.03937X0.04331*%
%ADD11R,0.01378X0.00906*%
%ADD12R,0.00906X0.01378*%
%ADD13R,0.05118X0.05906*%
%ADD14R,0.11811X0.06299*%
%ADD15R,0.21654X0.03937*%
%ADD16C,0.00800*%
%ADD17C,0.01987*%
%ADD18C,0.01000*%
%ADD19C,0.01600*%
%ADD20C,0.01969*%
%ADD21C,0.01200*%
D10*
X0064028Y0050152D03*
X0064028Y0056845D03*
X0064028Y0067652D03*
X0064028Y0074345D03*
X0077028Y0074345D03*
X0088528Y0074345D03*
X0099528Y0074345D03*
X0099528Y0067652D03*
X0088528Y0067652D03*
X0077028Y0067652D03*
X0095181Y0053998D03*
X0101874Y0053998D03*
X0101874Y0045498D03*
X0095181Y0045498D03*
D11*
X0085453Y0052959D03*
X0085453Y0054652D03*
X0085453Y0056345D03*
X0085453Y0058037D03*
X0073602Y0058037D03*
X0073602Y0056345D03*
X0073602Y0054652D03*
X0073602Y0052959D03*
D12*
X0073602Y0050636D03*
X0075295Y0050636D03*
X0076988Y0050636D03*
X0078681Y0050636D03*
X0080374Y0050636D03*
X0082067Y0050636D03*
X0083760Y0050636D03*
X0085453Y0050636D03*
X0085453Y0060360D03*
X0083760Y0060360D03*
X0082067Y0060360D03*
X0080374Y0060360D03*
X0078681Y0060360D03*
X0076988Y0060360D03*
X0075295Y0060360D03*
X0073602Y0060360D03*
D13*
X0076720Y0036498D03*
X0070028Y0036498D03*
X0063335Y0036498D03*
X0085335Y0036498D03*
X0092028Y0036498D03*
X0098720Y0036498D03*
D14*
X0029378Y0032376D03*
X0029378Y0079620D03*
D15*
X0020520Y0071746D03*
X0020520Y0063872D03*
X0020520Y0055998D03*
X0020520Y0048124D03*
X0020520Y0040250D03*
D16*
X0020772Y0039998D01*
X0050528Y0039998D01*
X0070028Y0036498D02*
X0070028Y0051498D01*
X0071488Y0052959D01*
X0073602Y0052959D01*
X0073602Y0054652D02*
X0069681Y0054652D01*
X0069028Y0053998D01*
X0064528Y0056345D02*
X0073602Y0056345D01*
X0075295Y0060360D02*
X0075295Y0061730D01*
X0073528Y0063498D01*
X0065528Y0063498D01*
X0064028Y0064998D01*
X0064028Y0067652D01*
X0064028Y0056845D02*
X0064528Y0056345D01*
X0073602Y0050636D02*
X0073602Y0043423D01*
X0075528Y0041498D01*
X0091528Y0041498D01*
X0092028Y0040998D01*
X0092028Y0036498D01*
X0090028Y0042998D02*
X0092528Y0045498D01*
X0095181Y0045498D01*
X0092028Y0047998D02*
X0092028Y0053498D01*
X0092528Y0053998D01*
X0095181Y0053998D01*
X0092028Y0047998D02*
X0088528Y0044498D01*
X0077528Y0044498D01*
X0076988Y0045037D01*
X0076988Y0050636D01*
X0075295Y0050636D02*
X0075295Y0044230D01*
X0076528Y0042998D01*
X0090028Y0042998D01*
X0082067Y0047537D02*
X0082028Y0047498D01*
X0082067Y0047537D02*
X0082067Y0050636D01*
X0046028Y0055998D02*
X0020520Y0055998D01*
D17*
X0046028Y0055998D03*
X0064028Y0045498D03*
X0050528Y0039998D03*
X0069028Y0053998D03*
X0082028Y0047498D03*
X0085528Y0047498D03*
X0081028Y0036498D03*
X0045528Y0071598D03*
X0069028Y0074498D03*
X0077028Y0078998D03*
X0088428Y0079398D03*
X0099528Y0079598D03*
D18*
X0099528Y0067652D02*
X0099528Y0065498D01*
X0097528Y0063498D01*
X0081528Y0063498D01*
X0080374Y0062345D01*
X0080374Y0060360D01*
X0082028Y0060321D02*
X0082028Y0057898D01*
X0082028Y0058628D01*
X0083760Y0060360D01*
X0085453Y0060360D02*
X0087465Y0060360D01*
X0088328Y0059498D01*
X0088328Y0057498D01*
X0088528Y0057298D01*
X0087574Y0056345D01*
X0085453Y0056345D01*
X0085453Y0054652D02*
X0087574Y0054652D01*
X0088428Y0053798D01*
X0087588Y0052959D01*
X0085453Y0052959D01*
X0088528Y0057298D02*
X0087788Y0058037D01*
X0085453Y0058037D01*
X0082067Y0060360D02*
X0082028Y0060321D01*
X0078681Y0060360D02*
X0076988Y0062053D01*
X0076988Y0067612D01*
X0077028Y0067652D01*
X0076988Y0062053D02*
X0076988Y0060360D01*
X0073602Y0060360D02*
X0072465Y0061498D01*
X0067528Y0061498D01*
X0064028Y0057998D01*
X0064028Y0056845D01*
X0069528Y0059498D02*
X0070988Y0058037D01*
X0073602Y0058037D01*
X0049528Y0057498D02*
X0049528Y0049498D01*
X0048154Y0048124D01*
X0020520Y0048124D01*
X0020520Y0071746D02*
X0025280Y0071746D01*
X0025528Y0071498D01*
X0064028Y0074345D02*
X0068874Y0074345D01*
X0069028Y0074498D01*
X0076720Y0036498D02*
X0081028Y0036498D01*
X0085335Y0036498D01*
D19*
X0055528Y0031498D02*
X0053528Y0033498D01*
X0053528Y0063872D01*
X0057000Y0063872D01*
X0057000Y0076971D01*
X0059528Y0079498D01*
X0070128Y0079498D01*
X0071828Y0077798D01*
X0071828Y0069198D01*
X0073528Y0067498D01*
X0076874Y0067498D01*
X0077028Y0067652D01*
X0088528Y0067652D01*
X0088528Y0074345D02*
X0088428Y0074445D01*
X0088428Y0079398D01*
X0099528Y0079598D02*
X0099528Y0074345D01*
X0077028Y0074345D02*
X0077028Y0078998D01*
X0057000Y0063872D02*
X0064028Y0056845D01*
X0053528Y0063872D02*
X0020520Y0063872D01*
X0025528Y0071498D02*
X0045428Y0071498D01*
X0045528Y0071598D01*
X0101874Y0053998D02*
X0101874Y0045498D01*
X0101528Y0045152D01*
X0101528Y0039498D01*
X0098720Y0036691D01*
X0098720Y0036498D01*
X0098720Y0032691D01*
X0097528Y0031498D01*
X0063528Y0031498D01*
X0055528Y0031498D01*
X0063335Y0031691D02*
X0063528Y0031498D01*
X0063335Y0031691D02*
X0063335Y0036498D01*
D20*
X0088428Y0053798D03*
X0088528Y0057298D03*
X0082028Y0057898D03*
X0069528Y0059498D03*
X0049528Y0057498D03*
D21*
X0064028Y0050152D02*
X0064028Y0045498D01*
M02*
