G75*
%MOIN*%
%OFA0B0*%
%FSLAX25Y25*%
%IPPOS*%
%LPD*%
%AMOC8*
5,1,8,0,0,1.08239X$1,22.5*
%
%ADD10C,0.00800*%
%ADD11C,0.01987*%
%ADD12C,0.01200*%
%ADD13C,0.01969*%
%ADD14C,0.01000*%
D10*
X0021914Y0028498D02*
X0021528Y0028884D01*
X0021528Y0083498D01*
X0113528Y0083498D01*
X0113528Y0028498D01*
X0021914Y0028498D01*
X0021742Y0028670D02*
X0113528Y0028670D01*
X0113528Y0029468D02*
X0021528Y0029468D01*
X0021528Y0030267D02*
X0113528Y0030267D01*
X0113528Y0031065D02*
X0021528Y0031065D01*
X0021528Y0031864D02*
X0113528Y0031864D01*
X0113528Y0032662D02*
X0021528Y0032662D01*
X0021528Y0033461D02*
X0113528Y0033461D01*
X0113528Y0034259D02*
X0021528Y0034259D01*
X0021528Y0035058D02*
X0079383Y0035058D01*
X0079282Y0035159D02*
X0079688Y0034753D01*
X0080186Y0034466D01*
X0080740Y0034317D01*
X0081027Y0034317D01*
X0081027Y0036498D01*
X0078846Y0036498D01*
X0078846Y0036211D01*
X0078995Y0035656D01*
X0079282Y0035159D01*
X0078941Y0035856D02*
X0021528Y0035856D01*
X0021528Y0036655D02*
X0078846Y0036655D01*
X0078846Y0036785D02*
X0078846Y0036498D01*
X0081027Y0036498D01*
X0081027Y0036498D01*
X0081028Y0036498D01*
X0081028Y0036498D01*
X0083209Y0036498D01*
X0083209Y0036211D01*
X0083060Y0035656D01*
X0082773Y0035159D01*
X0082367Y0034753D01*
X0081869Y0034466D01*
X0081315Y0034317D01*
X0081028Y0034317D01*
X0081028Y0036498D01*
X0083209Y0036498D01*
X0083209Y0036785D01*
X0083060Y0037340D01*
X0082773Y0037837D01*
X0082367Y0038243D01*
X0081869Y0038531D01*
X0081315Y0038679D01*
X0081028Y0038679D01*
X0081028Y0036498D01*
X0081027Y0036498D01*
X0081027Y0038679D01*
X0080740Y0038679D01*
X0080186Y0038531D01*
X0079688Y0038243D01*
X0079282Y0037837D01*
X0078995Y0037340D01*
X0078846Y0036785D01*
X0079061Y0037453D02*
X0021528Y0037453D01*
X0021528Y0038252D02*
X0049607Y0038252D01*
X0049746Y0038112D02*
X0051309Y0038112D01*
X0051902Y0038706D01*
X0078563Y0038706D01*
X0082563Y0042706D01*
X0083320Y0043463D01*
X0083320Y0046123D01*
X0083626Y0046430D01*
X0083782Y0046159D01*
X0084188Y0045753D01*
X0084686Y0045466D01*
X0085240Y0045317D01*
X0085527Y0045317D01*
X0085527Y0047498D01*
X0085528Y0047498D01*
X0085528Y0047498D01*
X0087709Y0047498D01*
X0087709Y0047211D01*
X0087560Y0046656D01*
X0087273Y0046159D01*
X0086867Y0045753D01*
X0086369Y0045466D01*
X0085815Y0045317D01*
X0085528Y0045317D01*
X0085528Y0047498D01*
X0087709Y0047498D01*
X0087709Y0047785D01*
X0087560Y0048340D01*
X0087273Y0048837D01*
X0086867Y0049243D01*
X0086369Y0049531D01*
X0085815Y0049679D01*
X0085528Y0049679D01*
X0085528Y0047498D01*
X0085527Y0047498D01*
X0085527Y0049679D01*
X0085240Y0049679D01*
X0084686Y0049531D01*
X0084188Y0049243D01*
X0083782Y0048837D01*
X0083626Y0048567D01*
X0082809Y0049384D01*
X0081246Y0049384D01*
X0080142Y0048279D01*
X0080142Y0046717D01*
X0080735Y0046123D01*
X0080735Y0044533D01*
X0077492Y0041290D01*
X0051902Y0041290D01*
X0051309Y0041884D01*
X0049746Y0041884D01*
X0048642Y0040779D01*
X0048642Y0039217D01*
X0049746Y0038112D01*
X0048808Y0039050D02*
X0021528Y0039050D01*
X0021528Y0039849D02*
X0048642Y0039849D01*
X0048642Y0040648D02*
X0021528Y0040648D01*
X0021528Y0041446D02*
X0049309Y0041446D01*
X0050528Y0039998D02*
X0078028Y0039998D01*
X0082028Y0043998D01*
X0082028Y0047498D01*
X0083433Y0046237D02*
X0083737Y0046237D01*
X0083320Y0045439D02*
X0084787Y0045439D01*
X0085527Y0045439D02*
X0085528Y0045439D01*
X0086268Y0045439D02*
X0113528Y0045439D01*
X0113528Y0046237D02*
X0087318Y0046237D01*
X0087662Y0047036D02*
X0113528Y0047036D01*
X0113528Y0047834D02*
X0087696Y0047834D01*
X0087391Y0048633D02*
X0113528Y0048633D01*
X0113528Y0049431D02*
X0086542Y0049431D01*
X0085528Y0049431D02*
X0085527Y0049431D01*
X0085527Y0048633D02*
X0085528Y0048633D01*
X0085527Y0047834D02*
X0085528Y0047834D01*
X0085527Y0047036D02*
X0085528Y0047036D01*
X0085527Y0046237D02*
X0085528Y0046237D01*
X0083320Y0044640D02*
X0113528Y0044640D01*
X0113528Y0043842D02*
X0083320Y0043842D01*
X0082900Y0043043D02*
X0113528Y0043043D01*
X0113528Y0042245D02*
X0082101Y0042245D01*
X0081303Y0041446D02*
X0113528Y0041446D01*
X0113528Y0040648D02*
X0080504Y0040648D01*
X0079706Y0039849D02*
X0113528Y0039849D01*
X0113528Y0039050D02*
X0078907Y0039050D01*
X0079703Y0038252D02*
X0051448Y0038252D01*
X0051747Y0041446D02*
X0077648Y0041446D01*
X0078447Y0042245D02*
X0021528Y0042245D01*
X0021528Y0043043D02*
X0079245Y0043043D01*
X0080044Y0043842D02*
X0065456Y0043842D01*
X0065367Y0043753D02*
X0065773Y0044159D01*
X0066060Y0044656D01*
X0066209Y0045211D01*
X0066209Y0045498D01*
X0064028Y0045498D01*
X0064028Y0045498D01*
X0066209Y0045498D01*
X0066209Y0045785D01*
X0066060Y0046340D01*
X0065773Y0046837D01*
X0065367Y0047243D01*
X0064869Y0047531D01*
X0064315Y0047679D01*
X0064028Y0047679D01*
X0064028Y0045498D01*
X0064028Y0043317D01*
X0064315Y0043317D01*
X0064869Y0043466D01*
X0065367Y0043753D01*
X0066051Y0044640D02*
X0080735Y0044640D01*
X0080735Y0045439D02*
X0066209Y0045439D01*
X0066088Y0046237D02*
X0080622Y0046237D01*
X0080142Y0047036D02*
X0065575Y0047036D01*
X0064028Y0047036D02*
X0064027Y0047036D01*
X0064027Y0047679D02*
X0063740Y0047679D01*
X0063186Y0047531D01*
X0062688Y0047243D01*
X0062282Y0046837D01*
X0061995Y0046340D01*
X0061846Y0045785D01*
X0061846Y0045498D01*
X0061846Y0045211D01*
X0061995Y0044656D01*
X0062282Y0044159D01*
X0062688Y0043753D01*
X0063186Y0043466D01*
X0063740Y0043317D01*
X0064027Y0043317D01*
X0064027Y0045498D01*
X0061846Y0045498D01*
X0064027Y0045498D01*
X0064027Y0045498D01*
X0064028Y0045498D01*
X0064027Y0045498D01*
X0064027Y0047679D01*
X0062480Y0047036D02*
X0021528Y0047036D01*
X0021528Y0047834D02*
X0080142Y0047834D01*
X0080495Y0048633D02*
X0021528Y0048633D01*
X0021528Y0049431D02*
X0084513Y0049431D01*
X0083664Y0048633D02*
X0083560Y0048633D01*
X0087094Y0052060D02*
X0087589Y0051774D01*
X0088142Y0051626D01*
X0088427Y0051626D01*
X0088427Y0053798D01*
X0086256Y0053798D01*
X0086256Y0053512D01*
X0086404Y0052960D01*
X0086690Y0052465D01*
X0087094Y0052060D01*
X0087499Y0051827D02*
X0021528Y0051827D01*
X0021528Y0052625D02*
X0067734Y0052625D01*
X0067653Y0052706D02*
X0068246Y0052112D01*
X0069809Y0052112D01*
X0070913Y0053217D01*
X0070913Y0054779D01*
X0069809Y0055884D01*
X0068246Y0055884D01*
X0067653Y0055290D01*
X0048563Y0055290D01*
X0047913Y0055940D01*
X0047913Y0056459D01*
X0048750Y0055622D01*
X0050305Y0055622D01*
X0050789Y0056106D01*
X0068104Y0056106D01*
X0068920Y0056921D01*
X0069620Y0057622D01*
X0070305Y0057622D01*
X0071404Y0058721D01*
X0071404Y0060275D01*
X0070305Y0061374D01*
X0068750Y0061374D01*
X0067651Y0060275D01*
X0067651Y0059591D01*
X0066951Y0058890D01*
X0050789Y0058890D01*
X0050305Y0059374D01*
X0048750Y0059374D01*
X0047651Y0058275D01*
X0047651Y0057041D01*
X0046809Y0057884D01*
X0045246Y0057884D01*
X0044142Y0056779D01*
X0044142Y0055217D01*
X0045246Y0054112D01*
X0046086Y0054112D01*
X0047492Y0052706D01*
X0067653Y0052706D01*
X0069028Y0053998D02*
X0048028Y0053998D01*
X0046028Y0055998D01*
X0047276Y0057416D02*
X0047651Y0057416D01*
X0047651Y0058215D02*
X0021528Y0058215D01*
X0021528Y0059013D02*
X0048389Y0059013D01*
X0050666Y0059013D02*
X0067074Y0059013D01*
X0067651Y0059812D02*
X0021528Y0059812D01*
X0021528Y0060610D02*
X0067986Y0060610D01*
X0071069Y0060610D02*
X0113528Y0060610D01*
X0113528Y0059812D02*
X0083056Y0059812D01*
X0082866Y0059922D02*
X0082313Y0060070D01*
X0082028Y0060070D01*
X0082028Y0057898D01*
X0082028Y0057898D01*
X0084199Y0057898D01*
X0084199Y0057612D01*
X0084051Y0057060D01*
X0083765Y0056565D01*
X0083361Y0056160D01*
X0082866Y0055874D01*
X0082313Y0055726D01*
X0082028Y0055726D01*
X0082028Y0057898D01*
X0084199Y0057898D01*
X0084199Y0058184D01*
X0084051Y0058736D01*
X0083765Y0059232D01*
X0083361Y0059636D01*
X0082866Y0059922D01*
X0082028Y0059812D02*
X0082027Y0059812D01*
X0082027Y0060070D02*
X0081742Y0060070D01*
X0081189Y0059922D01*
X0080694Y0059636D01*
X0080290Y0059232D01*
X0080004Y0058736D01*
X0079856Y0058184D01*
X0079856Y0057898D01*
X0079856Y0057612D01*
X0080004Y0057060D01*
X0080290Y0056565D01*
X0080694Y0056160D01*
X0081189Y0055874D01*
X0081742Y0055726D01*
X0082027Y0055726D01*
X0082027Y0057898D01*
X0079856Y0057898D01*
X0082027Y0057898D01*
X0082027Y0057898D01*
X0082028Y0057898D01*
X0082027Y0057898D01*
X0082027Y0060070D01*
X0082027Y0059013D02*
X0082028Y0059013D01*
X0082027Y0058215D02*
X0082028Y0058215D01*
X0082027Y0057416D02*
X0082028Y0057416D01*
X0082027Y0056618D02*
X0082028Y0056618D01*
X0082027Y0055819D02*
X0082028Y0055819D01*
X0082660Y0055819D02*
X0086935Y0055819D01*
X0086790Y0055965D02*
X0087173Y0055581D01*
X0087094Y0055536D01*
X0086690Y0055132D01*
X0086404Y0054636D01*
X0086256Y0054084D01*
X0086256Y0053798D01*
X0088427Y0053798D01*
X0088427Y0053798D01*
X0088428Y0053798D01*
X0088428Y0053798D01*
X0090599Y0053798D01*
X0090599Y0053512D01*
X0090451Y0052960D01*
X0090165Y0052465D01*
X0089761Y0052060D01*
X0089266Y0051774D01*
X0088713Y0051626D01*
X0088428Y0051626D01*
X0088428Y0053798D01*
X0090599Y0053798D01*
X0090599Y0054084D01*
X0090451Y0054636D01*
X0090165Y0055132D01*
X0089782Y0055515D01*
X0089861Y0055560D01*
X0090265Y0055965D01*
X0090551Y0056460D01*
X0090699Y0057012D01*
X0090699Y0057298D01*
X0088528Y0057298D01*
X0088528Y0057298D01*
X0090699Y0057298D01*
X0090699Y0057584D01*
X0090551Y0058136D01*
X0090265Y0058632D01*
X0089861Y0059036D01*
X0089366Y0059322D01*
X0088813Y0059470D01*
X0088528Y0059470D01*
X0088528Y0057298D01*
X0088527Y0057298D01*
X0086356Y0057298D01*
X0086356Y0057012D01*
X0086504Y0056460D01*
X0086790Y0055965D01*
X0086462Y0056618D02*
X0083796Y0056618D01*
X0084147Y0057416D02*
X0086356Y0057416D01*
X0086356Y0057298D02*
X0088527Y0057298D01*
X0088527Y0057298D01*
X0088527Y0059470D01*
X0088242Y0059470D01*
X0087689Y0059322D01*
X0087194Y0059036D01*
X0086790Y0058632D01*
X0086504Y0058136D01*
X0086356Y0057584D01*
X0086356Y0057298D01*
X0086549Y0058215D02*
X0084191Y0058215D01*
X0083891Y0059013D02*
X0087172Y0059013D01*
X0088527Y0059013D02*
X0088528Y0059013D01*
X0088527Y0058215D02*
X0088528Y0058215D01*
X0088527Y0057416D02*
X0088528Y0057416D01*
X0090506Y0058215D02*
X0113528Y0058215D01*
X0113528Y0059013D02*
X0089884Y0059013D01*
X0090699Y0057416D02*
X0113528Y0057416D01*
X0113528Y0056618D02*
X0090593Y0056618D01*
X0090120Y0055819D02*
X0113528Y0055819D01*
X0113528Y0055021D02*
X0090229Y0055021D01*
X0090562Y0054222D02*
X0113528Y0054222D01*
X0113528Y0053424D02*
X0090575Y0053424D01*
X0090258Y0052625D02*
X0113528Y0052625D01*
X0113528Y0051827D02*
X0089356Y0051827D01*
X0088428Y0051827D02*
X0088427Y0051827D01*
X0088427Y0052625D02*
X0088428Y0052625D01*
X0088427Y0053424D02*
X0088428Y0053424D01*
X0086597Y0052625D02*
X0070322Y0052625D01*
X0070913Y0053424D02*
X0086280Y0053424D01*
X0086293Y0054222D02*
X0070913Y0054222D01*
X0070672Y0055021D02*
X0086626Y0055021D01*
X0081395Y0055819D02*
X0069873Y0055819D01*
X0068616Y0056618D02*
X0080259Y0056618D01*
X0079908Y0057416D02*
X0069414Y0057416D01*
X0070898Y0058215D02*
X0079864Y0058215D01*
X0080164Y0059013D02*
X0071404Y0059013D01*
X0071404Y0059812D02*
X0080999Y0059812D01*
X0068182Y0055819D02*
X0050502Y0055819D01*
X0048553Y0055819D02*
X0048034Y0055819D01*
X0045137Y0054222D02*
X0021528Y0054222D01*
X0021528Y0053424D02*
X0046775Y0053424D01*
X0044338Y0055021D02*
X0021528Y0055021D01*
X0021528Y0055819D02*
X0044142Y0055819D01*
X0044142Y0056618D02*
X0021528Y0056618D01*
X0021528Y0057416D02*
X0044779Y0057416D01*
X0061968Y0046237D02*
X0021528Y0046237D01*
X0021528Y0045439D02*
X0061846Y0045439D01*
X0062004Y0044640D02*
X0021528Y0044640D01*
X0021528Y0043842D02*
X0062600Y0043842D01*
X0064027Y0043842D02*
X0064028Y0043842D01*
X0064027Y0044640D02*
X0064028Y0044640D01*
X0064027Y0045439D02*
X0064028Y0045439D01*
X0064027Y0046237D02*
X0064028Y0046237D01*
X0081027Y0038252D02*
X0081028Y0038252D01*
X0081027Y0037453D02*
X0081028Y0037453D01*
X0081027Y0036655D02*
X0081028Y0036655D01*
X0081027Y0035856D02*
X0081028Y0035856D01*
X0081027Y0035058D02*
X0081028Y0035058D01*
X0082672Y0035058D02*
X0113528Y0035058D01*
X0113528Y0035856D02*
X0083114Y0035856D01*
X0083209Y0036655D02*
X0113528Y0036655D01*
X0113528Y0037453D02*
X0082995Y0037453D01*
X0082352Y0038252D02*
X0113528Y0038252D01*
X0113528Y0050230D02*
X0021528Y0050230D01*
X0021528Y0051028D02*
X0113528Y0051028D01*
X0113528Y0061409D02*
X0021528Y0061409D01*
X0021528Y0062207D02*
X0113528Y0062207D01*
X0113528Y0063006D02*
X0021528Y0063006D01*
X0021528Y0063804D02*
X0113528Y0063804D01*
X0113528Y0064603D02*
X0021528Y0064603D01*
X0021528Y0065401D02*
X0113528Y0065401D01*
X0113528Y0066200D02*
X0021528Y0066200D01*
X0021528Y0066998D02*
X0113528Y0066998D01*
X0113528Y0067797D02*
X0021528Y0067797D01*
X0021528Y0068595D02*
X0113528Y0068595D01*
X0113528Y0069394D02*
X0021528Y0069394D01*
X0021528Y0070192D02*
X0043849Y0070192D01*
X0043782Y0070259D02*
X0044188Y0069853D01*
X0044686Y0069566D01*
X0045240Y0069417D01*
X0045527Y0069417D01*
X0045527Y0071598D01*
X0043346Y0071598D01*
X0043346Y0071311D01*
X0043495Y0070756D01*
X0043782Y0070259D01*
X0043432Y0070991D02*
X0021528Y0070991D01*
X0021528Y0071789D02*
X0043346Y0071789D01*
X0043346Y0071885D02*
X0043346Y0071598D01*
X0045527Y0071598D01*
X0045527Y0071598D01*
X0045528Y0071598D01*
X0045528Y0071598D01*
X0047709Y0071598D01*
X0047709Y0071311D01*
X0047560Y0070756D01*
X0047273Y0070259D01*
X0046867Y0069853D01*
X0046369Y0069566D01*
X0045815Y0069417D01*
X0045528Y0069417D01*
X0045528Y0071598D01*
X0047709Y0071598D01*
X0047709Y0071885D01*
X0047560Y0072440D01*
X0047273Y0072937D01*
X0046867Y0073343D01*
X0046369Y0073631D01*
X0045815Y0073779D01*
X0045528Y0073779D01*
X0045528Y0071598D01*
X0045527Y0071598D01*
X0045527Y0073779D01*
X0045240Y0073779D01*
X0044686Y0073631D01*
X0044188Y0073343D01*
X0043782Y0072937D01*
X0043495Y0072440D01*
X0043346Y0071885D01*
X0043581Y0072588D02*
X0021528Y0072588D01*
X0021528Y0073386D02*
X0044263Y0073386D01*
X0045527Y0073386D02*
X0045528Y0073386D01*
X0045527Y0072588D02*
X0045528Y0072588D01*
X0045527Y0071789D02*
X0045528Y0071789D01*
X0045527Y0070991D02*
X0045528Y0070991D01*
X0045527Y0070192D02*
X0045528Y0070192D01*
X0047206Y0070192D02*
X0113528Y0070192D01*
X0113528Y0070991D02*
X0047623Y0070991D01*
X0047709Y0071789D02*
X0113528Y0071789D01*
X0113528Y0072588D02*
X0070081Y0072588D01*
X0069869Y0072466D02*
X0070367Y0072753D01*
X0070773Y0073159D01*
X0071060Y0073656D01*
X0071209Y0074211D01*
X0071209Y0074498D01*
X0069028Y0074498D01*
X0069028Y0074498D01*
X0071209Y0074498D01*
X0071209Y0074785D01*
X0071060Y0075340D01*
X0070773Y0075837D01*
X0070367Y0076243D01*
X0069869Y0076531D01*
X0069315Y0076679D01*
X0069028Y0076679D01*
X0069028Y0074498D01*
X0069028Y0072317D01*
X0069315Y0072317D01*
X0069869Y0072466D01*
X0069028Y0072588D02*
X0069027Y0072588D01*
X0069027Y0072317D02*
X0069027Y0074498D01*
X0066846Y0074498D01*
X0066846Y0074211D01*
X0066995Y0073656D01*
X0067282Y0073159D01*
X0067688Y0072753D01*
X0068186Y0072466D01*
X0068740Y0072317D01*
X0069027Y0072317D01*
X0069027Y0073386D02*
X0069028Y0073386D01*
X0069027Y0074185D02*
X0069028Y0074185D01*
X0069027Y0074498D02*
X0069028Y0074498D01*
X0069027Y0074498D01*
X0069027Y0074498D01*
X0066846Y0074498D01*
X0066846Y0074785D01*
X0066995Y0075340D01*
X0067282Y0075837D01*
X0067688Y0076243D01*
X0068186Y0076531D01*
X0068740Y0076679D01*
X0069027Y0076679D01*
X0069027Y0074498D01*
X0069027Y0074984D02*
X0069028Y0074984D01*
X0069027Y0075782D02*
X0069028Y0075782D01*
X0069027Y0076581D02*
X0069028Y0076581D01*
X0069683Y0076581D02*
X0113528Y0076581D01*
X0113528Y0077379D02*
X0089293Y0077379D01*
X0089269Y0077366D02*
X0089767Y0077653D01*
X0090173Y0078059D01*
X0090460Y0078556D01*
X0090609Y0079111D01*
X0090609Y0079398D01*
X0088428Y0079398D01*
X0088428Y0079398D01*
X0090609Y0079398D01*
X0090609Y0079685D01*
X0090460Y0080240D01*
X0090173Y0080737D01*
X0089767Y0081143D01*
X0089269Y0081431D01*
X0088715Y0081579D01*
X0088428Y0081579D01*
X0088428Y0079398D01*
X0088428Y0077217D01*
X0088715Y0077217D01*
X0089269Y0077366D01*
X0088428Y0077379D02*
X0088427Y0077379D01*
X0088427Y0077217D02*
X0088427Y0079398D01*
X0086246Y0079398D01*
X0086246Y0079111D01*
X0086395Y0078556D01*
X0086682Y0078059D01*
X0087088Y0077653D01*
X0087586Y0077366D01*
X0088140Y0077217D01*
X0088427Y0077217D01*
X0087563Y0077379D02*
X0078493Y0077379D01*
X0078367Y0077253D02*
X0078773Y0077659D01*
X0079060Y0078156D01*
X0079209Y0078711D01*
X0079209Y0078998D01*
X0077028Y0078998D01*
X0077028Y0078998D01*
X0079209Y0078998D01*
X0079209Y0079285D01*
X0079060Y0079840D01*
X0078773Y0080337D01*
X0078367Y0080743D01*
X0077869Y0081031D01*
X0077315Y0081179D01*
X0077028Y0081179D01*
X0077028Y0078998D01*
X0077028Y0076817D01*
X0077315Y0076817D01*
X0077869Y0076966D01*
X0078367Y0077253D01*
X0079066Y0078178D02*
X0086614Y0078178D01*
X0086283Y0078976D02*
X0079209Y0078976D01*
X0079078Y0079775D02*
X0086270Y0079775D01*
X0086246Y0079685D02*
X0086246Y0079398D01*
X0088427Y0079398D01*
X0088427Y0079398D01*
X0088428Y0079398D01*
X0088427Y0079398D01*
X0088427Y0081579D01*
X0088140Y0081579D01*
X0087586Y0081431D01*
X0087088Y0081143D01*
X0086682Y0080737D01*
X0086395Y0080240D01*
X0086246Y0079685D01*
X0086587Y0080573D02*
X0078537Y0080573D01*
X0077028Y0080573D02*
X0077027Y0080573D01*
X0077027Y0081179D02*
X0076740Y0081179D01*
X0076186Y0081031D01*
X0075688Y0080743D01*
X0075282Y0080337D01*
X0074995Y0079840D01*
X0074846Y0079285D01*
X0074846Y0078998D01*
X0074846Y0078711D01*
X0074995Y0078156D01*
X0075282Y0077659D01*
X0075688Y0077253D01*
X0076186Y0076966D01*
X0076740Y0076817D01*
X0077027Y0076817D01*
X0077027Y0078998D01*
X0074846Y0078998D01*
X0077027Y0078998D01*
X0077027Y0078998D01*
X0077028Y0078998D01*
X0077027Y0078998D01*
X0077027Y0081179D01*
X0075518Y0080573D02*
X0021528Y0080573D01*
X0021528Y0079775D02*
X0074978Y0079775D01*
X0074846Y0078976D02*
X0021528Y0078976D01*
X0021528Y0078178D02*
X0074989Y0078178D01*
X0075562Y0077379D02*
X0021528Y0077379D01*
X0021528Y0076581D02*
X0068372Y0076581D01*
X0067250Y0075782D02*
X0021528Y0075782D01*
X0021528Y0074984D02*
X0066900Y0074984D01*
X0066853Y0074185D02*
X0021528Y0074185D01*
X0021528Y0081372D02*
X0087484Y0081372D01*
X0088427Y0081372D02*
X0088428Y0081372D01*
X0088427Y0080573D02*
X0088428Y0080573D01*
X0088427Y0079775D02*
X0088428Y0079775D01*
X0088427Y0078976D02*
X0088428Y0078976D01*
X0088427Y0078178D02*
X0088428Y0078178D01*
X0090241Y0078178D02*
X0097864Y0078178D01*
X0097782Y0078259D02*
X0098188Y0077853D01*
X0098686Y0077566D01*
X0099240Y0077417D01*
X0099527Y0077417D01*
X0099527Y0079598D01*
X0097346Y0079598D01*
X0097346Y0079311D01*
X0097495Y0078756D01*
X0097782Y0078259D01*
X0097436Y0078976D02*
X0090572Y0078976D01*
X0090585Y0079775D02*
X0097346Y0079775D01*
X0097346Y0079885D02*
X0097346Y0079598D01*
X0099527Y0079598D01*
X0099527Y0079598D01*
X0099528Y0079598D01*
X0099528Y0079598D01*
X0101709Y0079598D01*
X0101709Y0079311D01*
X0101560Y0078756D01*
X0101273Y0078259D01*
X0100867Y0077853D01*
X0100369Y0077566D01*
X0099815Y0077417D01*
X0099528Y0077417D01*
X0099528Y0079598D01*
X0101709Y0079598D01*
X0101709Y0079885D01*
X0101560Y0080440D01*
X0101273Y0080937D01*
X0100867Y0081343D01*
X0100369Y0081631D01*
X0099815Y0081779D01*
X0099528Y0081779D01*
X0099528Y0079598D01*
X0099527Y0079598D01*
X0099527Y0081779D01*
X0099240Y0081779D01*
X0098686Y0081631D01*
X0098188Y0081343D01*
X0097782Y0080937D01*
X0097495Y0080440D01*
X0097346Y0079885D01*
X0097572Y0080573D02*
X0090268Y0080573D01*
X0089372Y0081372D02*
X0098237Y0081372D01*
X0099527Y0081372D02*
X0099528Y0081372D01*
X0099527Y0080573D02*
X0099528Y0080573D01*
X0099527Y0079775D02*
X0099528Y0079775D01*
X0099527Y0078976D02*
X0099528Y0078976D01*
X0099527Y0078178D02*
X0099528Y0078178D01*
X0101192Y0078178D02*
X0113528Y0078178D01*
X0113528Y0078976D02*
X0101619Y0078976D01*
X0101709Y0079775D02*
X0113528Y0079775D01*
X0113528Y0080573D02*
X0101483Y0080573D01*
X0100818Y0081372D02*
X0113528Y0081372D01*
X0113528Y0082170D02*
X0021528Y0082170D01*
X0021528Y0082969D02*
X0113528Y0082969D01*
X0113528Y0075782D02*
X0070805Y0075782D01*
X0071156Y0074984D02*
X0113528Y0074984D01*
X0113528Y0074185D02*
X0071202Y0074185D01*
X0070904Y0073386D02*
X0113528Y0073386D01*
X0077028Y0077379D02*
X0077027Y0077379D01*
X0077027Y0078178D02*
X0077028Y0078178D01*
X0077027Y0078976D02*
X0077028Y0078976D01*
X0077027Y0079775D02*
X0077028Y0079775D01*
X0067151Y0073386D02*
X0046792Y0073386D01*
X0047475Y0072588D02*
X0067974Y0072588D01*
D11*
X0069028Y0074498D03*
X0077028Y0078998D03*
X0088428Y0079398D03*
X0099528Y0079598D03*
X0069028Y0053998D03*
X0082028Y0047498D03*
X0085528Y0047498D03*
X0081028Y0036498D03*
X0064028Y0045498D03*
X0050528Y0039998D03*
X0046028Y0055998D03*
X0045528Y0071598D03*
D12*
X0069028Y0074498D02*
X0072528Y0074498D01*
X0077028Y0078998D01*
X0075028Y0050998D02*
X0084528Y0050998D01*
X0085528Y0049998D01*
X0085528Y0047498D01*
X0085528Y0040998D01*
X0081028Y0036498D01*
X0069528Y0045498D02*
X0075028Y0050998D01*
X0069528Y0045498D02*
X0064028Y0045498D01*
D13*
X0049528Y0057498D03*
X0069528Y0059498D03*
X0082028Y0057898D03*
X0088528Y0057298D03*
X0088428Y0053798D03*
D14*
X0069528Y0059498D02*
X0067528Y0057498D01*
X0049528Y0057498D01*
M02*
