G75*
%MOIN*%
%OFA0B0*%
%FSLAX25Y25*%
%IPPOS*%
%LPD*%
%AMOC8*
5,1,8,0,0,1.08239X$1,22.5*
%
%ADD10C,0.00000*%
%ADD11C,0.00700*%
%ADD12C,0.00400*%
%ADD13C,0.00800*%
%ADD14C,0.00787*%
%ADD15C,0.00300*%
%ADD16C,0.00600*%
%ADD17C,0.01000*%
%ADD18C,0.00500*%
D10*
X0017339Y0013498D02*
X0174819Y0013498D01*
X0170881Y0023341D02*
X0170883Y0023494D01*
X0170889Y0023648D01*
X0170899Y0023801D01*
X0170913Y0023953D01*
X0170931Y0024106D01*
X0170953Y0024257D01*
X0170978Y0024408D01*
X0171008Y0024559D01*
X0171042Y0024709D01*
X0171079Y0024857D01*
X0171120Y0025005D01*
X0171165Y0025151D01*
X0171214Y0025297D01*
X0171267Y0025441D01*
X0171323Y0025583D01*
X0171383Y0025724D01*
X0171447Y0025864D01*
X0171514Y0026002D01*
X0171585Y0026138D01*
X0171660Y0026272D01*
X0171737Y0026404D01*
X0171819Y0026534D01*
X0171903Y0026662D01*
X0171991Y0026788D01*
X0172082Y0026911D01*
X0172176Y0027032D01*
X0172274Y0027150D01*
X0172374Y0027266D01*
X0172478Y0027379D01*
X0172584Y0027490D01*
X0172693Y0027598D01*
X0172805Y0027703D01*
X0172919Y0027804D01*
X0173037Y0027903D01*
X0173156Y0027999D01*
X0173278Y0028092D01*
X0173403Y0028181D01*
X0173530Y0028268D01*
X0173659Y0028350D01*
X0173790Y0028430D01*
X0173923Y0028506D01*
X0174058Y0028579D01*
X0174195Y0028648D01*
X0174334Y0028713D01*
X0174474Y0028775D01*
X0174616Y0028833D01*
X0174759Y0028888D01*
X0174904Y0028939D01*
X0175050Y0028986D01*
X0175197Y0029029D01*
X0175345Y0029068D01*
X0175494Y0029104D01*
X0175644Y0029135D01*
X0175795Y0029163D01*
X0175946Y0029187D01*
X0176099Y0029207D01*
X0176251Y0029223D01*
X0176404Y0029235D01*
X0176557Y0029243D01*
X0176710Y0029247D01*
X0176864Y0029247D01*
X0177017Y0029243D01*
X0177170Y0029235D01*
X0177323Y0029223D01*
X0177475Y0029207D01*
X0177628Y0029187D01*
X0177779Y0029163D01*
X0177930Y0029135D01*
X0178080Y0029104D01*
X0178229Y0029068D01*
X0178377Y0029029D01*
X0178524Y0028986D01*
X0178670Y0028939D01*
X0178815Y0028888D01*
X0178958Y0028833D01*
X0179100Y0028775D01*
X0179240Y0028713D01*
X0179379Y0028648D01*
X0179516Y0028579D01*
X0179651Y0028506D01*
X0179784Y0028430D01*
X0179915Y0028350D01*
X0180044Y0028268D01*
X0180171Y0028181D01*
X0180296Y0028092D01*
X0180418Y0027999D01*
X0180537Y0027903D01*
X0180655Y0027804D01*
X0180769Y0027703D01*
X0180881Y0027598D01*
X0180990Y0027490D01*
X0181096Y0027379D01*
X0181200Y0027266D01*
X0181300Y0027150D01*
X0181398Y0027032D01*
X0181492Y0026911D01*
X0181583Y0026788D01*
X0181671Y0026662D01*
X0181755Y0026534D01*
X0181837Y0026404D01*
X0181914Y0026272D01*
X0181989Y0026138D01*
X0182060Y0026002D01*
X0182127Y0025864D01*
X0182191Y0025724D01*
X0182251Y0025583D01*
X0182307Y0025441D01*
X0182360Y0025297D01*
X0182409Y0025151D01*
X0182454Y0025005D01*
X0182495Y0024857D01*
X0182532Y0024709D01*
X0182566Y0024559D01*
X0182596Y0024408D01*
X0182621Y0024257D01*
X0182643Y0024106D01*
X0182661Y0023953D01*
X0182675Y0023801D01*
X0182685Y0023648D01*
X0182691Y0023494D01*
X0182693Y0023341D01*
X0182691Y0023188D01*
X0182685Y0023034D01*
X0182675Y0022881D01*
X0182661Y0022729D01*
X0182643Y0022576D01*
X0182621Y0022425D01*
X0182596Y0022274D01*
X0182566Y0022123D01*
X0182532Y0021973D01*
X0182495Y0021825D01*
X0182454Y0021677D01*
X0182409Y0021531D01*
X0182360Y0021385D01*
X0182307Y0021241D01*
X0182251Y0021099D01*
X0182191Y0020958D01*
X0182127Y0020818D01*
X0182060Y0020680D01*
X0181989Y0020544D01*
X0181914Y0020410D01*
X0181837Y0020278D01*
X0181755Y0020148D01*
X0181671Y0020020D01*
X0181583Y0019894D01*
X0181492Y0019771D01*
X0181398Y0019650D01*
X0181300Y0019532D01*
X0181200Y0019416D01*
X0181096Y0019303D01*
X0180990Y0019192D01*
X0180881Y0019084D01*
X0180769Y0018979D01*
X0180655Y0018878D01*
X0180537Y0018779D01*
X0180418Y0018683D01*
X0180296Y0018590D01*
X0180171Y0018501D01*
X0180044Y0018414D01*
X0179915Y0018332D01*
X0179784Y0018252D01*
X0179651Y0018176D01*
X0179516Y0018103D01*
X0179379Y0018034D01*
X0179240Y0017969D01*
X0179100Y0017907D01*
X0178958Y0017849D01*
X0178815Y0017794D01*
X0178670Y0017743D01*
X0178524Y0017696D01*
X0178377Y0017653D01*
X0178229Y0017614D01*
X0178080Y0017578D01*
X0177930Y0017547D01*
X0177779Y0017519D01*
X0177628Y0017495D01*
X0177475Y0017475D01*
X0177323Y0017459D01*
X0177170Y0017447D01*
X0177017Y0017439D01*
X0176864Y0017435D01*
X0176710Y0017435D01*
X0176557Y0017439D01*
X0176404Y0017447D01*
X0176251Y0017459D01*
X0176099Y0017475D01*
X0175946Y0017495D01*
X0175795Y0017519D01*
X0175644Y0017547D01*
X0175494Y0017578D01*
X0175345Y0017614D01*
X0175197Y0017653D01*
X0175050Y0017696D01*
X0174904Y0017743D01*
X0174759Y0017794D01*
X0174616Y0017849D01*
X0174474Y0017907D01*
X0174334Y0017969D01*
X0174195Y0018034D01*
X0174058Y0018103D01*
X0173923Y0018176D01*
X0173790Y0018252D01*
X0173659Y0018332D01*
X0173530Y0018414D01*
X0173403Y0018501D01*
X0173278Y0018590D01*
X0173156Y0018683D01*
X0173037Y0018779D01*
X0172919Y0018878D01*
X0172805Y0018979D01*
X0172693Y0019084D01*
X0172584Y0019192D01*
X0172478Y0019303D01*
X0172374Y0019416D01*
X0172274Y0019532D01*
X0172176Y0019650D01*
X0172082Y0019771D01*
X0171991Y0019894D01*
X0171903Y0020020D01*
X0171819Y0020148D01*
X0171737Y0020278D01*
X0171660Y0020410D01*
X0171585Y0020544D01*
X0171514Y0020680D01*
X0171447Y0020818D01*
X0171383Y0020958D01*
X0171323Y0021099D01*
X0171267Y0021241D01*
X0171214Y0021385D01*
X0171165Y0021531D01*
X0171120Y0021677D01*
X0171079Y0021825D01*
X0171042Y0021973D01*
X0171008Y0022123D01*
X0170978Y0022274D01*
X0170953Y0022425D01*
X0170931Y0022576D01*
X0170913Y0022729D01*
X0170899Y0022881D01*
X0170889Y0023034D01*
X0170883Y0023188D01*
X0170881Y0023341D01*
X0174819Y0013498D02*
X0175104Y0013501D01*
X0175390Y0013512D01*
X0175675Y0013529D01*
X0175959Y0013553D01*
X0176243Y0013584D01*
X0176526Y0013622D01*
X0176807Y0013667D01*
X0177088Y0013718D01*
X0177368Y0013776D01*
X0177646Y0013841D01*
X0177922Y0013913D01*
X0178196Y0013991D01*
X0178469Y0014076D01*
X0178739Y0014168D01*
X0179007Y0014266D01*
X0179273Y0014370D01*
X0179536Y0014481D01*
X0179796Y0014598D01*
X0180054Y0014721D01*
X0180308Y0014851D01*
X0180559Y0014987D01*
X0180807Y0015128D01*
X0181051Y0015276D01*
X0181292Y0015429D01*
X0181528Y0015589D01*
X0181761Y0015754D01*
X0181990Y0015924D01*
X0182215Y0016100D01*
X0182435Y0016282D01*
X0182651Y0016468D01*
X0182862Y0016660D01*
X0183069Y0016857D01*
X0183271Y0017059D01*
X0183468Y0017266D01*
X0183660Y0017477D01*
X0183846Y0017693D01*
X0184028Y0017913D01*
X0184204Y0018138D01*
X0184374Y0018367D01*
X0184539Y0018600D01*
X0184699Y0018836D01*
X0184852Y0019077D01*
X0185000Y0019321D01*
X0185141Y0019569D01*
X0185277Y0019820D01*
X0185407Y0020074D01*
X0185530Y0020332D01*
X0185647Y0020592D01*
X0185758Y0020855D01*
X0185862Y0021121D01*
X0185960Y0021389D01*
X0186052Y0021659D01*
X0186137Y0021932D01*
X0186215Y0022206D01*
X0186287Y0022482D01*
X0186352Y0022760D01*
X0186410Y0023040D01*
X0186461Y0023321D01*
X0186506Y0023602D01*
X0186544Y0023885D01*
X0186575Y0024169D01*
X0186599Y0024453D01*
X0186616Y0024738D01*
X0186627Y0025024D01*
X0186630Y0025309D01*
X0186630Y0088301D01*
X0170881Y0090270D02*
X0170883Y0090423D01*
X0170889Y0090577D01*
X0170899Y0090730D01*
X0170913Y0090882D01*
X0170931Y0091035D01*
X0170953Y0091186D01*
X0170978Y0091337D01*
X0171008Y0091488D01*
X0171042Y0091638D01*
X0171079Y0091786D01*
X0171120Y0091934D01*
X0171165Y0092080D01*
X0171214Y0092226D01*
X0171267Y0092370D01*
X0171323Y0092512D01*
X0171383Y0092653D01*
X0171447Y0092793D01*
X0171514Y0092931D01*
X0171585Y0093067D01*
X0171660Y0093201D01*
X0171737Y0093333D01*
X0171819Y0093463D01*
X0171903Y0093591D01*
X0171991Y0093717D01*
X0172082Y0093840D01*
X0172176Y0093961D01*
X0172274Y0094079D01*
X0172374Y0094195D01*
X0172478Y0094308D01*
X0172584Y0094419D01*
X0172693Y0094527D01*
X0172805Y0094632D01*
X0172919Y0094733D01*
X0173037Y0094832D01*
X0173156Y0094928D01*
X0173278Y0095021D01*
X0173403Y0095110D01*
X0173530Y0095197D01*
X0173659Y0095279D01*
X0173790Y0095359D01*
X0173923Y0095435D01*
X0174058Y0095508D01*
X0174195Y0095577D01*
X0174334Y0095642D01*
X0174474Y0095704D01*
X0174616Y0095762D01*
X0174759Y0095817D01*
X0174904Y0095868D01*
X0175050Y0095915D01*
X0175197Y0095958D01*
X0175345Y0095997D01*
X0175494Y0096033D01*
X0175644Y0096064D01*
X0175795Y0096092D01*
X0175946Y0096116D01*
X0176099Y0096136D01*
X0176251Y0096152D01*
X0176404Y0096164D01*
X0176557Y0096172D01*
X0176710Y0096176D01*
X0176864Y0096176D01*
X0177017Y0096172D01*
X0177170Y0096164D01*
X0177323Y0096152D01*
X0177475Y0096136D01*
X0177628Y0096116D01*
X0177779Y0096092D01*
X0177930Y0096064D01*
X0178080Y0096033D01*
X0178229Y0095997D01*
X0178377Y0095958D01*
X0178524Y0095915D01*
X0178670Y0095868D01*
X0178815Y0095817D01*
X0178958Y0095762D01*
X0179100Y0095704D01*
X0179240Y0095642D01*
X0179379Y0095577D01*
X0179516Y0095508D01*
X0179651Y0095435D01*
X0179784Y0095359D01*
X0179915Y0095279D01*
X0180044Y0095197D01*
X0180171Y0095110D01*
X0180296Y0095021D01*
X0180418Y0094928D01*
X0180537Y0094832D01*
X0180655Y0094733D01*
X0180769Y0094632D01*
X0180881Y0094527D01*
X0180990Y0094419D01*
X0181096Y0094308D01*
X0181200Y0094195D01*
X0181300Y0094079D01*
X0181398Y0093961D01*
X0181492Y0093840D01*
X0181583Y0093717D01*
X0181671Y0093591D01*
X0181755Y0093463D01*
X0181837Y0093333D01*
X0181914Y0093201D01*
X0181989Y0093067D01*
X0182060Y0092931D01*
X0182127Y0092793D01*
X0182191Y0092653D01*
X0182251Y0092512D01*
X0182307Y0092370D01*
X0182360Y0092226D01*
X0182409Y0092080D01*
X0182454Y0091934D01*
X0182495Y0091786D01*
X0182532Y0091638D01*
X0182566Y0091488D01*
X0182596Y0091337D01*
X0182621Y0091186D01*
X0182643Y0091035D01*
X0182661Y0090882D01*
X0182675Y0090730D01*
X0182685Y0090577D01*
X0182691Y0090423D01*
X0182693Y0090270D01*
X0182691Y0090117D01*
X0182685Y0089963D01*
X0182675Y0089810D01*
X0182661Y0089658D01*
X0182643Y0089505D01*
X0182621Y0089354D01*
X0182596Y0089203D01*
X0182566Y0089052D01*
X0182532Y0088902D01*
X0182495Y0088754D01*
X0182454Y0088606D01*
X0182409Y0088460D01*
X0182360Y0088314D01*
X0182307Y0088170D01*
X0182251Y0088028D01*
X0182191Y0087887D01*
X0182127Y0087747D01*
X0182060Y0087609D01*
X0181989Y0087473D01*
X0181914Y0087339D01*
X0181837Y0087207D01*
X0181755Y0087077D01*
X0181671Y0086949D01*
X0181583Y0086823D01*
X0181492Y0086700D01*
X0181398Y0086579D01*
X0181300Y0086461D01*
X0181200Y0086345D01*
X0181096Y0086232D01*
X0180990Y0086121D01*
X0180881Y0086013D01*
X0180769Y0085908D01*
X0180655Y0085807D01*
X0180537Y0085708D01*
X0180418Y0085612D01*
X0180296Y0085519D01*
X0180171Y0085430D01*
X0180044Y0085343D01*
X0179915Y0085261D01*
X0179784Y0085181D01*
X0179651Y0085105D01*
X0179516Y0085032D01*
X0179379Y0084963D01*
X0179240Y0084898D01*
X0179100Y0084836D01*
X0178958Y0084778D01*
X0178815Y0084723D01*
X0178670Y0084672D01*
X0178524Y0084625D01*
X0178377Y0084582D01*
X0178229Y0084543D01*
X0178080Y0084507D01*
X0177930Y0084476D01*
X0177779Y0084448D01*
X0177628Y0084424D01*
X0177475Y0084404D01*
X0177323Y0084388D01*
X0177170Y0084376D01*
X0177017Y0084368D01*
X0176864Y0084364D01*
X0176710Y0084364D01*
X0176557Y0084368D01*
X0176404Y0084376D01*
X0176251Y0084388D01*
X0176099Y0084404D01*
X0175946Y0084424D01*
X0175795Y0084448D01*
X0175644Y0084476D01*
X0175494Y0084507D01*
X0175345Y0084543D01*
X0175197Y0084582D01*
X0175050Y0084625D01*
X0174904Y0084672D01*
X0174759Y0084723D01*
X0174616Y0084778D01*
X0174474Y0084836D01*
X0174334Y0084898D01*
X0174195Y0084963D01*
X0174058Y0085032D01*
X0173923Y0085105D01*
X0173790Y0085181D01*
X0173659Y0085261D01*
X0173530Y0085343D01*
X0173403Y0085430D01*
X0173278Y0085519D01*
X0173156Y0085612D01*
X0173037Y0085708D01*
X0172919Y0085807D01*
X0172805Y0085908D01*
X0172693Y0086013D01*
X0172584Y0086121D01*
X0172478Y0086232D01*
X0172374Y0086345D01*
X0172274Y0086461D01*
X0172176Y0086579D01*
X0172082Y0086700D01*
X0171991Y0086823D01*
X0171903Y0086949D01*
X0171819Y0087077D01*
X0171737Y0087207D01*
X0171660Y0087339D01*
X0171585Y0087473D01*
X0171514Y0087609D01*
X0171447Y0087747D01*
X0171383Y0087887D01*
X0171323Y0088028D01*
X0171267Y0088170D01*
X0171214Y0088314D01*
X0171165Y0088460D01*
X0171120Y0088606D01*
X0171079Y0088754D01*
X0171042Y0088902D01*
X0171008Y0089052D01*
X0170978Y0089203D01*
X0170953Y0089354D01*
X0170931Y0089505D01*
X0170913Y0089658D01*
X0170899Y0089810D01*
X0170889Y0089963D01*
X0170883Y0090117D01*
X0170881Y0090270D01*
X0174819Y0100112D02*
X0175104Y0100109D01*
X0175390Y0100098D01*
X0175675Y0100081D01*
X0175959Y0100057D01*
X0176243Y0100026D01*
X0176526Y0099988D01*
X0176807Y0099943D01*
X0177088Y0099892D01*
X0177368Y0099834D01*
X0177646Y0099769D01*
X0177922Y0099697D01*
X0178196Y0099619D01*
X0178469Y0099534D01*
X0178739Y0099442D01*
X0179007Y0099344D01*
X0179273Y0099240D01*
X0179536Y0099129D01*
X0179796Y0099012D01*
X0180054Y0098889D01*
X0180308Y0098759D01*
X0180559Y0098623D01*
X0180807Y0098482D01*
X0181051Y0098334D01*
X0181292Y0098181D01*
X0181528Y0098021D01*
X0181761Y0097856D01*
X0181990Y0097686D01*
X0182215Y0097510D01*
X0182435Y0097328D01*
X0182651Y0097142D01*
X0182862Y0096950D01*
X0183069Y0096753D01*
X0183271Y0096551D01*
X0183468Y0096344D01*
X0183660Y0096133D01*
X0183846Y0095917D01*
X0184028Y0095697D01*
X0184204Y0095472D01*
X0184374Y0095243D01*
X0184539Y0095010D01*
X0184699Y0094774D01*
X0184852Y0094533D01*
X0185000Y0094289D01*
X0185141Y0094041D01*
X0185277Y0093790D01*
X0185407Y0093536D01*
X0185530Y0093278D01*
X0185647Y0093018D01*
X0185758Y0092755D01*
X0185862Y0092489D01*
X0185960Y0092221D01*
X0186052Y0091951D01*
X0186137Y0091678D01*
X0186215Y0091404D01*
X0186287Y0091128D01*
X0186352Y0090850D01*
X0186410Y0090570D01*
X0186461Y0090289D01*
X0186506Y0090008D01*
X0186544Y0089725D01*
X0186575Y0089441D01*
X0186599Y0089157D01*
X0186616Y0088872D01*
X0186627Y0088586D01*
X0186630Y0088301D01*
X0174819Y0100112D02*
X0017339Y0100112D01*
X0009464Y0090270D02*
X0009466Y0090423D01*
X0009472Y0090577D01*
X0009482Y0090730D01*
X0009496Y0090882D01*
X0009514Y0091035D01*
X0009536Y0091186D01*
X0009561Y0091337D01*
X0009591Y0091488D01*
X0009625Y0091638D01*
X0009662Y0091786D01*
X0009703Y0091934D01*
X0009748Y0092080D01*
X0009797Y0092226D01*
X0009850Y0092370D01*
X0009906Y0092512D01*
X0009966Y0092653D01*
X0010030Y0092793D01*
X0010097Y0092931D01*
X0010168Y0093067D01*
X0010243Y0093201D01*
X0010320Y0093333D01*
X0010402Y0093463D01*
X0010486Y0093591D01*
X0010574Y0093717D01*
X0010665Y0093840D01*
X0010759Y0093961D01*
X0010857Y0094079D01*
X0010957Y0094195D01*
X0011061Y0094308D01*
X0011167Y0094419D01*
X0011276Y0094527D01*
X0011388Y0094632D01*
X0011502Y0094733D01*
X0011620Y0094832D01*
X0011739Y0094928D01*
X0011861Y0095021D01*
X0011986Y0095110D01*
X0012113Y0095197D01*
X0012242Y0095279D01*
X0012373Y0095359D01*
X0012506Y0095435D01*
X0012641Y0095508D01*
X0012778Y0095577D01*
X0012917Y0095642D01*
X0013057Y0095704D01*
X0013199Y0095762D01*
X0013342Y0095817D01*
X0013487Y0095868D01*
X0013633Y0095915D01*
X0013780Y0095958D01*
X0013928Y0095997D01*
X0014077Y0096033D01*
X0014227Y0096064D01*
X0014378Y0096092D01*
X0014529Y0096116D01*
X0014682Y0096136D01*
X0014834Y0096152D01*
X0014987Y0096164D01*
X0015140Y0096172D01*
X0015293Y0096176D01*
X0015447Y0096176D01*
X0015600Y0096172D01*
X0015753Y0096164D01*
X0015906Y0096152D01*
X0016058Y0096136D01*
X0016211Y0096116D01*
X0016362Y0096092D01*
X0016513Y0096064D01*
X0016663Y0096033D01*
X0016812Y0095997D01*
X0016960Y0095958D01*
X0017107Y0095915D01*
X0017253Y0095868D01*
X0017398Y0095817D01*
X0017541Y0095762D01*
X0017683Y0095704D01*
X0017823Y0095642D01*
X0017962Y0095577D01*
X0018099Y0095508D01*
X0018234Y0095435D01*
X0018367Y0095359D01*
X0018498Y0095279D01*
X0018627Y0095197D01*
X0018754Y0095110D01*
X0018879Y0095021D01*
X0019001Y0094928D01*
X0019120Y0094832D01*
X0019238Y0094733D01*
X0019352Y0094632D01*
X0019464Y0094527D01*
X0019573Y0094419D01*
X0019679Y0094308D01*
X0019783Y0094195D01*
X0019883Y0094079D01*
X0019981Y0093961D01*
X0020075Y0093840D01*
X0020166Y0093717D01*
X0020254Y0093591D01*
X0020338Y0093463D01*
X0020420Y0093333D01*
X0020497Y0093201D01*
X0020572Y0093067D01*
X0020643Y0092931D01*
X0020710Y0092793D01*
X0020774Y0092653D01*
X0020834Y0092512D01*
X0020890Y0092370D01*
X0020943Y0092226D01*
X0020992Y0092080D01*
X0021037Y0091934D01*
X0021078Y0091786D01*
X0021115Y0091638D01*
X0021149Y0091488D01*
X0021179Y0091337D01*
X0021204Y0091186D01*
X0021226Y0091035D01*
X0021244Y0090882D01*
X0021258Y0090730D01*
X0021268Y0090577D01*
X0021274Y0090423D01*
X0021276Y0090270D01*
X0021274Y0090117D01*
X0021268Y0089963D01*
X0021258Y0089810D01*
X0021244Y0089658D01*
X0021226Y0089505D01*
X0021204Y0089354D01*
X0021179Y0089203D01*
X0021149Y0089052D01*
X0021115Y0088902D01*
X0021078Y0088754D01*
X0021037Y0088606D01*
X0020992Y0088460D01*
X0020943Y0088314D01*
X0020890Y0088170D01*
X0020834Y0088028D01*
X0020774Y0087887D01*
X0020710Y0087747D01*
X0020643Y0087609D01*
X0020572Y0087473D01*
X0020497Y0087339D01*
X0020420Y0087207D01*
X0020338Y0087077D01*
X0020254Y0086949D01*
X0020166Y0086823D01*
X0020075Y0086700D01*
X0019981Y0086579D01*
X0019883Y0086461D01*
X0019783Y0086345D01*
X0019679Y0086232D01*
X0019573Y0086121D01*
X0019464Y0086013D01*
X0019352Y0085908D01*
X0019238Y0085807D01*
X0019120Y0085708D01*
X0019001Y0085612D01*
X0018879Y0085519D01*
X0018754Y0085430D01*
X0018627Y0085343D01*
X0018498Y0085261D01*
X0018367Y0085181D01*
X0018234Y0085105D01*
X0018099Y0085032D01*
X0017962Y0084963D01*
X0017823Y0084898D01*
X0017683Y0084836D01*
X0017541Y0084778D01*
X0017398Y0084723D01*
X0017253Y0084672D01*
X0017107Y0084625D01*
X0016960Y0084582D01*
X0016812Y0084543D01*
X0016663Y0084507D01*
X0016513Y0084476D01*
X0016362Y0084448D01*
X0016211Y0084424D01*
X0016058Y0084404D01*
X0015906Y0084388D01*
X0015753Y0084376D01*
X0015600Y0084368D01*
X0015447Y0084364D01*
X0015293Y0084364D01*
X0015140Y0084368D01*
X0014987Y0084376D01*
X0014834Y0084388D01*
X0014682Y0084404D01*
X0014529Y0084424D01*
X0014378Y0084448D01*
X0014227Y0084476D01*
X0014077Y0084507D01*
X0013928Y0084543D01*
X0013780Y0084582D01*
X0013633Y0084625D01*
X0013487Y0084672D01*
X0013342Y0084723D01*
X0013199Y0084778D01*
X0013057Y0084836D01*
X0012917Y0084898D01*
X0012778Y0084963D01*
X0012641Y0085032D01*
X0012506Y0085105D01*
X0012373Y0085181D01*
X0012242Y0085261D01*
X0012113Y0085343D01*
X0011986Y0085430D01*
X0011861Y0085519D01*
X0011739Y0085612D01*
X0011620Y0085708D01*
X0011502Y0085807D01*
X0011388Y0085908D01*
X0011276Y0086013D01*
X0011167Y0086121D01*
X0011061Y0086232D01*
X0010957Y0086345D01*
X0010857Y0086461D01*
X0010759Y0086579D01*
X0010665Y0086700D01*
X0010574Y0086823D01*
X0010486Y0086949D01*
X0010402Y0087077D01*
X0010320Y0087207D01*
X0010243Y0087339D01*
X0010168Y0087473D01*
X0010097Y0087609D01*
X0010030Y0087747D01*
X0009966Y0087887D01*
X0009906Y0088028D01*
X0009850Y0088170D01*
X0009797Y0088314D01*
X0009748Y0088460D01*
X0009703Y0088606D01*
X0009662Y0088754D01*
X0009625Y0088902D01*
X0009591Y0089052D01*
X0009561Y0089203D01*
X0009536Y0089354D01*
X0009514Y0089505D01*
X0009496Y0089658D01*
X0009482Y0089810D01*
X0009472Y0089963D01*
X0009466Y0090117D01*
X0009464Y0090270D01*
X0005528Y0088301D02*
X0005528Y0025309D01*
X0009464Y0023341D02*
X0009466Y0023494D01*
X0009472Y0023648D01*
X0009482Y0023801D01*
X0009496Y0023953D01*
X0009514Y0024106D01*
X0009536Y0024257D01*
X0009561Y0024408D01*
X0009591Y0024559D01*
X0009625Y0024709D01*
X0009662Y0024857D01*
X0009703Y0025005D01*
X0009748Y0025151D01*
X0009797Y0025297D01*
X0009850Y0025441D01*
X0009906Y0025583D01*
X0009966Y0025724D01*
X0010030Y0025864D01*
X0010097Y0026002D01*
X0010168Y0026138D01*
X0010243Y0026272D01*
X0010320Y0026404D01*
X0010402Y0026534D01*
X0010486Y0026662D01*
X0010574Y0026788D01*
X0010665Y0026911D01*
X0010759Y0027032D01*
X0010857Y0027150D01*
X0010957Y0027266D01*
X0011061Y0027379D01*
X0011167Y0027490D01*
X0011276Y0027598D01*
X0011388Y0027703D01*
X0011502Y0027804D01*
X0011620Y0027903D01*
X0011739Y0027999D01*
X0011861Y0028092D01*
X0011986Y0028181D01*
X0012113Y0028268D01*
X0012242Y0028350D01*
X0012373Y0028430D01*
X0012506Y0028506D01*
X0012641Y0028579D01*
X0012778Y0028648D01*
X0012917Y0028713D01*
X0013057Y0028775D01*
X0013199Y0028833D01*
X0013342Y0028888D01*
X0013487Y0028939D01*
X0013633Y0028986D01*
X0013780Y0029029D01*
X0013928Y0029068D01*
X0014077Y0029104D01*
X0014227Y0029135D01*
X0014378Y0029163D01*
X0014529Y0029187D01*
X0014682Y0029207D01*
X0014834Y0029223D01*
X0014987Y0029235D01*
X0015140Y0029243D01*
X0015293Y0029247D01*
X0015447Y0029247D01*
X0015600Y0029243D01*
X0015753Y0029235D01*
X0015906Y0029223D01*
X0016058Y0029207D01*
X0016211Y0029187D01*
X0016362Y0029163D01*
X0016513Y0029135D01*
X0016663Y0029104D01*
X0016812Y0029068D01*
X0016960Y0029029D01*
X0017107Y0028986D01*
X0017253Y0028939D01*
X0017398Y0028888D01*
X0017541Y0028833D01*
X0017683Y0028775D01*
X0017823Y0028713D01*
X0017962Y0028648D01*
X0018099Y0028579D01*
X0018234Y0028506D01*
X0018367Y0028430D01*
X0018498Y0028350D01*
X0018627Y0028268D01*
X0018754Y0028181D01*
X0018879Y0028092D01*
X0019001Y0027999D01*
X0019120Y0027903D01*
X0019238Y0027804D01*
X0019352Y0027703D01*
X0019464Y0027598D01*
X0019573Y0027490D01*
X0019679Y0027379D01*
X0019783Y0027266D01*
X0019883Y0027150D01*
X0019981Y0027032D01*
X0020075Y0026911D01*
X0020166Y0026788D01*
X0020254Y0026662D01*
X0020338Y0026534D01*
X0020420Y0026404D01*
X0020497Y0026272D01*
X0020572Y0026138D01*
X0020643Y0026002D01*
X0020710Y0025864D01*
X0020774Y0025724D01*
X0020834Y0025583D01*
X0020890Y0025441D01*
X0020943Y0025297D01*
X0020992Y0025151D01*
X0021037Y0025005D01*
X0021078Y0024857D01*
X0021115Y0024709D01*
X0021149Y0024559D01*
X0021179Y0024408D01*
X0021204Y0024257D01*
X0021226Y0024106D01*
X0021244Y0023953D01*
X0021258Y0023801D01*
X0021268Y0023648D01*
X0021274Y0023494D01*
X0021276Y0023341D01*
X0021274Y0023188D01*
X0021268Y0023034D01*
X0021258Y0022881D01*
X0021244Y0022729D01*
X0021226Y0022576D01*
X0021204Y0022425D01*
X0021179Y0022274D01*
X0021149Y0022123D01*
X0021115Y0021973D01*
X0021078Y0021825D01*
X0021037Y0021677D01*
X0020992Y0021531D01*
X0020943Y0021385D01*
X0020890Y0021241D01*
X0020834Y0021099D01*
X0020774Y0020958D01*
X0020710Y0020818D01*
X0020643Y0020680D01*
X0020572Y0020544D01*
X0020497Y0020410D01*
X0020420Y0020278D01*
X0020338Y0020148D01*
X0020254Y0020020D01*
X0020166Y0019894D01*
X0020075Y0019771D01*
X0019981Y0019650D01*
X0019883Y0019532D01*
X0019783Y0019416D01*
X0019679Y0019303D01*
X0019573Y0019192D01*
X0019464Y0019084D01*
X0019352Y0018979D01*
X0019238Y0018878D01*
X0019120Y0018779D01*
X0019001Y0018683D01*
X0018879Y0018590D01*
X0018754Y0018501D01*
X0018627Y0018414D01*
X0018498Y0018332D01*
X0018367Y0018252D01*
X0018234Y0018176D01*
X0018099Y0018103D01*
X0017962Y0018034D01*
X0017823Y0017969D01*
X0017683Y0017907D01*
X0017541Y0017849D01*
X0017398Y0017794D01*
X0017253Y0017743D01*
X0017107Y0017696D01*
X0016960Y0017653D01*
X0016812Y0017614D01*
X0016663Y0017578D01*
X0016513Y0017547D01*
X0016362Y0017519D01*
X0016211Y0017495D01*
X0016058Y0017475D01*
X0015906Y0017459D01*
X0015753Y0017447D01*
X0015600Y0017439D01*
X0015447Y0017435D01*
X0015293Y0017435D01*
X0015140Y0017439D01*
X0014987Y0017447D01*
X0014834Y0017459D01*
X0014682Y0017475D01*
X0014529Y0017495D01*
X0014378Y0017519D01*
X0014227Y0017547D01*
X0014077Y0017578D01*
X0013928Y0017614D01*
X0013780Y0017653D01*
X0013633Y0017696D01*
X0013487Y0017743D01*
X0013342Y0017794D01*
X0013199Y0017849D01*
X0013057Y0017907D01*
X0012917Y0017969D01*
X0012778Y0018034D01*
X0012641Y0018103D01*
X0012506Y0018176D01*
X0012373Y0018252D01*
X0012242Y0018332D01*
X0012113Y0018414D01*
X0011986Y0018501D01*
X0011861Y0018590D01*
X0011739Y0018683D01*
X0011620Y0018779D01*
X0011502Y0018878D01*
X0011388Y0018979D01*
X0011276Y0019084D01*
X0011167Y0019192D01*
X0011061Y0019303D01*
X0010957Y0019416D01*
X0010857Y0019532D01*
X0010759Y0019650D01*
X0010665Y0019771D01*
X0010574Y0019894D01*
X0010486Y0020020D01*
X0010402Y0020148D01*
X0010320Y0020278D01*
X0010243Y0020410D01*
X0010168Y0020544D01*
X0010097Y0020680D01*
X0010030Y0020818D01*
X0009966Y0020958D01*
X0009906Y0021099D01*
X0009850Y0021241D01*
X0009797Y0021385D01*
X0009748Y0021531D01*
X0009703Y0021677D01*
X0009662Y0021825D01*
X0009625Y0021973D01*
X0009591Y0022123D01*
X0009561Y0022274D01*
X0009536Y0022425D01*
X0009514Y0022576D01*
X0009496Y0022729D01*
X0009482Y0022881D01*
X0009472Y0023034D01*
X0009466Y0023188D01*
X0009464Y0023341D01*
X0005528Y0025309D02*
X0005531Y0025024D01*
X0005542Y0024738D01*
X0005559Y0024453D01*
X0005583Y0024169D01*
X0005614Y0023885D01*
X0005652Y0023602D01*
X0005697Y0023321D01*
X0005748Y0023040D01*
X0005806Y0022760D01*
X0005871Y0022482D01*
X0005943Y0022206D01*
X0006021Y0021932D01*
X0006106Y0021659D01*
X0006198Y0021389D01*
X0006296Y0021121D01*
X0006400Y0020855D01*
X0006511Y0020592D01*
X0006628Y0020332D01*
X0006751Y0020074D01*
X0006881Y0019820D01*
X0007017Y0019569D01*
X0007158Y0019321D01*
X0007306Y0019077D01*
X0007459Y0018836D01*
X0007619Y0018600D01*
X0007784Y0018367D01*
X0007954Y0018138D01*
X0008130Y0017913D01*
X0008312Y0017693D01*
X0008498Y0017477D01*
X0008690Y0017266D01*
X0008887Y0017059D01*
X0009089Y0016857D01*
X0009296Y0016660D01*
X0009507Y0016468D01*
X0009723Y0016282D01*
X0009943Y0016100D01*
X0010168Y0015924D01*
X0010397Y0015754D01*
X0010630Y0015589D01*
X0010866Y0015429D01*
X0011107Y0015276D01*
X0011351Y0015128D01*
X0011599Y0014987D01*
X0011850Y0014851D01*
X0012104Y0014721D01*
X0012362Y0014598D01*
X0012622Y0014481D01*
X0012885Y0014370D01*
X0013151Y0014266D01*
X0013419Y0014168D01*
X0013689Y0014076D01*
X0013962Y0013991D01*
X0014236Y0013913D01*
X0014512Y0013841D01*
X0014790Y0013776D01*
X0015070Y0013718D01*
X0015351Y0013667D01*
X0015632Y0013622D01*
X0015915Y0013584D01*
X0016199Y0013553D01*
X0016483Y0013529D01*
X0016768Y0013512D01*
X0017054Y0013501D01*
X0017339Y0013498D01*
X0005528Y0088301D02*
X0005531Y0088586D01*
X0005542Y0088872D01*
X0005559Y0089157D01*
X0005583Y0089441D01*
X0005614Y0089725D01*
X0005652Y0090008D01*
X0005697Y0090289D01*
X0005748Y0090570D01*
X0005806Y0090850D01*
X0005871Y0091128D01*
X0005943Y0091404D01*
X0006021Y0091678D01*
X0006106Y0091951D01*
X0006198Y0092221D01*
X0006296Y0092489D01*
X0006400Y0092755D01*
X0006511Y0093018D01*
X0006628Y0093278D01*
X0006751Y0093536D01*
X0006881Y0093790D01*
X0007017Y0094041D01*
X0007158Y0094289D01*
X0007306Y0094533D01*
X0007459Y0094774D01*
X0007619Y0095010D01*
X0007784Y0095243D01*
X0007954Y0095472D01*
X0008130Y0095697D01*
X0008312Y0095917D01*
X0008498Y0096133D01*
X0008690Y0096344D01*
X0008887Y0096551D01*
X0009089Y0096753D01*
X0009296Y0096950D01*
X0009507Y0097142D01*
X0009723Y0097328D01*
X0009943Y0097510D01*
X0010168Y0097686D01*
X0010397Y0097856D01*
X0010630Y0098021D01*
X0010866Y0098181D01*
X0011107Y0098334D01*
X0011351Y0098482D01*
X0011599Y0098623D01*
X0011850Y0098759D01*
X0012104Y0098889D01*
X0012362Y0099012D01*
X0012622Y0099129D01*
X0012885Y0099240D01*
X0013151Y0099344D01*
X0013419Y0099442D01*
X0013689Y0099534D01*
X0013962Y0099619D01*
X0014236Y0099697D01*
X0014512Y0099769D01*
X0014790Y0099834D01*
X0015070Y0099892D01*
X0015351Y0099943D01*
X0015632Y0099988D01*
X0015915Y0100026D01*
X0016199Y0100057D01*
X0016483Y0100081D01*
X0016768Y0100098D01*
X0017054Y0100109D01*
X0017339Y0100112D01*
D11*
X0030378Y0095355D02*
X0030378Y0087448D01*
X0035649Y0087448D01*
X0038296Y0087448D02*
X0038296Y0092719D01*
X0040932Y0095355D01*
X0043567Y0092719D01*
X0043567Y0087448D01*
X0046215Y0087448D02*
X0046215Y0095355D01*
X0050168Y0095355D01*
X0051486Y0094037D01*
X0051486Y0091402D01*
X0050168Y0090084D01*
X0046215Y0090084D01*
X0043567Y0091402D02*
X0038296Y0091402D01*
X0054134Y0095355D02*
X0056769Y0095355D01*
X0055452Y0095355D02*
X0055452Y0087448D01*
X0056769Y0087448D02*
X0054134Y0087448D01*
X0059413Y0088766D02*
X0060731Y0087448D01*
X0063366Y0087448D01*
X0064684Y0088766D01*
X0064684Y0090084D01*
X0063366Y0091402D01*
X0060731Y0091402D01*
X0059413Y0092719D01*
X0059413Y0094037D01*
X0060731Y0095355D01*
X0063366Y0095355D01*
X0064684Y0094037D01*
D12*
X0074928Y0093103D02*
X0076662Y0091368D01*
X0078397Y0093103D01*
X0078397Y0087898D01*
X0080084Y0088766D02*
X0080951Y0087898D01*
X0082686Y0087898D01*
X0083554Y0088766D01*
X0083554Y0090500D01*
X0082686Y0091368D01*
X0080951Y0091368D01*
X0080084Y0090500D01*
X0080084Y0088766D01*
X0074928Y0087898D02*
X0074928Y0093103D01*
X0085240Y0091368D02*
X0086975Y0091368D01*
X0086108Y0092235D02*
X0086108Y0088766D01*
X0086975Y0087898D01*
X0088678Y0087898D02*
X0090413Y0087898D01*
X0089545Y0087898D02*
X0089545Y0091368D01*
X0088678Y0091368D01*
X0089545Y0093103D02*
X0089545Y0093970D01*
X0092983Y0091368D02*
X0092116Y0090500D01*
X0092116Y0088766D01*
X0092983Y0087898D01*
X0094718Y0087898D01*
X0095585Y0088766D01*
X0095585Y0090500D01*
X0094718Y0091368D01*
X0092983Y0091368D01*
X0097272Y0091368D02*
X0099874Y0091368D01*
X0100742Y0090500D01*
X0100742Y0087898D01*
X0097272Y0087898D02*
X0097272Y0091368D01*
X0107585Y0091368D02*
X0108452Y0090500D01*
X0110187Y0090500D01*
X0111054Y0089633D01*
X0111054Y0088766D01*
X0110187Y0087898D01*
X0108452Y0087898D01*
X0107585Y0088766D01*
X0107585Y0091368D02*
X0107585Y0092235D01*
X0108452Y0093103D01*
X0110187Y0093103D01*
X0111054Y0092235D01*
X0112741Y0090500D02*
X0113609Y0091368D01*
X0115343Y0091368D01*
X0116211Y0090500D01*
X0116211Y0089633D01*
X0112741Y0089633D01*
X0112741Y0088766D02*
X0112741Y0090500D01*
X0112741Y0088766D02*
X0113609Y0087898D01*
X0115343Y0087898D01*
X0117898Y0087898D02*
X0117898Y0091368D01*
X0120500Y0091368D01*
X0121367Y0090500D01*
X0121367Y0087898D01*
X0123054Y0087898D02*
X0125656Y0087898D01*
X0126524Y0088766D01*
X0125656Y0089633D01*
X0123921Y0089633D01*
X0123054Y0090500D01*
X0123921Y0091368D01*
X0126524Y0091368D01*
X0128210Y0090500D02*
X0128210Y0088766D01*
X0129078Y0087898D01*
X0130813Y0087898D01*
X0131680Y0088766D01*
X0131680Y0090500D01*
X0130813Y0091368D01*
X0129078Y0091368D01*
X0128210Y0090500D01*
X0133367Y0089633D02*
X0135102Y0091368D01*
X0135969Y0091368D01*
X0133367Y0091368D02*
X0133367Y0087898D01*
X0142820Y0087898D02*
X0142820Y0091368D01*
X0144555Y0091368D02*
X0145422Y0091368D01*
X0144555Y0091368D02*
X0142820Y0089633D01*
X0147117Y0089633D02*
X0150587Y0089633D01*
X0150587Y0090500D01*
X0149719Y0091368D01*
X0147985Y0091368D01*
X0147117Y0090500D01*
X0147117Y0088766D01*
X0147985Y0087898D01*
X0149719Y0087898D01*
X0154008Y0087898D02*
X0155743Y0091368D01*
X0152274Y0091368D02*
X0154008Y0087898D01*
X0162586Y0087898D02*
X0166056Y0087898D01*
X0164321Y0087898D02*
X0164321Y0093103D01*
X0162586Y0091368D01*
X0161254Y0080702D02*
X0162789Y0079167D01*
X0162789Y0076098D01*
X0164324Y0076865D02*
X0165091Y0076098D01*
X0166626Y0076098D01*
X0167393Y0076865D01*
X0167393Y0078400D01*
X0165858Y0078400D01*
X0164324Y0079935D02*
X0164324Y0076865D01*
X0162789Y0078400D02*
X0159720Y0078400D01*
X0159720Y0079167D02*
X0161254Y0080702D01*
X0159720Y0079167D02*
X0159720Y0076098D01*
X0158185Y0076098D02*
X0158185Y0080702D01*
X0156650Y0079167D01*
X0155116Y0080702D01*
X0155116Y0076098D01*
X0150693Y0071802D02*
X0147624Y0067198D01*
X0150693Y0067198D02*
X0147624Y0071802D01*
X0137593Y0071802D02*
X0134524Y0067198D01*
X0137593Y0067198D02*
X0134524Y0071802D01*
X0131026Y0075398D02*
X0131793Y0076165D01*
X0131026Y0075398D02*
X0129491Y0075398D01*
X0128724Y0076165D01*
X0128724Y0079235D01*
X0129491Y0080002D01*
X0131026Y0080002D01*
X0131793Y0079235D01*
X0127189Y0079235D02*
X0126422Y0080002D01*
X0124887Y0080002D01*
X0124120Y0079235D01*
X0124120Y0076165D01*
X0124887Y0075398D01*
X0126422Y0075398D01*
X0127189Y0076165D01*
X0122585Y0075398D02*
X0122585Y0078467D01*
X0121050Y0080002D01*
X0119516Y0078467D01*
X0119516Y0075398D01*
X0119516Y0077700D02*
X0122585Y0077700D01*
X0120193Y0072102D02*
X0117124Y0072102D01*
X0120193Y0072102D02*
X0120193Y0071335D01*
X0117124Y0068265D01*
X0117124Y0067498D01*
X0120193Y0067498D01*
X0122424Y0058002D02*
X0122424Y0057235D01*
X0123958Y0055700D01*
X0123958Y0053398D01*
X0123958Y0055700D02*
X0125493Y0057235D01*
X0125493Y0058002D01*
X0126228Y0040798D02*
X0120228Y0040798D01*
X0120228Y0034798D01*
X0166228Y0034798D01*
X0166228Y0026798D01*
X0120228Y0026798D01*
X0120228Y0018798D01*
X0146128Y0018798D01*
X0146128Y0040798D01*
X0166228Y0040798D01*
X0166228Y0034798D01*
X0166228Y0026798D02*
X0166228Y0018798D01*
X0146128Y0018798D01*
X0126228Y0018798D02*
X0126228Y0040798D01*
X0146128Y0040798D01*
X0162258Y0054398D02*
X0162258Y0056700D01*
X0163793Y0058235D01*
X0163793Y0059002D01*
X0162258Y0056700D02*
X0160724Y0058235D01*
X0160724Y0059002D01*
X0165724Y0067398D02*
X0168793Y0067398D01*
X0165724Y0067398D02*
X0165724Y0068165D01*
X0168793Y0071235D01*
X0168793Y0072002D01*
X0165724Y0072002D01*
X0164324Y0079935D02*
X0165091Y0080702D01*
X0166626Y0080702D01*
X0167393Y0079935D01*
X0120228Y0034798D02*
X0120228Y0026798D01*
D13*
X0124028Y0059998D02*
X0123028Y0061998D01*
X0125028Y0061998D01*
X0124028Y0059998D01*
X0124028Y0066998D01*
X0126528Y0069498D02*
X0133528Y0069498D01*
X0131528Y0068498D01*
X0131528Y0070498D01*
X0133528Y0069498D01*
X0152728Y0069698D02*
X0154728Y0070698D01*
X0154728Y0068698D01*
X0152728Y0069698D01*
X0159728Y0069698D01*
X0162228Y0067698D02*
X0162228Y0060698D01*
X0161228Y0062698D01*
X0163228Y0062698D01*
X0162228Y0060698D01*
D14*
X0160259Y0069698D02*
X0160261Y0069786D01*
X0160267Y0069874D01*
X0160277Y0069962D01*
X0160291Y0070050D01*
X0160308Y0070136D01*
X0160330Y0070222D01*
X0160355Y0070306D01*
X0160385Y0070390D01*
X0160417Y0070472D01*
X0160454Y0070552D01*
X0160494Y0070631D01*
X0160538Y0070708D01*
X0160585Y0070783D01*
X0160635Y0070855D01*
X0160689Y0070926D01*
X0160745Y0070993D01*
X0160805Y0071059D01*
X0160867Y0071121D01*
X0160933Y0071181D01*
X0161000Y0071237D01*
X0161071Y0071291D01*
X0161143Y0071341D01*
X0161218Y0071388D01*
X0161295Y0071432D01*
X0161374Y0071472D01*
X0161454Y0071509D01*
X0161536Y0071541D01*
X0161620Y0071571D01*
X0161704Y0071596D01*
X0161790Y0071618D01*
X0161876Y0071635D01*
X0161964Y0071649D01*
X0162052Y0071659D01*
X0162140Y0071665D01*
X0162228Y0071667D01*
X0162316Y0071665D01*
X0162404Y0071659D01*
X0162492Y0071649D01*
X0162580Y0071635D01*
X0162666Y0071618D01*
X0162752Y0071596D01*
X0162836Y0071571D01*
X0162920Y0071541D01*
X0163002Y0071509D01*
X0163082Y0071472D01*
X0163161Y0071432D01*
X0163238Y0071388D01*
X0163313Y0071341D01*
X0163385Y0071291D01*
X0163456Y0071237D01*
X0163523Y0071181D01*
X0163589Y0071121D01*
X0163651Y0071059D01*
X0163711Y0070993D01*
X0163767Y0070926D01*
X0163821Y0070855D01*
X0163871Y0070783D01*
X0163918Y0070708D01*
X0163962Y0070631D01*
X0164002Y0070552D01*
X0164039Y0070472D01*
X0164071Y0070390D01*
X0164101Y0070306D01*
X0164126Y0070222D01*
X0164148Y0070136D01*
X0164165Y0070050D01*
X0164179Y0069962D01*
X0164189Y0069874D01*
X0164195Y0069786D01*
X0164197Y0069698D01*
X0164195Y0069610D01*
X0164189Y0069522D01*
X0164179Y0069434D01*
X0164165Y0069346D01*
X0164148Y0069260D01*
X0164126Y0069174D01*
X0164101Y0069090D01*
X0164071Y0069006D01*
X0164039Y0068924D01*
X0164002Y0068844D01*
X0163962Y0068765D01*
X0163918Y0068688D01*
X0163871Y0068613D01*
X0163821Y0068541D01*
X0163767Y0068470D01*
X0163711Y0068403D01*
X0163651Y0068337D01*
X0163589Y0068275D01*
X0163523Y0068215D01*
X0163456Y0068159D01*
X0163385Y0068105D01*
X0163313Y0068055D01*
X0163238Y0068008D01*
X0163161Y0067964D01*
X0163082Y0067924D01*
X0163002Y0067887D01*
X0162920Y0067855D01*
X0162836Y0067825D01*
X0162752Y0067800D01*
X0162666Y0067778D01*
X0162580Y0067761D01*
X0162492Y0067747D01*
X0162404Y0067737D01*
X0162316Y0067731D01*
X0162228Y0067729D01*
X0162140Y0067731D01*
X0162052Y0067737D01*
X0161964Y0067747D01*
X0161876Y0067761D01*
X0161790Y0067778D01*
X0161704Y0067800D01*
X0161620Y0067825D01*
X0161536Y0067855D01*
X0161454Y0067887D01*
X0161374Y0067924D01*
X0161295Y0067964D01*
X0161218Y0068008D01*
X0161143Y0068055D01*
X0161071Y0068105D01*
X0161000Y0068159D01*
X0160933Y0068215D01*
X0160867Y0068275D01*
X0160805Y0068337D01*
X0160745Y0068403D01*
X0160689Y0068470D01*
X0160635Y0068541D01*
X0160585Y0068613D01*
X0160538Y0068688D01*
X0160494Y0068765D01*
X0160454Y0068844D01*
X0160417Y0068924D01*
X0160385Y0069006D01*
X0160355Y0069090D01*
X0160330Y0069174D01*
X0160308Y0069260D01*
X0160291Y0069346D01*
X0160277Y0069434D01*
X0160267Y0069522D01*
X0160261Y0069610D01*
X0160259Y0069698D01*
X0161834Y0069698D02*
X0161836Y0069737D01*
X0161842Y0069776D01*
X0161852Y0069814D01*
X0161865Y0069851D01*
X0161882Y0069886D01*
X0161902Y0069920D01*
X0161926Y0069951D01*
X0161953Y0069980D01*
X0161982Y0070006D01*
X0162014Y0070029D01*
X0162048Y0070049D01*
X0162084Y0070065D01*
X0162121Y0070077D01*
X0162160Y0070086D01*
X0162199Y0070091D01*
X0162238Y0070092D01*
X0162277Y0070089D01*
X0162316Y0070082D01*
X0162353Y0070071D01*
X0162390Y0070057D01*
X0162425Y0070039D01*
X0162458Y0070018D01*
X0162489Y0069993D01*
X0162517Y0069966D01*
X0162542Y0069936D01*
X0162564Y0069903D01*
X0162583Y0069869D01*
X0162598Y0069833D01*
X0162610Y0069795D01*
X0162618Y0069757D01*
X0162622Y0069718D01*
X0162622Y0069678D01*
X0162618Y0069639D01*
X0162610Y0069601D01*
X0162598Y0069563D01*
X0162583Y0069527D01*
X0162564Y0069493D01*
X0162542Y0069460D01*
X0162517Y0069430D01*
X0162489Y0069403D01*
X0162458Y0069378D01*
X0162425Y0069357D01*
X0162390Y0069339D01*
X0162353Y0069325D01*
X0162316Y0069314D01*
X0162277Y0069307D01*
X0162238Y0069304D01*
X0162199Y0069305D01*
X0162160Y0069310D01*
X0162121Y0069319D01*
X0162084Y0069331D01*
X0162048Y0069347D01*
X0162014Y0069367D01*
X0161982Y0069390D01*
X0161953Y0069416D01*
X0161926Y0069445D01*
X0161902Y0069476D01*
X0161882Y0069510D01*
X0161865Y0069545D01*
X0161852Y0069582D01*
X0161842Y0069620D01*
X0161836Y0069659D01*
X0161834Y0069698D01*
X0122059Y0069498D02*
X0122061Y0069586D01*
X0122067Y0069674D01*
X0122077Y0069762D01*
X0122091Y0069850D01*
X0122108Y0069936D01*
X0122130Y0070022D01*
X0122155Y0070106D01*
X0122185Y0070190D01*
X0122217Y0070272D01*
X0122254Y0070352D01*
X0122294Y0070431D01*
X0122338Y0070508D01*
X0122385Y0070583D01*
X0122435Y0070655D01*
X0122489Y0070726D01*
X0122545Y0070793D01*
X0122605Y0070859D01*
X0122667Y0070921D01*
X0122733Y0070981D01*
X0122800Y0071037D01*
X0122871Y0071091D01*
X0122943Y0071141D01*
X0123018Y0071188D01*
X0123095Y0071232D01*
X0123174Y0071272D01*
X0123254Y0071309D01*
X0123336Y0071341D01*
X0123420Y0071371D01*
X0123504Y0071396D01*
X0123590Y0071418D01*
X0123676Y0071435D01*
X0123764Y0071449D01*
X0123852Y0071459D01*
X0123940Y0071465D01*
X0124028Y0071467D01*
X0124116Y0071465D01*
X0124204Y0071459D01*
X0124292Y0071449D01*
X0124380Y0071435D01*
X0124466Y0071418D01*
X0124552Y0071396D01*
X0124636Y0071371D01*
X0124720Y0071341D01*
X0124802Y0071309D01*
X0124882Y0071272D01*
X0124961Y0071232D01*
X0125038Y0071188D01*
X0125113Y0071141D01*
X0125185Y0071091D01*
X0125256Y0071037D01*
X0125323Y0070981D01*
X0125389Y0070921D01*
X0125451Y0070859D01*
X0125511Y0070793D01*
X0125567Y0070726D01*
X0125621Y0070655D01*
X0125671Y0070583D01*
X0125718Y0070508D01*
X0125762Y0070431D01*
X0125802Y0070352D01*
X0125839Y0070272D01*
X0125871Y0070190D01*
X0125901Y0070106D01*
X0125926Y0070022D01*
X0125948Y0069936D01*
X0125965Y0069850D01*
X0125979Y0069762D01*
X0125989Y0069674D01*
X0125995Y0069586D01*
X0125997Y0069498D01*
X0125995Y0069410D01*
X0125989Y0069322D01*
X0125979Y0069234D01*
X0125965Y0069146D01*
X0125948Y0069060D01*
X0125926Y0068974D01*
X0125901Y0068890D01*
X0125871Y0068806D01*
X0125839Y0068724D01*
X0125802Y0068644D01*
X0125762Y0068565D01*
X0125718Y0068488D01*
X0125671Y0068413D01*
X0125621Y0068341D01*
X0125567Y0068270D01*
X0125511Y0068203D01*
X0125451Y0068137D01*
X0125389Y0068075D01*
X0125323Y0068015D01*
X0125256Y0067959D01*
X0125185Y0067905D01*
X0125113Y0067855D01*
X0125038Y0067808D01*
X0124961Y0067764D01*
X0124882Y0067724D01*
X0124802Y0067687D01*
X0124720Y0067655D01*
X0124636Y0067625D01*
X0124552Y0067600D01*
X0124466Y0067578D01*
X0124380Y0067561D01*
X0124292Y0067547D01*
X0124204Y0067537D01*
X0124116Y0067531D01*
X0124028Y0067529D01*
X0123940Y0067531D01*
X0123852Y0067537D01*
X0123764Y0067547D01*
X0123676Y0067561D01*
X0123590Y0067578D01*
X0123504Y0067600D01*
X0123420Y0067625D01*
X0123336Y0067655D01*
X0123254Y0067687D01*
X0123174Y0067724D01*
X0123095Y0067764D01*
X0123018Y0067808D01*
X0122943Y0067855D01*
X0122871Y0067905D01*
X0122800Y0067959D01*
X0122733Y0068015D01*
X0122667Y0068075D01*
X0122605Y0068137D01*
X0122545Y0068203D01*
X0122489Y0068270D01*
X0122435Y0068341D01*
X0122385Y0068413D01*
X0122338Y0068488D01*
X0122294Y0068565D01*
X0122254Y0068644D01*
X0122217Y0068724D01*
X0122185Y0068806D01*
X0122155Y0068890D01*
X0122130Y0068974D01*
X0122108Y0069060D01*
X0122091Y0069146D01*
X0122077Y0069234D01*
X0122067Y0069322D01*
X0122061Y0069410D01*
X0122059Y0069498D01*
X0123634Y0069498D02*
X0123636Y0069537D01*
X0123642Y0069576D01*
X0123652Y0069614D01*
X0123665Y0069651D01*
X0123682Y0069686D01*
X0123702Y0069720D01*
X0123726Y0069751D01*
X0123753Y0069780D01*
X0123782Y0069806D01*
X0123814Y0069829D01*
X0123848Y0069849D01*
X0123884Y0069865D01*
X0123921Y0069877D01*
X0123960Y0069886D01*
X0123999Y0069891D01*
X0124038Y0069892D01*
X0124077Y0069889D01*
X0124116Y0069882D01*
X0124153Y0069871D01*
X0124190Y0069857D01*
X0124225Y0069839D01*
X0124258Y0069818D01*
X0124289Y0069793D01*
X0124317Y0069766D01*
X0124342Y0069736D01*
X0124364Y0069703D01*
X0124383Y0069669D01*
X0124398Y0069633D01*
X0124410Y0069595D01*
X0124418Y0069557D01*
X0124422Y0069518D01*
X0124422Y0069478D01*
X0124418Y0069439D01*
X0124410Y0069401D01*
X0124398Y0069363D01*
X0124383Y0069327D01*
X0124364Y0069293D01*
X0124342Y0069260D01*
X0124317Y0069230D01*
X0124289Y0069203D01*
X0124258Y0069178D01*
X0124225Y0069157D01*
X0124190Y0069139D01*
X0124153Y0069125D01*
X0124116Y0069114D01*
X0124077Y0069107D01*
X0124038Y0069104D01*
X0123999Y0069105D01*
X0123960Y0069110D01*
X0123921Y0069119D01*
X0123884Y0069131D01*
X0123848Y0069147D01*
X0123814Y0069167D01*
X0123782Y0069190D01*
X0123753Y0069216D01*
X0123726Y0069245D01*
X0123702Y0069276D01*
X0123682Y0069310D01*
X0123665Y0069345D01*
X0123652Y0069382D01*
X0123642Y0069420D01*
X0123636Y0069459D01*
X0123634Y0069498D01*
D15*
X0123250Y0046951D02*
X0122633Y0046334D01*
X0123250Y0046951D02*
X0124485Y0046951D01*
X0125102Y0046334D01*
X0125102Y0045717D01*
X0122633Y0043248D01*
X0125102Y0043248D01*
X0126316Y0043865D02*
X0126933Y0043248D01*
X0128168Y0043248D01*
X0128785Y0043865D01*
X0126316Y0043865D02*
X0126316Y0046334D01*
X0126933Y0046951D01*
X0128168Y0046951D01*
X0128785Y0046334D01*
X0133682Y0046334D02*
X0133682Y0045717D01*
X0134300Y0045100D01*
X0135534Y0045100D01*
X0136151Y0044483D01*
X0136151Y0043865D01*
X0135534Y0043248D01*
X0134300Y0043248D01*
X0133682Y0043865D01*
X0133682Y0046334D02*
X0134300Y0046951D01*
X0135534Y0046951D01*
X0136151Y0046334D01*
X0137366Y0046951D02*
X0137983Y0046951D01*
X0137983Y0043248D01*
X0137366Y0043248D02*
X0138600Y0043248D01*
X0139821Y0043865D02*
X0140438Y0044483D01*
X0142290Y0044483D01*
X0142290Y0045100D02*
X0142290Y0043248D01*
X0140438Y0043248D01*
X0139821Y0043865D01*
X0141673Y0045717D02*
X0142290Y0045100D01*
X0141673Y0045717D02*
X0140438Y0045717D01*
X0143504Y0045717D02*
X0144739Y0043248D01*
X0145973Y0045717D01*
X0147187Y0045100D02*
X0147804Y0045717D01*
X0149039Y0045717D01*
X0149656Y0045100D01*
X0149656Y0044483D01*
X0147187Y0044483D01*
X0147187Y0045100D02*
X0147187Y0043865D01*
X0147804Y0043248D01*
X0149039Y0043248D01*
X0154554Y0043248D02*
X0154554Y0045717D01*
X0155788Y0046951D01*
X0157022Y0045717D01*
X0157022Y0043248D01*
X0158237Y0043865D02*
X0158237Y0045100D01*
X0158854Y0045717D01*
X0160705Y0045717D01*
X0160705Y0046951D02*
X0160705Y0043248D01*
X0158854Y0043248D01*
X0158237Y0043865D01*
X0157022Y0045100D02*
X0154554Y0045100D01*
X0161920Y0045100D02*
X0161920Y0043865D01*
X0162537Y0043248D01*
X0164389Y0043248D01*
X0164389Y0046951D01*
X0164389Y0045717D02*
X0162537Y0045717D01*
X0161920Y0045100D01*
X0165603Y0045717D02*
X0165603Y0043248D01*
X0165603Y0044483D02*
X0166837Y0045717D01*
X0167455Y0045717D01*
X0164166Y0039351D02*
X0165400Y0038117D01*
X0165400Y0036883D01*
X0164166Y0035648D01*
X0162951Y0035648D02*
X0162951Y0039351D01*
X0161717Y0038117D01*
X0160482Y0039351D01*
X0160482Y0035648D01*
X0159261Y0035648D02*
X0158027Y0036883D01*
X0158027Y0038117D01*
X0159261Y0039351D01*
X0156813Y0038734D02*
X0156813Y0038117D01*
X0154344Y0035648D01*
X0156813Y0035648D01*
X0153129Y0037500D02*
X0152512Y0036883D01*
X0150661Y0036883D01*
X0150661Y0035648D02*
X0150661Y0039351D01*
X0152512Y0039351D01*
X0153129Y0038734D01*
X0153129Y0037500D01*
X0154344Y0038734D02*
X0154961Y0039351D01*
X0156195Y0039351D01*
X0156813Y0038734D01*
X0149446Y0039351D02*
X0148212Y0039351D01*
X0148829Y0039351D02*
X0148829Y0036265D01*
X0148212Y0035648D01*
X0147595Y0035648D01*
X0146978Y0036265D01*
X0145300Y0037083D02*
X0145300Y0038317D01*
X0144066Y0039551D01*
X0142851Y0038317D02*
X0141617Y0039551D01*
X0140382Y0038317D01*
X0140382Y0035848D01*
X0139161Y0035848D02*
X0137927Y0037083D01*
X0137927Y0038317D01*
X0139161Y0039551D01*
X0140382Y0037700D02*
X0142851Y0037700D01*
X0142851Y0038317D02*
X0142851Y0035848D01*
X0144066Y0035848D02*
X0145300Y0037083D01*
X0136713Y0035848D02*
X0134244Y0035848D01*
X0135478Y0035848D02*
X0135478Y0039551D01*
X0134244Y0038317D01*
X0133029Y0038934D02*
X0133029Y0037700D01*
X0132412Y0037083D01*
X0130561Y0037083D01*
X0130561Y0035848D02*
X0130561Y0039551D01*
X0132412Y0039551D01*
X0133029Y0038934D01*
X0129346Y0039551D02*
X0128112Y0039551D01*
X0128729Y0039551D02*
X0128729Y0036465D01*
X0128112Y0035848D01*
X0127495Y0035848D01*
X0126878Y0036465D01*
X0121412Y0043248D02*
X0120178Y0043248D01*
X0120795Y0043248D02*
X0120795Y0046951D01*
X0120178Y0046951D02*
X0121412Y0046951D01*
X0123412Y0024951D02*
X0123412Y0021248D01*
X0122178Y0021248D02*
X0124646Y0021248D01*
X0122178Y0023717D02*
X0123412Y0024951D01*
X0128978Y0024434D02*
X0128978Y0021965D01*
X0131446Y0024434D01*
X0131446Y0021965D01*
X0130829Y0021348D01*
X0129595Y0021348D01*
X0128978Y0021965D01*
X0132661Y0021348D02*
X0135129Y0023817D01*
X0136344Y0023200D02*
X0138195Y0023200D01*
X0138813Y0022583D01*
X0138813Y0021965D01*
X0138195Y0021348D01*
X0136961Y0021348D01*
X0136344Y0021965D01*
X0136344Y0023200D01*
X0137578Y0024434D01*
X0138813Y0025051D01*
X0140027Y0025051D02*
X0141879Y0025051D01*
X0142496Y0024434D01*
X0142496Y0023817D01*
X0141879Y0023200D01*
X0140027Y0023200D01*
X0140027Y0025051D02*
X0140027Y0021348D01*
X0141879Y0021348D01*
X0142496Y0021965D01*
X0142496Y0022583D01*
X0141879Y0023200D01*
X0135129Y0021348D02*
X0132661Y0023817D01*
X0131446Y0024434D02*
X0130829Y0025051D01*
X0129595Y0025051D01*
X0128978Y0024434D01*
X0148678Y0024134D02*
X0148678Y0021665D01*
X0151146Y0024134D01*
X0151146Y0021665D01*
X0150529Y0021048D01*
X0149295Y0021048D01*
X0148678Y0021665D01*
X0148678Y0024134D02*
X0149295Y0024751D01*
X0150529Y0024751D01*
X0151146Y0024134D01*
X0152361Y0023517D02*
X0154829Y0021048D01*
X0156044Y0021048D02*
X0158513Y0021048D01*
X0159727Y0021048D02*
X0162196Y0021048D01*
X0159727Y0021048D02*
X0159727Y0024751D01*
X0162196Y0024751D01*
X0160961Y0022900D02*
X0159727Y0022900D01*
X0157278Y0024751D02*
X0157278Y0021048D01*
X0154829Y0023517D02*
X0152361Y0021048D01*
X0156044Y0023517D02*
X0157278Y0024751D01*
D16*
X0157228Y0028898D02*
X0157228Y0032301D01*
X0156094Y0031167D01*
X0154679Y0031167D02*
X0152411Y0028898D01*
X0150996Y0029465D02*
X0150429Y0028898D01*
X0149295Y0028898D01*
X0148728Y0029465D01*
X0150996Y0031734D01*
X0150996Y0029465D01*
X0152411Y0031167D02*
X0154679Y0028898D01*
X0156094Y0028898D02*
X0158362Y0028898D01*
X0159777Y0029465D02*
X0160344Y0028898D01*
X0161478Y0028898D01*
X0162046Y0029465D01*
X0159777Y0029465D02*
X0159777Y0031734D01*
X0160344Y0032301D01*
X0161478Y0032301D01*
X0162046Y0031734D01*
X0150996Y0031734D02*
X0150429Y0032301D01*
X0149295Y0032301D01*
X0148728Y0031734D01*
X0148728Y0029465D01*
X0142346Y0028798D02*
X0142346Y0031067D01*
X0141211Y0032201D01*
X0140077Y0031067D01*
X0140077Y0028798D01*
X0138662Y0029365D02*
X0138662Y0029932D01*
X0138095Y0030500D01*
X0136394Y0030500D01*
X0136394Y0029365D01*
X0136961Y0028798D01*
X0138095Y0028798D01*
X0138662Y0029365D01*
X0140077Y0030500D02*
X0142346Y0030500D01*
X0138662Y0032201D02*
X0137528Y0031634D01*
X0136394Y0030500D01*
X0134979Y0031067D02*
X0132711Y0028798D01*
X0131296Y0029365D02*
X0130729Y0028798D01*
X0129595Y0028798D01*
X0129028Y0029365D01*
X0131296Y0031634D01*
X0131296Y0029365D01*
X0132711Y0031067D02*
X0134979Y0028798D01*
X0131296Y0031634D02*
X0130729Y0032201D01*
X0129595Y0032201D01*
X0129028Y0031634D01*
X0129028Y0029365D01*
X0124496Y0029465D02*
X0124496Y0031734D01*
X0122228Y0029465D01*
X0122795Y0028898D01*
X0123929Y0028898D01*
X0124496Y0029465D01*
X0122228Y0029465D02*
X0122228Y0031734D01*
X0122795Y0032301D01*
X0123929Y0032301D01*
X0124496Y0031734D01*
X0112279Y0044298D02*
X0110011Y0044298D01*
X0111145Y0044298D02*
X0111145Y0047701D01*
X0110011Y0046567D01*
X0108596Y0047134D02*
X0108596Y0046000D01*
X0108029Y0045432D01*
X0106328Y0045432D01*
X0107462Y0045432D02*
X0108596Y0044298D01*
X0106328Y0044298D02*
X0106328Y0047701D01*
X0108029Y0047701D01*
X0108596Y0047134D01*
X0108596Y0052798D02*
X0107462Y0053932D01*
X0108029Y0053932D02*
X0106328Y0053932D01*
X0106328Y0052798D02*
X0106328Y0056201D01*
X0108029Y0056201D01*
X0108596Y0055634D01*
X0108596Y0054500D01*
X0108029Y0053932D01*
X0110011Y0052798D02*
X0112279Y0055067D01*
X0112279Y0055634D01*
X0111712Y0056201D01*
X0110578Y0056201D01*
X0110011Y0055634D01*
X0110011Y0052798D02*
X0112279Y0052798D01*
X0106560Y0068298D02*
X0104292Y0068298D01*
X0103725Y0068865D01*
X0103725Y0070000D01*
X0104292Y0070567D01*
X0106560Y0070567D02*
X0107128Y0070000D01*
X0107128Y0068865D01*
X0106560Y0068298D01*
X0106560Y0071981D02*
X0107128Y0072548D01*
X0107128Y0073683D01*
X0106560Y0074250D01*
X0105426Y0074250D01*
X0104859Y0073683D01*
X0104859Y0073116D01*
X0105426Y0071981D01*
X0103725Y0071981D01*
X0103725Y0074250D01*
X0095428Y0073883D02*
X0092025Y0073883D01*
X0093726Y0072181D01*
X0093726Y0074450D01*
X0092592Y0070767D02*
X0092025Y0070200D01*
X0092025Y0069065D01*
X0092592Y0068498D01*
X0094860Y0068498D01*
X0095428Y0069065D01*
X0095428Y0070200D01*
X0094860Y0070767D01*
X0084128Y0069700D02*
X0084128Y0068565D01*
X0083560Y0067998D01*
X0081292Y0067998D01*
X0080725Y0068565D01*
X0080725Y0069700D01*
X0081292Y0070267D01*
X0081292Y0071681D02*
X0080725Y0072248D01*
X0080725Y0073383D01*
X0081292Y0073950D01*
X0081859Y0073950D01*
X0082426Y0073383D01*
X0082993Y0073950D01*
X0083560Y0073950D01*
X0084128Y0073383D01*
X0084128Y0072248D01*
X0083560Y0071681D01*
X0083560Y0070267D02*
X0084128Y0069700D01*
X0082426Y0072816D02*
X0082426Y0073383D01*
X0058828Y0073016D02*
X0055425Y0073016D01*
X0056559Y0071881D01*
X0058828Y0071881D02*
X0058828Y0074150D01*
X0058260Y0070467D02*
X0058828Y0069900D01*
X0058828Y0068765D01*
X0058260Y0068198D01*
X0055992Y0068198D01*
X0055425Y0068765D01*
X0055425Y0069900D01*
X0055992Y0070467D01*
X0039220Y0069778D02*
X0037154Y0069778D01*
X0037154Y0083360D01*
X0021504Y0083360D01*
X0021504Y0074896D01*
X0037154Y0083360D02*
X0039220Y0083360D01*
X0039220Y0069778D01*
X0039220Y0042219D01*
X0037154Y0042219D01*
X0037154Y0028636D01*
X0021504Y0028636D01*
X0021504Y0037100D01*
X0037154Y0028636D02*
X0039220Y0028636D01*
X0039220Y0042219D01*
X0056125Y0051765D02*
X0056692Y0051198D01*
X0058960Y0051198D01*
X0059528Y0051765D01*
X0059528Y0052900D01*
X0058960Y0053467D01*
X0056692Y0053467D02*
X0056125Y0052900D01*
X0056125Y0051765D01*
X0056692Y0054881D02*
X0056125Y0055448D01*
X0056125Y0056583D01*
X0056692Y0057150D01*
X0057259Y0057150D01*
X0059528Y0054881D01*
X0059528Y0057150D01*
X0071428Y0048601D02*
X0072562Y0048601D01*
X0071995Y0048601D02*
X0071995Y0045198D01*
X0071428Y0045198D02*
X0072562Y0045198D01*
X0073883Y0045765D02*
X0074450Y0045198D01*
X0075584Y0045198D01*
X0076152Y0045765D01*
X0077566Y0045198D02*
X0079835Y0045198D01*
X0078700Y0045198D02*
X0078700Y0048601D01*
X0077566Y0047467D01*
X0076152Y0048034D02*
X0075584Y0048601D01*
X0074450Y0048601D01*
X0073883Y0048034D01*
X0073883Y0045765D01*
X0073928Y0028494D02*
X0073928Y0025091D01*
X0072794Y0025091D02*
X0075062Y0025091D01*
X0071379Y0026792D02*
X0070812Y0026225D01*
X0069111Y0026225D01*
X0069111Y0025091D02*
X0069111Y0028494D01*
X0070812Y0028494D01*
X0071379Y0027927D01*
X0071379Y0026792D01*
X0072794Y0027360D02*
X0073928Y0028494D01*
X0067696Y0028494D02*
X0066562Y0028494D01*
X0067129Y0028494D02*
X0067129Y0025658D01*
X0066562Y0025091D01*
X0065995Y0025091D01*
X0065428Y0025658D01*
X0087428Y0025658D02*
X0087995Y0025091D01*
X0088562Y0025091D01*
X0089129Y0025658D01*
X0089129Y0028494D01*
X0088562Y0028494D02*
X0089696Y0028494D01*
X0091111Y0028494D02*
X0092812Y0028494D01*
X0093379Y0027927D01*
X0093379Y0026792D01*
X0092812Y0026225D01*
X0091111Y0026225D01*
X0091111Y0025091D02*
X0091111Y0028494D01*
X0094794Y0027927D02*
X0095361Y0028494D01*
X0096495Y0028494D01*
X0097062Y0027927D01*
X0097062Y0027360D01*
X0094794Y0025091D01*
X0097062Y0025091D01*
X0036103Y0023141D02*
X0033835Y0023141D01*
X0034969Y0023141D02*
X0034969Y0026544D01*
X0033835Y0025409D01*
X0032420Y0026544D02*
X0032420Y0023141D01*
X0030152Y0026544D01*
X0030152Y0023141D01*
X0028737Y0023708D02*
X0028170Y0023141D01*
X0027036Y0023141D01*
X0026469Y0023708D01*
X0026469Y0025976D01*
X0027036Y0026544D01*
X0028170Y0026544D01*
X0028737Y0025976D01*
D17*
X0068620Y0031215D02*
X0077628Y0031215D01*
X0084520Y0031215D02*
X0093528Y0031215D01*
D18*
X0076200Y0057622D02*
X0076065Y0057567D01*
X0075921Y0057548D01*
X0075777Y0057567D01*
X0075643Y0057622D01*
X0075528Y0057711D01*
X0075439Y0057826D01*
X0075383Y0057960D01*
X0075364Y0058104D01*
X0075383Y0058249D01*
X0075439Y0058383D01*
X0075528Y0058498D01*
X0075643Y0058587D01*
X0075777Y0058642D01*
X0075921Y0058661D01*
X0076065Y0058642D01*
X0076200Y0058587D01*
X0076315Y0058498D01*
X0076403Y0058383D01*
X0076459Y0058249D01*
X0076478Y0058104D01*
X0076459Y0057960D01*
X0076403Y0057826D01*
X0076315Y0057711D01*
X0076200Y0057622D01*
X0076420Y0057866D02*
X0075423Y0057866D01*
X0075431Y0058364D02*
X0076411Y0058364D01*
M02*
