G75*
%MOIN*%
%OFA0B0*%
%FSLAX25Y25*%
%IPPOS*%
%LPD*%
%AMOC8*
5,1,8,0,0,1.08239X$1,22.5*
%
%ADD10R,0.06299X0.07087*%
%ADD11R,0.07087X0.06299*%
%ADD12R,0.04331X0.03937*%
%ADD13R,0.03937X0.04331*%
%ADD14R,0.03150X0.03150*%
%ADD15R,0.05000X0.02500*%
%ADD16R,0.11811X0.06299*%
%ADD17R,0.21654X0.03937*%
%ADD18OC8,0.04800*%
%ADD19R,0.03150X0.03937*%
%ADD20R,0.02756X0.03937*%
%ADD21R,0.02362X0.08661*%
%ADD22C,0.07874*%
%ADD23C,0.01987*%
%ADD24C,0.01200*%
%ADD25C,0.00800*%
%ADD26C,0.01600*%
%ADD27C,0.01969*%
D10*
X0118594Y0071000D03*
X0129618Y0071000D03*
D11*
X0081406Y0032912D03*
X0081406Y0021888D03*
D12*
X0089606Y0025154D03*
X0089606Y0031846D03*
X0072406Y0026446D03*
X0072406Y0019754D03*
X0122360Y0029700D03*
X0129052Y0029700D03*
X0164306Y0029454D03*
X0172606Y0029454D03*
X0172606Y0036146D03*
X0164306Y0036146D03*
X0172606Y0042854D03*
X0172606Y0049546D03*
X0172606Y0056554D03*
X0172606Y0063246D03*
X0109806Y0069554D03*
X0109806Y0076246D03*
X0099906Y0076146D03*
X0099906Y0069454D03*
D13*
X0090206Y0069454D03*
X0080406Y0068754D03*
X0091160Y0062800D03*
X0097852Y0062800D03*
X0097852Y0054700D03*
X0091160Y0054700D03*
X0091160Y0046600D03*
X0097852Y0046600D03*
X0097852Y0038500D03*
X0091160Y0038500D03*
X0097806Y0031746D03*
X0107060Y0029700D03*
X0113752Y0029700D03*
X0097806Y0025054D03*
X0136860Y0029700D03*
X0143552Y0029700D03*
X0152160Y0060600D03*
X0158852Y0060600D03*
X0143452Y0069100D03*
X0136760Y0069100D03*
X0136760Y0077200D03*
X0143452Y0077200D03*
X0090206Y0076146D03*
X0080406Y0075446D03*
X0068052Y0074800D03*
X0061360Y0074800D03*
D14*
X0160506Y0053548D03*
X0160506Y0047052D03*
D15*
X0151106Y0049278D03*
X0151106Y0052522D03*
D16*
X0192256Y0071622D03*
X0192256Y0024378D03*
D17*
X0201114Y0032252D03*
X0201114Y0040126D03*
X0201114Y0048000D03*
X0201114Y0055874D03*
X0201114Y0063748D03*
D18*
X0173606Y0016000D03*
X0143606Y0016000D03*
X0129506Y0016000D03*
X0099506Y0016000D03*
D19*
X0148869Y0029176D03*
X0156743Y0029176D03*
X0156743Y0038624D03*
X0148869Y0038624D03*
D20*
X0152806Y0038624D03*
D21*
X0139106Y0039264D03*
X0134106Y0039264D03*
X0129106Y0039264D03*
X0124106Y0039264D03*
X0119106Y0039264D03*
X0114106Y0039264D03*
X0109106Y0039264D03*
X0109106Y0059736D03*
X0114106Y0059736D03*
X0119106Y0059736D03*
X0124106Y0059736D03*
X0129106Y0059736D03*
X0134106Y0059736D03*
X0139106Y0059736D03*
D22*
X0062643Y0052706D02*
X0054769Y0052706D01*
X0054769Y0040894D02*
X0062643Y0040894D01*
D23*
X0084506Y0057600D03*
X0104406Y0062200D03*
X0119106Y0065700D03*
X0118506Y0077600D03*
X0099906Y0080900D03*
X0143906Y0063600D03*
X0162706Y0060800D03*
X0187432Y0055874D03*
X0187206Y0048000D03*
X0187306Y0040100D03*
X0183306Y0039800D03*
X0159406Y0042900D03*
X0132806Y0029700D03*
X0122406Y0025900D03*
X0117706Y0032300D03*
X0103206Y0025000D03*
X0072306Y0014900D03*
X0126706Y0052700D03*
D24*
X0124106Y0039264D02*
X0124106Y0033600D01*
X0122306Y0031800D01*
X0122306Y0029754D01*
X0122360Y0029700D01*
X0122360Y0025946D01*
X0122406Y0025900D01*
X0187306Y0040100D02*
X0201114Y0040126D01*
D25*
X0201114Y0048000D02*
X0187206Y0048000D01*
X0183306Y0039800D02*
X0183306Y0059000D01*
X0188054Y0063748D01*
X0201114Y0063748D01*
X0201114Y0055874D02*
X0187432Y0055874D01*
X0172606Y0056554D02*
X0163512Y0056554D01*
X0160506Y0053548D01*
X0152506Y0053922D02*
X0151106Y0052522D01*
X0150784Y0052522D01*
X0152506Y0053922D02*
X0152506Y0060254D01*
X0152160Y0060600D01*
X0151260Y0059700D01*
X0139142Y0059700D01*
X0139106Y0059736D01*
X0139106Y0055100D01*
X0136706Y0052700D01*
X0126706Y0052700D01*
X0129106Y0055200D01*
X0129106Y0059736D01*
X0134106Y0059736D02*
X0134106Y0066446D01*
X0136760Y0069100D01*
X0136760Y0077200D01*
X0143906Y0069946D02*
X0143906Y0063600D01*
X0143452Y0069100D02*
X0143906Y0069946D01*
X0158852Y0060600D02*
X0159052Y0060800D01*
X0162706Y0060800D01*
X0151106Y0049278D02*
X0153332Y0047052D01*
X0160506Y0047052D01*
X0156706Y0042800D02*
X0154606Y0044900D01*
X0134506Y0044900D01*
X0134106Y0044500D01*
X0134106Y0039264D01*
X0134106Y0036200D01*
X0137106Y0033200D01*
X0142806Y0033200D01*
X0143506Y0032500D01*
X0143506Y0029746D01*
X0143552Y0029700D01*
X0143552Y0016054D01*
X0143606Y0016000D01*
X0129506Y0016000D02*
X0110806Y0016000D01*
X0107106Y0019700D01*
X0107106Y0029654D01*
X0107060Y0029700D01*
X0107060Y0026446D01*
X0103206Y0025000D02*
X0097860Y0025000D01*
X0097806Y0025054D01*
X0089606Y0025154D02*
X0086341Y0021888D01*
X0081406Y0021888D01*
X0072406Y0019754D02*
X0072306Y0019654D01*
X0072306Y0014900D01*
X0093906Y0018200D02*
X0093906Y0030800D01*
X0092860Y0031846D01*
X0089606Y0031846D01*
X0089706Y0031946D01*
X0089706Y0034000D01*
X0091160Y0035454D01*
X0091160Y0038500D01*
X0091106Y0038554D01*
X0091106Y0041200D01*
X0092106Y0042200D01*
X0100106Y0042200D01*
X0104706Y0046800D01*
X0111706Y0046800D01*
X0114106Y0044400D01*
X0114106Y0039264D01*
X0109106Y0039264D02*
X0107060Y0037217D01*
X0107060Y0029700D01*
X0103806Y0029700D01*
X0101706Y0031800D01*
X0097860Y0031800D01*
X0097806Y0031746D01*
X0097852Y0031793D01*
X0097852Y0038500D01*
X0091160Y0038500D02*
X0091106Y0039454D01*
X0097852Y0046600D02*
X0100506Y0046600D01*
X0102706Y0048800D01*
X0114706Y0048800D01*
X0119106Y0044400D01*
X0119106Y0039264D01*
X0117706Y0032300D02*
X0117706Y0030200D01*
X0117260Y0029754D01*
X0113806Y0029754D01*
X0113752Y0029700D01*
X0132806Y0029700D02*
X0136860Y0029700D01*
X0148869Y0029176D02*
X0156743Y0029176D01*
X0157021Y0029454D01*
X0164306Y0029454D01*
X0163706Y0029554D01*
X0163806Y0029454D01*
X0172606Y0029454D01*
X0173606Y0028454D01*
X0173606Y0016000D01*
X0172606Y0036146D02*
X0172606Y0042854D01*
X0159452Y0042854D01*
X0159406Y0042900D01*
X0156706Y0042800D02*
X0156706Y0038661D01*
X0156743Y0038624D01*
X0161828Y0038624D01*
X0164306Y0036146D01*
X0148869Y0038624D02*
X0139745Y0038624D01*
X0139106Y0039264D01*
X0119106Y0059736D02*
X0119106Y0065700D01*
X0119106Y0070488D01*
X0118594Y0071000D01*
X0118594Y0075088D01*
X0118506Y0077600D01*
X0109806Y0076246D02*
X0109752Y0076300D01*
X0106106Y0076300D01*
X0104706Y0074900D01*
X0104706Y0070800D01*
X0103360Y0069454D01*
X0099906Y0069454D01*
X0099906Y0066700D01*
X0104406Y0062200D01*
X0106870Y0059736D01*
X0109106Y0059736D01*
X0114106Y0059736D02*
X0114106Y0065254D01*
X0109806Y0069554D01*
X0118594Y0071000D02*
X0119206Y0068988D01*
X0099906Y0076146D02*
X0099906Y0080900D01*
X0093252Y0069454D02*
X0090206Y0069454D01*
X0093252Y0069454D02*
X0097852Y0064854D01*
X0097852Y0062800D01*
X0097852Y0054700D01*
X0097952Y0054600D01*
X0097852Y0046600D01*
X0091160Y0054700D02*
X0087406Y0054700D01*
X0084506Y0057600D01*
X0086360Y0062800D02*
X0091160Y0062800D01*
X0086360Y0062800D02*
X0080406Y0068754D01*
X0093906Y0018200D02*
X0096106Y0016000D01*
X0099506Y0016000D01*
D26*
X0039474Y0021835D02*
X0039474Y0078379D01*
X0041635Y0076218D01*
X0044823Y0074898D01*
X0048274Y0074898D01*
X0051462Y0076218D01*
X0053902Y0078658D01*
X0055223Y0081846D01*
X0055223Y0085297D01*
X0053902Y0088485D01*
X0051741Y0090646D01*
X0202773Y0090646D01*
X0200612Y0088485D01*
X0199292Y0085297D01*
X0199292Y0081846D01*
X0200612Y0078658D01*
X0203052Y0076218D01*
X0206240Y0074898D01*
X0209691Y0074898D01*
X0212879Y0076218D01*
X0215040Y0078379D01*
X0215040Y0021835D01*
X0212879Y0023996D01*
X0209691Y0025317D01*
X0206240Y0025317D01*
X0203052Y0023996D01*
X0200612Y0021556D01*
X0199292Y0018368D01*
X0199292Y0014917D01*
X0200612Y0011729D01*
X0202773Y0009568D01*
X0051741Y0009568D01*
X0053902Y0011729D01*
X0055223Y0014917D01*
X0055223Y0018368D01*
X0053902Y0021556D01*
X0051462Y0023996D01*
X0048274Y0025317D01*
X0044823Y0025317D01*
X0041635Y0023996D01*
X0039474Y0021835D01*
X0039474Y0022785D02*
X0040424Y0022785D01*
X0039474Y0024384D02*
X0042571Y0024384D01*
X0039474Y0025982D02*
X0068949Y0025982D01*
X0068949Y0027581D02*
X0039474Y0027581D01*
X0039474Y0029179D02*
X0069178Y0029179D01*
X0068949Y0028950D02*
X0068949Y0023943D01*
X0069705Y0023186D01*
X0075107Y0023186D01*
X0075863Y0023943D01*
X0075863Y0028950D01*
X0075107Y0029707D01*
X0074498Y0029707D01*
X0074498Y0030708D01*
X0076571Y0030708D01*
X0076571Y0029227D01*
X0077327Y0028470D01*
X0085485Y0028470D01*
X0086241Y0029227D01*
X0086241Y0029250D01*
X0086905Y0028586D01*
X0092214Y0028586D01*
X0092214Y0028414D01*
X0086905Y0028414D01*
X0086149Y0027657D01*
X0086149Y0025666D01*
X0085485Y0026330D01*
X0077327Y0026330D01*
X0076571Y0025573D01*
X0076571Y0018203D01*
X0077327Y0017446D01*
X0085485Y0017446D01*
X0086241Y0018203D01*
X0086241Y0020196D01*
X0087042Y0020196D01*
X0088738Y0021893D01*
X0092214Y0021893D01*
X0092214Y0017499D01*
X0093205Y0016508D01*
X0095405Y0014308D01*
X0095977Y0014308D01*
X0097977Y0012308D01*
X0101035Y0012308D01*
X0103198Y0014471D01*
X0103198Y0017529D01*
X0101035Y0019692D01*
X0097977Y0019692D01*
X0096392Y0018107D01*
X0095598Y0018901D01*
X0095598Y0021596D01*
X0100310Y0021596D01*
X0101067Y0022353D01*
X0101067Y0023308D01*
X0101665Y0023308D01*
X0102259Y0022714D01*
X0104153Y0022714D01*
X0105414Y0023975D01*
X0105414Y0018999D01*
X0106405Y0018008D01*
X0110105Y0014308D01*
X0125977Y0014308D01*
X0127977Y0012308D01*
X0131035Y0012308D01*
X0133198Y0014471D01*
X0133198Y0017529D01*
X0131035Y0019692D01*
X0127977Y0019692D01*
X0125977Y0017692D01*
X0111507Y0017692D01*
X0108798Y0020401D01*
X0108798Y0026243D01*
X0109563Y0026243D01*
X0110320Y0026999D01*
X0110320Y0032401D01*
X0109563Y0033157D01*
X0108752Y0033157D01*
X0108752Y0033641D01*
X0110822Y0033641D01*
X0111579Y0034398D01*
X0111579Y0044130D01*
X0110822Y0044887D01*
X0107390Y0044887D01*
X0106633Y0044130D01*
X0106633Y0039184D01*
X0105367Y0037918D01*
X0105367Y0033157D01*
X0104556Y0033157D01*
X0103799Y0032401D01*
X0103799Y0032100D01*
X0102407Y0033492D01*
X0101067Y0033492D01*
X0101067Y0034447D01*
X0100414Y0035100D01*
X0101113Y0035799D01*
X0101113Y0040814D01*
X0101798Y0041499D01*
X0105407Y0045108D01*
X0111005Y0045108D01*
X0111808Y0044305D01*
X0111633Y0044130D01*
X0111633Y0034398D01*
X0112390Y0033641D01*
X0115814Y0033641D01*
X0115420Y0033247D01*
X0115420Y0033157D01*
X0111249Y0033157D01*
X0110492Y0032401D01*
X0110492Y0026999D01*
X0111249Y0026243D01*
X0116256Y0026243D01*
X0117013Y0026999D01*
X0117013Y0028061D01*
X0117960Y0028061D01*
X0118902Y0029003D01*
X0118902Y0027196D01*
X0119659Y0026439D01*
X0120120Y0026439D01*
X0120120Y0024953D01*
X0121459Y0023614D01*
X0123353Y0023614D01*
X0124692Y0024953D01*
X0124692Y0026439D01*
X0125060Y0026439D01*
X0125529Y0026909D01*
X0125617Y0026757D01*
X0125912Y0026461D01*
X0126274Y0026252D01*
X0126678Y0026144D01*
X0128868Y0026144D01*
X0128868Y0029516D01*
X0129237Y0029516D01*
X0129237Y0026144D01*
X0131427Y0026144D01*
X0131831Y0026252D01*
X0132192Y0026461D01*
X0132488Y0026757D01*
X0132697Y0027119D01*
X0132776Y0027414D01*
X0133599Y0027414D01*
X0133599Y0026999D01*
X0134356Y0026243D01*
X0139363Y0026243D01*
X0140120Y0026999D01*
X0140120Y0031508D01*
X0140292Y0031508D01*
X0140292Y0026999D01*
X0141049Y0026243D01*
X0141860Y0026243D01*
X0141860Y0019476D01*
X0139914Y0017529D01*
X0139914Y0014471D01*
X0142077Y0012308D01*
X0145135Y0012308D01*
X0147298Y0014471D01*
X0147298Y0017529D01*
X0145245Y0019583D01*
X0145245Y0026243D01*
X0146056Y0026243D01*
X0146244Y0026430D01*
X0146759Y0025915D01*
X0150979Y0025915D01*
X0151736Y0026672D01*
X0151736Y0027483D01*
X0153876Y0027483D01*
X0153876Y0026672D01*
X0154633Y0025915D01*
X0158853Y0025915D01*
X0159610Y0026672D01*
X0159610Y0027761D01*
X0160849Y0027761D01*
X0160849Y0026950D01*
X0161605Y0026193D01*
X0167007Y0026193D01*
X0167763Y0026950D01*
X0167763Y0027761D01*
X0169149Y0027761D01*
X0169149Y0026950D01*
X0169905Y0026193D01*
X0171914Y0026193D01*
X0171914Y0019529D01*
X0169914Y0017529D01*
X0169914Y0014471D01*
X0172077Y0012308D01*
X0175135Y0012308D01*
X0177298Y0014471D01*
X0177298Y0017529D01*
X0175298Y0019529D01*
X0175298Y0026193D01*
X0175307Y0026193D01*
X0176063Y0026950D01*
X0176063Y0031957D01*
X0175307Y0032714D01*
X0169905Y0032714D01*
X0169149Y0031957D01*
X0169149Y0031146D01*
X0167763Y0031146D01*
X0167763Y0031957D01*
X0167007Y0032714D01*
X0161605Y0032714D01*
X0160849Y0031957D01*
X0160849Y0031146D01*
X0159610Y0031146D01*
X0159610Y0031679D01*
X0158853Y0032436D01*
X0154633Y0032436D01*
X0153876Y0031679D01*
X0153876Y0030868D01*
X0151736Y0030868D01*
X0151736Y0031679D01*
X0150979Y0032436D01*
X0146777Y0032436D01*
X0146056Y0033157D01*
X0145198Y0033157D01*
X0145198Y0033201D01*
X0144207Y0034192D01*
X0143507Y0034892D01*
X0141579Y0034892D01*
X0141579Y0036932D01*
X0146002Y0036932D01*
X0146002Y0036121D01*
X0146759Y0035364D01*
X0158853Y0035364D01*
X0159610Y0036121D01*
X0159610Y0036932D01*
X0160849Y0036932D01*
X0160849Y0033643D01*
X0161605Y0032886D01*
X0167007Y0032886D01*
X0167763Y0033643D01*
X0167763Y0038650D01*
X0167007Y0039407D01*
X0163438Y0039407D01*
X0162529Y0040317D01*
X0159610Y0040317D01*
X0159610Y0040614D01*
X0160353Y0040614D01*
X0160900Y0041161D01*
X0169149Y0041161D01*
X0169149Y0040350D01*
X0169905Y0039593D01*
X0170914Y0039593D01*
X0170914Y0039407D01*
X0169905Y0039407D01*
X0169149Y0038650D01*
X0169149Y0033643D01*
X0169905Y0032886D01*
X0175307Y0032886D01*
X0176063Y0033643D01*
X0176063Y0038650D01*
X0175307Y0039407D01*
X0174298Y0039407D01*
X0174298Y0039593D01*
X0175307Y0039593D01*
X0176063Y0040350D01*
X0176063Y0045357D01*
X0175335Y0046086D01*
X0175384Y0046099D01*
X0175746Y0046308D01*
X0176042Y0046603D01*
X0176251Y0046965D01*
X0176359Y0047369D01*
X0176359Y0049362D01*
X0172790Y0049362D01*
X0172790Y0049731D01*
X0172422Y0049731D01*
X0172422Y0053102D01*
X0170232Y0053102D01*
X0169828Y0052994D01*
X0169466Y0052785D01*
X0169170Y0052490D01*
X0168961Y0052128D01*
X0168853Y0051724D01*
X0168853Y0049731D01*
X0172422Y0049731D01*
X0172422Y0049362D01*
X0168853Y0049362D01*
X0168853Y0047369D01*
X0168961Y0046965D01*
X0169170Y0046603D01*
X0169466Y0046308D01*
X0169828Y0046099D01*
X0169877Y0046086D01*
X0169149Y0045357D01*
X0169149Y0044546D01*
X0162977Y0044546D01*
X0163373Y0044942D01*
X0163373Y0049162D01*
X0162616Y0049919D01*
X0158396Y0049919D01*
X0157639Y0049162D01*
X0157639Y0048744D01*
X0154898Y0048744D01*
X0154898Y0054307D01*
X0154198Y0055007D01*
X0154198Y0057143D01*
X0154663Y0057143D01*
X0155420Y0057899D01*
X0155420Y0063301D01*
X0154663Y0064057D01*
X0149656Y0064057D01*
X0148899Y0063301D01*
X0148899Y0061392D01*
X0144931Y0061392D01*
X0146192Y0062653D01*
X0146192Y0064547D01*
X0145598Y0065141D01*
X0145598Y0065643D01*
X0145956Y0065643D01*
X0146713Y0066399D01*
X0146713Y0071801D01*
X0145956Y0072557D01*
X0140949Y0072557D01*
X0140192Y0071801D01*
X0140192Y0066399D01*
X0140949Y0065643D01*
X0142214Y0065643D01*
X0142214Y0065141D01*
X0141620Y0064547D01*
X0141620Y0062653D01*
X0142881Y0061392D01*
X0141579Y0061392D01*
X0141579Y0064602D01*
X0140822Y0065359D01*
X0137390Y0065359D01*
X0136633Y0064602D01*
X0136633Y0055020D01*
X0136579Y0054966D01*
X0136579Y0064602D01*
X0135822Y0065359D01*
X0135798Y0065359D01*
X0135798Y0065643D01*
X0139263Y0065643D01*
X0140020Y0066399D01*
X0140020Y0071801D01*
X0139263Y0072557D01*
X0138452Y0072557D01*
X0138452Y0073743D01*
X0139263Y0073743D01*
X0139992Y0074471D01*
X0140005Y0074422D01*
X0140214Y0074060D01*
X0140509Y0073764D01*
X0140871Y0073555D01*
X0141275Y0073447D01*
X0143268Y0073447D01*
X0143268Y0077016D01*
X0143637Y0077016D01*
X0143637Y0077384D01*
X0147008Y0077384D01*
X0147008Y0079574D01*
X0146900Y0079978D01*
X0146691Y0080340D01*
X0146396Y0080636D01*
X0146034Y0080845D01*
X0145630Y0080953D01*
X0143637Y0080953D01*
X0143637Y0077384D01*
X0143268Y0077384D01*
X0143268Y0080953D01*
X0141275Y0080953D01*
X0140871Y0080845D01*
X0140509Y0080636D01*
X0140214Y0080340D01*
X0140005Y0079978D01*
X0139992Y0079929D01*
X0139263Y0080657D01*
X0134256Y0080657D01*
X0133499Y0079901D01*
X0133499Y0075954D01*
X0133380Y0076023D01*
X0132976Y0076131D01*
X0130393Y0076131D01*
X0130393Y0071775D01*
X0128843Y0071775D01*
X0128843Y0076131D01*
X0126259Y0076131D01*
X0125855Y0076023D01*
X0125494Y0075814D01*
X0125198Y0075518D01*
X0124989Y0075156D01*
X0124881Y0074752D01*
X0124881Y0071775D01*
X0128843Y0071775D01*
X0128843Y0070225D01*
X0130393Y0070225D01*
X0130393Y0065869D01*
X0132414Y0065869D01*
X0132414Y0065359D01*
X0132390Y0065359D01*
X0131633Y0064602D01*
X0131633Y0054870D01*
X0132111Y0054392D01*
X0131101Y0054392D01*
X0131579Y0054870D01*
X0131579Y0064602D01*
X0130822Y0065359D01*
X0127390Y0065359D01*
X0126746Y0064715D01*
X0126557Y0065042D01*
X0126262Y0065337D01*
X0125900Y0065546D01*
X0125496Y0065654D01*
X0124106Y0065654D01*
X0122716Y0065654D01*
X0122312Y0065546D01*
X0121950Y0065337D01*
X0121655Y0065042D01*
X0121466Y0064715D01*
X0121392Y0064790D01*
X0121392Y0066165D01*
X0122279Y0066165D01*
X0123036Y0066921D01*
X0123036Y0075079D01*
X0122279Y0075835D01*
X0120261Y0075835D01*
X0120251Y0076113D01*
X0120792Y0076653D01*
X0120792Y0078547D01*
X0119453Y0079886D01*
X0117559Y0079886D01*
X0116220Y0078547D01*
X0116220Y0076653D01*
X0116869Y0076005D01*
X0116875Y0075835D01*
X0114909Y0075835D01*
X0114152Y0075079D01*
X0114152Y0067600D01*
X0113263Y0068489D01*
X0113263Y0072057D01*
X0112507Y0072814D01*
X0107105Y0072814D01*
X0106398Y0072107D01*
X0106398Y0073693D01*
X0107105Y0072986D01*
X0112507Y0072986D01*
X0113263Y0073743D01*
X0113263Y0078750D01*
X0112507Y0079507D01*
X0107105Y0079507D01*
X0106349Y0078750D01*
X0106349Y0077992D01*
X0105405Y0077992D01*
X0104414Y0077001D01*
X0104414Y0077001D01*
X0104005Y0076592D01*
X0103363Y0075950D01*
X0103363Y0078650D01*
X0102607Y0079407D01*
X0101646Y0079407D01*
X0102192Y0079953D01*
X0102192Y0081847D01*
X0100853Y0083186D01*
X0098959Y0083186D01*
X0097620Y0081847D01*
X0097620Y0079953D01*
X0098166Y0079407D01*
X0097205Y0079407D01*
X0096449Y0078650D01*
X0096449Y0073643D01*
X0097205Y0072886D01*
X0102607Y0072886D01*
X0103014Y0073293D01*
X0103014Y0072307D01*
X0102607Y0072714D01*
X0097205Y0072714D01*
X0096449Y0071957D01*
X0096449Y0068650D01*
X0093953Y0071146D01*
X0093467Y0071146D01*
X0093467Y0072154D01*
X0092997Y0072623D01*
X0093149Y0072711D01*
X0093445Y0073006D01*
X0093654Y0073368D01*
X0093762Y0073772D01*
X0093762Y0075962D01*
X0090390Y0075962D01*
X0090390Y0076331D01*
X0090022Y0076331D01*
X0090022Y0079899D01*
X0088029Y0079899D01*
X0087625Y0079791D01*
X0087263Y0079582D01*
X0086967Y0079286D01*
X0086758Y0078925D01*
X0086650Y0078521D01*
X0086650Y0076331D01*
X0090022Y0076331D01*
X0090022Y0075962D01*
X0086650Y0075962D01*
X0086650Y0073772D01*
X0086758Y0073368D01*
X0086967Y0073006D01*
X0087263Y0072711D01*
X0087415Y0072623D01*
X0086945Y0072154D01*
X0086945Y0066753D01*
X0087702Y0065996D01*
X0088394Y0065996D01*
X0087899Y0065501D01*
X0087899Y0064492D01*
X0087060Y0064492D01*
X0083667Y0067886D01*
X0083667Y0071454D01*
X0083021Y0072100D01*
X0083667Y0072746D01*
X0083667Y0078147D01*
X0082910Y0078904D01*
X0077902Y0078904D01*
X0077145Y0078147D01*
X0077145Y0077539D01*
X0076486Y0077539D01*
X0074706Y0075759D01*
X0073573Y0076892D01*
X0071313Y0076892D01*
X0071313Y0077501D01*
X0070556Y0078257D01*
X0065549Y0078257D01*
X0064820Y0077529D01*
X0064807Y0077578D01*
X0064598Y0077940D01*
X0064303Y0078236D01*
X0063941Y0078445D01*
X0063537Y0078553D01*
X0061544Y0078553D01*
X0061544Y0074984D01*
X0061175Y0074984D01*
X0061175Y0074616D01*
X0059278Y0074616D01*
X0059278Y0074800D01*
X0056706Y0074800D01*
X0056706Y0074800D01*
X0056706Y0077372D01*
X0056453Y0077372D01*
X0055956Y0077273D01*
X0055488Y0077079D01*
X0055067Y0076798D01*
X0054708Y0076439D01*
X0054427Y0076018D01*
X0054233Y0075550D01*
X0054134Y0075053D01*
X0054134Y0074800D01*
X0054134Y0074547D01*
X0054233Y0074050D01*
X0054427Y0073582D01*
X0054708Y0073161D01*
X0055067Y0072802D01*
X0055488Y0072521D01*
X0055956Y0072327D01*
X0056453Y0072228D01*
X0056706Y0072228D01*
X0056959Y0072228D01*
X0057456Y0072327D01*
X0057804Y0072471D01*
X0057804Y0072426D01*
X0057912Y0072022D01*
X0058121Y0071660D01*
X0058416Y0071364D01*
X0058778Y0071155D01*
X0059182Y0071047D01*
X0061175Y0071047D01*
X0061175Y0074616D01*
X0061544Y0074616D01*
X0061544Y0071047D01*
X0063537Y0071047D01*
X0063941Y0071155D01*
X0064303Y0071364D01*
X0064598Y0071660D01*
X0064807Y0072022D01*
X0064820Y0072071D01*
X0065549Y0071343D01*
X0070556Y0071343D01*
X0071313Y0072099D01*
X0071313Y0072708D01*
X0071839Y0072708D01*
X0072614Y0071933D01*
X0072614Y0057667D01*
X0069745Y0054798D01*
X0067436Y0054798D01*
X0067076Y0055668D01*
X0065605Y0057139D01*
X0063683Y0057935D01*
X0053729Y0057935D01*
X0051807Y0057139D01*
X0050336Y0055668D01*
X0049540Y0053746D01*
X0049540Y0051665D01*
X0050336Y0049743D01*
X0051807Y0048272D01*
X0053729Y0047476D01*
X0063683Y0047476D01*
X0065605Y0048272D01*
X0067076Y0049743D01*
X0067436Y0050613D01*
X0071478Y0050613D01*
X0072704Y0051839D01*
X0076798Y0055933D01*
X0076798Y0071933D01*
X0077378Y0072513D01*
X0077791Y0072100D01*
X0077145Y0071454D01*
X0077145Y0066053D01*
X0077902Y0065296D01*
X0081470Y0065296D01*
X0084667Y0062099D01*
X0085659Y0061108D01*
X0087899Y0061108D01*
X0087899Y0060099D01*
X0088656Y0059343D01*
X0093663Y0059343D01*
X0094420Y0060099D01*
X0094420Y0065501D01*
X0093663Y0066257D01*
X0092971Y0066257D01*
X0093467Y0066753D01*
X0093467Y0066846D01*
X0094702Y0065611D01*
X0094592Y0065501D01*
X0094592Y0060099D01*
X0095349Y0059343D01*
X0096160Y0059343D01*
X0096160Y0058157D01*
X0095349Y0058157D01*
X0094592Y0057401D01*
X0094592Y0051999D01*
X0095349Y0051243D01*
X0096218Y0051243D01*
X0096203Y0050057D01*
X0095349Y0050057D01*
X0094620Y0049329D01*
X0094607Y0049378D01*
X0094398Y0049740D01*
X0094103Y0050036D01*
X0093741Y0050245D01*
X0093337Y0050353D01*
X0091344Y0050353D01*
X0091344Y0046784D01*
X0090975Y0046784D01*
X0090975Y0046416D01*
X0087604Y0046416D01*
X0087604Y0044226D01*
X0087712Y0043822D01*
X0087921Y0043460D01*
X0088216Y0043164D01*
X0088578Y0042955D01*
X0088982Y0042847D01*
X0090360Y0042847D01*
X0089470Y0041957D01*
X0088656Y0041957D01*
X0087899Y0041201D01*
X0087899Y0035799D01*
X0088506Y0035193D01*
X0088420Y0035107D01*
X0086905Y0035107D01*
X0086241Y0034443D01*
X0086241Y0036597D01*
X0085485Y0037354D01*
X0077327Y0037354D01*
X0076571Y0036597D01*
X0076571Y0034892D01*
X0071573Y0034892D01*
X0067503Y0038962D01*
X0067872Y0039854D01*
X0067872Y0041935D01*
X0067076Y0043857D01*
X0065605Y0045328D01*
X0063683Y0046124D01*
X0053729Y0046124D01*
X0051807Y0045328D01*
X0050336Y0043857D01*
X0049540Y0041935D01*
X0049540Y0039854D01*
X0050336Y0037932D01*
X0051807Y0036461D01*
X0053729Y0035665D01*
X0063683Y0035665D01*
X0064531Y0036016D01*
X0069839Y0030708D01*
X0070314Y0030708D01*
X0070314Y0029707D01*
X0069705Y0029707D01*
X0068949Y0028950D01*
X0069770Y0030778D02*
X0039474Y0030778D01*
X0039474Y0032376D02*
X0068171Y0032376D01*
X0066573Y0033975D02*
X0039474Y0033975D01*
X0039474Y0035573D02*
X0064974Y0035573D01*
X0069293Y0037172D02*
X0077146Y0037172D01*
X0076571Y0035573D02*
X0070891Y0035573D01*
X0070706Y0032800D02*
X0062612Y0040894D01*
X0058706Y0040894D01*
X0065768Y0045164D02*
X0087604Y0045164D01*
X0087860Y0043566D02*
X0067196Y0043566D01*
X0067859Y0041967D02*
X0089480Y0041967D01*
X0087899Y0040369D02*
X0067872Y0040369D01*
X0067694Y0038770D02*
X0087899Y0038770D01*
X0087899Y0037172D02*
X0085666Y0037172D01*
X0086241Y0035573D02*
X0088125Y0035573D01*
X0081406Y0032912D02*
X0081294Y0032800D01*
X0072706Y0032800D01*
X0072406Y0032500D01*
X0072406Y0026446D01*
X0075863Y0025982D02*
X0076980Y0025982D01*
X0075863Y0027581D02*
X0086149Y0027581D01*
X0086194Y0029179D02*
X0086312Y0029179D01*
X0086149Y0025982D02*
X0085832Y0025982D01*
X0088032Y0021187D02*
X0092214Y0021187D01*
X0095598Y0021187D02*
X0105414Y0021187D01*
X0105414Y0022785D02*
X0104224Y0022785D01*
X0102188Y0022785D02*
X0101067Y0022785D01*
X0101139Y0019588D02*
X0105414Y0019588D01*
X0106423Y0017990D02*
X0102738Y0017990D01*
X0103198Y0016391D02*
X0108022Y0016391D01*
X0111209Y0017990D02*
X0126274Y0017990D01*
X0127873Y0019588D02*
X0109611Y0019588D01*
X0108798Y0021187D02*
X0141860Y0021187D01*
X0141860Y0022785D02*
X0108798Y0022785D01*
X0108798Y0024384D02*
X0120690Y0024384D01*
X0120120Y0025982D02*
X0108798Y0025982D01*
X0110320Y0027581D02*
X0110492Y0027581D01*
X0110492Y0029179D02*
X0110320Y0029179D01*
X0110320Y0030778D02*
X0110492Y0030778D01*
X0110492Y0032376D02*
X0110320Y0032376D01*
X0111156Y0033975D02*
X0112056Y0033975D01*
X0111633Y0035573D02*
X0111579Y0035573D01*
X0111579Y0037172D02*
X0111633Y0037172D01*
X0111579Y0038770D02*
X0111633Y0038770D01*
X0111579Y0040369D02*
X0111633Y0040369D01*
X0111579Y0041967D02*
X0111633Y0041967D01*
X0111579Y0043566D02*
X0111633Y0043566D01*
X0106633Y0043566D02*
X0103865Y0043566D01*
X0102266Y0041967D02*
X0106633Y0041967D01*
X0106633Y0040369D02*
X0101113Y0040369D01*
X0101113Y0038770D02*
X0106219Y0038770D01*
X0105367Y0037172D02*
X0101113Y0037172D01*
X0100887Y0035573D02*
X0105367Y0035573D01*
X0105367Y0033975D02*
X0101067Y0033975D01*
X0103523Y0032376D02*
X0103799Y0032376D01*
X0117013Y0027581D02*
X0118902Y0027581D01*
X0124692Y0025982D02*
X0141860Y0025982D01*
X0140292Y0027581D02*
X0140120Y0027581D01*
X0140120Y0029179D02*
X0140292Y0029179D01*
X0140292Y0030778D02*
X0140120Y0030778D01*
X0144424Y0033975D02*
X0160849Y0033975D01*
X0160849Y0035573D02*
X0159062Y0035573D01*
X0158913Y0032376D02*
X0161267Y0032376D01*
X0167345Y0032376D02*
X0169567Y0032376D01*
X0169149Y0033975D02*
X0167763Y0033975D01*
X0167763Y0035573D02*
X0169149Y0035573D01*
X0169149Y0037172D02*
X0167763Y0037172D01*
X0167643Y0038770D02*
X0169269Y0038770D01*
X0169149Y0040369D02*
X0159610Y0040369D01*
X0163373Y0045164D02*
X0169149Y0045164D01*
X0169078Y0046763D02*
X0163373Y0046763D01*
X0163373Y0048361D02*
X0168853Y0048361D01*
X0168853Y0049960D02*
X0154898Y0049960D01*
X0154898Y0051558D02*
X0157639Y0051558D01*
X0157639Y0051438D02*
X0158396Y0050681D01*
X0162616Y0050681D01*
X0163373Y0051438D01*
X0163373Y0054022D01*
X0164212Y0054861D01*
X0169149Y0054861D01*
X0169149Y0054050D01*
X0169905Y0053293D01*
X0175307Y0053293D01*
X0176063Y0054050D01*
X0176063Y0059057D01*
X0175335Y0059786D01*
X0175384Y0059799D01*
X0175746Y0060008D01*
X0176042Y0060303D01*
X0176251Y0060665D01*
X0176359Y0061069D01*
X0176359Y0063062D01*
X0172790Y0063062D01*
X0172790Y0063431D01*
X0172422Y0063431D01*
X0172422Y0066802D01*
X0170232Y0066802D01*
X0169828Y0066694D01*
X0169466Y0066485D01*
X0169170Y0066190D01*
X0168961Y0065828D01*
X0168853Y0065424D01*
X0168853Y0063431D01*
X0172422Y0063431D01*
X0172422Y0063062D01*
X0168853Y0063062D01*
X0168853Y0061069D01*
X0168961Y0060665D01*
X0169170Y0060303D01*
X0169466Y0060008D01*
X0169828Y0059799D01*
X0169877Y0059786D01*
X0169149Y0059057D01*
X0169149Y0058246D01*
X0162811Y0058246D01*
X0161819Y0057254D01*
X0160980Y0056415D01*
X0158396Y0056415D01*
X0157639Y0055658D01*
X0157639Y0051438D01*
X0157639Y0053157D02*
X0154898Y0053157D01*
X0154450Y0054755D02*
X0157639Y0054755D01*
X0158335Y0056354D02*
X0154198Y0056354D01*
X0155420Y0057952D02*
X0155592Y0057952D01*
X0155592Y0057899D02*
X0156349Y0057143D01*
X0161356Y0057143D01*
X0162113Y0057899D01*
X0162113Y0058514D01*
X0163653Y0058514D01*
X0164992Y0059853D01*
X0164992Y0061747D01*
X0163653Y0063086D01*
X0162113Y0063086D01*
X0162113Y0063301D01*
X0161356Y0064057D01*
X0156349Y0064057D01*
X0155592Y0063301D01*
X0155592Y0057899D01*
X0155592Y0059551D02*
X0155420Y0059551D01*
X0155420Y0061149D02*
X0155592Y0061149D01*
X0155592Y0062748D02*
X0155420Y0062748D01*
X0148899Y0062748D02*
X0146192Y0062748D01*
X0146192Y0064346D02*
X0168853Y0064346D01*
X0169029Y0065945D02*
X0146259Y0065945D01*
X0146713Y0067543D02*
X0185452Y0067543D01*
X0185815Y0067180D02*
X0198696Y0067180D01*
X0199453Y0067937D01*
X0199453Y0075307D01*
X0198696Y0076064D01*
X0185815Y0076064D01*
X0185058Y0075307D01*
X0185058Y0067937D01*
X0185815Y0067180D01*
X0185058Y0069142D02*
X0146713Y0069142D01*
X0146713Y0070740D02*
X0185058Y0070740D01*
X0185058Y0072339D02*
X0146175Y0072339D01*
X0146034Y0073555D02*
X0146396Y0073764D01*
X0146691Y0074060D01*
X0146900Y0074422D01*
X0147008Y0074826D01*
X0147008Y0077016D01*
X0143637Y0077016D01*
X0143637Y0073447D01*
X0145630Y0073447D01*
X0146034Y0073555D01*
X0146569Y0073937D02*
X0185058Y0073937D01*
X0185287Y0075536D02*
X0147008Y0075536D01*
X0147008Y0078733D02*
X0200581Y0078733D01*
X0199919Y0080332D02*
X0146696Y0080332D01*
X0143637Y0080332D02*
X0143268Y0080332D01*
X0143268Y0078733D02*
X0143637Y0078733D01*
X0143637Y0077134D02*
X0202136Y0077134D01*
X0204699Y0075536D02*
X0199224Y0075536D01*
X0199453Y0073937D02*
X0215040Y0073937D01*
X0215040Y0072339D02*
X0199453Y0072339D01*
X0199453Y0070740D02*
X0215040Y0070740D01*
X0215040Y0069142D02*
X0199453Y0069142D01*
X0199059Y0067543D02*
X0215040Y0067543D01*
X0215040Y0065945D02*
X0213233Y0065945D01*
X0213233Y0066252D02*
X0212476Y0067009D01*
X0189752Y0067009D01*
X0188995Y0066252D01*
X0188995Y0065440D01*
X0187353Y0065440D01*
X0181614Y0059701D01*
X0181614Y0041341D01*
X0181020Y0040747D01*
X0181020Y0038853D01*
X0182359Y0037514D01*
X0184253Y0037514D01*
X0185456Y0038717D01*
X0186359Y0037814D01*
X0188253Y0037814D01*
X0188649Y0038210D01*
X0188995Y0038211D01*
X0188995Y0037622D01*
X0189752Y0036865D01*
X0212476Y0036865D01*
X0213233Y0037622D01*
X0213233Y0042630D01*
X0212476Y0043387D01*
X0189752Y0043387D01*
X0188995Y0042630D01*
X0188995Y0041995D01*
X0188644Y0041995D01*
X0188253Y0042386D01*
X0186359Y0042386D01*
X0185156Y0041183D01*
X0184998Y0041341D01*
X0184998Y0046975D01*
X0186259Y0045714D01*
X0188153Y0045714D01*
X0188747Y0046308D01*
X0188995Y0046308D01*
X0188995Y0045496D01*
X0189752Y0044739D01*
X0212476Y0044739D01*
X0213233Y0045496D01*
X0213233Y0050504D01*
X0212476Y0051261D01*
X0189752Y0051261D01*
X0188995Y0050504D01*
X0188995Y0049692D01*
X0188747Y0049692D01*
X0188153Y0050286D01*
X0186259Y0050286D01*
X0184998Y0049025D01*
X0184998Y0058299D01*
X0188755Y0062056D01*
X0188995Y0062056D01*
X0188995Y0061244D01*
X0189752Y0060487D01*
X0212476Y0060487D01*
X0213233Y0061244D01*
X0213233Y0066252D01*
X0213233Y0064346D02*
X0215040Y0064346D01*
X0215040Y0062748D02*
X0213233Y0062748D01*
X0213138Y0061149D02*
X0215040Y0061149D01*
X0215040Y0059551D02*
X0186250Y0059551D01*
X0186485Y0058160D02*
X0185146Y0056821D01*
X0185146Y0054927D01*
X0186485Y0053588D01*
X0188379Y0053588D01*
X0188973Y0054182D01*
X0188995Y0054182D01*
X0188995Y0053370D01*
X0189752Y0052613D01*
X0212476Y0052613D01*
X0213233Y0053370D01*
X0213233Y0058378D01*
X0212476Y0059135D01*
X0189752Y0059135D01*
X0188995Y0058378D01*
X0188995Y0057566D01*
X0188973Y0057566D01*
X0188379Y0058160D01*
X0186485Y0058160D01*
X0186278Y0057952D02*
X0184998Y0057952D01*
X0184998Y0056354D02*
X0185146Y0056354D01*
X0184998Y0054755D02*
X0185318Y0054755D01*
X0184998Y0053157D02*
X0189208Y0053157D01*
X0184998Y0051558D02*
X0215040Y0051558D01*
X0215040Y0049960D02*
X0213233Y0049960D01*
X0213233Y0048361D02*
X0215040Y0048361D01*
X0215040Y0046763D02*
X0213233Y0046763D01*
X0212901Y0045164D02*
X0215040Y0045164D01*
X0215040Y0043566D02*
X0184998Y0043566D01*
X0184998Y0045164D02*
X0189327Y0045164D01*
X0185211Y0046763D02*
X0184998Y0046763D01*
X0181614Y0046763D02*
X0176134Y0046763D01*
X0176063Y0045164D02*
X0181614Y0045164D01*
X0181614Y0043566D02*
X0176063Y0043566D01*
X0176063Y0041967D02*
X0181614Y0041967D01*
X0181020Y0040369D02*
X0176063Y0040369D01*
X0175943Y0038770D02*
X0181103Y0038770D01*
X0184998Y0041967D02*
X0185941Y0041967D01*
X0189446Y0037172D02*
X0176063Y0037172D01*
X0176063Y0035573D02*
X0189455Y0035573D01*
X0189312Y0035491D02*
X0189017Y0035195D01*
X0188808Y0034833D01*
X0188700Y0034429D01*
X0188700Y0032436D01*
X0200930Y0032436D01*
X0200930Y0035808D01*
X0190078Y0035808D01*
X0189674Y0035700D01*
X0189312Y0035491D01*
X0188700Y0033975D02*
X0176063Y0033975D01*
X0175645Y0032376D02*
X0200930Y0032376D01*
X0200930Y0032436D02*
X0200930Y0032068D01*
X0201298Y0032068D01*
X0201298Y0032436D01*
X0213528Y0032436D01*
X0213528Y0034429D01*
X0213420Y0034833D01*
X0213211Y0035195D01*
X0212915Y0035491D01*
X0212553Y0035700D01*
X0212150Y0035808D01*
X0201298Y0035808D01*
X0201298Y0032436D01*
X0200930Y0032436D01*
X0200930Y0032068D02*
X0188700Y0032068D01*
X0188700Y0030074D01*
X0188808Y0029671D01*
X0189017Y0029309D01*
X0189312Y0029013D01*
X0189648Y0028820D01*
X0185815Y0028820D01*
X0185058Y0028063D01*
X0185058Y0020693D01*
X0185815Y0019936D01*
X0198696Y0019936D01*
X0199453Y0020693D01*
X0199453Y0028063D01*
X0198820Y0028696D01*
X0200930Y0028696D01*
X0200930Y0032068D01*
X0201298Y0032068D02*
X0201298Y0028696D01*
X0212150Y0028696D01*
X0212553Y0028804D01*
X0212915Y0029013D01*
X0213211Y0029309D01*
X0213420Y0029671D01*
X0213528Y0030074D01*
X0213528Y0032068D01*
X0201298Y0032068D01*
X0201298Y0032376D02*
X0215040Y0032376D01*
X0215040Y0033975D02*
X0213528Y0033975D01*
X0212772Y0035573D02*
X0215040Y0035573D01*
X0215040Y0037172D02*
X0212782Y0037172D01*
X0213233Y0038770D02*
X0215040Y0038770D01*
X0215040Y0040369D02*
X0213233Y0040369D01*
X0213233Y0041967D02*
X0215040Y0041967D01*
X0201298Y0035573D02*
X0200930Y0035573D01*
X0200930Y0033975D02*
X0201298Y0033975D01*
X0201298Y0030778D02*
X0200930Y0030778D01*
X0200930Y0029179D02*
X0201298Y0029179D01*
X0199453Y0027581D02*
X0215040Y0027581D01*
X0215040Y0029179D02*
X0213081Y0029179D01*
X0213528Y0030778D02*
X0215040Y0030778D01*
X0215040Y0025982D02*
X0199453Y0025982D01*
X0199453Y0024384D02*
X0203988Y0024384D01*
X0201842Y0022785D02*
X0199453Y0022785D01*
X0199453Y0021187D02*
X0200459Y0021187D01*
X0199797Y0019588D02*
X0175298Y0019588D01*
X0176838Y0017990D02*
X0199292Y0017990D01*
X0199292Y0016391D02*
X0177298Y0016391D01*
X0177298Y0014793D02*
X0199343Y0014793D01*
X0200006Y0013194D02*
X0176021Y0013194D01*
X0171191Y0013194D02*
X0146021Y0013194D01*
X0147298Y0014793D02*
X0169914Y0014793D01*
X0169914Y0016391D02*
X0147298Y0016391D01*
X0146838Y0017990D02*
X0170374Y0017990D01*
X0171914Y0019588D02*
X0145245Y0019588D01*
X0141860Y0019588D02*
X0131139Y0019588D01*
X0132738Y0017990D02*
X0140374Y0017990D01*
X0139914Y0016391D02*
X0133198Y0016391D01*
X0133198Y0014793D02*
X0139914Y0014793D01*
X0141191Y0013194D02*
X0131921Y0013194D01*
X0127091Y0013194D02*
X0101921Y0013194D01*
X0103198Y0014793D02*
X0109620Y0014793D01*
X0097091Y0013194D02*
X0073833Y0013194D01*
X0073253Y0012614D02*
X0074592Y0013953D01*
X0074592Y0015847D01*
X0073998Y0016441D01*
X0073998Y0016493D01*
X0075107Y0016493D01*
X0075863Y0017250D01*
X0075863Y0022257D01*
X0075107Y0023014D01*
X0069705Y0023014D01*
X0068949Y0022257D01*
X0068949Y0017250D01*
X0069705Y0016493D01*
X0070614Y0016493D01*
X0070614Y0016441D01*
X0070020Y0015847D01*
X0070020Y0013953D01*
X0071359Y0012614D01*
X0073253Y0012614D01*
X0074592Y0014793D02*
X0094920Y0014793D01*
X0093322Y0016391D02*
X0074048Y0016391D01*
X0075863Y0017990D02*
X0076784Y0017990D01*
X0076571Y0019588D02*
X0075863Y0019588D01*
X0075863Y0021187D02*
X0076571Y0021187D01*
X0076571Y0022785D02*
X0075336Y0022785D01*
X0075863Y0024384D02*
X0076571Y0024384D01*
X0069476Y0022785D02*
X0052673Y0022785D01*
X0054055Y0021187D02*
X0068949Y0021187D01*
X0068949Y0019588D02*
X0054717Y0019588D01*
X0055223Y0017990D02*
X0068949Y0017990D01*
X0070564Y0016391D02*
X0055223Y0016391D01*
X0055171Y0014793D02*
X0070020Y0014793D01*
X0070779Y0013194D02*
X0054509Y0013194D01*
X0053768Y0011596D02*
X0200746Y0011596D01*
X0202344Y0009997D02*
X0052170Y0009997D01*
X0050526Y0024384D02*
X0068949Y0024384D01*
X0075634Y0029179D02*
X0076618Y0029179D01*
X0072706Y0032800D02*
X0070706Y0032800D01*
X0051097Y0037172D02*
X0039474Y0037172D01*
X0039474Y0038770D02*
X0049989Y0038770D01*
X0049540Y0040369D02*
X0039474Y0040369D01*
X0039474Y0041967D02*
X0049553Y0041967D01*
X0050216Y0043566D02*
X0039474Y0043566D01*
X0039474Y0045164D02*
X0051644Y0045164D01*
X0051718Y0048361D02*
X0039474Y0048361D01*
X0039474Y0049960D02*
X0050246Y0049960D01*
X0049584Y0051558D02*
X0039474Y0051558D01*
X0039474Y0053157D02*
X0049540Y0053157D01*
X0049958Y0054755D02*
X0039474Y0054755D01*
X0039474Y0056354D02*
X0051022Y0056354D01*
X0058706Y0052706D02*
X0070612Y0052706D01*
X0074706Y0056800D01*
X0074706Y0072800D01*
X0072706Y0074800D01*
X0068052Y0074800D01*
X0067480Y0074228D01*
X0071313Y0072339D02*
X0072208Y0072339D01*
X0072614Y0070740D02*
X0039474Y0070740D01*
X0039474Y0072339D02*
X0055927Y0072339D01*
X0056706Y0072339D02*
X0056706Y0072339D01*
X0056706Y0072228D02*
X0056706Y0074800D01*
X0056706Y0074800D01*
X0056706Y0077372D01*
X0056959Y0077372D01*
X0057456Y0077273D01*
X0057804Y0077129D01*
X0057804Y0077174D01*
X0057912Y0077578D01*
X0058121Y0077940D01*
X0058416Y0078236D01*
X0058778Y0078445D01*
X0059182Y0078553D01*
X0061175Y0078553D01*
X0061175Y0074984D01*
X0059278Y0074984D01*
X0059278Y0074800D01*
X0056706Y0074800D01*
X0056706Y0074800D01*
X0056706Y0074800D01*
X0054134Y0074800D01*
X0056706Y0074800D01*
X0056706Y0072228D01*
X0057485Y0072339D02*
X0057827Y0072339D01*
X0056706Y0073937D02*
X0056706Y0073937D01*
X0054280Y0073937D02*
X0039474Y0073937D01*
X0039474Y0075536D02*
X0043282Y0075536D01*
X0040719Y0077134D02*
X0039474Y0077134D01*
X0049815Y0075536D02*
X0054230Y0075536D01*
X0055622Y0077134D02*
X0052378Y0077134D01*
X0053933Y0078733D02*
X0077731Y0078733D01*
X0076082Y0077134D02*
X0071313Y0077134D01*
X0074706Y0072800D02*
X0077352Y0075446D01*
X0080406Y0075446D01*
X0083667Y0075536D02*
X0086650Y0075536D01*
X0086650Y0077134D02*
X0083667Y0077134D01*
X0083081Y0078733D02*
X0086707Y0078733D01*
X0090022Y0078733D02*
X0090390Y0078733D01*
X0090390Y0079899D02*
X0090390Y0076331D01*
X0093762Y0076331D01*
X0093762Y0078521D01*
X0093654Y0078925D01*
X0093445Y0079286D01*
X0093149Y0079582D01*
X0092787Y0079791D01*
X0092383Y0079899D01*
X0090390Y0079899D01*
X0090390Y0077134D02*
X0090022Y0077134D01*
X0093762Y0077134D02*
X0096449Y0077134D01*
X0096449Y0075536D02*
X0093762Y0075536D01*
X0093762Y0073937D02*
X0096449Y0073937D01*
X0096830Y0072339D02*
X0093282Y0072339D01*
X0094359Y0070740D02*
X0096449Y0070740D01*
X0096449Y0069142D02*
X0095957Y0069142D01*
X0094368Y0065945D02*
X0093976Y0065945D01*
X0094420Y0064346D02*
X0094592Y0064346D01*
X0094592Y0062748D02*
X0094420Y0062748D01*
X0094420Y0061149D02*
X0094592Y0061149D01*
X0095140Y0059551D02*
X0093872Y0059551D01*
X0093663Y0058157D02*
X0088656Y0058157D01*
X0087899Y0057401D01*
X0087899Y0056600D01*
X0086792Y0057707D01*
X0086792Y0058547D01*
X0085453Y0059886D01*
X0083559Y0059886D01*
X0082220Y0058547D01*
X0082220Y0056653D01*
X0083559Y0055314D01*
X0084399Y0055314D01*
X0085714Y0053999D01*
X0086705Y0053008D01*
X0087899Y0053008D01*
X0087899Y0051999D01*
X0088656Y0051243D01*
X0093663Y0051243D01*
X0094420Y0051999D01*
X0094420Y0057401D01*
X0093663Y0058157D01*
X0093868Y0057952D02*
X0095144Y0057952D01*
X0094592Y0056354D02*
X0094420Y0056354D01*
X0094420Y0054755D02*
X0094592Y0054755D01*
X0094592Y0053157D02*
X0094420Y0053157D01*
X0093979Y0051558D02*
X0095033Y0051558D01*
X0095251Y0049960D02*
X0094179Y0049960D01*
X0091344Y0049960D02*
X0090975Y0049960D01*
X0090975Y0050353D02*
X0088982Y0050353D01*
X0088578Y0050245D01*
X0088216Y0050036D01*
X0087921Y0049740D01*
X0087712Y0049378D01*
X0087604Y0048974D01*
X0087604Y0046784D01*
X0090975Y0046784D01*
X0090975Y0050353D01*
X0090975Y0048361D02*
X0091344Y0048361D01*
X0088141Y0049960D02*
X0067166Y0049960D01*
X0065694Y0048361D02*
X0087604Y0048361D01*
X0088340Y0051558D02*
X0072423Y0051558D01*
X0074022Y0053157D02*
X0086556Y0053157D01*
X0085714Y0053999D02*
X0085714Y0053999D01*
X0084958Y0054755D02*
X0075620Y0054755D01*
X0076798Y0056354D02*
X0082520Y0056354D01*
X0082220Y0057952D02*
X0076798Y0057952D01*
X0076798Y0059551D02*
X0083224Y0059551D01*
X0085788Y0059551D02*
X0088447Y0059551D01*
X0085617Y0061149D02*
X0076798Y0061149D01*
X0076798Y0062748D02*
X0084019Y0062748D01*
X0082420Y0064346D02*
X0076798Y0064346D01*
X0076798Y0065945D02*
X0077253Y0065945D01*
X0077145Y0067543D02*
X0076798Y0067543D01*
X0076798Y0069142D02*
X0077145Y0069142D01*
X0077145Y0070740D02*
X0076798Y0070740D01*
X0077204Y0072339D02*
X0077552Y0072339D01*
X0083260Y0072339D02*
X0087130Y0072339D01*
X0086945Y0070740D02*
X0083667Y0070740D01*
X0083667Y0069142D02*
X0086945Y0069142D01*
X0086945Y0067543D02*
X0084009Y0067543D01*
X0085608Y0065945D02*
X0088343Y0065945D01*
X0099545Y0059343D02*
X0100356Y0059343D01*
X0101113Y0060099D01*
X0101113Y0063100D01*
X0102120Y0062093D01*
X0102120Y0061253D01*
X0103459Y0059914D01*
X0104299Y0059914D01*
X0106169Y0058044D01*
X0106633Y0058044D01*
X0106633Y0054870D01*
X0107390Y0054113D01*
X0110822Y0054113D01*
X0111579Y0054870D01*
X0111579Y0064602D01*
X0110822Y0065359D01*
X0107390Y0065359D01*
X0106633Y0064602D01*
X0106633Y0063206D01*
X0105353Y0064486D01*
X0104513Y0064486D01*
X0102706Y0066293D01*
X0103363Y0066950D01*
X0103363Y0067761D01*
X0104060Y0067761D01*
X0105407Y0069108D01*
X0106349Y0070050D01*
X0106349Y0067050D01*
X0107105Y0066293D01*
X0110674Y0066293D01*
X0111999Y0064968D01*
X0111633Y0064602D01*
X0111633Y0054870D01*
X0112390Y0054113D01*
X0115822Y0054113D01*
X0116579Y0054870D01*
X0116579Y0064602D01*
X0115822Y0065359D01*
X0115798Y0065359D01*
X0115798Y0065954D01*
X0115588Y0066165D01*
X0116820Y0066165D01*
X0116820Y0064790D01*
X0116633Y0064602D01*
X0116633Y0054870D01*
X0117390Y0054113D01*
X0120822Y0054113D01*
X0121466Y0054757D01*
X0121655Y0054431D01*
X0121950Y0054135D01*
X0122312Y0053926D01*
X0122716Y0053818D01*
X0124106Y0053818D01*
X0124591Y0053818D01*
X0124420Y0053647D01*
X0124420Y0051753D01*
X0125759Y0050414D01*
X0127653Y0050414D01*
X0128247Y0051008D01*
X0137407Y0051008D01*
X0138398Y0051999D01*
X0140512Y0054113D01*
X0140822Y0054113D01*
X0141579Y0054870D01*
X0141579Y0058008D01*
X0148899Y0058008D01*
X0148899Y0057899D01*
X0149656Y0057143D01*
X0150814Y0057143D01*
X0150814Y0055064D01*
X0148071Y0055064D01*
X0147314Y0054307D01*
X0147314Y0047493D01*
X0148071Y0046736D01*
X0151255Y0046736D01*
X0151399Y0046592D01*
X0135207Y0046592D01*
X0133805Y0046592D01*
X0132414Y0045201D01*
X0132414Y0044887D01*
X0132390Y0044887D01*
X0131746Y0044243D01*
X0131557Y0044569D01*
X0131262Y0044865D01*
X0130900Y0045074D01*
X0130496Y0045182D01*
X0129106Y0045182D01*
X0129106Y0039264D01*
X0129106Y0039264D01*
X0129106Y0045182D01*
X0127716Y0045182D01*
X0127312Y0045074D01*
X0126950Y0044865D01*
X0126655Y0044569D01*
X0126466Y0044243D01*
X0125822Y0044887D01*
X0122390Y0044887D01*
X0121633Y0044130D01*
X0121633Y0034398D01*
X0121930Y0034100D01*
X0121522Y0033692D01*
X0120791Y0032961D01*
X0119992Y0032961D01*
X0119992Y0033247D01*
X0119598Y0033641D01*
X0120822Y0033641D01*
X0121579Y0034398D01*
X0121579Y0044130D01*
X0120822Y0044887D01*
X0120798Y0044887D01*
X0120798Y0045101D01*
X0119807Y0046092D01*
X0115407Y0050492D01*
X0102005Y0050492D01*
X0101014Y0049501D01*
X0100963Y0049450D01*
X0100356Y0050057D01*
X0099588Y0050057D01*
X0099603Y0051243D01*
X0100356Y0051243D01*
X0101113Y0051999D01*
X0101113Y0057401D01*
X0100356Y0058157D01*
X0099545Y0058157D01*
X0099545Y0059343D01*
X0100565Y0059551D02*
X0104662Y0059551D01*
X0102224Y0061149D02*
X0101113Y0061149D01*
X0101113Y0062748D02*
X0101465Y0062748D01*
X0105492Y0064346D02*
X0106633Y0064346D01*
X0103054Y0065945D02*
X0111022Y0065945D01*
X0111579Y0064346D02*
X0111633Y0064346D01*
X0111579Y0062748D02*
X0111633Y0062748D01*
X0111579Y0061149D02*
X0111633Y0061149D01*
X0111579Y0059551D02*
X0111633Y0059551D01*
X0111579Y0057952D02*
X0111633Y0057952D01*
X0111579Y0056354D02*
X0111633Y0056354D01*
X0111748Y0054755D02*
X0111464Y0054755D01*
X0106748Y0054755D02*
X0101113Y0054755D01*
X0101113Y0053157D02*
X0124420Y0053157D01*
X0124106Y0053818D02*
X0124106Y0059736D01*
X0124106Y0059736D01*
X0124106Y0053818D01*
X0124106Y0054755D02*
X0124106Y0054755D01*
X0124106Y0056354D02*
X0124106Y0056354D01*
X0124106Y0057952D02*
X0124106Y0057952D01*
X0124106Y0059551D02*
X0124106Y0059551D01*
X0124106Y0059736D02*
X0124106Y0065654D01*
X0124106Y0059736D01*
X0124106Y0059736D01*
X0124106Y0061149D02*
X0124106Y0061149D01*
X0124106Y0062748D02*
X0124106Y0062748D01*
X0124106Y0064346D02*
X0124106Y0064346D01*
X0125494Y0066186D02*
X0125855Y0065977D01*
X0126259Y0065869D01*
X0128843Y0065869D01*
X0128843Y0070225D01*
X0124881Y0070225D01*
X0124881Y0067248D01*
X0124989Y0066844D01*
X0125198Y0066482D01*
X0125494Y0066186D01*
X0125977Y0065945D02*
X0121392Y0065945D01*
X0123036Y0067543D02*
X0124881Y0067543D01*
X0124881Y0069142D02*
X0123036Y0069142D01*
X0123036Y0070740D02*
X0128843Y0070740D01*
X0128843Y0072339D02*
X0130393Y0072339D01*
X0130393Y0073937D02*
X0128843Y0073937D01*
X0128843Y0075536D02*
X0130393Y0075536D01*
X0133499Y0077134D02*
X0120792Y0077134D01*
X0120606Y0078733D02*
X0133499Y0078733D01*
X0133930Y0080332D02*
X0102192Y0080332D01*
X0103281Y0078733D02*
X0106349Y0078733D01*
X0104547Y0077134D02*
X0103363Y0077134D01*
X0104005Y0076592D02*
X0104005Y0076592D01*
X0103014Y0072339D02*
X0102982Y0072339D01*
X0106398Y0072339D02*
X0106630Y0072339D01*
X0106349Y0069142D02*
X0105441Y0069142D01*
X0106349Y0067543D02*
X0103363Y0067543D01*
X0113263Y0069142D02*
X0114152Y0069142D01*
X0114152Y0070740D02*
X0113263Y0070740D01*
X0112982Y0072339D02*
X0114152Y0072339D01*
X0114152Y0073937D02*
X0113263Y0073937D01*
X0113263Y0075536D02*
X0114610Y0075536D01*
X0113263Y0077134D02*
X0116220Y0077134D01*
X0116406Y0078733D02*
X0113263Y0078733D01*
X0122578Y0075536D02*
X0125216Y0075536D01*
X0124881Y0073937D02*
X0123036Y0073937D01*
X0123036Y0072339D02*
X0124881Y0072339D01*
X0128843Y0069142D02*
X0130393Y0069142D01*
X0130393Y0067543D02*
X0128843Y0067543D01*
X0128843Y0065945D02*
X0130393Y0065945D01*
X0131579Y0064346D02*
X0131633Y0064346D01*
X0131579Y0062748D02*
X0131633Y0062748D01*
X0131579Y0061149D02*
X0131633Y0061149D01*
X0131579Y0059551D02*
X0131633Y0059551D01*
X0131579Y0057952D02*
X0131633Y0057952D01*
X0131579Y0056354D02*
X0131633Y0056354D01*
X0131748Y0054755D02*
X0131464Y0054755D01*
X0136579Y0056354D02*
X0136633Y0056354D01*
X0136579Y0057952D02*
X0136633Y0057952D01*
X0136579Y0059551D02*
X0136633Y0059551D01*
X0136579Y0061149D02*
X0136633Y0061149D01*
X0136579Y0062748D02*
X0136633Y0062748D01*
X0136579Y0064346D02*
X0136633Y0064346D01*
X0139566Y0065945D02*
X0140646Y0065945D01*
X0140192Y0067543D02*
X0140020Y0067543D01*
X0140020Y0069142D02*
X0140192Y0069142D01*
X0140192Y0070740D02*
X0140020Y0070740D01*
X0139482Y0072339D02*
X0140730Y0072339D01*
X0140336Y0073937D02*
X0139458Y0073937D01*
X0143268Y0073937D02*
X0143637Y0073937D01*
X0143637Y0075536D02*
X0143268Y0075536D01*
X0140209Y0080332D02*
X0139589Y0080332D01*
X0116820Y0065945D02*
X0115798Y0065945D01*
X0116579Y0064346D02*
X0116633Y0064346D01*
X0116579Y0062748D02*
X0116633Y0062748D01*
X0116579Y0061149D02*
X0116633Y0061149D01*
X0116579Y0059551D02*
X0116633Y0059551D01*
X0116579Y0057952D02*
X0116633Y0057952D01*
X0116579Y0056354D02*
X0116633Y0056354D01*
X0116748Y0054755D02*
X0116464Y0054755D01*
X0121464Y0054755D02*
X0121467Y0054755D01*
X0124615Y0051558D02*
X0100672Y0051558D01*
X0100454Y0049960D02*
X0101473Y0049960D01*
X0101113Y0056354D02*
X0106633Y0056354D01*
X0106633Y0057952D02*
X0100561Y0057952D01*
X0088451Y0057952D02*
X0086792Y0057952D01*
X0072614Y0057952D02*
X0039474Y0057952D01*
X0039474Y0059551D02*
X0072614Y0059551D01*
X0072614Y0061149D02*
X0039474Y0061149D01*
X0039474Y0062748D02*
X0072614Y0062748D01*
X0072614Y0064346D02*
X0039474Y0064346D01*
X0039474Y0065945D02*
X0072614Y0065945D01*
X0072614Y0067543D02*
X0039474Y0067543D01*
X0039474Y0069142D02*
X0072614Y0069142D01*
X0061544Y0072339D02*
X0061175Y0072339D01*
X0061175Y0073937D02*
X0061544Y0073937D01*
X0061544Y0075536D02*
X0061175Y0075536D01*
X0061175Y0077134D02*
X0061544Y0077134D01*
X0057804Y0077134D02*
X0057790Y0077134D01*
X0056706Y0077134D02*
X0056706Y0077134D01*
X0056706Y0075536D02*
X0056706Y0075536D01*
X0054595Y0080332D02*
X0097620Y0080332D01*
X0096531Y0078733D02*
X0093705Y0078733D01*
X0097703Y0081930D02*
X0055223Y0081930D01*
X0055223Y0083529D02*
X0199292Y0083529D01*
X0199292Y0085127D02*
X0055223Y0085127D01*
X0054631Y0086726D02*
X0199884Y0086726D01*
X0200546Y0088324D02*
X0053969Y0088324D01*
X0052464Y0089923D02*
X0202050Y0089923D01*
X0199292Y0081930D02*
X0102109Y0081930D01*
X0086650Y0073937D02*
X0083667Y0073937D01*
X0071301Y0056354D02*
X0066390Y0056354D01*
X0090975Y0046763D02*
X0039474Y0046763D01*
X0086241Y0019588D02*
X0092214Y0019588D01*
X0092214Y0017990D02*
X0086028Y0017990D01*
X0095598Y0019588D02*
X0097873Y0019588D01*
X0124122Y0024384D02*
X0141860Y0024384D01*
X0145245Y0024384D02*
X0171914Y0024384D01*
X0171914Y0022785D02*
X0145245Y0022785D01*
X0145245Y0021187D02*
X0171914Y0021187D01*
X0175298Y0021187D02*
X0185058Y0021187D01*
X0185058Y0022785D02*
X0175298Y0022785D01*
X0175298Y0024384D02*
X0185058Y0024384D01*
X0185058Y0025982D02*
X0175298Y0025982D01*
X0176063Y0027581D02*
X0185058Y0027581D01*
X0189146Y0029179D02*
X0176063Y0029179D01*
X0176063Y0030778D02*
X0188700Y0030778D01*
X0171914Y0025982D02*
X0158920Y0025982D01*
X0159610Y0027581D02*
X0160849Y0027581D01*
X0154566Y0025982D02*
X0151046Y0025982D01*
X0146692Y0025982D02*
X0145245Y0025982D01*
X0151039Y0032376D02*
X0154573Y0032376D01*
X0146550Y0035573D02*
X0141579Y0035573D01*
X0134756Y0033157D02*
X0134356Y0033157D01*
X0133599Y0032401D01*
X0133599Y0031986D01*
X0132776Y0031986D01*
X0132697Y0032281D01*
X0132488Y0032643D01*
X0132192Y0032939D01*
X0131831Y0033148D01*
X0131427Y0033256D01*
X0129237Y0033256D01*
X0129237Y0029884D01*
X0128868Y0029884D01*
X0128868Y0033256D01*
X0126678Y0033256D01*
X0126274Y0033148D01*
X0125998Y0032988D01*
X0125998Y0033817D01*
X0126466Y0034285D01*
X0126655Y0033958D01*
X0126950Y0033663D01*
X0127312Y0033454D01*
X0127716Y0033346D01*
X0129106Y0033346D01*
X0130496Y0033346D01*
X0130900Y0033454D01*
X0131262Y0033663D01*
X0131557Y0033958D01*
X0131746Y0034285D01*
X0132390Y0033641D01*
X0134272Y0033641D01*
X0134756Y0033157D01*
X0133599Y0032376D02*
X0132642Y0032376D01*
X0132056Y0033975D02*
X0131567Y0033975D01*
X0129106Y0033975D02*
X0129106Y0033975D01*
X0129106Y0033346D02*
X0129106Y0039264D01*
X0129106Y0039264D01*
X0129106Y0033346D01*
X0129237Y0032376D02*
X0128868Y0032376D01*
X0126645Y0033975D02*
X0126156Y0033975D01*
X0129106Y0035573D02*
X0129106Y0035573D01*
X0129106Y0037172D02*
X0129106Y0037172D01*
X0129106Y0038770D02*
X0129106Y0038770D01*
X0129106Y0040369D02*
X0129106Y0040369D01*
X0129106Y0041967D02*
X0129106Y0041967D01*
X0129106Y0043566D02*
X0129106Y0043566D01*
X0129106Y0045164D02*
X0129106Y0045164D01*
X0127650Y0045164D02*
X0120735Y0045164D01*
X0121579Y0043566D02*
X0121633Y0043566D01*
X0121579Y0041967D02*
X0121633Y0041967D01*
X0121579Y0040369D02*
X0121633Y0040369D01*
X0121579Y0038770D02*
X0121633Y0038770D01*
X0121579Y0037172D02*
X0121633Y0037172D01*
X0121579Y0035573D02*
X0121633Y0035573D01*
X0121805Y0033975D02*
X0121156Y0033975D01*
X0128868Y0030778D02*
X0129237Y0030778D01*
X0129237Y0029179D02*
X0128868Y0029179D01*
X0128868Y0027581D02*
X0129237Y0027581D01*
X0130562Y0045164D02*
X0132414Y0045164D01*
X0137957Y0051558D02*
X0147314Y0051558D01*
X0147314Y0049960D02*
X0115939Y0049960D01*
X0117538Y0048361D02*
X0147314Y0048361D01*
X0148044Y0046763D02*
X0119136Y0046763D01*
X0139556Y0053157D02*
X0147314Y0053157D01*
X0147762Y0054755D02*
X0141464Y0054755D01*
X0141579Y0056354D02*
X0150814Y0056354D01*
X0148899Y0057952D02*
X0141579Y0057952D01*
X0141579Y0062748D02*
X0141620Y0062748D01*
X0141579Y0064346D02*
X0141620Y0064346D01*
X0162113Y0057952D02*
X0162517Y0057952D01*
X0164690Y0059551D02*
X0169642Y0059551D01*
X0168853Y0061149D02*
X0164992Y0061149D01*
X0163991Y0062748D02*
X0168853Y0062748D01*
X0172422Y0064346D02*
X0172790Y0064346D01*
X0172790Y0063431D02*
X0172790Y0066802D01*
X0174980Y0066802D01*
X0175384Y0066694D01*
X0175746Y0066485D01*
X0176042Y0066190D01*
X0176251Y0065828D01*
X0176359Y0065424D01*
X0176359Y0063431D01*
X0172790Y0063431D01*
X0172790Y0065945D02*
X0172422Y0065945D01*
X0176183Y0065945D02*
X0188995Y0065945D01*
X0186259Y0064346D02*
X0176359Y0064346D01*
X0176359Y0062748D02*
X0184661Y0062748D01*
X0183062Y0061149D02*
X0176359Y0061149D01*
X0175570Y0059551D02*
X0181614Y0059551D01*
X0181614Y0057952D02*
X0176063Y0057952D01*
X0176063Y0056354D02*
X0181614Y0056354D01*
X0181614Y0054755D02*
X0176063Y0054755D01*
X0175384Y0052994D02*
X0174980Y0053102D01*
X0172790Y0053102D01*
X0172790Y0049731D01*
X0176359Y0049731D01*
X0176359Y0051724D01*
X0176251Y0052128D01*
X0176042Y0052490D01*
X0175746Y0052785D01*
X0175384Y0052994D01*
X0176359Y0051558D02*
X0181614Y0051558D01*
X0181614Y0049960D02*
X0176359Y0049960D01*
X0176359Y0048361D02*
X0181614Y0048361D01*
X0184998Y0049960D02*
X0185933Y0049960D01*
X0188479Y0049960D02*
X0188995Y0049960D01*
X0181614Y0053157D02*
X0163373Y0053157D01*
X0164106Y0054755D02*
X0169149Y0054755D01*
X0168853Y0051558D02*
X0163373Y0051558D01*
X0172422Y0051558D02*
X0172790Y0051558D01*
X0172790Y0049960D02*
X0172422Y0049960D01*
X0188586Y0057952D02*
X0188995Y0057952D01*
X0189090Y0061149D02*
X0187848Y0061149D01*
X0213233Y0057952D02*
X0215040Y0057952D01*
X0215040Y0056354D02*
X0213233Y0056354D01*
X0213233Y0054755D02*
X0215040Y0054755D01*
X0215040Y0053157D02*
X0213019Y0053157D01*
X0211232Y0075536D02*
X0215040Y0075536D01*
X0215040Y0077134D02*
X0213796Y0077134D01*
X0169149Y0027581D02*
X0167763Y0027581D01*
X0211943Y0024384D02*
X0215040Y0024384D01*
X0215040Y0022785D02*
X0214090Y0022785D01*
D27*
X0056706Y0074800D03*
M02*
