G75*
%MOIN*%
%OFA0B0*%
%FSLAX25Y25*%
%IPPOS*%
%LPD*%
%AMOC8*
5,1,8,0,0,1.08239X$1,22.5*
%
%ADD10OC8,0.04800*%
%ADD11C,0.01600*%
%ADD12C,0.01987*%
%ADD13C,0.01969*%
%ADD14C,0.00800*%
D10*
X0099506Y0016000D03*
X0129506Y0016000D03*
X0143606Y0016000D03*
X0173606Y0016000D03*
D11*
X0039474Y0021835D02*
X0039474Y0078379D01*
X0041635Y0076218D01*
X0044823Y0074898D01*
X0048274Y0074898D01*
X0051462Y0076218D01*
X0053902Y0078658D01*
X0055223Y0081846D01*
X0055223Y0085297D01*
X0053902Y0088485D01*
X0051741Y0090646D01*
X0202773Y0090646D01*
X0200612Y0088485D01*
X0199292Y0085297D01*
X0199292Y0081846D01*
X0200612Y0078658D01*
X0203052Y0076218D01*
X0206240Y0074898D01*
X0209691Y0074898D01*
X0212879Y0076218D01*
X0215040Y0078379D01*
X0215040Y0021835D01*
X0212879Y0023996D01*
X0209691Y0025317D01*
X0206240Y0025317D01*
X0203052Y0023996D01*
X0200612Y0021556D01*
X0199292Y0018368D01*
X0199292Y0014917D01*
X0200612Y0011729D01*
X0202773Y0009568D01*
X0051741Y0009568D01*
X0053902Y0011729D01*
X0055223Y0014917D01*
X0055223Y0018368D01*
X0053902Y0021556D01*
X0051462Y0023996D01*
X0048274Y0025317D01*
X0044823Y0025317D01*
X0041635Y0023996D01*
X0039474Y0021835D01*
X0039474Y0022785D02*
X0040424Y0022785D01*
X0039474Y0024384D02*
X0042571Y0024384D01*
X0039474Y0025982D02*
X0100955Y0025982D01*
X0100920Y0025947D02*
X0100920Y0024053D01*
X0102259Y0022714D01*
X0104153Y0022714D01*
X0105492Y0024053D01*
X0105492Y0024893D01*
X0108607Y0028008D01*
X0120915Y0028008D01*
X0120761Y0027905D01*
X0120401Y0027545D01*
X0120119Y0027123D01*
X0119924Y0026653D01*
X0119825Y0026154D01*
X0119825Y0025900D01*
X0122406Y0025900D01*
X0124987Y0025900D01*
X0124987Y0026154D01*
X0124888Y0026653D01*
X0124693Y0027123D01*
X0124411Y0027545D01*
X0124051Y0027905D01*
X0123897Y0028008D01*
X0131265Y0028008D01*
X0131859Y0027414D01*
X0133753Y0027414D01*
X0135092Y0028753D01*
X0135092Y0030647D01*
X0133753Y0031986D01*
X0131859Y0031986D01*
X0131265Y0031392D01*
X0119992Y0031392D01*
X0119992Y0032193D01*
X0125907Y0038108D01*
X0181765Y0038108D01*
X0182359Y0037514D01*
X0184253Y0037514D01*
X0185258Y0038519D01*
X0185301Y0038455D01*
X0185661Y0038095D01*
X0186083Y0037813D01*
X0186553Y0037618D01*
X0187052Y0037519D01*
X0187306Y0037519D01*
X0187560Y0037519D01*
X0188059Y0037618D01*
X0188529Y0037813D01*
X0188951Y0038095D01*
X0189311Y0038455D01*
X0189593Y0038877D01*
X0189788Y0039347D01*
X0189887Y0039846D01*
X0189887Y0040100D01*
X0189887Y0040354D01*
X0189788Y0040853D01*
X0189593Y0041323D01*
X0189311Y0041745D01*
X0188951Y0042105D01*
X0188529Y0042387D01*
X0188059Y0042582D01*
X0187560Y0042681D01*
X0187306Y0042681D01*
X0187306Y0040100D01*
X0187306Y0040100D01*
X0189887Y0040100D01*
X0187306Y0040100D01*
X0187306Y0040100D01*
X0187306Y0042681D01*
X0187052Y0042681D01*
X0186553Y0042582D01*
X0186083Y0042387D01*
X0185661Y0042105D01*
X0185301Y0041745D01*
X0185019Y0041323D01*
X0185018Y0041321D01*
X0184253Y0042086D01*
X0182359Y0042086D01*
X0181765Y0041492D01*
X0161231Y0041492D01*
X0161692Y0041953D01*
X0161692Y0043847D01*
X0160353Y0045186D01*
X0158459Y0045186D01*
X0157865Y0044592D01*
X0155307Y0044592D01*
X0145407Y0054492D01*
X0132707Y0054492D01*
X0121392Y0065807D01*
X0121392Y0066647D01*
X0120053Y0067986D01*
X0118159Y0067986D01*
X0116820Y0066647D01*
X0116820Y0064753D01*
X0118159Y0063414D01*
X0118999Y0063414D01*
X0127427Y0054986D01*
X0125759Y0054986D01*
X0125165Y0054392D01*
X0114607Y0054392D01*
X0106692Y0062307D01*
X0106692Y0063147D01*
X0105353Y0064486D01*
X0103459Y0064486D01*
X0102120Y0063147D01*
X0102120Y0061253D01*
X0103459Y0059914D01*
X0104299Y0059914D01*
X0113205Y0051008D01*
X0125165Y0051008D01*
X0125759Y0050414D01*
X0127653Y0050414D01*
X0128992Y0051753D01*
X0128992Y0053421D01*
X0130314Y0052099D01*
X0131305Y0051108D01*
X0144005Y0051108D01*
X0153621Y0041492D01*
X0124505Y0041492D01*
X0117599Y0034586D01*
X0116759Y0034586D01*
X0115420Y0033247D01*
X0115420Y0031392D01*
X0107205Y0031392D01*
X0106214Y0030401D01*
X0103099Y0027286D01*
X0102259Y0027286D01*
X0100920Y0025947D01*
X0100920Y0024384D02*
X0050526Y0024384D01*
X0052673Y0022785D02*
X0102188Y0022785D01*
X0104224Y0022785D02*
X0201842Y0022785D01*
X0200459Y0021187D02*
X0054055Y0021187D01*
X0054717Y0019588D02*
X0097873Y0019588D01*
X0097977Y0019692D02*
X0095814Y0017529D01*
X0095814Y0014471D01*
X0097977Y0012308D01*
X0101035Y0012308D01*
X0103198Y0014471D01*
X0103198Y0017529D01*
X0101035Y0019692D01*
X0097977Y0019692D01*
X0096274Y0017990D02*
X0055223Y0017990D01*
X0055223Y0016391D02*
X0070198Y0016391D01*
X0070301Y0016545D02*
X0070019Y0016123D01*
X0069824Y0015653D01*
X0069725Y0015154D01*
X0069725Y0014900D01*
X0072306Y0014900D01*
X0074887Y0014900D01*
X0074887Y0015154D01*
X0074788Y0015653D01*
X0074593Y0016123D01*
X0074311Y0016545D01*
X0073951Y0016905D01*
X0073529Y0017187D01*
X0073059Y0017382D01*
X0072560Y0017481D01*
X0072306Y0017481D01*
X0072306Y0014900D01*
X0072306Y0014900D01*
X0072306Y0014900D01*
X0074887Y0014900D01*
X0074887Y0014646D01*
X0074788Y0014147D01*
X0074593Y0013677D01*
X0074311Y0013255D01*
X0073951Y0012895D01*
X0073529Y0012613D01*
X0073059Y0012418D01*
X0072560Y0012319D01*
X0072306Y0012319D01*
X0072306Y0014900D01*
X0072306Y0014900D01*
X0072306Y0014900D01*
X0072306Y0017481D01*
X0072052Y0017481D01*
X0071553Y0017382D01*
X0071083Y0017187D01*
X0070661Y0016905D01*
X0070301Y0016545D01*
X0069725Y0014900D02*
X0069725Y0014646D01*
X0069824Y0014147D01*
X0070019Y0013677D01*
X0070301Y0013255D01*
X0070661Y0012895D01*
X0071083Y0012613D01*
X0071553Y0012418D01*
X0072052Y0012319D01*
X0072306Y0012319D01*
X0072306Y0014900D01*
X0069725Y0014900D01*
X0069725Y0014793D02*
X0055171Y0014793D01*
X0054509Y0013194D02*
X0070362Y0013194D01*
X0072306Y0013194D02*
X0072306Y0013194D01*
X0072306Y0014793D02*
X0072306Y0014793D01*
X0074250Y0013194D02*
X0097091Y0013194D01*
X0095814Y0014793D02*
X0074887Y0014793D01*
X0074414Y0016391D02*
X0095814Y0016391D01*
X0101139Y0019588D02*
X0127873Y0019588D01*
X0127977Y0019692D02*
X0125814Y0017529D01*
X0125814Y0014471D01*
X0127977Y0012308D01*
X0131035Y0012308D01*
X0133198Y0014471D01*
X0133198Y0017529D01*
X0131035Y0019692D01*
X0127977Y0019692D01*
X0126274Y0017990D02*
X0102738Y0017990D01*
X0103198Y0016391D02*
X0125814Y0016391D01*
X0125814Y0014793D02*
X0103198Y0014793D01*
X0101921Y0013194D02*
X0127091Y0013194D01*
X0131921Y0013194D02*
X0141191Y0013194D01*
X0142077Y0012308D02*
X0139914Y0014471D01*
X0139914Y0017529D01*
X0142077Y0019692D01*
X0145135Y0019692D01*
X0147298Y0017529D01*
X0147298Y0014471D01*
X0145135Y0012308D01*
X0142077Y0012308D01*
X0146021Y0013194D02*
X0171191Y0013194D01*
X0172077Y0012308D02*
X0169914Y0014471D01*
X0169914Y0017529D01*
X0172077Y0019692D01*
X0175135Y0019692D01*
X0177298Y0017529D01*
X0177298Y0014471D01*
X0175135Y0012308D01*
X0172077Y0012308D01*
X0169914Y0014793D02*
X0147298Y0014793D01*
X0147298Y0016391D02*
X0169914Y0016391D01*
X0170374Y0017990D02*
X0146838Y0017990D01*
X0145239Y0019588D02*
X0171973Y0019588D01*
X0175239Y0019588D02*
X0199797Y0019588D01*
X0199292Y0017990D02*
X0176838Y0017990D01*
X0177298Y0016391D02*
X0199292Y0016391D01*
X0199343Y0014793D02*
X0177298Y0014793D01*
X0176021Y0013194D02*
X0200006Y0013194D01*
X0200746Y0011596D02*
X0053768Y0011596D01*
X0052170Y0009997D02*
X0202344Y0009997D01*
X0214090Y0022785D02*
X0215040Y0022785D01*
X0215040Y0024384D02*
X0211943Y0024384D01*
X0215040Y0025982D02*
X0124987Y0025982D01*
X0124987Y0025900D02*
X0122406Y0025900D01*
X0122406Y0025900D01*
X0122406Y0023319D01*
X0122660Y0023319D01*
X0123159Y0023418D01*
X0123629Y0023613D01*
X0124051Y0023895D01*
X0124411Y0024255D01*
X0124693Y0024677D01*
X0124888Y0025147D01*
X0124987Y0025646D01*
X0124987Y0025900D01*
X0124497Y0024384D02*
X0203988Y0024384D01*
X0215040Y0027581D02*
X0133919Y0027581D01*
X0135092Y0029179D02*
X0215040Y0029179D01*
X0215040Y0030778D02*
X0134961Y0030778D01*
X0131693Y0027581D02*
X0124376Y0027581D01*
X0122406Y0025900D02*
X0122406Y0025900D01*
X0122406Y0025900D01*
X0122406Y0023319D01*
X0122152Y0023319D01*
X0121653Y0023418D01*
X0121183Y0023613D01*
X0120761Y0023895D01*
X0120401Y0024255D01*
X0120119Y0024677D01*
X0119924Y0025147D01*
X0119825Y0025646D01*
X0119825Y0025900D01*
X0122406Y0025900D01*
X0122406Y0024384D02*
X0122406Y0024384D01*
X0120315Y0024384D02*
X0105492Y0024384D01*
X0106581Y0025982D02*
X0119825Y0025982D01*
X0120436Y0027581D02*
X0108180Y0027581D01*
X0104992Y0029179D02*
X0039474Y0029179D01*
X0039474Y0027581D02*
X0103394Y0027581D01*
X0106591Y0030778D02*
X0039474Y0030778D01*
X0039474Y0032376D02*
X0115420Y0032376D01*
X0116148Y0033975D02*
X0039474Y0033975D01*
X0039474Y0035573D02*
X0118586Y0035573D01*
X0120185Y0037172D02*
X0039474Y0037172D01*
X0039474Y0038770D02*
X0121783Y0038770D01*
X0123382Y0040369D02*
X0039474Y0040369D01*
X0039474Y0041967D02*
X0153146Y0041967D01*
X0151547Y0043566D02*
X0039474Y0043566D01*
X0039474Y0045164D02*
X0149949Y0045164D01*
X0148350Y0046763D02*
X0039474Y0046763D01*
X0039474Y0048361D02*
X0146752Y0048361D01*
X0145153Y0049960D02*
X0039474Y0049960D01*
X0039474Y0051558D02*
X0112655Y0051558D01*
X0111056Y0053157D02*
X0039474Y0053157D01*
X0039474Y0054755D02*
X0109458Y0054755D01*
X0107859Y0056354D02*
X0086778Y0056354D01*
X0086793Y0056377D02*
X0086988Y0056847D01*
X0087087Y0057346D01*
X0087087Y0057600D01*
X0087087Y0057854D01*
X0086988Y0058353D01*
X0086793Y0058823D01*
X0086511Y0059245D01*
X0086151Y0059605D01*
X0085729Y0059887D01*
X0085259Y0060082D01*
X0084760Y0060181D01*
X0084506Y0060181D01*
X0084506Y0057600D01*
X0087087Y0057600D01*
X0084506Y0057600D01*
X0084506Y0057600D01*
X0084506Y0057600D01*
X0084506Y0055019D01*
X0084760Y0055019D01*
X0085259Y0055118D01*
X0085729Y0055313D01*
X0086151Y0055595D01*
X0086511Y0055955D01*
X0086793Y0056377D01*
X0087068Y0057952D02*
X0106261Y0057952D01*
X0104662Y0059551D02*
X0086205Y0059551D01*
X0084506Y0059551D02*
X0084506Y0059551D01*
X0084506Y0060181D02*
X0084252Y0060181D01*
X0083753Y0060082D01*
X0083283Y0059887D01*
X0082861Y0059605D01*
X0082501Y0059245D01*
X0082219Y0058823D01*
X0082024Y0058353D01*
X0081925Y0057854D01*
X0081925Y0057600D01*
X0084506Y0057600D01*
X0084506Y0057600D01*
X0084506Y0057600D01*
X0084506Y0060181D01*
X0082807Y0059551D02*
X0039474Y0059551D01*
X0039474Y0061149D02*
X0102224Y0061149D01*
X0102120Y0062748D02*
X0039474Y0062748D01*
X0039474Y0064346D02*
X0103320Y0064346D01*
X0105492Y0064346D02*
X0117227Y0064346D01*
X0116820Y0065945D02*
X0039474Y0065945D01*
X0039474Y0067543D02*
X0117717Y0067543D01*
X0120495Y0067543D02*
X0169670Y0067543D01*
X0171268Y0065945D02*
X0144990Y0065945D01*
X0145129Y0065887D02*
X0144659Y0066082D01*
X0144160Y0066181D01*
X0143906Y0066181D01*
X0143906Y0063600D01*
X0146487Y0063600D01*
X0146487Y0063854D01*
X0146388Y0064353D01*
X0146193Y0064823D01*
X0145911Y0065245D01*
X0145551Y0065605D01*
X0145129Y0065887D01*
X0143906Y0065945D02*
X0143906Y0065945D01*
X0143906Y0066181D02*
X0143652Y0066181D01*
X0143153Y0066082D01*
X0142683Y0065887D01*
X0142261Y0065605D01*
X0141901Y0065245D01*
X0141619Y0064823D01*
X0141424Y0064353D01*
X0141325Y0063854D01*
X0141325Y0063600D01*
X0143906Y0063600D01*
X0143906Y0063600D01*
X0143906Y0063600D01*
X0146487Y0063600D01*
X0146487Y0063346D01*
X0146388Y0062847D01*
X0146193Y0062377D01*
X0145911Y0061955D01*
X0145551Y0061595D01*
X0145129Y0061313D01*
X0144659Y0061118D01*
X0144160Y0061019D01*
X0143906Y0061019D01*
X0143906Y0063600D01*
X0143906Y0063600D01*
X0143906Y0063600D01*
X0143906Y0066181D01*
X0142822Y0065945D02*
X0121392Y0065945D01*
X0122853Y0064346D02*
X0141423Y0064346D01*
X0141325Y0063600D02*
X0141325Y0063346D01*
X0141424Y0062847D01*
X0141619Y0062377D01*
X0141901Y0061955D01*
X0142261Y0061595D01*
X0142683Y0061313D01*
X0143153Y0061118D01*
X0143652Y0061019D01*
X0143906Y0061019D01*
X0143906Y0063600D01*
X0141325Y0063600D01*
X0141465Y0062748D02*
X0124451Y0062748D01*
X0126050Y0061149D02*
X0143078Y0061149D01*
X0143906Y0061149D02*
X0143906Y0061149D01*
X0144734Y0061149D02*
X0160420Y0061149D01*
X0160420Y0061747D02*
X0160420Y0059853D01*
X0161759Y0058514D01*
X0163653Y0058514D01*
X0164247Y0059108D01*
X0171205Y0059108D01*
X0183014Y0047299D01*
X0184005Y0046308D01*
X0185665Y0046308D01*
X0186259Y0045714D01*
X0188153Y0045714D01*
X0189492Y0047053D01*
X0189492Y0048947D01*
X0188153Y0050286D01*
X0186259Y0050286D01*
X0185665Y0049692D01*
X0185407Y0049692D01*
X0172607Y0062492D01*
X0164247Y0062492D01*
X0163653Y0063086D01*
X0161759Y0063086D01*
X0160420Y0061747D01*
X0161421Y0062748D02*
X0146347Y0062748D01*
X0146389Y0064346D02*
X0172867Y0064346D01*
X0174465Y0062748D02*
X0163991Y0062748D01*
X0160722Y0059551D02*
X0127648Y0059551D01*
X0129247Y0057952D02*
X0172361Y0057952D01*
X0173959Y0056354D02*
X0130845Y0056354D01*
X0132444Y0054755D02*
X0175558Y0054755D01*
X0177156Y0053157D02*
X0146742Y0053157D01*
X0148341Y0051558D02*
X0178755Y0051558D01*
X0180353Y0049960D02*
X0149939Y0049960D01*
X0151538Y0048361D02*
X0181952Y0048361D01*
X0183550Y0046763D02*
X0153136Y0046763D01*
X0154735Y0045164D02*
X0158438Y0045164D01*
X0160374Y0045164D02*
X0215040Y0045164D01*
X0215040Y0043566D02*
X0161692Y0043566D01*
X0161692Y0041967D02*
X0182241Y0041967D01*
X0184371Y0041967D02*
X0185523Y0041967D01*
X0187306Y0041967D02*
X0187306Y0041967D01*
X0187306Y0040369D02*
X0187306Y0040369D01*
X0187306Y0040100D02*
X0187306Y0037519D01*
X0187306Y0040100D01*
X0187306Y0040100D01*
X0187306Y0038770D02*
X0187306Y0038770D01*
X0189522Y0038770D02*
X0215040Y0038770D01*
X0215040Y0037172D02*
X0124971Y0037172D01*
X0123372Y0035573D02*
X0215040Y0035573D01*
X0215040Y0033975D02*
X0121774Y0033975D01*
X0120175Y0032376D02*
X0215040Y0032376D01*
X0215040Y0040369D02*
X0189884Y0040369D01*
X0189089Y0041967D02*
X0215040Y0041967D01*
X0215040Y0046763D02*
X0189201Y0046763D01*
X0189492Y0048361D02*
X0215040Y0048361D01*
X0215040Y0049960D02*
X0188479Y0049960D01*
X0185933Y0049960D02*
X0185139Y0049960D01*
X0183541Y0051558D02*
X0215040Y0051558D01*
X0215040Y0053157D02*
X0181942Y0053157D01*
X0183031Y0054182D02*
X0185891Y0054182D01*
X0186485Y0053588D01*
X0188379Y0053588D01*
X0189718Y0054927D01*
X0189718Y0056821D01*
X0188379Y0058160D01*
X0186485Y0058160D01*
X0185891Y0057566D01*
X0184433Y0057566D01*
X0159407Y0082592D01*
X0101447Y0082592D01*
X0100853Y0083186D01*
X0098959Y0083186D01*
X0097620Y0081847D01*
X0097620Y0079953D01*
X0098959Y0078614D01*
X0100853Y0078614D01*
X0101447Y0079208D01*
X0116881Y0079208D01*
X0116220Y0078547D01*
X0116220Y0076653D01*
X0117559Y0075314D01*
X0119453Y0075314D01*
X0120792Y0076653D01*
X0120792Y0078547D01*
X0120131Y0079208D01*
X0158005Y0079208D01*
X0183031Y0054182D01*
X0182458Y0054755D02*
X0180344Y0054755D01*
X0180859Y0056354D02*
X0178745Y0056354D01*
X0179261Y0057952D02*
X0177147Y0057952D01*
X0177662Y0059551D02*
X0175548Y0059551D01*
X0176064Y0061149D02*
X0173950Y0061149D01*
X0179251Y0062748D02*
X0215040Y0062748D01*
X0215040Y0061149D02*
X0180850Y0061149D01*
X0182448Y0059551D02*
X0215040Y0059551D01*
X0215040Y0057952D02*
X0188586Y0057952D01*
X0189718Y0056354D02*
X0215040Y0056354D01*
X0215040Y0054755D02*
X0189546Y0054755D01*
X0186278Y0057952D02*
X0184047Y0057952D01*
X0177653Y0064346D02*
X0215040Y0064346D01*
X0215040Y0065945D02*
X0176054Y0065945D01*
X0174456Y0067543D02*
X0215040Y0067543D01*
X0215040Y0069142D02*
X0172857Y0069142D01*
X0171259Y0070740D02*
X0215040Y0070740D01*
X0215040Y0072339D02*
X0169660Y0072339D01*
X0168062Y0073937D02*
X0215040Y0073937D01*
X0215040Y0075536D02*
X0211232Y0075536D01*
X0213796Y0077134D02*
X0215040Y0077134D01*
X0204699Y0075536D02*
X0166463Y0075536D01*
X0164865Y0077134D02*
X0202136Y0077134D01*
X0200581Y0078733D02*
X0163266Y0078733D01*
X0161667Y0080332D02*
X0199919Y0080332D01*
X0199292Y0081930D02*
X0160069Y0081930D01*
X0158480Y0078733D02*
X0120606Y0078733D01*
X0120792Y0077134D02*
X0160078Y0077134D01*
X0161677Y0075536D02*
X0119675Y0075536D01*
X0117337Y0075536D02*
X0058982Y0075536D01*
X0058982Y0075743D02*
X0057649Y0077076D01*
X0055763Y0077076D01*
X0054430Y0075743D01*
X0054430Y0073857D01*
X0055763Y0072524D01*
X0057649Y0072524D01*
X0058982Y0073857D01*
X0058982Y0075743D01*
X0058982Y0073937D02*
X0163275Y0073937D01*
X0164874Y0072339D02*
X0039474Y0072339D01*
X0039474Y0073937D02*
X0054430Y0073937D01*
X0054430Y0075536D02*
X0049815Y0075536D01*
X0052378Y0077134D02*
X0116220Y0077134D01*
X0116406Y0078733D02*
X0100972Y0078733D01*
X0098840Y0078733D02*
X0053933Y0078733D01*
X0054595Y0080332D02*
X0097620Y0080332D01*
X0097703Y0081930D02*
X0055223Y0081930D01*
X0055223Y0083529D02*
X0199292Y0083529D01*
X0199292Y0085127D02*
X0055223Y0085127D01*
X0054631Y0086726D02*
X0199884Y0086726D01*
X0200546Y0088324D02*
X0053969Y0088324D01*
X0052464Y0089923D02*
X0202050Y0089923D01*
X0166473Y0070740D02*
X0039474Y0070740D01*
X0039474Y0069142D02*
X0168071Y0069142D01*
X0143906Y0064346D02*
X0143906Y0064346D01*
X0143906Y0062748D02*
X0143906Y0062748D01*
X0129256Y0053157D02*
X0128992Y0053157D01*
X0128797Y0051558D02*
X0130855Y0051558D01*
X0125529Y0054755D02*
X0114244Y0054755D01*
X0112645Y0056354D02*
X0126059Y0056354D01*
X0124461Y0057952D02*
X0111047Y0057952D01*
X0109448Y0059551D02*
X0122862Y0059551D01*
X0121264Y0061149D02*
X0107850Y0061149D01*
X0106692Y0062748D02*
X0119665Y0062748D01*
X0084506Y0057952D02*
X0084506Y0057952D01*
X0084506Y0057600D02*
X0081925Y0057600D01*
X0081925Y0057346D01*
X0082024Y0056847D01*
X0082219Y0056377D01*
X0082501Y0055955D01*
X0082861Y0055595D01*
X0083283Y0055313D01*
X0083753Y0055118D01*
X0084252Y0055019D01*
X0084506Y0055019D01*
X0084506Y0057600D01*
X0084506Y0056354D02*
X0084506Y0056354D01*
X0082234Y0056354D02*
X0039474Y0056354D01*
X0039474Y0057952D02*
X0081944Y0057952D01*
X0043282Y0075536D02*
X0039474Y0075536D01*
X0039474Y0077134D02*
X0040719Y0077134D01*
X0131139Y0019588D02*
X0141973Y0019588D01*
X0140374Y0017990D02*
X0132738Y0017990D01*
X0133198Y0016391D02*
X0139914Y0016391D01*
X0139914Y0014793D02*
X0133198Y0014793D01*
X0072306Y0016391D02*
X0072306Y0016391D01*
D12*
X0072306Y0014900D03*
X0103206Y0025000D03*
X0117706Y0032300D03*
X0122406Y0025900D03*
X0132806Y0029700D03*
X0159406Y0042900D03*
X0183306Y0039800D03*
X0187306Y0040100D03*
X0187206Y0048000D03*
X0187432Y0055874D03*
X0162706Y0060800D03*
X0143906Y0063600D03*
X0126706Y0052700D03*
X0104406Y0062200D03*
X0119106Y0065700D03*
X0118506Y0077600D03*
X0099906Y0080900D03*
X0084506Y0057600D03*
D13*
X0056706Y0074800D03*
D14*
X0099906Y0080900D02*
X0158706Y0080900D01*
X0183732Y0055874D01*
X0187432Y0055874D01*
X0187206Y0048000D02*
X0184706Y0048000D01*
X0171906Y0060800D01*
X0162706Y0060800D01*
X0154606Y0042900D02*
X0144706Y0052800D01*
X0132006Y0052800D01*
X0119106Y0065700D01*
X0113906Y0052700D02*
X0104406Y0062200D01*
X0113906Y0052700D02*
X0126706Y0052700D01*
X0125206Y0039800D02*
X0117706Y0032300D01*
X0107906Y0029700D02*
X0132806Y0029700D01*
X0125206Y0039800D02*
X0183306Y0039800D01*
X0159406Y0042900D02*
X0154606Y0042900D01*
X0107906Y0029700D02*
X0103206Y0025000D01*
M02*
