%
M48
M72
T01C0.01181
T02C0.01200
T03C0.03200
T04C0.11811
%
T01
X56706Y74800
T02
X84506Y57600
X104406Y62200
X119106Y65700
X118506Y77600
X99906Y80900
X143906Y63600
X162706Y60800
X187432Y55874
X187206Y48000
X187306Y40100
X183306Y39800
X159406Y42900
X132806Y29700
X122406Y25900
X117706Y32300
X103206Y25000
X72306Y14900
X126706Y52700
T03
X129506Y16000
X143606Y16000
X173606Y16000
X99506Y16000
T04
X46549Y16643
X46549Y83572
X207966Y83572
X207966Y16643
M30
