G75*
%MOIN*%
%OFA0B0*%
%FSLAX25Y25*%
%IPPOS*%
%LPD*%
%AMOC8*
5,1,8,0,0,1.08239X$1,22.5*
%
%ADD10R,0.03543X0.02756*%
%ADD11R,0.02756X0.03543*%
%ADD12R,0.03150X0.03150*%
%ADD13R,0.00984X0.01378*%
%ADD14C,0.00500*%
%ADD15R,0.06102X0.06102*%
%ADD16R,0.01378X0.04134*%
%ADD17R,0.05709X0.04921*%
%ADD18R,0.04134X0.01378*%
%ADD19R,0.07874X0.07874*%
%ADD20R,0.07087X0.06299*%
%ADD21R,0.01280X0.02756*%
%ADD22R,0.02461X0.02264*%
D10*
X0050018Y0040774D03*
X0050018Y0045892D03*
X0075018Y0042142D03*
X0075018Y0037024D03*
D11*
X0070077Y0053333D03*
X0064959Y0053333D03*
X0064959Y0058333D03*
X0070077Y0058333D03*
X0070077Y0063333D03*
X0064959Y0063333D03*
X0126209Y0079583D03*
X0131327Y0079583D03*
D12*
X0055766Y0063333D03*
X0055766Y0058333D03*
X0055766Y0053333D03*
X0049270Y0053333D03*
X0049270Y0058333D03*
X0049270Y0063333D03*
D13*
X0065549Y0042241D03*
X0069486Y0042241D03*
X0069486Y0036926D03*
X0067518Y0036926D03*
X0065549Y0036926D03*
D14*
X0067026Y0036763D02*
X0068010Y0036763D01*
X0068010Y0036265D02*
X0067026Y0036265D01*
X0067026Y0036237D02*
X0067026Y0038323D01*
X0066140Y0038796D01*
X0066140Y0040371D01*
X0067026Y0040961D01*
X0067026Y0042339D01*
X0068010Y0042339D01*
X0068010Y0040843D01*
X0068896Y0040371D01*
X0068896Y0038796D01*
X0068010Y0038323D01*
X0068010Y0036237D01*
X0067026Y0036237D01*
X0067026Y0037262D02*
X0068010Y0037262D01*
X0068010Y0037760D02*
X0067026Y0037760D01*
X0067026Y0038259D02*
X0068010Y0038259D01*
X0068824Y0038757D02*
X0066212Y0038757D01*
X0066140Y0039256D02*
X0068896Y0039256D01*
X0068896Y0039754D02*
X0066140Y0039754D01*
X0066140Y0040253D02*
X0068896Y0040253D01*
X0068182Y0040751D02*
X0066711Y0040751D01*
X0067026Y0041250D02*
X0068010Y0041250D01*
X0068010Y0041748D02*
X0067026Y0041748D01*
X0067026Y0042247D02*
X0068010Y0042247D01*
D15*
X0102734Y0044455D03*
X0102734Y0072211D03*
D16*
X0107656Y0073196D03*
X0110215Y0073196D03*
X0112774Y0073196D03*
X0115333Y0073196D03*
X0117892Y0073196D03*
X0120451Y0073196D03*
X0123010Y0073196D03*
X0125569Y0073196D03*
X0130687Y0073196D03*
X0125569Y0043471D03*
X0123010Y0043471D03*
X0120451Y0043471D03*
X0117892Y0043471D03*
X0115333Y0043471D03*
X0112774Y0043471D03*
X0110215Y0043471D03*
X0107656Y0043471D03*
D17*
X0142498Y0043865D03*
X0142498Y0072802D03*
D18*
X0101750Y0067290D03*
X0101750Y0064731D03*
X0101750Y0062172D03*
X0101750Y0059613D03*
X0101750Y0057054D03*
X0101750Y0054495D03*
X0101750Y0051936D03*
X0101750Y0049377D03*
D19*
X0112675Y0053412D03*
X0122518Y0053412D03*
X0122518Y0063255D03*
X0112675Y0063255D03*
D20*
X0057518Y0045095D03*
X0057518Y0034072D03*
D21*
X0040510Y0074583D03*
X0027026Y0074583D03*
D22*
X0027616Y0069022D03*
X0039919Y0069022D03*
X0039919Y0080144D03*
X0027616Y0080144D03*
M02*
