G75*
%MOIN*%
%OFA0B0*%
%FSLAX25Y25*%
%IPPOS*%
%LPD*%
%AMOC8*
5,1,8,0,0,1.08239X$1,22.5*
%
%ADD10C,0.03839*%
%ADD11C,0.17717*%
%ADD12C,0.02184*%
%ADD13C,0.00800*%
%ADD14C,0.01600*%
%ADD15C,0.01200*%
D10*
X0050018Y0020833D03*
X0055018Y0020833D03*
X0060018Y0020833D03*
X0065018Y0020833D03*
X0070018Y0020833D03*
X0075018Y0020833D03*
X0080018Y0020833D03*
X0085018Y0020833D03*
X0090018Y0020833D03*
X0095018Y0020833D03*
X0035018Y0040833D03*
X0030018Y0040833D03*
X0030018Y0045833D03*
X0035018Y0045833D03*
X0035018Y0050833D03*
X0030018Y0050833D03*
X0030018Y0055833D03*
X0035018Y0055833D03*
X0035018Y0060833D03*
X0030018Y0060833D03*
X0050018Y0100833D03*
X0055018Y0100833D03*
X0060018Y0100833D03*
X0065018Y0100833D03*
X0070018Y0100833D03*
X0075018Y0100833D03*
X0080018Y0100833D03*
X0085018Y0100833D03*
X0090018Y0100833D03*
X0095018Y0100833D03*
D11*
X0034486Y0025400D03*
X0034486Y0096266D03*
D12*
X0047518Y0094583D03*
X0052518Y0093333D03*
X0058768Y0097083D03*
X0072518Y0090833D03*
X0076268Y0092083D03*
X0076268Y0082083D03*
X0071268Y0077083D03*
X0062518Y0079583D03*
X0060018Y0074583D03*
X0060018Y0070833D03*
X0065018Y0068333D03*
X0075018Y0064583D03*
X0077518Y0063333D03*
X0081268Y0060833D03*
X0078768Y0058333D03*
X0087518Y0057083D03*
X0097518Y0057083D03*
X0097518Y0052083D03*
X0096268Y0049583D03*
X0093768Y0047083D03*
X0093768Y0042083D03*
X0093768Y0037083D03*
X0102518Y0030833D03*
X0107518Y0035833D03*
X0110018Y0039583D03*
X0115018Y0034583D03*
X0120018Y0037083D03*
X0106268Y0054583D03*
X0097518Y0065833D03*
X0106268Y0067083D03*
X0095018Y0075833D03*
X0092518Y0074583D03*
X0094910Y0079692D03*
X0095018Y0084583D03*
X0103660Y0079692D03*
X0108768Y0079583D03*
X0112518Y0078333D03*
X0110018Y0085833D03*
X0107518Y0089583D03*
X0103768Y0092083D03*
X0115018Y0093333D03*
X0085018Y0070833D03*
X0080018Y0072083D03*
X0076268Y0050833D03*
X0068768Y0047083D03*
X0078768Y0042083D03*
X0080018Y0030833D03*
X0072518Y0030833D03*
X0062518Y0027083D03*
X0057518Y0027083D03*
X0045018Y0030833D03*
X0045018Y0045833D03*
X0052518Y0050833D03*
X0045018Y0053333D03*
X0045018Y0058333D03*
X0045018Y0063333D03*
X0051268Y0070833D03*
X0052518Y0074583D03*
X0047518Y0074583D03*
X0046268Y0077083D03*
X0042518Y0083333D03*
X0036268Y0074583D03*
D13*
X0047518Y0074583D02*
X0047518Y0069583D01*
X0055018Y0062083D01*
X0055018Y0027083D01*
X0053768Y0025833D01*
X0051268Y0025833D01*
X0050018Y0024583D01*
X0050018Y0020833D01*
X0060018Y0029583D02*
X0060018Y0070833D01*
X0062518Y0079583D02*
X0062518Y0030833D01*
X0065018Y0028333D01*
X0065018Y0020833D01*
X0070018Y0020833D02*
X0070018Y0032083D01*
X0071268Y0033333D01*
X0071268Y0037083D01*
X0073768Y0039583D01*
X0073768Y0052083D01*
X0075018Y0053333D01*
X0075018Y0059583D01*
X0076268Y0060833D01*
X0081268Y0060833D01*
X0076268Y0050833D02*
X0076268Y0030833D01*
X0075018Y0029583D01*
X0075018Y0020833D01*
X0062518Y0027083D02*
X0060018Y0029583D01*
X0097518Y0052083D02*
X0107518Y0052083D01*
X0108768Y0053333D01*
X0108768Y0074583D01*
X0103660Y0079692D01*
X0097518Y0085833D02*
X0096268Y0087083D01*
X0083768Y0087083D01*
X0078768Y0082083D01*
X0076268Y0082083D01*
X0097518Y0085833D02*
X0110018Y0085833D01*
D14*
X0035018Y0040833D02*
X0030018Y0040833D01*
D15*
X0032518Y0038356D02*
X0033024Y0037850D01*
X0034318Y0037314D01*
X0035718Y0037314D01*
X0037011Y0037850D01*
X0038001Y0038840D01*
X0038537Y0040133D01*
X0038537Y0041533D01*
X0038001Y0042827D01*
X0037495Y0043333D01*
X0038001Y0043840D01*
X0038537Y0045133D01*
X0038537Y0046533D01*
X0038001Y0047827D01*
X0037344Y0048484D01*
X0037586Y0048725D01*
X0037948Y0049267D01*
X0038197Y0049869D01*
X0038324Y0050508D01*
X0038324Y0050794D01*
X0035058Y0050794D01*
X0035058Y0050873D01*
X0038324Y0050873D01*
X0038324Y0051159D01*
X0038197Y0051798D01*
X0037948Y0052400D01*
X0037586Y0052941D01*
X0037344Y0053183D01*
X0038001Y0053840D01*
X0038537Y0055133D01*
X0038537Y0056533D01*
X0038001Y0057827D01*
X0037495Y0058333D01*
X0038001Y0058840D01*
X0038537Y0060133D01*
X0038537Y0061533D01*
X0038001Y0062827D01*
X0037011Y0063817D01*
X0035718Y0064353D01*
X0034318Y0064353D01*
X0033024Y0063817D01*
X0032518Y0063310D01*
X0032011Y0063817D01*
X0030718Y0064353D01*
X0029318Y0064353D01*
X0028024Y0063817D01*
X0027034Y0062827D01*
X0026499Y0061533D01*
X0026499Y0060133D01*
X0027034Y0058840D01*
X0027541Y0058333D01*
X0027034Y0057827D01*
X0026499Y0056533D01*
X0026499Y0055133D01*
X0027034Y0053840D01*
X0027691Y0053183D01*
X0027449Y0052941D01*
X0027087Y0052400D01*
X0026838Y0051798D01*
X0026711Y0051159D01*
X0026711Y0050873D01*
X0029978Y0050873D01*
X0029978Y0050794D01*
X0026711Y0050794D01*
X0026711Y0050508D01*
X0026838Y0049869D01*
X0027087Y0049267D01*
X0027449Y0048725D01*
X0027691Y0048484D01*
X0027034Y0047827D01*
X0026499Y0046533D01*
X0026499Y0045133D01*
X0027034Y0043840D01*
X0027541Y0043333D01*
X0027034Y0042827D01*
X0026499Y0041533D01*
X0026499Y0040133D01*
X0027034Y0038840D01*
X0028024Y0037850D01*
X0029318Y0037314D01*
X0030718Y0037314D01*
X0032011Y0037850D01*
X0032518Y0038356D01*
X0033109Y0035859D02*
X0030450Y0035146D01*
X0028065Y0033769D01*
X0026118Y0031822D01*
X0024741Y0029437D01*
X0024299Y0027788D01*
X0024299Y0093879D01*
X0024741Y0092230D01*
X0026118Y0089845D01*
X0028065Y0087898D01*
X0030450Y0086521D01*
X0033109Y0085808D01*
X0035863Y0085808D01*
X0038523Y0086521D01*
X0040908Y0087898D01*
X0042855Y0089845D01*
X0044232Y0092230D01*
X0044826Y0094446D01*
X0044826Y0094048D01*
X0045236Y0093058D01*
X0045993Y0092301D01*
X0046982Y0091891D01*
X0048053Y0091891D01*
X0049043Y0092301D01*
X0049800Y0093058D01*
X0050060Y0093685D01*
X0050038Y0093578D01*
X0050038Y0093333D01*
X0050038Y0093089D01*
X0050134Y0092610D01*
X0050320Y0092159D01*
X0050592Y0091753D01*
X0050937Y0091407D01*
X0051343Y0091136D01*
X0051795Y0090949D01*
X0052274Y0090854D01*
X0052518Y0090854D01*
X0052762Y0090854D01*
X0053241Y0090949D01*
X0053692Y0091136D01*
X0054098Y0091407D01*
X0054444Y0091753D01*
X0054715Y0092159D01*
X0054902Y0092610D01*
X0054997Y0093089D01*
X0054997Y0093333D01*
X0052518Y0093333D01*
X0052518Y0090854D01*
X0052518Y0093333D01*
X0052518Y0093333D01*
X0052518Y0093333D01*
X0054997Y0093333D01*
X0054997Y0093578D01*
X0054902Y0094057D01*
X0054715Y0094508D01*
X0054444Y0094914D01*
X0054098Y0095259D01*
X0053692Y0095531D01*
X0053241Y0095718D01*
X0052762Y0095813D01*
X0052518Y0095813D01*
X0052518Y0093333D01*
X0050038Y0093333D01*
X0052518Y0093333D01*
X0052518Y0093333D01*
X0052518Y0093333D01*
X0052518Y0095813D01*
X0052274Y0095813D01*
X0051795Y0095718D01*
X0051343Y0095531D01*
X0050937Y0095259D01*
X0050592Y0094914D01*
X0050320Y0094508D01*
X0050210Y0094241D01*
X0050210Y0095119D01*
X0049800Y0096108D01*
X0049043Y0096866D01*
X0048053Y0097275D01*
X0046982Y0097275D01*
X0045993Y0096866D01*
X0045236Y0096108D01*
X0044945Y0095406D01*
X0044945Y0097643D01*
X0044232Y0100303D01*
X0042855Y0102688D01*
X0040908Y0104635D01*
X0038523Y0106012D01*
X0038417Y0106040D01*
X0124880Y0106040D01*
X0124880Y0015114D01*
X0036507Y0015114D01*
X0038523Y0015655D01*
X0040908Y0017032D01*
X0042855Y0018979D01*
X0044232Y0021364D01*
X0044945Y0024023D01*
X0044945Y0026777D01*
X0044579Y0028141D01*
X0045553Y0028141D01*
X0046543Y0028551D01*
X0047300Y0029308D01*
X0047710Y0030298D01*
X0047710Y0031369D01*
X0047300Y0032358D01*
X0046543Y0033116D01*
X0045553Y0033525D01*
X0044482Y0033525D01*
X0043493Y0033116D01*
X0042736Y0032358D01*
X0042613Y0032063D01*
X0040908Y0033769D01*
X0038523Y0035146D01*
X0035863Y0035859D01*
X0033109Y0035859D01*
X0030035Y0034907D02*
X0024299Y0034907D01*
X0024299Y0036105D02*
X0053018Y0036105D01*
X0053018Y0034907D02*
X0038937Y0034907D01*
X0040969Y0033708D02*
X0053018Y0033708D01*
X0053018Y0032510D02*
X0047149Y0032510D01*
X0047710Y0031311D02*
X0053018Y0031311D01*
X0053018Y0030112D02*
X0047633Y0030112D01*
X0046906Y0028914D02*
X0053018Y0028914D01*
X0053018Y0027912D02*
X0052939Y0027833D01*
X0050439Y0027833D01*
X0049189Y0026583D01*
X0048018Y0025412D01*
X0048018Y0023810D01*
X0047034Y0022827D01*
X0046499Y0021533D01*
X0046499Y0020133D01*
X0047034Y0018840D01*
X0048024Y0017850D01*
X0049318Y0017314D01*
X0050718Y0017314D01*
X0052011Y0017850D01*
X0052518Y0018356D01*
X0053024Y0017850D01*
X0054318Y0017314D01*
X0055718Y0017314D01*
X0057011Y0017850D01*
X0057518Y0018356D01*
X0058024Y0017850D01*
X0059318Y0017314D01*
X0060718Y0017314D01*
X0062011Y0017850D01*
X0062518Y0018356D01*
X0063024Y0017850D01*
X0064318Y0017314D01*
X0065718Y0017314D01*
X0067011Y0017850D01*
X0067518Y0018356D01*
X0068024Y0017850D01*
X0069318Y0017314D01*
X0070718Y0017314D01*
X0072011Y0017850D01*
X0072518Y0018356D01*
X0073024Y0017850D01*
X0074318Y0017314D01*
X0075718Y0017314D01*
X0077011Y0017850D01*
X0077518Y0018356D01*
X0078024Y0017850D01*
X0079318Y0017314D01*
X0080718Y0017314D01*
X0082011Y0017850D01*
X0082518Y0018356D01*
X0083024Y0017850D01*
X0084318Y0017314D01*
X0085718Y0017314D01*
X0087011Y0017850D01*
X0087518Y0018356D01*
X0088024Y0017850D01*
X0089318Y0017314D01*
X0090718Y0017314D01*
X0092011Y0017850D01*
X0092518Y0018356D01*
X0093024Y0017850D01*
X0094318Y0017314D01*
X0095718Y0017314D01*
X0097011Y0017850D01*
X0098001Y0018840D01*
X0098537Y0020133D01*
X0098537Y0021533D01*
X0098001Y0022827D01*
X0097011Y0023817D01*
X0095718Y0024353D01*
X0094318Y0024353D01*
X0093024Y0023817D01*
X0092518Y0023310D01*
X0092011Y0023817D01*
X0090718Y0024353D01*
X0089318Y0024353D01*
X0088024Y0023817D01*
X0087518Y0023310D01*
X0087011Y0023817D01*
X0085718Y0024353D01*
X0084318Y0024353D01*
X0083024Y0023817D01*
X0082518Y0023310D01*
X0082011Y0023817D01*
X0080718Y0024353D01*
X0079318Y0024353D01*
X0078024Y0023817D01*
X0077518Y0023310D01*
X0077018Y0023810D01*
X0077018Y0028755D01*
X0077687Y0029425D01*
X0077736Y0029308D01*
X0078493Y0028551D01*
X0079482Y0028141D01*
X0080553Y0028141D01*
X0081543Y0028551D01*
X0082300Y0029308D01*
X0082710Y0030298D01*
X0082710Y0031369D01*
X0082300Y0032358D01*
X0081543Y0033116D01*
X0080553Y0033525D01*
X0079482Y0033525D01*
X0078493Y0033116D01*
X0078268Y0032891D01*
X0078268Y0039655D01*
X0078524Y0039604D01*
X0078768Y0039604D01*
X0079012Y0039604D01*
X0079491Y0039699D01*
X0079942Y0039886D01*
X0080348Y0040157D01*
X0080694Y0040503D01*
X0080965Y0040909D01*
X0081152Y0041360D01*
X0081247Y0041839D01*
X0081247Y0042083D01*
X0078768Y0042083D01*
X0078768Y0039604D01*
X0078768Y0042083D01*
X0078768Y0042083D01*
X0078768Y0042083D01*
X0081247Y0042083D01*
X0081247Y0042328D01*
X0081152Y0042807D01*
X0080965Y0043258D01*
X0080694Y0043664D01*
X0080348Y0044009D01*
X0079942Y0044281D01*
X0079491Y0044468D01*
X0079012Y0044563D01*
X0078768Y0044563D01*
X0078768Y0042083D01*
X0078768Y0042083D01*
X0078768Y0044563D01*
X0078524Y0044563D01*
X0078268Y0044512D01*
X0078268Y0049026D01*
X0078550Y0049308D01*
X0078960Y0050298D01*
X0078960Y0051369D01*
X0078550Y0052358D01*
X0077793Y0053116D01*
X0077018Y0053437D01*
X0077018Y0056276D01*
X0077243Y0056051D01*
X0078232Y0055641D01*
X0079303Y0055641D01*
X0080293Y0056051D01*
X0081050Y0056808D01*
X0081460Y0057798D01*
X0081460Y0058141D01*
X0081803Y0058141D01*
X0082793Y0058551D01*
X0083550Y0059308D01*
X0083960Y0060298D01*
X0083960Y0061369D01*
X0083550Y0062358D01*
X0082793Y0063116D01*
X0081803Y0063525D01*
X0080732Y0063525D01*
X0080210Y0063309D01*
X0080210Y0063869D01*
X0079800Y0064858D01*
X0079043Y0065616D01*
X0078053Y0066025D01*
X0077334Y0066025D01*
X0077300Y0066108D01*
X0076543Y0066866D01*
X0075553Y0067275D01*
X0074482Y0067275D01*
X0073493Y0066866D01*
X0072736Y0066108D01*
X0072326Y0065119D01*
X0072326Y0064048D01*
X0072736Y0063058D01*
X0073493Y0062301D01*
X0074482Y0061891D01*
X0074497Y0061891D01*
X0074268Y0061662D01*
X0073018Y0060412D01*
X0073018Y0054162D01*
X0071768Y0052912D01*
X0071768Y0040412D01*
X0069268Y0037912D01*
X0069268Y0034162D01*
X0068018Y0032912D01*
X0068018Y0023810D01*
X0067518Y0023310D01*
X0067018Y0023810D01*
X0067018Y0029162D01*
X0064518Y0031662D01*
X0064518Y0065641D01*
X0065553Y0065641D01*
X0066543Y0066051D01*
X0067300Y0066808D01*
X0067710Y0067798D01*
X0067710Y0068869D01*
X0067300Y0069858D01*
X0066543Y0070616D01*
X0065553Y0071025D01*
X0064518Y0071025D01*
X0064518Y0077776D01*
X0064800Y0078058D01*
X0065210Y0079048D01*
X0065210Y0080119D01*
X0064800Y0081108D01*
X0064043Y0081866D01*
X0063053Y0082275D01*
X0061982Y0082275D01*
X0060993Y0081866D01*
X0060236Y0081108D01*
X0059826Y0080119D01*
X0059826Y0079048D01*
X0060236Y0078058D01*
X0060518Y0077776D01*
X0060518Y0077275D01*
X0059482Y0077275D01*
X0058493Y0076866D01*
X0057736Y0076108D01*
X0057326Y0075119D01*
X0057326Y0074048D01*
X0057736Y0073058D01*
X0058086Y0072708D01*
X0057736Y0072358D01*
X0057326Y0071369D01*
X0057326Y0070298D01*
X0057736Y0069308D01*
X0058018Y0069026D01*
X0058018Y0029775D01*
X0057018Y0029775D01*
X0057018Y0062912D01*
X0055846Y0064083D01*
X0051788Y0068141D01*
X0051803Y0068141D01*
X0052793Y0068551D01*
X0053550Y0069308D01*
X0053960Y0070298D01*
X0053960Y0071369D01*
X0053642Y0072135D01*
X0054043Y0072301D01*
X0054800Y0073058D01*
X0055210Y0074048D01*
X0055210Y0075119D01*
X0054800Y0076108D01*
X0054043Y0076866D01*
X0053053Y0077275D01*
X0051982Y0077275D01*
X0050993Y0076866D01*
X0050236Y0076108D01*
X0050018Y0075583D01*
X0049800Y0076108D01*
X0049043Y0076866D01*
X0048960Y0076900D01*
X0048960Y0077619D01*
X0048550Y0078608D01*
X0047793Y0079366D01*
X0046803Y0079775D01*
X0045732Y0079775D01*
X0044743Y0079366D01*
X0043986Y0078608D01*
X0043576Y0077619D01*
X0043576Y0076548D01*
X0043986Y0075558D01*
X0044743Y0074801D01*
X0044826Y0074767D01*
X0044826Y0074048D01*
X0045236Y0073058D01*
X0045518Y0072776D01*
X0045518Y0068755D01*
X0053018Y0061255D01*
X0053018Y0053525D01*
X0051982Y0053525D01*
X0050993Y0053116D01*
X0050236Y0052358D01*
X0049826Y0051369D01*
X0049826Y0050298D01*
X0050236Y0049308D01*
X0050993Y0048551D01*
X0051982Y0048141D01*
X0053018Y0048141D01*
X0053018Y0027912D01*
X0050322Y0027715D02*
X0044693Y0027715D01*
X0044945Y0026517D02*
X0049123Y0026517D01*
X0048018Y0025318D02*
X0044945Y0025318D01*
X0044945Y0024120D02*
X0048018Y0024120D01*
X0047129Y0022921D02*
X0044649Y0022921D01*
X0044328Y0021723D02*
X0046577Y0021723D01*
X0046499Y0020524D02*
X0043747Y0020524D01*
X0043055Y0019326D02*
X0046833Y0019326D01*
X0047747Y0018127D02*
X0042004Y0018127D01*
X0040730Y0016929D02*
X0124880Y0016929D01*
X0124880Y0018127D02*
X0097289Y0018127D01*
X0098203Y0019326D02*
X0124880Y0019326D01*
X0124880Y0020524D02*
X0098537Y0020524D01*
X0098459Y0021723D02*
X0124880Y0021723D01*
X0124880Y0022921D02*
X0097907Y0022921D01*
X0096280Y0024120D02*
X0124880Y0024120D01*
X0124880Y0025318D02*
X0077018Y0025318D01*
X0077018Y0024120D02*
X0078756Y0024120D01*
X0081280Y0024120D02*
X0083756Y0024120D01*
X0086280Y0024120D02*
X0088756Y0024120D01*
X0091280Y0024120D02*
X0093756Y0024120D01*
X0100236Y0029308D02*
X0100993Y0028551D01*
X0101982Y0028141D01*
X0103053Y0028141D01*
X0104043Y0028551D01*
X0104800Y0029308D01*
X0105210Y0030298D01*
X0105210Y0031369D01*
X0104800Y0032358D01*
X0104043Y0033116D01*
X0103053Y0033525D01*
X0101982Y0033525D01*
X0100993Y0033116D01*
X0100236Y0032358D01*
X0099826Y0031369D01*
X0099826Y0030298D01*
X0100236Y0029308D01*
X0100630Y0028914D02*
X0081906Y0028914D01*
X0082633Y0030112D02*
X0099902Y0030112D01*
X0099826Y0031311D02*
X0082710Y0031311D01*
X0082149Y0032510D02*
X0100387Y0032510D01*
X0104649Y0032510D02*
X0113658Y0032510D01*
X0113843Y0032386D02*
X0114295Y0032199D01*
X0114774Y0032104D01*
X0115018Y0032104D01*
X0115262Y0032104D01*
X0115741Y0032199D01*
X0116192Y0032386D01*
X0116598Y0032657D01*
X0116944Y0033003D01*
X0117215Y0033409D01*
X0117402Y0033860D01*
X0117497Y0034339D01*
X0117497Y0034583D01*
X0115018Y0034583D01*
X0115018Y0032104D01*
X0115018Y0034583D01*
X0115018Y0034583D01*
X0115018Y0034583D01*
X0117497Y0034583D01*
X0117497Y0034828D01*
X0117402Y0035307D01*
X0117215Y0035758D01*
X0116944Y0036164D01*
X0116598Y0036509D01*
X0116192Y0036781D01*
X0115741Y0036968D01*
X0115262Y0037063D01*
X0115018Y0037063D01*
X0115018Y0034583D01*
X0112538Y0034583D01*
X0112538Y0034339D01*
X0112634Y0033860D01*
X0112820Y0033409D01*
X0113092Y0033003D01*
X0113437Y0032657D01*
X0113843Y0032386D01*
X0115018Y0032510D02*
X0115018Y0032510D01*
X0115018Y0033708D02*
X0115018Y0033708D01*
X0115018Y0034583D02*
X0115018Y0034583D01*
X0115018Y0034583D01*
X0112538Y0034583D01*
X0112538Y0034828D01*
X0112634Y0035307D01*
X0112820Y0035758D01*
X0113092Y0036164D01*
X0113437Y0036509D01*
X0113843Y0036781D01*
X0114295Y0036968D01*
X0114774Y0037063D01*
X0115018Y0037063D01*
X0115018Y0034583D01*
X0115018Y0034907D02*
X0115018Y0034907D01*
X0115018Y0036105D02*
X0115018Y0036105D01*
X0116983Y0036105D02*
X0117739Y0036105D01*
X0117820Y0035909D02*
X0118092Y0035503D01*
X0118437Y0035157D01*
X0118843Y0034886D01*
X0119295Y0034699D01*
X0119774Y0034604D01*
X0120018Y0034604D01*
X0120262Y0034604D01*
X0120741Y0034699D01*
X0121192Y0034886D01*
X0121598Y0035157D01*
X0121944Y0035503D01*
X0122215Y0035909D01*
X0122402Y0036360D01*
X0122497Y0036839D01*
X0122497Y0037083D01*
X0120018Y0037083D01*
X0120018Y0034604D01*
X0120018Y0037083D01*
X0120018Y0037083D01*
X0120018Y0037083D01*
X0122497Y0037083D01*
X0122497Y0037328D01*
X0122402Y0037807D01*
X0122215Y0038258D01*
X0121944Y0038664D01*
X0121598Y0039009D01*
X0121192Y0039281D01*
X0120741Y0039468D01*
X0120262Y0039563D01*
X0120018Y0039563D01*
X0120018Y0037083D01*
X0117538Y0037083D01*
X0117538Y0036839D01*
X0117634Y0036360D01*
X0117820Y0035909D01*
X0117482Y0034907D02*
X0118813Y0034907D01*
X0120018Y0034907D02*
X0120018Y0034907D01*
X0120018Y0036105D02*
X0120018Y0036105D01*
X0120018Y0037083D02*
X0120018Y0037083D01*
X0120018Y0037083D01*
X0117538Y0037083D01*
X0117538Y0037328D01*
X0117634Y0037807D01*
X0117820Y0038258D01*
X0118092Y0038664D01*
X0118437Y0039009D01*
X0118843Y0039281D01*
X0119295Y0039468D01*
X0119774Y0039563D01*
X0120018Y0039563D01*
X0120018Y0037083D01*
X0120018Y0037304D02*
X0120018Y0037304D01*
X0120018Y0038502D02*
X0120018Y0038502D01*
X0117984Y0038502D02*
X0112484Y0038502D01*
X0112300Y0038058D02*
X0112710Y0039048D01*
X0112710Y0040119D01*
X0112300Y0041108D01*
X0111543Y0041866D01*
X0110553Y0042275D01*
X0109482Y0042275D01*
X0108493Y0041866D01*
X0107736Y0041108D01*
X0107326Y0040119D01*
X0107326Y0039048D01*
X0107542Y0038525D01*
X0106982Y0038525D01*
X0105993Y0038116D01*
X0105236Y0037358D01*
X0104826Y0036369D01*
X0104826Y0035298D01*
X0105236Y0034308D01*
X0105993Y0033551D01*
X0106982Y0033141D01*
X0108053Y0033141D01*
X0109043Y0033551D01*
X0109800Y0034308D01*
X0110210Y0035298D01*
X0110210Y0036369D01*
X0109994Y0036891D01*
X0110553Y0036891D01*
X0111543Y0037301D01*
X0112300Y0038058D01*
X0111545Y0037304D02*
X0117538Y0037304D01*
X0121223Y0034907D02*
X0124880Y0034907D01*
X0124880Y0036105D02*
X0122296Y0036105D01*
X0122497Y0037304D02*
X0124880Y0037304D01*
X0124880Y0038502D02*
X0122052Y0038502D01*
X0124880Y0039701D02*
X0112710Y0039701D01*
X0112387Y0040899D02*
X0124880Y0040899D01*
X0124880Y0042098D02*
X0110983Y0042098D01*
X0109053Y0042098D02*
X0096460Y0042098D01*
X0096460Y0042619D02*
X0096050Y0043608D01*
X0095293Y0044366D01*
X0094767Y0044583D01*
X0095293Y0044801D01*
X0096050Y0045558D01*
X0096460Y0046548D01*
X0096460Y0046891D01*
X0096803Y0046891D01*
X0097793Y0047301D01*
X0098550Y0048058D01*
X0098960Y0049048D01*
X0098960Y0049767D01*
X0099043Y0049801D01*
X0099325Y0050083D01*
X0108346Y0050083D01*
X0109518Y0051255D01*
X0109596Y0051333D01*
X0110768Y0052505D01*
X0110768Y0075412D01*
X0109288Y0076891D01*
X0109303Y0076891D01*
X0110070Y0077209D01*
X0110236Y0076808D01*
X0110993Y0076051D01*
X0111982Y0075641D01*
X0113053Y0075641D01*
X0114043Y0076051D01*
X0114800Y0076808D01*
X0115210Y0077798D01*
X0115210Y0078869D01*
X0114800Y0079858D01*
X0114043Y0080616D01*
X0113053Y0081025D01*
X0111982Y0081025D01*
X0111216Y0080708D01*
X0111050Y0081108D01*
X0110293Y0081866D01*
X0109303Y0082275D01*
X0108232Y0082275D01*
X0107243Y0081866D01*
X0106486Y0081108D01*
X0106236Y0080506D01*
X0105942Y0081217D01*
X0105184Y0081974D01*
X0104195Y0082384D01*
X0103124Y0082384D01*
X0102135Y0081974D01*
X0101377Y0081217D01*
X0100967Y0080227D01*
X0100967Y0079156D01*
X0101377Y0078167D01*
X0102135Y0077409D01*
X0103124Y0076999D01*
X0103523Y0076999D01*
X0106768Y0073755D01*
X0106768Y0069775D01*
X0105732Y0069775D01*
X0104743Y0069366D01*
X0103986Y0068608D01*
X0103576Y0067619D01*
X0103576Y0066548D01*
X0103986Y0065558D01*
X0104743Y0064801D01*
X0105732Y0064391D01*
X0106768Y0064391D01*
X0106768Y0057012D01*
X0106512Y0057063D01*
X0106268Y0057063D01*
X0106268Y0054583D01*
X0103788Y0054583D01*
X0103788Y0054339D01*
X0103839Y0054083D01*
X0099325Y0054083D01*
X0099043Y0054366D01*
X0098517Y0054583D01*
X0099043Y0054801D01*
X0099800Y0055558D01*
X0100210Y0056548D01*
X0100210Y0057619D01*
X0099800Y0058608D01*
X0099043Y0059366D01*
X0098053Y0059775D01*
X0096982Y0059775D01*
X0095993Y0059366D01*
X0095236Y0058608D01*
X0094826Y0057619D01*
X0094826Y0056548D01*
X0095236Y0055558D01*
X0095993Y0054801D01*
X0096518Y0054583D01*
X0095993Y0054366D01*
X0095236Y0053608D01*
X0094826Y0052619D01*
X0094826Y0051900D01*
X0094743Y0051866D01*
X0093986Y0051108D01*
X0093576Y0050119D01*
X0093576Y0049775D01*
X0093232Y0049775D01*
X0092243Y0049366D01*
X0091486Y0048608D01*
X0091076Y0047619D01*
X0091076Y0046548D01*
X0091486Y0045558D01*
X0092243Y0044801D01*
X0092768Y0044583D01*
X0092243Y0044366D01*
X0091486Y0043608D01*
X0091076Y0042619D01*
X0091076Y0041548D01*
X0091486Y0040558D01*
X0092243Y0039801D01*
X0092768Y0039583D01*
X0092243Y0039366D01*
X0091486Y0038608D01*
X0091076Y0037619D01*
X0091076Y0036548D01*
X0091486Y0035558D01*
X0092243Y0034801D01*
X0093232Y0034391D01*
X0094303Y0034391D01*
X0095293Y0034801D01*
X0096050Y0035558D01*
X0096460Y0036548D01*
X0096460Y0037619D01*
X0096050Y0038608D01*
X0095293Y0039366D01*
X0094767Y0039583D01*
X0095293Y0039801D01*
X0096050Y0040558D01*
X0096460Y0041548D01*
X0096460Y0042619D01*
X0096179Y0043296D02*
X0124880Y0043296D01*
X0124880Y0044495D02*
X0094981Y0044495D01*
X0096106Y0045693D02*
X0124880Y0045693D01*
X0124880Y0046892D02*
X0096804Y0046892D01*
X0098563Y0048090D02*
X0124880Y0048090D01*
X0124880Y0049289D02*
X0098960Y0049289D01*
X0094563Y0051686D02*
X0078829Y0051686D01*
X0078960Y0050487D02*
X0093728Y0050487D01*
X0092166Y0049289D02*
X0078530Y0049289D01*
X0078268Y0048090D02*
X0091271Y0048090D01*
X0091076Y0046892D02*
X0078268Y0046892D01*
X0078268Y0045693D02*
X0091430Y0045693D01*
X0092554Y0044495D02*
X0079355Y0044495D01*
X0078768Y0044495D02*
X0078768Y0044495D01*
X0078768Y0043296D02*
X0078768Y0043296D01*
X0078768Y0042098D02*
X0078768Y0042098D01*
X0078768Y0040899D02*
X0078768Y0040899D01*
X0078768Y0039701D02*
X0078768Y0039701D01*
X0079495Y0039701D02*
X0092485Y0039701D01*
X0091442Y0038502D02*
X0078268Y0038502D01*
X0078268Y0037304D02*
X0091076Y0037304D01*
X0091259Y0036105D02*
X0078268Y0036105D01*
X0078268Y0034907D02*
X0092137Y0034907D01*
X0095398Y0034907D02*
X0104988Y0034907D01*
X0104826Y0036105D02*
X0096277Y0036105D01*
X0096460Y0037304D02*
X0105213Y0037304D01*
X0106926Y0038502D02*
X0096094Y0038502D01*
X0095050Y0039701D02*
X0107326Y0039701D01*
X0107649Y0040899D02*
X0096191Y0040899D01*
X0091344Y0040899D02*
X0080959Y0040899D01*
X0081247Y0042098D02*
X0091076Y0042098D01*
X0091356Y0043296D02*
X0080940Y0043296D01*
X0071768Y0043296D02*
X0064518Y0043296D01*
X0064518Y0042098D02*
X0071768Y0042098D01*
X0071768Y0040899D02*
X0064518Y0040899D01*
X0064518Y0039701D02*
X0071057Y0039701D01*
X0069858Y0038502D02*
X0064518Y0038502D01*
X0064518Y0037304D02*
X0069268Y0037304D01*
X0069268Y0036105D02*
X0064518Y0036105D01*
X0064518Y0034907D02*
X0069268Y0034907D01*
X0068814Y0033708D02*
X0064518Y0033708D01*
X0064518Y0032510D02*
X0068018Y0032510D01*
X0068018Y0031311D02*
X0064869Y0031311D01*
X0066067Y0030112D02*
X0068018Y0030112D01*
X0068018Y0028914D02*
X0067018Y0028914D01*
X0067018Y0027715D02*
X0068018Y0027715D01*
X0068018Y0026517D02*
X0067018Y0026517D01*
X0067018Y0025318D02*
X0068018Y0025318D01*
X0068018Y0024120D02*
X0067018Y0024120D01*
X0067289Y0018127D02*
X0067747Y0018127D01*
X0072289Y0018127D02*
X0072747Y0018127D01*
X0077289Y0018127D02*
X0077747Y0018127D01*
X0082289Y0018127D02*
X0082747Y0018127D01*
X0087289Y0018127D02*
X0087747Y0018127D01*
X0092289Y0018127D02*
X0092747Y0018127D01*
X0104406Y0028914D02*
X0124880Y0028914D01*
X0124880Y0030112D02*
X0105133Y0030112D01*
X0105210Y0031311D02*
X0124880Y0031311D01*
X0124880Y0032510D02*
X0116377Y0032510D01*
X0117339Y0033708D02*
X0124880Y0033708D01*
X0124880Y0027715D02*
X0077018Y0027715D01*
X0077018Y0026517D02*
X0124880Y0026517D01*
X0113052Y0036105D02*
X0110210Y0036105D01*
X0110048Y0034907D02*
X0112554Y0034907D01*
X0112697Y0033708D02*
X0109200Y0033708D01*
X0105836Y0033708D02*
X0078268Y0033708D01*
X0078130Y0028914D02*
X0077177Y0028914D01*
X0062747Y0018127D02*
X0062289Y0018127D01*
X0057747Y0018127D02*
X0057289Y0018127D01*
X0052747Y0018127D02*
X0052289Y0018127D01*
X0038654Y0015730D02*
X0124880Y0015730D01*
X0124880Y0050487D02*
X0108750Y0050487D01*
X0109949Y0051686D02*
X0124880Y0051686D01*
X0124880Y0052884D02*
X0110768Y0052884D01*
X0110768Y0054083D02*
X0124880Y0054083D01*
X0124880Y0055281D02*
X0110768Y0055281D01*
X0110768Y0056480D02*
X0124880Y0056480D01*
X0124880Y0057678D02*
X0110768Y0057678D01*
X0110768Y0058877D02*
X0124880Y0058877D01*
X0124880Y0060075D02*
X0110768Y0060075D01*
X0110768Y0061274D02*
X0124880Y0061274D01*
X0124880Y0062472D02*
X0110768Y0062472D01*
X0110768Y0063671D02*
X0124880Y0063671D01*
X0124880Y0064869D02*
X0110768Y0064869D01*
X0110768Y0066068D02*
X0124880Y0066068D01*
X0124880Y0067266D02*
X0110768Y0067266D01*
X0110768Y0068465D02*
X0124880Y0068465D01*
X0124880Y0069663D02*
X0110768Y0069663D01*
X0110768Y0070862D02*
X0124880Y0070862D01*
X0124880Y0072060D02*
X0110768Y0072060D01*
X0110768Y0073259D02*
X0124880Y0073259D01*
X0124880Y0074457D02*
X0110768Y0074457D01*
X0110524Y0075656D02*
X0111947Y0075656D01*
X0113089Y0075656D02*
X0124880Y0075656D01*
X0124880Y0076854D02*
X0114819Y0076854D01*
X0115210Y0078053D02*
X0124880Y0078053D01*
X0124880Y0079251D02*
X0115051Y0079251D01*
X0114208Y0080450D02*
X0124880Y0080450D01*
X0124880Y0081648D02*
X0110510Y0081648D01*
X0110553Y0083141D02*
X0109482Y0083141D01*
X0108493Y0083551D01*
X0108211Y0083833D01*
X0097621Y0083833D01*
X0097300Y0083058D01*
X0096543Y0082301D01*
X0096094Y0082115D01*
X0096434Y0081974D01*
X0097192Y0081217D01*
X0097602Y0080227D01*
X0097602Y0079156D01*
X0097192Y0078167D01*
X0096842Y0077817D01*
X0097300Y0077358D01*
X0097710Y0076369D01*
X0097710Y0075298D01*
X0097300Y0074308D01*
X0096543Y0073551D01*
X0095553Y0073141D01*
X0094834Y0073141D01*
X0094800Y0073058D01*
X0094043Y0072301D01*
X0093053Y0071891D01*
X0091982Y0071891D01*
X0090993Y0072301D01*
X0090236Y0073058D01*
X0089826Y0074048D01*
X0089826Y0075119D01*
X0090236Y0076108D01*
X0090993Y0076866D01*
X0091982Y0077275D01*
X0092701Y0077275D01*
X0092736Y0077358D01*
X0093086Y0077708D01*
X0092627Y0078167D01*
X0092217Y0079156D01*
X0092217Y0080227D01*
X0092627Y0081217D01*
X0093385Y0081974D01*
X0093834Y0082160D01*
X0093493Y0082301D01*
X0092736Y0083058D01*
X0092326Y0084048D01*
X0092326Y0085083D01*
X0084596Y0085083D01*
X0079596Y0080083D01*
X0078075Y0080083D01*
X0077793Y0079801D01*
X0076803Y0079391D01*
X0075732Y0079391D01*
X0074743Y0079801D01*
X0073986Y0080558D01*
X0073576Y0081548D01*
X0073576Y0082619D01*
X0073986Y0083608D01*
X0074743Y0084366D01*
X0075732Y0084775D01*
X0076803Y0084775D01*
X0077793Y0084366D01*
X0078007Y0084151D01*
X0082939Y0089083D01*
X0097096Y0089083D01*
X0098268Y0087912D01*
X0098346Y0087833D01*
X0105461Y0087833D01*
X0105236Y0088058D01*
X0104826Y0089048D01*
X0104826Y0089608D01*
X0104303Y0089391D01*
X0103232Y0089391D01*
X0102243Y0089801D01*
X0101486Y0090558D01*
X0101076Y0091548D01*
X0101076Y0092619D01*
X0101486Y0093608D01*
X0102243Y0094366D01*
X0103232Y0094775D01*
X0104303Y0094775D01*
X0105293Y0094366D01*
X0106050Y0093608D01*
X0106460Y0092619D01*
X0106460Y0092059D01*
X0106982Y0092275D01*
X0108053Y0092275D01*
X0109043Y0091866D01*
X0109800Y0091108D01*
X0110210Y0090119D01*
X0110210Y0089048D01*
X0109994Y0088525D01*
X0110553Y0088525D01*
X0111543Y0088116D01*
X0112300Y0087358D01*
X0112710Y0086369D01*
X0112710Y0085298D01*
X0112300Y0084308D01*
X0111543Y0083551D01*
X0110553Y0083141D01*
X0112037Y0084045D02*
X0124880Y0084045D01*
X0124880Y0082847D02*
X0097089Y0082847D01*
X0096760Y0081648D02*
X0101809Y0081648D01*
X0101060Y0080450D02*
X0097509Y0080450D01*
X0097602Y0079251D02*
X0100967Y0079251D01*
X0101491Y0078053D02*
X0097078Y0078053D01*
X0097509Y0076854D02*
X0103668Y0076854D01*
X0104867Y0075656D02*
X0097710Y0075656D01*
X0097362Y0074457D02*
X0106065Y0074457D01*
X0106768Y0073259D02*
X0095837Y0073259D01*
X0093462Y0072060D02*
X0106768Y0072060D01*
X0106768Y0070862D02*
X0087710Y0070862D01*
X0087710Y0071369D02*
X0087710Y0070298D01*
X0087300Y0069308D01*
X0086543Y0068551D01*
X0085553Y0068141D01*
X0084482Y0068141D01*
X0083493Y0068551D01*
X0082736Y0069308D01*
X0082326Y0070298D01*
X0082326Y0070620D01*
X0082300Y0070558D01*
X0081543Y0069801D01*
X0080553Y0069391D01*
X0079482Y0069391D01*
X0078493Y0069801D01*
X0077736Y0070558D01*
X0077326Y0071548D01*
X0077326Y0072619D01*
X0077736Y0073608D01*
X0078493Y0074366D01*
X0079482Y0074775D01*
X0080553Y0074775D01*
X0081543Y0074366D01*
X0082300Y0073608D01*
X0082710Y0072619D01*
X0082710Y0072296D01*
X0082736Y0072358D01*
X0083493Y0073116D01*
X0084482Y0073525D01*
X0085553Y0073525D01*
X0086543Y0073116D01*
X0087300Y0072358D01*
X0087710Y0071369D01*
X0087423Y0072060D02*
X0091574Y0072060D01*
X0090152Y0073259D02*
X0086197Y0073259D01*
X0083839Y0073259D02*
X0082445Y0073259D01*
X0081321Y0074457D02*
X0089826Y0074457D01*
X0090048Y0075656D02*
X0073590Y0075656D01*
X0073550Y0075558D02*
X0073960Y0076548D01*
X0073960Y0077619D01*
X0073550Y0078608D01*
X0072793Y0079366D01*
X0071803Y0079775D01*
X0070732Y0079775D01*
X0069743Y0079366D01*
X0068986Y0078608D01*
X0068576Y0077619D01*
X0068576Y0076548D01*
X0068986Y0075558D01*
X0069743Y0074801D01*
X0070732Y0074391D01*
X0071803Y0074391D01*
X0072793Y0074801D01*
X0073550Y0075558D01*
X0073960Y0076854D02*
X0090982Y0076854D01*
X0092741Y0078053D02*
X0073780Y0078053D01*
X0072907Y0079251D02*
X0092217Y0079251D01*
X0092310Y0080450D02*
X0079963Y0080450D01*
X0081161Y0081648D02*
X0093059Y0081648D01*
X0092947Y0082847D02*
X0082360Y0082847D01*
X0083558Y0084045D02*
X0092327Y0084045D01*
X0097340Y0088840D02*
X0104912Y0088840D01*
X0102006Y0090038D02*
X0078030Y0090038D01*
X0077793Y0089801D02*
X0078550Y0090558D01*
X0078960Y0091548D01*
X0078960Y0092619D01*
X0078550Y0093608D01*
X0077793Y0094366D01*
X0076803Y0094775D01*
X0075732Y0094775D01*
X0074743Y0094366D01*
X0073986Y0093608D01*
X0073820Y0093208D01*
X0073053Y0093525D01*
X0071982Y0093525D01*
X0070993Y0093116D01*
X0070236Y0092358D01*
X0069826Y0091369D01*
X0069826Y0090298D01*
X0070236Y0089308D01*
X0070993Y0088551D01*
X0071982Y0088141D01*
X0073053Y0088141D01*
X0074043Y0088551D01*
X0074800Y0089308D01*
X0074966Y0089709D01*
X0075732Y0089391D01*
X0076803Y0089391D01*
X0077793Y0089801D01*
X0078831Y0091237D02*
X0101205Y0091237D01*
X0101076Y0092435D02*
X0078960Y0092435D01*
X0078525Y0093634D02*
X0101511Y0093634D01*
X0106025Y0093634D02*
X0112326Y0093634D01*
X0112326Y0093869D02*
X0112326Y0092798D01*
X0112736Y0091808D01*
X0113493Y0091051D01*
X0114482Y0090641D01*
X0115553Y0090641D01*
X0116543Y0091051D01*
X0117300Y0091808D01*
X0117710Y0092798D01*
X0117710Y0093869D01*
X0117300Y0094858D01*
X0116543Y0095616D01*
X0115553Y0096025D01*
X0114482Y0096025D01*
X0113493Y0095616D01*
X0112736Y0094858D01*
X0112326Y0093869D01*
X0112725Y0094832D02*
X0060324Y0094832D01*
X0060293Y0094801D02*
X0061050Y0095558D01*
X0061460Y0096548D01*
X0061460Y0097619D01*
X0061459Y0097621D01*
X0062011Y0097850D01*
X0062518Y0098356D01*
X0063024Y0097850D01*
X0064318Y0097314D01*
X0065718Y0097314D01*
X0067011Y0097850D01*
X0067518Y0098356D01*
X0068024Y0097850D01*
X0069318Y0097314D01*
X0070718Y0097314D01*
X0072011Y0097850D01*
X0072518Y0098356D01*
X0073024Y0097850D01*
X0074318Y0097314D01*
X0075718Y0097314D01*
X0077011Y0097850D01*
X0077518Y0098356D01*
X0078024Y0097850D01*
X0079318Y0097314D01*
X0080718Y0097314D01*
X0082011Y0097850D01*
X0082518Y0098356D01*
X0083024Y0097850D01*
X0084318Y0097314D01*
X0085718Y0097314D01*
X0087011Y0097850D01*
X0087518Y0098356D01*
X0088024Y0097850D01*
X0089318Y0097314D01*
X0090718Y0097314D01*
X0092011Y0097850D01*
X0092518Y0098356D01*
X0093024Y0097850D01*
X0094318Y0097314D01*
X0095718Y0097314D01*
X0097011Y0097850D01*
X0098001Y0098840D01*
X0098537Y0100133D01*
X0098537Y0101533D01*
X0098001Y0102827D01*
X0097011Y0103817D01*
X0095718Y0104353D01*
X0094318Y0104353D01*
X0093024Y0103817D01*
X0092518Y0103310D01*
X0092011Y0103817D01*
X0090718Y0104353D01*
X0089318Y0104353D01*
X0088024Y0103817D01*
X0087518Y0103310D01*
X0087011Y0103817D01*
X0085718Y0104353D01*
X0084318Y0104353D01*
X0083024Y0103817D01*
X0082518Y0103310D01*
X0082011Y0103817D01*
X0080718Y0104353D01*
X0079318Y0104353D01*
X0078024Y0103817D01*
X0077518Y0103310D01*
X0077011Y0103817D01*
X0075718Y0104353D01*
X0074318Y0104353D01*
X0073024Y0103817D01*
X0072518Y0103310D01*
X0072011Y0103817D01*
X0070718Y0104353D01*
X0069318Y0104353D01*
X0068024Y0103817D01*
X0067518Y0103310D01*
X0067011Y0103817D01*
X0065718Y0104353D01*
X0064318Y0104353D01*
X0063024Y0103817D01*
X0062518Y0103310D01*
X0062011Y0103817D01*
X0060718Y0104353D01*
X0059318Y0104353D01*
X0058024Y0103817D01*
X0057518Y0103310D01*
X0057011Y0103817D01*
X0055718Y0104353D01*
X0054318Y0104353D01*
X0053024Y0103817D01*
X0052367Y0103160D01*
X0052126Y0103402D01*
X0051584Y0103764D01*
X0050982Y0104013D01*
X0050343Y0104140D01*
X0050058Y0104140D01*
X0050058Y0100873D01*
X0049978Y0100873D01*
X0049978Y0100794D01*
X0046711Y0100794D01*
X0046711Y0100508D01*
X0046838Y0099869D01*
X0047087Y0099267D01*
X0047449Y0098725D01*
X0047910Y0098265D01*
X0048451Y0097903D01*
X0049053Y0097654D01*
X0049692Y0097527D01*
X0049978Y0097527D01*
X0049978Y0100793D01*
X0050058Y0100793D01*
X0050058Y0097527D01*
X0050343Y0097527D01*
X0050982Y0097654D01*
X0051584Y0097903D01*
X0052126Y0098265D01*
X0052367Y0098507D01*
X0053024Y0097850D01*
X0054318Y0097314D01*
X0055718Y0097314D01*
X0056076Y0097462D01*
X0056076Y0096548D01*
X0056486Y0095558D01*
X0057243Y0094801D01*
X0058232Y0094391D01*
X0059303Y0094391D01*
X0060293Y0094801D01*
X0061246Y0096031D02*
X0124880Y0096031D01*
X0124880Y0097229D02*
X0061460Y0097229D01*
X0057212Y0094832D02*
X0054498Y0094832D01*
X0054986Y0093634D02*
X0074011Y0093634D01*
X0070312Y0092435D02*
X0054830Y0092435D01*
X0053843Y0091237D02*
X0069826Y0091237D01*
X0069933Y0090038D02*
X0042967Y0090038D01*
X0043658Y0091237D02*
X0051193Y0091237D01*
X0052518Y0091237D02*
X0052518Y0091237D01*
X0052518Y0092435D02*
X0052518Y0092435D01*
X0052518Y0093634D02*
X0052518Y0093634D01*
X0052518Y0094832D02*
X0052518Y0094832D01*
X0050537Y0094832D02*
X0050210Y0094832D01*
X0050049Y0093634D02*
X0050038Y0093634D01*
X0050206Y0092435D02*
X0049177Y0092435D01*
X0045859Y0092435D02*
X0044287Y0092435D01*
X0044608Y0093634D02*
X0044997Y0093634D01*
X0044945Y0096031D02*
X0045203Y0096031D01*
X0044945Y0097229D02*
X0046870Y0097229D01*
X0048165Y0097229D02*
X0056076Y0097229D01*
X0056290Y0096031D02*
X0049832Y0096031D01*
X0049978Y0098428D02*
X0050058Y0098428D01*
X0050058Y0099626D02*
X0049978Y0099626D01*
X0049978Y0100825D02*
X0043931Y0100825D01*
X0044413Y0099626D02*
X0046939Y0099626D01*
X0046711Y0100873D02*
X0049978Y0100873D01*
X0049978Y0104140D01*
X0049692Y0104140D01*
X0049053Y0104013D01*
X0048451Y0103764D01*
X0047910Y0103402D01*
X0047449Y0102941D01*
X0047087Y0102400D01*
X0046838Y0101798D01*
X0046711Y0101159D01*
X0046711Y0100873D01*
X0046932Y0102023D02*
X0043239Y0102023D01*
X0042321Y0103222D02*
X0047730Y0103222D01*
X0049978Y0103222D02*
X0050058Y0103222D01*
X0050058Y0102023D02*
X0049978Y0102023D01*
X0052306Y0103222D02*
X0052429Y0103222D01*
X0052446Y0098428D02*
X0052288Y0098428D01*
X0047747Y0098428D02*
X0044734Y0098428D01*
X0041123Y0104420D02*
X0124880Y0104420D01*
X0124880Y0103222D02*
X0097606Y0103222D01*
X0098334Y0102023D02*
X0124880Y0102023D01*
X0124880Y0100825D02*
X0098537Y0100825D01*
X0098327Y0099626D02*
X0124880Y0099626D01*
X0124880Y0098428D02*
X0097589Y0098428D01*
X0106460Y0092435D02*
X0112476Y0092435D01*
X0113307Y0091237D02*
X0109672Y0091237D01*
X0110210Y0090038D02*
X0124880Y0090038D01*
X0124880Y0088840D02*
X0110124Y0088840D01*
X0112017Y0087641D02*
X0124880Y0087641D01*
X0124880Y0086443D02*
X0112679Y0086443D01*
X0112688Y0085244D02*
X0124880Y0085244D01*
X0124880Y0091237D02*
X0116728Y0091237D01*
X0117560Y0092435D02*
X0124880Y0092435D01*
X0124880Y0093634D02*
X0117710Y0093634D01*
X0117311Y0094832D02*
X0124880Y0094832D01*
X0124880Y0105619D02*
X0039204Y0105619D01*
X0024365Y0093634D02*
X0024299Y0093634D01*
X0024299Y0092435D02*
X0024686Y0092435D01*
X0024299Y0091237D02*
X0025314Y0091237D01*
X0026006Y0090038D02*
X0024299Y0090038D01*
X0024299Y0088840D02*
X0027123Y0088840D01*
X0028509Y0087641D02*
X0024299Y0087641D01*
X0024299Y0086443D02*
X0030742Y0086443D01*
X0024299Y0085244D02*
X0040922Y0085244D01*
X0040937Y0085259D02*
X0040592Y0084914D01*
X0040320Y0084508D01*
X0040134Y0084057D01*
X0040038Y0083578D01*
X0040038Y0083333D01*
X0040038Y0083089D01*
X0040134Y0082610D01*
X0040320Y0082159D01*
X0040592Y0081753D01*
X0040937Y0081407D01*
X0041343Y0081136D01*
X0041795Y0080949D01*
X0042274Y0080854D01*
X0042518Y0080854D01*
X0042762Y0080854D01*
X0043241Y0080949D01*
X0043692Y0081136D01*
X0044098Y0081407D01*
X0044444Y0081753D01*
X0044715Y0082159D01*
X0044902Y0082610D01*
X0044997Y0083089D01*
X0044997Y0083333D01*
X0042518Y0083333D01*
X0042518Y0080854D01*
X0042518Y0083333D01*
X0042518Y0083333D01*
X0042518Y0083333D01*
X0044997Y0083333D01*
X0044997Y0083578D01*
X0044902Y0084057D01*
X0044715Y0084508D01*
X0044444Y0084914D01*
X0044098Y0085259D01*
X0043692Y0085531D01*
X0043241Y0085718D01*
X0042762Y0085813D01*
X0042518Y0085813D01*
X0042518Y0083333D01*
X0040038Y0083333D01*
X0042518Y0083333D01*
X0042518Y0083333D01*
X0042518Y0083333D01*
X0042518Y0085813D01*
X0042274Y0085813D01*
X0041795Y0085718D01*
X0041343Y0085531D01*
X0040937Y0085259D01*
X0040131Y0084045D02*
X0024299Y0084045D01*
X0024299Y0082847D02*
X0040086Y0082847D01*
X0040696Y0081648D02*
X0024299Y0081648D01*
X0024299Y0080450D02*
X0059963Y0080450D01*
X0059826Y0079251D02*
X0047907Y0079251D01*
X0048780Y0078053D02*
X0060241Y0078053D01*
X0058482Y0076854D02*
X0054054Y0076854D01*
X0054987Y0075656D02*
X0057548Y0075656D01*
X0057326Y0074457D02*
X0055210Y0074457D01*
X0054883Y0073259D02*
X0057652Y0073259D01*
X0057612Y0072060D02*
X0053673Y0072060D01*
X0053960Y0070862D02*
X0057326Y0070862D01*
X0057588Y0069663D02*
X0053697Y0069663D01*
X0052585Y0068465D02*
X0058018Y0068465D01*
X0058018Y0067266D02*
X0052663Y0067266D01*
X0053862Y0066068D02*
X0058018Y0066068D01*
X0058018Y0064869D02*
X0055060Y0064869D01*
X0056259Y0063671D02*
X0058018Y0063671D01*
X0058018Y0062472D02*
X0057018Y0062472D01*
X0057018Y0061274D02*
X0058018Y0061274D01*
X0058018Y0060075D02*
X0057018Y0060075D01*
X0057018Y0058877D02*
X0058018Y0058877D01*
X0058018Y0057678D02*
X0057018Y0057678D01*
X0057018Y0056480D02*
X0058018Y0056480D01*
X0058018Y0055281D02*
X0057018Y0055281D01*
X0057018Y0054083D02*
X0058018Y0054083D01*
X0058018Y0052884D02*
X0057018Y0052884D01*
X0057018Y0051686D02*
X0058018Y0051686D01*
X0058018Y0050487D02*
X0057018Y0050487D01*
X0057018Y0049289D02*
X0058018Y0049289D01*
X0058018Y0048090D02*
X0057018Y0048090D01*
X0057018Y0046892D02*
X0058018Y0046892D01*
X0058018Y0045693D02*
X0057018Y0045693D01*
X0057018Y0044495D02*
X0058018Y0044495D01*
X0058018Y0043296D02*
X0057018Y0043296D01*
X0057018Y0042098D02*
X0058018Y0042098D01*
X0058018Y0040899D02*
X0057018Y0040899D01*
X0057018Y0039701D02*
X0058018Y0039701D01*
X0058018Y0038502D02*
X0057018Y0038502D01*
X0057018Y0037304D02*
X0058018Y0037304D01*
X0058018Y0036105D02*
X0057018Y0036105D01*
X0057018Y0034907D02*
X0058018Y0034907D01*
X0058018Y0033708D02*
X0057018Y0033708D01*
X0057018Y0032510D02*
X0058018Y0032510D01*
X0058018Y0031311D02*
X0057018Y0031311D01*
X0057018Y0030112D02*
X0058018Y0030112D01*
X0053018Y0037304D02*
X0024299Y0037304D01*
X0024299Y0038502D02*
X0027372Y0038502D01*
X0026678Y0039701D02*
X0024299Y0039701D01*
X0024299Y0040899D02*
X0026499Y0040899D01*
X0026732Y0042098D02*
X0024299Y0042098D01*
X0024299Y0043296D02*
X0027504Y0043296D01*
X0026763Y0044495D02*
X0024299Y0044495D01*
X0024299Y0045693D02*
X0026499Y0045693D01*
X0026647Y0046892D02*
X0024299Y0046892D01*
X0024299Y0048090D02*
X0027298Y0048090D01*
X0027078Y0049289D02*
X0024299Y0049289D01*
X0024299Y0050487D02*
X0026715Y0050487D01*
X0026816Y0051686D02*
X0024299Y0051686D01*
X0024299Y0052884D02*
X0027411Y0052884D01*
X0026934Y0054083D02*
X0024299Y0054083D01*
X0024299Y0055281D02*
X0026499Y0055281D01*
X0026499Y0056480D02*
X0024299Y0056480D01*
X0024299Y0057678D02*
X0026973Y0057678D01*
X0027019Y0058877D02*
X0024299Y0058877D01*
X0024299Y0060075D02*
X0026523Y0060075D01*
X0026499Y0061274D02*
X0024299Y0061274D01*
X0024299Y0062472D02*
X0026887Y0062472D01*
X0027878Y0063671D02*
X0024299Y0063671D01*
X0024299Y0064869D02*
X0042747Y0064869D01*
X0042736Y0064858D02*
X0042326Y0063869D01*
X0042326Y0062798D01*
X0042736Y0061808D01*
X0043493Y0061051D01*
X0044018Y0060833D01*
X0043493Y0060616D01*
X0042736Y0059858D01*
X0042326Y0058869D01*
X0042326Y0057798D01*
X0042736Y0056808D01*
X0043493Y0056051D01*
X0044018Y0055833D01*
X0043493Y0055616D01*
X0042736Y0054858D01*
X0042326Y0053869D01*
X0042326Y0052798D01*
X0042736Y0051808D01*
X0043493Y0051051D01*
X0044482Y0050641D01*
X0045553Y0050641D01*
X0046543Y0051051D01*
X0047300Y0051808D01*
X0047710Y0052798D01*
X0047710Y0053869D01*
X0047300Y0054858D01*
X0046543Y0055616D01*
X0046017Y0055833D01*
X0046543Y0056051D01*
X0047300Y0056808D01*
X0047710Y0057798D01*
X0047710Y0058869D01*
X0047300Y0059858D01*
X0046543Y0060616D01*
X0046017Y0060833D01*
X0046543Y0061051D01*
X0047300Y0061808D01*
X0047710Y0062798D01*
X0047710Y0063869D01*
X0047300Y0064858D01*
X0046543Y0065616D01*
X0045553Y0066025D01*
X0044482Y0066025D01*
X0043493Y0065616D01*
X0042736Y0064858D01*
X0042326Y0063671D02*
X0037157Y0063671D01*
X0038148Y0062472D02*
X0042461Y0062472D01*
X0043270Y0061274D02*
X0038537Y0061274D01*
X0038513Y0060075D02*
X0042953Y0060075D01*
X0042329Y0058877D02*
X0038017Y0058877D01*
X0038063Y0057678D02*
X0042375Y0057678D01*
X0043064Y0056480D02*
X0038537Y0056480D01*
X0038537Y0055281D02*
X0043158Y0055281D01*
X0042414Y0054083D02*
X0038102Y0054083D01*
X0037624Y0052884D02*
X0042326Y0052884D01*
X0042858Y0051686D02*
X0038220Y0051686D01*
X0038320Y0050487D02*
X0049826Y0050487D01*
X0049957Y0051686D02*
X0047177Y0051686D01*
X0047710Y0052884D02*
X0050761Y0052884D01*
X0053018Y0054083D02*
X0047621Y0054083D01*
X0046877Y0055281D02*
X0053018Y0055281D01*
X0053018Y0056480D02*
X0046971Y0056480D01*
X0047660Y0057678D02*
X0053018Y0057678D01*
X0053018Y0058877D02*
X0047707Y0058877D01*
X0047083Y0060075D02*
X0053018Y0060075D01*
X0052999Y0061274D02*
X0046765Y0061274D01*
X0047575Y0062472D02*
X0051800Y0062472D01*
X0050602Y0063671D02*
X0047710Y0063671D01*
X0047289Y0064869D02*
X0049403Y0064869D01*
X0048205Y0066068D02*
X0024299Y0066068D01*
X0024299Y0067266D02*
X0047006Y0067266D01*
X0045808Y0068465D02*
X0024299Y0068465D01*
X0024299Y0069663D02*
X0045518Y0069663D01*
X0045518Y0070862D02*
X0024299Y0070862D01*
X0024299Y0072060D02*
X0035324Y0072060D01*
X0035732Y0071891D02*
X0036803Y0071891D01*
X0037793Y0072301D01*
X0038550Y0073058D01*
X0038960Y0074048D01*
X0038960Y0075119D01*
X0038550Y0076108D01*
X0037793Y0076866D01*
X0036803Y0077275D01*
X0035732Y0077275D01*
X0034743Y0076866D01*
X0033986Y0076108D01*
X0033576Y0075119D01*
X0033576Y0074048D01*
X0033986Y0073058D01*
X0034743Y0072301D01*
X0035732Y0071891D01*
X0037212Y0072060D02*
X0045518Y0072060D01*
X0045152Y0073259D02*
X0038633Y0073259D01*
X0038960Y0074457D02*
X0044826Y0074457D01*
X0043945Y0075656D02*
X0038737Y0075656D01*
X0037804Y0076854D02*
X0043576Y0076854D01*
X0043755Y0078053D02*
X0024299Y0078053D01*
X0024299Y0079251D02*
X0044629Y0079251D01*
X0044340Y0081648D02*
X0060776Y0081648D01*
X0064260Y0081648D02*
X0073576Y0081648D01*
X0073670Y0082847D02*
X0044949Y0082847D01*
X0044904Y0084045D02*
X0074423Y0084045D01*
X0074094Y0080450D02*
X0065073Y0080450D01*
X0065210Y0079251D02*
X0069629Y0079251D01*
X0068755Y0078053D02*
X0064795Y0078053D01*
X0064518Y0076854D02*
X0068576Y0076854D01*
X0068945Y0075656D02*
X0064518Y0075656D01*
X0064518Y0074457D02*
X0070572Y0074457D01*
X0071963Y0074457D02*
X0078715Y0074457D01*
X0077591Y0073259D02*
X0064518Y0073259D01*
X0064518Y0072060D02*
X0077326Y0072060D01*
X0077610Y0070862D02*
X0065948Y0070862D01*
X0067381Y0069663D02*
X0078825Y0069663D01*
X0081210Y0069663D02*
X0082588Y0069663D01*
X0083701Y0068465D02*
X0067710Y0068465D01*
X0067490Y0067266D02*
X0074460Y0067266D01*
X0075575Y0067266D02*
X0095197Y0067266D01*
X0095236Y0067358D02*
X0094826Y0066369D01*
X0094826Y0065298D01*
X0095236Y0064308D01*
X0095993Y0063551D01*
X0096982Y0063141D01*
X0098053Y0063141D01*
X0099043Y0063551D01*
X0099800Y0064308D01*
X0100210Y0065298D01*
X0100210Y0066369D01*
X0099800Y0067358D01*
X0099043Y0068116D01*
X0098053Y0068525D01*
X0096982Y0068525D01*
X0095993Y0068116D01*
X0095236Y0067358D01*
X0094826Y0066068D02*
X0077317Y0066068D01*
X0079789Y0064869D02*
X0095003Y0064869D01*
X0095873Y0063671D02*
X0080210Y0063671D01*
X0083436Y0062472D02*
X0106768Y0062472D01*
X0106768Y0061274D02*
X0083960Y0061274D01*
X0083868Y0060075D02*
X0106768Y0060075D01*
X0106768Y0058877D02*
X0099532Y0058877D01*
X0100185Y0057678D02*
X0106768Y0057678D01*
X0106268Y0057063D02*
X0106024Y0057063D01*
X0105545Y0056968D01*
X0105093Y0056781D01*
X0104687Y0056509D01*
X0104342Y0056164D01*
X0104070Y0055758D01*
X0103884Y0055307D01*
X0103788Y0054828D01*
X0103788Y0054583D01*
X0106268Y0054583D01*
X0106268Y0054583D01*
X0106268Y0054583D01*
X0106268Y0057063D01*
X0106268Y0056480D02*
X0106268Y0056480D01*
X0106268Y0055281D02*
X0106268Y0055281D01*
X0104658Y0056480D02*
X0100182Y0056480D01*
X0099523Y0055281D02*
X0103879Y0055281D01*
X0095710Y0054083D02*
X0077018Y0054083D01*
X0077018Y0055281D02*
X0085513Y0055281D01*
X0085236Y0055558D02*
X0085993Y0054801D01*
X0086982Y0054391D01*
X0088053Y0054391D01*
X0089043Y0054801D01*
X0089800Y0055558D01*
X0090210Y0056548D01*
X0090210Y0057619D01*
X0089800Y0058608D01*
X0089043Y0059366D01*
X0088053Y0059775D01*
X0086982Y0059775D01*
X0085993Y0059366D01*
X0085236Y0058608D01*
X0084826Y0057619D01*
X0084826Y0056548D01*
X0085236Y0055558D01*
X0084854Y0056480D02*
X0080721Y0056480D01*
X0081410Y0057678D02*
X0084850Y0057678D01*
X0085504Y0058877D02*
X0083118Y0058877D01*
X0089532Y0058877D02*
X0095504Y0058877D01*
X0094850Y0057678D02*
X0090185Y0057678D01*
X0090182Y0056480D02*
X0094854Y0056480D01*
X0095513Y0055281D02*
X0089523Y0055281D01*
X0094936Y0052884D02*
X0078024Y0052884D01*
X0072939Y0054083D02*
X0064518Y0054083D01*
X0064518Y0055281D02*
X0073018Y0055281D01*
X0073018Y0056480D02*
X0064518Y0056480D01*
X0064518Y0057678D02*
X0073018Y0057678D01*
X0073018Y0058877D02*
X0064518Y0058877D01*
X0064518Y0060075D02*
X0073018Y0060075D01*
X0073880Y0061274D02*
X0064518Y0061274D01*
X0064518Y0062472D02*
X0073322Y0062472D01*
X0072482Y0063671D02*
X0064518Y0063671D01*
X0064518Y0064869D02*
X0072326Y0064869D01*
X0072719Y0066068D02*
X0066560Y0066068D01*
X0064518Y0052884D02*
X0071768Y0052884D01*
X0071768Y0051686D02*
X0064518Y0051686D01*
X0064518Y0050487D02*
X0071768Y0050487D01*
X0071768Y0049289D02*
X0070370Y0049289D01*
X0070293Y0049366D02*
X0069303Y0049775D01*
X0068232Y0049775D01*
X0067243Y0049366D01*
X0066486Y0048608D01*
X0066076Y0047619D01*
X0066076Y0046548D01*
X0066486Y0045558D01*
X0067243Y0044801D01*
X0068232Y0044391D01*
X0069303Y0044391D01*
X0070293Y0044801D01*
X0071050Y0045558D01*
X0071460Y0046548D01*
X0071460Y0047619D01*
X0071050Y0048608D01*
X0070293Y0049366D01*
X0071265Y0048090D02*
X0071768Y0048090D01*
X0071768Y0046892D02*
X0071460Y0046892D01*
X0071768Y0045693D02*
X0071106Y0045693D01*
X0071768Y0044495D02*
X0069553Y0044495D01*
X0067983Y0044495D02*
X0064518Y0044495D01*
X0064518Y0045693D02*
X0066430Y0045693D01*
X0066076Y0046892D02*
X0064518Y0046892D01*
X0064518Y0048090D02*
X0066271Y0048090D01*
X0067166Y0049289D02*
X0064518Y0049289D01*
X0053018Y0048090D02*
X0046568Y0048090D01*
X0046543Y0048116D02*
X0045553Y0048525D01*
X0044482Y0048525D01*
X0043493Y0048116D01*
X0042736Y0047358D01*
X0042326Y0046369D01*
X0042326Y0045298D01*
X0042736Y0044308D01*
X0043493Y0043551D01*
X0044482Y0043141D01*
X0045553Y0043141D01*
X0046543Y0043551D01*
X0047300Y0044308D01*
X0047710Y0045298D01*
X0047710Y0046369D01*
X0047300Y0047358D01*
X0046543Y0048116D01*
X0047493Y0046892D02*
X0053018Y0046892D01*
X0053018Y0045693D02*
X0047710Y0045693D01*
X0047377Y0044495D02*
X0053018Y0044495D01*
X0053018Y0043296D02*
X0045927Y0043296D01*
X0044108Y0043296D02*
X0037532Y0043296D01*
X0038273Y0044495D02*
X0042658Y0044495D01*
X0042326Y0045693D02*
X0038537Y0045693D01*
X0038389Y0046892D02*
X0042542Y0046892D01*
X0043467Y0048090D02*
X0037738Y0048090D01*
X0037957Y0049289D02*
X0050255Y0049289D01*
X0053018Y0042098D02*
X0038303Y0042098D01*
X0038537Y0040899D02*
X0053018Y0040899D01*
X0053018Y0039701D02*
X0038358Y0039701D01*
X0037664Y0038502D02*
X0053018Y0038502D01*
X0042887Y0032510D02*
X0042167Y0032510D01*
X0028004Y0033708D02*
X0024299Y0033708D01*
X0024299Y0032510D02*
X0026805Y0032510D01*
X0025823Y0031311D02*
X0024299Y0031311D01*
X0024299Y0030112D02*
X0025131Y0030112D01*
X0024601Y0028914D02*
X0024299Y0028914D01*
X0030058Y0050794D02*
X0030058Y0050873D01*
X0034978Y0050873D01*
X0034978Y0050794D01*
X0033324Y0050794D01*
X0030058Y0050794D01*
X0032157Y0063671D02*
X0032878Y0063671D01*
X0033902Y0073259D02*
X0024299Y0073259D01*
X0024299Y0074457D02*
X0033576Y0074457D01*
X0033798Y0075656D02*
X0024299Y0075656D01*
X0024299Y0076854D02*
X0034732Y0076854D01*
X0042518Y0081648D02*
X0042518Y0081648D01*
X0042518Y0082847D02*
X0042518Y0082847D01*
X0042518Y0084045D02*
X0042518Y0084045D01*
X0042518Y0085244D02*
X0042518Y0085244D01*
X0044114Y0085244D02*
X0079100Y0085244D01*
X0080299Y0086443D02*
X0038231Y0086443D01*
X0040463Y0087641D02*
X0081497Y0087641D01*
X0082696Y0088840D02*
X0074331Y0088840D01*
X0070704Y0088840D02*
X0041850Y0088840D01*
X0049054Y0076854D02*
X0050982Y0076854D01*
X0050048Y0075656D02*
X0049987Y0075656D01*
X0086335Y0068465D02*
X0096836Y0068465D01*
X0098200Y0068465D02*
X0103926Y0068465D01*
X0103576Y0067266D02*
X0099838Y0067266D01*
X0100210Y0066068D02*
X0103774Y0066068D01*
X0104675Y0064869D02*
X0100032Y0064869D01*
X0099163Y0063671D02*
X0106768Y0063671D01*
X0105462Y0069663D02*
X0087447Y0069663D01*
X0105510Y0081648D02*
X0107026Y0081648D01*
X0109325Y0076854D02*
X0110216Y0076854D01*
M02*
