G75*
%MOIN*%
%OFA0B0*%
%FSLAX25Y25*%
%IPPOS*%
%LPD*%
%AMOC8*
5,1,8,0,0,1.08239X$1,22.5*
%
%ADD10R,0.03543X0.02756*%
%ADD11R,0.02756X0.03543*%
%ADD12R,0.03150X0.03150*%
%ADD13R,0.00984X0.01378*%
%ADD14C,0.00500*%
%ADD15C,0.03839*%
%ADD16C,0.17717*%
%ADD17R,0.06102X0.06102*%
%ADD18R,0.01378X0.04134*%
%ADD19R,0.05709X0.04921*%
%ADD20R,0.04134X0.01378*%
%ADD21R,0.07874X0.07874*%
%ADD22R,0.07087X0.06299*%
%ADD23R,0.01280X0.02756*%
%ADD24R,0.02461X0.02264*%
%ADD25C,0.02184*%
%ADD26C,0.01600*%
%ADD27C,0.01200*%
%ADD28C,0.00800*%
%ADD29C,0.00787*%
D10*
X0050018Y0040774D03*
X0050018Y0045892D03*
X0075018Y0042142D03*
X0075018Y0037024D03*
D11*
X0070077Y0053333D03*
X0064959Y0053333D03*
X0064959Y0058333D03*
X0070077Y0058333D03*
X0070077Y0063333D03*
X0064959Y0063333D03*
X0126209Y0079583D03*
X0131327Y0079583D03*
D12*
X0055766Y0063333D03*
X0055766Y0058333D03*
X0055766Y0053333D03*
X0049270Y0053333D03*
X0049270Y0058333D03*
X0049270Y0063333D03*
D13*
X0065549Y0042241D03*
X0069486Y0042241D03*
X0069486Y0036926D03*
X0067518Y0036926D03*
X0065549Y0036926D03*
D14*
X0067026Y0036763D02*
X0068010Y0036763D01*
X0068010Y0036265D02*
X0067026Y0036265D01*
X0067026Y0036237D02*
X0067026Y0038323D01*
X0066140Y0038796D01*
X0066140Y0040371D01*
X0067026Y0040961D01*
X0067026Y0042339D01*
X0068010Y0042339D01*
X0068010Y0040843D01*
X0068896Y0040371D01*
X0068896Y0038796D01*
X0068010Y0038323D01*
X0068010Y0036237D01*
X0067026Y0036237D01*
X0067026Y0037262D02*
X0068010Y0037262D01*
X0068010Y0037760D02*
X0067026Y0037760D01*
X0067026Y0038259D02*
X0068010Y0038259D01*
X0068824Y0038757D02*
X0066212Y0038757D01*
X0066140Y0039256D02*
X0068896Y0039256D01*
X0068896Y0039754D02*
X0066140Y0039754D01*
X0066140Y0040253D02*
X0068896Y0040253D01*
X0068182Y0040751D02*
X0066711Y0040751D01*
X0067026Y0041250D02*
X0068010Y0041250D01*
X0068010Y0041748D02*
X0067026Y0041748D01*
X0067026Y0042247D02*
X0068010Y0042247D01*
D15*
X0070018Y0020833D02*
X0070018Y0016995D01*
X0075018Y0016995D02*
X0075018Y0020833D01*
X0080018Y0020833D02*
X0080018Y0016995D01*
X0085018Y0016995D02*
X0085018Y0020833D01*
X0090018Y0020833D02*
X0090018Y0016995D01*
X0095018Y0016995D02*
X0095018Y0020833D01*
X0065018Y0020833D02*
X0065018Y0016995D01*
X0060018Y0016995D02*
X0060018Y0020833D01*
X0055018Y0020833D02*
X0055018Y0016995D01*
X0050018Y0016995D02*
X0050018Y0020833D01*
X0038856Y0040833D02*
X0035018Y0040833D01*
X0030018Y0040833D02*
X0026179Y0040833D01*
X0026179Y0045833D02*
X0030018Y0045833D01*
X0035018Y0045833D02*
X0038856Y0045833D01*
X0038856Y0050833D02*
X0035018Y0050833D01*
X0030018Y0050833D02*
X0026179Y0050833D01*
X0026179Y0055833D02*
X0030018Y0055833D01*
X0035018Y0055833D02*
X0038856Y0055833D01*
X0038856Y0060833D02*
X0035018Y0060833D01*
X0030018Y0060833D02*
X0026179Y0060833D01*
X0050018Y0100833D02*
X0050018Y0104672D01*
X0055018Y0104672D02*
X0055018Y0100833D01*
X0060018Y0100833D02*
X0060018Y0104672D01*
X0065018Y0104672D02*
X0065018Y0100833D01*
X0070018Y0100833D02*
X0070018Y0104672D01*
X0075018Y0104672D02*
X0075018Y0100833D01*
X0080018Y0100833D02*
X0080018Y0104672D01*
X0085018Y0104672D02*
X0085018Y0100833D01*
X0090018Y0100833D02*
X0090018Y0104672D01*
X0095018Y0104672D02*
X0095018Y0100833D01*
D16*
X0034486Y0025400D03*
X0034486Y0096266D03*
D17*
X0102734Y0072211D03*
X0102734Y0044455D03*
D18*
X0107656Y0043471D03*
X0110215Y0043471D03*
X0112774Y0043471D03*
X0115333Y0043471D03*
X0117892Y0043471D03*
X0120451Y0043471D03*
X0123010Y0043471D03*
X0125569Y0043471D03*
X0125569Y0073196D03*
X0123010Y0073196D03*
X0120451Y0073196D03*
X0117892Y0073196D03*
X0115333Y0073196D03*
X0112774Y0073196D03*
X0110215Y0073196D03*
X0107656Y0073196D03*
X0130687Y0073196D03*
D19*
X0142498Y0072802D03*
X0142498Y0043865D03*
D20*
X0101750Y0049377D03*
X0101750Y0051936D03*
X0101750Y0054495D03*
X0101750Y0057054D03*
X0101750Y0059613D03*
X0101750Y0062172D03*
X0101750Y0064731D03*
X0101750Y0067290D03*
D21*
X0112675Y0063255D03*
X0122518Y0063255D03*
X0122518Y0053412D03*
X0112675Y0053412D03*
D22*
X0057518Y0045095D03*
X0057518Y0034072D03*
D23*
X0040510Y0074583D03*
X0027026Y0074583D03*
D24*
X0027616Y0069022D03*
X0039919Y0069022D03*
X0039919Y0080144D03*
X0027616Y0080144D03*
D25*
X0036268Y0074583D03*
X0046268Y0077083D03*
X0047518Y0074583D03*
X0052518Y0074583D03*
X0051268Y0070833D03*
X0060018Y0070833D03*
X0060018Y0074583D03*
X0062518Y0079583D03*
X0071268Y0077083D03*
X0076268Y0082083D03*
X0072518Y0090833D03*
X0076268Y0092083D03*
X0058768Y0097083D03*
X0052518Y0093333D03*
X0047518Y0094583D03*
X0042518Y0083333D03*
X0065018Y0068333D03*
X0075018Y0064583D03*
X0077518Y0063333D03*
X0081268Y0060833D03*
X0078768Y0058333D03*
X0087518Y0057083D03*
X0097518Y0057083D03*
X0097518Y0052083D03*
X0096268Y0049583D03*
X0093768Y0047083D03*
X0093768Y0042083D03*
X0093768Y0037083D03*
X0102518Y0030833D03*
X0107518Y0035833D03*
X0110018Y0039583D03*
X0115018Y0034583D03*
X0120018Y0037083D03*
X0106268Y0054583D03*
X0097518Y0065833D03*
X0106268Y0067083D03*
X0095018Y0075833D03*
X0092518Y0074583D03*
X0094910Y0079692D03*
X0095018Y0084583D03*
X0103660Y0079692D03*
X0108768Y0079583D03*
X0112518Y0078333D03*
X0110018Y0085833D03*
X0107518Y0089583D03*
X0103768Y0092083D03*
X0115018Y0093333D03*
X0085018Y0070833D03*
X0080018Y0072083D03*
X0076268Y0050833D03*
X0068768Y0047083D03*
X0078768Y0042083D03*
X0080018Y0030833D03*
X0072518Y0030833D03*
X0062518Y0027083D03*
X0057518Y0027083D03*
X0045018Y0030833D03*
X0045018Y0045833D03*
X0052518Y0050833D03*
X0045018Y0053333D03*
X0045018Y0058333D03*
X0045018Y0063333D03*
D26*
X0045018Y0045833D02*
X0049959Y0045833D01*
X0050018Y0045892D01*
X0056721Y0045892D01*
X0057518Y0045095D01*
X0050815Y0040774D02*
X0057518Y0034072D01*
X0050815Y0040774D02*
X0050018Y0040774D01*
X0035077Y0040774D01*
X0035018Y0040833D01*
X0075018Y0042142D02*
X0075077Y0042083D01*
X0078768Y0042083D01*
D27*
X0075018Y0042142D02*
X0075018Y0044583D01*
X0070077Y0049524D01*
X0070077Y0053333D01*
X0068768Y0047083D02*
X0067518Y0045833D01*
X0067518Y0042083D01*
X0067360Y0042241D01*
X0065549Y0042241D01*
X0067518Y0042083D02*
X0067518Y0036926D01*
X0065549Y0036926D02*
X0065018Y0036394D01*
X0065018Y0034583D01*
X0068768Y0034583D01*
X0069486Y0035302D01*
X0069486Y0036926D01*
X0065018Y0034583D02*
X0064506Y0034072D01*
X0057518Y0034072D01*
X0069486Y0042241D02*
X0074919Y0042241D01*
X0075018Y0042142D01*
X0075018Y0037024D02*
X0075018Y0032083D01*
X0073768Y0030833D01*
X0072518Y0030833D01*
X0101662Y0054583D02*
X0101750Y0054495D01*
X0111691Y0053412D02*
X0112675Y0053412D01*
X0112754Y0053333D01*
X0112675Y0053412D02*
X0112675Y0063255D01*
X0112774Y0063353D01*
X0112872Y0063255D01*
X0122518Y0063255D01*
X0122518Y0053412D01*
X0112774Y0063353D02*
X0112774Y0073196D01*
X0112774Y0078077D01*
X0112518Y0078333D01*
X0108768Y0079583D02*
X0107656Y0078471D01*
X0107656Y0073196D01*
X0103719Y0073196D02*
X0102734Y0072211D01*
X0101750Y0067290D02*
X0106061Y0067290D01*
X0106268Y0067083D01*
X0102734Y0044455D02*
X0102518Y0044239D01*
X0102518Y0030833D01*
X0064959Y0063333D02*
X0055766Y0063333D01*
D28*
X0052518Y0067083D02*
X0052518Y0050833D01*
X0055766Y0053333D02*
X0064959Y0053333D01*
X0070077Y0053333D02*
X0070077Y0058333D01*
X0070077Y0063333D01*
X0064959Y0058333D02*
X0055766Y0058333D01*
X0049270Y0058333D02*
X0045018Y0058333D01*
X0045018Y0053333D02*
X0049270Y0053333D01*
X0049270Y0063333D02*
X0049270Y0069081D01*
X0047518Y0070833D01*
X0046268Y0070833D01*
X0045018Y0072083D01*
X0045018Y0075833D01*
X0046268Y0077083D01*
X0042518Y0078333D02*
X0042518Y0070833D01*
X0045018Y0068333D01*
X0045018Y0063333D01*
X0039919Y0069022D02*
X0040510Y0069613D01*
X0040510Y0074583D01*
X0036268Y0074583D01*
X0027026Y0074583D01*
X0027616Y0073993D01*
X0027616Y0069022D01*
X0027616Y0080144D02*
X0039919Y0080144D01*
X0040707Y0080144D01*
X0042518Y0078333D01*
X0052518Y0074583D02*
X0052518Y0087083D01*
X0062518Y0097083D01*
X0078768Y0097083D01*
X0080018Y0098333D01*
X0080018Y0100833D01*
X0085018Y0100833D02*
X0085018Y0097083D01*
X0082518Y0094583D01*
X0065018Y0094583D01*
X0058768Y0088333D01*
X0058768Y0084583D01*
X0060018Y0083333D01*
X0060018Y0074583D01*
X0051268Y0070833D02*
X0051268Y0068333D01*
X0052518Y0067083D01*
X0080018Y0067083D02*
X0083768Y0063333D01*
X0083768Y0058333D01*
X0080018Y0054583D01*
X0080018Y0048333D01*
X0081268Y0047083D01*
X0081268Y0032083D01*
X0080018Y0030833D01*
X0082518Y0027083D02*
X0083768Y0028333D01*
X0083768Y0048333D01*
X0090018Y0054583D01*
X0090018Y0065833D01*
X0085018Y0070833D01*
X0082518Y0073333D02*
X0082518Y0067083D01*
X0087518Y0062083D01*
X0087518Y0057083D01*
X0092518Y0053333D02*
X0092518Y0074583D01*
X0095018Y0075833D02*
X0095018Y0053333D01*
X0091268Y0049583D01*
X0091268Y0034583D01*
X0093768Y0032083D01*
X0093768Y0022083D01*
X0095018Y0020833D01*
X0090018Y0020833D02*
X0088768Y0022083D01*
X0088768Y0049583D01*
X0092518Y0053333D01*
X0097518Y0052083D02*
X0101602Y0052083D01*
X0101750Y0051936D01*
X0101543Y0049583D02*
X0096268Y0049583D01*
X0101543Y0049583D02*
X0101750Y0049377D01*
X0101750Y0054495D02*
X0106179Y0054495D01*
X0106268Y0054583D01*
X0101750Y0057054D02*
X0101721Y0057083D01*
X0097518Y0057083D01*
X0098620Y0064731D02*
X0097518Y0065833D01*
X0098620Y0064731D02*
X0101750Y0064731D01*
X0103719Y0073196D02*
X0107656Y0073196D01*
X0115333Y0073196D02*
X0115333Y0093018D01*
X0115018Y0093333D01*
X0095018Y0100833D02*
X0095018Y0084583D01*
X0088768Y0077083D02*
X0086268Y0074583D01*
X0083768Y0074583D01*
X0082518Y0073333D01*
X0080018Y0072083D02*
X0080018Y0067083D01*
X0088768Y0077083D02*
X0088768Y0099583D01*
X0090018Y0100833D01*
X0107656Y0043471D02*
X0107518Y0043333D01*
X0107518Y0035833D01*
X0110018Y0039583D02*
X0110018Y0043274D01*
X0110215Y0043471D01*
X0112774Y0043471D02*
X0112774Y0036827D01*
X0115018Y0034583D01*
X0120018Y0037083D02*
X0120451Y0037516D01*
X0120451Y0043471D01*
X0117892Y0043471D01*
X0123010Y0043471D02*
X0125569Y0043471D01*
X0082518Y0027083D02*
X0076268Y0027083D01*
X0075018Y0025833D01*
X0065018Y0025833D01*
X0063768Y0024583D01*
X0058768Y0024583D01*
X0055018Y0020833D01*
D29*
X0125569Y0073196D02*
X0125569Y0078944D01*
X0126209Y0079583D01*
X0130687Y0078944D02*
X0131327Y0079583D01*
X0130687Y0078944D02*
X0130687Y0073196D01*
M02*
