G75*
%MOIN*%
%OFA0B0*%
%FSLAX25Y25*%
%IPPOS*%
%LPD*%
%AMOC8*
5,1,8,0,0,1.08239X$1,22.5*
%
%ADD10R,0.02756X0.03543*%
%ADD11R,0.03543X0.02756*%
%ADD12R,0.03740X0.01378*%
%ADD13R,0.01378X0.03740*%
%ADD14R,0.03937X0.07087*%
D10*
X0049959Y0023150D03*
X0055077Y0023150D03*
X0062459Y0023150D03*
X0067577Y0023150D03*
X0083709Y0029400D03*
X0088827Y0029400D03*
X0088827Y0034400D03*
X0088827Y0039400D03*
X0083709Y0039400D03*
X0083709Y0034400D03*
X0062577Y0085650D03*
X0057459Y0085650D03*
D11*
X0047518Y0081959D03*
X0047518Y0076841D03*
D12*
X0056278Y0073977D03*
X0056278Y0072008D03*
X0056278Y0070040D03*
X0056278Y0068071D03*
X0056278Y0066103D03*
X0056278Y0064134D03*
X0056278Y0062166D03*
X0056278Y0060197D03*
X0056278Y0058229D03*
X0056278Y0056260D03*
X0056278Y0054292D03*
X0056278Y0052323D03*
X0088758Y0052323D03*
X0088758Y0054292D03*
X0088758Y0056260D03*
X0088758Y0058229D03*
X0088758Y0060197D03*
X0088758Y0062166D03*
X0088758Y0064134D03*
X0088758Y0066103D03*
X0088758Y0068071D03*
X0088758Y0070040D03*
X0088758Y0072008D03*
X0088758Y0073977D03*
D13*
X0083345Y0079390D03*
X0081376Y0079390D03*
X0079408Y0079390D03*
X0077439Y0079390D03*
X0075471Y0079390D03*
X0073502Y0079390D03*
X0071534Y0079390D03*
X0069565Y0079390D03*
X0067597Y0079390D03*
X0065628Y0079390D03*
X0063660Y0079390D03*
X0061691Y0079390D03*
X0061691Y0046910D03*
X0063660Y0046910D03*
X0065628Y0046910D03*
X0067597Y0046910D03*
X0069565Y0046910D03*
X0071534Y0046910D03*
X0073502Y0046910D03*
X0075471Y0046910D03*
X0077439Y0046910D03*
X0079408Y0046910D03*
X0081376Y0046910D03*
X0083345Y0046910D03*
D14*
X0062439Y0033150D03*
X0052597Y0033150D03*
M02*
