G75*
%MOIN*%
%OFA0B0*%
%FSLAX25Y25*%
%IPPOS*%
%LPD*%
%AMOC8*
5,1,8,0,0,1.08239X$1,22.5*
%
%ADD10R,0.03543X0.02756*%
%ADD11R,0.02756X0.03543*%
%ADD12R,0.03150X0.03150*%
%ADD13R,0.00984X0.01378*%
%ADD14C,0.00500*%
%ADD15C,0.03839*%
%ADD16C,0.17717*%
%ADD17R,0.06102X0.06102*%
%ADD18R,0.01378X0.04134*%
%ADD19R,0.05709X0.04921*%
%ADD20R,0.04134X0.01378*%
%ADD21R,0.07874X0.07874*%
%ADD22R,0.07087X0.06299*%
%ADD23C,0.02184*%
%ADD24C,0.01600*%
%ADD25C,0.01200*%
%ADD26C,0.00800*%
%ADD27C,0.00787*%
D10*
X0050018Y0033091D03*
X0050018Y0038209D03*
X0075018Y0034459D03*
X0075018Y0029341D03*
D11*
X0070077Y0045650D03*
X0064959Y0045650D03*
X0064959Y0050650D03*
X0070077Y0050650D03*
X0070077Y0055650D03*
X0064959Y0055650D03*
X0126209Y0071900D03*
X0131327Y0071900D03*
D12*
X0055766Y0055650D03*
X0055766Y0050650D03*
X0055766Y0045650D03*
X0049270Y0045650D03*
X0049270Y0050650D03*
X0049270Y0055650D03*
D13*
X0065549Y0034557D03*
X0069486Y0034557D03*
X0069486Y0029243D03*
X0067518Y0029243D03*
X0065549Y0029243D03*
D14*
X0067026Y0029080D02*
X0068010Y0029080D01*
X0068010Y0028582D02*
X0067026Y0028582D01*
X0067026Y0028554D02*
X0067026Y0030640D01*
X0066140Y0031113D01*
X0066140Y0032687D01*
X0067026Y0033278D01*
X0067026Y0034656D01*
X0068010Y0034656D01*
X0068010Y0033160D01*
X0068896Y0032687D01*
X0068896Y0031113D01*
X0068010Y0030640D01*
X0068010Y0028554D01*
X0067026Y0028554D01*
X0067026Y0029579D02*
X0068010Y0029579D01*
X0068010Y0030077D02*
X0067026Y0030077D01*
X0067026Y0030576D02*
X0068010Y0030576D01*
X0068824Y0031074D02*
X0066212Y0031074D01*
X0066140Y0031573D02*
X0068896Y0031573D01*
X0068896Y0032071D02*
X0066140Y0032071D01*
X0066140Y0032570D02*
X0068896Y0032570D01*
X0068182Y0033068D02*
X0066711Y0033068D01*
X0067026Y0033567D02*
X0068010Y0033567D01*
X0068010Y0034065D02*
X0067026Y0034065D01*
X0067026Y0034564D02*
X0068010Y0034564D01*
D15*
X0070018Y0013150D02*
X0070018Y0009311D01*
X0075018Y0009311D02*
X0075018Y0013150D01*
X0080018Y0013150D02*
X0080018Y0009311D01*
X0085018Y0009311D02*
X0085018Y0013150D01*
X0090018Y0013150D02*
X0090018Y0009311D01*
X0095018Y0009311D02*
X0095018Y0013150D01*
X0065018Y0013150D02*
X0065018Y0009311D01*
X0060018Y0009311D02*
X0060018Y0013150D01*
X0055018Y0013150D02*
X0055018Y0009311D01*
X0050018Y0009311D02*
X0050018Y0013150D01*
X0038856Y0033150D02*
X0035018Y0033150D01*
X0030018Y0033150D02*
X0026179Y0033150D01*
X0026179Y0038150D02*
X0030018Y0038150D01*
X0035018Y0038150D02*
X0038856Y0038150D01*
X0038856Y0043150D02*
X0035018Y0043150D01*
X0030018Y0043150D02*
X0026179Y0043150D01*
X0026179Y0048150D02*
X0030018Y0048150D01*
X0035018Y0048150D02*
X0038856Y0048150D01*
X0038856Y0053150D02*
X0035018Y0053150D01*
X0030018Y0053150D02*
X0026179Y0053150D01*
X0050018Y0093150D02*
X0050018Y0096989D01*
X0055018Y0096989D02*
X0055018Y0093150D01*
X0060018Y0093150D02*
X0060018Y0096989D01*
X0065018Y0096989D02*
X0065018Y0093150D01*
X0070018Y0093150D02*
X0070018Y0096989D01*
X0075018Y0096989D02*
X0075018Y0093150D01*
X0080018Y0093150D02*
X0080018Y0096989D01*
X0085018Y0096989D02*
X0085018Y0093150D01*
X0090018Y0093150D02*
X0090018Y0096989D01*
X0095018Y0096989D02*
X0095018Y0093150D01*
D16*
X0034486Y0017717D03*
X0034486Y0088583D03*
D17*
X0102734Y0064528D03*
X0102734Y0036772D03*
D18*
X0107656Y0035788D03*
X0110215Y0035788D03*
X0112774Y0035788D03*
X0115333Y0035788D03*
X0117892Y0035788D03*
X0120451Y0035788D03*
X0123010Y0035788D03*
X0125569Y0035788D03*
X0125569Y0065512D03*
X0123010Y0065512D03*
X0120451Y0065512D03*
X0117892Y0065512D03*
X0115333Y0065512D03*
X0112774Y0065512D03*
X0110215Y0065512D03*
X0107656Y0065512D03*
X0130687Y0065512D03*
D19*
X0142498Y0065119D03*
X0142498Y0036181D03*
D20*
X0101750Y0041693D03*
X0101750Y0044252D03*
X0101750Y0046811D03*
X0101750Y0049370D03*
X0101750Y0051930D03*
X0101750Y0054489D03*
X0101750Y0057048D03*
X0101750Y0059607D03*
D21*
X0112675Y0055571D03*
X0122518Y0055571D03*
X0122518Y0045729D03*
X0112675Y0045729D03*
D22*
X0057518Y0037412D03*
X0057518Y0026388D03*
D23*
X0057518Y0019400D03*
X0062518Y0019400D03*
X0072518Y0023150D03*
X0080018Y0023150D03*
X0093768Y0029400D03*
X0093768Y0034400D03*
X0093768Y0039400D03*
X0096268Y0041900D03*
X0097518Y0044400D03*
X0097518Y0049400D03*
X0106268Y0046900D03*
X0097518Y0058150D03*
X0106268Y0059400D03*
X0095018Y0068150D03*
X0092518Y0066900D03*
X0094910Y0072008D03*
X0095018Y0076900D03*
X0103660Y0072008D03*
X0108768Y0071900D03*
X0112518Y0070650D03*
X0110018Y0078150D03*
X0107518Y0081900D03*
X0103768Y0084400D03*
X0115018Y0085650D03*
X0085018Y0063150D03*
X0080018Y0064400D03*
X0071268Y0069400D03*
X0076268Y0074400D03*
X0072518Y0083150D03*
X0076268Y0084400D03*
X0058768Y0089400D03*
X0052518Y0085650D03*
X0047518Y0086900D03*
X0042518Y0075650D03*
X0046268Y0069400D03*
X0047518Y0066900D03*
X0052518Y0066900D03*
X0051268Y0063150D03*
X0060018Y0063150D03*
X0060018Y0066900D03*
X0062518Y0071900D03*
X0065018Y0060650D03*
X0075018Y0056900D03*
X0077518Y0055650D03*
X0081268Y0053150D03*
X0078768Y0050650D03*
X0087518Y0049400D03*
X0076268Y0043150D03*
X0068768Y0039400D03*
X0078768Y0034400D03*
X0102518Y0023150D03*
X0107518Y0028150D03*
X0110018Y0031900D03*
X0115018Y0026900D03*
X0120018Y0029400D03*
X0052518Y0043150D03*
X0045018Y0045650D03*
X0045018Y0050650D03*
X0045018Y0038150D03*
X0045018Y0023150D03*
D24*
X0050018Y0033091D02*
X0035077Y0033091D01*
X0035018Y0033150D01*
X0045018Y0038150D02*
X0049959Y0038150D01*
X0050018Y0038209D01*
X0056721Y0038209D01*
X0057518Y0037412D01*
X0050815Y0033091D02*
X0057518Y0026388D01*
X0050815Y0033091D02*
X0050018Y0033091D01*
X0075018Y0034459D02*
X0075077Y0034400D01*
X0078768Y0034400D01*
D25*
X0075018Y0034459D02*
X0075018Y0036900D01*
X0070077Y0041841D01*
X0070077Y0045650D01*
X0068768Y0039400D02*
X0067518Y0038150D01*
X0067518Y0034400D01*
X0067360Y0034557D01*
X0065549Y0034557D01*
X0067518Y0034400D02*
X0067518Y0029243D01*
X0065549Y0029243D02*
X0065018Y0028711D01*
X0065018Y0026900D01*
X0068768Y0026900D01*
X0069486Y0027619D01*
X0069486Y0029243D01*
X0065018Y0026900D02*
X0064506Y0026388D01*
X0057518Y0026388D01*
X0069486Y0034557D02*
X0074919Y0034557D01*
X0075018Y0034459D01*
X0075018Y0029341D02*
X0075018Y0024400D01*
X0073768Y0023150D01*
X0072518Y0023150D01*
X0102518Y0023150D02*
X0102518Y0036556D01*
X0102734Y0036772D01*
X0111691Y0045729D02*
X0112675Y0045729D01*
X0112754Y0045650D01*
X0112675Y0045729D02*
X0112675Y0055571D01*
X0112774Y0055670D01*
X0112872Y0055571D01*
X0122518Y0055571D01*
X0122518Y0045729D01*
X0112774Y0055670D02*
X0112774Y0065512D01*
X0112774Y0070394D01*
X0112518Y0070650D01*
X0108768Y0071900D02*
X0107656Y0070788D01*
X0107656Y0065512D01*
X0103719Y0065512D02*
X0102734Y0064528D01*
X0101750Y0059607D02*
X0106061Y0059607D01*
X0106268Y0059400D01*
X0101662Y0046900D02*
X0101750Y0046811D01*
X0064959Y0055650D02*
X0055766Y0055650D01*
D26*
X0052518Y0059400D02*
X0052518Y0043150D01*
X0055766Y0045650D02*
X0064959Y0045650D01*
X0070077Y0045650D02*
X0070077Y0050650D01*
X0070077Y0055650D01*
X0064959Y0050650D02*
X0055766Y0050650D01*
X0049270Y0050650D02*
X0045018Y0050650D01*
X0045018Y0045650D02*
X0049270Y0045650D01*
X0049270Y0055650D02*
X0046268Y0055650D01*
X0045018Y0056900D01*
X0045018Y0068150D01*
X0046268Y0069400D01*
X0052518Y0066900D02*
X0052518Y0079400D01*
X0062518Y0089400D01*
X0078768Y0089400D01*
X0080018Y0090650D01*
X0080018Y0093150D01*
X0085018Y0093150D02*
X0085018Y0089400D01*
X0082518Y0086900D01*
X0065018Y0086900D01*
X0058768Y0080650D01*
X0058768Y0076900D01*
X0060018Y0075650D01*
X0060018Y0066900D01*
X0051268Y0063150D02*
X0051268Y0060650D01*
X0052518Y0059400D01*
X0080018Y0059400D02*
X0083768Y0055650D01*
X0083768Y0050650D01*
X0080018Y0046900D01*
X0080018Y0040650D01*
X0081268Y0039400D01*
X0081268Y0024400D01*
X0080018Y0023150D01*
X0082518Y0019400D02*
X0083768Y0020650D01*
X0083768Y0040650D01*
X0090018Y0046900D01*
X0090018Y0058150D01*
X0085018Y0063150D01*
X0082518Y0065650D02*
X0082518Y0059400D01*
X0087518Y0054400D01*
X0087518Y0049400D01*
X0092518Y0045650D02*
X0092518Y0066900D01*
X0095018Y0068150D02*
X0095018Y0045650D01*
X0091268Y0041900D01*
X0091268Y0026900D01*
X0093768Y0024400D01*
X0093768Y0014400D01*
X0095018Y0013150D01*
X0090018Y0013150D02*
X0088768Y0014400D01*
X0088768Y0041900D01*
X0092518Y0045650D01*
X0097518Y0044400D02*
X0101602Y0044400D01*
X0101750Y0044252D01*
X0101543Y0041900D02*
X0096268Y0041900D01*
X0101543Y0041900D02*
X0101750Y0041693D01*
X0101750Y0046811D02*
X0106179Y0046811D01*
X0106268Y0046900D01*
X0101750Y0049370D02*
X0101721Y0049400D01*
X0097518Y0049400D01*
X0098620Y0057048D02*
X0097518Y0058150D01*
X0098620Y0057048D02*
X0101750Y0057048D01*
X0103719Y0065512D02*
X0107656Y0065512D01*
X0115333Y0065512D02*
X0115333Y0085335D01*
X0115018Y0085650D01*
X0095018Y0093150D02*
X0095018Y0076900D01*
X0088768Y0069400D02*
X0086268Y0066900D01*
X0083768Y0066900D01*
X0082518Y0065650D01*
X0080018Y0064400D02*
X0080018Y0059400D01*
X0088768Y0069400D02*
X0088768Y0091900D01*
X0090018Y0093150D01*
X0107656Y0035788D02*
X0107518Y0035650D01*
X0107518Y0028150D01*
X0110018Y0031900D02*
X0110018Y0035591D01*
X0110215Y0035788D01*
X0112774Y0035788D02*
X0112774Y0029144D01*
X0115018Y0026900D01*
X0120018Y0029400D02*
X0120451Y0029833D01*
X0120451Y0035788D01*
X0117892Y0035788D01*
X0123010Y0035788D02*
X0125569Y0035788D01*
X0082518Y0019400D02*
X0076268Y0019400D01*
X0075018Y0018150D01*
X0065018Y0018150D01*
X0063768Y0016900D01*
X0058768Y0016900D01*
X0055018Y0013150D01*
D27*
X0125569Y0065512D02*
X0125569Y0071260D01*
X0126209Y0071900D01*
X0130687Y0071260D02*
X0131327Y0071900D01*
X0130687Y0071260D02*
X0130687Y0065512D01*
M02*
