G75*
%MOIN*%
%OFA0B0*%
%FSLAX25Y25*%
%IPPOS*%
%LPD*%
%AMOC8*
5,1,8,0,0,1.08239X$1,22.5*
%
%ADD10R,0.02598X0.00906*%
%ADD11R,0.02598X0.01378*%
%ADD12R,0.03150X0.03150*%
%ADD13R,0.03543X0.02756*%
D10*
X0120665Y0038913D03*
X0120665Y0040488D03*
X0120665Y0042063D03*
X0120665Y0043638D03*
X0120665Y0045213D03*
X0120665Y0046787D03*
X0120665Y0048362D03*
X0120665Y0049937D03*
X0120665Y0051512D03*
X0120665Y0053087D03*
X0131335Y0053087D03*
X0131335Y0051512D03*
X0131335Y0049937D03*
X0131335Y0048362D03*
X0131335Y0046787D03*
X0131335Y0045213D03*
X0131335Y0043638D03*
X0131335Y0042063D03*
X0131335Y0040488D03*
X0131335Y0038913D03*
D11*
X0131335Y0037043D03*
X0120665Y0037043D03*
X0120665Y0054957D03*
X0131335Y0054957D03*
D12*
X0103500Y0072752D03*
X0103500Y0079248D03*
X0093500Y0079248D03*
X0093500Y0072752D03*
D13*
X0063500Y0050941D03*
X0063500Y0056059D03*
X0073500Y0056059D03*
X0073500Y0050941D03*
X0093500Y0053441D03*
X0093500Y0058559D03*
X0103500Y0058559D03*
X0103500Y0053441D03*
X0083500Y0073441D03*
X0083500Y0078559D03*
X0073500Y0078559D03*
X0063500Y0078559D03*
X0063500Y0073441D03*
X0073500Y0073441D03*
X0053500Y0073441D03*
X0053500Y0078559D03*
X0043500Y0078559D03*
X0043500Y0073441D03*
M02*
