%
M48
M72
T01C0.01181
T02C0.04000
T03C0.08661
T04C0.10827
%
T01
X53500Y38500
X78500Y51000
X53500Y68500
X58500Y73500
X68500Y73500
X68500Y86000
X58500Y91000
X48500Y88500
X38500Y88500
X38500Y73500
X88500Y73500
X109750Y53500
X124750Y49750
X127250Y46000
X137250Y42250
X143500Y46000
X141000Y51000
X146000Y53500
X148500Y51000
X116000Y43500
T02
X113953Y100331
X123953Y100331
X133953Y100331
X143953Y100331
X153953Y100331
X163953Y100331
X173953Y100331
X183953Y100331
X193953Y100331
X203953Y100331
X213953Y100331
X223953Y100331
X223953Y110331
X213953Y110331
X203953Y110331
X193953Y110331
X183953Y110331
X173953Y110331
X163953Y110331
X153953Y110331
X143953Y110331
X133953Y110331
X123953Y110331
X113953Y110331
X103953Y110331
X93953Y110331
X83953Y110331
X73953Y110331
X63953Y110331
X53953Y110331
X43953Y110331
X33953Y110331
X33953Y100331
X43953Y100331
X53953Y100331
X63953Y100331
X73953Y100331
X83953Y100331
X93953Y100331
X103953Y100331
T03
X125016Y71787
X125016Y20213
T04
X14780Y14780
X14780Y105331
X243126Y105331
M30
