G75*
%MOIN*%
%OFA0B0*%
%FSLAX25Y25*%
%IPPOS*%
%LPD*%
%AMOC8*
5,1,8,0,0,1.08239X$1,22.5*
%
%ADD10OC8,0.06000*%
%ADD11C,0.15000*%
%ADD12C,0.01600*%
%ADD13C,0.01969*%
%ADD14C,0.00787*%
D10*
X0033953Y0100331D03*
X0043953Y0100331D03*
X0053953Y0100331D03*
X0063953Y0100331D03*
X0073953Y0100331D03*
X0083953Y0100331D03*
X0093953Y0100331D03*
X0103953Y0100331D03*
X0113953Y0100331D03*
X0123953Y0100331D03*
X0133953Y0100331D03*
X0143953Y0100331D03*
X0153953Y0100331D03*
X0163953Y0100331D03*
X0173953Y0100331D03*
X0183953Y0100331D03*
X0193953Y0100331D03*
X0203953Y0100331D03*
X0213953Y0100331D03*
X0223953Y0100331D03*
X0223953Y0110331D03*
X0213953Y0110331D03*
X0203953Y0110331D03*
X0193953Y0110331D03*
X0183953Y0110331D03*
X0173953Y0110331D03*
X0163953Y0110331D03*
X0153953Y0110331D03*
X0143953Y0110331D03*
X0133953Y0110331D03*
X0123953Y0110331D03*
X0113953Y0110331D03*
X0103953Y0110331D03*
X0093953Y0110331D03*
X0083953Y0110331D03*
X0073953Y0110331D03*
X0063953Y0110331D03*
X0053953Y0110331D03*
X0043953Y0110331D03*
X0033953Y0110331D03*
D11*
X0125016Y0071787D03*
X0125016Y0020213D03*
D12*
X0021812Y0003837D02*
X0021721Y0003768D01*
X0205724Y0003768D01*
X0205724Y0091551D01*
X0253397Y0091551D01*
X0253618Y0091643D01*
X0253940Y0091965D01*
X0254115Y0092386D01*
X0254137Y0092614D01*
X0254137Y0098389D01*
X0254069Y0098298D01*
X0253873Y0097939D01*
X0253780Y0097912D01*
X0253246Y0097199D01*
X0253246Y0097102D01*
X0252957Y0096812D01*
X0252711Y0096485D01*
X0252615Y0096471D01*
X0251986Y0095841D01*
X0251972Y0095745D01*
X0251644Y0095500D01*
X0251355Y0095211D01*
X0251258Y0095211D01*
X0250545Y0094677D01*
X0250518Y0094584D01*
X0250158Y0094388D01*
X0249831Y0094143D01*
X0249735Y0094157D01*
X0248953Y0093730D01*
X0248913Y0093641D01*
X0248530Y0093498D01*
X0248171Y0093302D01*
X0248077Y0093330D01*
X0247243Y0093019D01*
X0247190Y0092937D01*
X0246791Y0092850D01*
X0246407Y0092707D01*
X0246319Y0092747D01*
X0245449Y0092558D01*
X0245385Y0092485D01*
X0244977Y0092455D01*
X0244577Y0092368D01*
X0244496Y0092421D01*
X0243607Y0092357D01*
X0243534Y0092294D01*
X0243126Y0092323D01*
X0242718Y0092294D01*
X0242645Y0092357D01*
X0241756Y0092421D01*
X0241675Y0092368D01*
X0241275Y0092455D01*
X0240867Y0092485D01*
X0240803Y0092558D01*
X0239933Y0092747D01*
X0239845Y0092707D01*
X0239461Y0092850D01*
X0239062Y0092937D01*
X0239009Y0093019D01*
X0238175Y0093330D01*
X0238081Y0093302D01*
X0237722Y0093498D01*
X0237339Y0093641D01*
X0237299Y0093730D01*
X0236517Y0094157D01*
X0236421Y0094143D01*
X0236093Y0094388D01*
X0235734Y0094584D01*
X0235707Y0094677D01*
X0234994Y0095211D01*
X0234897Y0095211D01*
X0234608Y0095500D01*
X0234280Y0095745D01*
X0234266Y0095841D01*
X0233637Y0096471D01*
X0233541Y0096485D01*
X0233295Y0096812D01*
X0233006Y0097102D01*
X0233006Y0097199D01*
X0232472Y0097912D01*
X0232379Y0097939D01*
X0232183Y0098298D01*
X0231938Y0098626D01*
X0231952Y0098722D01*
X0231525Y0099503D01*
X0231437Y0099544D01*
X0231294Y0099927D01*
X0231098Y0100286D01*
X0231125Y0100379D01*
X0230814Y0101214D01*
X0230732Y0101266D01*
X0230645Y0101666D01*
X0230502Y0102049D01*
X0230543Y0102138D01*
X0230353Y0103008D01*
X0230280Y0103071D01*
X0230251Y0103480D01*
X0230164Y0103879D01*
X0230216Y0103961D01*
X0230153Y0104849D01*
X0230089Y0104923D01*
X0230118Y0105331D01*
X0230089Y0105739D01*
X0230153Y0105812D01*
X0230216Y0106700D01*
X0230164Y0106782D01*
X0230251Y0107182D01*
X0230280Y0107590D01*
X0230353Y0107654D01*
X0230543Y0108524D01*
X0230502Y0108612D01*
X0230645Y0108995D01*
X0230732Y0109395D01*
X0230814Y0109448D01*
X0231125Y0110282D01*
X0231098Y0110375D01*
X0231294Y0110734D01*
X0231437Y0111118D01*
X0231525Y0111158D01*
X0231952Y0111940D01*
X0231938Y0112036D01*
X0232183Y0112363D01*
X0232379Y0112722D01*
X0232472Y0112750D01*
X0233006Y0113463D01*
X0233006Y0113560D01*
X0233295Y0113849D01*
X0233541Y0114176D01*
X0233637Y0114190D01*
X0234266Y0114820D01*
X0234280Y0114916D01*
X0234608Y0115161D01*
X0234897Y0115451D01*
X0234994Y0115451D01*
X0235707Y0115984D01*
X0235734Y0116077D01*
X0236093Y0116274D01*
X0236185Y0116342D01*
X0118042Y0116342D01*
X0119198Y0115186D01*
X0120186Y0114198D01*
X0120186Y0113051D01*
X0122053Y0114918D01*
X0123753Y0114918D01*
X0123753Y0110531D01*
X0124153Y0110531D01*
X0124153Y0114918D01*
X0125853Y0114918D01*
X0128540Y0112231D01*
X0128540Y0110531D01*
X0124153Y0110531D01*
X0124153Y0110131D01*
X0128540Y0110131D01*
X0128540Y0108431D01*
X0125853Y0105743D01*
X0124153Y0105743D01*
X0124153Y0110131D01*
X0123753Y0110131D01*
X0123753Y0105743D01*
X0122053Y0105743D01*
X0120186Y0107610D01*
X0120186Y0102634D01*
X0122175Y0104623D01*
X0125731Y0104623D01*
X0128245Y0102109D01*
X0128245Y0098553D01*
X0125788Y0096096D01*
X0126698Y0095186D01*
X0134430Y0095186D01*
X0134314Y0095302D01*
X0133577Y0096039D01*
X0132175Y0096039D01*
X0129661Y0098553D01*
X0129661Y0102109D01*
X0132175Y0104623D01*
X0135731Y0104623D01*
X0138245Y0102109D01*
X0138245Y0098553D01*
X0137378Y0097686D01*
X0140528Y0097686D01*
X0139661Y0098553D01*
X0139661Y0102109D01*
X0142175Y0104623D01*
X0145731Y0104623D01*
X0148245Y0102109D01*
X0148245Y0098553D01*
X0147038Y0097346D01*
X0149198Y0095186D01*
X0150186Y0094198D01*
X0150186Y0052533D01*
X0150776Y0051943D01*
X0150776Y0050057D01*
X0149443Y0048724D01*
X0147557Y0048724D01*
X0146224Y0050057D01*
X0146224Y0051224D01*
X0145186Y0051224D01*
X0145186Y0047533D01*
X0145776Y0046943D01*
X0145776Y0045057D01*
X0144443Y0043724D01*
X0142557Y0043724D01*
X0141224Y0045057D01*
X0141224Y0046943D01*
X0141814Y0047533D01*
X0141814Y0048724D01*
X0140057Y0048724D01*
X0138724Y0050057D01*
X0138724Y0051943D01*
X0139314Y0052533D01*
X0139314Y0087802D01*
X0137802Y0089314D01*
X0120302Y0089314D01*
X0119314Y0090302D01*
X0116814Y0092802D01*
X0116814Y0097122D01*
X0115731Y0096039D01*
X0112175Y0096039D01*
X0110186Y0098028D01*
X0110186Y0055776D01*
X0110693Y0055776D01*
X0112026Y0054443D01*
X0112026Y0052557D01*
X0110693Y0051224D01*
X0108807Y0051224D01*
X0107474Y0052557D01*
X0107474Y0053392D01*
X0106814Y0054052D01*
X0106814Y0097122D01*
X0105731Y0096039D01*
X0102175Y0096039D01*
X0099661Y0098553D01*
X0099661Y0102109D01*
X0101866Y0104314D01*
X0096039Y0104314D01*
X0098245Y0102109D01*
X0098245Y0098553D01*
X0095731Y0096039D01*
X0092175Y0096039D01*
X0091549Y0096665D01*
X0091436Y0096552D01*
X0091436Y0074052D01*
X0090776Y0073392D01*
X0090776Y0072557D01*
X0090186Y0071967D01*
X0090186Y0050448D01*
X0090448Y0050186D01*
X0122474Y0050186D01*
X0122474Y0050693D01*
X0123807Y0052026D01*
X0125693Y0052026D01*
X0127026Y0050693D01*
X0127026Y0048807D01*
X0126496Y0048276D01*
X0128193Y0048276D01*
X0129526Y0046943D01*
X0129526Y0045057D01*
X0128193Y0043724D01*
X0126307Y0043724D01*
X0125717Y0044314D01*
X0118446Y0044314D01*
X0118473Y0044250D01*
X0118572Y0043753D01*
X0118572Y0043500D01*
X0116000Y0043500D01*
X0116000Y0043500D01*
X0118572Y0043500D01*
X0118572Y0043247D01*
X0118473Y0042750D01*
X0118279Y0042282D01*
X0117998Y0041861D01*
X0117639Y0041502D01*
X0117218Y0041221D01*
X0116750Y0041027D01*
X0116253Y0040928D01*
X0116000Y0040928D01*
X0116000Y0043500D01*
X0116000Y0043500D01*
X0116000Y0043500D01*
X0113428Y0043500D01*
X0113428Y0043247D01*
X0113527Y0042750D01*
X0113721Y0042282D01*
X0114002Y0041861D01*
X0114361Y0041502D01*
X0114782Y0041221D01*
X0115250Y0041027D01*
X0115747Y0040928D01*
X0116000Y0040928D01*
X0116000Y0043500D01*
X0113428Y0043500D01*
X0113428Y0043753D01*
X0113527Y0044250D01*
X0113554Y0044314D01*
X0080302Y0044314D01*
X0079052Y0045564D01*
X0078064Y0046552D01*
X0078064Y0048724D01*
X0077557Y0048724D01*
X0076224Y0050057D01*
X0076224Y0051943D01*
X0077557Y0053276D01*
X0079443Y0053276D01*
X0080776Y0051943D01*
X0080776Y0051108D01*
X0081436Y0050448D01*
X0081436Y0047948D01*
X0081698Y0047686D01*
X0088180Y0047686D01*
X0087802Y0048064D01*
X0086814Y0049052D01*
X0086814Y0071967D01*
X0086224Y0072557D01*
X0086224Y0074443D01*
X0087557Y0075776D01*
X0088064Y0075776D01*
X0088064Y0097948D01*
X0089052Y0098936D01*
X0089661Y0099545D01*
X0089661Y0102109D01*
X0091866Y0104314D01*
X0090320Y0104314D01*
X0088180Y0102174D01*
X0088245Y0102109D01*
X0088245Y0098553D01*
X0085731Y0096039D01*
X0082175Y0096039D01*
X0079661Y0098553D01*
X0079661Y0102109D01*
X0082175Y0104623D01*
X0085731Y0104623D01*
X0085796Y0104558D01*
X0087936Y0106698D01*
X0088924Y0107686D01*
X0090110Y0107686D01*
X0089365Y0108431D01*
X0089365Y0110131D01*
X0093753Y0110131D01*
X0093753Y0110531D01*
X0089365Y0110531D01*
X0089365Y0112231D01*
X0091449Y0114314D01*
X0090537Y0114314D01*
X0088245Y0112022D01*
X0088245Y0108553D01*
X0085731Y0106039D01*
X0082175Y0106039D01*
X0079661Y0108553D01*
X0079661Y0112109D01*
X0082175Y0114623D01*
X0085731Y0114623D01*
X0085904Y0114449D01*
X0087796Y0116342D01*
X0021721Y0116342D01*
X0021812Y0116274D01*
X0022171Y0116077D01*
X0022198Y0115984D01*
X0022911Y0115451D01*
X0023009Y0115451D01*
X0023298Y0115161D01*
X0023625Y0114916D01*
X0023639Y0114820D01*
X0024269Y0114190D01*
X0024365Y0114176D01*
X0024610Y0113849D01*
X0024899Y0113560D01*
X0024899Y0113463D01*
X0025433Y0112750D01*
X0025526Y0112722D01*
X0025722Y0112363D01*
X0025967Y0112036D01*
X0025954Y0111940D01*
X0026380Y0111158D01*
X0026469Y0111118D01*
X0026612Y0110734D01*
X0026808Y0110375D01*
X0026780Y0110282D01*
X0027092Y0109448D01*
X0027173Y0109395D01*
X0027260Y0108995D01*
X0027403Y0108612D01*
X0027363Y0108524D01*
X0027552Y0107654D01*
X0027626Y0107590D01*
X0027655Y0107182D01*
X0027742Y0106782D01*
X0027689Y0106700D01*
X0027753Y0105812D01*
X0027816Y0105739D01*
X0027787Y0105331D01*
X0027816Y0104923D01*
X0027753Y0104849D01*
X0027689Y0103961D01*
X0027742Y0103879D01*
X0027655Y0103480D01*
X0027626Y0103071D01*
X0027552Y0103008D01*
X0027363Y0102138D01*
X0027403Y0102049D01*
X0027260Y0101666D01*
X0027173Y0101266D01*
X0027092Y0101214D01*
X0026780Y0100379D01*
X0026808Y0100286D01*
X0026612Y0099927D01*
X0026469Y0099544D01*
X0026380Y0099503D01*
X0025954Y0098722D01*
X0025967Y0098626D01*
X0025722Y0098298D01*
X0025526Y0097939D01*
X0025433Y0097912D01*
X0024899Y0097199D01*
X0024899Y0097102D01*
X0024610Y0096812D01*
X0024365Y0096485D01*
X0024269Y0096471D01*
X0023639Y0095841D01*
X0023625Y0095745D01*
X0023298Y0095500D01*
X0023009Y0095211D01*
X0022911Y0095211D01*
X0022198Y0094677D01*
X0022171Y0094584D01*
X0021812Y0094388D01*
X0021485Y0094143D01*
X0021388Y0094157D01*
X0020607Y0093730D01*
X0020566Y0093641D01*
X0020183Y0093498D01*
X0019824Y0093302D01*
X0019731Y0093330D01*
X0018896Y0093019D01*
X0018844Y0092937D01*
X0018444Y0092850D01*
X0018061Y0092707D01*
X0017973Y0092747D01*
X0017102Y0092558D01*
X0017039Y0092485D01*
X0016631Y0092455D01*
X0016231Y0092368D01*
X0016149Y0092421D01*
X0015261Y0092357D01*
X0015188Y0092294D01*
X0014780Y0092323D01*
X0014371Y0092294D01*
X0014298Y0092357D01*
X0013410Y0092421D01*
X0013328Y0092368D01*
X0012928Y0092455D01*
X0012520Y0092485D01*
X0012457Y0092558D01*
X0011586Y0092747D01*
X0011498Y0092707D01*
X0011115Y0092850D01*
X0010715Y0092937D01*
X0010663Y0093019D01*
X0009828Y0093330D01*
X0009735Y0093302D01*
X0009376Y0093498D01*
X0008993Y0093641D01*
X0008952Y0093730D01*
X0008171Y0094157D01*
X0008074Y0094143D01*
X0007747Y0094388D01*
X0007388Y0094584D01*
X0007361Y0094677D01*
X0006648Y0095211D01*
X0006551Y0095211D01*
X0006261Y0095500D01*
X0005934Y0095745D01*
X0005920Y0095841D01*
X0005290Y0096471D01*
X0005194Y0096485D01*
X0004949Y0096812D01*
X0004660Y0097102D01*
X0004660Y0097199D01*
X0004126Y0097912D01*
X0004033Y0097939D01*
X0003837Y0098298D01*
X0003768Y0098389D01*
X0003768Y0021721D01*
X0003837Y0021812D01*
X0004033Y0022171D01*
X0004126Y0022198D01*
X0004660Y0022911D01*
X0004660Y0023009D01*
X0004949Y0023298D01*
X0005194Y0023625D01*
X0005290Y0023639D01*
X0005920Y0024269D01*
X0005934Y0024365D01*
X0006261Y0024610D01*
X0006551Y0024899D01*
X0006648Y0024899D01*
X0007361Y0025433D01*
X0007388Y0025526D01*
X0007747Y0025722D01*
X0008074Y0025967D01*
X0008171Y0025954D01*
X0008952Y0026380D01*
X0008993Y0026469D01*
X0009376Y0026612D01*
X0009735Y0026808D01*
X0009828Y0026780D01*
X0010663Y0027092D01*
X0010715Y0027173D01*
X0011115Y0027260D01*
X0011498Y0027403D01*
X0011586Y0027363D01*
X0012457Y0027552D01*
X0012520Y0027626D01*
X0012928Y0027655D01*
X0013328Y0027742D01*
X0013410Y0027689D01*
X0014298Y0027753D01*
X0014371Y0027816D01*
X0014780Y0027787D01*
X0015188Y0027816D01*
X0015261Y0027753D01*
X0016149Y0027689D01*
X0016231Y0027742D01*
X0016631Y0027655D01*
X0017039Y0027626D01*
X0017102Y0027552D01*
X0017973Y0027363D01*
X0018061Y0027403D01*
X0018444Y0027260D01*
X0018844Y0027173D01*
X0018896Y0027092D01*
X0019731Y0026780D01*
X0019824Y0026808D01*
X0020183Y0026612D01*
X0020566Y0026469D01*
X0020607Y0026380D01*
X0021388Y0025954D01*
X0021485Y0025967D01*
X0021812Y0025722D01*
X0022171Y0025526D01*
X0022198Y0025433D01*
X0022911Y0024899D01*
X0023009Y0024899D01*
X0023298Y0024610D01*
X0023625Y0024365D01*
X0023639Y0024269D01*
X0024269Y0023639D01*
X0024365Y0023625D01*
X0024610Y0023298D01*
X0024899Y0023009D01*
X0024899Y0022911D01*
X0025433Y0022198D01*
X0025526Y0022171D01*
X0025722Y0021812D01*
X0025967Y0021485D01*
X0025954Y0021388D01*
X0026380Y0020607D01*
X0026469Y0020566D01*
X0026612Y0020183D01*
X0026808Y0019824D01*
X0026780Y0019731D01*
X0027092Y0018896D01*
X0027173Y0018844D01*
X0027260Y0018444D01*
X0027403Y0018061D01*
X0027363Y0017973D01*
X0027552Y0017102D01*
X0027626Y0017039D01*
X0027655Y0016631D01*
X0027742Y0016231D01*
X0027689Y0016149D01*
X0027753Y0015261D01*
X0027816Y0015188D01*
X0027787Y0014780D01*
X0027816Y0014371D01*
X0027753Y0014298D01*
X0027689Y0013410D01*
X0027742Y0013328D01*
X0027655Y0012928D01*
X0027626Y0012520D01*
X0027552Y0012457D01*
X0027363Y0011586D01*
X0027403Y0011498D01*
X0027260Y0011115D01*
X0027173Y0010715D01*
X0027092Y0010663D01*
X0026780Y0009828D01*
X0026808Y0009735D01*
X0026612Y0009376D01*
X0026469Y0008993D01*
X0026380Y0008952D01*
X0025954Y0008171D01*
X0025967Y0008074D01*
X0025722Y0007747D01*
X0025526Y0007388D01*
X0025433Y0007361D01*
X0024899Y0006648D01*
X0024899Y0006551D01*
X0024610Y0006261D01*
X0024365Y0005934D01*
X0024269Y0005920D01*
X0023639Y0005290D01*
X0023625Y0005194D01*
X0023298Y0004949D01*
X0023009Y0004660D01*
X0022911Y0004660D01*
X0022198Y0004126D01*
X0022171Y0004033D01*
X0021812Y0003837D01*
X0022293Y0004197D02*
X0205724Y0004197D01*
X0205724Y0005796D02*
X0024144Y0005796D01*
X0025530Y0007394D02*
X0205724Y0007394D01*
X0205724Y0008993D02*
X0026469Y0008993D01*
X0027065Y0010591D02*
X0205724Y0010591D01*
X0205724Y0012190D02*
X0129294Y0012190D01*
X0129044Y0012045D02*
X0130075Y0012640D01*
X0131020Y0013366D01*
X0131863Y0014208D01*
X0132588Y0015153D01*
X0133183Y0016185D01*
X0133639Y0017285D01*
X0133948Y0018436D01*
X0134076Y0019413D01*
X0125816Y0019413D01*
X0125816Y0021013D01*
X0124216Y0021013D01*
X0124216Y0029273D01*
X0123239Y0029145D01*
X0122088Y0028836D01*
X0120988Y0028380D01*
X0119956Y0027785D01*
X0119011Y0027060D01*
X0118169Y0026217D01*
X0117444Y0025272D01*
X0116848Y0024240D01*
X0116392Y0023140D01*
X0116084Y0021989D01*
X0115955Y0021013D01*
X0124216Y0021013D01*
X0124216Y0019413D01*
X0115955Y0019413D01*
X0116084Y0018436D01*
X0116392Y0017285D01*
X0116848Y0016185D01*
X0117444Y0015153D01*
X0118169Y0014208D01*
X0119011Y0013366D01*
X0119956Y0012640D01*
X0120988Y0012045D01*
X0122088Y0011589D01*
X0123239Y0011281D01*
X0124216Y0011152D01*
X0124216Y0019413D01*
X0125816Y0019413D01*
X0125816Y0011152D01*
X0126792Y0011281D01*
X0127943Y0011589D01*
X0129044Y0012045D01*
X0131443Y0013788D02*
X0205724Y0013788D01*
X0205724Y0015387D02*
X0132723Y0015387D01*
X0133515Y0016985D02*
X0205724Y0016985D01*
X0205724Y0018584D02*
X0133967Y0018584D01*
X0134076Y0021013D02*
X0133948Y0021989D01*
X0133639Y0023140D01*
X0133183Y0024240D01*
X0132588Y0025272D01*
X0131863Y0026217D01*
X0131020Y0027060D01*
X0130075Y0027785D01*
X0129044Y0028380D01*
X0127943Y0028836D01*
X0126792Y0029145D01*
X0125816Y0029273D01*
X0125816Y0021013D01*
X0134076Y0021013D01*
X0133975Y0021781D02*
X0205724Y0021781D01*
X0205724Y0023379D02*
X0133540Y0023379D01*
X0132758Y0024978D02*
X0205724Y0024978D01*
X0205724Y0026576D02*
X0131504Y0026576D01*
X0129400Y0028175D02*
X0205724Y0028175D01*
X0205724Y0029773D02*
X0003768Y0029773D01*
X0003768Y0028175D02*
X0120632Y0028175D01*
X0118528Y0026576D02*
X0020279Y0026576D01*
X0022807Y0024978D02*
X0117274Y0024978D01*
X0116491Y0023379D02*
X0024549Y0023379D01*
X0025746Y0021781D02*
X0116056Y0021781D01*
X0116064Y0018584D02*
X0027230Y0018584D01*
X0027630Y0016985D02*
X0116516Y0016985D01*
X0117309Y0015387D02*
X0027744Y0015387D01*
X0027716Y0013788D02*
X0118589Y0013788D01*
X0120737Y0012190D02*
X0027494Y0012190D01*
X0026612Y0020182D02*
X0124216Y0020182D01*
X0124216Y0018584D02*
X0125816Y0018584D01*
X0125816Y0020182D02*
X0205724Y0020182D01*
X0205724Y0031372D02*
X0003768Y0031372D01*
X0003768Y0032970D02*
X0205724Y0032970D01*
X0205724Y0034569D02*
X0003768Y0034569D01*
X0003768Y0036167D02*
X0205724Y0036167D01*
X0205724Y0037766D02*
X0055776Y0037766D01*
X0055776Y0037557D02*
X0054443Y0036224D01*
X0052557Y0036224D01*
X0051224Y0037557D01*
X0051224Y0039443D01*
X0051814Y0040033D01*
X0051814Y0066967D01*
X0051224Y0067557D01*
X0051224Y0068392D01*
X0046814Y0072802D01*
X0046814Y0086967D01*
X0046224Y0087557D01*
X0046224Y0089443D01*
X0047557Y0090776D01*
X0049443Y0090776D01*
X0050776Y0089443D01*
X0050776Y0087557D01*
X0050186Y0086967D01*
X0050186Y0074198D01*
X0053608Y0070776D01*
X0054443Y0070776D01*
X0055776Y0069443D01*
X0055776Y0067557D01*
X0055186Y0066967D01*
X0055186Y0040033D01*
X0055776Y0039443D01*
X0055776Y0037557D01*
X0055776Y0039364D02*
X0205724Y0039364D01*
X0205724Y0040963D02*
X0139483Y0040963D01*
X0139529Y0041032D02*
X0139723Y0041500D01*
X0139822Y0041997D01*
X0139822Y0042250D01*
X0139822Y0042503D01*
X0139723Y0043000D01*
X0139529Y0043468D01*
X0139248Y0043889D01*
X0138889Y0044248D01*
X0138468Y0044529D01*
X0138000Y0044723D01*
X0137503Y0044822D01*
X0137250Y0044822D01*
X0136997Y0044822D01*
X0136500Y0044723D01*
X0136032Y0044529D01*
X0135611Y0044248D01*
X0135252Y0043889D01*
X0134971Y0043468D01*
X0134777Y0043000D01*
X0134678Y0042503D01*
X0134678Y0042250D01*
X0134678Y0041997D01*
X0134777Y0041500D01*
X0134971Y0041032D01*
X0135252Y0040611D01*
X0135611Y0040252D01*
X0136032Y0039971D01*
X0136500Y0039777D01*
X0136997Y0039678D01*
X0137250Y0039678D01*
X0137503Y0039678D01*
X0138000Y0039777D01*
X0138468Y0039971D01*
X0138889Y0040252D01*
X0139248Y0040611D01*
X0139529Y0041032D01*
X0139822Y0042250D02*
X0137250Y0042250D01*
X0139822Y0042250D01*
X0139810Y0042561D02*
X0205724Y0042561D01*
X0205724Y0044160D02*
X0144879Y0044160D01*
X0145776Y0045758D02*
X0205724Y0045758D01*
X0205724Y0047357D02*
X0145362Y0047357D01*
X0145186Y0048955D02*
X0147325Y0048955D01*
X0146224Y0050554D02*
X0145186Y0050554D01*
X0149675Y0048955D02*
X0205724Y0048955D01*
X0205724Y0050554D02*
X0150776Y0050554D01*
X0150567Y0052152D02*
X0205724Y0052152D01*
X0205724Y0053751D02*
X0150186Y0053751D01*
X0150186Y0055349D02*
X0205724Y0055349D01*
X0205724Y0056948D02*
X0150186Y0056948D01*
X0150186Y0058546D02*
X0205724Y0058546D01*
X0205724Y0060145D02*
X0150186Y0060145D01*
X0150186Y0061743D02*
X0205724Y0061743D01*
X0205724Y0063342D02*
X0150186Y0063342D01*
X0150186Y0064940D02*
X0205724Y0064940D01*
X0205724Y0066539D02*
X0150186Y0066539D01*
X0150186Y0068137D02*
X0205724Y0068137D01*
X0205724Y0069736D02*
X0150186Y0069736D01*
X0150186Y0071334D02*
X0205724Y0071334D01*
X0205724Y0072933D02*
X0150186Y0072933D01*
X0150186Y0074532D02*
X0205724Y0074532D01*
X0205724Y0076130D02*
X0150186Y0076130D01*
X0150186Y0077729D02*
X0205724Y0077729D01*
X0205724Y0079327D02*
X0150186Y0079327D01*
X0150186Y0080926D02*
X0205724Y0080926D01*
X0205724Y0082524D02*
X0150186Y0082524D01*
X0150186Y0084123D02*
X0205724Y0084123D01*
X0205724Y0085721D02*
X0150186Y0085721D01*
X0150186Y0087320D02*
X0205724Y0087320D01*
X0205724Y0088918D02*
X0150186Y0088918D01*
X0150186Y0090517D02*
X0205724Y0090517D01*
X0205731Y0096039D02*
X0202175Y0096039D01*
X0199661Y0098553D01*
X0199661Y0102109D01*
X0202175Y0104623D01*
X0205731Y0104623D01*
X0208245Y0102109D01*
X0208245Y0098553D01*
X0205731Y0096039D01*
X0206603Y0096911D02*
X0211303Y0096911D01*
X0212175Y0096039D02*
X0215731Y0096039D01*
X0218245Y0098553D01*
X0218245Y0102109D01*
X0215731Y0104623D01*
X0212175Y0104623D01*
X0209661Y0102109D01*
X0209661Y0098553D01*
X0212175Y0096039D01*
X0209704Y0098509D02*
X0208201Y0098509D01*
X0208245Y0100108D02*
X0209661Y0100108D01*
X0209661Y0101706D02*
X0208245Y0101706D01*
X0207049Y0103305D02*
X0210857Y0103305D01*
X0212175Y0106039D02*
X0215731Y0106039D01*
X0218245Y0108553D01*
X0218245Y0112109D01*
X0215731Y0114623D01*
X0212175Y0114623D01*
X0209661Y0112109D01*
X0209661Y0108553D01*
X0212175Y0106039D01*
X0211712Y0106502D02*
X0206194Y0106502D01*
X0205731Y0106039D02*
X0208245Y0108553D01*
X0208245Y0112109D01*
X0205731Y0114623D01*
X0202175Y0114623D01*
X0199661Y0112109D01*
X0199661Y0108553D01*
X0202175Y0106039D01*
X0205731Y0106039D01*
X0207792Y0108100D02*
X0210113Y0108100D01*
X0209661Y0109699D02*
X0208245Y0109699D01*
X0208245Y0111297D02*
X0209661Y0111297D01*
X0210448Y0112896D02*
X0207458Y0112896D01*
X0205859Y0114494D02*
X0212046Y0114494D01*
X0215859Y0114494D02*
X0222046Y0114494D01*
X0222175Y0114623D02*
X0219661Y0112109D01*
X0219661Y0108553D01*
X0222175Y0106039D01*
X0225731Y0106039D01*
X0228245Y0108553D01*
X0228245Y0112109D01*
X0225731Y0114623D01*
X0222175Y0114623D01*
X0220448Y0112896D02*
X0217458Y0112896D01*
X0218245Y0111297D02*
X0219661Y0111297D01*
X0219661Y0109699D02*
X0218245Y0109699D01*
X0217792Y0108100D02*
X0220113Y0108100D01*
X0221712Y0106502D02*
X0216194Y0106502D01*
X0217049Y0103305D02*
X0220439Y0103305D01*
X0219365Y0102231D02*
X0219365Y0100531D01*
X0223753Y0100531D01*
X0223753Y0104918D01*
X0222053Y0104918D01*
X0219365Y0102231D01*
X0219365Y0101706D02*
X0218245Y0101706D01*
X0218245Y0100108D02*
X0219365Y0100108D01*
X0219365Y0100131D02*
X0219365Y0098431D01*
X0222053Y0095743D01*
X0223753Y0095743D01*
X0223753Y0100131D01*
X0219365Y0100131D01*
X0219365Y0098509D02*
X0218201Y0098509D01*
X0216603Y0096911D02*
X0220885Y0096911D01*
X0223753Y0096911D02*
X0224153Y0096911D01*
X0224153Y0095743D02*
X0225853Y0095743D01*
X0228540Y0098431D01*
X0228540Y0100131D01*
X0224153Y0100131D01*
X0224153Y0100531D01*
X0223753Y0100531D01*
X0223753Y0100131D01*
X0224153Y0100131D01*
X0224153Y0095743D01*
X0224153Y0098509D02*
X0223753Y0098509D01*
X0223753Y0100108D02*
X0224153Y0100108D01*
X0224153Y0100531D02*
X0228540Y0100531D01*
X0228540Y0102231D01*
X0225853Y0104918D01*
X0224153Y0104918D01*
X0224153Y0100531D01*
X0224153Y0101706D02*
X0223753Y0101706D01*
X0223753Y0103305D02*
X0224153Y0103305D01*
X0224153Y0104903D02*
X0223753Y0104903D01*
X0222038Y0104903D02*
X0155868Y0104903D01*
X0155853Y0104918D02*
X0154153Y0104918D01*
X0154153Y0100531D01*
X0153753Y0100531D01*
X0153753Y0104918D01*
X0152053Y0104918D01*
X0149365Y0102231D01*
X0149365Y0100531D01*
X0153753Y0100531D01*
X0153753Y0100131D01*
X0149365Y0100131D01*
X0149365Y0098431D01*
X0152053Y0095743D01*
X0153753Y0095743D01*
X0153753Y0100131D01*
X0154153Y0100131D01*
X0154153Y0100531D01*
X0158540Y0100531D01*
X0158540Y0102231D01*
X0155853Y0104918D01*
X0155731Y0106039D02*
X0158245Y0108553D01*
X0158245Y0112109D01*
X0155731Y0114623D01*
X0152175Y0114623D01*
X0149661Y0112109D01*
X0149661Y0108553D01*
X0152175Y0106039D01*
X0155731Y0106039D01*
X0156194Y0106502D02*
X0161712Y0106502D01*
X0162175Y0106039D02*
X0159661Y0108553D01*
X0159661Y0112109D01*
X0162175Y0114623D01*
X0165731Y0114623D01*
X0168245Y0112109D01*
X0168245Y0108553D01*
X0165731Y0106039D01*
X0162175Y0106039D01*
X0162175Y0104623D02*
X0159661Y0102109D01*
X0159661Y0098553D01*
X0162175Y0096039D01*
X0165731Y0096039D01*
X0168245Y0098553D01*
X0168245Y0102109D01*
X0165731Y0104623D01*
X0162175Y0104623D01*
X0160857Y0103305D02*
X0157466Y0103305D01*
X0154153Y0103305D02*
X0153753Y0103305D01*
X0153753Y0104903D02*
X0154153Y0104903D01*
X0152038Y0104903D02*
X0120186Y0104903D01*
X0120186Y0103305D02*
X0120857Y0103305D01*
X0121294Y0106502D02*
X0120186Y0106502D01*
X0123753Y0106502D02*
X0124153Y0106502D01*
X0124153Y0108100D02*
X0123753Y0108100D01*
X0123753Y0109699D02*
X0124153Y0109699D01*
X0124153Y0111297D02*
X0123753Y0111297D01*
X0123753Y0112896D02*
X0124153Y0112896D01*
X0124153Y0114494D02*
X0123753Y0114494D01*
X0121629Y0114494D02*
X0119890Y0114494D01*
X0118291Y0116093D02*
X0235762Y0116093D01*
X0233941Y0114494D02*
X0225859Y0114494D01*
X0227458Y0112896D02*
X0232582Y0112896D01*
X0231601Y0111297D02*
X0228245Y0111297D01*
X0228245Y0109699D02*
X0230907Y0109699D01*
X0230450Y0108100D02*
X0227792Y0108100D01*
X0226194Y0106502D02*
X0230202Y0106502D01*
X0230106Y0104903D02*
X0225868Y0104903D01*
X0227466Y0103305D02*
X0230263Y0103305D01*
X0230630Y0101706D02*
X0228540Y0101706D01*
X0228540Y0100108D02*
X0231195Y0100108D01*
X0232025Y0098509D02*
X0228540Y0098509D01*
X0227020Y0096911D02*
X0233197Y0096911D01*
X0234796Y0095312D02*
X0149072Y0095312D01*
X0150186Y0093714D02*
X0237306Y0093714D01*
X0248946Y0093714D02*
X0254137Y0093714D01*
X0254137Y0095312D02*
X0251456Y0095312D01*
X0253055Y0096911D02*
X0254137Y0096911D01*
X0254002Y0092115D02*
X0150186Y0092115D01*
X0150885Y0096911D02*
X0147473Y0096911D01*
X0148201Y0098509D02*
X0149365Y0098509D01*
X0149365Y0100108D02*
X0148245Y0100108D01*
X0148245Y0101706D02*
X0149365Y0101706D01*
X0150439Y0103305D02*
X0147049Y0103305D01*
X0145731Y0106039D02*
X0148245Y0108553D01*
X0148245Y0112109D01*
X0145731Y0114623D01*
X0142175Y0114623D01*
X0139661Y0112109D01*
X0139661Y0108553D01*
X0142175Y0106039D01*
X0145731Y0106039D01*
X0146194Y0106502D02*
X0151712Y0106502D01*
X0150113Y0108100D02*
X0147792Y0108100D01*
X0148245Y0109699D02*
X0149661Y0109699D01*
X0149661Y0111297D02*
X0148245Y0111297D01*
X0147458Y0112896D02*
X0150448Y0112896D01*
X0152046Y0114494D02*
X0145859Y0114494D01*
X0142046Y0114494D02*
X0135859Y0114494D01*
X0135731Y0114623D02*
X0132175Y0114623D01*
X0129661Y0112109D01*
X0129661Y0108553D01*
X0132175Y0106039D01*
X0135731Y0106039D01*
X0138245Y0108553D01*
X0138245Y0112109D01*
X0135731Y0114623D01*
X0137458Y0112896D02*
X0140448Y0112896D01*
X0139661Y0111297D02*
X0138245Y0111297D01*
X0138245Y0109699D02*
X0139661Y0109699D01*
X0140113Y0108100D02*
X0137792Y0108100D01*
X0136194Y0106502D02*
X0141712Y0106502D01*
X0140857Y0103305D02*
X0137049Y0103305D01*
X0138245Y0101706D02*
X0139661Y0101706D01*
X0139661Y0100108D02*
X0138245Y0100108D01*
X0138201Y0098509D02*
X0139704Y0098509D01*
X0134304Y0095312D02*
X0126572Y0095312D01*
X0126603Y0096911D02*
X0131303Y0096911D01*
X0129704Y0098509D02*
X0128201Y0098509D01*
X0128245Y0100108D02*
X0129661Y0100108D01*
X0129661Y0101706D02*
X0128245Y0101706D01*
X0127049Y0103305D02*
X0130857Y0103305D01*
X0131712Y0106502D02*
X0126611Y0106502D01*
X0128210Y0108100D02*
X0130113Y0108100D01*
X0129661Y0109699D02*
X0128540Y0109699D01*
X0128540Y0111297D02*
X0129661Y0111297D01*
X0130448Y0112896D02*
X0127875Y0112896D01*
X0126277Y0114494D02*
X0132046Y0114494D01*
X0155859Y0114494D02*
X0162046Y0114494D01*
X0160448Y0112896D02*
X0157458Y0112896D01*
X0158245Y0111297D02*
X0159661Y0111297D01*
X0159661Y0109699D02*
X0158245Y0109699D01*
X0157792Y0108100D02*
X0160113Y0108100D01*
X0166194Y0106502D02*
X0171294Y0106502D01*
X0172053Y0105743D02*
X0169365Y0108431D01*
X0169365Y0110131D01*
X0173753Y0110131D01*
X0173753Y0110531D01*
X0173753Y0114918D01*
X0172053Y0114918D01*
X0169365Y0112231D01*
X0169365Y0110531D01*
X0173753Y0110531D01*
X0174153Y0110531D01*
X0174153Y0114918D01*
X0175853Y0114918D01*
X0178540Y0112231D01*
X0178540Y0110531D01*
X0174153Y0110531D01*
X0174153Y0110131D01*
X0178540Y0110131D01*
X0178540Y0108431D01*
X0175853Y0105743D01*
X0174153Y0105743D01*
X0174153Y0110131D01*
X0173753Y0110131D01*
X0173753Y0105743D01*
X0172053Y0105743D01*
X0172175Y0104623D02*
X0169661Y0102109D01*
X0169661Y0098553D01*
X0172175Y0096039D01*
X0175731Y0096039D01*
X0178245Y0098553D01*
X0178245Y0102109D01*
X0175731Y0104623D01*
X0172175Y0104623D01*
X0170857Y0103305D02*
X0167049Y0103305D01*
X0168245Y0101706D02*
X0169661Y0101706D01*
X0169661Y0100108D02*
X0168245Y0100108D01*
X0168201Y0098509D02*
X0169704Y0098509D01*
X0171303Y0096911D02*
X0166603Y0096911D01*
X0161303Y0096911D02*
X0157020Y0096911D01*
X0155853Y0095743D02*
X0158540Y0098431D01*
X0158540Y0100131D01*
X0154153Y0100131D01*
X0154153Y0095743D01*
X0155853Y0095743D01*
X0154153Y0096911D02*
X0153753Y0096911D01*
X0153753Y0098509D02*
X0154153Y0098509D01*
X0154153Y0100108D02*
X0153753Y0100108D01*
X0153753Y0101706D02*
X0154153Y0101706D01*
X0158540Y0101706D02*
X0159661Y0101706D01*
X0159661Y0100108D02*
X0158540Y0100108D01*
X0158540Y0098509D02*
X0159704Y0098509D01*
X0173753Y0106502D02*
X0174153Y0106502D01*
X0174153Y0108100D02*
X0173753Y0108100D01*
X0173753Y0109699D02*
X0174153Y0109699D01*
X0174153Y0111297D02*
X0173753Y0111297D01*
X0173753Y0112896D02*
X0174153Y0112896D01*
X0174153Y0114494D02*
X0173753Y0114494D01*
X0171629Y0114494D02*
X0165859Y0114494D01*
X0167458Y0112896D02*
X0170030Y0112896D01*
X0169365Y0111297D02*
X0168245Y0111297D01*
X0168245Y0109699D02*
X0169365Y0109699D01*
X0169696Y0108100D02*
X0167792Y0108100D01*
X0176611Y0106502D02*
X0181712Y0106502D01*
X0182175Y0106039D02*
X0179661Y0108553D01*
X0179661Y0112109D01*
X0182175Y0114623D01*
X0185731Y0114623D01*
X0188245Y0112109D01*
X0188245Y0108553D01*
X0185731Y0106039D01*
X0182175Y0106039D01*
X0182175Y0104623D02*
X0179661Y0102109D01*
X0179661Y0098553D01*
X0182175Y0096039D01*
X0185731Y0096039D01*
X0188245Y0098553D01*
X0188245Y0102109D01*
X0185731Y0104623D01*
X0182175Y0104623D01*
X0180857Y0103305D02*
X0177049Y0103305D01*
X0178245Y0101706D02*
X0179661Y0101706D01*
X0179661Y0100108D02*
X0178245Y0100108D01*
X0178201Y0098509D02*
X0179704Y0098509D01*
X0181303Y0096911D02*
X0176603Y0096911D01*
X0186603Y0096911D02*
X0191303Y0096911D01*
X0192175Y0096039D02*
X0195731Y0096039D01*
X0198245Y0098553D01*
X0198245Y0102109D01*
X0195731Y0104623D01*
X0192175Y0104623D01*
X0189661Y0102109D01*
X0189661Y0098553D01*
X0192175Y0096039D01*
X0189704Y0098509D02*
X0188201Y0098509D01*
X0188245Y0100108D02*
X0189661Y0100108D01*
X0189661Y0101706D02*
X0188245Y0101706D01*
X0187049Y0103305D02*
X0190857Y0103305D01*
X0192053Y0105743D02*
X0193753Y0105743D01*
X0193753Y0110131D01*
X0189365Y0110131D01*
X0189365Y0108431D01*
X0192053Y0105743D01*
X0191294Y0106502D02*
X0186194Y0106502D01*
X0187792Y0108100D02*
X0189696Y0108100D01*
X0189365Y0109699D02*
X0188245Y0109699D01*
X0189365Y0110531D02*
X0193753Y0110531D01*
X0193753Y0114918D01*
X0192053Y0114918D01*
X0189365Y0112231D01*
X0189365Y0110531D01*
X0189365Y0111297D02*
X0188245Y0111297D01*
X0187458Y0112896D02*
X0190030Y0112896D01*
X0191629Y0114494D02*
X0185859Y0114494D01*
X0182046Y0114494D02*
X0176277Y0114494D01*
X0177875Y0112896D02*
X0180448Y0112896D01*
X0179661Y0111297D02*
X0178540Y0111297D01*
X0178540Y0109699D02*
X0179661Y0109699D01*
X0180113Y0108100D02*
X0178210Y0108100D01*
X0193753Y0108100D02*
X0194153Y0108100D01*
X0194153Y0106502D02*
X0193753Y0106502D01*
X0194153Y0105743D02*
X0195853Y0105743D01*
X0198540Y0108431D01*
X0198540Y0110131D01*
X0194153Y0110131D01*
X0194153Y0110531D01*
X0193753Y0110531D01*
X0193753Y0110131D01*
X0194153Y0110131D01*
X0194153Y0105743D01*
X0196611Y0106502D02*
X0201712Y0106502D01*
X0200113Y0108100D02*
X0198210Y0108100D01*
X0198540Y0109699D02*
X0199661Y0109699D01*
X0198540Y0110531D02*
X0198540Y0112231D01*
X0195853Y0114918D01*
X0194153Y0114918D01*
X0194153Y0110531D01*
X0198540Y0110531D01*
X0198540Y0111297D02*
X0199661Y0111297D01*
X0200448Y0112896D02*
X0197875Y0112896D01*
X0196277Y0114494D02*
X0202046Y0114494D01*
X0194153Y0114494D02*
X0193753Y0114494D01*
X0193753Y0112896D02*
X0194153Y0112896D01*
X0194153Y0111297D02*
X0193753Y0111297D01*
X0193753Y0109699D02*
X0194153Y0109699D01*
X0197049Y0103305D02*
X0200857Y0103305D01*
X0199661Y0101706D02*
X0198245Y0101706D01*
X0198245Y0100108D02*
X0199661Y0100108D01*
X0199704Y0098509D02*
X0198201Y0098509D01*
X0196603Y0096911D02*
X0201303Y0096911D01*
X0139314Y0087320D02*
X0110186Y0087320D01*
X0110186Y0088918D02*
X0138198Y0088918D01*
X0139314Y0085721D02*
X0110186Y0085721D01*
X0110186Y0084123D02*
X0139314Y0084123D01*
X0139314Y0082524D02*
X0110186Y0082524D01*
X0110186Y0080926D02*
X0139314Y0080926D01*
X0139314Y0079327D02*
X0130118Y0079327D01*
X0130075Y0079359D02*
X0129044Y0079955D01*
X0127943Y0080411D01*
X0126792Y0080719D01*
X0125816Y0080848D01*
X0125816Y0072587D01*
X0134076Y0072587D01*
X0133948Y0073564D01*
X0133639Y0074715D01*
X0133183Y0075815D01*
X0132588Y0076847D01*
X0131863Y0077792D01*
X0131020Y0078634D01*
X0130075Y0079359D01*
X0131911Y0077729D02*
X0139314Y0077729D01*
X0139314Y0076130D02*
X0133002Y0076130D01*
X0133688Y0074532D02*
X0139314Y0074532D01*
X0139314Y0072933D02*
X0134031Y0072933D01*
X0134076Y0070987D02*
X0125816Y0070987D01*
X0125816Y0062727D01*
X0126792Y0062855D01*
X0127943Y0063164D01*
X0129044Y0063620D01*
X0130075Y0064215D01*
X0131020Y0064940D01*
X0139314Y0064940D01*
X0139314Y0063342D02*
X0128373Y0063342D01*
X0125816Y0063342D02*
X0124216Y0063342D01*
X0124216Y0062727D02*
X0124216Y0070987D01*
X0125816Y0070987D01*
X0125816Y0072587D01*
X0124216Y0072587D01*
X0124216Y0070987D01*
X0115955Y0070987D01*
X0116084Y0070011D01*
X0116392Y0068860D01*
X0116848Y0067760D01*
X0117444Y0066728D01*
X0118169Y0065783D01*
X0119011Y0064940D01*
X0110186Y0064940D01*
X0110186Y0063342D02*
X0121658Y0063342D01*
X0122088Y0063164D02*
X0123239Y0062855D01*
X0124216Y0062727D01*
X0122088Y0063164D02*
X0120988Y0063620D01*
X0119956Y0064215D01*
X0119011Y0064940D01*
X0117589Y0066539D02*
X0110186Y0066539D01*
X0110186Y0068137D02*
X0116691Y0068137D01*
X0116157Y0069736D02*
X0110186Y0069736D01*
X0110186Y0071334D02*
X0124216Y0071334D01*
X0124216Y0072587D02*
X0115955Y0072587D01*
X0116084Y0073564D01*
X0116392Y0074715D01*
X0116848Y0075815D01*
X0117444Y0076847D01*
X0118169Y0077792D01*
X0119011Y0078634D01*
X0119956Y0079359D01*
X0120988Y0079955D01*
X0122088Y0080411D01*
X0123239Y0080719D01*
X0124216Y0080848D01*
X0124216Y0072587D01*
X0124216Y0072933D02*
X0125816Y0072933D01*
X0125816Y0071334D02*
X0139314Y0071334D01*
X0139314Y0069736D02*
X0133874Y0069736D01*
X0133948Y0070011D02*
X0134076Y0070987D01*
X0133948Y0070011D02*
X0133639Y0068860D01*
X0133183Y0067760D01*
X0132588Y0066728D01*
X0131863Y0065783D01*
X0131020Y0064940D01*
X0132443Y0066539D02*
X0139314Y0066539D01*
X0139314Y0068137D02*
X0133340Y0068137D01*
X0125816Y0068137D02*
X0124216Y0068137D01*
X0124216Y0066539D02*
X0125816Y0066539D01*
X0125816Y0064940D02*
X0124216Y0064940D01*
X0124216Y0069736D02*
X0125816Y0069736D01*
X0125816Y0074532D02*
X0124216Y0074532D01*
X0124216Y0076130D02*
X0125816Y0076130D01*
X0125816Y0077729D02*
X0124216Y0077729D01*
X0124216Y0079327D02*
X0125816Y0079327D01*
X0119914Y0079327D02*
X0110186Y0079327D01*
X0110186Y0077729D02*
X0118120Y0077729D01*
X0117030Y0076130D02*
X0110186Y0076130D01*
X0110186Y0074532D02*
X0116343Y0074532D01*
X0116001Y0072933D02*
X0110186Y0072933D01*
X0106814Y0072933D02*
X0090776Y0072933D01*
X0090186Y0071334D02*
X0106814Y0071334D01*
X0106814Y0069736D02*
X0090186Y0069736D01*
X0090186Y0068137D02*
X0106814Y0068137D01*
X0106814Y0066539D02*
X0090186Y0066539D01*
X0090186Y0064940D02*
X0106814Y0064940D01*
X0106814Y0063342D02*
X0090186Y0063342D01*
X0090186Y0061743D02*
X0106814Y0061743D01*
X0106814Y0060145D02*
X0090186Y0060145D01*
X0090186Y0058546D02*
X0106814Y0058546D01*
X0106814Y0056948D02*
X0090186Y0056948D01*
X0090186Y0055349D02*
X0106814Y0055349D01*
X0107115Y0053751D02*
X0090186Y0053751D01*
X0090186Y0052152D02*
X0107878Y0052152D01*
X0111622Y0052152D02*
X0138933Y0052152D01*
X0138724Y0050554D02*
X0127026Y0050554D01*
X0127026Y0048955D02*
X0139825Y0048955D01*
X0141638Y0047357D02*
X0129112Y0047357D01*
X0129526Y0045758D02*
X0141224Y0045758D01*
X0142121Y0044160D02*
X0138977Y0044160D01*
X0137250Y0044160D02*
X0137250Y0044160D01*
X0137250Y0044822D02*
X0137250Y0042250D01*
X0137250Y0042250D01*
X0137250Y0042250D01*
X0137250Y0044822D01*
X0135523Y0044160D02*
X0128629Y0044160D01*
X0125871Y0044160D02*
X0118491Y0044160D01*
X0118395Y0042561D02*
X0134690Y0042561D01*
X0134678Y0042250D02*
X0137250Y0042250D01*
X0137250Y0039678D01*
X0137250Y0042250D01*
X0137250Y0042250D01*
X0137250Y0042250D01*
X0134678Y0042250D01*
X0135017Y0040963D02*
X0116426Y0040963D01*
X0116000Y0040963D02*
X0116000Y0040963D01*
X0115574Y0040963D02*
X0055186Y0040963D01*
X0055186Y0042561D02*
X0113605Y0042561D01*
X0113509Y0044160D02*
X0055186Y0044160D01*
X0055186Y0045758D02*
X0078858Y0045758D01*
X0078064Y0047357D02*
X0055186Y0047357D01*
X0055186Y0048955D02*
X0077325Y0048955D01*
X0076224Y0050554D02*
X0055186Y0050554D01*
X0055186Y0052152D02*
X0076433Y0052152D01*
X0080567Y0052152D02*
X0086814Y0052152D01*
X0086814Y0050554D02*
X0081330Y0050554D01*
X0081436Y0048955D02*
X0086911Y0048955D01*
X0090186Y0050554D02*
X0122474Y0050554D01*
X0112026Y0053751D02*
X0139314Y0053751D01*
X0139314Y0055349D02*
X0111120Y0055349D01*
X0110186Y0056948D02*
X0139314Y0056948D01*
X0139314Y0058546D02*
X0110186Y0058546D01*
X0110186Y0060145D02*
X0139314Y0060145D01*
X0139314Y0061743D02*
X0110186Y0061743D01*
X0106814Y0074532D02*
X0091436Y0074532D01*
X0091436Y0076130D02*
X0106814Y0076130D01*
X0106814Y0077729D02*
X0091436Y0077729D01*
X0091436Y0079327D02*
X0106814Y0079327D01*
X0106814Y0080926D02*
X0091436Y0080926D01*
X0091436Y0082524D02*
X0106814Y0082524D01*
X0106814Y0084123D02*
X0091436Y0084123D01*
X0091436Y0085721D02*
X0106814Y0085721D01*
X0106814Y0087320D02*
X0091436Y0087320D01*
X0091436Y0088918D02*
X0106814Y0088918D01*
X0106814Y0090517D02*
X0091436Y0090517D01*
X0091436Y0092115D02*
X0106814Y0092115D01*
X0106814Y0093714D02*
X0091436Y0093714D01*
X0091436Y0095312D02*
X0106814Y0095312D01*
X0106814Y0096911D02*
X0106603Y0096911D01*
X0110186Y0096911D02*
X0111303Y0096911D01*
X0110186Y0095312D02*
X0116814Y0095312D01*
X0116814Y0093714D02*
X0110186Y0093714D01*
X0110186Y0092115D02*
X0117501Y0092115D01*
X0119099Y0090517D02*
X0110186Y0090517D01*
X0116603Y0096911D02*
X0116814Y0096911D01*
X0101303Y0096911D02*
X0096603Y0096911D01*
X0098201Y0098509D02*
X0099704Y0098509D01*
X0099661Y0100108D02*
X0098245Y0100108D01*
X0098245Y0101706D02*
X0099661Y0101706D01*
X0100857Y0103305D02*
X0097049Y0103305D01*
X0097795Y0107686D02*
X0098540Y0108431D01*
X0098540Y0110131D01*
X0094153Y0110131D01*
X0094153Y0110531D01*
X0098540Y0110531D01*
X0098540Y0112231D01*
X0096457Y0114314D01*
X0101866Y0114314D01*
X0099661Y0112109D01*
X0099661Y0108553D01*
X0100528Y0107686D01*
X0097795Y0107686D01*
X0098210Y0108100D02*
X0100113Y0108100D01*
X0099661Y0109699D02*
X0098540Y0109699D01*
X0098540Y0111297D02*
X0099661Y0111297D01*
X0100448Y0112896D02*
X0097875Y0112896D01*
X0090030Y0112896D02*
X0089118Y0112896D01*
X0089365Y0111297D02*
X0088245Y0111297D01*
X0088245Y0109699D02*
X0089365Y0109699D01*
X0089696Y0108100D02*
X0087792Y0108100D01*
X0087740Y0106502D02*
X0086194Y0106502D01*
X0086141Y0104903D02*
X0075868Y0104903D01*
X0075853Y0104918D02*
X0074153Y0104918D01*
X0074153Y0100531D01*
X0073753Y0100531D01*
X0073753Y0104918D01*
X0072053Y0104918D01*
X0069365Y0102231D01*
X0069365Y0100531D01*
X0073753Y0100531D01*
X0073753Y0100131D01*
X0069365Y0100131D01*
X0069365Y0098431D01*
X0072053Y0095743D01*
X0073753Y0095743D01*
X0073753Y0100131D01*
X0074153Y0100131D01*
X0074153Y0100531D01*
X0078540Y0100531D01*
X0078540Y0102231D01*
X0075853Y0104918D01*
X0075731Y0106039D02*
X0078245Y0108553D01*
X0078245Y0112109D01*
X0075731Y0114623D01*
X0072175Y0114623D01*
X0069661Y0112109D01*
X0069661Y0108553D01*
X0072175Y0106039D01*
X0075731Y0106039D01*
X0076194Y0106502D02*
X0081712Y0106502D01*
X0080113Y0108100D02*
X0077792Y0108100D01*
X0078245Y0109699D02*
X0079661Y0109699D01*
X0079661Y0111297D02*
X0078245Y0111297D01*
X0077458Y0112896D02*
X0080448Y0112896D01*
X0082046Y0114494D02*
X0075859Y0114494D01*
X0072046Y0114494D02*
X0065859Y0114494D01*
X0065731Y0114623D02*
X0062175Y0114623D01*
X0059661Y0112109D01*
X0059661Y0108553D01*
X0062175Y0106039D01*
X0065731Y0106039D01*
X0068245Y0108553D01*
X0068245Y0112109D01*
X0065731Y0114623D01*
X0067458Y0112896D02*
X0070448Y0112896D01*
X0069661Y0111297D02*
X0068245Y0111297D01*
X0068245Y0109699D02*
X0069661Y0109699D01*
X0070113Y0108100D02*
X0067792Y0108100D01*
X0066194Y0106502D02*
X0071712Y0106502D01*
X0072038Y0104903D02*
X0027800Y0104903D01*
X0027704Y0106502D02*
X0031712Y0106502D01*
X0032175Y0106039D02*
X0029661Y0108553D01*
X0029661Y0112109D01*
X0032175Y0114623D01*
X0035731Y0114623D01*
X0038245Y0112109D01*
X0038245Y0108553D01*
X0035731Y0106039D01*
X0032175Y0106039D01*
X0032175Y0104623D02*
X0029661Y0102109D01*
X0029661Y0098553D01*
X0032175Y0096039D01*
X0035731Y0096039D01*
X0038245Y0098553D01*
X0038245Y0102109D01*
X0035731Y0104623D01*
X0032175Y0104623D01*
X0030857Y0103305D02*
X0027642Y0103305D01*
X0027275Y0101706D02*
X0029661Y0101706D01*
X0029661Y0100108D02*
X0026710Y0100108D01*
X0025880Y0098509D02*
X0029704Y0098509D01*
X0031303Y0096911D02*
X0024708Y0096911D01*
X0023110Y0095312D02*
X0088064Y0095312D01*
X0088064Y0093714D02*
X0020599Y0093714D01*
X0008960Y0093714D02*
X0003768Y0093714D01*
X0003768Y0095312D02*
X0006449Y0095312D01*
X0004851Y0096911D02*
X0003768Y0096911D01*
X0003768Y0092115D02*
X0056396Y0092115D01*
X0056224Y0091943D02*
X0056224Y0090057D01*
X0056814Y0089467D01*
X0056814Y0075033D01*
X0056224Y0074443D01*
X0056224Y0072557D01*
X0057557Y0071224D01*
X0059443Y0071224D01*
X0060776Y0072557D01*
X0060776Y0074443D01*
X0060186Y0075033D01*
X0060186Y0089467D01*
X0060776Y0090057D01*
X0060776Y0091943D01*
X0059443Y0093276D01*
X0057557Y0093276D01*
X0056224Y0091943D01*
X0056224Y0090517D02*
X0049703Y0090517D01*
X0050776Y0088918D02*
X0056814Y0088918D01*
X0056814Y0087320D02*
X0050539Y0087320D01*
X0050186Y0085721D02*
X0056814Y0085721D01*
X0056814Y0084123D02*
X0050186Y0084123D01*
X0050186Y0082524D02*
X0056814Y0082524D01*
X0056814Y0080926D02*
X0050186Y0080926D01*
X0050186Y0079327D02*
X0056814Y0079327D01*
X0056814Y0077729D02*
X0050186Y0077729D01*
X0050186Y0076130D02*
X0056814Y0076130D01*
X0056312Y0074532D02*
X0050186Y0074532D01*
X0051451Y0072933D02*
X0056224Y0072933D01*
X0057446Y0071334D02*
X0053050Y0071334D01*
X0055483Y0069736D02*
X0086814Y0069736D01*
X0086814Y0071334D02*
X0069554Y0071334D01*
X0069443Y0071224D02*
X0070776Y0072557D01*
X0070776Y0074443D01*
X0070186Y0075033D01*
X0070186Y0084467D01*
X0070776Y0085057D01*
X0070776Y0086943D01*
X0069443Y0088276D01*
X0067557Y0088276D01*
X0066224Y0086943D01*
X0066224Y0085057D01*
X0066814Y0084467D01*
X0066814Y0075033D01*
X0066224Y0074443D01*
X0066224Y0072557D01*
X0067557Y0071224D01*
X0069443Y0071224D01*
X0067446Y0071334D02*
X0059554Y0071334D01*
X0060776Y0072933D02*
X0066224Y0072933D01*
X0066312Y0074532D02*
X0060688Y0074532D01*
X0060186Y0076130D02*
X0066814Y0076130D01*
X0066814Y0077729D02*
X0060186Y0077729D01*
X0060186Y0079327D02*
X0066814Y0079327D01*
X0066814Y0080926D02*
X0060186Y0080926D01*
X0060186Y0082524D02*
X0066814Y0082524D01*
X0066814Y0084123D02*
X0060186Y0084123D01*
X0060186Y0085721D02*
X0066224Y0085721D01*
X0066600Y0087320D02*
X0060186Y0087320D01*
X0060186Y0088918D02*
X0088064Y0088918D01*
X0088064Y0087320D02*
X0070400Y0087320D01*
X0070776Y0085721D02*
X0088064Y0085721D01*
X0088064Y0084123D02*
X0070186Y0084123D01*
X0070186Y0082524D02*
X0088064Y0082524D01*
X0088064Y0080926D02*
X0070186Y0080926D01*
X0070186Y0079327D02*
X0088064Y0079327D01*
X0088064Y0077729D02*
X0070186Y0077729D01*
X0070186Y0076130D02*
X0088064Y0076130D01*
X0086312Y0074532D02*
X0070688Y0074532D01*
X0070776Y0072933D02*
X0086224Y0072933D01*
X0086814Y0068137D02*
X0055776Y0068137D01*
X0055186Y0066539D02*
X0086814Y0066539D01*
X0086814Y0064940D02*
X0055186Y0064940D01*
X0055186Y0063342D02*
X0086814Y0063342D01*
X0086814Y0061743D02*
X0055186Y0061743D01*
X0055186Y0060145D02*
X0086814Y0060145D01*
X0086814Y0058546D02*
X0055186Y0058546D01*
X0055186Y0056948D02*
X0086814Y0056948D01*
X0086814Y0055349D02*
X0055186Y0055349D01*
X0055186Y0053751D02*
X0086814Y0053751D01*
X0116000Y0042561D02*
X0116000Y0042561D01*
X0124216Y0028175D02*
X0125816Y0028175D01*
X0125816Y0026576D02*
X0124216Y0026576D01*
X0124216Y0024978D02*
X0125816Y0024978D01*
X0125816Y0023379D02*
X0124216Y0023379D01*
X0124216Y0021781D02*
X0125816Y0021781D01*
X0125816Y0016985D02*
X0124216Y0016985D01*
X0124216Y0015387D02*
X0125816Y0015387D01*
X0125816Y0013788D02*
X0124216Y0013788D01*
X0124216Y0012190D02*
X0125816Y0012190D01*
X0137250Y0040963D02*
X0137250Y0040963D01*
X0137250Y0042561D02*
X0137250Y0042561D01*
X0088064Y0090517D02*
X0060776Y0090517D01*
X0060604Y0092115D02*
X0088064Y0092115D01*
X0088064Y0096911D02*
X0086603Y0096911D01*
X0088201Y0098509D02*
X0088625Y0098509D01*
X0088245Y0100108D02*
X0089661Y0100108D01*
X0089661Y0101706D02*
X0088245Y0101706D01*
X0089311Y0103305D02*
X0090857Y0103305D01*
X0080857Y0103305D02*
X0077466Y0103305D01*
X0074153Y0103305D02*
X0073753Y0103305D01*
X0073753Y0104903D02*
X0074153Y0104903D01*
X0070439Y0103305D02*
X0067049Y0103305D01*
X0068245Y0102109D02*
X0065731Y0104623D01*
X0062175Y0104623D01*
X0059661Y0102109D01*
X0059661Y0098553D01*
X0062175Y0096039D01*
X0065731Y0096039D01*
X0068245Y0098553D01*
X0068245Y0102109D01*
X0068245Y0101706D02*
X0069365Y0101706D01*
X0069365Y0100108D02*
X0068245Y0100108D01*
X0068201Y0098509D02*
X0069365Y0098509D01*
X0070885Y0096911D02*
X0066603Y0096911D01*
X0061303Y0096911D02*
X0056603Y0096911D01*
X0055731Y0096039D02*
X0058245Y0098553D01*
X0058245Y0102109D01*
X0055731Y0104623D01*
X0052175Y0104623D01*
X0049661Y0102109D01*
X0049661Y0098553D01*
X0052175Y0096039D01*
X0055731Y0096039D01*
X0058201Y0098509D02*
X0059704Y0098509D01*
X0059661Y0100108D02*
X0058245Y0100108D01*
X0058245Y0101706D02*
X0059661Y0101706D01*
X0060857Y0103305D02*
X0057049Y0103305D01*
X0055853Y0105743D02*
X0054153Y0105743D01*
X0054153Y0110131D01*
X0054153Y0110531D01*
X0053753Y0110531D01*
X0053753Y0114918D01*
X0052053Y0114918D01*
X0049365Y0112231D01*
X0049365Y0110531D01*
X0053753Y0110531D01*
X0053753Y0110131D01*
X0049365Y0110131D01*
X0049365Y0108431D01*
X0052053Y0105743D01*
X0053753Y0105743D01*
X0053753Y0110131D01*
X0054153Y0110131D01*
X0058540Y0110131D01*
X0058540Y0108431D01*
X0055853Y0105743D01*
X0056611Y0106502D02*
X0061712Y0106502D01*
X0060113Y0108100D02*
X0058210Y0108100D01*
X0058540Y0109699D02*
X0059661Y0109699D01*
X0058540Y0110531D02*
X0058540Y0112231D01*
X0055853Y0114918D01*
X0054153Y0114918D01*
X0054153Y0110531D01*
X0058540Y0110531D01*
X0058540Y0111297D02*
X0059661Y0111297D01*
X0060448Y0112896D02*
X0057875Y0112896D01*
X0056277Y0114494D02*
X0062046Y0114494D01*
X0054153Y0114494D02*
X0053753Y0114494D01*
X0053753Y0112896D02*
X0054153Y0112896D01*
X0054153Y0111297D02*
X0053753Y0111297D01*
X0053753Y0109699D02*
X0054153Y0109699D01*
X0054153Y0108100D02*
X0053753Y0108100D01*
X0053753Y0106502D02*
X0054153Y0106502D01*
X0051294Y0106502D02*
X0046194Y0106502D01*
X0045731Y0106039D02*
X0048245Y0108553D01*
X0048245Y0112109D01*
X0045731Y0114623D01*
X0042175Y0114623D01*
X0039661Y0112109D01*
X0039661Y0108553D01*
X0042175Y0106039D01*
X0045731Y0106039D01*
X0045731Y0104623D02*
X0042175Y0104623D01*
X0039661Y0102109D01*
X0039661Y0098553D01*
X0042175Y0096039D01*
X0045731Y0096039D01*
X0048245Y0098553D01*
X0048245Y0102109D01*
X0045731Y0104623D01*
X0047049Y0103305D02*
X0050857Y0103305D01*
X0049661Y0101706D02*
X0048245Y0101706D01*
X0048245Y0100108D02*
X0049661Y0100108D01*
X0049704Y0098509D02*
X0048201Y0098509D01*
X0046603Y0096911D02*
X0051303Y0096911D01*
X0047297Y0090517D02*
X0039703Y0090517D01*
X0039443Y0090776D02*
X0040776Y0089443D01*
X0040776Y0087557D01*
X0040186Y0086967D01*
X0040186Y0075033D01*
X0040776Y0074443D01*
X0040776Y0072557D01*
X0039443Y0071224D01*
X0037557Y0071224D01*
X0036224Y0072557D01*
X0036224Y0074443D01*
X0036814Y0075033D01*
X0036814Y0086967D01*
X0036224Y0087557D01*
X0036224Y0089443D01*
X0037557Y0090776D01*
X0039443Y0090776D01*
X0037297Y0090517D02*
X0003768Y0090517D01*
X0003768Y0088918D02*
X0036224Y0088918D01*
X0036461Y0087320D02*
X0003768Y0087320D01*
X0003768Y0085721D02*
X0036814Y0085721D01*
X0036814Y0084123D02*
X0003768Y0084123D01*
X0003768Y0082524D02*
X0036814Y0082524D01*
X0036814Y0080926D02*
X0003768Y0080926D01*
X0003768Y0079327D02*
X0036814Y0079327D01*
X0036814Y0077729D02*
X0003768Y0077729D01*
X0003768Y0076130D02*
X0036814Y0076130D01*
X0036312Y0074532D02*
X0003768Y0074532D01*
X0003768Y0072933D02*
X0036224Y0072933D01*
X0037446Y0071334D02*
X0003768Y0071334D01*
X0003768Y0069736D02*
X0049880Y0069736D01*
X0051224Y0068137D02*
X0003768Y0068137D01*
X0003768Y0066539D02*
X0051814Y0066539D01*
X0051814Y0064940D02*
X0003768Y0064940D01*
X0003768Y0063342D02*
X0051814Y0063342D01*
X0051814Y0061743D02*
X0003768Y0061743D01*
X0003768Y0060145D02*
X0051814Y0060145D01*
X0051814Y0058546D02*
X0003768Y0058546D01*
X0003768Y0056948D02*
X0051814Y0056948D01*
X0051814Y0055349D02*
X0003768Y0055349D01*
X0003768Y0053751D02*
X0051814Y0053751D01*
X0051814Y0052152D02*
X0003768Y0052152D01*
X0003768Y0050554D02*
X0051814Y0050554D01*
X0051814Y0048955D02*
X0003768Y0048955D01*
X0003768Y0047357D02*
X0051814Y0047357D01*
X0051814Y0045758D02*
X0003768Y0045758D01*
X0003768Y0044160D02*
X0051814Y0044160D01*
X0051814Y0042561D02*
X0003768Y0042561D01*
X0003768Y0040963D02*
X0051814Y0040963D01*
X0051224Y0039364D02*
X0003768Y0039364D01*
X0003768Y0037766D02*
X0051224Y0037766D01*
X0009280Y0026576D02*
X0003768Y0026576D01*
X0003768Y0024978D02*
X0006752Y0024978D01*
X0005010Y0023379D02*
X0003768Y0023379D01*
X0003768Y0021781D02*
X0003813Y0021781D01*
X0039554Y0071334D02*
X0048281Y0071334D01*
X0046814Y0072933D02*
X0040776Y0072933D01*
X0040688Y0074532D02*
X0046814Y0074532D01*
X0046814Y0076130D02*
X0040186Y0076130D01*
X0040186Y0077729D02*
X0046814Y0077729D01*
X0046814Y0079327D02*
X0040186Y0079327D01*
X0040186Y0080926D02*
X0046814Y0080926D01*
X0046814Y0082524D02*
X0040186Y0082524D01*
X0040186Y0084123D02*
X0046814Y0084123D01*
X0046814Y0085721D02*
X0040186Y0085721D01*
X0040539Y0087320D02*
X0046461Y0087320D01*
X0046224Y0088918D02*
X0040776Y0088918D01*
X0041303Y0096911D02*
X0036603Y0096911D01*
X0038201Y0098509D02*
X0039704Y0098509D01*
X0039661Y0100108D02*
X0038245Y0100108D01*
X0038245Y0101706D02*
X0039661Y0101706D01*
X0040857Y0103305D02*
X0037049Y0103305D01*
X0036194Y0106502D02*
X0041712Y0106502D01*
X0040113Y0108100D02*
X0037792Y0108100D01*
X0038245Y0109699D02*
X0039661Y0109699D01*
X0039661Y0111297D02*
X0038245Y0111297D01*
X0037458Y0112896D02*
X0040448Y0112896D01*
X0042046Y0114494D02*
X0035859Y0114494D01*
X0032046Y0114494D02*
X0023965Y0114494D01*
X0025324Y0112896D02*
X0030448Y0112896D01*
X0029661Y0111297D02*
X0026304Y0111297D01*
X0026998Y0109699D02*
X0029661Y0109699D01*
X0030113Y0108100D02*
X0027455Y0108100D01*
X0022143Y0116093D02*
X0087547Y0116093D01*
X0085949Y0114494D02*
X0085859Y0114494D01*
X0079661Y0101706D02*
X0078540Y0101706D01*
X0078540Y0100131D02*
X0074153Y0100131D01*
X0074153Y0095743D01*
X0075853Y0095743D01*
X0078540Y0098431D01*
X0078540Y0100131D01*
X0078540Y0100108D02*
X0079661Y0100108D01*
X0079704Y0098509D02*
X0078540Y0098509D01*
X0077020Y0096911D02*
X0081303Y0096911D01*
X0074153Y0096911D02*
X0073753Y0096911D01*
X0073753Y0098509D02*
X0074153Y0098509D01*
X0074153Y0100108D02*
X0073753Y0100108D01*
X0073753Y0101706D02*
X0074153Y0101706D01*
X0051629Y0114494D02*
X0045859Y0114494D01*
X0047458Y0112896D02*
X0050030Y0112896D01*
X0049365Y0111297D02*
X0048245Y0111297D01*
X0048245Y0109699D02*
X0049365Y0109699D01*
X0049696Y0108100D02*
X0047792Y0108100D01*
D13*
X0058500Y0091000D03*
X0048500Y0088500D03*
X0038500Y0088500D03*
X0038500Y0073500D03*
X0053500Y0068500D03*
X0058500Y0073500D03*
X0068500Y0073500D03*
X0068500Y0086000D03*
X0088500Y0073500D03*
X0109750Y0053500D03*
X0124750Y0049750D03*
X0127250Y0046000D03*
X0137250Y0042250D03*
X0143500Y0046000D03*
X0141000Y0051000D03*
X0146000Y0053500D03*
X0148500Y0051000D03*
X0116000Y0043500D03*
X0078500Y0051000D03*
X0053500Y0038500D03*
D14*
X0053500Y0068500D01*
X0048500Y0073500D01*
X0048500Y0088500D01*
X0038500Y0088500D02*
X0038500Y0073500D01*
X0058500Y0073500D02*
X0058500Y0091000D01*
X0068500Y0086000D02*
X0068500Y0073500D01*
X0088500Y0073500D02*
X0088500Y0049750D01*
X0089750Y0048500D01*
X0123500Y0048500D01*
X0124750Y0049750D01*
X0127250Y0046000D02*
X0081000Y0046000D01*
X0079750Y0047250D01*
X0079750Y0049750D01*
X0078500Y0051000D01*
X0108500Y0054750D02*
X0109750Y0053500D01*
X0108500Y0054750D02*
X0108500Y0103500D01*
X0106000Y0106000D01*
X0089622Y0106000D01*
X0083953Y0100331D01*
X0089750Y0097250D02*
X0089750Y0074750D01*
X0088500Y0073500D01*
X0118500Y0093500D02*
X0121000Y0091000D01*
X0138500Y0091000D01*
X0141000Y0088500D01*
X0141000Y0051000D01*
X0146000Y0053500D02*
X0146000Y0093500D01*
X0143500Y0096000D01*
X0136000Y0096000D01*
X0133953Y0098047D01*
X0133953Y0100331D01*
X0123953Y0100331D02*
X0123953Y0095547D01*
X0126000Y0093500D01*
X0141000Y0093500D01*
X0143500Y0091000D01*
X0143500Y0046000D01*
X0148500Y0051000D02*
X0148500Y0093500D01*
X0143953Y0098047D01*
X0143953Y0100331D01*
X0118500Y0093500D02*
X0118500Y0113500D01*
X0116000Y0116000D01*
X0089839Y0116000D01*
X0084169Y0110331D01*
X0083953Y0110331D01*
X0092831Y0100331D02*
X0089750Y0097250D01*
X0092831Y0100331D02*
X0093953Y0100331D01*
M02*
