G75*
%MOIN*%
%OFA0B0*%
%FSLAX25Y25*%
%IPPOS*%
%LPD*%
%AMOC8*
5,1,8,0,0,1.08239X$1,22.5*
%
%ADD10OC8,0.06000*%
%ADD11R,0.02598X0.00906*%
%ADD12R,0.02598X0.01378*%
%ADD13C,0.15000*%
%ADD14R,0.03150X0.03150*%
%ADD15R,0.03543X0.02756*%
%ADD16C,0.00787*%
%ADD17C,0.01969*%
%ADD18C,0.01600*%
D10*
X0033953Y0100331D03*
X0043953Y0100331D03*
X0053953Y0100331D03*
X0063953Y0100331D03*
X0073953Y0100331D03*
X0083953Y0100331D03*
X0093953Y0100331D03*
X0103953Y0100331D03*
X0113953Y0100331D03*
X0123953Y0100331D03*
X0133953Y0100331D03*
X0143953Y0100331D03*
X0153953Y0100331D03*
X0163953Y0100331D03*
X0173953Y0100331D03*
X0183953Y0100331D03*
X0193953Y0100331D03*
X0203953Y0100331D03*
X0213953Y0100331D03*
X0223953Y0100331D03*
X0223953Y0110331D03*
X0213953Y0110331D03*
X0203953Y0110331D03*
X0193953Y0110331D03*
X0183953Y0110331D03*
X0173953Y0110331D03*
X0163953Y0110331D03*
X0153953Y0110331D03*
X0143953Y0110331D03*
X0133953Y0110331D03*
X0123953Y0110331D03*
X0113953Y0110331D03*
X0103953Y0110331D03*
X0093953Y0110331D03*
X0083953Y0110331D03*
X0073953Y0110331D03*
X0063953Y0110331D03*
X0053953Y0110331D03*
X0043953Y0110331D03*
X0033953Y0110331D03*
D11*
X0120665Y0053087D03*
X0120665Y0051512D03*
X0120665Y0049937D03*
X0120665Y0048362D03*
X0120665Y0046787D03*
X0120665Y0045213D03*
X0120665Y0043638D03*
X0120665Y0042063D03*
X0120665Y0040488D03*
X0120665Y0038913D03*
X0131335Y0038913D03*
X0131335Y0040488D03*
X0131335Y0042063D03*
X0131335Y0043638D03*
X0131335Y0045213D03*
X0131335Y0046787D03*
X0131335Y0048362D03*
X0131335Y0049937D03*
X0131335Y0051512D03*
X0131335Y0053087D03*
D12*
X0131335Y0054957D03*
X0120665Y0054957D03*
X0120665Y0037043D03*
X0131335Y0037043D03*
D13*
X0125016Y0020213D03*
X0125016Y0071787D03*
D14*
X0103500Y0072752D03*
X0103500Y0079248D03*
X0093500Y0079248D03*
X0093500Y0072752D03*
D15*
X0083500Y0073441D03*
X0083500Y0078559D03*
X0073500Y0078559D03*
X0063500Y0078559D03*
X0063500Y0073441D03*
X0073500Y0073441D03*
X0053500Y0073441D03*
X0053500Y0078559D03*
X0043500Y0078559D03*
X0043500Y0073441D03*
X0063500Y0056059D03*
X0063500Y0050941D03*
X0073500Y0050941D03*
X0073500Y0056059D03*
X0093500Y0058559D03*
X0093500Y0053441D03*
X0103500Y0053441D03*
X0103500Y0058559D03*
D16*
X0103500Y0072752D01*
X0103500Y0079248D02*
X0103500Y0083500D01*
X0106000Y0086000D01*
X0192250Y0086000D01*
X0193953Y0087703D01*
X0193953Y0100331D01*
X0183953Y0100331D02*
X0183953Y0090203D01*
X0182250Y0088500D01*
X0094750Y0088500D01*
X0093500Y0087250D01*
X0093500Y0079248D01*
X0093500Y0072752D02*
X0093500Y0058559D01*
X0103500Y0053441D02*
X0103500Y0051000D01*
X0104563Y0049937D01*
X0116000Y0049937D01*
X0117575Y0051512D01*
X0120665Y0051512D01*
X0120665Y0053087D02*
X0110163Y0053087D01*
X0109750Y0053500D01*
X0116000Y0049937D02*
X0120665Y0049937D01*
X0120665Y0046787D02*
X0116787Y0046787D01*
X0116000Y0046000D01*
X0116787Y0045213D01*
X0116000Y0044425D01*
X0116000Y0043500D01*
X0116138Y0043638D01*
X0120665Y0043638D01*
X0120665Y0045213D02*
X0116787Y0045213D01*
X0116000Y0043500D02*
X0117437Y0042063D01*
X0120665Y0042063D01*
X0120665Y0040488D02*
X0046512Y0040488D01*
X0043500Y0043500D01*
X0043500Y0073441D01*
X0043441Y0073500D01*
X0038500Y0073500D01*
X0053500Y0073441D02*
X0053500Y0068500D01*
X0058500Y0073500D02*
X0063441Y0073500D01*
X0063500Y0073441D01*
X0063500Y0056059D01*
X0063500Y0050941D02*
X0073500Y0050941D01*
X0073559Y0051000D01*
X0078500Y0051000D01*
X0073500Y0056059D02*
X0073500Y0073441D01*
X0073441Y0073500D01*
X0068500Y0073500D01*
X0063559Y0073500D02*
X0063500Y0073441D01*
X0083500Y0073441D02*
X0083559Y0073500D01*
X0088500Y0073500D01*
X0068500Y0086000D02*
X0071000Y0091000D01*
X0146000Y0091000D01*
X0148500Y0093500D01*
X0148500Y0108500D01*
X0150331Y0110331D01*
X0153953Y0110331D01*
X0143953Y0110331D02*
X0140331Y0110331D01*
X0138500Y0108500D01*
X0138500Y0096000D01*
X0136000Y0093500D01*
X0061000Y0093500D01*
X0058500Y0091000D01*
X0053500Y0096000D02*
X0051000Y0096000D01*
X0048500Y0093500D01*
X0048500Y0088500D01*
X0038500Y0088500D02*
X0038500Y0093500D01*
X0041000Y0096000D01*
X0043500Y0096000D01*
X0043953Y0096453D01*
X0043953Y0100331D01*
X0053953Y0100331D02*
X0053953Y0096453D01*
X0053500Y0096000D01*
X0043953Y0110331D02*
X0033953Y0110331D01*
X0124750Y0052250D02*
X0124750Y0049750D01*
X0124750Y0052250D02*
X0125587Y0053087D01*
X0131335Y0053087D01*
X0131335Y0051512D02*
X0136512Y0051512D01*
X0138500Y0053500D01*
X0146000Y0053500D01*
X0148500Y0051000D02*
X0148500Y0048500D01*
X0148362Y0048362D01*
X0131335Y0048362D01*
X0131335Y0046787D02*
X0128037Y0046787D01*
X0127250Y0046000D01*
X0131335Y0045213D02*
X0142713Y0045213D01*
X0143500Y0046000D01*
X0139937Y0049937D02*
X0141000Y0051000D01*
X0139937Y0049937D02*
X0131335Y0049937D01*
X0131335Y0043638D02*
X0135862Y0043638D01*
X0137250Y0042250D01*
X0120665Y0038913D02*
X0053913Y0038913D01*
X0053500Y0038500D01*
D17*
X0053500Y0038500D03*
X0078500Y0051000D03*
X0053500Y0068500D03*
X0058500Y0073500D03*
X0068500Y0073500D03*
X0068500Y0086000D03*
X0058500Y0091000D03*
X0048500Y0088500D03*
X0038500Y0088500D03*
X0038500Y0073500D03*
X0088500Y0073500D03*
X0109750Y0053500D03*
X0124750Y0049750D03*
X0127250Y0046000D03*
X0137250Y0042250D03*
X0143500Y0046000D03*
X0141000Y0051000D03*
X0146000Y0053500D03*
X0148500Y0051000D03*
X0116000Y0043500D03*
D18*
X0021812Y0003837D02*
X0021721Y0003768D01*
X0205724Y0003768D01*
X0205724Y0091551D01*
X0253397Y0091551D01*
X0253618Y0091643D01*
X0253940Y0091965D01*
X0254115Y0092386D01*
X0254137Y0092614D01*
X0254137Y0098389D01*
X0254069Y0098298D01*
X0253873Y0097939D01*
X0253780Y0097912D01*
X0253246Y0097199D01*
X0253246Y0097102D01*
X0252957Y0096812D01*
X0252711Y0096485D01*
X0252615Y0096471D01*
X0251986Y0095841D01*
X0251972Y0095745D01*
X0251644Y0095500D01*
X0251355Y0095211D01*
X0251258Y0095211D01*
X0250545Y0094677D01*
X0250518Y0094584D01*
X0250158Y0094388D01*
X0249831Y0094143D01*
X0249735Y0094157D01*
X0248953Y0093730D01*
X0248913Y0093641D01*
X0248530Y0093498D01*
X0248171Y0093302D01*
X0248077Y0093330D01*
X0247243Y0093019D01*
X0247190Y0092937D01*
X0246791Y0092850D01*
X0246407Y0092707D01*
X0246319Y0092747D01*
X0245449Y0092558D01*
X0245385Y0092485D01*
X0244977Y0092455D01*
X0244577Y0092368D01*
X0244496Y0092421D01*
X0243607Y0092357D01*
X0243534Y0092294D01*
X0243126Y0092323D01*
X0242718Y0092294D01*
X0242645Y0092357D01*
X0241756Y0092421D01*
X0241675Y0092368D01*
X0241275Y0092455D01*
X0240867Y0092485D01*
X0240803Y0092558D01*
X0239933Y0092747D01*
X0239845Y0092707D01*
X0239461Y0092850D01*
X0239062Y0092937D01*
X0239009Y0093019D01*
X0238175Y0093330D01*
X0238081Y0093302D01*
X0237722Y0093498D01*
X0237339Y0093641D01*
X0237299Y0093730D01*
X0236517Y0094157D01*
X0236421Y0094143D01*
X0236093Y0094388D01*
X0235734Y0094584D01*
X0235707Y0094677D01*
X0234994Y0095211D01*
X0234897Y0095211D01*
X0234608Y0095500D01*
X0234280Y0095745D01*
X0234266Y0095841D01*
X0233637Y0096471D01*
X0233541Y0096485D01*
X0233295Y0096812D01*
X0233006Y0097102D01*
X0233006Y0097199D01*
X0232472Y0097912D01*
X0232379Y0097939D01*
X0232183Y0098298D01*
X0231938Y0098626D01*
X0231952Y0098722D01*
X0231525Y0099503D01*
X0231437Y0099544D01*
X0231294Y0099927D01*
X0231098Y0100286D01*
X0231125Y0100379D01*
X0230814Y0101214D01*
X0230732Y0101266D01*
X0230645Y0101666D01*
X0230502Y0102049D01*
X0230543Y0102138D01*
X0230353Y0103008D01*
X0230280Y0103071D01*
X0230251Y0103480D01*
X0230164Y0103879D01*
X0230216Y0103961D01*
X0230153Y0104849D01*
X0230089Y0104923D01*
X0230118Y0105331D01*
X0230089Y0105739D01*
X0230153Y0105812D01*
X0230216Y0106700D01*
X0230164Y0106782D01*
X0230251Y0107182D01*
X0230280Y0107590D01*
X0230353Y0107654D01*
X0230543Y0108524D01*
X0230502Y0108612D01*
X0230645Y0108995D01*
X0230732Y0109395D01*
X0230814Y0109448D01*
X0231125Y0110282D01*
X0231098Y0110375D01*
X0231294Y0110734D01*
X0231437Y0111118D01*
X0231525Y0111158D01*
X0231952Y0111940D01*
X0231938Y0112036D01*
X0232183Y0112363D01*
X0232379Y0112722D01*
X0232472Y0112750D01*
X0233006Y0113463D01*
X0233006Y0113560D01*
X0233295Y0113849D01*
X0233541Y0114176D01*
X0233637Y0114190D01*
X0234266Y0114820D01*
X0234280Y0114916D01*
X0234608Y0115161D01*
X0234897Y0115451D01*
X0234994Y0115451D01*
X0235707Y0115984D01*
X0235734Y0116077D01*
X0236093Y0116274D01*
X0236185Y0116342D01*
X0021721Y0116342D01*
X0021812Y0116274D01*
X0022171Y0116077D01*
X0022198Y0115984D01*
X0022911Y0115451D01*
X0023009Y0115451D01*
X0023298Y0115161D01*
X0023625Y0114916D01*
X0023639Y0114820D01*
X0024269Y0114190D01*
X0024365Y0114176D01*
X0024610Y0113849D01*
X0024899Y0113560D01*
X0024899Y0113463D01*
X0025433Y0112750D01*
X0025526Y0112722D01*
X0025722Y0112363D01*
X0025967Y0112036D01*
X0025954Y0111940D01*
X0026380Y0111158D01*
X0026469Y0111118D01*
X0026612Y0110734D01*
X0026808Y0110375D01*
X0026780Y0110282D01*
X0027092Y0109448D01*
X0027173Y0109395D01*
X0027260Y0108995D01*
X0027403Y0108612D01*
X0027363Y0108524D01*
X0027552Y0107654D01*
X0027626Y0107590D01*
X0027655Y0107182D01*
X0027742Y0106782D01*
X0027689Y0106700D01*
X0027753Y0105812D01*
X0027816Y0105739D01*
X0027787Y0105331D01*
X0027816Y0104923D01*
X0027753Y0104849D01*
X0027689Y0103961D01*
X0027742Y0103879D01*
X0027655Y0103480D01*
X0027626Y0103071D01*
X0027552Y0103008D01*
X0027363Y0102138D01*
X0027403Y0102049D01*
X0027260Y0101666D01*
X0027173Y0101266D01*
X0027092Y0101214D01*
X0026780Y0100379D01*
X0026808Y0100286D01*
X0026612Y0099927D01*
X0026469Y0099544D01*
X0026380Y0099503D01*
X0025954Y0098722D01*
X0025967Y0098626D01*
X0025722Y0098298D01*
X0025526Y0097939D01*
X0025433Y0097912D01*
X0024899Y0097199D01*
X0024899Y0097102D01*
X0024610Y0096812D01*
X0024365Y0096485D01*
X0024269Y0096471D01*
X0023639Y0095841D01*
X0023625Y0095745D01*
X0023298Y0095500D01*
X0023009Y0095211D01*
X0022911Y0095211D01*
X0022198Y0094677D01*
X0022171Y0094584D01*
X0021812Y0094388D01*
X0021485Y0094143D01*
X0021388Y0094157D01*
X0020607Y0093730D01*
X0020566Y0093641D01*
X0020183Y0093498D01*
X0019824Y0093302D01*
X0019731Y0093330D01*
X0018896Y0093019D01*
X0018844Y0092937D01*
X0018444Y0092850D01*
X0018061Y0092707D01*
X0017973Y0092747D01*
X0017102Y0092558D01*
X0017039Y0092485D01*
X0016631Y0092455D01*
X0016231Y0092368D01*
X0016149Y0092421D01*
X0015261Y0092357D01*
X0015188Y0092294D01*
X0014780Y0092323D01*
X0014371Y0092294D01*
X0014298Y0092357D01*
X0013410Y0092421D01*
X0013328Y0092368D01*
X0012928Y0092455D01*
X0012520Y0092485D01*
X0012457Y0092558D01*
X0011586Y0092747D01*
X0011498Y0092707D01*
X0011115Y0092850D01*
X0010715Y0092937D01*
X0010663Y0093019D01*
X0009828Y0093330D01*
X0009735Y0093302D01*
X0009376Y0093498D01*
X0008993Y0093641D01*
X0008952Y0093730D01*
X0008171Y0094157D01*
X0008074Y0094143D01*
X0007747Y0094388D01*
X0007388Y0094584D01*
X0007361Y0094677D01*
X0006648Y0095211D01*
X0006551Y0095211D01*
X0006261Y0095500D01*
X0005934Y0095745D01*
X0005920Y0095841D01*
X0005290Y0096471D01*
X0005194Y0096485D01*
X0004949Y0096812D01*
X0004660Y0097102D01*
X0004660Y0097199D01*
X0004126Y0097912D01*
X0004033Y0097939D01*
X0003837Y0098298D01*
X0003768Y0098389D01*
X0003768Y0021721D01*
X0003837Y0021812D01*
X0004033Y0022171D01*
X0004126Y0022198D01*
X0004660Y0022911D01*
X0004660Y0023009D01*
X0004949Y0023298D01*
X0005194Y0023625D01*
X0005290Y0023639D01*
X0005920Y0024269D01*
X0005934Y0024365D01*
X0006261Y0024610D01*
X0006551Y0024899D01*
X0006648Y0024899D01*
X0007361Y0025433D01*
X0007388Y0025526D01*
X0007747Y0025722D01*
X0008074Y0025967D01*
X0008171Y0025954D01*
X0008952Y0026380D01*
X0008993Y0026469D01*
X0009376Y0026612D01*
X0009735Y0026808D01*
X0009828Y0026780D01*
X0010663Y0027092D01*
X0010715Y0027173D01*
X0011115Y0027260D01*
X0011498Y0027403D01*
X0011586Y0027363D01*
X0012457Y0027552D01*
X0012520Y0027626D01*
X0012928Y0027655D01*
X0013328Y0027742D01*
X0013410Y0027689D01*
X0014298Y0027753D01*
X0014371Y0027816D01*
X0014779Y0027787D01*
X0015188Y0027816D01*
X0015261Y0027753D01*
X0016149Y0027689D01*
X0016231Y0027742D01*
X0016631Y0027655D01*
X0017039Y0027626D01*
X0017102Y0027552D01*
X0017973Y0027363D01*
X0018061Y0027403D01*
X0018444Y0027260D01*
X0018844Y0027173D01*
X0018896Y0027092D01*
X0019731Y0026780D01*
X0019824Y0026808D01*
X0020183Y0026612D01*
X0020566Y0026469D01*
X0020607Y0026380D01*
X0021388Y0025954D01*
X0021485Y0025967D01*
X0021812Y0025722D01*
X0022171Y0025526D01*
X0022198Y0025433D01*
X0022911Y0024899D01*
X0023009Y0024899D01*
X0023298Y0024610D01*
X0023625Y0024365D01*
X0023639Y0024269D01*
X0024269Y0023639D01*
X0024365Y0023625D01*
X0024610Y0023298D01*
X0024899Y0023009D01*
X0024899Y0022911D01*
X0025433Y0022198D01*
X0025526Y0022171D01*
X0025722Y0021812D01*
X0025967Y0021485D01*
X0025954Y0021388D01*
X0026380Y0020607D01*
X0026469Y0020566D01*
X0026612Y0020183D01*
X0026808Y0019824D01*
X0026780Y0019731D01*
X0027092Y0018896D01*
X0027173Y0018844D01*
X0027260Y0018444D01*
X0027403Y0018061D01*
X0027363Y0017973D01*
X0027552Y0017102D01*
X0027626Y0017039D01*
X0027655Y0016631D01*
X0027742Y0016231D01*
X0027689Y0016149D01*
X0027753Y0015261D01*
X0027816Y0015188D01*
X0027787Y0014780D01*
X0027816Y0014371D01*
X0027753Y0014298D01*
X0027689Y0013410D01*
X0027742Y0013328D01*
X0027655Y0012928D01*
X0027626Y0012520D01*
X0027552Y0012457D01*
X0027363Y0011586D01*
X0027403Y0011498D01*
X0027260Y0011115D01*
X0027173Y0010715D01*
X0027092Y0010663D01*
X0026780Y0009828D01*
X0026808Y0009735D01*
X0026612Y0009376D01*
X0026469Y0008993D01*
X0026380Y0008952D01*
X0025954Y0008171D01*
X0025967Y0008074D01*
X0025722Y0007747D01*
X0025526Y0007388D01*
X0025433Y0007361D01*
X0024899Y0006648D01*
X0024899Y0006551D01*
X0024610Y0006261D01*
X0024365Y0005934D01*
X0024269Y0005920D01*
X0023639Y0005290D01*
X0023625Y0005194D01*
X0023298Y0004949D01*
X0023009Y0004660D01*
X0022911Y0004660D01*
X0022198Y0004126D01*
X0022171Y0004033D01*
X0021812Y0003837D01*
X0022293Y0004197D02*
X0205724Y0004197D01*
X0205724Y0005796D02*
X0024144Y0005796D01*
X0025530Y0007394D02*
X0205724Y0007394D01*
X0205724Y0008993D02*
X0026469Y0008993D01*
X0027065Y0010591D02*
X0205724Y0010591D01*
X0205724Y0012190D02*
X0128621Y0012190D01*
X0129996Y0012759D02*
X0126765Y0011420D01*
X0123267Y0011420D01*
X0120035Y0012759D01*
X0117562Y0015232D01*
X0116224Y0018464D01*
X0116224Y0021961D01*
X0117562Y0025193D01*
X0120035Y0027666D01*
X0123267Y0029005D01*
X0126765Y0029005D01*
X0129996Y0027666D01*
X0132469Y0025193D01*
X0133808Y0021961D01*
X0133808Y0018464D01*
X0132469Y0015232D01*
X0129996Y0012759D01*
X0131025Y0013788D02*
X0205724Y0013788D01*
X0205724Y0015387D02*
X0132533Y0015387D01*
X0133195Y0016985D02*
X0205724Y0016985D01*
X0205724Y0018584D02*
X0133808Y0018584D01*
X0133808Y0020182D02*
X0205724Y0020182D01*
X0205724Y0021781D02*
X0133808Y0021781D01*
X0133221Y0023379D02*
X0205724Y0023379D01*
X0205724Y0024978D02*
X0132559Y0024978D01*
X0131086Y0026576D02*
X0205724Y0026576D01*
X0205724Y0028175D02*
X0128768Y0028175D01*
X0121263Y0028175D02*
X0003768Y0028175D01*
X0003768Y0029773D02*
X0205724Y0029773D01*
X0205724Y0031372D02*
X0003768Y0031372D01*
X0003768Y0032970D02*
X0205724Y0032970D01*
X0205724Y0034569D02*
X0003768Y0034569D01*
X0003768Y0036167D02*
X0118074Y0036167D01*
X0118074Y0035819D02*
X0118074Y0037228D01*
X0055447Y0037228D01*
X0054443Y0036224D01*
X0052557Y0036224D01*
X0051224Y0037557D01*
X0051224Y0038802D01*
X0045814Y0038802D01*
X0044826Y0039790D01*
X0041814Y0042802D01*
X0041814Y0070771D01*
X0041193Y0070771D01*
X0040436Y0071528D01*
X0040436Y0071814D01*
X0040033Y0071814D01*
X0039443Y0071224D01*
X0037557Y0071224D01*
X0036224Y0072557D01*
X0036224Y0074443D01*
X0037557Y0075776D01*
X0039443Y0075776D01*
X0040033Y0075186D01*
X0040436Y0075186D01*
X0040436Y0075354D01*
X0040905Y0075823D01*
X0040754Y0075911D01*
X0040458Y0076206D01*
X0040249Y0076568D01*
X0040141Y0076972D01*
X0040141Y0078559D01*
X0043500Y0078559D01*
X0043500Y0078559D01*
X0046859Y0078559D01*
X0046859Y0076972D01*
X0046751Y0076568D01*
X0046542Y0076206D01*
X0046246Y0075911D01*
X0046095Y0075823D01*
X0046564Y0075354D01*
X0046564Y0071528D01*
X0045807Y0070771D01*
X0045186Y0070771D01*
X0045186Y0044198D01*
X0047210Y0042174D01*
X0114107Y0042174D01*
X0113724Y0042557D01*
X0113724Y0044443D01*
X0114314Y0045033D01*
X0114314Y0045123D01*
X0114403Y0045213D01*
X0114314Y0045302D01*
X0114314Y0046698D01*
X0115302Y0047686D01*
X0116089Y0048473D01*
X0118074Y0048473D01*
X0118074Y0048547D01*
X0117887Y0048872D01*
X0117779Y0049275D01*
X0117779Y0049937D01*
X0118243Y0049937D01*
X0118243Y0049937D01*
X0117779Y0049937D01*
X0117779Y0050599D01*
X0117812Y0050724D01*
X0117779Y0050850D01*
X0117779Y0051401D01*
X0110870Y0051401D01*
X0110693Y0051224D01*
X0108807Y0051224D01*
X0107474Y0052557D01*
X0107474Y0054443D01*
X0108807Y0055776D01*
X0110693Y0055776D01*
X0111697Y0054772D01*
X0118074Y0054772D01*
X0118074Y0056181D01*
X0118831Y0056938D01*
X0122500Y0056938D01*
X0123257Y0056181D01*
X0123257Y0053141D01*
X0124052Y0053936D01*
X0124888Y0054772D01*
X0128743Y0054772D01*
X0128743Y0056181D01*
X0129500Y0056938D01*
X0133169Y0056938D01*
X0133926Y0056181D01*
X0133926Y0053198D01*
X0135814Y0053198D01*
X0136814Y0054198D01*
X0136814Y0054198D01*
X0137802Y0055186D01*
X0144467Y0055186D01*
X0145057Y0055776D01*
X0146943Y0055776D01*
X0148276Y0054443D01*
X0148276Y0053276D01*
X0149443Y0053276D01*
X0150776Y0051943D01*
X0150776Y0050057D01*
X0150186Y0049467D01*
X0150186Y0047802D01*
X0149198Y0046814D01*
X0149060Y0046676D01*
X0145776Y0046676D01*
X0145776Y0045057D01*
X0144443Y0043724D01*
X0143608Y0043724D01*
X0143411Y0043527D01*
X0139192Y0043527D01*
X0139526Y0043193D01*
X0139526Y0041307D01*
X0138193Y0039974D01*
X0136307Y0039974D01*
X0134974Y0041307D01*
X0134974Y0041952D01*
X0133926Y0041952D01*
X0133926Y0035819D01*
X0133169Y0035062D01*
X0129500Y0035062D01*
X0128743Y0035819D01*
X0128743Y0044274D01*
X0128193Y0043724D01*
X0126307Y0043724D01*
X0124974Y0045057D01*
X0124974Y0046943D01*
X0125504Y0047474D01*
X0123807Y0047474D01*
X0123257Y0048024D01*
X0123257Y0035819D01*
X0122500Y0035062D01*
X0118831Y0035062D01*
X0118074Y0035819D01*
X0123257Y0036167D02*
X0128743Y0036167D01*
X0128743Y0037766D02*
X0123257Y0037766D01*
X0123257Y0039364D02*
X0128743Y0039364D01*
X0128743Y0040963D02*
X0123257Y0040963D01*
X0123257Y0042561D02*
X0128743Y0042561D01*
X0128743Y0044160D02*
X0128629Y0044160D01*
X0125871Y0044160D02*
X0123257Y0044160D01*
X0123257Y0045758D02*
X0124974Y0045758D01*
X0125388Y0047357D02*
X0123257Y0047357D01*
X0120665Y0050107D02*
X0120665Y0051342D01*
X0120665Y0051342D01*
X0120665Y0050107D01*
X0120665Y0050107D01*
X0120665Y0050554D02*
X0120665Y0050554D01*
X0117779Y0050554D02*
X0105773Y0050554D01*
X0105884Y0050584D02*
X0106246Y0050793D01*
X0106542Y0051088D01*
X0106751Y0051450D01*
X0106859Y0051854D01*
X0106859Y0053441D01*
X0106859Y0055028D01*
X0106751Y0055432D01*
X0106542Y0055794D01*
X0106246Y0056089D01*
X0106095Y0056177D01*
X0106564Y0056646D01*
X0106564Y0060472D01*
X0105807Y0061229D01*
X0105186Y0061229D01*
X0105186Y0069885D01*
X0105610Y0069885D01*
X0106367Y0070642D01*
X0106367Y0074862D01*
X0105610Y0075619D01*
X0101390Y0075619D01*
X0100633Y0074862D01*
X0100633Y0070642D01*
X0101390Y0069885D01*
X0101814Y0069885D01*
X0101814Y0061229D01*
X0101193Y0061229D01*
X0100436Y0060472D01*
X0100436Y0056646D01*
X0100905Y0056177D01*
X0100754Y0056089D01*
X0100458Y0055794D01*
X0100249Y0055432D01*
X0100141Y0055028D01*
X0100141Y0053441D01*
X0103500Y0053441D01*
X0106859Y0053441D01*
X0103500Y0053441D01*
X0103500Y0053441D01*
X0103500Y0053441D01*
X0100141Y0053441D01*
X0100141Y0051854D01*
X0100249Y0051450D01*
X0100458Y0051088D01*
X0100754Y0050793D01*
X0101116Y0050584D01*
X0101519Y0050476D01*
X0103500Y0050476D01*
X0103500Y0053441D01*
X0103500Y0050476D01*
X0105481Y0050476D01*
X0105884Y0050584D01*
X0106859Y0052152D02*
X0107878Y0052152D01*
X0107474Y0053751D02*
X0106859Y0053751D01*
X0106773Y0055349D02*
X0108380Y0055349D01*
X0106564Y0056948D02*
X0205724Y0056948D01*
X0205724Y0058546D02*
X0106564Y0058546D01*
X0106564Y0060145D02*
X0205724Y0060145D01*
X0205724Y0061743D02*
X0105186Y0061743D01*
X0105186Y0063342D02*
X0122430Y0063342D01*
X0123267Y0062995D02*
X0126765Y0062995D01*
X0129996Y0064334D01*
X0132469Y0066807D01*
X0133808Y0070039D01*
X0133808Y0073536D01*
X0132469Y0076768D01*
X0129996Y0079241D01*
X0126765Y0080580D01*
X0123267Y0080580D01*
X0120035Y0079241D01*
X0117562Y0076768D01*
X0116224Y0073536D01*
X0116224Y0070039D01*
X0117562Y0066807D01*
X0120035Y0064334D01*
X0123267Y0062995D01*
X0119429Y0064940D02*
X0105186Y0064940D01*
X0105186Y0066539D02*
X0117830Y0066539D01*
X0117011Y0068137D02*
X0105186Y0068137D01*
X0105186Y0069736D02*
X0116349Y0069736D01*
X0116224Y0071334D02*
X0106367Y0071334D01*
X0106367Y0072933D02*
X0116224Y0072933D01*
X0116636Y0074532D02*
X0106367Y0074532D01*
X0105610Y0076381D02*
X0106367Y0077138D01*
X0106367Y0081358D01*
X0105610Y0082115D01*
X0105186Y0082115D01*
X0105186Y0082802D01*
X0106698Y0084314D01*
X0192948Y0084314D01*
X0194651Y0086017D01*
X0195639Y0087004D01*
X0195639Y0096039D01*
X0195731Y0096039D01*
X0198245Y0098553D01*
X0198245Y0102109D01*
X0195731Y0104623D01*
X0192175Y0104623D01*
X0189661Y0102109D01*
X0189661Y0098553D01*
X0192175Y0096039D01*
X0192267Y0096039D01*
X0192267Y0088401D01*
X0191552Y0087686D01*
X0183820Y0087686D01*
X0183936Y0087802D01*
X0185639Y0089504D01*
X0185639Y0096039D01*
X0185731Y0096039D01*
X0188245Y0098553D01*
X0188245Y0102109D01*
X0185731Y0104623D01*
X0182175Y0104623D01*
X0179661Y0102109D01*
X0179661Y0098553D01*
X0182175Y0096039D01*
X0182267Y0096039D01*
X0182267Y0090901D01*
X0181552Y0090186D01*
X0147570Y0090186D01*
X0147686Y0090302D01*
X0150186Y0092802D01*
X0150186Y0098028D01*
X0152175Y0096039D01*
X0155731Y0096039D01*
X0158245Y0098553D01*
X0158245Y0102109D01*
X0155731Y0104623D01*
X0152175Y0104623D01*
X0150186Y0102634D01*
X0150186Y0107802D01*
X0150299Y0107915D01*
X0152175Y0106039D01*
X0155731Y0106039D01*
X0158245Y0108553D01*
X0158245Y0112109D01*
X0155731Y0114623D01*
X0152175Y0114623D01*
X0149661Y0112109D01*
X0149661Y0112017D01*
X0149632Y0112017D01*
X0148245Y0110629D01*
X0148245Y0112109D01*
X0145731Y0114623D01*
X0142175Y0114623D01*
X0139661Y0112109D01*
X0139661Y0112017D01*
X0139632Y0112017D01*
X0138245Y0110629D01*
X0138245Y0112109D01*
X0135731Y0114623D01*
X0132175Y0114623D01*
X0129661Y0112109D01*
X0129661Y0108553D01*
X0132175Y0106039D01*
X0135731Y0106039D01*
X0136814Y0107122D01*
X0136814Y0103539D01*
X0135731Y0104623D01*
X0132175Y0104623D01*
X0129661Y0102109D01*
X0129661Y0098553D01*
X0132175Y0096039D01*
X0135731Y0096039D01*
X0136814Y0097122D01*
X0136814Y0096698D01*
X0135302Y0095186D01*
X0060302Y0095186D01*
X0058392Y0093276D01*
X0057557Y0093276D01*
X0056224Y0091943D01*
X0056224Y0090057D01*
X0057557Y0088724D01*
X0059443Y0088724D01*
X0060776Y0090057D01*
X0060776Y0090892D01*
X0061698Y0091814D01*
X0069430Y0091814D01*
X0069314Y0091698D01*
X0069314Y0091398D01*
X0067753Y0088276D01*
X0067557Y0088276D01*
X0066224Y0086943D01*
X0066224Y0085057D01*
X0067557Y0083724D01*
X0069443Y0083724D01*
X0070776Y0085057D01*
X0070776Y0086783D01*
X0072042Y0089314D01*
X0093180Y0089314D01*
X0092802Y0088936D01*
X0091814Y0087948D01*
X0091814Y0082115D01*
X0091390Y0082115D01*
X0090633Y0081358D01*
X0090633Y0077138D01*
X0091390Y0076381D01*
X0095610Y0076381D01*
X0096367Y0077138D01*
X0096367Y0081358D01*
X0095610Y0082115D01*
X0095186Y0082115D01*
X0095186Y0086552D01*
X0095448Y0086814D01*
X0104430Y0086814D01*
X0104314Y0086698D01*
X0101814Y0084198D01*
X0101814Y0082115D01*
X0101390Y0082115D01*
X0100633Y0081358D01*
X0100633Y0077138D01*
X0101390Y0076381D01*
X0105610Y0076381D01*
X0106367Y0077729D02*
X0118523Y0077729D01*
X0117298Y0076130D02*
X0086466Y0076130D01*
X0086542Y0076206D02*
X0086751Y0076568D01*
X0086859Y0076972D01*
X0086859Y0078559D01*
X0083500Y0078559D01*
X0083500Y0078559D01*
X0080141Y0078559D01*
X0080141Y0076972D01*
X0080249Y0076568D01*
X0080458Y0076206D01*
X0080754Y0075911D01*
X0080905Y0075823D01*
X0080436Y0075354D01*
X0080436Y0071528D01*
X0081193Y0070771D01*
X0085807Y0070771D01*
X0086564Y0071528D01*
X0086564Y0071814D01*
X0086967Y0071814D01*
X0087557Y0071224D01*
X0089443Y0071224D01*
X0090633Y0072414D01*
X0090633Y0070642D01*
X0091390Y0069885D01*
X0091814Y0069885D01*
X0091814Y0061229D01*
X0091193Y0061229D01*
X0090436Y0060472D01*
X0090436Y0056646D01*
X0090905Y0056177D01*
X0090754Y0056089D01*
X0090458Y0055794D01*
X0090249Y0055432D01*
X0090141Y0055028D01*
X0090141Y0053441D01*
X0093500Y0053441D01*
X0096859Y0053441D01*
X0096859Y0055028D01*
X0096751Y0055432D01*
X0096542Y0055794D01*
X0096246Y0056089D01*
X0096095Y0056177D01*
X0096564Y0056646D01*
X0096564Y0060472D01*
X0095807Y0061229D01*
X0095186Y0061229D01*
X0095186Y0069885D01*
X0095610Y0069885D01*
X0096367Y0070642D01*
X0096367Y0074862D01*
X0095610Y0075619D01*
X0091390Y0075619D01*
X0090633Y0074862D01*
X0090633Y0074586D01*
X0089443Y0075776D01*
X0087557Y0075776D01*
X0086967Y0075186D01*
X0086564Y0075186D01*
X0086564Y0075354D01*
X0086095Y0075823D01*
X0086246Y0075911D01*
X0086542Y0076206D01*
X0086859Y0077729D02*
X0090633Y0077729D01*
X0090633Y0079327D02*
X0086859Y0079327D01*
X0086859Y0078559D02*
X0086859Y0080146D01*
X0086751Y0080550D01*
X0086542Y0080912D01*
X0086246Y0081207D01*
X0085884Y0081416D01*
X0085481Y0081524D01*
X0083500Y0081524D01*
X0083500Y0078559D01*
X0083500Y0078559D01*
X0086859Y0078559D01*
X0086528Y0080926D02*
X0090633Y0080926D01*
X0091814Y0082524D02*
X0003768Y0082524D01*
X0003768Y0080926D02*
X0040472Y0080926D01*
X0040458Y0080912D02*
X0040249Y0080550D01*
X0040141Y0080146D01*
X0040141Y0078559D01*
X0043500Y0078559D01*
X0043500Y0078559D01*
X0046859Y0078559D01*
X0046859Y0080146D01*
X0046751Y0080550D01*
X0046542Y0080912D01*
X0046246Y0081207D01*
X0045884Y0081416D01*
X0045481Y0081524D01*
X0043500Y0081524D01*
X0043500Y0078559D01*
X0043500Y0078559D01*
X0043500Y0081524D01*
X0041519Y0081524D01*
X0041116Y0081416D01*
X0040754Y0081207D01*
X0040458Y0080912D01*
X0040141Y0079327D02*
X0003768Y0079327D01*
X0003768Y0077729D02*
X0040141Y0077729D01*
X0040534Y0076130D02*
X0003768Y0076130D01*
X0003768Y0074532D02*
X0036312Y0074532D01*
X0036224Y0072933D02*
X0003768Y0072933D01*
X0003768Y0071334D02*
X0037446Y0071334D01*
X0039554Y0071334D02*
X0040629Y0071334D01*
X0041814Y0069736D02*
X0003768Y0069736D01*
X0003768Y0068137D02*
X0041814Y0068137D01*
X0041814Y0066539D02*
X0003768Y0066539D01*
X0003768Y0064940D02*
X0041814Y0064940D01*
X0041814Y0063342D02*
X0003768Y0063342D01*
X0003768Y0061743D02*
X0041814Y0061743D01*
X0041814Y0060145D02*
X0003768Y0060145D01*
X0003768Y0058546D02*
X0041814Y0058546D01*
X0041814Y0056948D02*
X0003768Y0056948D01*
X0003768Y0055349D02*
X0041814Y0055349D01*
X0041814Y0053751D02*
X0003768Y0053751D01*
X0003768Y0052152D02*
X0041814Y0052152D01*
X0041814Y0050554D02*
X0003768Y0050554D01*
X0003768Y0048955D02*
X0041814Y0048955D01*
X0041814Y0047357D02*
X0003768Y0047357D01*
X0003768Y0045758D02*
X0041814Y0045758D01*
X0041814Y0044160D02*
X0003768Y0044160D01*
X0003768Y0042561D02*
X0042055Y0042561D01*
X0043653Y0040963D02*
X0003768Y0040963D01*
X0003768Y0039364D02*
X0045252Y0039364D01*
X0046823Y0042561D02*
X0113724Y0042561D01*
X0113724Y0044160D02*
X0045224Y0044160D01*
X0045186Y0045758D02*
X0114314Y0045758D01*
X0114973Y0047357D02*
X0045186Y0047357D01*
X0045186Y0048955D02*
X0060509Y0048955D01*
X0060436Y0049028D02*
X0061193Y0048271D01*
X0065807Y0048271D01*
X0066564Y0049028D01*
X0066564Y0049255D01*
X0070436Y0049255D01*
X0070436Y0049028D01*
X0071193Y0048271D01*
X0075807Y0048271D01*
X0076564Y0049028D01*
X0076564Y0049314D01*
X0076967Y0049314D01*
X0077557Y0048724D01*
X0079443Y0048724D01*
X0080776Y0050057D01*
X0080776Y0051943D01*
X0079443Y0053276D01*
X0077557Y0053276D01*
X0076967Y0052686D01*
X0076564Y0052686D01*
X0076564Y0052854D01*
X0075918Y0053500D01*
X0076564Y0054146D01*
X0076564Y0057972D01*
X0075807Y0058729D01*
X0075186Y0058729D01*
X0075186Y0070771D01*
X0075807Y0070771D01*
X0076564Y0071528D01*
X0076564Y0075354D01*
X0076095Y0075823D01*
X0076246Y0075911D01*
X0076542Y0076206D01*
X0076751Y0076568D01*
X0076859Y0076972D01*
X0076859Y0078559D01*
X0073500Y0078559D01*
X0073500Y0078559D01*
X0070141Y0078559D01*
X0070141Y0076972D01*
X0070249Y0076568D01*
X0070458Y0076206D01*
X0070754Y0075911D01*
X0070905Y0075823D01*
X0070436Y0075354D01*
X0070436Y0075186D01*
X0070033Y0075186D01*
X0069443Y0075776D01*
X0067557Y0075776D01*
X0066564Y0074783D01*
X0066564Y0075354D01*
X0066095Y0075823D01*
X0066246Y0075911D01*
X0066542Y0076206D01*
X0066751Y0076568D01*
X0066859Y0076972D01*
X0066859Y0078559D01*
X0063500Y0078559D01*
X0063500Y0078559D01*
X0060141Y0078559D01*
X0060141Y0076972D01*
X0060249Y0076568D01*
X0060458Y0076206D01*
X0060754Y0075911D01*
X0060905Y0075823D01*
X0060436Y0075354D01*
X0060436Y0075186D01*
X0060033Y0075186D01*
X0059443Y0075776D01*
X0057557Y0075776D01*
X0056564Y0074783D01*
X0056564Y0075354D01*
X0056095Y0075823D01*
X0056246Y0075911D01*
X0056542Y0076206D01*
X0056751Y0076568D01*
X0056859Y0076972D01*
X0056859Y0078559D01*
X0053500Y0078559D01*
X0053500Y0078559D01*
X0050141Y0078559D01*
X0050141Y0076972D01*
X0050249Y0076568D01*
X0050458Y0076206D01*
X0050754Y0075911D01*
X0050905Y0075823D01*
X0050436Y0075354D01*
X0050436Y0071528D01*
X0051193Y0070771D01*
X0051814Y0070771D01*
X0051814Y0070033D01*
X0051224Y0069443D01*
X0051224Y0067557D01*
X0052557Y0066224D01*
X0054443Y0066224D01*
X0055776Y0067557D01*
X0055776Y0069443D01*
X0055186Y0070033D01*
X0055186Y0070771D01*
X0055807Y0070771D01*
X0056564Y0071528D01*
X0056564Y0072217D01*
X0057557Y0071224D01*
X0059443Y0071224D01*
X0060033Y0071814D01*
X0060436Y0071814D01*
X0060436Y0071528D01*
X0061193Y0070771D01*
X0061814Y0070771D01*
X0061814Y0058729D01*
X0061193Y0058729D01*
X0060436Y0057972D01*
X0060436Y0054146D01*
X0061082Y0053500D01*
X0060436Y0052854D01*
X0060436Y0049028D01*
X0060436Y0050554D02*
X0045186Y0050554D01*
X0045186Y0052152D02*
X0060436Y0052152D01*
X0060831Y0053751D02*
X0045186Y0053751D01*
X0045186Y0055349D02*
X0060436Y0055349D01*
X0060436Y0056948D02*
X0045186Y0056948D01*
X0045186Y0058546D02*
X0061010Y0058546D01*
X0061814Y0060145D02*
X0045186Y0060145D01*
X0045186Y0061743D02*
X0061814Y0061743D01*
X0061814Y0063342D02*
X0045186Y0063342D01*
X0045186Y0064940D02*
X0061814Y0064940D01*
X0061814Y0066539D02*
X0054758Y0066539D01*
X0055776Y0068137D02*
X0061814Y0068137D01*
X0061814Y0069736D02*
X0055483Y0069736D01*
X0056370Y0071334D02*
X0057446Y0071334D01*
X0059554Y0071334D02*
X0060629Y0071334D01*
X0060534Y0076130D02*
X0056466Y0076130D01*
X0056859Y0077729D02*
X0060141Y0077729D01*
X0060141Y0078559D02*
X0063500Y0078559D01*
X0063500Y0078559D01*
X0066859Y0078559D01*
X0066859Y0080146D01*
X0066751Y0080550D01*
X0066542Y0080912D01*
X0066246Y0081207D01*
X0065884Y0081416D01*
X0065481Y0081524D01*
X0063500Y0081524D01*
X0063500Y0078559D01*
X0063500Y0078559D01*
X0063500Y0081524D01*
X0061519Y0081524D01*
X0061116Y0081416D01*
X0060754Y0081207D01*
X0060458Y0080912D01*
X0060249Y0080550D01*
X0060141Y0080146D01*
X0060141Y0078559D01*
X0060141Y0079327D02*
X0056859Y0079327D01*
X0056859Y0078559D02*
X0056859Y0080146D01*
X0056751Y0080550D01*
X0056542Y0080912D01*
X0056246Y0081207D01*
X0055884Y0081416D01*
X0055481Y0081524D01*
X0053500Y0081524D01*
X0053500Y0078559D01*
X0053500Y0078559D01*
X0056859Y0078559D01*
X0056528Y0080926D02*
X0060472Y0080926D01*
X0063500Y0080926D02*
X0063500Y0080926D01*
X0063500Y0079327D02*
X0063500Y0079327D01*
X0066859Y0079327D02*
X0070141Y0079327D01*
X0070141Y0078559D02*
X0073500Y0078559D01*
X0073500Y0078559D01*
X0076859Y0078559D01*
X0076859Y0080146D01*
X0076751Y0080550D01*
X0076542Y0080912D01*
X0076246Y0081207D01*
X0075884Y0081416D01*
X0075481Y0081524D01*
X0073500Y0081524D01*
X0073500Y0078559D01*
X0073500Y0078559D01*
X0073500Y0081524D01*
X0071519Y0081524D01*
X0071116Y0081416D01*
X0070754Y0081207D01*
X0070458Y0080912D01*
X0070249Y0080550D01*
X0070141Y0080146D01*
X0070141Y0078559D01*
X0070141Y0077729D02*
X0066859Y0077729D01*
X0066466Y0076130D02*
X0070534Y0076130D01*
X0073500Y0079327D02*
X0073500Y0079327D01*
X0073500Y0080926D02*
X0073500Y0080926D01*
X0070472Y0080926D02*
X0066528Y0080926D01*
X0067158Y0084123D02*
X0003768Y0084123D01*
X0003768Y0085721D02*
X0066224Y0085721D01*
X0066600Y0087320D02*
X0050539Y0087320D01*
X0050776Y0087557D02*
X0050776Y0089443D01*
X0050186Y0090033D01*
X0050186Y0092802D01*
X0051698Y0094314D01*
X0054198Y0094314D01*
X0055186Y0095302D01*
X0055639Y0095754D01*
X0055639Y0096039D01*
X0055731Y0096039D01*
X0058245Y0098553D01*
X0058245Y0102109D01*
X0055731Y0104623D01*
X0052175Y0104623D01*
X0049661Y0102109D01*
X0049661Y0098553D01*
X0050528Y0097686D01*
X0050302Y0097686D01*
X0047802Y0095186D01*
X0046814Y0094198D01*
X0046814Y0090033D01*
X0046224Y0089443D01*
X0046224Y0087557D01*
X0047557Y0086224D01*
X0049443Y0086224D01*
X0050776Y0087557D01*
X0050776Y0088918D02*
X0057363Y0088918D01*
X0056224Y0090517D02*
X0050186Y0090517D01*
X0050186Y0092115D02*
X0056396Y0092115D01*
X0058830Y0093714D02*
X0051098Y0093714D01*
X0047928Y0095312D02*
X0045196Y0095312D01*
X0045186Y0095302D02*
X0045639Y0095754D01*
X0045639Y0096039D01*
X0045731Y0096039D01*
X0048245Y0098553D01*
X0048245Y0102109D01*
X0045731Y0104623D01*
X0042175Y0104623D01*
X0039661Y0102109D01*
X0039661Y0098553D01*
X0040528Y0097686D01*
X0040302Y0097686D01*
X0037802Y0095186D01*
X0036814Y0094198D01*
X0036814Y0090033D01*
X0036224Y0089443D01*
X0036224Y0087557D01*
X0037557Y0086224D01*
X0039443Y0086224D01*
X0040776Y0087557D01*
X0040776Y0089443D01*
X0040186Y0090033D01*
X0040186Y0092802D01*
X0041698Y0094314D01*
X0044198Y0094314D01*
X0045186Y0095302D01*
X0046603Y0096911D02*
X0049527Y0096911D01*
X0049704Y0098509D02*
X0048201Y0098509D01*
X0048245Y0100108D02*
X0049661Y0100108D01*
X0049661Y0101706D02*
X0048245Y0101706D01*
X0047049Y0103305D02*
X0050857Y0103305D01*
X0052175Y0106039D02*
X0055731Y0106039D01*
X0058245Y0108553D01*
X0058245Y0112109D01*
X0055731Y0114623D01*
X0052175Y0114623D01*
X0049661Y0112109D01*
X0049661Y0108553D01*
X0052175Y0106039D01*
X0051712Y0106502D02*
X0046194Y0106502D01*
X0045731Y0106039D02*
X0048245Y0108553D01*
X0048245Y0112109D01*
X0045731Y0114623D01*
X0042175Y0114623D01*
X0039661Y0112109D01*
X0039661Y0112017D01*
X0038245Y0112017D01*
X0038245Y0112109D01*
X0035731Y0114623D01*
X0032175Y0114623D01*
X0029661Y0112109D01*
X0029661Y0108553D01*
X0032175Y0106039D01*
X0035731Y0106039D01*
X0038245Y0108553D01*
X0038245Y0108645D01*
X0039661Y0108645D01*
X0039661Y0108553D01*
X0042175Y0106039D01*
X0045731Y0106039D01*
X0047792Y0108100D02*
X0050113Y0108100D01*
X0049661Y0109699D02*
X0048245Y0109699D01*
X0048245Y0111297D02*
X0049661Y0111297D01*
X0050448Y0112896D02*
X0047458Y0112896D01*
X0045859Y0114494D02*
X0052046Y0114494D01*
X0055859Y0114494D02*
X0062046Y0114494D01*
X0062175Y0114623D02*
X0059661Y0112109D01*
X0059661Y0108553D01*
X0062175Y0106039D01*
X0065731Y0106039D01*
X0068245Y0108553D01*
X0068245Y0112109D01*
X0065731Y0114623D01*
X0062175Y0114623D01*
X0060448Y0112896D02*
X0057458Y0112896D01*
X0058245Y0111297D02*
X0059661Y0111297D01*
X0059661Y0109699D02*
X0058245Y0109699D01*
X0057792Y0108100D02*
X0060113Y0108100D01*
X0061712Y0106502D02*
X0056194Y0106502D01*
X0057049Y0103305D02*
X0060857Y0103305D01*
X0059661Y0102109D02*
X0062175Y0104623D01*
X0065731Y0104623D01*
X0068245Y0102109D01*
X0068245Y0098553D01*
X0065731Y0096039D01*
X0062175Y0096039D01*
X0059661Y0098553D01*
X0059661Y0102109D01*
X0059661Y0101706D02*
X0058245Y0101706D01*
X0058245Y0100108D02*
X0059661Y0100108D01*
X0059704Y0098509D02*
X0058201Y0098509D01*
X0056603Y0096911D02*
X0061303Y0096911D01*
X0066603Y0096911D02*
X0071303Y0096911D01*
X0072175Y0096039D02*
X0075731Y0096039D01*
X0078245Y0098553D01*
X0078245Y0102109D01*
X0075731Y0104623D01*
X0072175Y0104623D01*
X0069661Y0102109D01*
X0069661Y0098553D01*
X0072175Y0096039D01*
X0069704Y0098509D02*
X0068201Y0098509D01*
X0068245Y0100108D02*
X0069661Y0100108D01*
X0069661Y0101706D02*
X0068245Y0101706D01*
X0067049Y0103305D02*
X0070857Y0103305D01*
X0072175Y0106039D02*
X0075731Y0106039D01*
X0078245Y0108553D01*
X0078245Y0112109D01*
X0075731Y0114623D01*
X0072175Y0114623D01*
X0069661Y0112109D01*
X0069661Y0108553D01*
X0072175Y0106039D01*
X0071712Y0106502D02*
X0066194Y0106502D01*
X0067792Y0108100D02*
X0070113Y0108100D01*
X0069661Y0109699D02*
X0068245Y0109699D01*
X0068245Y0111297D02*
X0069661Y0111297D01*
X0070448Y0112896D02*
X0067458Y0112896D01*
X0065859Y0114494D02*
X0072046Y0114494D01*
X0075859Y0114494D02*
X0082046Y0114494D01*
X0082175Y0114623D02*
X0079661Y0112109D01*
X0079661Y0108553D01*
X0082175Y0106039D01*
X0085731Y0106039D01*
X0088245Y0108553D01*
X0088245Y0112109D01*
X0085731Y0114623D01*
X0082175Y0114623D01*
X0080448Y0112896D02*
X0077458Y0112896D01*
X0078245Y0111297D02*
X0079661Y0111297D01*
X0079661Y0109699D02*
X0078245Y0109699D01*
X0077792Y0108100D02*
X0080113Y0108100D01*
X0081712Y0106502D02*
X0076194Y0106502D01*
X0077049Y0103305D02*
X0080857Y0103305D01*
X0079661Y0102109D02*
X0079661Y0098553D01*
X0082175Y0096039D01*
X0085731Y0096039D01*
X0088245Y0098553D01*
X0088245Y0102109D01*
X0085731Y0104623D01*
X0082175Y0104623D01*
X0079661Y0102109D01*
X0079661Y0101706D02*
X0078245Y0101706D01*
X0078245Y0100108D02*
X0079661Y0100108D01*
X0079704Y0098509D02*
X0078201Y0098509D01*
X0076603Y0096911D02*
X0081303Y0096911D01*
X0086603Y0096911D02*
X0091303Y0096911D01*
X0092175Y0096039D02*
X0095731Y0096039D01*
X0098245Y0098553D01*
X0098245Y0102109D01*
X0095731Y0104623D01*
X0092175Y0104623D01*
X0089661Y0102109D01*
X0089661Y0098553D01*
X0092175Y0096039D01*
X0089704Y0098509D02*
X0088201Y0098509D01*
X0088245Y0100108D02*
X0089661Y0100108D01*
X0089661Y0101706D02*
X0088245Y0101706D01*
X0087049Y0103305D02*
X0090857Y0103305D01*
X0092175Y0106039D02*
X0095731Y0106039D01*
X0098245Y0108553D01*
X0098245Y0112109D01*
X0095731Y0114623D01*
X0092175Y0114623D01*
X0089661Y0112109D01*
X0089661Y0108553D01*
X0092175Y0106039D01*
X0091712Y0106502D02*
X0086194Y0106502D01*
X0087792Y0108100D02*
X0090113Y0108100D01*
X0089661Y0109699D02*
X0088245Y0109699D01*
X0088245Y0111297D02*
X0089661Y0111297D01*
X0090448Y0112896D02*
X0087458Y0112896D01*
X0085859Y0114494D02*
X0092046Y0114494D01*
X0095859Y0114494D02*
X0102046Y0114494D01*
X0102175Y0114623D02*
X0099661Y0112109D01*
X0099661Y0108553D01*
X0102175Y0106039D01*
X0105731Y0106039D01*
X0108245Y0108553D01*
X0108245Y0112109D01*
X0105731Y0114623D01*
X0102175Y0114623D01*
X0100448Y0112896D02*
X0097458Y0112896D01*
X0098245Y0111297D02*
X0099661Y0111297D01*
X0099661Y0109699D02*
X0098245Y0109699D01*
X0097792Y0108100D02*
X0100113Y0108100D01*
X0101712Y0106502D02*
X0096194Y0106502D01*
X0097049Y0103305D02*
X0100857Y0103305D01*
X0099661Y0102109D02*
X0102175Y0104623D01*
X0105731Y0104623D01*
X0108245Y0102109D01*
X0108245Y0098553D01*
X0105731Y0096039D01*
X0102175Y0096039D01*
X0099661Y0098553D01*
X0099661Y0102109D01*
X0099661Y0101706D02*
X0098245Y0101706D01*
X0098245Y0100108D02*
X0099661Y0100108D01*
X0099704Y0098509D02*
X0098201Y0098509D01*
X0096603Y0096911D02*
X0101303Y0096911D01*
X0106603Y0096911D02*
X0110885Y0096911D01*
X0112053Y0095743D02*
X0113753Y0095743D01*
X0113753Y0100131D01*
X0109365Y0100131D01*
X0109365Y0098431D01*
X0112053Y0095743D01*
X0113753Y0096911D02*
X0114153Y0096911D01*
X0114153Y0095743D02*
X0115853Y0095743D01*
X0118540Y0098431D01*
X0118540Y0100131D01*
X0114153Y0100131D01*
X0114153Y0100531D01*
X0113753Y0100531D01*
X0113753Y0104918D01*
X0112053Y0104918D01*
X0109365Y0102231D01*
X0109365Y0100531D01*
X0113753Y0100531D01*
X0113753Y0100131D01*
X0114153Y0100131D01*
X0114153Y0095743D01*
X0114153Y0098509D02*
X0113753Y0098509D01*
X0113753Y0100108D02*
X0114153Y0100108D01*
X0114153Y0100531D02*
X0118540Y0100531D01*
X0118540Y0102231D01*
X0115853Y0104918D01*
X0114153Y0104918D01*
X0114153Y0100531D01*
X0114153Y0101706D02*
X0113753Y0101706D01*
X0118540Y0101706D02*
X0119661Y0101706D01*
X0119661Y0102109D02*
X0119661Y0098553D01*
X0122175Y0096039D01*
X0125731Y0096039D01*
X0128245Y0098553D01*
X0128245Y0102109D01*
X0125731Y0104623D01*
X0122175Y0104623D01*
X0119661Y0102109D01*
X0120857Y0103305D02*
X0117466Y0103305D01*
X0115868Y0104903D02*
X0136814Y0104903D01*
X0136814Y0106502D02*
X0136194Y0106502D01*
X0131712Y0106502D02*
X0126194Y0106502D01*
X0125731Y0106039D02*
X0122175Y0106039D01*
X0119661Y0108553D01*
X0119661Y0112109D01*
X0122175Y0114623D01*
X0125731Y0114623D01*
X0128245Y0112109D01*
X0128245Y0108553D01*
X0125731Y0106039D01*
X0127049Y0103305D02*
X0130857Y0103305D01*
X0129661Y0101706D02*
X0128245Y0101706D01*
X0128245Y0100108D02*
X0129661Y0100108D01*
X0129704Y0098509D02*
X0128201Y0098509D01*
X0126603Y0096911D02*
X0131303Y0096911D01*
X0135428Y0095312D02*
X0055196Y0095312D01*
X0060776Y0090517D02*
X0068874Y0090517D01*
X0068074Y0088918D02*
X0059637Y0088918D01*
X0053500Y0081524D02*
X0051519Y0081524D01*
X0051116Y0081416D01*
X0050754Y0081207D01*
X0050458Y0080912D01*
X0050249Y0080550D01*
X0050141Y0080146D01*
X0050141Y0078559D01*
X0053500Y0078559D01*
X0053500Y0078559D01*
X0053500Y0081524D01*
X0053500Y0080926D02*
X0053500Y0080926D01*
X0053500Y0079327D02*
X0053500Y0079327D01*
X0050141Y0079327D02*
X0046859Y0079327D01*
X0046859Y0077729D02*
X0050141Y0077729D01*
X0050534Y0076130D02*
X0046466Y0076130D01*
X0046564Y0074532D02*
X0050436Y0074532D01*
X0050436Y0072933D02*
X0046564Y0072933D01*
X0046370Y0071334D02*
X0050629Y0071334D01*
X0051517Y0069736D02*
X0045186Y0069736D01*
X0045186Y0068137D02*
X0051224Y0068137D01*
X0052242Y0066539D02*
X0045186Y0066539D01*
X0043500Y0079327D02*
X0043500Y0079327D01*
X0043500Y0080926D02*
X0043500Y0080926D01*
X0046528Y0080926D02*
X0050472Y0080926D01*
X0046461Y0087320D02*
X0040539Y0087320D01*
X0040776Y0088918D02*
X0046224Y0088918D01*
X0046814Y0090517D02*
X0040186Y0090517D01*
X0040186Y0092115D02*
X0046814Y0092115D01*
X0046814Y0093714D02*
X0041098Y0093714D01*
X0037928Y0095312D02*
X0023110Y0095312D01*
X0024708Y0096911D02*
X0030885Y0096911D01*
X0032053Y0095743D02*
X0029365Y0098431D01*
X0029365Y0100131D01*
X0033753Y0100131D01*
X0033753Y0100531D01*
X0033753Y0104918D01*
X0032053Y0104918D01*
X0029365Y0102231D01*
X0029365Y0100531D01*
X0033753Y0100531D01*
X0034153Y0100531D01*
X0034153Y0104918D01*
X0035853Y0104918D01*
X0038540Y0102231D01*
X0038540Y0100531D01*
X0034153Y0100531D01*
X0034153Y0100131D01*
X0038540Y0100131D01*
X0038540Y0098431D01*
X0035853Y0095743D01*
X0034153Y0095743D01*
X0034153Y0100131D01*
X0033753Y0100131D01*
X0033753Y0095743D01*
X0032053Y0095743D01*
X0033753Y0096911D02*
X0034153Y0096911D01*
X0034153Y0098509D02*
X0033753Y0098509D01*
X0033753Y0100108D02*
X0034153Y0100108D01*
X0033953Y0100331D02*
X0033500Y0100331D01*
X0033753Y0101706D02*
X0034153Y0101706D01*
X0029365Y0101706D02*
X0027275Y0101706D01*
X0026710Y0100108D02*
X0029365Y0100108D01*
X0029365Y0098509D02*
X0025880Y0098509D01*
X0020599Y0093714D02*
X0036814Y0093714D01*
X0036814Y0092115D02*
X0003768Y0092115D01*
X0003768Y0090517D02*
X0036814Y0090517D01*
X0036224Y0088918D02*
X0003768Y0088918D01*
X0003768Y0087320D02*
X0036461Y0087320D01*
X0037020Y0096911D02*
X0039527Y0096911D01*
X0039704Y0098509D02*
X0038540Y0098509D01*
X0038540Y0100108D02*
X0039661Y0100108D01*
X0039661Y0101706D02*
X0038540Y0101706D01*
X0037466Y0103305D02*
X0040857Y0103305D01*
X0041712Y0106502D02*
X0036194Y0106502D01*
X0035868Y0104903D02*
X0112038Y0104903D01*
X0112175Y0106039D02*
X0115731Y0106039D01*
X0118245Y0108553D01*
X0118245Y0112109D01*
X0115731Y0114623D01*
X0112175Y0114623D01*
X0109661Y0112109D01*
X0109661Y0108553D01*
X0112175Y0106039D01*
X0111712Y0106502D02*
X0106194Y0106502D01*
X0107792Y0108100D02*
X0110113Y0108100D01*
X0109661Y0109699D02*
X0108245Y0109699D01*
X0108245Y0111297D02*
X0109661Y0111297D01*
X0110448Y0112896D02*
X0107458Y0112896D01*
X0105859Y0114494D02*
X0112046Y0114494D01*
X0115859Y0114494D02*
X0122046Y0114494D01*
X0120448Y0112896D02*
X0117458Y0112896D01*
X0118245Y0111297D02*
X0119661Y0111297D01*
X0119661Y0109699D02*
X0118245Y0109699D01*
X0117792Y0108100D02*
X0120113Y0108100D01*
X0121712Y0106502D02*
X0116194Y0106502D01*
X0114153Y0104903D02*
X0113753Y0104903D01*
X0113753Y0103305D02*
X0114153Y0103305D01*
X0110439Y0103305D02*
X0107049Y0103305D01*
X0108245Y0101706D02*
X0109365Y0101706D01*
X0109365Y0100108D02*
X0108245Y0100108D01*
X0108201Y0098509D02*
X0109365Y0098509D01*
X0117020Y0096911D02*
X0121303Y0096911D01*
X0119704Y0098509D02*
X0118540Y0098509D01*
X0118540Y0100108D02*
X0119661Y0100108D01*
X0127792Y0108100D02*
X0130113Y0108100D01*
X0129661Y0109699D02*
X0128245Y0109699D01*
X0128245Y0111297D02*
X0129661Y0111297D01*
X0130448Y0112896D02*
X0127458Y0112896D01*
X0125859Y0114494D02*
X0132046Y0114494D01*
X0135859Y0114494D02*
X0142046Y0114494D01*
X0140448Y0112896D02*
X0137458Y0112896D01*
X0138245Y0111297D02*
X0138913Y0111297D01*
X0145859Y0114494D02*
X0152046Y0114494D01*
X0150448Y0112896D02*
X0147458Y0112896D01*
X0148245Y0111297D02*
X0148913Y0111297D01*
X0150186Y0106502D02*
X0151712Y0106502D01*
X0150186Y0104903D02*
X0230106Y0104903D01*
X0230202Y0106502D02*
X0226194Y0106502D01*
X0225731Y0106039D02*
X0222175Y0106039D01*
X0219661Y0108553D01*
X0219661Y0112109D01*
X0222175Y0114623D01*
X0225731Y0114623D01*
X0228245Y0112109D01*
X0228245Y0108553D01*
X0225731Y0106039D01*
X0225731Y0104623D02*
X0222175Y0104623D01*
X0219661Y0102109D01*
X0219661Y0098553D01*
X0222175Y0096039D01*
X0225731Y0096039D01*
X0228245Y0098553D01*
X0228245Y0102109D01*
X0225731Y0104623D01*
X0227049Y0103305D02*
X0230263Y0103305D01*
X0230630Y0101706D02*
X0228245Y0101706D01*
X0228245Y0100108D02*
X0231195Y0100108D01*
X0232025Y0098509D02*
X0228201Y0098509D01*
X0226603Y0096911D02*
X0233197Y0096911D01*
X0234796Y0095312D02*
X0195639Y0095312D01*
X0195639Y0093714D02*
X0237306Y0093714D01*
X0248946Y0093714D02*
X0254137Y0093714D01*
X0254137Y0095312D02*
X0251456Y0095312D01*
X0253055Y0096911D02*
X0254137Y0096911D01*
X0254002Y0092115D02*
X0195639Y0092115D01*
X0195639Y0090517D02*
X0205724Y0090517D01*
X0205724Y0088918D02*
X0195639Y0088918D01*
X0195639Y0087320D02*
X0205724Y0087320D01*
X0205724Y0085721D02*
X0194355Y0085721D01*
X0192267Y0088918D02*
X0185052Y0088918D01*
X0185639Y0090517D02*
X0192267Y0090517D01*
X0192267Y0092115D02*
X0185639Y0092115D01*
X0185639Y0093714D02*
X0192267Y0093714D01*
X0192267Y0095312D02*
X0185639Y0095312D01*
X0186603Y0096911D02*
X0191303Y0096911D01*
X0189704Y0098509D02*
X0188201Y0098509D01*
X0188245Y0100108D02*
X0189661Y0100108D01*
X0189661Y0101706D02*
X0188245Y0101706D01*
X0187049Y0103305D02*
X0190857Y0103305D01*
X0192175Y0106039D02*
X0195731Y0106039D01*
X0198245Y0108553D01*
X0198245Y0112109D01*
X0195731Y0114623D01*
X0192175Y0114623D01*
X0189661Y0112109D01*
X0189661Y0108553D01*
X0192175Y0106039D01*
X0191712Y0106502D02*
X0186194Y0106502D01*
X0185731Y0106039D02*
X0182175Y0106039D01*
X0179661Y0108553D01*
X0179661Y0112109D01*
X0182175Y0114623D01*
X0185731Y0114623D01*
X0188245Y0112109D01*
X0188245Y0108553D01*
X0185731Y0106039D01*
X0187792Y0108100D02*
X0190113Y0108100D01*
X0189661Y0109699D02*
X0188245Y0109699D01*
X0188245Y0111297D02*
X0189661Y0111297D01*
X0190448Y0112896D02*
X0187458Y0112896D01*
X0185859Y0114494D02*
X0192046Y0114494D01*
X0195859Y0114494D02*
X0202046Y0114494D01*
X0202175Y0114623D02*
X0199661Y0112109D01*
X0199661Y0108553D01*
X0202175Y0106039D01*
X0205731Y0106039D01*
X0208245Y0108553D01*
X0208245Y0112109D01*
X0205731Y0114623D01*
X0202175Y0114623D01*
X0200448Y0112896D02*
X0197458Y0112896D01*
X0198245Y0111297D02*
X0199661Y0111297D01*
X0199661Y0109699D02*
X0198245Y0109699D01*
X0197792Y0108100D02*
X0200113Y0108100D01*
X0201712Y0106502D02*
X0196194Y0106502D01*
X0197049Y0103305D02*
X0200857Y0103305D01*
X0199661Y0102109D02*
X0202175Y0104623D01*
X0205731Y0104623D01*
X0208245Y0102109D01*
X0208245Y0098553D01*
X0205731Y0096039D01*
X0202175Y0096039D01*
X0199661Y0098553D01*
X0199661Y0102109D01*
X0199661Y0101706D02*
X0198245Y0101706D01*
X0198245Y0100108D02*
X0199661Y0100108D01*
X0199704Y0098509D02*
X0198201Y0098509D01*
X0196603Y0096911D02*
X0201303Y0096911D01*
X0206603Y0096911D02*
X0211303Y0096911D01*
X0212175Y0096039D02*
X0215731Y0096039D01*
X0218245Y0098553D01*
X0218245Y0102109D01*
X0215731Y0104623D01*
X0212175Y0104623D01*
X0209661Y0102109D01*
X0209661Y0098553D01*
X0212175Y0096039D01*
X0209704Y0098509D02*
X0208201Y0098509D01*
X0208245Y0100108D02*
X0209661Y0100108D01*
X0209661Y0101706D02*
X0208245Y0101706D01*
X0207049Y0103305D02*
X0210857Y0103305D01*
X0212175Y0106039D02*
X0215731Y0106039D01*
X0218245Y0108553D01*
X0218245Y0112109D01*
X0215731Y0114623D01*
X0212175Y0114623D01*
X0209661Y0112109D01*
X0209661Y0108553D01*
X0212175Y0106039D01*
X0211712Y0106502D02*
X0206194Y0106502D01*
X0207792Y0108100D02*
X0210113Y0108100D01*
X0209661Y0109699D02*
X0208245Y0109699D01*
X0208245Y0111297D02*
X0209661Y0111297D01*
X0210448Y0112896D02*
X0207458Y0112896D01*
X0205859Y0114494D02*
X0212046Y0114494D01*
X0215859Y0114494D02*
X0222046Y0114494D01*
X0220448Y0112896D02*
X0217458Y0112896D01*
X0218245Y0111297D02*
X0219661Y0111297D01*
X0219661Y0109699D02*
X0218245Y0109699D01*
X0217792Y0108100D02*
X0220113Y0108100D01*
X0221712Y0106502D02*
X0216194Y0106502D01*
X0217049Y0103305D02*
X0220857Y0103305D01*
X0219661Y0101706D02*
X0218245Y0101706D01*
X0218245Y0100108D02*
X0219661Y0100108D01*
X0219704Y0098509D02*
X0218201Y0098509D01*
X0216603Y0096911D02*
X0221303Y0096911D01*
X0227792Y0108100D02*
X0230450Y0108100D01*
X0230907Y0109699D02*
X0228245Y0109699D01*
X0228245Y0111297D02*
X0231601Y0111297D01*
X0232582Y0112896D02*
X0227458Y0112896D01*
X0225859Y0114494D02*
X0233941Y0114494D01*
X0235762Y0116093D02*
X0022143Y0116093D01*
X0023965Y0114494D02*
X0032046Y0114494D01*
X0030448Y0112896D02*
X0025324Y0112896D01*
X0026304Y0111297D02*
X0029661Y0111297D01*
X0029661Y0109699D02*
X0026998Y0109699D01*
X0027455Y0108100D02*
X0030113Y0108100D01*
X0031712Y0106502D02*
X0027704Y0106502D01*
X0027800Y0104903D02*
X0032038Y0104903D01*
X0033753Y0104903D02*
X0034153Y0104903D01*
X0034153Y0103305D02*
X0033753Y0103305D01*
X0030439Y0103305D02*
X0027642Y0103305D01*
X0037792Y0108100D02*
X0040113Y0108100D01*
X0040448Y0112896D02*
X0037458Y0112896D01*
X0035859Y0114494D02*
X0042046Y0114494D01*
X0006449Y0095312D02*
X0003768Y0095312D01*
X0003768Y0093714D02*
X0008960Y0093714D01*
X0004851Y0096911D02*
X0003768Y0096911D01*
X0069842Y0084123D02*
X0091814Y0084123D01*
X0091814Y0085721D02*
X0070776Y0085721D01*
X0071045Y0087320D02*
X0091814Y0087320D01*
X0092784Y0088918D02*
X0071844Y0088918D01*
X0080754Y0081207D02*
X0081116Y0081416D01*
X0081519Y0081524D01*
X0083500Y0081524D01*
X0083500Y0078559D01*
X0080141Y0078559D01*
X0080141Y0080146D01*
X0080249Y0080550D01*
X0080458Y0080912D01*
X0080754Y0081207D01*
X0080472Y0080926D02*
X0076528Y0080926D01*
X0076859Y0079327D02*
X0080141Y0079327D01*
X0080141Y0077729D02*
X0076859Y0077729D01*
X0076466Y0076130D02*
X0080534Y0076130D01*
X0080436Y0074532D02*
X0076564Y0074532D01*
X0076564Y0072933D02*
X0080436Y0072933D01*
X0080629Y0071334D02*
X0076370Y0071334D01*
X0075186Y0069736D02*
X0091814Y0069736D01*
X0091814Y0068137D02*
X0075186Y0068137D01*
X0075186Y0066539D02*
X0091814Y0066539D01*
X0091814Y0064940D02*
X0075186Y0064940D01*
X0075186Y0063342D02*
X0091814Y0063342D01*
X0091814Y0061743D02*
X0075186Y0061743D01*
X0075186Y0060145D02*
X0090436Y0060145D01*
X0090436Y0058546D02*
X0075990Y0058546D01*
X0076564Y0056948D02*
X0090436Y0056948D01*
X0090227Y0055349D02*
X0076564Y0055349D01*
X0076169Y0053751D02*
X0090141Y0053751D01*
X0090141Y0053441D02*
X0090141Y0051854D01*
X0090249Y0051450D01*
X0090458Y0051088D01*
X0090754Y0050793D01*
X0091116Y0050584D01*
X0091519Y0050476D01*
X0093500Y0050476D01*
X0093500Y0053441D01*
X0093500Y0053441D01*
X0093500Y0053441D01*
X0096859Y0053441D01*
X0096859Y0051854D01*
X0096751Y0051450D01*
X0096542Y0051088D01*
X0096246Y0050793D01*
X0095884Y0050584D01*
X0095481Y0050476D01*
X0093500Y0050476D01*
X0093500Y0053441D01*
X0090141Y0053441D01*
X0090141Y0052152D02*
X0080567Y0052152D01*
X0080776Y0050554D02*
X0091227Y0050554D01*
X0093500Y0050554D02*
X0093500Y0050554D01*
X0093500Y0052152D02*
X0093500Y0052152D01*
X0093500Y0053441D02*
X0093500Y0053441D01*
X0096859Y0053751D02*
X0100141Y0053751D01*
X0100141Y0052152D02*
X0096859Y0052152D01*
X0095773Y0050554D02*
X0101227Y0050554D01*
X0103500Y0050554D02*
X0103500Y0050554D01*
X0103500Y0052152D02*
X0103500Y0052152D01*
X0103500Y0053441D02*
X0103500Y0053441D01*
X0100227Y0055349D02*
X0096773Y0055349D01*
X0096564Y0056948D02*
X0100436Y0056948D01*
X0100436Y0058546D02*
X0096564Y0058546D01*
X0096564Y0060145D02*
X0100436Y0060145D01*
X0101814Y0061743D02*
X0095186Y0061743D01*
X0095186Y0063342D02*
X0101814Y0063342D01*
X0101814Y0064940D02*
X0095186Y0064940D01*
X0095186Y0066539D02*
X0101814Y0066539D01*
X0101814Y0068137D02*
X0095186Y0068137D01*
X0095186Y0069736D02*
X0101814Y0069736D01*
X0100633Y0071334D02*
X0096367Y0071334D01*
X0096367Y0072933D02*
X0100633Y0072933D01*
X0100633Y0074532D02*
X0096367Y0074532D01*
X0096367Y0077729D02*
X0100633Y0077729D01*
X0100633Y0079327D02*
X0096367Y0079327D01*
X0096367Y0080926D02*
X0100633Y0080926D01*
X0101814Y0082524D02*
X0095186Y0082524D01*
X0095186Y0084123D02*
X0101814Y0084123D01*
X0103337Y0085721D02*
X0095186Y0085721D01*
X0105186Y0082524D02*
X0205724Y0082524D01*
X0205724Y0080926D02*
X0106367Y0080926D01*
X0106367Y0079327D02*
X0120243Y0079327D01*
X0129788Y0079327D02*
X0205724Y0079327D01*
X0205724Y0077729D02*
X0131509Y0077729D01*
X0132733Y0076130D02*
X0205724Y0076130D01*
X0205724Y0074532D02*
X0133396Y0074532D01*
X0133808Y0072933D02*
X0205724Y0072933D01*
X0205724Y0071334D02*
X0133808Y0071334D01*
X0133683Y0069736D02*
X0205724Y0069736D01*
X0205724Y0068137D02*
X0133020Y0068137D01*
X0132201Y0066539D02*
X0205724Y0066539D01*
X0205724Y0064940D02*
X0130603Y0064940D01*
X0127602Y0063342D02*
X0205724Y0063342D01*
X0205724Y0055349D02*
X0147370Y0055349D01*
X0148276Y0053751D02*
X0205724Y0053751D01*
X0205724Y0052152D02*
X0150567Y0052152D01*
X0150776Y0050554D02*
X0205724Y0050554D01*
X0205724Y0048955D02*
X0150186Y0048955D01*
X0149741Y0047357D02*
X0205724Y0047357D01*
X0205724Y0045758D02*
X0145776Y0045758D01*
X0144879Y0044160D02*
X0205724Y0044160D01*
X0205724Y0042561D02*
X0139526Y0042561D01*
X0139182Y0040963D02*
X0205724Y0040963D01*
X0205724Y0039364D02*
X0133926Y0039364D01*
X0133926Y0037766D02*
X0205724Y0037766D01*
X0205724Y0036167D02*
X0133926Y0036167D01*
X0133926Y0040963D02*
X0135318Y0040963D01*
X0117864Y0048955D02*
X0079675Y0048955D01*
X0077325Y0048955D02*
X0076491Y0048955D01*
X0070509Y0048955D02*
X0066491Y0048955D01*
X0051224Y0037766D02*
X0003768Y0037766D01*
X0003768Y0026576D02*
X0009280Y0026576D01*
X0006752Y0024978D02*
X0003768Y0024978D01*
X0003768Y0023379D02*
X0005010Y0023379D01*
X0003813Y0021781D02*
X0003768Y0021781D01*
X0020279Y0026576D02*
X0118945Y0026576D01*
X0117473Y0024978D02*
X0022807Y0024978D01*
X0024549Y0023379D02*
X0116811Y0023379D01*
X0116224Y0021781D02*
X0025746Y0021781D01*
X0026612Y0020182D02*
X0116224Y0020182D01*
X0116224Y0018584D02*
X0027230Y0018584D01*
X0027630Y0016985D02*
X0116836Y0016985D01*
X0117498Y0015387D02*
X0027744Y0015387D01*
X0027716Y0013788D02*
X0119006Y0013788D01*
X0121410Y0012190D02*
X0027494Y0012190D01*
X0111120Y0055349D02*
X0118074Y0055349D01*
X0123257Y0055349D02*
X0128743Y0055349D01*
X0123867Y0053751D02*
X0123257Y0053751D01*
X0133926Y0053751D02*
X0136367Y0053751D01*
X0133926Y0055349D02*
X0144630Y0055349D01*
X0106507Y0084123D02*
X0205724Y0084123D01*
X0182267Y0092115D02*
X0149499Y0092115D01*
X0150186Y0093714D02*
X0182267Y0093714D01*
X0182267Y0095312D02*
X0150186Y0095312D01*
X0150186Y0096911D02*
X0151303Y0096911D01*
X0156603Y0096911D02*
X0161303Y0096911D01*
X0162175Y0096039D02*
X0165731Y0096039D01*
X0168245Y0098553D01*
X0168245Y0102109D01*
X0165731Y0104623D01*
X0162175Y0104623D01*
X0159661Y0102109D01*
X0159661Y0098553D01*
X0162175Y0096039D01*
X0159704Y0098509D02*
X0158201Y0098509D01*
X0158245Y0100108D02*
X0159661Y0100108D01*
X0159661Y0101706D02*
X0158245Y0101706D01*
X0157049Y0103305D02*
X0160857Y0103305D01*
X0162175Y0106039D02*
X0165731Y0106039D01*
X0168245Y0108553D01*
X0168245Y0112109D01*
X0165731Y0114623D01*
X0162175Y0114623D01*
X0159661Y0112109D01*
X0159661Y0108553D01*
X0162175Y0106039D01*
X0161712Y0106502D02*
X0156194Y0106502D01*
X0157792Y0108100D02*
X0160113Y0108100D01*
X0159661Y0109699D02*
X0158245Y0109699D01*
X0158245Y0111297D02*
X0159661Y0111297D01*
X0160448Y0112896D02*
X0157458Y0112896D01*
X0155859Y0114494D02*
X0162046Y0114494D01*
X0165859Y0114494D02*
X0172046Y0114494D01*
X0172175Y0114623D02*
X0169661Y0112109D01*
X0169661Y0108553D01*
X0172175Y0106039D01*
X0175731Y0106039D01*
X0178245Y0108553D01*
X0178245Y0112109D01*
X0175731Y0114623D01*
X0172175Y0114623D01*
X0170448Y0112896D02*
X0167458Y0112896D01*
X0168245Y0111297D02*
X0169661Y0111297D01*
X0169661Y0109699D02*
X0168245Y0109699D01*
X0167792Y0108100D02*
X0170113Y0108100D01*
X0171712Y0106502D02*
X0166194Y0106502D01*
X0167049Y0103305D02*
X0170857Y0103305D01*
X0169661Y0102109D02*
X0169661Y0098553D01*
X0172175Y0096039D01*
X0175731Y0096039D01*
X0178245Y0098553D01*
X0178245Y0102109D01*
X0175731Y0104623D01*
X0172175Y0104623D01*
X0169661Y0102109D01*
X0169661Y0101706D02*
X0168245Y0101706D01*
X0168245Y0100108D02*
X0169661Y0100108D01*
X0169704Y0098509D02*
X0168201Y0098509D01*
X0166603Y0096911D02*
X0171303Y0096911D01*
X0176603Y0096911D02*
X0181303Y0096911D01*
X0179704Y0098509D02*
X0178201Y0098509D01*
X0178245Y0100108D02*
X0179661Y0100108D01*
X0179661Y0101706D02*
X0178245Y0101706D01*
X0177049Y0103305D02*
X0180857Y0103305D01*
X0181712Y0106502D02*
X0176194Y0106502D01*
X0177792Y0108100D02*
X0180113Y0108100D01*
X0179661Y0109699D02*
X0178245Y0109699D01*
X0178245Y0111297D02*
X0179661Y0111297D01*
X0180448Y0112896D02*
X0177458Y0112896D01*
X0175859Y0114494D02*
X0182046Y0114494D01*
X0150857Y0103305D02*
X0150186Y0103305D01*
X0136814Y0096911D02*
X0136603Y0096911D01*
X0147901Y0090517D02*
X0181883Y0090517D01*
X0090633Y0071334D02*
X0089554Y0071334D01*
X0087446Y0071334D02*
X0086370Y0071334D01*
X0083500Y0078559D02*
X0083500Y0078559D01*
X0083500Y0079327D02*
X0083500Y0079327D01*
X0083500Y0080926D02*
X0083500Y0080926D01*
M02*
