%
M48
M72
T01C0.01181
T02C0.02559
T03C0.03346
T04C0.03600
T05C0.07874
T06C0.08268
%
T01
X6787Y44287
X6787Y61787
X6787Y89287
X6787Y104287
X6787Y134287
X46787Y126787
X62417Y113598
X46787Y99287
X46787Y81787
X46787Y54287
X82890Y46669
X102575Y19898
X109661Y57693
X111236Y63992
X46787Y146787
T02
X86787Y91787
X86787Y86787
X86787Y81787
X91787Y81787
X91787Y86787
X91787Y91787
X91787Y76787
X91787Y71787
X86787Y71787
X86787Y76787
X106787Y51787
X111787Y51787
X116787Y51787
X121787Y51787
X126787Y51787
X131787Y51787
X136787Y51787
X141787Y51787
X146787Y51787
X151787Y51787
X151787Y131787
X146787Y131787
X141787Y131787
X136787Y131787
X131787Y131787
X126787Y131787
X121787Y131787
X116787Y131787
X111787Y131787
X106787Y131787
T03
X106787Y176787
X101787Y176787
X96787Y176787
X91787Y176787
X86787Y176787
X81787Y176787
X76787Y176787
X71787Y176787
T04
X16787Y11787
X26787Y11787
X36787Y11787
X56787Y26787
X56787Y36787
X56787Y46787
X66787Y46787
X66787Y36787
X66787Y26787
X76787Y26787
X76787Y36787
X86787Y36787
X96787Y36787
X96787Y26787
X86787Y26787
X106787Y26787
X106787Y36787
X116787Y36787
X116787Y26787
X116787Y16787
X126787Y26787
X126787Y36787
X136787Y36787
X136787Y26787
X146787Y26787
X146787Y36787
X146787Y66787
X146787Y76787
X136787Y76787
X136787Y66787
X126787Y66787
X126787Y76787
X116787Y76787
X116787Y66787
X106787Y66787
X106787Y76787
X106787Y86787
X106787Y96787
X106787Y106787
X106787Y116787
X116787Y116787
X116787Y106787
X116787Y96787
X116787Y86787
X126787Y86787
X126787Y96787
X126787Y106787
X126787Y116787
X136787Y116787
X136787Y106787
X136787Y96787
X136787Y86787
X146787Y86787
X146787Y96787
X146787Y106787
X146787Y116787
X146787Y146787
X146787Y156787
X136787Y156787
X136787Y146787
X126787Y146787
X126787Y156787
X116787Y156787
X116787Y146787
X106787Y146787
X106787Y156787
X116787Y176787
X136787Y176787
X136787Y166787
X146787Y166787
X146787Y176787
X56787Y106787
X56787Y96787
X56787Y86787
X56787Y76787
X56787Y66787
X36787Y56787
X26787Y56787
X16787Y56787
X16787Y41787
X26787Y41787
X36787Y41787
X36787Y86787
X26787Y86787
X16787Y86787
X16787Y101787
X26787Y101787
X36787Y101787
X36787Y131787
X26787Y131787
X16787Y131787
X16787Y146787
X26787Y146787
X36787Y146787
X36787Y176787
X26787Y176787
X16787Y176787
T05
X91256Y127220
T06
X91256Y56354
M30
