G75*
%MOIN*%
%OFA0B0*%
%FSLAX25Y25*%
%IPPOS*%
%LPD*%
%AMOC8*
5,1,8,0,0,1.08239X$1,22.5*
%
%ADD10OC8,0.06300*%
%ADD11C,0.03937*%
%ADD12C,0.17717*%
%ADD13C,0.04331*%
%ADD14C,0.05400*%
%ADD15C,0.01575*%
%ADD16C,0.01600*%
%ADD17C,0.00787*%
%ADD18C,0.02165*%
D10*
X0056787Y0026787D03*
X0056787Y0036787D03*
X0056787Y0046787D03*
X0066787Y0046787D03*
X0066787Y0036787D03*
X0066787Y0026787D03*
X0076787Y0026787D03*
X0076787Y0036787D03*
X0086787Y0036787D03*
X0096787Y0036787D03*
X0096787Y0026787D03*
X0086787Y0026787D03*
X0106787Y0026787D03*
X0106787Y0036787D03*
X0116787Y0036787D03*
X0116787Y0026787D03*
X0116787Y0016787D03*
X0126787Y0026787D03*
X0126787Y0036787D03*
X0136787Y0036787D03*
X0136787Y0026787D03*
X0146787Y0026787D03*
X0146787Y0036787D03*
X0146787Y0066787D03*
X0146787Y0076787D03*
X0136787Y0076787D03*
X0136787Y0066787D03*
X0126787Y0066787D03*
X0126787Y0076787D03*
X0116787Y0076787D03*
X0116787Y0066787D03*
X0106787Y0066787D03*
X0106787Y0076787D03*
X0106787Y0086787D03*
X0106787Y0096787D03*
X0106787Y0106787D03*
X0106787Y0116787D03*
X0116787Y0116787D03*
X0116787Y0106787D03*
X0116787Y0096787D03*
X0116787Y0086787D03*
X0126787Y0086787D03*
X0126787Y0096787D03*
X0126787Y0106787D03*
X0126787Y0116787D03*
X0136787Y0116787D03*
X0136787Y0106787D03*
X0136787Y0096787D03*
X0136787Y0086787D03*
X0146787Y0086787D03*
X0146787Y0096787D03*
X0146787Y0106787D03*
X0146787Y0116787D03*
X0146787Y0146787D03*
X0146787Y0156787D03*
X0136787Y0156787D03*
X0136787Y0146787D03*
X0126787Y0146787D03*
X0126787Y0156787D03*
X0116787Y0156787D03*
X0116787Y0146787D03*
X0106787Y0146787D03*
X0106787Y0156787D03*
X0116787Y0176787D03*
X0136787Y0176787D03*
X0136787Y0166787D03*
X0146787Y0166787D03*
X0146787Y0176787D03*
X0056787Y0106787D03*
X0056787Y0096787D03*
X0056787Y0086787D03*
X0056787Y0076787D03*
X0056787Y0066787D03*
D11*
X0082850Y0071787D02*
X0086787Y0071787D01*
X0086787Y0076787D02*
X0082850Y0076787D01*
X0082850Y0081787D02*
X0086787Y0081787D01*
X0086787Y0086787D02*
X0082850Y0086787D01*
X0082850Y0091787D02*
X0086787Y0091787D01*
X0091787Y0091787D02*
X0095724Y0091787D01*
X0095724Y0086787D02*
X0091787Y0086787D01*
X0091787Y0081787D02*
X0095724Y0081787D01*
X0095724Y0076787D02*
X0091787Y0076787D01*
X0091787Y0071787D02*
X0095724Y0071787D01*
X0106787Y0051787D02*
X0106787Y0047850D01*
X0111787Y0047850D02*
X0111787Y0051787D01*
X0116787Y0051787D02*
X0116787Y0047850D01*
X0121787Y0047850D02*
X0121787Y0051787D01*
X0126787Y0051787D02*
X0126787Y0047850D01*
X0131787Y0047850D02*
X0131787Y0051787D01*
X0136787Y0051787D02*
X0136787Y0047850D01*
X0141787Y0047850D02*
X0141787Y0051787D01*
X0146787Y0051787D02*
X0146787Y0047850D01*
X0151787Y0047850D02*
X0151787Y0051787D01*
X0151787Y0131787D02*
X0151787Y0135724D01*
X0146787Y0135724D02*
X0146787Y0131787D01*
X0141787Y0131787D02*
X0141787Y0135724D01*
X0136787Y0135724D02*
X0136787Y0131787D01*
X0131787Y0131787D02*
X0131787Y0135724D01*
X0126787Y0135724D02*
X0126787Y0131787D01*
X0121787Y0131787D02*
X0121787Y0135724D01*
X0116787Y0135724D02*
X0116787Y0131787D01*
X0111787Y0131787D02*
X0111787Y0135724D01*
X0106787Y0135724D02*
X0106787Y0131787D01*
D12*
X0091256Y0127220D03*
X0091256Y0056354D03*
D13*
X0091787Y0175999D02*
X0091787Y0177575D01*
X0091787Y0175999D02*
X0091787Y0175999D01*
X0091787Y0177575D01*
X0091787Y0177575D01*
X0086787Y0177575D02*
X0086787Y0175999D01*
X0086787Y0175999D01*
X0086787Y0177575D01*
X0086787Y0177575D01*
X0081787Y0177575D02*
X0081787Y0175999D01*
X0081787Y0175999D01*
X0081787Y0177575D01*
X0081787Y0177575D01*
X0076787Y0177575D02*
X0076787Y0175999D01*
X0076787Y0175999D01*
X0076787Y0177575D01*
X0076787Y0177575D01*
X0071787Y0177575D02*
X0071787Y0175999D01*
X0071787Y0175999D01*
X0071787Y0177575D01*
X0071787Y0177575D01*
X0096787Y0177575D02*
X0096787Y0175999D01*
X0096787Y0175999D01*
X0096787Y0177575D01*
X0096787Y0177575D01*
X0101787Y0177575D02*
X0101787Y0175999D01*
X0101787Y0175999D01*
X0101787Y0177575D01*
X0101787Y0177575D01*
X0106787Y0177575D02*
X0106787Y0175999D01*
X0106787Y0175999D01*
X0106787Y0177575D01*
X0106787Y0177575D01*
D14*
X0036787Y0179487D02*
X0036787Y0174087D01*
X0026787Y0174087D02*
X0026787Y0179487D01*
X0016787Y0179487D02*
X0016787Y0174087D01*
X0016787Y0149487D02*
X0016787Y0144087D01*
X0026787Y0144087D02*
X0026787Y0149487D01*
X0036787Y0149487D02*
X0036787Y0144087D01*
X0036787Y0134487D02*
X0036787Y0129087D01*
X0026787Y0129087D02*
X0026787Y0134487D01*
X0016787Y0134487D02*
X0016787Y0129087D01*
X0016787Y0104487D02*
X0016787Y0099087D01*
X0026787Y0099087D02*
X0026787Y0104487D01*
X0036787Y0104487D02*
X0036787Y0099087D01*
X0036787Y0089487D02*
X0036787Y0084087D01*
X0026787Y0084087D02*
X0026787Y0089487D01*
X0016787Y0089487D02*
X0016787Y0084087D01*
X0016787Y0059487D02*
X0016787Y0054087D01*
X0026787Y0054087D02*
X0026787Y0059487D01*
X0036787Y0059487D02*
X0036787Y0054087D01*
X0036787Y0044487D02*
X0036787Y0039087D01*
X0026787Y0039087D02*
X0026787Y0044487D01*
X0016787Y0044487D02*
X0016787Y0039087D01*
X0016787Y0014487D02*
X0016787Y0009087D01*
X0026787Y0009087D02*
X0026787Y0014487D01*
X0036787Y0014487D02*
X0036787Y0009087D01*
D15*
X0004543Y0004543D02*
X0004543Y0042773D01*
X0005282Y0042034D01*
X0006259Y0041630D01*
X0007316Y0041630D01*
X0008293Y0042034D01*
X0009040Y0042782D01*
X0009445Y0043759D01*
X0009445Y0044816D01*
X0009040Y0045793D01*
X0008756Y0046077D01*
X0008756Y0053472D01*
X0009819Y0054535D01*
X0009819Y0015972D01*
X0010972Y0014819D01*
X0012513Y0013278D01*
X0012513Y0008237D01*
X0013163Y0006666D01*
X0014366Y0005463D01*
X0015937Y0004813D01*
X0017638Y0004813D01*
X0019209Y0005463D01*
X0020411Y0006666D01*
X0021062Y0008237D01*
X0021062Y0015338D01*
X0020411Y0016909D01*
X0019209Y0018111D01*
X0017638Y0018762D01*
X0015937Y0018762D01*
X0014366Y0018111D01*
X0013807Y0017552D01*
X0013756Y0017603D01*
X0013756Y0036073D01*
X0014366Y0035463D01*
X0015937Y0034813D01*
X0017638Y0034813D01*
X0019209Y0035463D01*
X0020411Y0036666D01*
X0021062Y0038237D01*
X0021062Y0045338D01*
X0020411Y0046909D01*
X0019209Y0048111D01*
X0017638Y0048762D01*
X0015937Y0048762D01*
X0014366Y0048111D01*
X0013756Y0047501D01*
X0013756Y0051073D01*
X0014366Y0050463D01*
X0015937Y0049813D01*
X0017638Y0049813D01*
X0019209Y0050463D01*
X0020411Y0051666D01*
X0021062Y0053237D01*
X0021062Y0060338D01*
X0020411Y0061909D01*
X0019209Y0063111D01*
X0017638Y0063762D01*
X0015937Y0063762D01*
X0014366Y0063111D01*
X0013756Y0062501D01*
X0013756Y0081073D01*
X0014366Y0080463D01*
X0015937Y0079813D01*
X0017638Y0079813D01*
X0019209Y0080463D01*
X0020411Y0081666D01*
X0021062Y0083237D01*
X0021062Y0090338D01*
X0020411Y0091909D01*
X0019209Y0093111D01*
X0017638Y0093762D01*
X0015937Y0093762D01*
X0014366Y0093111D01*
X0013756Y0092501D01*
X0013756Y0095972D01*
X0013807Y0096023D01*
X0014366Y0095463D01*
X0015937Y0094813D01*
X0017638Y0094813D01*
X0019209Y0095463D01*
X0020411Y0096666D01*
X0021062Y0098237D01*
X0021062Y0105338D01*
X0020411Y0106909D01*
X0019209Y0108111D01*
X0017638Y0108762D01*
X0015937Y0108762D01*
X0014366Y0108111D01*
X0013756Y0107501D01*
X0013756Y0126073D01*
X0014366Y0125463D01*
X0015937Y0124813D01*
X0017638Y0124813D01*
X0019209Y0125463D01*
X0020411Y0126666D01*
X0021062Y0128237D01*
X0021062Y0135338D01*
X0020411Y0136909D01*
X0019209Y0138111D01*
X0017638Y0138762D01*
X0015937Y0138762D01*
X0014366Y0138111D01*
X0013756Y0137501D01*
X0013756Y0141073D01*
X0014366Y0140463D01*
X0015937Y0139813D01*
X0017638Y0139813D01*
X0019209Y0140463D01*
X0020411Y0141666D01*
X0021062Y0143237D01*
X0021062Y0150338D01*
X0020411Y0151909D01*
X0019209Y0153111D01*
X0017638Y0153762D01*
X0015937Y0153762D01*
X0014366Y0153111D01*
X0013756Y0152501D01*
X0013756Y0170972D01*
X0013807Y0171023D01*
X0014366Y0170463D01*
X0015937Y0169813D01*
X0017638Y0169813D01*
X0019209Y0170463D01*
X0020411Y0171666D01*
X0021062Y0173237D01*
X0021062Y0180338D01*
X0020411Y0181909D01*
X0019588Y0182732D01*
X0023987Y0182732D01*
X0023163Y0181909D01*
X0022513Y0180338D01*
X0022513Y0173237D01*
X0023163Y0171666D01*
X0024366Y0170463D01*
X0025937Y0169813D01*
X0027638Y0169813D01*
X0029209Y0170463D01*
X0030411Y0171666D01*
X0031062Y0173237D01*
X0031062Y0180338D01*
X0030411Y0181909D01*
X0029588Y0182732D01*
X0033987Y0182732D01*
X0033163Y0181909D01*
X0032513Y0180338D01*
X0032513Y0173237D01*
X0033163Y0171666D01*
X0034366Y0170463D01*
X0035937Y0169813D01*
X0037638Y0169813D01*
X0039209Y0170463D01*
X0039768Y0171023D01*
X0039819Y0170972D01*
X0039819Y0152501D01*
X0039209Y0153111D01*
X0037638Y0153762D01*
X0035937Y0153762D01*
X0034366Y0153111D01*
X0033163Y0151909D01*
X0032513Y0150338D01*
X0032513Y0143237D01*
X0033163Y0141666D01*
X0034366Y0140463D01*
X0035937Y0139813D01*
X0037638Y0139813D01*
X0039209Y0140463D01*
X0039819Y0141073D01*
X0039819Y0137501D01*
X0039209Y0138111D01*
X0037638Y0138762D01*
X0035937Y0138762D01*
X0034366Y0138111D01*
X0033163Y0136909D01*
X0032513Y0135338D01*
X0032513Y0128237D01*
X0033163Y0126666D01*
X0034366Y0125463D01*
X0035937Y0124813D01*
X0037638Y0124813D01*
X0039209Y0125463D01*
X0039819Y0126073D01*
X0039819Y0107603D01*
X0039768Y0107552D01*
X0039209Y0108111D01*
X0037638Y0108762D01*
X0035937Y0108762D01*
X0034366Y0108111D01*
X0033163Y0106909D01*
X0032513Y0105338D01*
X0032513Y0098237D01*
X0033163Y0096666D01*
X0034366Y0095463D01*
X0035937Y0094813D01*
X0037638Y0094813D01*
X0039209Y0095463D01*
X0039819Y0096073D01*
X0039819Y0092603D01*
X0039768Y0092552D01*
X0039209Y0093111D01*
X0037638Y0093762D01*
X0035937Y0093762D01*
X0034366Y0093111D01*
X0033163Y0091909D01*
X0032513Y0090338D01*
X0032513Y0083237D01*
X0033163Y0081666D01*
X0034366Y0080463D01*
X0035937Y0079813D01*
X0037638Y0079813D01*
X0039209Y0080463D01*
X0039819Y0081073D01*
X0039819Y0062603D01*
X0039768Y0062552D01*
X0039209Y0063111D01*
X0037638Y0063762D01*
X0035937Y0063762D01*
X0034366Y0063111D01*
X0033163Y0061909D01*
X0032513Y0060338D01*
X0032513Y0053237D01*
X0033163Y0051666D01*
X0034366Y0050463D01*
X0035937Y0049813D01*
X0037638Y0049813D01*
X0039209Y0050463D01*
X0039819Y0051073D01*
X0039819Y0047603D01*
X0039768Y0047552D01*
X0039209Y0048111D01*
X0037638Y0048762D01*
X0035937Y0048762D01*
X0034366Y0048111D01*
X0033163Y0046909D01*
X0032513Y0045338D01*
X0032513Y0038237D01*
X0033163Y0036666D01*
X0034366Y0035463D01*
X0035937Y0034813D01*
X0037638Y0034813D01*
X0039209Y0035463D01*
X0039819Y0036073D01*
X0039819Y0017501D01*
X0039209Y0018111D01*
X0037638Y0018762D01*
X0035937Y0018762D01*
X0034366Y0018111D01*
X0033163Y0016909D01*
X0032513Y0015338D01*
X0032513Y0008237D01*
X0033163Y0006666D01*
X0034366Y0005463D01*
X0035937Y0004813D01*
X0037638Y0004813D01*
X0039209Y0005463D01*
X0040411Y0006666D01*
X0041062Y0008237D01*
X0041062Y0010778D01*
X0041256Y0010972D01*
X0043756Y0013472D01*
X0043756Y0040972D01*
X0048756Y0045972D01*
X0048756Y0052498D01*
X0049040Y0052782D01*
X0049445Y0053759D01*
X0049445Y0054816D01*
X0049040Y0055793D01*
X0048293Y0056540D01*
X0047316Y0056945D01*
X0046259Y0056945D01*
X0045282Y0056540D01*
X0044534Y0055793D01*
X0044130Y0054816D01*
X0044130Y0053759D01*
X0044534Y0052782D01*
X0044819Y0052498D01*
X0044819Y0047603D01*
X0043756Y0046540D01*
X0043756Y0055972D01*
X0048756Y0060972D01*
X0048756Y0079998D01*
X0049040Y0080282D01*
X0049445Y0081259D01*
X0049445Y0082316D01*
X0049040Y0083293D01*
X0048293Y0084040D01*
X0047316Y0084445D01*
X0046259Y0084445D01*
X0045282Y0084040D01*
X0044534Y0083293D01*
X0044130Y0082316D01*
X0044130Y0081259D01*
X0044534Y0080282D01*
X0044819Y0079998D01*
X0044819Y0062603D01*
X0043756Y0061540D01*
X0043756Y0085972D01*
X0048756Y0090972D01*
X0048756Y0097498D01*
X0049040Y0097782D01*
X0049445Y0098759D01*
X0049445Y0099816D01*
X0049040Y0100793D01*
X0048293Y0101540D01*
X0047316Y0101945D01*
X0046259Y0101945D01*
X0045282Y0101540D01*
X0044534Y0100793D01*
X0044130Y0099816D01*
X0044130Y0098759D01*
X0044534Y0097782D01*
X0044819Y0097498D01*
X0044819Y0092603D01*
X0043756Y0091540D01*
X0043756Y0100972D01*
X0048756Y0105972D01*
X0048756Y0124998D01*
X0049040Y0125282D01*
X0049445Y0126259D01*
X0049445Y0127316D01*
X0049040Y0128293D01*
X0048293Y0129040D01*
X0047316Y0129445D01*
X0046259Y0129445D01*
X0045282Y0129040D01*
X0044534Y0128293D01*
X0044130Y0127316D01*
X0044130Y0126259D01*
X0044534Y0125282D01*
X0044819Y0124998D01*
X0044819Y0107603D01*
X0043756Y0106540D01*
X0043756Y0128472D01*
X0047603Y0132319D01*
X0048756Y0133472D01*
X0048756Y0144998D01*
X0049040Y0145282D01*
X0049445Y0146259D01*
X0049445Y0147316D01*
X0049040Y0148293D01*
X0048293Y0149040D01*
X0047316Y0149445D01*
X0046259Y0149445D01*
X0045282Y0149040D01*
X0044534Y0148293D01*
X0044130Y0147316D01*
X0044130Y0146259D01*
X0044534Y0145282D01*
X0044819Y0144998D01*
X0044819Y0135103D01*
X0043756Y0134040D01*
X0043756Y0172603D01*
X0042603Y0173756D01*
X0041062Y0175296D01*
X0041062Y0180338D01*
X0040411Y0181909D01*
X0039588Y0182732D01*
X0153953Y0182732D01*
X0153953Y0139287D01*
X0118756Y0139287D01*
X0118756Y0142074D01*
X0121512Y0144830D01*
X0121512Y0148744D01*
X0118744Y0151512D01*
X0114830Y0151512D01*
X0112063Y0148744D01*
X0112063Y0144830D01*
X0114819Y0142074D01*
X0114819Y0139287D01*
X0096787Y0139287D01*
X0096787Y0117682D01*
X0094673Y0115567D01*
X0064207Y0115567D01*
X0063923Y0115851D01*
X0062946Y0116256D01*
X0061889Y0116256D01*
X0060912Y0115851D01*
X0060164Y0115104D01*
X0059760Y0114127D01*
X0059760Y0113070D01*
X0060164Y0112093D01*
X0060912Y0111346D01*
X0061889Y0110941D01*
X0062946Y0110941D01*
X0063923Y0111346D01*
X0064207Y0111630D01*
X0096304Y0111630D01*
X0096787Y0112114D01*
X0096787Y0095182D01*
X0096429Y0095331D01*
X0093756Y0095331D01*
X0093756Y0102603D01*
X0092603Y0103756D01*
X0090103Y0106256D01*
X0061512Y0106256D01*
X0061512Y0108744D01*
X0058744Y0111512D01*
X0054830Y0111512D01*
X0052063Y0108744D01*
X0052063Y0104830D01*
X0054830Y0102063D01*
X0058744Y0102063D01*
X0059001Y0102319D01*
X0088472Y0102319D01*
X0089819Y0100972D01*
X0089819Y0094807D01*
X0089780Y0094791D01*
X0089287Y0094298D01*
X0088795Y0094791D01*
X0088756Y0094807D01*
X0088756Y0095103D01*
X0087603Y0096256D01*
X0085103Y0098756D01*
X0061501Y0098756D01*
X0058744Y0101512D01*
X0054830Y0101512D01*
X0052063Y0098744D01*
X0052063Y0094830D01*
X0054830Y0092063D01*
X0058744Y0092063D01*
X0061501Y0094819D01*
X0080910Y0094819D01*
X0080843Y0094791D01*
X0079847Y0093795D01*
X0079307Y0092492D01*
X0079307Y0091083D01*
X0079847Y0089780D01*
X0080339Y0089287D01*
X0079847Y0088795D01*
X0079307Y0087492D01*
X0079307Y0086083D01*
X0079847Y0084780D01*
X0080339Y0084287D01*
X0080202Y0084150D01*
X0062766Y0084150D01*
X0061512Y0085403D01*
X0061512Y0088744D01*
X0058744Y0091512D01*
X0054830Y0091512D01*
X0052063Y0088744D01*
X0052063Y0084830D01*
X0054830Y0082063D01*
X0058172Y0082063D01*
X0059425Y0080809D01*
X0060809Y0079425D01*
X0080202Y0079425D01*
X0080843Y0078784D01*
X0082146Y0078244D01*
X0087492Y0078244D01*
X0088795Y0078784D01*
X0089287Y0079276D01*
X0089780Y0078784D01*
X0091083Y0078244D01*
X0096429Y0078244D01*
X0096787Y0078392D01*
X0096787Y0075182D01*
X0096429Y0075331D01*
X0091083Y0075331D01*
X0089780Y0074791D01*
X0089287Y0074298D01*
X0088795Y0074791D01*
X0087492Y0075331D01*
X0082146Y0075331D01*
X0080843Y0074791D01*
X0080214Y0074162D01*
X0075804Y0074162D01*
X0074413Y0072771D01*
X0070804Y0069162D01*
X0061094Y0069162D01*
X0058744Y0071512D01*
X0054830Y0071512D01*
X0052063Y0068744D01*
X0052063Y0064830D01*
X0054830Y0062063D01*
X0058744Y0062063D01*
X0061094Y0064413D01*
X0072771Y0064413D01*
X0074162Y0065804D01*
X0077771Y0069413D01*
X0080214Y0069413D01*
X0080843Y0068784D01*
X0082146Y0068244D01*
X0087492Y0068244D01*
X0088795Y0068784D01*
X0089287Y0069276D01*
X0089780Y0068784D01*
X0091083Y0068244D01*
X0096429Y0068244D01*
X0096787Y0068392D01*
X0096787Y0046787D01*
X0097457Y0046787D01*
X0097457Y0046697D01*
X0096248Y0045488D01*
X0086855Y0045488D01*
X0085547Y0046796D01*
X0085547Y0047198D01*
X0085143Y0048175D01*
X0084395Y0048922D01*
X0083418Y0049327D01*
X0082361Y0049327D01*
X0081384Y0048922D01*
X0080637Y0048175D01*
X0080232Y0047198D01*
X0080232Y0046141D01*
X0080637Y0045164D01*
X0081384Y0044416D01*
X0082361Y0044012D01*
X0082763Y0044012D01*
X0085224Y0041551D01*
X0097878Y0041551D01*
X0099031Y0042704D01*
X0101394Y0045066D01*
X0101394Y0046787D01*
X0101394Y0045854D01*
X0102547Y0044701D01*
X0104909Y0042339D01*
X0145066Y0042339D01*
X0145893Y0041512D01*
X0144830Y0041512D01*
X0142063Y0038744D01*
X0142063Y0034830D01*
X0143747Y0033145D01*
X0140429Y0029827D01*
X0138744Y0031512D01*
X0134830Y0031512D01*
X0132063Y0028744D01*
X0132063Y0024846D01*
X0130972Y0023756D01*
X0130438Y0023756D01*
X0131512Y0024830D01*
X0131512Y0028744D01*
X0128744Y0031512D01*
X0124830Y0031512D01*
X0122063Y0028744D01*
X0122063Y0024830D01*
X0123137Y0023756D01*
X0120438Y0023756D01*
X0121512Y0024830D01*
X0121512Y0028744D01*
X0118744Y0031512D01*
X0114830Y0031512D01*
X0112063Y0028744D01*
X0112063Y0024830D01*
X0113137Y0023756D01*
X0110972Y0023756D01*
X0109819Y0022603D01*
X0109082Y0021866D01*
X0104365Y0021866D01*
X0104080Y0022151D01*
X0103103Y0022555D01*
X0102046Y0022555D01*
X0101069Y0022151D01*
X0100322Y0021403D01*
X0099917Y0020426D01*
X0099917Y0019369D01*
X0100322Y0018392D01*
X0101069Y0017645D01*
X0102046Y0017240D01*
X0103103Y0017240D01*
X0104080Y0017645D01*
X0104365Y0017929D01*
X0110713Y0017929D01*
X0112603Y0019819D01*
X0113137Y0019819D01*
X0112063Y0018744D01*
X0112063Y0014830D01*
X0114830Y0012063D01*
X0118744Y0012063D01*
X0121512Y0014830D01*
X0121512Y0015567D01*
X0134886Y0015567D01*
X0142760Y0023441D01*
X0143106Y0023787D01*
X0144830Y0022063D01*
X0148744Y0022063D01*
X0151512Y0024830D01*
X0151512Y0028744D01*
X0149788Y0030469D01*
X0152209Y0032890D01*
X0153362Y0034043D01*
X0153362Y0039611D01*
X0148322Y0044651D01*
X0148795Y0044847D01*
X0149287Y0045339D01*
X0149780Y0044847D01*
X0151083Y0044307D01*
X0152492Y0044307D01*
X0153795Y0044847D01*
X0153953Y0045005D01*
X0153953Y0004543D01*
X0004543Y0004543D01*
X0004543Y0004934D02*
X0015644Y0004934D01*
X0017931Y0004934D02*
X0025644Y0004934D01*
X0025937Y0004813D02*
X0027638Y0004813D01*
X0029209Y0005463D01*
X0030411Y0006666D01*
X0031062Y0008237D01*
X0031062Y0015338D01*
X0030411Y0016909D01*
X0029209Y0018111D01*
X0027638Y0018762D01*
X0025937Y0018762D01*
X0024366Y0018111D01*
X0023163Y0016909D01*
X0022513Y0015338D01*
X0022513Y0008237D01*
X0023163Y0006666D01*
X0024366Y0005463D01*
X0025937Y0004813D01*
X0027931Y0004934D02*
X0035644Y0004934D01*
X0037931Y0004934D02*
X0153953Y0004934D01*
X0153953Y0006507D02*
X0040253Y0006507D01*
X0040997Y0008081D02*
X0153953Y0008081D01*
X0153953Y0009654D02*
X0041062Y0009654D01*
X0041511Y0011227D02*
X0153953Y0011227D01*
X0153953Y0012801D02*
X0119482Y0012801D01*
X0121056Y0014374D02*
X0153953Y0014374D01*
X0153953Y0015947D02*
X0135267Y0015947D01*
X0136840Y0017521D02*
X0153953Y0017521D01*
X0153953Y0019094D02*
X0138413Y0019094D01*
X0139986Y0020667D02*
X0153953Y0020667D01*
X0153953Y0022240D02*
X0148922Y0022240D01*
X0150496Y0023814D02*
X0153953Y0023814D01*
X0153953Y0025387D02*
X0151512Y0025387D01*
X0151512Y0026960D02*
X0153953Y0026960D01*
X0153953Y0028534D02*
X0151512Y0028534D01*
X0150150Y0030107D02*
X0153953Y0030107D01*
X0153953Y0031680D02*
X0151000Y0031680D01*
X0152209Y0032890D02*
X0152209Y0032890D01*
X0152573Y0033254D02*
X0153953Y0033254D01*
X0153953Y0034827D02*
X0153362Y0034827D01*
X0153362Y0036400D02*
X0153953Y0036400D01*
X0153953Y0037974D02*
X0153362Y0037974D01*
X0153362Y0039547D02*
X0153953Y0039547D01*
X0153953Y0041120D02*
X0151853Y0041120D01*
X0150279Y0042694D02*
X0153953Y0042694D01*
X0153953Y0044267D02*
X0148706Y0044267D01*
X0144438Y0041120D02*
X0139136Y0041120D01*
X0138744Y0041512D02*
X0134830Y0041512D01*
X0132063Y0038744D01*
X0132063Y0034830D01*
X0134830Y0032063D01*
X0138744Y0032063D01*
X0141512Y0034830D01*
X0141512Y0038744D01*
X0138744Y0041512D01*
X0140710Y0039547D02*
X0142865Y0039547D01*
X0142063Y0037974D02*
X0141512Y0037974D01*
X0141512Y0036400D02*
X0142063Y0036400D01*
X0142066Y0034827D02*
X0141509Y0034827D01*
X0139936Y0033254D02*
X0143639Y0033254D01*
X0142282Y0031680D02*
X0043756Y0031680D01*
X0043756Y0030107D02*
X0053425Y0030107D01*
X0052063Y0028744D02*
X0052063Y0024830D01*
X0054830Y0022063D01*
X0058744Y0022063D01*
X0061512Y0024830D01*
X0061512Y0028744D01*
X0058744Y0031512D01*
X0054830Y0031512D01*
X0052063Y0028744D01*
X0052063Y0028534D02*
X0043756Y0028534D01*
X0043756Y0026960D02*
X0052063Y0026960D01*
X0052063Y0025387D02*
X0043756Y0025387D01*
X0043756Y0023814D02*
X0053079Y0023814D01*
X0054652Y0022240D02*
X0043756Y0022240D01*
X0043756Y0020667D02*
X0100017Y0020667D01*
X0100031Y0019094D02*
X0043756Y0019094D01*
X0043756Y0017521D02*
X0101369Y0017521D01*
X0103780Y0017521D02*
X0112063Y0017521D01*
X0112063Y0015947D02*
X0043756Y0015947D01*
X0043756Y0014374D02*
X0112519Y0014374D01*
X0114092Y0012801D02*
X0043084Y0012801D01*
X0039819Y0017521D02*
X0039800Y0017521D01*
X0039819Y0019094D02*
X0013756Y0019094D01*
X0013756Y0020667D02*
X0039819Y0020667D01*
X0039819Y0022240D02*
X0013756Y0022240D01*
X0013756Y0023814D02*
X0039819Y0023814D01*
X0039819Y0025387D02*
X0013756Y0025387D01*
X0013756Y0026960D02*
X0039819Y0026960D01*
X0039819Y0028534D02*
X0013756Y0028534D01*
X0013756Y0030107D02*
X0039819Y0030107D01*
X0039819Y0031680D02*
X0013756Y0031680D01*
X0013756Y0033254D02*
X0039819Y0033254D01*
X0039819Y0034827D02*
X0037672Y0034827D01*
X0035902Y0034827D02*
X0027672Y0034827D01*
X0027638Y0034813D02*
X0029209Y0035463D01*
X0030411Y0036666D01*
X0031062Y0038237D01*
X0031062Y0045338D01*
X0030411Y0046909D01*
X0029209Y0048111D01*
X0027638Y0048762D01*
X0025937Y0048762D01*
X0024366Y0048111D01*
X0023163Y0046909D01*
X0022513Y0045338D01*
X0022513Y0038237D01*
X0023163Y0036666D01*
X0024366Y0035463D01*
X0025937Y0034813D01*
X0027638Y0034813D01*
X0025902Y0034827D02*
X0017672Y0034827D01*
X0015902Y0034827D02*
X0013756Y0034827D01*
X0009819Y0034827D02*
X0004543Y0034827D01*
X0004543Y0036400D02*
X0009819Y0036400D01*
X0009819Y0037974D02*
X0004543Y0037974D01*
X0004543Y0039547D02*
X0009819Y0039547D01*
X0009819Y0041120D02*
X0004543Y0041120D01*
X0004543Y0042694D02*
X0004623Y0042694D01*
X0008952Y0042694D02*
X0009819Y0042694D01*
X0009819Y0044267D02*
X0009445Y0044267D01*
X0009819Y0045840D02*
X0008993Y0045840D01*
X0008756Y0047414D02*
X0009819Y0047414D01*
X0009819Y0048987D02*
X0008756Y0048987D01*
X0008756Y0050560D02*
X0009819Y0050560D01*
X0009819Y0052133D02*
X0008756Y0052133D01*
X0008991Y0053707D02*
X0009819Y0053707D01*
X0013756Y0050560D02*
X0014269Y0050560D01*
X0013756Y0048987D02*
X0039819Y0048987D01*
X0039819Y0050560D02*
X0039306Y0050560D01*
X0043756Y0050560D02*
X0044819Y0050560D01*
X0044819Y0048987D02*
X0043756Y0048987D01*
X0043756Y0047414D02*
X0044630Y0047414D01*
X0047051Y0044267D02*
X0052626Y0044267D01*
X0052063Y0044830D02*
X0054830Y0042063D01*
X0058744Y0042063D01*
X0061512Y0044830D01*
X0061512Y0048744D01*
X0058744Y0051512D01*
X0054830Y0051512D01*
X0052063Y0048744D01*
X0052063Y0044830D01*
X0052063Y0045840D02*
X0048624Y0045840D01*
X0048756Y0047414D02*
X0052063Y0047414D01*
X0052305Y0048987D02*
X0048756Y0048987D01*
X0048756Y0050560D02*
X0053878Y0050560D01*
X0059697Y0050560D02*
X0063878Y0050560D01*
X0064830Y0051512D02*
X0062063Y0048744D01*
X0062063Y0044830D01*
X0064830Y0042063D01*
X0068744Y0042063D01*
X0071512Y0044830D01*
X0071512Y0048744D01*
X0068744Y0051512D01*
X0064830Y0051512D01*
X0062305Y0048987D02*
X0061270Y0048987D01*
X0061512Y0047414D02*
X0062063Y0047414D01*
X0062063Y0045840D02*
X0061512Y0045840D01*
X0060949Y0044267D02*
X0062626Y0044267D01*
X0064199Y0042694D02*
X0059375Y0042694D01*
X0058744Y0041512D02*
X0054830Y0041512D01*
X0052063Y0038744D01*
X0052063Y0034830D01*
X0054830Y0032063D01*
X0058744Y0032063D01*
X0061512Y0034830D01*
X0061512Y0038744D01*
X0058744Y0041512D01*
X0059136Y0041120D02*
X0064438Y0041120D01*
X0064830Y0041512D02*
X0062063Y0038744D01*
X0062063Y0034830D01*
X0064830Y0032063D01*
X0068744Y0032063D01*
X0071512Y0034830D01*
X0071512Y0038744D01*
X0068744Y0041512D01*
X0064830Y0041512D01*
X0062865Y0039547D02*
X0060710Y0039547D01*
X0061512Y0037974D02*
X0062063Y0037974D01*
X0062063Y0036400D02*
X0061512Y0036400D01*
X0061509Y0034827D02*
X0062066Y0034827D01*
X0063639Y0033254D02*
X0059936Y0033254D01*
X0060150Y0030107D02*
X0063425Y0030107D01*
X0062063Y0028744D02*
X0062063Y0024830D01*
X0064830Y0022063D01*
X0068744Y0022063D01*
X0071512Y0024830D01*
X0071512Y0028744D01*
X0068744Y0031512D01*
X0064830Y0031512D01*
X0062063Y0028744D01*
X0062063Y0028534D02*
X0061512Y0028534D01*
X0061512Y0026960D02*
X0062063Y0026960D01*
X0062063Y0025387D02*
X0061512Y0025387D01*
X0060496Y0023814D02*
X0063079Y0023814D01*
X0064652Y0022240D02*
X0058922Y0022240D01*
X0068922Y0022240D02*
X0074652Y0022240D01*
X0074830Y0022063D02*
X0078744Y0022063D01*
X0081512Y0024830D01*
X0081512Y0028744D01*
X0078744Y0031512D01*
X0074830Y0031512D01*
X0072063Y0028744D01*
X0072063Y0024830D01*
X0074830Y0022063D01*
X0073079Y0023814D02*
X0070496Y0023814D01*
X0071512Y0025387D02*
X0072063Y0025387D01*
X0072063Y0026960D02*
X0071512Y0026960D01*
X0071512Y0028534D02*
X0072063Y0028534D01*
X0073425Y0030107D02*
X0070150Y0030107D01*
X0069936Y0033254D02*
X0073639Y0033254D01*
X0074830Y0032063D02*
X0072063Y0034830D01*
X0072063Y0038744D01*
X0074830Y0041512D01*
X0078744Y0041512D01*
X0081512Y0038744D01*
X0081512Y0034830D01*
X0078744Y0032063D01*
X0074830Y0032063D01*
X0072066Y0034827D02*
X0071509Y0034827D01*
X0071512Y0036400D02*
X0072063Y0036400D01*
X0072063Y0037974D02*
X0071512Y0037974D01*
X0070710Y0039547D02*
X0072865Y0039547D01*
X0074438Y0041120D02*
X0069136Y0041120D01*
X0069375Y0042694D02*
X0084082Y0042694D01*
X0084830Y0041512D02*
X0082063Y0038744D01*
X0082063Y0034830D01*
X0084830Y0032063D01*
X0088744Y0032063D01*
X0091512Y0034830D01*
X0091512Y0038744D01*
X0088744Y0041512D01*
X0084830Y0041512D01*
X0084438Y0041120D02*
X0079136Y0041120D01*
X0080710Y0039547D02*
X0082865Y0039547D01*
X0082063Y0037974D02*
X0081512Y0037974D01*
X0081512Y0036400D02*
X0082063Y0036400D01*
X0082066Y0034827D02*
X0081509Y0034827D01*
X0079936Y0033254D02*
X0083639Y0033254D01*
X0084830Y0031512D02*
X0082063Y0028744D01*
X0082063Y0024830D01*
X0084830Y0022063D01*
X0088744Y0022063D01*
X0091512Y0024830D01*
X0091512Y0028744D01*
X0088744Y0031512D01*
X0084830Y0031512D01*
X0083425Y0030107D02*
X0080150Y0030107D01*
X0081512Y0028534D02*
X0082063Y0028534D01*
X0082063Y0026960D02*
X0081512Y0026960D01*
X0081512Y0025387D02*
X0082063Y0025387D01*
X0083079Y0023814D02*
X0080496Y0023814D01*
X0078922Y0022240D02*
X0084652Y0022240D01*
X0088922Y0022240D02*
X0094652Y0022240D01*
X0094830Y0022063D02*
X0098744Y0022063D01*
X0101512Y0024830D01*
X0101512Y0028744D01*
X0098744Y0031512D01*
X0094830Y0031512D01*
X0092063Y0028744D01*
X0092063Y0024830D01*
X0094830Y0022063D01*
X0093079Y0023814D02*
X0090496Y0023814D01*
X0091512Y0025387D02*
X0092063Y0025387D01*
X0092063Y0026960D02*
X0091512Y0026960D01*
X0091512Y0028534D02*
X0092063Y0028534D01*
X0093425Y0030107D02*
X0090150Y0030107D01*
X0089936Y0033254D02*
X0093639Y0033254D01*
X0094830Y0032063D02*
X0092063Y0034830D01*
X0092063Y0038744D01*
X0094830Y0041512D01*
X0098744Y0041512D01*
X0101512Y0038744D01*
X0101512Y0034830D01*
X0098744Y0032063D01*
X0094830Y0032063D01*
X0092066Y0034827D02*
X0091509Y0034827D01*
X0091512Y0036400D02*
X0092063Y0036400D01*
X0092063Y0037974D02*
X0091512Y0037974D01*
X0090710Y0039547D02*
X0092865Y0039547D01*
X0094438Y0041120D02*
X0089136Y0041120D01*
X0086503Y0045840D02*
X0096600Y0045840D01*
X0096787Y0047414D02*
X0085458Y0047414D01*
X0084239Y0048987D02*
X0096787Y0048987D01*
X0096787Y0050560D02*
X0069697Y0050560D01*
X0071270Y0048987D02*
X0081541Y0048987D01*
X0080322Y0047414D02*
X0071512Y0047414D01*
X0071512Y0045840D02*
X0080357Y0045840D01*
X0081745Y0044267D02*
X0070949Y0044267D01*
X0054438Y0041120D02*
X0043904Y0041120D01*
X0043756Y0039547D02*
X0052865Y0039547D01*
X0052063Y0037974D02*
X0043756Y0037974D01*
X0043756Y0036400D02*
X0052063Y0036400D01*
X0052066Y0034827D02*
X0043756Y0034827D01*
X0043756Y0033254D02*
X0053639Y0033254D01*
X0054199Y0042694D02*
X0045477Y0042694D01*
X0044819Y0052133D02*
X0043756Y0052133D01*
X0043756Y0053707D02*
X0044151Y0053707D01*
X0044322Y0055280D02*
X0043756Y0055280D01*
X0044637Y0056853D02*
X0046038Y0056853D01*
X0047537Y0056853D02*
X0096787Y0056853D01*
X0096787Y0055280D02*
X0049253Y0055280D01*
X0049423Y0053707D02*
X0096787Y0053707D01*
X0096787Y0052133D02*
X0048756Y0052133D01*
X0046211Y0058427D02*
X0096787Y0058427D01*
X0096787Y0060000D02*
X0047784Y0060000D01*
X0048756Y0061573D02*
X0096787Y0061573D01*
X0096787Y0063147D02*
X0059829Y0063147D01*
X0053746Y0063147D02*
X0048756Y0063147D01*
X0048756Y0064720D02*
X0052173Y0064720D01*
X0052063Y0066293D02*
X0048756Y0066293D01*
X0048756Y0067867D02*
X0052063Y0067867D01*
X0052758Y0069440D02*
X0048756Y0069440D01*
X0048756Y0071013D02*
X0054331Y0071013D01*
X0059243Y0071013D02*
X0072655Y0071013D01*
X0071081Y0069440D02*
X0060817Y0069440D01*
X0056787Y0076787D02*
X0086787Y0076787D01*
X0091787Y0076787D01*
X0089684Y0078880D02*
X0088891Y0078880D01*
X0086787Y0081787D02*
X0091787Y0081787D01*
X0086787Y0081787D02*
X0061787Y0081787D01*
X0056787Y0086787D01*
X0052063Y0086746D02*
X0044530Y0086746D01*
X0043756Y0085173D02*
X0052063Y0085173D01*
X0053293Y0083600D02*
X0048733Y0083600D01*
X0049445Y0082026D02*
X0058208Y0082026D01*
X0059781Y0080453D02*
X0049111Y0080453D01*
X0048756Y0078880D02*
X0080747Y0078880D01*
X0079684Y0085173D02*
X0061742Y0085173D01*
X0061512Y0086746D02*
X0079307Y0086746D01*
X0079650Y0088320D02*
X0061512Y0088320D01*
X0060364Y0089893D02*
X0079800Y0089893D01*
X0079307Y0091466D02*
X0058790Y0091466D01*
X0059722Y0093040D02*
X0079534Y0093040D01*
X0080665Y0094613D02*
X0061295Y0094613D01*
X0060924Y0099333D02*
X0089819Y0099333D01*
X0089819Y0100906D02*
X0059350Y0100906D01*
X0054224Y0100906D02*
X0048927Y0100906D01*
X0049445Y0099333D02*
X0052651Y0099333D01*
X0052063Y0097760D02*
X0049018Y0097760D01*
X0048756Y0096186D02*
X0052063Y0096186D01*
X0052280Y0094613D02*
X0048756Y0094613D01*
X0048756Y0093040D02*
X0053853Y0093040D01*
X0054784Y0091466D02*
X0048756Y0091466D01*
X0047677Y0089893D02*
X0053211Y0089893D01*
X0052063Y0088320D02*
X0046104Y0088320D01*
X0044819Y0093040D02*
X0043756Y0093040D01*
X0043756Y0094613D02*
X0044819Y0094613D01*
X0044819Y0096186D02*
X0043756Y0096186D01*
X0043756Y0097760D02*
X0044557Y0097760D01*
X0044130Y0099333D02*
X0043756Y0099333D01*
X0043756Y0100906D02*
X0044648Y0100906D01*
X0045263Y0102480D02*
X0054413Y0102480D01*
X0052840Y0104053D02*
X0046837Y0104053D01*
X0048410Y0105626D02*
X0052063Y0105626D01*
X0052063Y0107199D02*
X0048756Y0107199D01*
X0048756Y0108773D02*
X0052091Y0108773D01*
X0053664Y0110346D02*
X0048756Y0110346D01*
X0048756Y0111919D02*
X0060338Y0111919D01*
X0059911Y0110346D02*
X0096787Y0110346D01*
X0096787Y0108773D02*
X0061484Y0108773D01*
X0061512Y0107199D02*
X0096787Y0107199D01*
X0096787Y0105626D02*
X0090733Y0105626D01*
X0092306Y0104053D02*
X0096787Y0104053D01*
X0096787Y0102480D02*
X0093756Y0102480D01*
X0093756Y0100906D02*
X0096787Y0100906D01*
X0096787Y0099333D02*
X0093756Y0099333D01*
X0093756Y0097760D02*
X0096787Y0097760D01*
X0096787Y0096186D02*
X0093756Y0096186D01*
X0089819Y0096186D02*
X0087672Y0096186D01*
X0088973Y0094613D02*
X0089602Y0094613D01*
X0089819Y0097760D02*
X0086099Y0097760D01*
X0096593Y0111919D02*
X0096787Y0111919D01*
X0095745Y0116639D02*
X0048756Y0116639D01*
X0048756Y0115066D02*
X0060149Y0115066D01*
X0059760Y0113493D02*
X0048756Y0113493D01*
X0044819Y0113493D02*
X0043756Y0113493D01*
X0043756Y0115066D02*
X0044819Y0115066D01*
X0044819Y0116639D02*
X0043756Y0116639D01*
X0043756Y0118213D02*
X0044819Y0118213D01*
X0044819Y0119786D02*
X0043756Y0119786D01*
X0043756Y0121359D02*
X0044819Y0121359D01*
X0044819Y0122933D02*
X0043756Y0122933D01*
X0043756Y0124506D02*
X0044819Y0124506D01*
X0044204Y0126079D02*
X0043756Y0126079D01*
X0043756Y0127653D02*
X0044269Y0127653D01*
X0044510Y0129226D02*
X0045730Y0129226D01*
X0046083Y0130799D02*
X0096787Y0130799D01*
X0096787Y0129226D02*
X0047845Y0129226D01*
X0049305Y0127653D02*
X0096787Y0127653D01*
X0096787Y0126079D02*
X0049370Y0126079D01*
X0048756Y0124506D02*
X0096787Y0124506D01*
X0096787Y0122933D02*
X0048756Y0122933D01*
X0048756Y0121359D02*
X0096787Y0121359D01*
X0096787Y0119786D02*
X0048756Y0119786D01*
X0048756Y0118213D02*
X0096787Y0118213D01*
X0096787Y0132373D02*
X0047656Y0132373D01*
X0048756Y0133946D02*
X0096787Y0133946D01*
X0096787Y0135519D02*
X0048756Y0135519D01*
X0048756Y0137092D02*
X0096787Y0137092D01*
X0096787Y0138666D02*
X0048756Y0138666D01*
X0048756Y0140239D02*
X0114819Y0140239D01*
X0114819Y0141812D02*
X0048756Y0141812D01*
X0048756Y0143386D02*
X0103507Y0143386D01*
X0104830Y0142063D02*
X0108744Y0142063D01*
X0111512Y0144830D01*
X0111512Y0148744D01*
X0108744Y0151512D01*
X0104830Y0151512D01*
X0102063Y0148744D01*
X0102063Y0144830D01*
X0104830Y0142063D01*
X0102063Y0144959D02*
X0048756Y0144959D01*
X0049445Y0146532D02*
X0102063Y0146532D01*
X0102063Y0148106D02*
X0049118Y0148106D01*
X0044457Y0148106D02*
X0043756Y0148106D01*
X0043756Y0149679D02*
X0102997Y0149679D01*
X0104570Y0151252D02*
X0043756Y0151252D01*
X0043756Y0152826D02*
X0104067Y0152826D01*
X0104830Y0152063D02*
X0102063Y0154830D01*
X0102063Y0158744D01*
X0104830Y0161512D01*
X0108744Y0161512D01*
X0111512Y0158744D01*
X0111512Y0154830D01*
X0108744Y0152063D01*
X0104830Y0152063D01*
X0102494Y0154399D02*
X0043756Y0154399D01*
X0043756Y0155972D02*
X0102063Y0155972D01*
X0102063Y0157546D02*
X0043756Y0157546D01*
X0043756Y0159119D02*
X0102437Y0159119D01*
X0104010Y0160692D02*
X0043756Y0160692D01*
X0043756Y0162265D02*
X0134627Y0162265D01*
X0134830Y0162063D02*
X0138744Y0162063D01*
X0139976Y0163295D01*
X0139976Y0160280D01*
X0138744Y0161512D01*
X0134830Y0161512D01*
X0132063Y0158744D01*
X0132063Y0154830D01*
X0134830Y0152063D01*
X0138744Y0152063D01*
X0139976Y0153295D01*
X0139976Y0151366D01*
X0142330Y0149012D01*
X0142063Y0148744D01*
X0142063Y0144830D01*
X0144830Y0142063D01*
X0148744Y0142063D01*
X0151512Y0144830D01*
X0151512Y0148744D01*
X0148744Y0151512D01*
X0145398Y0151512D01*
X0144847Y0152063D01*
X0148744Y0152063D01*
X0151512Y0154830D01*
X0151512Y0158744D01*
X0148744Y0161512D01*
X0144830Y0161512D01*
X0143913Y0160595D01*
X0143913Y0168745D01*
X0142760Y0169898D01*
X0139670Y0172988D01*
X0141512Y0174830D01*
X0141512Y0178744D01*
X0138744Y0181512D01*
X0134830Y0181512D01*
X0132063Y0178744D01*
X0132063Y0174830D01*
X0134830Y0172063D01*
X0135252Y0172063D01*
X0135252Y0171838D01*
X0135578Y0171512D01*
X0134830Y0171512D01*
X0132063Y0168744D01*
X0132063Y0164830D01*
X0134830Y0162063D01*
X0134010Y0160692D02*
X0129564Y0160692D01*
X0128744Y0161512D02*
X0124830Y0161512D01*
X0122063Y0158744D01*
X0122063Y0154830D01*
X0124830Y0152063D01*
X0128744Y0152063D01*
X0131512Y0154830D01*
X0131512Y0158744D01*
X0128744Y0161512D01*
X0131138Y0159119D02*
X0132437Y0159119D01*
X0132063Y0157546D02*
X0131512Y0157546D01*
X0131512Y0155972D02*
X0132063Y0155972D01*
X0132494Y0154399D02*
X0131081Y0154399D01*
X0129507Y0152826D02*
X0134067Y0152826D01*
X0134830Y0151512D02*
X0132063Y0148744D01*
X0132063Y0144830D01*
X0134830Y0142063D01*
X0138744Y0142063D01*
X0141512Y0144830D01*
X0141512Y0148744D01*
X0138744Y0151512D01*
X0134830Y0151512D01*
X0134570Y0151252D02*
X0129004Y0151252D01*
X0128744Y0151512D02*
X0124830Y0151512D01*
X0122063Y0148744D01*
X0122063Y0144830D01*
X0124830Y0142063D01*
X0128744Y0142063D01*
X0131512Y0144830D01*
X0131512Y0148744D01*
X0128744Y0151512D01*
X0130578Y0149679D02*
X0132997Y0149679D01*
X0132063Y0148106D02*
X0131512Y0148106D01*
X0131512Y0146532D02*
X0132063Y0146532D01*
X0132063Y0144959D02*
X0131512Y0144959D01*
X0130068Y0143386D02*
X0133507Y0143386D01*
X0140068Y0143386D02*
X0143507Y0143386D01*
X0142063Y0144959D02*
X0141512Y0144959D01*
X0141512Y0146532D02*
X0142063Y0146532D01*
X0142063Y0148106D02*
X0141512Y0148106D01*
X0141663Y0149679D02*
X0140578Y0149679D01*
X0140090Y0151252D02*
X0139004Y0151252D01*
X0139507Y0152826D02*
X0139976Y0152826D01*
X0139976Y0160692D02*
X0139564Y0160692D01*
X0139976Y0162265D02*
X0138947Y0162265D01*
X0143913Y0162265D02*
X0153953Y0162265D01*
X0153953Y0160692D02*
X0149564Y0160692D01*
X0151138Y0159119D02*
X0153953Y0159119D01*
X0153953Y0157546D02*
X0151512Y0157546D01*
X0151512Y0155972D02*
X0153953Y0155972D01*
X0153953Y0154399D02*
X0151081Y0154399D01*
X0149507Y0152826D02*
X0153953Y0152826D01*
X0153953Y0151252D02*
X0149004Y0151252D01*
X0150578Y0149679D02*
X0153953Y0149679D01*
X0153953Y0148106D02*
X0151512Y0148106D01*
X0151512Y0146532D02*
X0153953Y0146532D01*
X0153953Y0144959D02*
X0151512Y0144959D01*
X0150068Y0143386D02*
X0153953Y0143386D01*
X0153953Y0141812D02*
X0118756Y0141812D01*
X0118756Y0140239D02*
X0153953Y0140239D01*
X0144010Y0160692D02*
X0143913Y0160692D01*
X0143913Y0163839D02*
X0153953Y0163839D01*
X0153953Y0165412D02*
X0143913Y0165412D01*
X0143913Y0166985D02*
X0153953Y0166985D01*
X0153953Y0168559D02*
X0143913Y0168559D01*
X0142526Y0170132D02*
X0153953Y0170132D01*
X0153953Y0171705D02*
X0140953Y0171705D01*
X0139961Y0173279D02*
X0153953Y0173279D01*
X0153953Y0174852D02*
X0141512Y0174852D01*
X0141512Y0176425D02*
X0153953Y0176425D01*
X0153953Y0177999D02*
X0141512Y0177999D01*
X0140685Y0179572D02*
X0153953Y0179572D01*
X0153953Y0181145D02*
X0139111Y0181145D01*
X0134463Y0181145D02*
X0119111Y0181145D01*
X0118744Y0181512D02*
X0114830Y0181512D01*
X0112063Y0178744D01*
X0112063Y0174830D01*
X0114830Y0172063D01*
X0118744Y0172063D01*
X0121512Y0174830D01*
X0121512Y0178744D01*
X0118744Y0181512D01*
X0120685Y0179572D02*
X0132890Y0179572D01*
X0132063Y0177999D02*
X0121512Y0177999D01*
X0121512Y0176425D02*
X0132063Y0176425D01*
X0132063Y0174852D02*
X0121512Y0174852D01*
X0119961Y0173279D02*
X0133614Y0173279D01*
X0135385Y0171705D02*
X0043756Y0171705D01*
X0043756Y0170132D02*
X0133450Y0170132D01*
X0132063Y0168559D02*
X0043756Y0168559D01*
X0043756Y0166985D02*
X0132063Y0166985D01*
X0132063Y0165412D02*
X0043756Y0165412D01*
X0043756Y0163839D02*
X0133054Y0163839D01*
X0124010Y0160692D02*
X0119564Y0160692D01*
X0118744Y0161512D02*
X0114830Y0161512D01*
X0112063Y0158744D01*
X0112063Y0154830D01*
X0114830Y0152063D01*
X0118744Y0152063D01*
X0121512Y0154830D01*
X0121512Y0158744D01*
X0118744Y0161512D01*
X0121138Y0159119D02*
X0122437Y0159119D01*
X0122063Y0157546D02*
X0121512Y0157546D01*
X0121512Y0155972D02*
X0122063Y0155972D01*
X0122494Y0154399D02*
X0121081Y0154399D01*
X0119507Y0152826D02*
X0124067Y0152826D01*
X0124570Y0151252D02*
X0119004Y0151252D01*
X0120578Y0149679D02*
X0122997Y0149679D01*
X0122063Y0148106D02*
X0121512Y0148106D01*
X0121512Y0146532D02*
X0122063Y0146532D01*
X0122063Y0144959D02*
X0121512Y0144959D01*
X0120068Y0143386D02*
X0123507Y0143386D01*
X0113507Y0143386D02*
X0110068Y0143386D01*
X0111512Y0144959D02*
X0112063Y0144959D01*
X0112063Y0146532D02*
X0111512Y0146532D01*
X0111512Y0148106D02*
X0112063Y0148106D01*
X0112997Y0149679D02*
X0110578Y0149679D01*
X0109004Y0151252D02*
X0114570Y0151252D01*
X0114067Y0152826D02*
X0109507Y0152826D01*
X0111081Y0154399D02*
X0112494Y0154399D01*
X0112063Y0155972D02*
X0111512Y0155972D01*
X0111512Y0157546D02*
X0112063Y0157546D01*
X0112437Y0159119D02*
X0111138Y0159119D01*
X0109564Y0160692D02*
X0114010Y0160692D01*
X0113614Y0173279D02*
X0109542Y0173279D01*
X0109296Y0173033D02*
X0110542Y0174278D01*
X0111217Y0175906D01*
X0111217Y0177668D01*
X0110542Y0179296D01*
X0109296Y0180542D01*
X0108977Y0180674D01*
X0108906Y0180746D01*
X0107531Y0181315D01*
X0106043Y0181315D01*
X0104669Y0180746D01*
X0104598Y0180674D01*
X0104287Y0180546D01*
X0103977Y0180674D01*
X0103906Y0180746D01*
X0102531Y0181315D01*
X0101043Y0181315D01*
X0099669Y0180746D01*
X0099598Y0180674D01*
X0099287Y0180546D01*
X0098977Y0180674D01*
X0098906Y0180746D01*
X0097531Y0181315D01*
X0096043Y0181315D01*
X0094669Y0180746D01*
X0094598Y0180674D01*
X0094287Y0180546D01*
X0093977Y0180674D01*
X0093906Y0180746D01*
X0092531Y0181315D01*
X0091043Y0181315D01*
X0089669Y0180746D01*
X0089598Y0180674D01*
X0089287Y0180546D01*
X0088977Y0180674D01*
X0088906Y0180746D01*
X0087531Y0181315D01*
X0086043Y0181315D01*
X0084669Y0180746D01*
X0084598Y0180674D01*
X0084287Y0180546D01*
X0083977Y0180674D01*
X0083906Y0180746D01*
X0082531Y0181315D01*
X0081043Y0181315D01*
X0079669Y0180746D01*
X0079598Y0180674D01*
X0079287Y0180546D01*
X0077668Y0181217D01*
X0075906Y0181217D01*
X0074287Y0180546D01*
X0073977Y0180674D01*
X0073906Y0180746D01*
X0072531Y0181315D01*
X0071043Y0181315D01*
X0069669Y0180746D01*
X0069598Y0180674D01*
X0069278Y0180542D01*
X0068033Y0179296D01*
X0067358Y0177668D01*
X0067358Y0175906D01*
X0068033Y0174278D01*
X0069278Y0173033D01*
X0069598Y0172900D01*
X0069669Y0172829D01*
X0071043Y0172260D01*
X0072531Y0172260D01*
X0073906Y0172829D01*
X0073977Y0172900D01*
X0074287Y0173029D01*
X0075906Y0172358D01*
X0077668Y0172358D01*
X0079287Y0173029D01*
X0079598Y0172900D01*
X0079669Y0172829D01*
X0081043Y0172260D01*
X0082531Y0172260D01*
X0083906Y0172829D01*
X0083977Y0172900D01*
X0084287Y0173029D01*
X0084598Y0172900D01*
X0084669Y0172829D01*
X0086043Y0172260D01*
X0087531Y0172260D01*
X0088906Y0172829D01*
X0088977Y0172900D01*
X0089287Y0173029D01*
X0089598Y0172900D01*
X0089669Y0172829D01*
X0091043Y0172260D01*
X0092531Y0172260D01*
X0093906Y0172829D01*
X0093977Y0172900D01*
X0094287Y0173029D01*
X0094598Y0172900D01*
X0094669Y0172829D01*
X0096043Y0172260D01*
X0097531Y0172260D01*
X0098906Y0172829D01*
X0098977Y0172900D01*
X0099287Y0173029D01*
X0099598Y0172900D01*
X0099669Y0172829D01*
X0101043Y0172260D01*
X0102531Y0172260D01*
X0103906Y0172829D01*
X0103977Y0172900D01*
X0104287Y0173029D01*
X0104598Y0172900D01*
X0104669Y0172829D01*
X0106043Y0172260D01*
X0107531Y0172260D01*
X0108906Y0172829D01*
X0108977Y0172900D01*
X0109296Y0173033D01*
X0110780Y0174852D02*
X0112063Y0174852D01*
X0112063Y0176425D02*
X0111217Y0176425D01*
X0111080Y0177999D02*
X0112063Y0177999D01*
X0112890Y0179572D02*
X0110267Y0179572D01*
X0107941Y0181145D02*
X0114463Y0181145D01*
X0105634Y0181145D02*
X0102941Y0181145D01*
X0100634Y0181145D02*
X0097941Y0181145D01*
X0095634Y0181145D02*
X0092941Y0181145D01*
X0090634Y0181145D02*
X0087941Y0181145D01*
X0085634Y0181145D02*
X0082941Y0181145D01*
X0080634Y0181145D02*
X0077840Y0181145D01*
X0075734Y0181145D02*
X0072941Y0181145D01*
X0070634Y0181145D02*
X0040728Y0181145D01*
X0041062Y0179572D02*
X0068308Y0179572D01*
X0067495Y0177999D02*
X0041062Y0177999D01*
X0041062Y0176425D02*
X0067358Y0176425D01*
X0067795Y0174852D02*
X0041507Y0174852D01*
X0043080Y0173279D02*
X0069032Y0173279D01*
X0044130Y0146532D02*
X0043756Y0146532D01*
X0043756Y0144959D02*
X0044819Y0144959D01*
X0044819Y0143386D02*
X0043756Y0143386D01*
X0043756Y0141812D02*
X0044819Y0141812D01*
X0044819Y0140239D02*
X0043756Y0140239D01*
X0043756Y0138666D02*
X0044819Y0138666D01*
X0044819Y0137092D02*
X0043756Y0137092D01*
X0043756Y0135519D02*
X0044819Y0135519D01*
X0039819Y0138666D02*
X0037871Y0138666D01*
X0038667Y0140239D02*
X0039819Y0140239D01*
X0035704Y0138666D02*
X0027871Y0138666D01*
X0027638Y0138762D02*
X0025937Y0138762D01*
X0024366Y0138111D01*
X0023163Y0136909D01*
X0022513Y0135338D01*
X0022513Y0128237D01*
X0023163Y0126666D01*
X0024366Y0125463D01*
X0025937Y0124813D01*
X0027638Y0124813D01*
X0029209Y0125463D01*
X0030411Y0126666D01*
X0031062Y0128237D01*
X0031062Y0135338D01*
X0030411Y0136909D01*
X0029209Y0138111D01*
X0027638Y0138762D01*
X0027638Y0139813D02*
X0025937Y0139813D01*
X0024366Y0140463D01*
X0023163Y0141666D01*
X0022513Y0143237D01*
X0022513Y0150338D01*
X0023163Y0151909D01*
X0024366Y0153111D01*
X0025937Y0153762D01*
X0027638Y0153762D01*
X0029209Y0153111D01*
X0030411Y0151909D01*
X0031062Y0150338D01*
X0031062Y0143237D01*
X0030411Y0141666D01*
X0029209Y0140463D01*
X0027638Y0139813D01*
X0028667Y0140239D02*
X0034907Y0140239D01*
X0033103Y0141812D02*
X0030472Y0141812D01*
X0031062Y0143386D02*
X0032513Y0143386D01*
X0032513Y0144959D02*
X0031062Y0144959D01*
X0031062Y0146532D02*
X0032513Y0146532D01*
X0032513Y0148106D02*
X0031062Y0148106D01*
X0031062Y0149679D02*
X0032513Y0149679D01*
X0032891Y0151252D02*
X0030683Y0151252D01*
X0029495Y0152826D02*
X0034080Y0152826D01*
X0039495Y0152826D02*
X0039819Y0152826D01*
X0039819Y0154399D02*
X0013756Y0154399D01*
X0013756Y0155972D02*
X0039819Y0155972D01*
X0039819Y0157546D02*
X0013756Y0157546D01*
X0013756Y0159119D02*
X0039819Y0159119D01*
X0039819Y0160692D02*
X0013756Y0160692D01*
X0013756Y0162265D02*
X0039819Y0162265D01*
X0039819Y0163839D02*
X0013756Y0163839D01*
X0013756Y0165412D02*
X0039819Y0165412D01*
X0039819Y0166985D02*
X0013756Y0166985D01*
X0013756Y0168559D02*
X0039819Y0168559D01*
X0039819Y0170132D02*
X0038409Y0170132D01*
X0035166Y0170132D02*
X0028409Y0170132D01*
X0030428Y0171705D02*
X0033147Y0171705D01*
X0032513Y0173279D02*
X0031062Y0173279D01*
X0031062Y0174852D02*
X0032513Y0174852D01*
X0032513Y0176425D02*
X0031062Y0176425D01*
X0031062Y0177999D02*
X0032513Y0177999D01*
X0032513Y0179572D02*
X0031062Y0179572D01*
X0030728Y0181145D02*
X0032847Y0181145D01*
X0033973Y0182719D02*
X0029602Y0182719D01*
X0023973Y0182719D02*
X0019602Y0182719D01*
X0020728Y0181145D02*
X0022847Y0181145D01*
X0022513Y0179572D02*
X0021062Y0179572D01*
X0021062Y0177999D02*
X0022513Y0177999D01*
X0022513Y0176425D02*
X0021062Y0176425D01*
X0021062Y0174852D02*
X0022513Y0174852D01*
X0022513Y0173279D02*
X0021062Y0173279D01*
X0020428Y0171705D02*
X0023147Y0171705D01*
X0025166Y0170132D02*
X0018409Y0170132D01*
X0015166Y0170132D02*
X0013756Y0170132D01*
X0013756Y0152826D02*
X0014080Y0152826D01*
X0019495Y0152826D02*
X0024080Y0152826D01*
X0022891Y0151252D02*
X0020683Y0151252D01*
X0021062Y0149679D02*
X0022513Y0149679D01*
X0022513Y0148106D02*
X0021062Y0148106D01*
X0021062Y0146532D02*
X0022513Y0146532D01*
X0022513Y0144959D02*
X0021062Y0144959D01*
X0021062Y0143386D02*
X0022513Y0143386D01*
X0023103Y0141812D02*
X0020472Y0141812D01*
X0018667Y0140239D02*
X0024907Y0140239D01*
X0025704Y0138666D02*
X0017871Y0138666D01*
X0015704Y0138666D02*
X0013756Y0138666D01*
X0013756Y0140239D02*
X0014907Y0140239D01*
X0020228Y0137092D02*
X0023347Y0137092D01*
X0022588Y0135519D02*
X0020987Y0135519D01*
X0021062Y0133946D02*
X0022513Y0133946D01*
X0022513Y0132373D02*
X0021062Y0132373D01*
X0021062Y0130799D02*
X0022513Y0130799D01*
X0022513Y0129226D02*
X0021062Y0129226D01*
X0020820Y0127653D02*
X0022755Y0127653D01*
X0023750Y0126079D02*
X0019825Y0126079D01*
X0013756Y0124506D02*
X0039819Y0124506D01*
X0039819Y0122933D02*
X0013756Y0122933D01*
X0013756Y0121359D02*
X0039819Y0121359D01*
X0039819Y0119786D02*
X0013756Y0119786D01*
X0013756Y0118213D02*
X0039819Y0118213D01*
X0039819Y0116639D02*
X0013756Y0116639D01*
X0013756Y0115066D02*
X0039819Y0115066D01*
X0039819Y0113493D02*
X0013756Y0113493D01*
X0013756Y0111919D02*
X0039819Y0111919D01*
X0039819Y0110346D02*
X0013756Y0110346D01*
X0013756Y0108773D02*
X0039819Y0108773D01*
X0043756Y0108773D02*
X0044819Y0108773D01*
X0044819Y0110346D02*
X0043756Y0110346D01*
X0043756Y0111919D02*
X0044819Y0111919D01*
X0044416Y0107199D02*
X0043756Y0107199D01*
X0033454Y0107199D02*
X0030121Y0107199D01*
X0030411Y0106909D02*
X0029209Y0108111D01*
X0027638Y0108762D01*
X0025937Y0108762D01*
X0024366Y0108111D01*
X0023163Y0106909D01*
X0022513Y0105338D01*
X0022513Y0098237D01*
X0023163Y0096666D01*
X0024366Y0095463D01*
X0025937Y0094813D01*
X0027638Y0094813D01*
X0029209Y0095463D01*
X0030411Y0096666D01*
X0031062Y0098237D01*
X0031062Y0105338D01*
X0030411Y0106909D01*
X0030943Y0105626D02*
X0032632Y0105626D01*
X0032513Y0104053D02*
X0031062Y0104053D01*
X0031062Y0102480D02*
X0032513Y0102480D01*
X0032513Y0100906D02*
X0031062Y0100906D01*
X0031062Y0099333D02*
X0032513Y0099333D01*
X0032710Y0097760D02*
X0030864Y0097760D01*
X0029932Y0096186D02*
X0033643Y0096186D01*
X0034294Y0093040D02*
X0029281Y0093040D01*
X0029209Y0093111D02*
X0027638Y0093762D01*
X0025937Y0093762D01*
X0024366Y0093111D01*
X0023163Y0091909D01*
X0022513Y0090338D01*
X0022513Y0083237D01*
X0023163Y0081666D01*
X0024366Y0080463D01*
X0025937Y0079813D01*
X0027638Y0079813D01*
X0029209Y0080463D01*
X0030411Y0081666D01*
X0031062Y0083237D01*
X0031062Y0090338D01*
X0030411Y0091909D01*
X0029209Y0093111D01*
X0030595Y0091466D02*
X0032980Y0091466D01*
X0032513Y0089893D02*
X0031062Y0089893D01*
X0031062Y0088320D02*
X0032513Y0088320D01*
X0032513Y0086746D02*
X0031062Y0086746D01*
X0031062Y0085173D02*
X0032513Y0085173D01*
X0032513Y0083600D02*
X0031062Y0083600D01*
X0030561Y0082026D02*
X0033014Y0082026D01*
X0034391Y0080453D02*
X0029184Y0080453D01*
X0024391Y0080453D02*
X0019184Y0080453D01*
X0020561Y0082026D02*
X0023014Y0082026D01*
X0022513Y0083600D02*
X0021062Y0083600D01*
X0021062Y0085173D02*
X0022513Y0085173D01*
X0022513Y0086746D02*
X0021062Y0086746D01*
X0021062Y0088320D02*
X0022513Y0088320D01*
X0022513Y0089893D02*
X0021062Y0089893D01*
X0020595Y0091466D02*
X0022980Y0091466D01*
X0024294Y0093040D02*
X0019281Y0093040D01*
X0019932Y0096186D02*
X0023643Y0096186D01*
X0022710Y0097760D02*
X0020864Y0097760D01*
X0021062Y0099333D02*
X0022513Y0099333D01*
X0022513Y0100906D02*
X0021062Y0100906D01*
X0021062Y0102480D02*
X0022513Y0102480D01*
X0022513Y0104053D02*
X0021062Y0104053D01*
X0020943Y0105626D02*
X0022632Y0105626D01*
X0023454Y0107199D02*
X0020121Y0107199D01*
X0013756Y0094613D02*
X0039819Y0094613D01*
X0039819Y0093040D02*
X0039281Y0093040D01*
X0043756Y0083600D02*
X0044842Y0083600D01*
X0044130Y0082026D02*
X0043756Y0082026D01*
X0043756Y0080453D02*
X0044464Y0080453D01*
X0044819Y0078880D02*
X0043756Y0078880D01*
X0043756Y0077306D02*
X0044819Y0077306D01*
X0044819Y0075733D02*
X0043756Y0075733D01*
X0043756Y0074160D02*
X0044819Y0074160D01*
X0044819Y0072587D02*
X0043756Y0072587D01*
X0043756Y0071013D02*
X0044819Y0071013D01*
X0044819Y0069440D02*
X0043756Y0069440D01*
X0043756Y0067867D02*
X0044819Y0067867D01*
X0044819Y0066293D02*
X0043756Y0066293D01*
X0043756Y0064720D02*
X0044819Y0064720D01*
X0044819Y0063147D02*
X0043756Y0063147D01*
X0043756Y0061573D02*
X0043789Y0061573D01*
X0039819Y0063147D02*
X0039124Y0063147D01*
X0039819Y0064720D02*
X0013756Y0064720D01*
X0013756Y0066293D02*
X0039819Y0066293D01*
X0039819Y0067867D02*
X0013756Y0067867D01*
X0013756Y0069440D02*
X0039819Y0069440D01*
X0039819Y0071013D02*
X0013756Y0071013D01*
X0013756Y0072587D02*
X0039819Y0072587D01*
X0039819Y0074160D02*
X0013756Y0074160D01*
X0013756Y0075733D02*
X0039819Y0075733D01*
X0039819Y0077306D02*
X0013756Y0077306D01*
X0013756Y0078880D02*
X0039819Y0078880D01*
X0039819Y0080453D02*
X0039184Y0080453D01*
X0048756Y0077306D02*
X0096787Y0077306D01*
X0096787Y0075733D02*
X0048756Y0075733D01*
X0048756Y0074160D02*
X0075801Y0074160D01*
X0074413Y0072771D02*
X0074413Y0072771D01*
X0074228Y0072587D02*
X0048756Y0072587D01*
X0034451Y0063147D02*
X0029124Y0063147D01*
X0029209Y0063111D02*
X0027638Y0063762D01*
X0025937Y0063762D01*
X0024366Y0063111D01*
X0023163Y0061909D01*
X0022513Y0060338D01*
X0022513Y0053237D01*
X0023163Y0051666D01*
X0024366Y0050463D01*
X0025937Y0049813D01*
X0027638Y0049813D01*
X0029209Y0050463D01*
X0030411Y0051666D01*
X0031062Y0053237D01*
X0031062Y0060338D01*
X0030411Y0061909D01*
X0029209Y0063111D01*
X0030550Y0061573D02*
X0033024Y0061573D01*
X0032513Y0060000D02*
X0031062Y0060000D01*
X0031062Y0058427D02*
X0032513Y0058427D01*
X0032513Y0056853D02*
X0031062Y0056853D01*
X0031062Y0055280D02*
X0032513Y0055280D01*
X0032513Y0053707D02*
X0031062Y0053707D01*
X0030605Y0052133D02*
X0032970Y0052133D01*
X0034269Y0050560D02*
X0029306Y0050560D01*
X0029907Y0047414D02*
X0033668Y0047414D01*
X0032721Y0045840D02*
X0030854Y0045840D01*
X0031062Y0044267D02*
X0032513Y0044267D01*
X0032513Y0042694D02*
X0031062Y0042694D01*
X0031062Y0041120D02*
X0032513Y0041120D01*
X0032513Y0039547D02*
X0031062Y0039547D01*
X0030953Y0037974D02*
X0032622Y0037974D01*
X0033429Y0036400D02*
X0030146Y0036400D01*
X0023429Y0036400D02*
X0020146Y0036400D01*
X0020953Y0037974D02*
X0022622Y0037974D01*
X0022513Y0039547D02*
X0021062Y0039547D01*
X0021062Y0041120D02*
X0022513Y0041120D01*
X0022513Y0042694D02*
X0021062Y0042694D01*
X0021062Y0044267D02*
X0022513Y0044267D01*
X0022721Y0045840D02*
X0020854Y0045840D01*
X0019907Y0047414D02*
X0023668Y0047414D01*
X0024269Y0050560D02*
X0019306Y0050560D01*
X0020605Y0052133D02*
X0022970Y0052133D01*
X0022513Y0053707D02*
X0021062Y0053707D01*
X0021062Y0055280D02*
X0022513Y0055280D01*
X0022513Y0056853D02*
X0021062Y0056853D01*
X0021062Y0058427D02*
X0022513Y0058427D01*
X0022513Y0060000D02*
X0021062Y0060000D01*
X0020550Y0061573D02*
X0023024Y0061573D01*
X0024451Y0063147D02*
X0019124Y0063147D01*
X0014451Y0063147D02*
X0013756Y0063147D01*
X0013756Y0080453D02*
X0014391Y0080453D01*
X0014294Y0093040D02*
X0013756Y0093040D01*
X0029825Y0126079D02*
X0033750Y0126079D01*
X0032755Y0127653D02*
X0030820Y0127653D01*
X0031062Y0129226D02*
X0032513Y0129226D01*
X0032513Y0130799D02*
X0031062Y0130799D01*
X0031062Y0132373D02*
X0032513Y0132373D01*
X0032513Y0133946D02*
X0031062Y0133946D01*
X0030987Y0135519D02*
X0032588Y0135519D01*
X0033347Y0137092D02*
X0030228Y0137092D01*
X0039602Y0182719D02*
X0153953Y0182719D01*
X0096787Y0067867D02*
X0076225Y0067867D01*
X0074652Y0066293D02*
X0096787Y0066293D01*
X0096787Y0064720D02*
X0073078Y0064720D01*
X0074162Y0065804D02*
X0074162Y0065804D01*
X0099021Y0042694D02*
X0104554Y0042694D01*
X0104830Y0041512D02*
X0102063Y0038744D01*
X0102063Y0034830D01*
X0104830Y0032063D01*
X0108744Y0032063D01*
X0111512Y0034830D01*
X0111512Y0038744D01*
X0108744Y0041512D01*
X0104830Y0041512D01*
X0104438Y0041120D02*
X0099136Y0041120D01*
X0100710Y0039547D02*
X0102865Y0039547D01*
X0102063Y0037974D02*
X0101512Y0037974D01*
X0101512Y0036400D02*
X0102063Y0036400D01*
X0102066Y0034827D02*
X0101509Y0034827D01*
X0099936Y0033254D02*
X0103639Y0033254D01*
X0104830Y0031512D02*
X0102063Y0028744D01*
X0102063Y0024830D01*
X0104830Y0022063D01*
X0108744Y0022063D01*
X0111512Y0024830D01*
X0111512Y0028744D01*
X0108744Y0031512D01*
X0104830Y0031512D01*
X0103425Y0030107D02*
X0100150Y0030107D01*
X0101512Y0028534D02*
X0102063Y0028534D01*
X0102063Y0026960D02*
X0101512Y0026960D01*
X0101512Y0025387D02*
X0102063Y0025387D01*
X0103079Y0023814D02*
X0100496Y0023814D01*
X0101287Y0022240D02*
X0098922Y0022240D01*
X0103863Y0022240D02*
X0104652Y0022240D01*
X0108922Y0022240D02*
X0109457Y0022240D01*
X0110496Y0023814D02*
X0113079Y0023814D01*
X0112063Y0025387D02*
X0111512Y0025387D01*
X0111512Y0026960D02*
X0112063Y0026960D01*
X0112063Y0028534D02*
X0111512Y0028534D01*
X0110150Y0030107D02*
X0113425Y0030107D01*
X0114830Y0032063D02*
X0118744Y0032063D01*
X0121512Y0034830D01*
X0121512Y0038744D01*
X0118744Y0041512D01*
X0114830Y0041512D01*
X0112063Y0038744D01*
X0112063Y0034830D01*
X0114830Y0032063D01*
X0113639Y0033254D02*
X0109936Y0033254D01*
X0111509Y0034827D02*
X0112066Y0034827D01*
X0112063Y0036400D02*
X0111512Y0036400D01*
X0111512Y0037974D02*
X0112063Y0037974D01*
X0112865Y0039547D02*
X0110710Y0039547D01*
X0109136Y0041120D02*
X0114438Y0041120D01*
X0119136Y0041120D02*
X0124438Y0041120D01*
X0124830Y0041512D02*
X0122063Y0038744D01*
X0122063Y0034830D01*
X0124830Y0032063D01*
X0128744Y0032063D01*
X0131512Y0034830D01*
X0131512Y0038744D01*
X0128744Y0041512D01*
X0124830Y0041512D01*
X0122865Y0039547D02*
X0120710Y0039547D01*
X0121512Y0037974D02*
X0122063Y0037974D01*
X0122063Y0036400D02*
X0121512Y0036400D01*
X0121509Y0034827D02*
X0122066Y0034827D01*
X0123639Y0033254D02*
X0119936Y0033254D01*
X0120150Y0030107D02*
X0123425Y0030107D01*
X0122063Y0028534D02*
X0121512Y0028534D01*
X0121512Y0026960D02*
X0122063Y0026960D01*
X0122063Y0025387D02*
X0121512Y0025387D01*
X0120496Y0023814D02*
X0123079Y0023814D01*
X0130496Y0023814D02*
X0131030Y0023814D01*
X0131512Y0025387D02*
X0132063Y0025387D01*
X0132063Y0026960D02*
X0131512Y0026960D01*
X0131512Y0028534D02*
X0132063Y0028534D01*
X0133425Y0030107D02*
X0130150Y0030107D01*
X0129936Y0033254D02*
X0133639Y0033254D01*
X0132066Y0034827D02*
X0131509Y0034827D01*
X0131512Y0036400D02*
X0132063Y0036400D01*
X0132063Y0037974D02*
X0131512Y0037974D01*
X0130710Y0039547D02*
X0132865Y0039547D01*
X0134438Y0041120D02*
X0129136Y0041120D01*
X0140150Y0030107D02*
X0140709Y0030107D01*
X0141560Y0022240D02*
X0144652Y0022240D01*
X0112412Y0019094D02*
X0111878Y0019094D01*
X0102981Y0044267D02*
X0100594Y0044267D01*
X0101394Y0045840D02*
X0101407Y0045840D01*
X0101394Y0046787D02*
X0101394Y0046787D01*
X0033775Y0017521D02*
X0029800Y0017521D01*
X0030810Y0015947D02*
X0032765Y0015947D01*
X0032513Y0014374D02*
X0031062Y0014374D01*
X0031062Y0012801D02*
X0032513Y0012801D01*
X0032513Y0011227D02*
X0031062Y0011227D01*
X0031062Y0009654D02*
X0032513Y0009654D01*
X0032577Y0008081D02*
X0030997Y0008081D01*
X0030253Y0006507D02*
X0033322Y0006507D01*
X0023322Y0006507D02*
X0020253Y0006507D01*
X0020997Y0008081D02*
X0022577Y0008081D01*
X0022513Y0009654D02*
X0021062Y0009654D01*
X0021062Y0011227D02*
X0022513Y0011227D01*
X0022513Y0012801D02*
X0021062Y0012801D01*
X0021062Y0014374D02*
X0022513Y0014374D01*
X0022765Y0015947D02*
X0020810Y0015947D01*
X0019800Y0017521D02*
X0023775Y0017521D01*
X0012513Y0012801D02*
X0004543Y0012801D01*
X0004543Y0014374D02*
X0011417Y0014374D01*
X0009844Y0015947D02*
X0004543Y0015947D01*
X0004543Y0017521D02*
X0009819Y0017521D01*
X0009819Y0019094D02*
X0004543Y0019094D01*
X0004543Y0020667D02*
X0009819Y0020667D01*
X0009819Y0022240D02*
X0004543Y0022240D01*
X0004543Y0023814D02*
X0009819Y0023814D01*
X0009819Y0025387D02*
X0004543Y0025387D01*
X0004543Y0026960D02*
X0009819Y0026960D01*
X0009819Y0028534D02*
X0004543Y0028534D01*
X0004543Y0030107D02*
X0009819Y0030107D01*
X0009819Y0031680D02*
X0004543Y0031680D01*
X0004543Y0033254D02*
X0009819Y0033254D01*
X0012513Y0011227D02*
X0004543Y0011227D01*
X0004543Y0009654D02*
X0012513Y0009654D01*
X0012577Y0008081D02*
X0004543Y0008081D01*
X0004543Y0006507D02*
X0013322Y0006507D01*
D16*
X0056787Y0066787D02*
X0071787Y0066787D01*
X0076787Y0071787D01*
X0086787Y0071787D01*
X0091256Y0127220D02*
X0091256Y0137319D01*
X0076787Y0151787D01*
X0076787Y0176787D01*
D17*
X0046787Y0146787D02*
X0046787Y0134287D01*
X0041787Y0129287D01*
X0041787Y0106787D01*
X0036787Y0101787D01*
X0041787Y0101787D02*
X0041787Y0091787D01*
X0036787Y0086787D01*
X0041787Y0086787D02*
X0041787Y0061787D01*
X0036787Y0056787D01*
X0041787Y0056787D02*
X0041787Y0046787D01*
X0036787Y0041787D01*
X0041787Y0041787D02*
X0041787Y0014287D01*
X0039287Y0011787D01*
X0036787Y0011787D01*
X0016787Y0011787D02*
X0011787Y0016787D01*
X0011787Y0054287D01*
X0014287Y0056787D01*
X0016787Y0056787D01*
X0011787Y0059287D02*
X0011787Y0084287D01*
X0014287Y0086787D01*
X0016787Y0086787D01*
X0011787Y0089287D02*
X0011787Y0096787D01*
X0016787Y0101787D01*
X0011787Y0101787D02*
X0011787Y0129287D01*
X0014287Y0131787D01*
X0016787Y0131787D01*
X0011787Y0134287D02*
X0011787Y0144287D01*
X0014287Y0146787D01*
X0016787Y0146787D01*
X0011787Y0151787D02*
X0011787Y0171787D01*
X0016787Y0176787D01*
X0036787Y0176787D02*
X0041787Y0171787D01*
X0041787Y0134287D01*
X0039287Y0131787D01*
X0036787Y0131787D01*
X0046787Y0126787D02*
X0046787Y0106787D01*
X0041787Y0101787D01*
X0046787Y0099287D02*
X0046787Y0091787D01*
X0041787Y0086787D01*
X0046787Y0081787D02*
X0046787Y0061787D01*
X0041787Y0056787D01*
X0046787Y0054287D02*
X0046787Y0046787D01*
X0041787Y0041787D01*
X0011787Y0059287D02*
X0006787Y0054287D01*
X0006787Y0044287D01*
X0006787Y0061787D02*
X0006787Y0084287D01*
X0011787Y0089287D01*
X0006787Y0089287D02*
X0006787Y0096787D01*
X0011787Y0101787D01*
X0006787Y0104287D02*
X0006787Y0129287D01*
X0011787Y0134287D01*
X0006787Y0134287D02*
X0006787Y0146787D01*
X0011787Y0151787D01*
X0056787Y0106787D02*
X0059287Y0104287D01*
X0089287Y0104287D01*
X0091787Y0101787D01*
X0091787Y0091787D01*
X0086787Y0091787D02*
X0086787Y0094287D01*
X0084287Y0096787D01*
X0056787Y0096787D01*
X0062417Y0113598D02*
X0095488Y0113598D01*
X0103362Y0121472D01*
X0111236Y0121472D01*
X0121472Y0131709D01*
X0121787Y0131787D01*
X0116787Y0131787D02*
X0116787Y0146787D01*
X0141945Y0152181D02*
X0146669Y0147457D01*
X0146787Y0146787D01*
X0141945Y0152181D02*
X0141945Y0167929D01*
X0137220Y0172654D01*
X0137220Y0176591D01*
X0136787Y0176787D01*
X0118323Y0071866D02*
X0105724Y0071866D01*
X0101787Y0067929D01*
X0101787Y0050606D01*
X0099425Y0048244D01*
X0099425Y0045882D01*
X0097063Y0043520D01*
X0086039Y0043520D01*
X0082890Y0046669D01*
X0103362Y0046669D02*
X0103362Y0056118D01*
X0111236Y0063992D01*
X0109661Y0057693D02*
X0126197Y0057693D01*
X0131709Y0052181D01*
X0131787Y0051787D01*
X0136433Y0052181D02*
X0136787Y0051787D01*
X0136433Y0052181D02*
X0126197Y0062417D01*
X0124622Y0062417D01*
X0121472Y0065567D01*
X0121472Y0068717D01*
X0118323Y0071866D01*
X0103362Y0046669D02*
X0105724Y0044307D01*
X0145882Y0044307D01*
X0151394Y0038795D01*
X0151394Y0034858D01*
X0148244Y0031709D01*
X0145094Y0031709D01*
X0141945Y0028559D01*
X0141945Y0025409D01*
X0134071Y0017535D01*
X0117535Y0017535D01*
X0116787Y0016787D01*
X0111787Y0021787D02*
X0131787Y0021787D01*
X0136787Y0026787D01*
X0111787Y0021787D02*
X0109898Y0019898D01*
X0102575Y0019898D01*
D18*
X0102575Y0019898D03*
X0082890Y0046669D03*
X0109661Y0057693D03*
X0111236Y0063992D03*
X0062417Y0113598D03*
X0046787Y0126787D03*
X0046787Y0146787D03*
X0006787Y0134287D03*
X0006787Y0104287D03*
X0006787Y0089287D03*
X0006787Y0061787D03*
X0006787Y0044287D03*
X0046787Y0054287D03*
X0046787Y0081787D03*
X0046787Y0099287D03*
M02*
