G75*
%MOIN*%
%OFA0B0*%
%FSLAX25Y25*%
%IPPOS*%
%LPD*%
%AMOC8*
5,1,8,0,0,1.08239X$1,22.5*
%
%ADD10OC8,0.06300*%
%ADD11C,0.03937*%
%ADD12C,0.17717*%
%ADD13C,0.04331*%
%ADD14C,0.05400*%
%ADD15C,0.00787*%
%ADD16C,0.01575*%
%ADD17C,0.01600*%
%ADD18C,0.02165*%
D10*
X0056787Y0026787D03*
X0056787Y0036787D03*
X0056787Y0046787D03*
X0066787Y0046787D03*
X0066787Y0036787D03*
X0066787Y0026787D03*
X0076787Y0026787D03*
X0076787Y0036787D03*
X0086787Y0036787D03*
X0096787Y0036787D03*
X0096787Y0026787D03*
X0086787Y0026787D03*
X0106787Y0026787D03*
X0106787Y0036787D03*
X0116787Y0036787D03*
X0116787Y0026787D03*
X0116787Y0016787D03*
X0126787Y0026787D03*
X0126787Y0036787D03*
X0136787Y0036787D03*
X0136787Y0026787D03*
X0146787Y0026787D03*
X0146787Y0036787D03*
X0146787Y0066787D03*
X0146787Y0076787D03*
X0136787Y0076787D03*
X0136787Y0066787D03*
X0126787Y0066787D03*
X0126787Y0076787D03*
X0116787Y0076787D03*
X0116787Y0066787D03*
X0106787Y0066787D03*
X0106787Y0076787D03*
X0106787Y0086787D03*
X0106787Y0096787D03*
X0106787Y0106787D03*
X0106787Y0116787D03*
X0116787Y0116787D03*
X0116787Y0106787D03*
X0116787Y0096787D03*
X0116787Y0086787D03*
X0126787Y0086787D03*
X0126787Y0096787D03*
X0126787Y0106787D03*
X0126787Y0116787D03*
X0136787Y0116787D03*
X0136787Y0106787D03*
X0136787Y0096787D03*
X0136787Y0086787D03*
X0146787Y0086787D03*
X0146787Y0096787D03*
X0146787Y0106787D03*
X0146787Y0116787D03*
X0146787Y0146787D03*
X0146787Y0156787D03*
X0136787Y0156787D03*
X0136787Y0146787D03*
X0126787Y0146787D03*
X0126787Y0156787D03*
X0116787Y0156787D03*
X0116787Y0146787D03*
X0106787Y0146787D03*
X0106787Y0156787D03*
X0116787Y0176787D03*
X0136787Y0176787D03*
X0136787Y0166787D03*
X0146787Y0166787D03*
X0146787Y0176787D03*
X0056787Y0106787D03*
X0056787Y0096787D03*
X0056787Y0086787D03*
X0056787Y0076787D03*
X0056787Y0066787D03*
D11*
X0082850Y0071787D02*
X0086787Y0071787D01*
X0086787Y0076787D02*
X0082850Y0076787D01*
X0082850Y0081787D02*
X0086787Y0081787D01*
X0086787Y0086787D02*
X0082850Y0086787D01*
X0082850Y0091787D02*
X0086787Y0091787D01*
X0091787Y0091787D02*
X0095724Y0091787D01*
X0095724Y0086787D02*
X0091787Y0086787D01*
X0091787Y0081787D02*
X0095724Y0081787D01*
X0095724Y0076787D02*
X0091787Y0076787D01*
X0091787Y0071787D02*
X0095724Y0071787D01*
X0106787Y0051787D02*
X0106787Y0047850D01*
X0111787Y0047850D02*
X0111787Y0051787D01*
X0116787Y0051787D02*
X0116787Y0047850D01*
X0121787Y0047850D02*
X0121787Y0051787D01*
X0126787Y0051787D02*
X0126787Y0047850D01*
X0131787Y0047850D02*
X0131787Y0051787D01*
X0136787Y0051787D02*
X0136787Y0047850D01*
X0141787Y0047850D02*
X0141787Y0051787D01*
X0146787Y0051787D02*
X0146787Y0047850D01*
X0151787Y0047850D02*
X0151787Y0051787D01*
X0151787Y0131787D02*
X0151787Y0135724D01*
X0146787Y0135724D02*
X0146787Y0131787D01*
X0141787Y0131787D02*
X0141787Y0135724D01*
X0136787Y0135724D02*
X0136787Y0131787D01*
X0131787Y0131787D02*
X0131787Y0135724D01*
X0126787Y0135724D02*
X0126787Y0131787D01*
X0121787Y0131787D02*
X0121787Y0135724D01*
X0116787Y0135724D02*
X0116787Y0131787D01*
X0111787Y0131787D02*
X0111787Y0135724D01*
X0106787Y0135724D02*
X0106787Y0131787D01*
D12*
X0091256Y0127220D03*
X0091256Y0056354D03*
D13*
X0091787Y0175999D02*
X0091787Y0177575D01*
X0091787Y0175999D02*
X0091787Y0175999D01*
X0091787Y0177575D01*
X0091787Y0177575D01*
X0086787Y0177575D02*
X0086787Y0175999D01*
X0086787Y0175999D01*
X0086787Y0177575D01*
X0086787Y0177575D01*
X0081787Y0177575D02*
X0081787Y0175999D01*
X0081787Y0175999D01*
X0081787Y0177575D01*
X0081787Y0177575D01*
X0076787Y0177575D02*
X0076787Y0175999D01*
X0076787Y0175999D01*
X0076787Y0177575D01*
X0076787Y0177575D01*
X0071787Y0177575D02*
X0071787Y0175999D01*
X0071787Y0175999D01*
X0071787Y0177575D01*
X0071787Y0177575D01*
X0096787Y0177575D02*
X0096787Y0175999D01*
X0096787Y0175999D01*
X0096787Y0177575D01*
X0096787Y0177575D01*
X0101787Y0177575D02*
X0101787Y0175999D01*
X0101787Y0175999D01*
X0101787Y0177575D01*
X0101787Y0177575D01*
X0106787Y0177575D02*
X0106787Y0175999D01*
X0106787Y0175999D01*
X0106787Y0177575D01*
X0106787Y0177575D01*
D14*
X0016787Y0014487D02*
X0016787Y0009087D01*
X0026787Y0009087D02*
X0026787Y0014487D01*
X0036787Y0014487D02*
X0036787Y0009087D01*
X0036787Y0039087D02*
X0036787Y0044487D01*
X0036787Y0054087D02*
X0036787Y0059487D01*
X0026787Y0059487D02*
X0026787Y0054087D01*
X0016787Y0054087D02*
X0016787Y0059487D01*
X0016787Y0044487D02*
X0016787Y0039087D01*
X0026787Y0039087D02*
X0026787Y0044487D01*
X0026787Y0084087D02*
X0026787Y0089487D01*
X0016787Y0089487D02*
X0016787Y0084087D01*
X0016787Y0099087D02*
X0016787Y0104487D01*
X0026787Y0104487D02*
X0026787Y0099087D01*
X0036787Y0099087D02*
X0036787Y0104487D01*
X0036787Y0089487D02*
X0036787Y0084087D01*
X0036787Y0129087D02*
X0036787Y0134487D01*
X0036787Y0144087D02*
X0036787Y0149487D01*
X0026787Y0149487D02*
X0026787Y0144087D01*
X0016787Y0144087D02*
X0016787Y0149487D01*
X0016787Y0134487D02*
X0016787Y0129087D01*
X0026787Y0129087D02*
X0026787Y0134487D01*
X0026787Y0174087D02*
X0026787Y0179487D01*
X0016787Y0179487D02*
X0016787Y0174087D01*
X0036787Y0174087D02*
X0036787Y0179487D01*
D15*
X0038008Y0169504D02*
X0026787Y0169504D01*
X0026787Y0146787D01*
X0036787Y0146787D02*
X0046787Y0146787D01*
X0041787Y0131787D02*
X0036787Y0131787D01*
X0041787Y0131787D02*
X0046787Y0126787D01*
X0062417Y0113598D02*
X0026787Y0113598D01*
X0026787Y0101787D01*
X0016787Y0101787D02*
X0009287Y0101787D01*
X0006787Y0104287D01*
X0006787Y0089287D02*
X0009287Y0086787D01*
X0016787Y0086787D01*
X0026787Y0086787D02*
X0026984Y0086039D01*
X0026984Y0063992D01*
X0038008Y0063992D01*
X0039583Y0062417D01*
X0060055Y0062417D01*
X0075803Y0046669D01*
X0082890Y0046669D01*
X0075803Y0044307D02*
X0068717Y0051394D01*
X0046669Y0051394D01*
X0037220Y0041945D01*
X0036787Y0041787D01*
X0030921Y0038795D02*
X0034858Y0034858D01*
X0038795Y0034858D01*
X0045094Y0041157D01*
X0106512Y0041157D01*
X0106512Y0051394D01*
X0106787Y0051787D01*
X0104937Y0055331D02*
X0093913Y0044307D01*
X0075803Y0044307D01*
X0076591Y0067142D02*
X0100213Y0067142D01*
X0109661Y0057693D01*
X0113598Y0055331D02*
X0104937Y0055331D01*
X0111236Y0051394D02*
X0111787Y0051787D01*
X0111236Y0051394D02*
X0111236Y0030921D01*
X0107299Y0026984D01*
X0106787Y0026787D01*
X0106512Y0026197D01*
X0106512Y0019898D01*
X0098638Y0012024D01*
X0037220Y0012024D01*
X0036787Y0011787D01*
X0026787Y0011787D02*
X0026787Y0019898D01*
X0102575Y0019898D01*
X0115173Y0026197D02*
X0093913Y0004937D01*
X0023835Y0004937D01*
X0017535Y0011236D01*
X0016787Y0011787D01*
X0026787Y0019898D02*
X0026787Y0041787D01*
X0030921Y0038795D02*
X0030921Y0045882D01*
X0027772Y0049031D01*
X0024622Y0049031D01*
X0017535Y0041945D01*
X0016787Y0041787D01*
X0009287Y0041787D01*
X0006787Y0044287D01*
X0011787Y0056787D02*
X0006787Y0061787D01*
X0011787Y0056787D02*
X0016787Y0056787D01*
X0026787Y0056787D02*
X0026984Y0056906D01*
X0026984Y0063992D01*
X0036787Y0056787D02*
X0044287Y0056787D01*
X0046787Y0054287D01*
X0064780Y0078953D02*
X0076591Y0067142D01*
X0064780Y0078953D02*
X0064780Y0175803D01*
X0070291Y0181315D01*
X0108087Y0181315D01*
X0112024Y0177378D01*
X0116748Y0177378D01*
X0116787Y0176787D01*
X0121472Y0175016D02*
X0121472Y0178953D01*
X0117535Y0182890D01*
X0051394Y0182890D01*
X0038008Y0169504D01*
X0026787Y0169504D02*
X0026787Y0176787D01*
X0006787Y0134287D02*
X0009287Y0131787D01*
X0016787Y0131787D01*
X0026787Y0131787D02*
X0026787Y0113598D01*
X0036787Y0101787D02*
X0044287Y0101787D01*
X0046787Y0099287D01*
X0041787Y0086787D02*
X0036787Y0086787D01*
X0041787Y0086787D02*
X0046787Y0081787D01*
X0071787Y0109287D02*
X0076787Y0104287D01*
X0076787Y0089287D01*
X0079287Y0086787D01*
X0086787Y0086787D01*
X0086787Y0091787D02*
X0086787Y0104287D01*
X0084287Y0106787D01*
X0079287Y0106787D01*
X0074287Y0111787D01*
X0074287Y0139287D01*
X0079287Y0144287D01*
X0089287Y0144287D01*
X0091787Y0146787D01*
X0091787Y0176787D01*
X0086787Y0176787D02*
X0086787Y0149287D01*
X0084287Y0146787D01*
X0079287Y0146787D01*
X0071787Y0139287D01*
X0071787Y0109287D01*
X0076787Y0111787D02*
X0079287Y0109287D01*
X0089287Y0109287D01*
X0091787Y0106787D01*
X0091787Y0091787D01*
X0091787Y0086787D02*
X0096787Y0086787D01*
X0099287Y0089287D01*
X0099287Y0109287D01*
X0096787Y0111787D01*
X0081787Y0111787D01*
X0079287Y0114287D01*
X0079287Y0134287D01*
X0084287Y0139287D01*
X0096787Y0139287D01*
X0099287Y0141787D01*
X0099287Y0166787D01*
X0101787Y0169287D01*
X0101787Y0176787D01*
X0096787Y0176787D02*
X0096787Y0144287D01*
X0094287Y0141787D01*
X0081787Y0141787D01*
X0076787Y0136787D01*
X0076787Y0111787D01*
X0111236Y0117535D02*
X0122260Y0128559D01*
X0128559Y0128559D01*
X0131787Y0131787D01*
X0131709Y0132496D01*
X0131709Y0151394D01*
X0126984Y0156118D01*
X0126787Y0156787D01*
X0121472Y0152181D02*
X0117535Y0156118D01*
X0116787Y0156787D01*
X0112024Y0155331D02*
X0116748Y0150606D01*
X0116748Y0147457D01*
X0116787Y0146787D01*
X0121472Y0152181D02*
X0121472Y0132496D01*
X0121787Y0131787D01*
X0126787Y0131787D02*
X0126984Y0132496D01*
X0126984Y0146669D01*
X0126787Y0146787D01*
X0136433Y0146669D02*
X0136787Y0146787D01*
X0136433Y0146669D02*
X0136433Y0132496D01*
X0136787Y0131787D01*
X0141157Y0132496D02*
X0141787Y0131787D01*
X0141157Y0132496D02*
X0141157Y0152181D01*
X0137220Y0156118D01*
X0136787Y0156787D01*
X0146787Y0156787D02*
X0136787Y0166787D01*
X0146787Y0156787D02*
X0151394Y0152181D01*
X0151394Y0132496D01*
X0151787Y0131787D01*
X0146787Y0131787D02*
X0146669Y0132496D01*
X0146669Y0146669D01*
X0146787Y0146787D01*
X0121472Y0175016D02*
X0112024Y0165567D01*
X0112024Y0155331D01*
X0111236Y0152181D02*
X0107299Y0156118D01*
X0106787Y0156787D01*
X0111236Y0152181D02*
X0111236Y0132496D01*
X0111787Y0131787D01*
X0111236Y0117535D02*
X0111236Y0063992D01*
X0113598Y0055331D02*
X0116748Y0052181D01*
X0116787Y0051787D01*
X0116748Y0051394D01*
X0116748Y0037220D01*
X0116787Y0036787D01*
X0121472Y0030921D02*
X0117535Y0026984D01*
X0116787Y0026787D01*
X0116748Y0026197D01*
X0115173Y0026197D01*
X0121472Y0030921D02*
X0121472Y0051394D01*
X0121787Y0051787D01*
X0126787Y0051787D02*
X0126984Y0051394D01*
X0126984Y0037220D01*
X0126787Y0036787D01*
X0131709Y0031709D02*
X0126787Y0026787D01*
X0131709Y0031709D02*
X0131709Y0051394D01*
X0131787Y0051787D01*
X0136433Y0051394D02*
X0136787Y0051787D01*
X0136433Y0051394D02*
X0136433Y0037220D01*
X0136787Y0036787D01*
X0141157Y0030921D02*
X0137220Y0026984D01*
X0136787Y0026787D01*
X0141157Y0030921D02*
X0141157Y0051394D01*
X0141787Y0051787D01*
X0146669Y0051394D02*
X0146787Y0051787D01*
X0146669Y0051394D02*
X0146669Y0037220D01*
X0146787Y0036787D01*
X0151394Y0030921D02*
X0147457Y0026984D01*
X0146787Y0026787D01*
X0151394Y0030921D02*
X0151394Y0051394D01*
X0151787Y0051787D01*
X0106512Y0041157D02*
X0106512Y0037220D01*
X0106787Y0036787D01*
X0091787Y0071787D02*
X0091551Y0071866D01*
D16*
X0091083Y0073244D02*
X0089780Y0073784D01*
X0089287Y0074276D01*
X0088795Y0073784D01*
X0087492Y0073244D01*
X0082146Y0073244D01*
X0080843Y0073784D01*
X0079847Y0074780D01*
X0079307Y0076083D01*
X0079307Y0077492D01*
X0079847Y0078795D01*
X0080339Y0079287D01*
X0079847Y0079780D01*
X0079307Y0081083D01*
X0079307Y0082492D01*
X0079847Y0083795D01*
X0080339Y0084287D01*
X0079847Y0084780D01*
X0079831Y0084819D01*
X0078472Y0084819D01*
X0077319Y0085972D01*
X0074819Y0088472D01*
X0074819Y0103472D01*
X0069819Y0108472D01*
X0069819Y0140103D01*
X0070972Y0141256D01*
X0078472Y0148756D01*
X0083472Y0148756D01*
X0084819Y0150103D01*
X0084819Y0172767D01*
X0084669Y0172829D01*
X0084598Y0172900D01*
X0084287Y0173029D01*
X0083977Y0172900D01*
X0083906Y0172829D01*
X0082531Y0172260D01*
X0081043Y0172260D01*
X0079669Y0172829D01*
X0079598Y0172900D01*
X0079287Y0173029D01*
X0078977Y0172900D01*
X0078906Y0172829D01*
X0077531Y0172260D01*
X0076043Y0172260D01*
X0074669Y0172829D01*
X0074598Y0172900D01*
X0074287Y0173029D01*
X0072668Y0172358D01*
X0070906Y0172358D01*
X0069278Y0173033D01*
X0068033Y0174278D01*
X0067449Y0175688D01*
X0066748Y0174988D01*
X0066748Y0079768D01*
X0077406Y0069110D01*
X0096787Y0069110D01*
X0096787Y0073392D01*
X0096429Y0073244D01*
X0091083Y0073244D01*
X0089404Y0074160D02*
X0089171Y0074160D01*
X0096787Y0072587D02*
X0073930Y0072587D01*
X0072356Y0074160D02*
X0080467Y0074160D01*
X0079452Y0075733D02*
X0070783Y0075733D01*
X0069210Y0077306D02*
X0079307Y0077306D01*
X0079932Y0078880D02*
X0067636Y0078880D01*
X0066748Y0080453D02*
X0079568Y0080453D01*
X0079307Y0082026D02*
X0066748Y0082026D01*
X0066748Y0083600D02*
X0079766Y0083600D01*
X0078118Y0085173D02*
X0066748Y0085173D01*
X0066748Y0086746D02*
X0076545Y0086746D01*
X0074971Y0088320D02*
X0066748Y0088320D01*
X0066748Y0089893D02*
X0074819Y0089893D01*
X0074819Y0091466D02*
X0066748Y0091466D01*
X0066748Y0093040D02*
X0074819Y0093040D01*
X0074819Y0094613D02*
X0066748Y0094613D01*
X0066748Y0096186D02*
X0074819Y0096186D01*
X0074819Y0097760D02*
X0066748Y0097760D01*
X0066748Y0099333D02*
X0074819Y0099333D01*
X0074819Y0100906D02*
X0066748Y0100906D01*
X0066748Y0102480D02*
X0074819Y0102480D01*
X0074238Y0104053D02*
X0066748Y0104053D01*
X0066748Y0105626D02*
X0072665Y0105626D01*
X0071091Y0107199D02*
X0066748Y0107199D01*
X0066748Y0108773D02*
X0069819Y0108773D01*
X0069819Y0110346D02*
X0066748Y0110346D01*
X0066748Y0111919D02*
X0069819Y0111919D01*
X0069819Y0113493D02*
X0066748Y0113493D01*
X0066748Y0115066D02*
X0069819Y0115066D01*
X0069819Y0116639D02*
X0066748Y0116639D01*
X0066748Y0118213D02*
X0069819Y0118213D01*
X0069819Y0119786D02*
X0066748Y0119786D01*
X0066748Y0121359D02*
X0069819Y0121359D01*
X0069819Y0122933D02*
X0066748Y0122933D01*
X0066748Y0124506D02*
X0069819Y0124506D01*
X0069819Y0126079D02*
X0066748Y0126079D01*
X0066748Y0127653D02*
X0069819Y0127653D01*
X0069819Y0129226D02*
X0066748Y0129226D01*
X0066748Y0130799D02*
X0069819Y0130799D01*
X0069819Y0132373D02*
X0066748Y0132373D01*
X0066748Y0133946D02*
X0069819Y0133946D01*
X0069819Y0135519D02*
X0066748Y0135519D01*
X0066748Y0137092D02*
X0069819Y0137092D01*
X0069819Y0138666D02*
X0066748Y0138666D01*
X0066748Y0140239D02*
X0069955Y0140239D01*
X0071529Y0141812D02*
X0066748Y0141812D01*
X0066748Y0143386D02*
X0073102Y0143386D01*
X0074675Y0144959D02*
X0066748Y0144959D01*
X0066748Y0146532D02*
X0076248Y0146532D01*
X0077822Y0148106D02*
X0066748Y0148106D01*
X0066748Y0149679D02*
X0084395Y0149679D01*
X0084819Y0151252D02*
X0066748Y0151252D01*
X0066748Y0152826D02*
X0084819Y0152826D01*
X0084819Y0154399D02*
X0066748Y0154399D01*
X0066748Y0155972D02*
X0084819Y0155972D01*
X0084819Y0157546D02*
X0066748Y0157546D01*
X0066748Y0159119D02*
X0084819Y0159119D01*
X0084819Y0160692D02*
X0066748Y0160692D01*
X0066748Y0162265D02*
X0084819Y0162265D01*
X0084819Y0163839D02*
X0066748Y0163839D01*
X0066748Y0165412D02*
X0084819Y0165412D01*
X0084819Y0166985D02*
X0066748Y0166985D01*
X0066748Y0168559D02*
X0084819Y0168559D01*
X0084819Y0170132D02*
X0066748Y0170132D01*
X0066748Y0171705D02*
X0084819Y0171705D01*
X0069032Y0173279D02*
X0066748Y0173279D01*
X0066748Y0174852D02*
X0067795Y0174852D01*
X0064191Y0177999D02*
X0049286Y0177999D01*
X0047713Y0176425D02*
X0062811Y0176425D01*
X0062811Y0176619D02*
X0062811Y0116256D01*
X0061889Y0116256D01*
X0060912Y0115851D01*
X0060628Y0115567D01*
X0028756Y0115567D01*
X0028756Y0125276D01*
X0029209Y0125463D01*
X0030411Y0126666D01*
X0031062Y0128237D01*
X0031062Y0135338D01*
X0030411Y0136909D01*
X0029209Y0138111D01*
X0027638Y0138762D01*
X0025937Y0138762D01*
X0024366Y0138111D01*
X0023163Y0136909D01*
X0022513Y0135338D01*
X0022513Y0128237D01*
X0023163Y0126666D01*
X0024366Y0125463D01*
X0024819Y0125276D01*
X0024819Y0108299D01*
X0024366Y0108111D01*
X0023163Y0106909D01*
X0022513Y0105338D01*
X0022513Y0098237D01*
X0023163Y0096666D01*
X0024366Y0095463D01*
X0025937Y0094813D01*
X0027638Y0094813D01*
X0029209Y0095463D01*
X0030411Y0096666D01*
X0031062Y0098237D01*
X0031062Y0105338D01*
X0030411Y0106909D01*
X0029209Y0108111D01*
X0028756Y0108299D01*
X0028756Y0111630D01*
X0060628Y0111630D01*
X0060912Y0111346D01*
X0061889Y0110941D01*
X0062811Y0110941D01*
X0062811Y0078137D01*
X0074622Y0066326D01*
X0075775Y0065173D01*
X0085665Y0065173D01*
X0084850Y0064703D01*
X0082907Y0062760D01*
X0081534Y0060381D01*
X0080823Y0057728D01*
X0080823Y0054981D01*
X0081534Y0052327D01*
X0082907Y0049948D01*
X0083607Y0049249D01*
X0083418Y0049327D01*
X0082361Y0049327D01*
X0081384Y0048922D01*
X0081100Y0048638D01*
X0076619Y0048638D01*
X0062024Y0063233D01*
X0060870Y0064386D01*
X0040398Y0064386D01*
X0039976Y0064808D01*
X0038823Y0065961D01*
X0028953Y0065961D01*
X0028953Y0080357D01*
X0029209Y0080463D01*
X0030411Y0081666D01*
X0031062Y0083237D01*
X0031062Y0090338D01*
X0030411Y0091909D01*
X0029209Y0093111D01*
X0027638Y0093762D01*
X0025937Y0093762D01*
X0024366Y0093111D01*
X0023163Y0091909D01*
X0022513Y0090338D01*
X0022513Y0083237D01*
X0023163Y0081666D01*
X0024366Y0080463D01*
X0025016Y0080194D01*
X0025016Y0063381D01*
X0024366Y0063111D01*
X0023163Y0061909D01*
X0022513Y0060338D01*
X0022513Y0053237D01*
X0023163Y0051666D01*
X0023829Y0051000D01*
X0023807Y0051000D01*
X0022654Y0049847D01*
X0020063Y0047257D01*
X0019209Y0048111D01*
X0017638Y0048762D01*
X0015937Y0048762D01*
X0014366Y0048111D01*
X0013163Y0046909D01*
X0012513Y0045338D01*
X0012513Y0043756D01*
X0010103Y0043756D01*
X0009445Y0044414D01*
X0009445Y0044816D01*
X0009040Y0045793D01*
X0008293Y0046540D01*
X0007316Y0046945D01*
X0006259Y0046945D01*
X0005282Y0046540D01*
X0004543Y0045802D01*
X0004543Y0060273D01*
X0005282Y0059534D01*
X0006259Y0059130D01*
X0006661Y0059130D01*
X0010972Y0054819D01*
X0012513Y0054819D01*
X0012513Y0053237D01*
X0013163Y0051666D01*
X0014366Y0050463D01*
X0015937Y0049813D01*
X0017638Y0049813D01*
X0019209Y0050463D01*
X0020411Y0051666D01*
X0021062Y0053237D01*
X0021062Y0060338D01*
X0020411Y0061909D01*
X0019209Y0063111D01*
X0017638Y0063762D01*
X0015937Y0063762D01*
X0014366Y0063111D01*
X0013163Y0061909D01*
X0012513Y0060338D01*
X0012513Y0058846D01*
X0009445Y0061914D01*
X0009445Y0062316D01*
X0009040Y0063293D01*
X0008293Y0064040D01*
X0007316Y0064445D01*
X0006259Y0064445D01*
X0005282Y0064040D01*
X0004543Y0063302D01*
X0004543Y0087773D01*
X0005282Y0087034D01*
X0006259Y0086630D01*
X0006661Y0086630D01*
X0008472Y0084819D01*
X0012513Y0084819D01*
X0012513Y0083237D01*
X0013163Y0081666D01*
X0014366Y0080463D01*
X0015937Y0079813D01*
X0017638Y0079813D01*
X0019209Y0080463D01*
X0020411Y0081666D01*
X0021062Y0083237D01*
X0021062Y0090338D01*
X0020411Y0091909D01*
X0019209Y0093111D01*
X0017638Y0093762D01*
X0015937Y0093762D01*
X0014366Y0093111D01*
X0013163Y0091909D01*
X0012513Y0090338D01*
X0012513Y0088756D01*
X0010103Y0088756D01*
X0009445Y0089414D01*
X0009445Y0089816D01*
X0009040Y0090793D01*
X0008293Y0091540D01*
X0007316Y0091945D01*
X0006259Y0091945D01*
X0005282Y0091540D01*
X0004543Y0090802D01*
X0004543Y0102773D01*
X0005282Y0102034D01*
X0006259Y0101630D01*
X0006661Y0101630D01*
X0008472Y0099819D01*
X0012513Y0099819D01*
X0012513Y0098237D01*
X0013163Y0096666D01*
X0014366Y0095463D01*
X0015937Y0094813D01*
X0017638Y0094813D01*
X0019209Y0095463D01*
X0020411Y0096666D01*
X0021062Y0098237D01*
X0021062Y0105338D01*
X0020411Y0106909D01*
X0019209Y0108111D01*
X0017638Y0108762D01*
X0015937Y0108762D01*
X0014366Y0108111D01*
X0013163Y0106909D01*
X0012513Y0105338D01*
X0012513Y0103756D01*
X0010103Y0103756D01*
X0009445Y0104414D01*
X0009445Y0104816D01*
X0009040Y0105793D01*
X0008293Y0106540D01*
X0007316Y0106945D01*
X0006259Y0106945D01*
X0005282Y0106540D01*
X0004543Y0105802D01*
X0004543Y0132773D01*
X0005282Y0132034D01*
X0006259Y0131630D01*
X0006661Y0131630D01*
X0008472Y0129819D01*
X0012513Y0129819D01*
X0012513Y0128237D01*
X0013163Y0126666D01*
X0014366Y0125463D01*
X0015937Y0124813D01*
X0017638Y0124813D01*
X0019209Y0125463D01*
X0020411Y0126666D01*
X0021062Y0128237D01*
X0021062Y0135338D01*
X0020411Y0136909D01*
X0019209Y0138111D01*
X0017638Y0138762D01*
X0015937Y0138762D01*
X0014366Y0138111D01*
X0013163Y0136909D01*
X0012513Y0135338D01*
X0012513Y0133756D01*
X0010103Y0133756D01*
X0009445Y0134414D01*
X0009445Y0134816D01*
X0009040Y0135793D01*
X0008293Y0136540D01*
X0007316Y0136945D01*
X0006259Y0136945D01*
X0005282Y0136540D01*
X0004543Y0135802D01*
X0004543Y0182732D01*
X0013987Y0182732D01*
X0013163Y0181909D01*
X0012513Y0180338D01*
X0012513Y0173237D01*
X0013163Y0171666D01*
X0014366Y0170463D01*
X0015937Y0169813D01*
X0017638Y0169813D01*
X0019209Y0170463D01*
X0020411Y0171666D01*
X0021062Y0173237D01*
X0021062Y0180338D01*
X0020411Y0181909D01*
X0019588Y0182732D01*
X0023987Y0182732D01*
X0023163Y0181909D01*
X0022513Y0180338D01*
X0022513Y0173237D01*
X0023163Y0171666D01*
X0024366Y0170463D01*
X0024819Y0170276D01*
X0024819Y0153299D01*
X0024366Y0153111D01*
X0023163Y0151909D01*
X0022513Y0150338D01*
X0022513Y0143237D01*
X0023163Y0141666D01*
X0024366Y0140463D01*
X0025937Y0139813D01*
X0027638Y0139813D01*
X0029209Y0140463D01*
X0030411Y0141666D01*
X0031062Y0143237D01*
X0031062Y0150338D01*
X0030411Y0151909D01*
X0029209Y0153111D01*
X0028756Y0153299D01*
X0028756Y0167535D01*
X0038823Y0167535D01*
X0039976Y0168689D01*
X0052209Y0180921D01*
X0067114Y0180921D01*
X0063964Y0177772D01*
X0062811Y0176619D01*
X0062811Y0174852D02*
X0046140Y0174852D01*
X0044566Y0173279D02*
X0062811Y0173279D01*
X0062811Y0171705D02*
X0042993Y0171705D01*
X0041420Y0170132D02*
X0062811Y0170132D01*
X0062811Y0168559D02*
X0039847Y0168559D01*
X0050860Y0179572D02*
X0065764Y0179572D01*
X0062811Y0166985D02*
X0028756Y0166985D01*
X0028756Y0165412D02*
X0062811Y0165412D01*
X0062811Y0163839D02*
X0028756Y0163839D01*
X0028756Y0162265D02*
X0062811Y0162265D01*
X0062811Y0160692D02*
X0028756Y0160692D01*
X0028756Y0159119D02*
X0062811Y0159119D01*
X0062811Y0157546D02*
X0028756Y0157546D01*
X0028756Y0155972D02*
X0062811Y0155972D01*
X0062811Y0154399D02*
X0028756Y0154399D01*
X0029495Y0152826D02*
X0034080Y0152826D01*
X0034366Y0153111D02*
X0033163Y0151909D01*
X0032513Y0150338D01*
X0032513Y0143237D01*
X0033163Y0141666D01*
X0034366Y0140463D01*
X0035937Y0139813D01*
X0037638Y0139813D01*
X0039209Y0140463D01*
X0040411Y0141666D01*
X0041062Y0143237D01*
X0041062Y0144819D01*
X0044998Y0144819D01*
X0045282Y0144534D01*
X0046259Y0144130D01*
X0047316Y0144130D01*
X0048293Y0144534D01*
X0049040Y0145282D01*
X0049445Y0146259D01*
X0049445Y0147316D01*
X0049040Y0148293D01*
X0048293Y0149040D01*
X0047316Y0149445D01*
X0046259Y0149445D01*
X0045282Y0149040D01*
X0044998Y0148756D01*
X0041062Y0148756D01*
X0041062Y0150338D01*
X0040411Y0151909D01*
X0039209Y0153111D01*
X0037638Y0153762D01*
X0035937Y0153762D01*
X0034366Y0153111D01*
X0032891Y0151252D02*
X0030683Y0151252D01*
X0031062Y0149679D02*
X0032513Y0149679D01*
X0032513Y0148106D02*
X0031062Y0148106D01*
X0031062Y0146532D02*
X0032513Y0146532D01*
X0032513Y0144959D02*
X0031062Y0144959D01*
X0031062Y0143386D02*
X0032513Y0143386D01*
X0033103Y0141812D02*
X0030472Y0141812D01*
X0028667Y0140239D02*
X0034907Y0140239D01*
X0035704Y0138666D02*
X0027871Y0138666D01*
X0025704Y0138666D02*
X0017871Y0138666D01*
X0017638Y0139813D02*
X0015937Y0139813D01*
X0014366Y0140463D01*
X0013163Y0141666D01*
X0012513Y0143237D01*
X0012513Y0150338D01*
X0013163Y0151909D01*
X0014366Y0153111D01*
X0015937Y0153762D01*
X0017638Y0153762D01*
X0019209Y0153111D01*
X0020411Y0151909D01*
X0021062Y0150338D01*
X0021062Y0143237D01*
X0020411Y0141666D01*
X0019209Y0140463D01*
X0017638Y0139813D01*
X0018667Y0140239D02*
X0024907Y0140239D01*
X0023103Y0141812D02*
X0020472Y0141812D01*
X0021062Y0143386D02*
X0022513Y0143386D01*
X0022513Y0144959D02*
X0021062Y0144959D01*
X0021062Y0146532D02*
X0022513Y0146532D01*
X0022513Y0148106D02*
X0021062Y0148106D01*
X0021062Y0149679D02*
X0022513Y0149679D01*
X0022891Y0151252D02*
X0020683Y0151252D01*
X0019495Y0152826D02*
X0024080Y0152826D01*
X0024819Y0154399D02*
X0004543Y0154399D01*
X0004543Y0155972D02*
X0024819Y0155972D01*
X0024819Y0157546D02*
X0004543Y0157546D01*
X0004543Y0159119D02*
X0024819Y0159119D01*
X0024819Y0160692D02*
X0004543Y0160692D01*
X0004543Y0162265D02*
X0024819Y0162265D01*
X0024819Y0163839D02*
X0004543Y0163839D01*
X0004543Y0165412D02*
X0024819Y0165412D01*
X0024819Y0166985D02*
X0004543Y0166985D01*
X0004543Y0168559D02*
X0024819Y0168559D01*
X0024819Y0170132D02*
X0018409Y0170132D01*
X0020428Y0171705D02*
X0023147Y0171705D01*
X0022513Y0173279D02*
X0021062Y0173279D01*
X0021062Y0174852D02*
X0022513Y0174852D01*
X0022513Y0176425D02*
X0021062Y0176425D01*
X0021062Y0177999D02*
X0022513Y0177999D01*
X0022513Y0179572D02*
X0021062Y0179572D01*
X0020728Y0181145D02*
X0022847Y0181145D01*
X0023973Y0182719D02*
X0019602Y0182719D01*
X0013973Y0182719D02*
X0004543Y0182719D01*
X0004543Y0181145D02*
X0012847Y0181145D01*
X0012513Y0179572D02*
X0004543Y0179572D01*
X0004543Y0177999D02*
X0012513Y0177999D01*
X0012513Y0176425D02*
X0004543Y0176425D01*
X0004543Y0174852D02*
X0012513Y0174852D01*
X0012513Y0173279D02*
X0004543Y0173279D01*
X0004543Y0171705D02*
X0013147Y0171705D01*
X0015166Y0170132D02*
X0004543Y0170132D01*
X0004543Y0152826D02*
X0014080Y0152826D01*
X0012891Y0151252D02*
X0004543Y0151252D01*
X0004543Y0149679D02*
X0012513Y0149679D01*
X0012513Y0148106D02*
X0004543Y0148106D01*
X0004543Y0146532D02*
X0012513Y0146532D01*
X0012513Y0144959D02*
X0004543Y0144959D01*
X0004543Y0143386D02*
X0012513Y0143386D01*
X0013103Y0141812D02*
X0004543Y0141812D01*
X0004543Y0140239D02*
X0014907Y0140239D01*
X0015704Y0138666D02*
X0004543Y0138666D01*
X0004543Y0137092D02*
X0013347Y0137092D01*
X0012588Y0135519D02*
X0009154Y0135519D01*
X0009913Y0133946D02*
X0012513Y0133946D01*
X0012513Y0129226D02*
X0004543Y0129226D01*
X0004543Y0130799D02*
X0007492Y0130799D01*
X0004944Y0132373D02*
X0004543Y0132373D01*
X0004543Y0127653D02*
X0012755Y0127653D01*
X0013750Y0126079D02*
X0004543Y0126079D01*
X0004543Y0124506D02*
X0024819Y0124506D01*
X0024819Y0122933D02*
X0004543Y0122933D01*
X0004543Y0121359D02*
X0024819Y0121359D01*
X0024819Y0119786D02*
X0004543Y0119786D01*
X0004543Y0118213D02*
X0024819Y0118213D01*
X0024819Y0116639D02*
X0004543Y0116639D01*
X0004543Y0115066D02*
X0024819Y0115066D01*
X0024819Y0113493D02*
X0004543Y0113493D01*
X0004543Y0111919D02*
X0024819Y0111919D01*
X0024819Y0110346D02*
X0004543Y0110346D01*
X0004543Y0108773D02*
X0024819Y0108773D01*
X0023454Y0107199D02*
X0020121Y0107199D01*
X0020943Y0105626D02*
X0022632Y0105626D01*
X0022513Y0104053D02*
X0021062Y0104053D01*
X0021062Y0102480D02*
X0022513Y0102480D01*
X0022513Y0100906D02*
X0021062Y0100906D01*
X0021062Y0099333D02*
X0022513Y0099333D01*
X0022710Y0097760D02*
X0020864Y0097760D01*
X0019932Y0096186D02*
X0023643Y0096186D01*
X0024294Y0093040D02*
X0019281Y0093040D01*
X0020595Y0091466D02*
X0022980Y0091466D01*
X0022513Y0089893D02*
X0021062Y0089893D01*
X0021062Y0088320D02*
X0022513Y0088320D01*
X0022513Y0086746D02*
X0021062Y0086746D01*
X0021062Y0085173D02*
X0022513Y0085173D01*
X0022513Y0083600D02*
X0021062Y0083600D01*
X0020561Y0082026D02*
X0023014Y0082026D01*
X0024391Y0080453D02*
X0019184Y0080453D01*
X0014391Y0080453D02*
X0004543Y0080453D01*
X0004543Y0078880D02*
X0025016Y0078880D01*
X0025016Y0077306D02*
X0004543Y0077306D01*
X0004543Y0075733D02*
X0025016Y0075733D01*
X0025016Y0074160D02*
X0004543Y0074160D01*
X0004543Y0072587D02*
X0025016Y0072587D01*
X0025016Y0071013D02*
X0004543Y0071013D01*
X0004543Y0069440D02*
X0025016Y0069440D01*
X0025016Y0067867D02*
X0004543Y0067867D01*
X0004543Y0066293D02*
X0025016Y0066293D01*
X0025016Y0064720D02*
X0004543Y0064720D01*
X0009101Y0063147D02*
X0014451Y0063147D01*
X0013024Y0061573D02*
X0009785Y0061573D01*
X0011359Y0060000D02*
X0012513Y0060000D01*
X0008938Y0056853D02*
X0004543Y0056853D01*
X0004543Y0055280D02*
X0010511Y0055280D01*
X0012513Y0053707D02*
X0004543Y0053707D01*
X0004543Y0052133D02*
X0012970Y0052133D01*
X0014269Y0050560D02*
X0004543Y0050560D01*
X0004543Y0048987D02*
X0021794Y0048987D01*
X0022654Y0049847D02*
X0022654Y0049847D01*
X0023367Y0050560D02*
X0019306Y0050560D01*
X0020605Y0052133D02*
X0022970Y0052133D01*
X0022513Y0053707D02*
X0021062Y0053707D01*
X0021062Y0055280D02*
X0022513Y0055280D01*
X0022513Y0056853D02*
X0021062Y0056853D01*
X0021062Y0058427D02*
X0022513Y0058427D01*
X0022513Y0060000D02*
X0021062Y0060000D01*
X0020550Y0061573D02*
X0023024Y0061573D01*
X0024451Y0063147D02*
X0019124Y0063147D01*
X0028953Y0066293D02*
X0074655Y0066293D01*
X0073082Y0067867D02*
X0028953Y0067867D01*
X0028953Y0069440D02*
X0071508Y0069440D01*
X0069935Y0071013D02*
X0028953Y0071013D01*
X0028953Y0072587D02*
X0054306Y0072587D01*
X0054830Y0072063D02*
X0058744Y0072063D01*
X0061512Y0074830D01*
X0061512Y0078744D01*
X0058744Y0081512D01*
X0054830Y0081512D01*
X0052063Y0078744D01*
X0052063Y0074830D01*
X0054830Y0072063D01*
X0052733Y0074160D02*
X0028953Y0074160D01*
X0028953Y0075733D02*
X0052063Y0075733D01*
X0052063Y0077306D02*
X0028953Y0077306D01*
X0028953Y0078880D02*
X0052198Y0078880D01*
X0053771Y0080453D02*
X0049111Y0080453D01*
X0049040Y0080282D02*
X0049445Y0081259D01*
X0049445Y0082316D01*
X0049040Y0083293D01*
X0048293Y0084040D01*
X0047316Y0084445D01*
X0046914Y0084445D01*
X0042603Y0088756D01*
X0041062Y0088756D01*
X0041062Y0090338D01*
X0040411Y0091909D01*
X0039209Y0093111D01*
X0037638Y0093762D01*
X0035937Y0093762D01*
X0034366Y0093111D01*
X0033163Y0091909D01*
X0032513Y0090338D01*
X0032513Y0083237D01*
X0033163Y0081666D01*
X0034366Y0080463D01*
X0035937Y0079813D01*
X0037638Y0079813D01*
X0039209Y0080463D01*
X0040411Y0081666D01*
X0041062Y0083237D01*
X0041062Y0084729D01*
X0044130Y0081661D01*
X0044130Y0081259D01*
X0044534Y0080282D01*
X0045282Y0079534D01*
X0046259Y0079130D01*
X0047316Y0079130D01*
X0048293Y0079534D01*
X0049040Y0080282D01*
X0049445Y0082026D02*
X0062811Y0082026D01*
X0062811Y0080453D02*
X0059804Y0080453D01*
X0058744Y0082063D02*
X0061512Y0084830D01*
X0061512Y0088744D01*
X0058744Y0091512D01*
X0054830Y0091512D01*
X0052063Y0088744D01*
X0052063Y0084830D01*
X0054830Y0082063D01*
X0058744Y0082063D01*
X0060282Y0083600D02*
X0062811Y0083600D01*
X0062811Y0085173D02*
X0061512Y0085173D01*
X0061512Y0086746D02*
X0062811Y0086746D01*
X0062811Y0088320D02*
X0061512Y0088320D01*
X0060364Y0089893D02*
X0062811Y0089893D01*
X0062811Y0091466D02*
X0058790Y0091466D01*
X0058744Y0092063D02*
X0061512Y0094830D01*
X0061512Y0098744D01*
X0058744Y0101512D01*
X0054830Y0101512D01*
X0052063Y0098744D01*
X0052063Y0094830D01*
X0054830Y0092063D01*
X0058744Y0092063D01*
X0059722Y0093040D02*
X0062811Y0093040D01*
X0062811Y0094613D02*
X0061295Y0094613D01*
X0061512Y0096186D02*
X0062811Y0096186D01*
X0062811Y0097760D02*
X0061512Y0097760D01*
X0060924Y0099333D02*
X0062811Y0099333D01*
X0062811Y0100906D02*
X0059350Y0100906D01*
X0058744Y0102063D02*
X0061512Y0104830D01*
X0061512Y0108744D01*
X0058744Y0111512D01*
X0054830Y0111512D01*
X0052063Y0108744D01*
X0052063Y0104830D01*
X0054830Y0102063D01*
X0058744Y0102063D01*
X0059161Y0102480D02*
X0062811Y0102480D01*
X0062811Y0104053D02*
X0060735Y0104053D01*
X0061512Y0105626D02*
X0062811Y0105626D01*
X0062811Y0107199D02*
X0061512Y0107199D01*
X0061484Y0108773D02*
X0062811Y0108773D01*
X0062811Y0110346D02*
X0059911Y0110346D01*
X0053664Y0110346D02*
X0028756Y0110346D01*
X0028756Y0108773D02*
X0052091Y0108773D01*
X0052063Y0107199D02*
X0040121Y0107199D01*
X0040411Y0106909D02*
X0039209Y0108111D01*
X0037638Y0108762D01*
X0035937Y0108762D01*
X0034366Y0108111D01*
X0033163Y0106909D01*
X0032513Y0105338D01*
X0032513Y0098237D01*
X0033163Y0096666D01*
X0034366Y0095463D01*
X0035937Y0094813D01*
X0037638Y0094813D01*
X0039209Y0095463D01*
X0040411Y0096666D01*
X0041062Y0098237D01*
X0041062Y0099819D01*
X0043472Y0099819D01*
X0044130Y0099161D01*
X0044130Y0098759D01*
X0044534Y0097782D01*
X0045282Y0097034D01*
X0046259Y0096630D01*
X0047316Y0096630D01*
X0048293Y0097034D01*
X0049040Y0097782D01*
X0049445Y0098759D01*
X0049445Y0099816D01*
X0049040Y0100793D01*
X0048293Y0101540D01*
X0047316Y0101945D01*
X0046914Y0101945D01*
X0045103Y0103756D01*
X0041062Y0103756D01*
X0041062Y0105338D01*
X0040411Y0106909D01*
X0040943Y0105626D02*
X0052063Y0105626D01*
X0052840Y0104053D02*
X0041062Y0104053D01*
X0041062Y0099333D02*
X0043958Y0099333D01*
X0044557Y0097760D02*
X0040864Y0097760D01*
X0039932Y0096186D02*
X0052063Y0096186D01*
X0052063Y0097760D02*
X0049018Y0097760D01*
X0049445Y0099333D02*
X0052651Y0099333D01*
X0054224Y0100906D02*
X0048927Y0100906D01*
X0046379Y0102480D02*
X0054413Y0102480D01*
X0052280Y0094613D02*
X0004543Y0094613D01*
X0004543Y0096186D02*
X0013643Y0096186D01*
X0012710Y0097760D02*
X0004543Y0097760D01*
X0004543Y0099333D02*
X0012513Y0099333D01*
X0012513Y0104053D02*
X0009806Y0104053D01*
X0009109Y0105626D02*
X0012632Y0105626D01*
X0013454Y0107199D02*
X0004543Y0107199D01*
X0004543Y0102480D02*
X0004837Y0102480D01*
X0004543Y0100906D02*
X0007385Y0100906D01*
X0004543Y0093040D02*
X0014294Y0093040D01*
X0012980Y0091466D02*
X0008367Y0091466D01*
X0009413Y0089893D02*
X0012513Y0089893D01*
X0012513Y0083600D02*
X0004543Y0083600D01*
X0004543Y0085173D02*
X0008118Y0085173D01*
X0005978Y0086746D02*
X0004543Y0086746D01*
X0004543Y0082026D02*
X0013014Y0082026D01*
X0005208Y0091466D02*
X0004543Y0091466D01*
X0029281Y0093040D02*
X0034294Y0093040D01*
X0032980Y0091466D02*
X0030595Y0091466D01*
X0031062Y0089893D02*
X0032513Y0089893D01*
X0032513Y0088320D02*
X0031062Y0088320D01*
X0031062Y0086746D02*
X0032513Y0086746D01*
X0032513Y0085173D02*
X0031062Y0085173D01*
X0031062Y0083600D02*
X0032513Y0083600D01*
X0033014Y0082026D02*
X0030561Y0082026D01*
X0029184Y0080453D02*
X0034391Y0080453D01*
X0039184Y0080453D02*
X0044464Y0080453D01*
X0043764Y0082026D02*
X0040561Y0082026D01*
X0041062Y0083600D02*
X0042191Y0083600D01*
X0044612Y0086746D02*
X0052063Y0086746D01*
X0052063Y0085173D02*
X0046186Y0085173D01*
X0048733Y0083600D02*
X0053293Y0083600D01*
X0052063Y0088320D02*
X0043039Y0088320D01*
X0041062Y0089893D02*
X0053211Y0089893D01*
X0054784Y0091466D02*
X0040595Y0091466D01*
X0039281Y0093040D02*
X0053853Y0093040D01*
X0061377Y0078880D02*
X0062811Y0078880D01*
X0063642Y0077306D02*
X0061512Y0077306D01*
X0061512Y0075733D02*
X0065215Y0075733D01*
X0066789Y0074160D02*
X0060842Y0074160D01*
X0059268Y0072587D02*
X0068362Y0072587D01*
X0075503Y0071013D02*
X0096787Y0071013D01*
X0096787Y0069440D02*
X0077076Y0069440D01*
X0083294Y0063147D02*
X0062110Y0063147D01*
X0063683Y0061573D02*
X0082222Y0061573D01*
X0081432Y0060000D02*
X0065256Y0060000D01*
X0066830Y0058427D02*
X0081010Y0058427D01*
X0080823Y0056853D02*
X0068403Y0056853D01*
X0069976Y0055280D02*
X0080823Y0055280D01*
X0081164Y0053707D02*
X0071550Y0053707D01*
X0073123Y0052133D02*
X0081646Y0052133D01*
X0082554Y0050560D02*
X0074696Y0050560D01*
X0076269Y0048987D02*
X0081541Y0048987D01*
X0084880Y0064720D02*
X0040064Y0064720D01*
X0020220Y0047414D02*
X0019907Y0047414D01*
X0013668Y0047414D02*
X0004543Y0047414D01*
X0004543Y0045840D02*
X0004582Y0045840D01*
X0008993Y0045840D02*
X0012721Y0045840D01*
X0012513Y0044267D02*
X0009592Y0044267D01*
X0007364Y0058427D02*
X0004543Y0058427D01*
X0004543Y0060000D02*
X0004817Y0060000D01*
X0029932Y0096186D02*
X0033643Y0096186D01*
X0032710Y0097760D02*
X0030864Y0097760D01*
X0031062Y0099333D02*
X0032513Y0099333D01*
X0032513Y0100906D02*
X0031062Y0100906D01*
X0031062Y0102480D02*
X0032513Y0102480D01*
X0032513Y0104053D02*
X0031062Y0104053D01*
X0030943Y0105626D02*
X0032632Y0105626D01*
X0033454Y0107199D02*
X0030121Y0107199D01*
X0028756Y0116639D02*
X0062811Y0116639D01*
X0062811Y0118213D02*
X0028756Y0118213D01*
X0028756Y0119786D02*
X0062811Y0119786D01*
X0062811Y0121359D02*
X0028756Y0121359D01*
X0028756Y0122933D02*
X0062811Y0122933D01*
X0062811Y0124506D02*
X0048224Y0124506D01*
X0048293Y0124534D02*
X0049040Y0125282D01*
X0049445Y0126259D01*
X0049445Y0127316D01*
X0049040Y0128293D01*
X0048293Y0129040D01*
X0047316Y0129445D01*
X0046914Y0129445D01*
X0042603Y0133756D01*
X0041062Y0133756D01*
X0041062Y0135338D01*
X0040411Y0136909D01*
X0039209Y0138111D01*
X0037638Y0138762D01*
X0035937Y0138762D01*
X0034366Y0138111D01*
X0033163Y0136909D01*
X0032513Y0135338D01*
X0032513Y0128237D01*
X0033163Y0126666D01*
X0034366Y0125463D01*
X0035937Y0124813D01*
X0037638Y0124813D01*
X0039209Y0125463D01*
X0040411Y0126666D01*
X0041062Y0128237D01*
X0041062Y0129729D01*
X0044130Y0126661D01*
X0044130Y0126259D01*
X0044534Y0125282D01*
X0045282Y0124534D01*
X0046259Y0124130D01*
X0047316Y0124130D01*
X0048293Y0124534D01*
X0049370Y0126079D02*
X0062811Y0126079D01*
X0062811Y0127653D02*
X0049305Y0127653D01*
X0047845Y0129226D02*
X0062811Y0129226D01*
X0062811Y0130799D02*
X0045559Y0130799D01*
X0043986Y0132373D02*
X0062811Y0132373D01*
X0062811Y0133946D02*
X0041062Y0133946D01*
X0040987Y0135519D02*
X0062811Y0135519D01*
X0062811Y0137092D02*
X0040228Y0137092D01*
X0037871Y0138666D02*
X0062811Y0138666D01*
X0062811Y0140239D02*
X0038667Y0140239D01*
X0040472Y0141812D02*
X0062811Y0141812D01*
X0062811Y0143386D02*
X0041062Y0143386D01*
X0041062Y0149679D02*
X0062811Y0149679D01*
X0062811Y0151252D02*
X0040683Y0151252D01*
X0039495Y0152826D02*
X0062811Y0152826D01*
X0062811Y0148106D02*
X0049118Y0148106D01*
X0049445Y0146532D02*
X0062811Y0146532D01*
X0062811Y0144959D02*
X0048717Y0144959D01*
X0033347Y0137092D02*
X0030228Y0137092D01*
X0030987Y0135519D02*
X0032588Y0135519D01*
X0032513Y0133946D02*
X0031062Y0133946D01*
X0031062Y0132373D02*
X0032513Y0132373D01*
X0032513Y0130799D02*
X0031062Y0130799D01*
X0031062Y0129226D02*
X0032513Y0129226D01*
X0032755Y0127653D02*
X0030820Y0127653D01*
X0029825Y0126079D02*
X0033750Y0126079D01*
X0028756Y0124506D02*
X0045351Y0124506D01*
X0044204Y0126079D02*
X0039825Y0126079D01*
X0040820Y0127653D02*
X0043138Y0127653D01*
X0041565Y0129226D02*
X0041062Y0129226D01*
X0023750Y0126079D02*
X0019825Y0126079D01*
X0020820Y0127653D02*
X0022755Y0127653D01*
X0022513Y0129226D02*
X0021062Y0129226D01*
X0021062Y0130799D02*
X0022513Y0130799D01*
X0022513Y0132373D02*
X0021062Y0132373D01*
X0021062Y0133946D02*
X0022513Y0133946D01*
X0022588Y0135519D02*
X0020987Y0135519D01*
X0020228Y0137092D02*
X0023347Y0137092D01*
D17*
X0069287Y0141787D02*
X0069287Y0079287D01*
X0076787Y0071787D01*
X0086787Y0071787D01*
X0106787Y0131787D02*
X0106787Y0146787D01*
X0101787Y0151787D01*
X0101787Y0164287D01*
X0106787Y0169287D01*
X0106787Y0176787D01*
X0071787Y0176787D02*
X0071787Y0144287D01*
X0069287Y0141787D01*
D18*
X0046787Y0146787D03*
X0046787Y0126787D03*
X0062417Y0113598D03*
X0046787Y0099287D03*
X0046787Y0081787D03*
X0046787Y0054287D03*
X0082890Y0046669D03*
X0102575Y0019898D03*
X0109661Y0057693D03*
X0111236Y0063992D03*
X0006787Y0061787D03*
X0006787Y0044287D03*
X0006787Y0089287D03*
X0006787Y0104287D03*
X0006787Y0134287D03*
M02*
