G75*
%MOIN*%
%OFA0B0*%
%FSLAX25Y25*%
%IPPOS*%
%LPD*%
%AMOC8*
5,1,8,0,0,1.08239X$1,22.5*
%
%ADD10C,0.00000*%
%ADD11C,0.00600*%
%ADD12C,0.00400*%
%ADD13C,0.00300*%
%ADD14C,0.00500*%
%ADD15C,0.01000*%
%ADD16R,0.10000X0.02000*%
D10*
X0001787Y0001787D02*
X0001787Y0185488D01*
X0156709Y0185488D01*
X0156709Y0001787D01*
X0001787Y0001787D01*
X0070114Y0176787D02*
X0070116Y0176868D01*
X0070122Y0176950D01*
X0070132Y0177031D01*
X0070146Y0177111D01*
X0070163Y0177190D01*
X0070185Y0177269D01*
X0070210Y0177346D01*
X0070239Y0177423D01*
X0070272Y0177497D01*
X0070309Y0177570D01*
X0070348Y0177641D01*
X0070392Y0177710D01*
X0070438Y0177777D01*
X0070488Y0177841D01*
X0070541Y0177903D01*
X0070597Y0177963D01*
X0070655Y0178019D01*
X0070717Y0178073D01*
X0070781Y0178124D01*
X0070847Y0178171D01*
X0070915Y0178215D01*
X0070986Y0178256D01*
X0071058Y0178293D01*
X0071133Y0178327D01*
X0071208Y0178357D01*
X0071286Y0178383D01*
X0071364Y0178406D01*
X0071443Y0178424D01*
X0071523Y0178439D01*
X0071604Y0178450D01*
X0071685Y0178457D01*
X0071767Y0178460D01*
X0071848Y0178459D01*
X0071929Y0178454D01*
X0072010Y0178445D01*
X0072091Y0178432D01*
X0072171Y0178415D01*
X0072249Y0178395D01*
X0072327Y0178370D01*
X0072404Y0178342D01*
X0072479Y0178310D01*
X0072552Y0178275D01*
X0072623Y0178236D01*
X0072693Y0178193D01*
X0072760Y0178148D01*
X0072826Y0178099D01*
X0072888Y0178047D01*
X0072948Y0177991D01*
X0073005Y0177933D01*
X0073060Y0177873D01*
X0073111Y0177809D01*
X0073159Y0177744D01*
X0073204Y0177676D01*
X0073246Y0177606D01*
X0073284Y0177534D01*
X0073319Y0177460D01*
X0073350Y0177385D01*
X0073377Y0177308D01*
X0073400Y0177230D01*
X0073420Y0177151D01*
X0073436Y0177071D01*
X0073448Y0176990D01*
X0073456Y0176909D01*
X0073460Y0176828D01*
X0073460Y0176746D01*
X0073456Y0176665D01*
X0073448Y0176584D01*
X0073436Y0176503D01*
X0073420Y0176423D01*
X0073400Y0176344D01*
X0073377Y0176266D01*
X0073350Y0176189D01*
X0073319Y0176114D01*
X0073284Y0176040D01*
X0073246Y0175968D01*
X0073204Y0175898D01*
X0073159Y0175830D01*
X0073111Y0175765D01*
X0073060Y0175701D01*
X0073005Y0175641D01*
X0072948Y0175583D01*
X0072888Y0175527D01*
X0072826Y0175475D01*
X0072760Y0175426D01*
X0072693Y0175381D01*
X0072624Y0175338D01*
X0072552Y0175299D01*
X0072479Y0175264D01*
X0072404Y0175232D01*
X0072327Y0175204D01*
X0072249Y0175179D01*
X0072171Y0175159D01*
X0072091Y0175142D01*
X0072010Y0175129D01*
X0071929Y0175120D01*
X0071848Y0175115D01*
X0071767Y0175114D01*
X0071685Y0175117D01*
X0071604Y0175124D01*
X0071523Y0175135D01*
X0071443Y0175150D01*
X0071364Y0175168D01*
X0071286Y0175191D01*
X0071208Y0175217D01*
X0071133Y0175247D01*
X0071058Y0175281D01*
X0070986Y0175318D01*
X0070915Y0175359D01*
X0070847Y0175403D01*
X0070781Y0175450D01*
X0070717Y0175501D01*
X0070655Y0175555D01*
X0070597Y0175611D01*
X0070541Y0175671D01*
X0070488Y0175733D01*
X0070438Y0175797D01*
X0070392Y0175864D01*
X0070348Y0175933D01*
X0070309Y0176004D01*
X0070272Y0176077D01*
X0070239Y0176151D01*
X0070210Y0176228D01*
X0070185Y0176305D01*
X0070163Y0176384D01*
X0070146Y0176463D01*
X0070132Y0176543D01*
X0070122Y0176624D01*
X0070116Y0176706D01*
X0070114Y0176787D01*
X0075114Y0176787D02*
X0075116Y0176868D01*
X0075122Y0176950D01*
X0075132Y0177031D01*
X0075146Y0177111D01*
X0075163Y0177190D01*
X0075185Y0177269D01*
X0075210Y0177346D01*
X0075239Y0177423D01*
X0075272Y0177497D01*
X0075309Y0177570D01*
X0075348Y0177641D01*
X0075392Y0177710D01*
X0075438Y0177777D01*
X0075488Y0177841D01*
X0075541Y0177903D01*
X0075597Y0177963D01*
X0075655Y0178019D01*
X0075717Y0178073D01*
X0075781Y0178124D01*
X0075847Y0178171D01*
X0075915Y0178215D01*
X0075986Y0178256D01*
X0076058Y0178293D01*
X0076133Y0178327D01*
X0076208Y0178357D01*
X0076286Y0178383D01*
X0076364Y0178406D01*
X0076443Y0178424D01*
X0076523Y0178439D01*
X0076604Y0178450D01*
X0076685Y0178457D01*
X0076767Y0178460D01*
X0076848Y0178459D01*
X0076929Y0178454D01*
X0077010Y0178445D01*
X0077091Y0178432D01*
X0077171Y0178415D01*
X0077249Y0178395D01*
X0077327Y0178370D01*
X0077404Y0178342D01*
X0077479Y0178310D01*
X0077552Y0178275D01*
X0077623Y0178236D01*
X0077693Y0178193D01*
X0077760Y0178148D01*
X0077826Y0178099D01*
X0077888Y0178047D01*
X0077948Y0177991D01*
X0078005Y0177933D01*
X0078060Y0177873D01*
X0078111Y0177809D01*
X0078159Y0177744D01*
X0078204Y0177676D01*
X0078246Y0177606D01*
X0078284Y0177534D01*
X0078319Y0177460D01*
X0078350Y0177385D01*
X0078377Y0177308D01*
X0078400Y0177230D01*
X0078420Y0177151D01*
X0078436Y0177071D01*
X0078448Y0176990D01*
X0078456Y0176909D01*
X0078460Y0176828D01*
X0078460Y0176746D01*
X0078456Y0176665D01*
X0078448Y0176584D01*
X0078436Y0176503D01*
X0078420Y0176423D01*
X0078400Y0176344D01*
X0078377Y0176266D01*
X0078350Y0176189D01*
X0078319Y0176114D01*
X0078284Y0176040D01*
X0078246Y0175968D01*
X0078204Y0175898D01*
X0078159Y0175830D01*
X0078111Y0175765D01*
X0078060Y0175701D01*
X0078005Y0175641D01*
X0077948Y0175583D01*
X0077888Y0175527D01*
X0077826Y0175475D01*
X0077760Y0175426D01*
X0077693Y0175381D01*
X0077624Y0175338D01*
X0077552Y0175299D01*
X0077479Y0175264D01*
X0077404Y0175232D01*
X0077327Y0175204D01*
X0077249Y0175179D01*
X0077171Y0175159D01*
X0077091Y0175142D01*
X0077010Y0175129D01*
X0076929Y0175120D01*
X0076848Y0175115D01*
X0076767Y0175114D01*
X0076685Y0175117D01*
X0076604Y0175124D01*
X0076523Y0175135D01*
X0076443Y0175150D01*
X0076364Y0175168D01*
X0076286Y0175191D01*
X0076208Y0175217D01*
X0076133Y0175247D01*
X0076058Y0175281D01*
X0075986Y0175318D01*
X0075915Y0175359D01*
X0075847Y0175403D01*
X0075781Y0175450D01*
X0075717Y0175501D01*
X0075655Y0175555D01*
X0075597Y0175611D01*
X0075541Y0175671D01*
X0075488Y0175733D01*
X0075438Y0175797D01*
X0075392Y0175864D01*
X0075348Y0175933D01*
X0075309Y0176004D01*
X0075272Y0176077D01*
X0075239Y0176151D01*
X0075210Y0176228D01*
X0075185Y0176305D01*
X0075163Y0176384D01*
X0075146Y0176463D01*
X0075132Y0176543D01*
X0075122Y0176624D01*
X0075116Y0176706D01*
X0075114Y0176787D01*
X0080114Y0176787D02*
X0080116Y0176868D01*
X0080122Y0176950D01*
X0080132Y0177031D01*
X0080146Y0177111D01*
X0080163Y0177190D01*
X0080185Y0177269D01*
X0080210Y0177346D01*
X0080239Y0177423D01*
X0080272Y0177497D01*
X0080309Y0177570D01*
X0080348Y0177641D01*
X0080392Y0177710D01*
X0080438Y0177777D01*
X0080488Y0177841D01*
X0080541Y0177903D01*
X0080597Y0177963D01*
X0080655Y0178019D01*
X0080717Y0178073D01*
X0080781Y0178124D01*
X0080847Y0178171D01*
X0080915Y0178215D01*
X0080986Y0178256D01*
X0081058Y0178293D01*
X0081133Y0178327D01*
X0081208Y0178357D01*
X0081286Y0178383D01*
X0081364Y0178406D01*
X0081443Y0178424D01*
X0081523Y0178439D01*
X0081604Y0178450D01*
X0081685Y0178457D01*
X0081767Y0178460D01*
X0081848Y0178459D01*
X0081929Y0178454D01*
X0082010Y0178445D01*
X0082091Y0178432D01*
X0082171Y0178415D01*
X0082249Y0178395D01*
X0082327Y0178370D01*
X0082404Y0178342D01*
X0082479Y0178310D01*
X0082552Y0178275D01*
X0082623Y0178236D01*
X0082693Y0178193D01*
X0082760Y0178148D01*
X0082826Y0178099D01*
X0082888Y0178047D01*
X0082948Y0177991D01*
X0083005Y0177933D01*
X0083060Y0177873D01*
X0083111Y0177809D01*
X0083159Y0177744D01*
X0083204Y0177676D01*
X0083246Y0177606D01*
X0083284Y0177534D01*
X0083319Y0177460D01*
X0083350Y0177385D01*
X0083377Y0177308D01*
X0083400Y0177230D01*
X0083420Y0177151D01*
X0083436Y0177071D01*
X0083448Y0176990D01*
X0083456Y0176909D01*
X0083460Y0176828D01*
X0083460Y0176746D01*
X0083456Y0176665D01*
X0083448Y0176584D01*
X0083436Y0176503D01*
X0083420Y0176423D01*
X0083400Y0176344D01*
X0083377Y0176266D01*
X0083350Y0176189D01*
X0083319Y0176114D01*
X0083284Y0176040D01*
X0083246Y0175968D01*
X0083204Y0175898D01*
X0083159Y0175830D01*
X0083111Y0175765D01*
X0083060Y0175701D01*
X0083005Y0175641D01*
X0082948Y0175583D01*
X0082888Y0175527D01*
X0082826Y0175475D01*
X0082760Y0175426D01*
X0082693Y0175381D01*
X0082624Y0175338D01*
X0082552Y0175299D01*
X0082479Y0175264D01*
X0082404Y0175232D01*
X0082327Y0175204D01*
X0082249Y0175179D01*
X0082171Y0175159D01*
X0082091Y0175142D01*
X0082010Y0175129D01*
X0081929Y0175120D01*
X0081848Y0175115D01*
X0081767Y0175114D01*
X0081685Y0175117D01*
X0081604Y0175124D01*
X0081523Y0175135D01*
X0081443Y0175150D01*
X0081364Y0175168D01*
X0081286Y0175191D01*
X0081208Y0175217D01*
X0081133Y0175247D01*
X0081058Y0175281D01*
X0080986Y0175318D01*
X0080915Y0175359D01*
X0080847Y0175403D01*
X0080781Y0175450D01*
X0080717Y0175501D01*
X0080655Y0175555D01*
X0080597Y0175611D01*
X0080541Y0175671D01*
X0080488Y0175733D01*
X0080438Y0175797D01*
X0080392Y0175864D01*
X0080348Y0175933D01*
X0080309Y0176004D01*
X0080272Y0176077D01*
X0080239Y0176151D01*
X0080210Y0176228D01*
X0080185Y0176305D01*
X0080163Y0176384D01*
X0080146Y0176463D01*
X0080132Y0176543D01*
X0080122Y0176624D01*
X0080116Y0176706D01*
X0080114Y0176787D01*
X0085114Y0176787D02*
X0085116Y0176868D01*
X0085122Y0176950D01*
X0085132Y0177031D01*
X0085146Y0177111D01*
X0085163Y0177190D01*
X0085185Y0177269D01*
X0085210Y0177346D01*
X0085239Y0177423D01*
X0085272Y0177497D01*
X0085309Y0177570D01*
X0085348Y0177641D01*
X0085392Y0177710D01*
X0085438Y0177777D01*
X0085488Y0177841D01*
X0085541Y0177903D01*
X0085597Y0177963D01*
X0085655Y0178019D01*
X0085717Y0178073D01*
X0085781Y0178124D01*
X0085847Y0178171D01*
X0085915Y0178215D01*
X0085986Y0178256D01*
X0086058Y0178293D01*
X0086133Y0178327D01*
X0086208Y0178357D01*
X0086286Y0178383D01*
X0086364Y0178406D01*
X0086443Y0178424D01*
X0086523Y0178439D01*
X0086604Y0178450D01*
X0086685Y0178457D01*
X0086767Y0178460D01*
X0086848Y0178459D01*
X0086929Y0178454D01*
X0087010Y0178445D01*
X0087091Y0178432D01*
X0087171Y0178415D01*
X0087249Y0178395D01*
X0087327Y0178370D01*
X0087404Y0178342D01*
X0087479Y0178310D01*
X0087552Y0178275D01*
X0087623Y0178236D01*
X0087693Y0178193D01*
X0087760Y0178148D01*
X0087826Y0178099D01*
X0087888Y0178047D01*
X0087948Y0177991D01*
X0088005Y0177933D01*
X0088060Y0177873D01*
X0088111Y0177809D01*
X0088159Y0177744D01*
X0088204Y0177676D01*
X0088246Y0177606D01*
X0088284Y0177534D01*
X0088319Y0177460D01*
X0088350Y0177385D01*
X0088377Y0177308D01*
X0088400Y0177230D01*
X0088420Y0177151D01*
X0088436Y0177071D01*
X0088448Y0176990D01*
X0088456Y0176909D01*
X0088460Y0176828D01*
X0088460Y0176746D01*
X0088456Y0176665D01*
X0088448Y0176584D01*
X0088436Y0176503D01*
X0088420Y0176423D01*
X0088400Y0176344D01*
X0088377Y0176266D01*
X0088350Y0176189D01*
X0088319Y0176114D01*
X0088284Y0176040D01*
X0088246Y0175968D01*
X0088204Y0175898D01*
X0088159Y0175830D01*
X0088111Y0175765D01*
X0088060Y0175701D01*
X0088005Y0175641D01*
X0087948Y0175583D01*
X0087888Y0175527D01*
X0087826Y0175475D01*
X0087760Y0175426D01*
X0087693Y0175381D01*
X0087624Y0175338D01*
X0087552Y0175299D01*
X0087479Y0175264D01*
X0087404Y0175232D01*
X0087327Y0175204D01*
X0087249Y0175179D01*
X0087171Y0175159D01*
X0087091Y0175142D01*
X0087010Y0175129D01*
X0086929Y0175120D01*
X0086848Y0175115D01*
X0086767Y0175114D01*
X0086685Y0175117D01*
X0086604Y0175124D01*
X0086523Y0175135D01*
X0086443Y0175150D01*
X0086364Y0175168D01*
X0086286Y0175191D01*
X0086208Y0175217D01*
X0086133Y0175247D01*
X0086058Y0175281D01*
X0085986Y0175318D01*
X0085915Y0175359D01*
X0085847Y0175403D01*
X0085781Y0175450D01*
X0085717Y0175501D01*
X0085655Y0175555D01*
X0085597Y0175611D01*
X0085541Y0175671D01*
X0085488Y0175733D01*
X0085438Y0175797D01*
X0085392Y0175864D01*
X0085348Y0175933D01*
X0085309Y0176004D01*
X0085272Y0176077D01*
X0085239Y0176151D01*
X0085210Y0176228D01*
X0085185Y0176305D01*
X0085163Y0176384D01*
X0085146Y0176463D01*
X0085132Y0176543D01*
X0085122Y0176624D01*
X0085116Y0176706D01*
X0085114Y0176787D01*
X0090114Y0176787D02*
X0090116Y0176868D01*
X0090122Y0176950D01*
X0090132Y0177031D01*
X0090146Y0177111D01*
X0090163Y0177190D01*
X0090185Y0177269D01*
X0090210Y0177346D01*
X0090239Y0177423D01*
X0090272Y0177497D01*
X0090309Y0177570D01*
X0090348Y0177641D01*
X0090392Y0177710D01*
X0090438Y0177777D01*
X0090488Y0177841D01*
X0090541Y0177903D01*
X0090597Y0177963D01*
X0090655Y0178019D01*
X0090717Y0178073D01*
X0090781Y0178124D01*
X0090847Y0178171D01*
X0090915Y0178215D01*
X0090986Y0178256D01*
X0091058Y0178293D01*
X0091133Y0178327D01*
X0091208Y0178357D01*
X0091286Y0178383D01*
X0091364Y0178406D01*
X0091443Y0178424D01*
X0091523Y0178439D01*
X0091604Y0178450D01*
X0091685Y0178457D01*
X0091767Y0178460D01*
X0091848Y0178459D01*
X0091929Y0178454D01*
X0092010Y0178445D01*
X0092091Y0178432D01*
X0092171Y0178415D01*
X0092249Y0178395D01*
X0092327Y0178370D01*
X0092404Y0178342D01*
X0092479Y0178310D01*
X0092552Y0178275D01*
X0092623Y0178236D01*
X0092693Y0178193D01*
X0092760Y0178148D01*
X0092826Y0178099D01*
X0092888Y0178047D01*
X0092948Y0177991D01*
X0093005Y0177933D01*
X0093060Y0177873D01*
X0093111Y0177809D01*
X0093159Y0177744D01*
X0093204Y0177676D01*
X0093246Y0177606D01*
X0093284Y0177534D01*
X0093319Y0177460D01*
X0093350Y0177385D01*
X0093377Y0177308D01*
X0093400Y0177230D01*
X0093420Y0177151D01*
X0093436Y0177071D01*
X0093448Y0176990D01*
X0093456Y0176909D01*
X0093460Y0176828D01*
X0093460Y0176746D01*
X0093456Y0176665D01*
X0093448Y0176584D01*
X0093436Y0176503D01*
X0093420Y0176423D01*
X0093400Y0176344D01*
X0093377Y0176266D01*
X0093350Y0176189D01*
X0093319Y0176114D01*
X0093284Y0176040D01*
X0093246Y0175968D01*
X0093204Y0175898D01*
X0093159Y0175830D01*
X0093111Y0175765D01*
X0093060Y0175701D01*
X0093005Y0175641D01*
X0092948Y0175583D01*
X0092888Y0175527D01*
X0092826Y0175475D01*
X0092760Y0175426D01*
X0092693Y0175381D01*
X0092624Y0175338D01*
X0092552Y0175299D01*
X0092479Y0175264D01*
X0092404Y0175232D01*
X0092327Y0175204D01*
X0092249Y0175179D01*
X0092171Y0175159D01*
X0092091Y0175142D01*
X0092010Y0175129D01*
X0091929Y0175120D01*
X0091848Y0175115D01*
X0091767Y0175114D01*
X0091685Y0175117D01*
X0091604Y0175124D01*
X0091523Y0175135D01*
X0091443Y0175150D01*
X0091364Y0175168D01*
X0091286Y0175191D01*
X0091208Y0175217D01*
X0091133Y0175247D01*
X0091058Y0175281D01*
X0090986Y0175318D01*
X0090915Y0175359D01*
X0090847Y0175403D01*
X0090781Y0175450D01*
X0090717Y0175501D01*
X0090655Y0175555D01*
X0090597Y0175611D01*
X0090541Y0175671D01*
X0090488Y0175733D01*
X0090438Y0175797D01*
X0090392Y0175864D01*
X0090348Y0175933D01*
X0090309Y0176004D01*
X0090272Y0176077D01*
X0090239Y0176151D01*
X0090210Y0176228D01*
X0090185Y0176305D01*
X0090163Y0176384D01*
X0090146Y0176463D01*
X0090132Y0176543D01*
X0090122Y0176624D01*
X0090116Y0176706D01*
X0090114Y0176787D01*
X0095114Y0176787D02*
X0095116Y0176868D01*
X0095122Y0176950D01*
X0095132Y0177031D01*
X0095146Y0177111D01*
X0095163Y0177190D01*
X0095185Y0177269D01*
X0095210Y0177346D01*
X0095239Y0177423D01*
X0095272Y0177497D01*
X0095309Y0177570D01*
X0095348Y0177641D01*
X0095392Y0177710D01*
X0095438Y0177777D01*
X0095488Y0177841D01*
X0095541Y0177903D01*
X0095597Y0177963D01*
X0095655Y0178019D01*
X0095717Y0178073D01*
X0095781Y0178124D01*
X0095847Y0178171D01*
X0095915Y0178215D01*
X0095986Y0178256D01*
X0096058Y0178293D01*
X0096133Y0178327D01*
X0096208Y0178357D01*
X0096286Y0178383D01*
X0096364Y0178406D01*
X0096443Y0178424D01*
X0096523Y0178439D01*
X0096604Y0178450D01*
X0096685Y0178457D01*
X0096767Y0178460D01*
X0096848Y0178459D01*
X0096929Y0178454D01*
X0097010Y0178445D01*
X0097091Y0178432D01*
X0097171Y0178415D01*
X0097249Y0178395D01*
X0097327Y0178370D01*
X0097404Y0178342D01*
X0097479Y0178310D01*
X0097552Y0178275D01*
X0097623Y0178236D01*
X0097693Y0178193D01*
X0097760Y0178148D01*
X0097826Y0178099D01*
X0097888Y0178047D01*
X0097948Y0177991D01*
X0098005Y0177933D01*
X0098060Y0177873D01*
X0098111Y0177809D01*
X0098159Y0177744D01*
X0098204Y0177676D01*
X0098246Y0177606D01*
X0098284Y0177534D01*
X0098319Y0177460D01*
X0098350Y0177385D01*
X0098377Y0177308D01*
X0098400Y0177230D01*
X0098420Y0177151D01*
X0098436Y0177071D01*
X0098448Y0176990D01*
X0098456Y0176909D01*
X0098460Y0176828D01*
X0098460Y0176746D01*
X0098456Y0176665D01*
X0098448Y0176584D01*
X0098436Y0176503D01*
X0098420Y0176423D01*
X0098400Y0176344D01*
X0098377Y0176266D01*
X0098350Y0176189D01*
X0098319Y0176114D01*
X0098284Y0176040D01*
X0098246Y0175968D01*
X0098204Y0175898D01*
X0098159Y0175830D01*
X0098111Y0175765D01*
X0098060Y0175701D01*
X0098005Y0175641D01*
X0097948Y0175583D01*
X0097888Y0175527D01*
X0097826Y0175475D01*
X0097760Y0175426D01*
X0097693Y0175381D01*
X0097624Y0175338D01*
X0097552Y0175299D01*
X0097479Y0175264D01*
X0097404Y0175232D01*
X0097327Y0175204D01*
X0097249Y0175179D01*
X0097171Y0175159D01*
X0097091Y0175142D01*
X0097010Y0175129D01*
X0096929Y0175120D01*
X0096848Y0175115D01*
X0096767Y0175114D01*
X0096685Y0175117D01*
X0096604Y0175124D01*
X0096523Y0175135D01*
X0096443Y0175150D01*
X0096364Y0175168D01*
X0096286Y0175191D01*
X0096208Y0175217D01*
X0096133Y0175247D01*
X0096058Y0175281D01*
X0095986Y0175318D01*
X0095915Y0175359D01*
X0095847Y0175403D01*
X0095781Y0175450D01*
X0095717Y0175501D01*
X0095655Y0175555D01*
X0095597Y0175611D01*
X0095541Y0175671D01*
X0095488Y0175733D01*
X0095438Y0175797D01*
X0095392Y0175864D01*
X0095348Y0175933D01*
X0095309Y0176004D01*
X0095272Y0176077D01*
X0095239Y0176151D01*
X0095210Y0176228D01*
X0095185Y0176305D01*
X0095163Y0176384D01*
X0095146Y0176463D01*
X0095132Y0176543D01*
X0095122Y0176624D01*
X0095116Y0176706D01*
X0095114Y0176787D01*
X0100114Y0176787D02*
X0100116Y0176868D01*
X0100122Y0176950D01*
X0100132Y0177031D01*
X0100146Y0177111D01*
X0100163Y0177190D01*
X0100185Y0177269D01*
X0100210Y0177346D01*
X0100239Y0177423D01*
X0100272Y0177497D01*
X0100309Y0177570D01*
X0100348Y0177641D01*
X0100392Y0177710D01*
X0100438Y0177777D01*
X0100488Y0177841D01*
X0100541Y0177903D01*
X0100597Y0177963D01*
X0100655Y0178019D01*
X0100717Y0178073D01*
X0100781Y0178124D01*
X0100847Y0178171D01*
X0100915Y0178215D01*
X0100986Y0178256D01*
X0101058Y0178293D01*
X0101133Y0178327D01*
X0101208Y0178357D01*
X0101286Y0178383D01*
X0101364Y0178406D01*
X0101443Y0178424D01*
X0101523Y0178439D01*
X0101604Y0178450D01*
X0101685Y0178457D01*
X0101767Y0178460D01*
X0101848Y0178459D01*
X0101929Y0178454D01*
X0102010Y0178445D01*
X0102091Y0178432D01*
X0102171Y0178415D01*
X0102249Y0178395D01*
X0102327Y0178370D01*
X0102404Y0178342D01*
X0102479Y0178310D01*
X0102552Y0178275D01*
X0102623Y0178236D01*
X0102693Y0178193D01*
X0102760Y0178148D01*
X0102826Y0178099D01*
X0102888Y0178047D01*
X0102948Y0177991D01*
X0103005Y0177933D01*
X0103060Y0177873D01*
X0103111Y0177809D01*
X0103159Y0177744D01*
X0103204Y0177676D01*
X0103246Y0177606D01*
X0103284Y0177534D01*
X0103319Y0177460D01*
X0103350Y0177385D01*
X0103377Y0177308D01*
X0103400Y0177230D01*
X0103420Y0177151D01*
X0103436Y0177071D01*
X0103448Y0176990D01*
X0103456Y0176909D01*
X0103460Y0176828D01*
X0103460Y0176746D01*
X0103456Y0176665D01*
X0103448Y0176584D01*
X0103436Y0176503D01*
X0103420Y0176423D01*
X0103400Y0176344D01*
X0103377Y0176266D01*
X0103350Y0176189D01*
X0103319Y0176114D01*
X0103284Y0176040D01*
X0103246Y0175968D01*
X0103204Y0175898D01*
X0103159Y0175830D01*
X0103111Y0175765D01*
X0103060Y0175701D01*
X0103005Y0175641D01*
X0102948Y0175583D01*
X0102888Y0175527D01*
X0102826Y0175475D01*
X0102760Y0175426D01*
X0102693Y0175381D01*
X0102624Y0175338D01*
X0102552Y0175299D01*
X0102479Y0175264D01*
X0102404Y0175232D01*
X0102327Y0175204D01*
X0102249Y0175179D01*
X0102171Y0175159D01*
X0102091Y0175142D01*
X0102010Y0175129D01*
X0101929Y0175120D01*
X0101848Y0175115D01*
X0101767Y0175114D01*
X0101685Y0175117D01*
X0101604Y0175124D01*
X0101523Y0175135D01*
X0101443Y0175150D01*
X0101364Y0175168D01*
X0101286Y0175191D01*
X0101208Y0175217D01*
X0101133Y0175247D01*
X0101058Y0175281D01*
X0100986Y0175318D01*
X0100915Y0175359D01*
X0100847Y0175403D01*
X0100781Y0175450D01*
X0100717Y0175501D01*
X0100655Y0175555D01*
X0100597Y0175611D01*
X0100541Y0175671D01*
X0100488Y0175733D01*
X0100438Y0175797D01*
X0100392Y0175864D01*
X0100348Y0175933D01*
X0100309Y0176004D01*
X0100272Y0176077D01*
X0100239Y0176151D01*
X0100210Y0176228D01*
X0100185Y0176305D01*
X0100163Y0176384D01*
X0100146Y0176463D01*
X0100132Y0176543D01*
X0100122Y0176624D01*
X0100116Y0176706D01*
X0100114Y0176787D01*
X0105114Y0176787D02*
X0105116Y0176868D01*
X0105122Y0176950D01*
X0105132Y0177031D01*
X0105146Y0177111D01*
X0105163Y0177190D01*
X0105185Y0177269D01*
X0105210Y0177346D01*
X0105239Y0177423D01*
X0105272Y0177497D01*
X0105309Y0177570D01*
X0105348Y0177641D01*
X0105392Y0177710D01*
X0105438Y0177777D01*
X0105488Y0177841D01*
X0105541Y0177903D01*
X0105597Y0177963D01*
X0105655Y0178019D01*
X0105717Y0178073D01*
X0105781Y0178124D01*
X0105847Y0178171D01*
X0105915Y0178215D01*
X0105986Y0178256D01*
X0106058Y0178293D01*
X0106133Y0178327D01*
X0106208Y0178357D01*
X0106286Y0178383D01*
X0106364Y0178406D01*
X0106443Y0178424D01*
X0106523Y0178439D01*
X0106604Y0178450D01*
X0106685Y0178457D01*
X0106767Y0178460D01*
X0106848Y0178459D01*
X0106929Y0178454D01*
X0107010Y0178445D01*
X0107091Y0178432D01*
X0107171Y0178415D01*
X0107249Y0178395D01*
X0107327Y0178370D01*
X0107404Y0178342D01*
X0107479Y0178310D01*
X0107552Y0178275D01*
X0107623Y0178236D01*
X0107693Y0178193D01*
X0107760Y0178148D01*
X0107826Y0178099D01*
X0107888Y0178047D01*
X0107948Y0177991D01*
X0108005Y0177933D01*
X0108060Y0177873D01*
X0108111Y0177809D01*
X0108159Y0177744D01*
X0108204Y0177676D01*
X0108246Y0177606D01*
X0108284Y0177534D01*
X0108319Y0177460D01*
X0108350Y0177385D01*
X0108377Y0177308D01*
X0108400Y0177230D01*
X0108420Y0177151D01*
X0108436Y0177071D01*
X0108448Y0176990D01*
X0108456Y0176909D01*
X0108460Y0176828D01*
X0108460Y0176746D01*
X0108456Y0176665D01*
X0108448Y0176584D01*
X0108436Y0176503D01*
X0108420Y0176423D01*
X0108400Y0176344D01*
X0108377Y0176266D01*
X0108350Y0176189D01*
X0108319Y0176114D01*
X0108284Y0176040D01*
X0108246Y0175968D01*
X0108204Y0175898D01*
X0108159Y0175830D01*
X0108111Y0175765D01*
X0108060Y0175701D01*
X0108005Y0175641D01*
X0107948Y0175583D01*
X0107888Y0175527D01*
X0107826Y0175475D01*
X0107760Y0175426D01*
X0107693Y0175381D01*
X0107624Y0175338D01*
X0107552Y0175299D01*
X0107479Y0175264D01*
X0107404Y0175232D01*
X0107327Y0175204D01*
X0107249Y0175179D01*
X0107171Y0175159D01*
X0107091Y0175142D01*
X0107010Y0175129D01*
X0106929Y0175120D01*
X0106848Y0175115D01*
X0106767Y0175114D01*
X0106685Y0175117D01*
X0106604Y0175124D01*
X0106523Y0175135D01*
X0106443Y0175150D01*
X0106364Y0175168D01*
X0106286Y0175191D01*
X0106208Y0175217D01*
X0106133Y0175247D01*
X0106058Y0175281D01*
X0105986Y0175318D01*
X0105915Y0175359D01*
X0105847Y0175403D01*
X0105781Y0175450D01*
X0105717Y0175501D01*
X0105655Y0175555D01*
X0105597Y0175611D01*
X0105541Y0175671D01*
X0105488Y0175733D01*
X0105438Y0175797D01*
X0105392Y0175864D01*
X0105348Y0175933D01*
X0105309Y0176004D01*
X0105272Y0176077D01*
X0105239Y0176151D01*
X0105210Y0176228D01*
X0105185Y0176305D01*
X0105163Y0176384D01*
X0105146Y0176463D01*
X0105132Y0176543D01*
X0105122Y0176624D01*
X0105116Y0176706D01*
X0105114Y0176787D01*
D11*
X0113787Y0174787D02*
X0113787Y0173787D01*
X0114787Y0173787D01*
X0118787Y0173787D02*
X0119787Y0173787D01*
X0119787Y0174787D01*
X0119787Y0178787D02*
X0119787Y0179787D01*
X0118787Y0179787D01*
X0114787Y0179787D02*
X0113787Y0179787D01*
X0113787Y0178787D01*
X0113787Y0159787D02*
X0113787Y0158787D01*
X0113787Y0159787D02*
X0114787Y0159787D01*
X0118787Y0159787D02*
X0119787Y0159787D01*
X0119787Y0158787D01*
X0119787Y0154787D02*
X0119787Y0153787D01*
X0118787Y0153787D01*
X0118787Y0149787D02*
X0119787Y0149787D01*
X0119787Y0148787D01*
X0119787Y0144787D02*
X0119787Y0143787D01*
X0118787Y0143787D01*
X0114787Y0143787D02*
X0113787Y0143787D01*
X0113787Y0144787D01*
X0109787Y0144787D02*
X0109787Y0143787D01*
X0108787Y0143787D01*
X0104787Y0143787D02*
X0103787Y0143787D01*
X0103787Y0144787D01*
X0103787Y0148787D02*
X0103787Y0149787D01*
X0104787Y0149787D01*
X0104787Y0153787D02*
X0103787Y0153787D01*
X0103787Y0154787D01*
X0103787Y0158787D02*
X0103787Y0159787D01*
X0104787Y0159787D01*
X0108787Y0159787D02*
X0109787Y0159787D01*
X0109787Y0158787D01*
X0109787Y0154787D02*
X0109787Y0153787D01*
X0108787Y0153787D01*
X0108787Y0149787D02*
X0109787Y0149787D01*
X0109787Y0148787D01*
X0113787Y0148787D02*
X0113787Y0149787D01*
X0114787Y0149787D01*
X0114787Y0153787D02*
X0113787Y0153787D01*
X0113787Y0154787D01*
X0123787Y0154787D02*
X0123787Y0153787D01*
X0124787Y0153787D01*
X0124787Y0149787D02*
X0123787Y0149787D01*
X0123787Y0148787D01*
X0123787Y0144787D02*
X0123787Y0143787D01*
X0124787Y0143787D01*
X0128787Y0143787D02*
X0129787Y0143787D01*
X0129787Y0144787D01*
X0129787Y0148787D02*
X0129787Y0149787D01*
X0128787Y0149787D01*
X0128787Y0153787D02*
X0129787Y0153787D01*
X0129787Y0154787D01*
X0129787Y0158787D02*
X0129787Y0159787D01*
X0128787Y0159787D01*
X0124787Y0159787D02*
X0123787Y0159787D01*
X0123787Y0158787D01*
X0133787Y0158787D02*
X0133787Y0159787D01*
X0134787Y0159787D01*
X0134787Y0163787D02*
X0133787Y0163787D01*
X0133787Y0164787D01*
X0133787Y0168787D02*
X0133787Y0169787D01*
X0134787Y0169787D01*
X0134787Y0173787D02*
X0133787Y0173787D01*
X0133787Y0174787D01*
X0133787Y0178787D02*
X0133787Y0179787D01*
X0134787Y0179787D01*
X0138787Y0179787D02*
X0139787Y0179787D01*
X0139787Y0178787D01*
X0139787Y0174787D02*
X0139787Y0173787D01*
X0138787Y0173787D01*
X0138787Y0169787D02*
X0139787Y0169787D01*
X0139787Y0168787D01*
X0139787Y0164787D02*
X0139787Y0163787D01*
X0138787Y0163787D01*
X0138787Y0159787D02*
X0139787Y0159787D01*
X0139787Y0158787D01*
X0139787Y0154787D02*
X0139787Y0153787D01*
X0138787Y0153787D01*
X0138787Y0149787D02*
X0139787Y0149787D01*
X0139787Y0148787D01*
X0139787Y0144787D02*
X0139787Y0143787D01*
X0138787Y0143787D01*
X0134787Y0143787D02*
X0133787Y0143787D01*
X0133787Y0144787D01*
X0133787Y0148787D02*
X0133787Y0149787D01*
X0134787Y0149787D01*
X0134787Y0153787D02*
X0133787Y0153787D01*
X0133787Y0154787D01*
X0143787Y0154787D02*
X0143787Y0153787D01*
X0144787Y0153787D01*
X0144787Y0149787D02*
X0143787Y0149787D01*
X0143787Y0148787D01*
X0143787Y0144787D02*
X0143787Y0143787D01*
X0144787Y0143787D01*
X0148787Y0143787D02*
X0149787Y0143787D01*
X0149787Y0144787D01*
X0149787Y0148787D02*
X0149787Y0149787D01*
X0148787Y0149787D01*
X0148787Y0153787D02*
X0149787Y0153787D01*
X0149787Y0154787D01*
X0149787Y0158787D02*
X0149787Y0159787D01*
X0148787Y0159787D01*
X0144787Y0159787D02*
X0143787Y0159787D01*
X0143787Y0158787D01*
X0143787Y0163787D02*
X0144787Y0163787D01*
X0143787Y0163787D02*
X0143787Y0164787D01*
X0143787Y0168787D02*
X0143787Y0169787D01*
X0144787Y0169787D01*
X0144787Y0173787D02*
X0143787Y0173787D01*
X0143787Y0174787D01*
X0143787Y0178787D02*
X0143787Y0179787D01*
X0144787Y0179787D01*
X0148787Y0179787D02*
X0149787Y0179787D01*
X0149787Y0178787D01*
X0149787Y0174787D02*
X0149787Y0173787D01*
X0148787Y0173787D01*
X0148787Y0169787D02*
X0149787Y0169787D01*
X0149787Y0168787D01*
X0149787Y0164787D02*
X0149787Y0163787D01*
X0148787Y0163787D01*
X0148787Y0119787D02*
X0149787Y0119787D01*
X0149787Y0118787D01*
X0149787Y0114787D02*
X0149787Y0113787D01*
X0148787Y0113787D01*
X0148787Y0109787D02*
X0149787Y0109787D01*
X0149787Y0108787D01*
X0149787Y0104787D02*
X0149787Y0103787D01*
X0148787Y0103787D01*
X0148787Y0099787D02*
X0149787Y0099787D01*
X0149787Y0098787D01*
X0149787Y0094787D02*
X0149787Y0093787D01*
X0148787Y0093787D01*
X0148787Y0089787D02*
X0149787Y0089787D01*
X0149787Y0088787D01*
X0149787Y0084787D02*
X0149787Y0083787D01*
X0148787Y0083787D01*
X0148787Y0079787D02*
X0149787Y0079787D01*
X0149787Y0078787D01*
X0149787Y0074787D02*
X0149787Y0073787D01*
X0148787Y0073787D01*
X0148787Y0069787D02*
X0149787Y0069787D01*
X0149787Y0068787D01*
X0149787Y0064787D02*
X0149787Y0063787D01*
X0148787Y0063787D01*
X0144787Y0063787D02*
X0143787Y0063787D01*
X0143787Y0064787D01*
X0139787Y0064787D02*
X0139787Y0063787D01*
X0138787Y0063787D01*
X0134787Y0063787D02*
X0133787Y0063787D01*
X0133787Y0064787D01*
X0129787Y0064787D02*
X0129787Y0063787D01*
X0128787Y0063787D01*
X0124787Y0063787D02*
X0123787Y0063787D01*
X0123787Y0064787D01*
X0119787Y0064787D02*
X0119787Y0063787D01*
X0118787Y0063787D01*
X0114787Y0063787D02*
X0113787Y0063787D01*
X0113787Y0064787D01*
X0109787Y0064787D02*
X0109787Y0063787D01*
X0108787Y0063787D01*
X0104787Y0063787D02*
X0103787Y0063787D01*
X0103787Y0064787D01*
X0103787Y0068787D02*
X0103787Y0069787D01*
X0104787Y0069787D01*
X0104787Y0073787D02*
X0103787Y0073787D01*
X0103787Y0074787D01*
X0103787Y0078787D02*
X0103787Y0079787D01*
X0104787Y0079787D01*
X0104787Y0083787D02*
X0103787Y0083787D01*
X0103787Y0084787D01*
X0103787Y0088787D02*
X0103787Y0089787D01*
X0104787Y0089787D01*
X0104787Y0093787D02*
X0103787Y0093787D01*
X0103787Y0094787D01*
X0103787Y0098787D02*
X0103787Y0099787D01*
X0104787Y0099787D01*
X0104787Y0103787D02*
X0103787Y0103787D01*
X0103787Y0104787D01*
X0103787Y0108787D02*
X0103787Y0109787D01*
X0104787Y0109787D01*
X0104787Y0113787D02*
X0103787Y0113787D01*
X0103787Y0114787D01*
X0103787Y0118787D02*
X0103787Y0119787D01*
X0104787Y0119787D01*
X0108787Y0119787D02*
X0109787Y0119787D01*
X0109787Y0118787D01*
X0109787Y0114787D02*
X0109787Y0113787D01*
X0108787Y0113787D01*
X0108787Y0109787D02*
X0109787Y0109787D01*
X0109787Y0108787D01*
X0109787Y0104787D02*
X0109787Y0103787D01*
X0108787Y0103787D01*
X0108787Y0099787D02*
X0109787Y0099787D01*
X0109787Y0098787D01*
X0109787Y0094787D02*
X0109787Y0093787D01*
X0108787Y0093787D01*
X0108787Y0089787D02*
X0109787Y0089787D01*
X0109787Y0088787D01*
X0109787Y0084787D02*
X0109787Y0083787D01*
X0108787Y0083787D01*
X0108787Y0079787D02*
X0109787Y0079787D01*
X0109787Y0078787D01*
X0109787Y0074787D02*
X0109787Y0073787D01*
X0108787Y0073787D01*
X0108787Y0069787D02*
X0109787Y0069787D01*
X0109787Y0068787D01*
X0113787Y0068787D02*
X0113787Y0069787D01*
X0114787Y0069787D01*
X0114787Y0073787D02*
X0113787Y0073787D01*
X0113787Y0074787D01*
X0113787Y0078787D02*
X0113787Y0079787D01*
X0114787Y0079787D01*
X0114787Y0083787D02*
X0113787Y0083787D01*
X0113787Y0084787D01*
X0113787Y0088787D02*
X0113787Y0089787D01*
X0114787Y0089787D01*
X0114787Y0093787D02*
X0113787Y0093787D01*
X0113787Y0094787D01*
X0113787Y0098787D02*
X0113787Y0099787D01*
X0114787Y0099787D01*
X0114787Y0103787D02*
X0113787Y0103787D01*
X0113787Y0104787D01*
X0113787Y0108787D02*
X0113787Y0109787D01*
X0114787Y0109787D01*
X0114787Y0113787D02*
X0113787Y0113787D01*
X0113787Y0114787D01*
X0113787Y0118787D02*
X0113787Y0119787D01*
X0114787Y0119787D01*
X0118787Y0119787D02*
X0119787Y0119787D01*
X0119787Y0118787D01*
X0119787Y0114787D02*
X0119787Y0113787D01*
X0118787Y0113787D01*
X0118787Y0109787D02*
X0119787Y0109787D01*
X0119787Y0108787D01*
X0119787Y0104787D02*
X0119787Y0103787D01*
X0118787Y0103787D01*
X0118787Y0099787D02*
X0119787Y0099787D01*
X0119787Y0098787D01*
X0119787Y0094787D02*
X0119787Y0093787D01*
X0118787Y0093787D01*
X0118787Y0089787D02*
X0119787Y0089787D01*
X0119787Y0088787D01*
X0119787Y0084787D02*
X0119787Y0083787D01*
X0118787Y0083787D01*
X0118787Y0079787D02*
X0119787Y0079787D01*
X0119787Y0078787D01*
X0119787Y0074787D02*
X0119787Y0073787D01*
X0118787Y0073787D01*
X0118787Y0069787D02*
X0119787Y0069787D01*
X0119787Y0068787D01*
X0123787Y0068787D02*
X0123787Y0069787D01*
X0124787Y0069787D01*
X0124787Y0073787D02*
X0123787Y0073787D01*
X0123787Y0074787D01*
X0123787Y0078787D02*
X0123787Y0079787D01*
X0124787Y0079787D01*
X0124787Y0083787D02*
X0123787Y0083787D01*
X0123787Y0084787D01*
X0123787Y0088787D02*
X0123787Y0089787D01*
X0124787Y0089787D01*
X0124787Y0093787D02*
X0123787Y0093787D01*
X0123787Y0094787D01*
X0123787Y0098787D02*
X0123787Y0099787D01*
X0124787Y0099787D01*
X0124787Y0103787D02*
X0123787Y0103787D01*
X0123787Y0104787D01*
X0123787Y0108787D02*
X0123787Y0109787D01*
X0124787Y0109787D01*
X0124787Y0113787D02*
X0123787Y0113787D01*
X0123787Y0114787D01*
X0123787Y0118787D02*
X0123787Y0119787D01*
X0124787Y0119787D01*
X0128787Y0119787D02*
X0129787Y0119787D01*
X0129787Y0118787D01*
X0129787Y0114787D02*
X0129787Y0113787D01*
X0128787Y0113787D01*
X0128787Y0109787D02*
X0129787Y0109787D01*
X0129787Y0108787D01*
X0129787Y0104787D02*
X0129787Y0103787D01*
X0128787Y0103787D01*
X0128787Y0099787D02*
X0129787Y0099787D01*
X0129787Y0098787D01*
X0129787Y0094787D02*
X0129787Y0093787D01*
X0128787Y0093787D01*
X0128787Y0089787D02*
X0129787Y0089787D01*
X0129787Y0088787D01*
X0129787Y0084787D02*
X0129787Y0083787D01*
X0128787Y0083787D01*
X0128787Y0079787D02*
X0129787Y0079787D01*
X0129787Y0078787D01*
X0129787Y0074787D02*
X0129787Y0073787D01*
X0128787Y0073787D01*
X0128787Y0069787D02*
X0129787Y0069787D01*
X0129787Y0068787D01*
X0133787Y0068787D02*
X0133787Y0069787D01*
X0134787Y0069787D01*
X0134787Y0073787D02*
X0133787Y0073787D01*
X0133787Y0074787D01*
X0133787Y0078787D02*
X0133787Y0079787D01*
X0134787Y0079787D01*
X0134787Y0083787D02*
X0133787Y0083787D01*
X0133787Y0084787D01*
X0133787Y0088787D02*
X0133787Y0089787D01*
X0134787Y0089787D01*
X0134787Y0093787D02*
X0133787Y0093787D01*
X0133787Y0094787D01*
X0133787Y0098787D02*
X0133787Y0099787D01*
X0134787Y0099787D01*
X0134787Y0103787D02*
X0133787Y0103787D01*
X0133787Y0104787D01*
X0133787Y0108787D02*
X0133787Y0109787D01*
X0134787Y0109787D01*
X0134787Y0113787D02*
X0133787Y0113787D01*
X0133787Y0114787D01*
X0133787Y0118787D02*
X0133787Y0119787D01*
X0134787Y0119787D01*
X0138787Y0119787D02*
X0139787Y0119787D01*
X0139787Y0118787D01*
X0139787Y0114787D02*
X0139787Y0113787D01*
X0138787Y0113787D01*
X0138787Y0109787D02*
X0139787Y0109787D01*
X0139787Y0108787D01*
X0139787Y0104787D02*
X0139787Y0103787D01*
X0138787Y0103787D01*
X0138787Y0099787D02*
X0139787Y0099787D01*
X0139787Y0098787D01*
X0139787Y0094787D02*
X0139787Y0093787D01*
X0138787Y0093787D01*
X0138787Y0089787D02*
X0139787Y0089787D01*
X0139787Y0088787D01*
X0139787Y0084787D02*
X0139787Y0083787D01*
X0138787Y0083787D01*
X0138787Y0079787D02*
X0139787Y0079787D01*
X0139787Y0078787D01*
X0139787Y0074787D02*
X0139787Y0073787D01*
X0138787Y0073787D01*
X0138787Y0069787D02*
X0139787Y0069787D01*
X0139787Y0068787D01*
X0143787Y0068787D02*
X0143787Y0069787D01*
X0144787Y0069787D01*
X0144787Y0073787D02*
X0143787Y0073787D01*
X0143787Y0074787D01*
X0143787Y0078787D02*
X0143787Y0079787D01*
X0144787Y0079787D01*
X0144787Y0083787D02*
X0143787Y0083787D01*
X0143787Y0084787D01*
X0143787Y0088787D02*
X0143787Y0089787D01*
X0144787Y0089787D01*
X0144787Y0093787D02*
X0143787Y0093787D01*
X0143787Y0094787D01*
X0143787Y0098787D02*
X0143787Y0099787D01*
X0144787Y0099787D01*
X0144787Y0103787D02*
X0143787Y0103787D01*
X0143787Y0104787D01*
X0143787Y0108787D02*
X0143787Y0109787D01*
X0144787Y0109787D01*
X0144787Y0113787D02*
X0143787Y0113787D01*
X0143787Y0114787D01*
X0143787Y0118787D02*
X0143787Y0119787D01*
X0144787Y0119787D01*
X0071487Y0120468D02*
X0067217Y0120468D01*
X0067217Y0123671D01*
X0068285Y0124738D01*
X0071487Y0124738D01*
X0071487Y0126914D02*
X0071487Y0129049D01*
X0071487Y0127981D02*
X0067217Y0127981D01*
X0067217Y0126914D01*
X0065082Y0127981D02*
X0064014Y0127981D01*
X0071487Y0118306D02*
X0071487Y0116171D01*
X0071487Y0117239D02*
X0067217Y0117239D01*
X0067217Y0116171D01*
X0065082Y0117239D02*
X0064014Y0117239D01*
X0065082Y0113996D02*
X0071487Y0113996D01*
X0071487Y0109726D02*
X0065082Y0109726D01*
X0067217Y0111861D01*
X0065082Y0113996D01*
X0059787Y0109787D02*
X0059787Y0108787D01*
X0059787Y0109787D02*
X0058787Y0109787D01*
X0054787Y0109787D02*
X0053787Y0109787D01*
X0053787Y0108787D01*
X0053787Y0104787D02*
X0053787Y0103787D01*
X0054787Y0103787D01*
X0054787Y0099787D02*
X0053787Y0099787D01*
X0053787Y0098787D01*
X0053787Y0094787D02*
X0053787Y0093787D01*
X0054787Y0093787D01*
X0054787Y0089787D02*
X0053787Y0089787D01*
X0053787Y0088787D01*
X0053787Y0084787D02*
X0053787Y0083787D01*
X0054787Y0083787D01*
X0054787Y0079787D02*
X0053787Y0079787D01*
X0053787Y0078787D01*
X0053787Y0074787D02*
X0053787Y0073787D01*
X0054787Y0073787D01*
X0054787Y0069787D02*
X0053787Y0069787D01*
X0053787Y0068787D01*
X0053787Y0064787D02*
X0053787Y0063787D01*
X0054787Y0063787D01*
X0058787Y0063787D02*
X0059787Y0063787D01*
X0059787Y0064787D01*
X0059787Y0068787D02*
X0059787Y0069787D01*
X0058787Y0069787D01*
X0058787Y0073787D02*
X0059787Y0073787D01*
X0059787Y0074787D01*
X0059787Y0078787D02*
X0059787Y0079787D01*
X0058787Y0079787D01*
X0058787Y0083787D02*
X0059787Y0083787D01*
X0059787Y0084787D01*
X0059787Y0088787D02*
X0059787Y0089787D01*
X0058787Y0089787D01*
X0058787Y0093787D02*
X0059787Y0093787D01*
X0059787Y0094787D01*
X0059787Y0098787D02*
X0059787Y0099787D01*
X0058787Y0099787D01*
X0058787Y0103787D02*
X0059787Y0103787D01*
X0059787Y0104787D01*
X0067217Y0100037D02*
X0067217Y0097902D01*
X0068285Y0096835D01*
X0070420Y0096835D01*
X0071487Y0097902D01*
X0071487Y0100037D01*
X0069352Y0101105D02*
X0069352Y0096835D01*
X0067217Y0094673D02*
X0067217Y0092538D01*
X0066150Y0093605D02*
X0070420Y0093605D01*
X0071487Y0094673D01*
X0071487Y0090376D02*
X0071487Y0088241D01*
X0071487Y0089308D02*
X0067217Y0089308D01*
X0067217Y0088241D01*
X0067217Y0086072D02*
X0067217Y0085005D01*
X0069352Y0082869D01*
X0071487Y0082869D02*
X0067217Y0082869D01*
X0067217Y0080694D02*
X0071487Y0080694D01*
X0071487Y0077491D01*
X0070420Y0076424D01*
X0067217Y0076424D01*
X0067217Y0074249D02*
X0071487Y0069978D01*
X0071487Y0074249D01*
X0067217Y0074249D02*
X0067217Y0069978D01*
X0068285Y0067803D02*
X0067217Y0066736D01*
X0067217Y0064600D01*
X0069352Y0064600D02*
X0069352Y0067803D01*
X0068285Y0067803D02*
X0071487Y0067803D01*
X0071487Y0064600D01*
X0070420Y0063533D01*
X0069352Y0064600D01*
X0071487Y0061358D02*
X0071487Y0057087D01*
X0065082Y0057087D01*
X0064787Y0049787D02*
X0063787Y0049787D01*
X0063787Y0048787D01*
X0063787Y0044787D02*
X0063787Y0043787D01*
X0064787Y0043787D01*
X0064787Y0039787D02*
X0063787Y0039787D01*
X0063787Y0038787D01*
X0063787Y0034787D02*
X0063787Y0033787D01*
X0064787Y0033787D01*
X0064787Y0029787D02*
X0063787Y0029787D01*
X0063787Y0028787D01*
X0063787Y0024787D02*
X0063787Y0023787D01*
X0064787Y0023787D01*
X0068787Y0023787D02*
X0069787Y0023787D01*
X0069787Y0024787D01*
X0069787Y0028787D02*
X0069787Y0029787D01*
X0068787Y0029787D01*
X0068787Y0033787D02*
X0069787Y0033787D01*
X0069787Y0034787D01*
X0069787Y0038787D02*
X0069787Y0039787D01*
X0068787Y0039787D01*
X0068787Y0043787D02*
X0069787Y0043787D01*
X0069787Y0044787D01*
X0069787Y0048787D02*
X0069787Y0049787D01*
X0068787Y0049787D01*
X0059787Y0049787D02*
X0059787Y0048787D01*
X0059787Y0049787D02*
X0058787Y0049787D01*
X0054787Y0049787D02*
X0053787Y0049787D01*
X0053787Y0048787D01*
X0053787Y0044787D02*
X0053787Y0043787D01*
X0054787Y0043787D01*
X0054787Y0039787D02*
X0053787Y0039787D01*
X0053787Y0038787D01*
X0053787Y0034787D02*
X0053787Y0033787D01*
X0054787Y0033787D01*
X0054787Y0029787D02*
X0053787Y0029787D01*
X0053787Y0028787D01*
X0053787Y0024787D02*
X0053787Y0023787D01*
X0054787Y0023787D01*
X0058787Y0023787D02*
X0059787Y0023787D01*
X0059787Y0024787D01*
X0059787Y0028787D02*
X0059787Y0029787D01*
X0058787Y0029787D01*
X0058787Y0033787D02*
X0059787Y0033787D01*
X0059787Y0034787D01*
X0059787Y0038787D02*
X0059787Y0039787D01*
X0058787Y0039787D01*
X0058787Y0043787D02*
X0059787Y0043787D01*
X0059787Y0044787D01*
X0046787Y0044787D02*
X0046787Y0008787D01*
X0046785Y0008700D01*
X0046779Y0008613D01*
X0046770Y0008526D01*
X0046757Y0008440D01*
X0046740Y0008354D01*
X0046719Y0008269D01*
X0046694Y0008186D01*
X0046666Y0008103D01*
X0046635Y0008022D01*
X0046600Y0007942D01*
X0046561Y0007864D01*
X0046519Y0007787D01*
X0046474Y0007712D01*
X0046425Y0007640D01*
X0046374Y0007569D01*
X0046319Y0007501D01*
X0046262Y0007436D01*
X0046201Y0007373D01*
X0046138Y0007312D01*
X0046073Y0007255D01*
X0046005Y0007200D01*
X0045934Y0007149D01*
X0045862Y0007100D01*
X0045787Y0007055D01*
X0045710Y0007013D01*
X0045632Y0006974D01*
X0045552Y0006939D01*
X0045471Y0006908D01*
X0045388Y0006880D01*
X0045305Y0006855D01*
X0045220Y0006834D01*
X0045134Y0006817D01*
X0045048Y0006804D01*
X0044961Y0006795D01*
X0044874Y0006789D01*
X0044787Y0006787D01*
X0012787Y0006787D01*
X0006787Y0012787D01*
X0006787Y0044787D01*
X0006789Y0044874D01*
X0006795Y0044961D01*
X0006804Y0045048D01*
X0006817Y0045134D01*
X0006834Y0045220D01*
X0006855Y0045305D01*
X0006880Y0045388D01*
X0006908Y0045471D01*
X0006939Y0045552D01*
X0006974Y0045632D01*
X0007013Y0045710D01*
X0007055Y0045787D01*
X0007100Y0045862D01*
X0007149Y0045934D01*
X0007200Y0046005D01*
X0007255Y0046073D01*
X0007312Y0046138D01*
X0007373Y0046201D01*
X0007436Y0046262D01*
X0007501Y0046319D01*
X0007569Y0046374D01*
X0007640Y0046425D01*
X0007712Y0046474D01*
X0007787Y0046519D01*
X0007864Y0046561D01*
X0007942Y0046600D01*
X0008022Y0046635D01*
X0008103Y0046666D01*
X0008186Y0046694D01*
X0008269Y0046719D01*
X0008354Y0046740D01*
X0008440Y0046757D01*
X0008526Y0046770D01*
X0008613Y0046779D01*
X0008700Y0046785D01*
X0008787Y0046787D01*
X0044787Y0046787D01*
X0044874Y0046785D01*
X0044961Y0046779D01*
X0045048Y0046770D01*
X0045134Y0046757D01*
X0045220Y0046740D01*
X0045305Y0046719D01*
X0045388Y0046694D01*
X0045471Y0046666D01*
X0045552Y0046635D01*
X0045632Y0046600D01*
X0045710Y0046561D01*
X0045787Y0046519D01*
X0045862Y0046474D01*
X0045934Y0046425D01*
X0046005Y0046374D01*
X0046073Y0046319D01*
X0046138Y0046262D01*
X0046201Y0046201D01*
X0046262Y0046138D01*
X0046319Y0046073D01*
X0046374Y0046005D01*
X0046425Y0045934D01*
X0046474Y0045862D01*
X0046519Y0045787D01*
X0046561Y0045710D01*
X0046600Y0045632D01*
X0046635Y0045552D01*
X0046666Y0045471D01*
X0046694Y0045388D01*
X0046719Y0045305D01*
X0046740Y0045220D01*
X0046757Y0045134D01*
X0046770Y0045048D01*
X0046779Y0044961D01*
X0046785Y0044874D01*
X0046787Y0044787D01*
X0044787Y0051787D02*
X0012787Y0051787D01*
X0006787Y0057787D01*
X0006787Y0089787D01*
X0006789Y0089874D01*
X0006795Y0089961D01*
X0006804Y0090048D01*
X0006817Y0090134D01*
X0006834Y0090220D01*
X0006855Y0090305D01*
X0006880Y0090388D01*
X0006908Y0090471D01*
X0006939Y0090552D01*
X0006974Y0090632D01*
X0007013Y0090710D01*
X0007055Y0090787D01*
X0007100Y0090862D01*
X0007149Y0090934D01*
X0007200Y0091005D01*
X0007255Y0091073D01*
X0007312Y0091138D01*
X0007373Y0091201D01*
X0007436Y0091262D01*
X0007501Y0091319D01*
X0007569Y0091374D01*
X0007640Y0091425D01*
X0007712Y0091474D01*
X0007787Y0091519D01*
X0007864Y0091561D01*
X0007942Y0091600D01*
X0008022Y0091635D01*
X0008103Y0091666D01*
X0008186Y0091694D01*
X0008269Y0091719D01*
X0008354Y0091740D01*
X0008440Y0091757D01*
X0008526Y0091770D01*
X0008613Y0091779D01*
X0008700Y0091785D01*
X0008787Y0091787D01*
X0044787Y0091787D01*
X0044874Y0091785D01*
X0044961Y0091779D01*
X0045048Y0091770D01*
X0045134Y0091757D01*
X0045220Y0091740D01*
X0045305Y0091719D01*
X0045388Y0091694D01*
X0045471Y0091666D01*
X0045552Y0091635D01*
X0045632Y0091600D01*
X0045710Y0091561D01*
X0045787Y0091519D01*
X0045862Y0091474D01*
X0045934Y0091425D01*
X0046005Y0091374D01*
X0046073Y0091319D01*
X0046138Y0091262D01*
X0046201Y0091201D01*
X0046262Y0091138D01*
X0046319Y0091073D01*
X0046374Y0091005D01*
X0046425Y0090934D01*
X0046474Y0090862D01*
X0046519Y0090787D01*
X0046561Y0090710D01*
X0046600Y0090632D01*
X0046635Y0090552D01*
X0046666Y0090471D01*
X0046694Y0090388D01*
X0046719Y0090305D01*
X0046740Y0090220D01*
X0046757Y0090134D01*
X0046770Y0090048D01*
X0046779Y0089961D01*
X0046785Y0089874D01*
X0046787Y0089787D01*
X0046787Y0053787D01*
X0046785Y0053700D01*
X0046779Y0053613D01*
X0046770Y0053526D01*
X0046757Y0053440D01*
X0046740Y0053354D01*
X0046719Y0053269D01*
X0046694Y0053186D01*
X0046666Y0053103D01*
X0046635Y0053022D01*
X0046600Y0052942D01*
X0046561Y0052864D01*
X0046519Y0052787D01*
X0046474Y0052712D01*
X0046425Y0052640D01*
X0046374Y0052569D01*
X0046319Y0052501D01*
X0046262Y0052436D01*
X0046201Y0052373D01*
X0046138Y0052312D01*
X0046073Y0052255D01*
X0046005Y0052200D01*
X0045934Y0052149D01*
X0045862Y0052100D01*
X0045787Y0052055D01*
X0045710Y0052013D01*
X0045632Y0051974D01*
X0045552Y0051939D01*
X0045471Y0051908D01*
X0045388Y0051880D01*
X0045305Y0051855D01*
X0045220Y0051834D01*
X0045134Y0051817D01*
X0045048Y0051804D01*
X0044961Y0051795D01*
X0044874Y0051789D01*
X0044787Y0051787D01*
X0036587Y0061987D02*
X0034787Y0061787D01*
X0033987Y0062587D01*
X0032787Y0063787D01*
X0033987Y0062587D02*
X0035987Y0064587D01*
X0036787Y0063787D01*
X0036587Y0061987D01*
X0035987Y0064587D02*
X0034787Y0065787D01*
X0036187Y0066987D02*
X0036387Y0068787D01*
X0036187Y0066987D02*
X0036987Y0065787D01*
X0037987Y0065187D01*
X0039187Y0065387D01*
X0039787Y0066587D01*
X0039587Y0067587D01*
X0038787Y0067987D01*
X0037787Y0067587D01*
X0036987Y0065787D01*
X0034587Y0068187D02*
X0033287Y0068787D01*
X0031887Y0066687D02*
X0032887Y0065687D01*
X0031387Y0062787D02*
X0029387Y0061987D01*
X0029287Y0061287D01*
X0029587Y0060587D01*
X0030387Y0060187D01*
X0032187Y0060987D01*
X0032987Y0059387D01*
X0031187Y0058587D01*
X0030587Y0058787D01*
X0030187Y0059587D01*
X0030387Y0060187D01*
X0032187Y0060987D02*
X0031387Y0062787D01*
X0030087Y0063687D02*
X0029387Y0065287D01*
X0026787Y0064587D02*
X0026787Y0063087D01*
X0023787Y0062187D02*
X0022187Y0058587D01*
X0020487Y0059387D01*
X0020187Y0060087D01*
X0021387Y0062587D01*
X0022187Y0062887D01*
X0023787Y0062187D01*
X0023487Y0063887D02*
X0023987Y0065187D01*
X0021687Y0066687D02*
X0020687Y0065687D01*
X0019087Y0065487D02*
X0020587Y0063887D01*
X0019187Y0062487D01*
X0017787Y0061087D01*
X0016087Y0062787D01*
X0018287Y0063387D02*
X0019187Y0062487D01*
X0017987Y0067087D02*
X0016287Y0066287D01*
X0015687Y0067687D01*
X0016287Y0066287D02*
X0014587Y0065487D01*
X0013687Y0067387D01*
X0013587Y0070587D02*
X0015987Y0070587D01*
X0016687Y0071187D01*
X0016687Y0072387D01*
X0015987Y0072987D01*
X0013587Y0072987D01*
X0012987Y0072387D01*
X0012987Y0071187D01*
X0013587Y0070587D01*
X0018087Y0071787D02*
X0019587Y0071787D01*
X0020187Y0068987D02*
X0018787Y0068387D01*
X0020287Y0074787D02*
X0018987Y0075387D01*
X0017687Y0075987D02*
X0014387Y0077487D01*
X0014587Y0076287D01*
X0017487Y0075387D02*
X0017987Y0076487D01*
X0018987Y0078187D02*
X0019187Y0081587D01*
X0018687Y0082187D01*
X0017787Y0082187D01*
X0016687Y0081187D01*
X0016687Y0080087D01*
X0018987Y0078187D02*
X0020687Y0079787D01*
X0021387Y0080987D02*
X0022087Y0080587D01*
X0023787Y0081287D01*
X0023987Y0082187D01*
X0023587Y0082987D01*
X0023087Y0083187D01*
X0023187Y0083787D01*
X0022787Y0084587D01*
X0022287Y0084887D01*
X0020587Y0084187D01*
X0020387Y0083187D01*
X0022287Y0082887D02*
X0023087Y0083187D01*
X0023387Y0079787D02*
X0023987Y0078287D01*
X0021787Y0076887D02*
X0020787Y0077887D01*
X0026787Y0078887D02*
X0026787Y0080387D01*
X0030287Y0079787D02*
X0029687Y0078287D01*
X0031787Y0076787D02*
X0032787Y0077787D01*
X0033587Y0079187D02*
X0033587Y0080187D01*
X0034387Y0080987D01*
X0036187Y0081387D01*
X0037587Y0080587D01*
X0035987Y0079587D02*
X0035987Y0078587D01*
X0035587Y0078187D01*
X0034587Y0078187D01*
X0033587Y0079187D01*
X0034387Y0080987D02*
X0035987Y0079587D01*
X0038987Y0077987D02*
X0039987Y0075787D01*
X0039387Y0075587D01*
X0036387Y0076387D01*
X0035787Y0076187D01*
X0034987Y0074987D02*
X0033487Y0074387D01*
X0033887Y0071787D02*
X0035387Y0071787D01*
X0036887Y0072287D02*
X0037487Y0072887D01*
X0038087Y0072887D01*
X0038687Y0072287D01*
X0038687Y0071087D01*
X0039287Y0070487D01*
X0039887Y0070487D01*
X0040587Y0071087D01*
X0040587Y0072287D01*
X0039887Y0072887D01*
X0039287Y0072887D01*
X0038687Y0072287D01*
X0038687Y0071087D02*
X0038087Y0070487D01*
X0037487Y0070487D01*
X0036887Y0071087D01*
X0036887Y0072287D01*
X0032087Y0081087D02*
X0032587Y0082087D01*
X0032287Y0082887D01*
X0031387Y0083287D01*
X0030487Y0083187D01*
X0031287Y0084787D01*
X0033487Y0083787D01*
X0032087Y0081087D02*
X0031287Y0080787D01*
X0030287Y0081287D01*
X0029987Y0082087D01*
X0019687Y0071787D02*
X0019689Y0071961D01*
X0019696Y0072135D01*
X0019706Y0072309D01*
X0019721Y0072483D01*
X0019740Y0072656D01*
X0019764Y0072829D01*
X0019792Y0073001D01*
X0019823Y0073172D01*
X0019860Y0073343D01*
X0019900Y0073512D01*
X0019944Y0073681D01*
X0019993Y0073848D01*
X0020045Y0074014D01*
X0020102Y0074179D01*
X0020163Y0074342D01*
X0020227Y0074504D01*
X0020296Y0074664D01*
X0020369Y0074823D01*
X0020445Y0074979D01*
X0020525Y0075134D01*
X0020609Y0075287D01*
X0020697Y0075437D01*
X0020789Y0075585D01*
X0020884Y0075732D01*
X0020982Y0075875D01*
X0021084Y0076016D01*
X0021190Y0076155D01*
X0021299Y0076291D01*
X0021411Y0076425D01*
X0021526Y0076555D01*
X0021645Y0076683D01*
X0021767Y0076807D01*
X0021891Y0076929D01*
X0022019Y0077048D01*
X0022149Y0077163D01*
X0022283Y0077275D01*
X0022419Y0077384D01*
X0022558Y0077490D01*
X0022699Y0077592D01*
X0022842Y0077690D01*
X0022989Y0077785D01*
X0023137Y0077877D01*
X0023287Y0077965D01*
X0023440Y0078049D01*
X0023595Y0078129D01*
X0023751Y0078205D01*
X0023910Y0078278D01*
X0024070Y0078347D01*
X0024232Y0078411D01*
X0024395Y0078472D01*
X0024560Y0078529D01*
X0024726Y0078581D01*
X0024893Y0078630D01*
X0025062Y0078674D01*
X0025231Y0078714D01*
X0025402Y0078751D01*
X0025573Y0078782D01*
X0025745Y0078810D01*
X0025918Y0078834D01*
X0026091Y0078853D01*
X0026265Y0078868D01*
X0026439Y0078878D01*
X0026613Y0078885D01*
X0026787Y0078887D01*
X0026961Y0078885D01*
X0027135Y0078878D01*
X0027309Y0078868D01*
X0027483Y0078853D01*
X0027656Y0078834D01*
X0027829Y0078810D01*
X0028001Y0078782D01*
X0028172Y0078751D01*
X0028343Y0078714D01*
X0028512Y0078674D01*
X0028681Y0078630D01*
X0028848Y0078581D01*
X0029014Y0078529D01*
X0029179Y0078472D01*
X0029342Y0078411D01*
X0029504Y0078347D01*
X0029664Y0078278D01*
X0029823Y0078205D01*
X0029979Y0078129D01*
X0030134Y0078049D01*
X0030287Y0077965D01*
X0030437Y0077877D01*
X0030585Y0077785D01*
X0030732Y0077690D01*
X0030875Y0077592D01*
X0031016Y0077490D01*
X0031155Y0077384D01*
X0031291Y0077275D01*
X0031425Y0077163D01*
X0031555Y0077048D01*
X0031683Y0076929D01*
X0031807Y0076807D01*
X0031929Y0076683D01*
X0032048Y0076555D01*
X0032163Y0076425D01*
X0032275Y0076291D01*
X0032384Y0076155D01*
X0032490Y0076016D01*
X0032592Y0075875D01*
X0032690Y0075732D01*
X0032785Y0075585D01*
X0032877Y0075437D01*
X0032965Y0075287D01*
X0033049Y0075134D01*
X0033129Y0074979D01*
X0033205Y0074823D01*
X0033278Y0074664D01*
X0033347Y0074504D01*
X0033411Y0074342D01*
X0033472Y0074179D01*
X0033529Y0074014D01*
X0033581Y0073848D01*
X0033630Y0073681D01*
X0033674Y0073512D01*
X0033714Y0073343D01*
X0033751Y0073172D01*
X0033782Y0073001D01*
X0033810Y0072829D01*
X0033834Y0072656D01*
X0033853Y0072483D01*
X0033868Y0072309D01*
X0033878Y0072135D01*
X0033885Y0071961D01*
X0033887Y0071787D01*
X0033885Y0071613D01*
X0033878Y0071439D01*
X0033868Y0071265D01*
X0033853Y0071091D01*
X0033834Y0070918D01*
X0033810Y0070745D01*
X0033782Y0070573D01*
X0033751Y0070402D01*
X0033714Y0070231D01*
X0033674Y0070062D01*
X0033630Y0069893D01*
X0033581Y0069726D01*
X0033529Y0069560D01*
X0033472Y0069395D01*
X0033411Y0069232D01*
X0033347Y0069070D01*
X0033278Y0068910D01*
X0033205Y0068751D01*
X0033129Y0068595D01*
X0033049Y0068440D01*
X0032965Y0068287D01*
X0032877Y0068137D01*
X0032785Y0067989D01*
X0032690Y0067842D01*
X0032592Y0067699D01*
X0032490Y0067558D01*
X0032384Y0067419D01*
X0032275Y0067283D01*
X0032163Y0067149D01*
X0032048Y0067019D01*
X0031929Y0066891D01*
X0031807Y0066767D01*
X0031683Y0066645D01*
X0031555Y0066526D01*
X0031425Y0066411D01*
X0031291Y0066299D01*
X0031155Y0066190D01*
X0031016Y0066084D01*
X0030875Y0065982D01*
X0030732Y0065884D01*
X0030585Y0065789D01*
X0030437Y0065697D01*
X0030287Y0065609D01*
X0030134Y0065525D01*
X0029979Y0065445D01*
X0029823Y0065369D01*
X0029664Y0065296D01*
X0029504Y0065227D01*
X0029342Y0065163D01*
X0029179Y0065102D01*
X0029014Y0065045D01*
X0028848Y0064993D01*
X0028681Y0064944D01*
X0028512Y0064900D01*
X0028343Y0064860D01*
X0028172Y0064823D01*
X0028001Y0064792D01*
X0027829Y0064764D01*
X0027656Y0064740D01*
X0027483Y0064721D01*
X0027309Y0064706D01*
X0027135Y0064696D01*
X0026961Y0064689D01*
X0026787Y0064687D01*
X0026613Y0064689D01*
X0026439Y0064696D01*
X0026265Y0064706D01*
X0026091Y0064721D01*
X0025918Y0064740D01*
X0025745Y0064764D01*
X0025573Y0064792D01*
X0025402Y0064823D01*
X0025231Y0064860D01*
X0025062Y0064900D01*
X0024893Y0064944D01*
X0024726Y0064993D01*
X0024560Y0065045D01*
X0024395Y0065102D01*
X0024232Y0065163D01*
X0024070Y0065227D01*
X0023910Y0065296D01*
X0023751Y0065369D01*
X0023595Y0065445D01*
X0023440Y0065525D01*
X0023287Y0065609D01*
X0023137Y0065697D01*
X0022989Y0065789D01*
X0022842Y0065884D01*
X0022699Y0065982D01*
X0022558Y0066084D01*
X0022419Y0066190D01*
X0022283Y0066299D01*
X0022149Y0066411D01*
X0022019Y0066526D01*
X0021891Y0066645D01*
X0021767Y0066767D01*
X0021645Y0066891D01*
X0021526Y0067019D01*
X0021411Y0067149D01*
X0021299Y0067283D01*
X0021190Y0067419D01*
X0021084Y0067558D01*
X0020982Y0067699D01*
X0020884Y0067842D01*
X0020789Y0067989D01*
X0020697Y0068137D01*
X0020609Y0068287D01*
X0020525Y0068440D01*
X0020445Y0068595D01*
X0020369Y0068751D01*
X0020296Y0068910D01*
X0020227Y0069070D01*
X0020163Y0069232D01*
X0020102Y0069395D01*
X0020045Y0069560D01*
X0019993Y0069726D01*
X0019944Y0069893D01*
X0019900Y0070062D01*
X0019860Y0070231D01*
X0019823Y0070402D01*
X0019792Y0070573D01*
X0019764Y0070745D01*
X0019740Y0070918D01*
X0019721Y0071091D01*
X0019706Y0071265D01*
X0019696Y0071439D01*
X0019689Y0071613D01*
X0019687Y0071787D01*
X0012787Y0096787D02*
X0006787Y0102787D01*
X0006787Y0134787D01*
X0006789Y0134874D01*
X0006795Y0134961D01*
X0006804Y0135048D01*
X0006817Y0135134D01*
X0006834Y0135220D01*
X0006855Y0135305D01*
X0006880Y0135388D01*
X0006908Y0135471D01*
X0006939Y0135552D01*
X0006974Y0135632D01*
X0007013Y0135710D01*
X0007055Y0135787D01*
X0007100Y0135862D01*
X0007149Y0135934D01*
X0007200Y0136005D01*
X0007255Y0136073D01*
X0007312Y0136138D01*
X0007373Y0136201D01*
X0007436Y0136262D01*
X0007501Y0136319D01*
X0007569Y0136374D01*
X0007640Y0136425D01*
X0007712Y0136474D01*
X0007787Y0136519D01*
X0007864Y0136561D01*
X0007942Y0136600D01*
X0008022Y0136635D01*
X0008103Y0136666D01*
X0008186Y0136694D01*
X0008269Y0136719D01*
X0008354Y0136740D01*
X0008440Y0136757D01*
X0008526Y0136770D01*
X0008613Y0136779D01*
X0008700Y0136785D01*
X0008787Y0136787D01*
X0044787Y0136787D01*
X0044874Y0136785D01*
X0044961Y0136779D01*
X0045048Y0136770D01*
X0045134Y0136757D01*
X0045220Y0136740D01*
X0045305Y0136719D01*
X0045388Y0136694D01*
X0045471Y0136666D01*
X0045552Y0136635D01*
X0045632Y0136600D01*
X0045710Y0136561D01*
X0045787Y0136519D01*
X0045862Y0136474D01*
X0045934Y0136425D01*
X0046005Y0136374D01*
X0046073Y0136319D01*
X0046138Y0136262D01*
X0046201Y0136201D01*
X0046262Y0136138D01*
X0046319Y0136073D01*
X0046374Y0136005D01*
X0046425Y0135934D01*
X0046474Y0135862D01*
X0046519Y0135787D01*
X0046561Y0135710D01*
X0046600Y0135632D01*
X0046635Y0135552D01*
X0046666Y0135471D01*
X0046694Y0135388D01*
X0046719Y0135305D01*
X0046740Y0135220D01*
X0046757Y0135134D01*
X0046770Y0135048D01*
X0046779Y0134961D01*
X0046785Y0134874D01*
X0046787Y0134787D01*
X0046787Y0098787D01*
X0046785Y0098700D01*
X0046779Y0098613D01*
X0046770Y0098526D01*
X0046757Y0098440D01*
X0046740Y0098354D01*
X0046719Y0098269D01*
X0046694Y0098186D01*
X0046666Y0098103D01*
X0046635Y0098022D01*
X0046600Y0097942D01*
X0046561Y0097864D01*
X0046519Y0097787D01*
X0046474Y0097712D01*
X0046425Y0097640D01*
X0046374Y0097569D01*
X0046319Y0097501D01*
X0046262Y0097436D01*
X0046201Y0097373D01*
X0046138Y0097312D01*
X0046073Y0097255D01*
X0046005Y0097200D01*
X0045934Y0097149D01*
X0045862Y0097100D01*
X0045787Y0097055D01*
X0045710Y0097013D01*
X0045632Y0096974D01*
X0045552Y0096939D01*
X0045471Y0096908D01*
X0045388Y0096880D01*
X0045305Y0096855D01*
X0045220Y0096834D01*
X0045134Y0096817D01*
X0045048Y0096804D01*
X0044961Y0096795D01*
X0044874Y0096789D01*
X0044787Y0096787D01*
X0012787Y0096787D01*
X0020487Y0104387D02*
X0022187Y0103587D01*
X0023787Y0107187D01*
X0022187Y0107887D01*
X0021387Y0107587D01*
X0020187Y0105087D01*
X0020487Y0104387D01*
X0017787Y0106087D02*
X0019187Y0107487D01*
X0018287Y0108387D01*
X0019187Y0107487D02*
X0020587Y0108887D01*
X0019087Y0110487D01*
X0020687Y0110687D02*
X0021687Y0111687D01*
X0020187Y0113987D02*
X0018787Y0113387D01*
X0017987Y0112087D02*
X0016287Y0111287D01*
X0015687Y0112687D01*
X0016287Y0111287D02*
X0014587Y0110487D01*
X0013687Y0112387D01*
X0013587Y0115587D02*
X0015987Y0115587D01*
X0016687Y0116187D01*
X0016687Y0117387D01*
X0015987Y0117987D01*
X0013587Y0117987D01*
X0012987Y0117387D01*
X0012987Y0116187D01*
X0013587Y0115587D01*
X0018087Y0116787D02*
X0019587Y0116787D01*
X0020287Y0119787D02*
X0018987Y0120387D01*
X0017687Y0120987D02*
X0014387Y0122487D01*
X0014587Y0121287D01*
X0017487Y0120387D02*
X0017987Y0121487D01*
X0018987Y0123187D02*
X0019187Y0126587D01*
X0018687Y0127187D01*
X0017787Y0127187D01*
X0016687Y0126187D01*
X0016687Y0125087D01*
X0018987Y0123187D02*
X0020687Y0124787D01*
X0021387Y0125987D02*
X0022087Y0125587D01*
X0023787Y0126287D01*
X0023987Y0127187D01*
X0023587Y0127987D01*
X0023087Y0128187D01*
X0023187Y0128787D01*
X0022787Y0129587D01*
X0022287Y0129887D01*
X0020587Y0129187D01*
X0020387Y0128187D01*
X0022287Y0127887D02*
X0023087Y0128187D01*
X0023387Y0124787D02*
X0023987Y0123287D01*
X0021787Y0121887D02*
X0020787Y0122887D01*
X0026787Y0123887D02*
X0026787Y0125387D01*
X0030287Y0124787D02*
X0029687Y0123287D01*
X0031787Y0121787D02*
X0032787Y0122787D01*
X0033587Y0124187D02*
X0033587Y0125187D01*
X0034387Y0125987D01*
X0036187Y0126387D01*
X0037587Y0125587D01*
X0035987Y0124587D02*
X0034387Y0125987D01*
X0033587Y0124187D02*
X0034587Y0123187D01*
X0035587Y0123187D01*
X0035987Y0123587D01*
X0035987Y0124587D01*
X0036387Y0121387D02*
X0039387Y0120587D01*
X0039987Y0120787D01*
X0038987Y0122987D01*
X0036387Y0121387D02*
X0035787Y0121187D01*
X0034987Y0119987D02*
X0033487Y0119387D01*
X0033887Y0116787D02*
X0035387Y0116787D01*
X0036887Y0117287D02*
X0037487Y0117887D01*
X0038087Y0117887D01*
X0038687Y0117287D01*
X0038687Y0116087D01*
X0039287Y0115487D01*
X0039887Y0115487D01*
X0040587Y0116087D01*
X0040587Y0117287D01*
X0039887Y0117887D01*
X0039287Y0117887D01*
X0038687Y0117287D01*
X0038687Y0116087D02*
X0038087Y0115487D01*
X0037487Y0115487D01*
X0036887Y0116087D01*
X0036887Y0117287D01*
X0036387Y0113787D02*
X0036187Y0111987D01*
X0036987Y0110787D01*
X0037987Y0110187D01*
X0039187Y0110387D01*
X0039787Y0111587D01*
X0039587Y0112587D01*
X0038787Y0112987D01*
X0037787Y0112587D01*
X0036987Y0110787D01*
X0035987Y0109587D02*
X0036787Y0108787D01*
X0036587Y0106987D01*
X0034787Y0106787D01*
X0033987Y0107587D01*
X0032787Y0108787D01*
X0033987Y0107587D02*
X0035987Y0109587D01*
X0034787Y0110787D01*
X0032887Y0110687D02*
X0031887Y0111687D01*
X0033287Y0113787D02*
X0034587Y0113187D01*
X0029387Y0110287D02*
X0030087Y0108687D01*
X0031387Y0107787D02*
X0029387Y0106987D01*
X0029287Y0106287D01*
X0029587Y0105587D01*
X0030387Y0105187D01*
X0032187Y0105987D01*
X0032987Y0104387D01*
X0031187Y0103587D01*
X0030587Y0103787D01*
X0030187Y0104587D01*
X0030387Y0105187D01*
X0032187Y0105987D02*
X0031387Y0107787D01*
X0026787Y0108087D02*
X0026787Y0109587D01*
X0023987Y0110187D02*
X0023487Y0108887D01*
X0017787Y0106087D02*
X0016087Y0107787D01*
X0019687Y0116787D02*
X0019689Y0116961D01*
X0019696Y0117135D01*
X0019706Y0117309D01*
X0019721Y0117483D01*
X0019740Y0117656D01*
X0019764Y0117829D01*
X0019792Y0118001D01*
X0019823Y0118172D01*
X0019860Y0118343D01*
X0019900Y0118512D01*
X0019944Y0118681D01*
X0019993Y0118848D01*
X0020045Y0119014D01*
X0020102Y0119179D01*
X0020163Y0119342D01*
X0020227Y0119504D01*
X0020296Y0119664D01*
X0020369Y0119823D01*
X0020445Y0119979D01*
X0020525Y0120134D01*
X0020609Y0120287D01*
X0020697Y0120437D01*
X0020789Y0120585D01*
X0020884Y0120732D01*
X0020982Y0120875D01*
X0021084Y0121016D01*
X0021190Y0121155D01*
X0021299Y0121291D01*
X0021411Y0121425D01*
X0021526Y0121555D01*
X0021645Y0121683D01*
X0021767Y0121807D01*
X0021891Y0121929D01*
X0022019Y0122048D01*
X0022149Y0122163D01*
X0022283Y0122275D01*
X0022419Y0122384D01*
X0022558Y0122490D01*
X0022699Y0122592D01*
X0022842Y0122690D01*
X0022989Y0122785D01*
X0023137Y0122877D01*
X0023287Y0122965D01*
X0023440Y0123049D01*
X0023595Y0123129D01*
X0023751Y0123205D01*
X0023910Y0123278D01*
X0024070Y0123347D01*
X0024232Y0123411D01*
X0024395Y0123472D01*
X0024560Y0123529D01*
X0024726Y0123581D01*
X0024893Y0123630D01*
X0025062Y0123674D01*
X0025231Y0123714D01*
X0025402Y0123751D01*
X0025573Y0123782D01*
X0025745Y0123810D01*
X0025918Y0123834D01*
X0026091Y0123853D01*
X0026265Y0123868D01*
X0026439Y0123878D01*
X0026613Y0123885D01*
X0026787Y0123887D01*
X0026961Y0123885D01*
X0027135Y0123878D01*
X0027309Y0123868D01*
X0027483Y0123853D01*
X0027656Y0123834D01*
X0027829Y0123810D01*
X0028001Y0123782D01*
X0028172Y0123751D01*
X0028343Y0123714D01*
X0028512Y0123674D01*
X0028681Y0123630D01*
X0028848Y0123581D01*
X0029014Y0123529D01*
X0029179Y0123472D01*
X0029342Y0123411D01*
X0029504Y0123347D01*
X0029664Y0123278D01*
X0029823Y0123205D01*
X0029979Y0123129D01*
X0030134Y0123049D01*
X0030287Y0122965D01*
X0030437Y0122877D01*
X0030585Y0122785D01*
X0030732Y0122690D01*
X0030875Y0122592D01*
X0031016Y0122490D01*
X0031155Y0122384D01*
X0031291Y0122275D01*
X0031425Y0122163D01*
X0031555Y0122048D01*
X0031683Y0121929D01*
X0031807Y0121807D01*
X0031929Y0121683D01*
X0032048Y0121555D01*
X0032163Y0121425D01*
X0032275Y0121291D01*
X0032384Y0121155D01*
X0032490Y0121016D01*
X0032592Y0120875D01*
X0032690Y0120732D01*
X0032785Y0120585D01*
X0032877Y0120437D01*
X0032965Y0120287D01*
X0033049Y0120134D01*
X0033129Y0119979D01*
X0033205Y0119823D01*
X0033278Y0119664D01*
X0033347Y0119504D01*
X0033411Y0119342D01*
X0033472Y0119179D01*
X0033529Y0119014D01*
X0033581Y0118848D01*
X0033630Y0118681D01*
X0033674Y0118512D01*
X0033714Y0118343D01*
X0033751Y0118172D01*
X0033782Y0118001D01*
X0033810Y0117829D01*
X0033834Y0117656D01*
X0033853Y0117483D01*
X0033868Y0117309D01*
X0033878Y0117135D01*
X0033885Y0116961D01*
X0033887Y0116787D01*
X0033885Y0116613D01*
X0033878Y0116439D01*
X0033868Y0116265D01*
X0033853Y0116091D01*
X0033834Y0115918D01*
X0033810Y0115745D01*
X0033782Y0115573D01*
X0033751Y0115402D01*
X0033714Y0115231D01*
X0033674Y0115062D01*
X0033630Y0114893D01*
X0033581Y0114726D01*
X0033529Y0114560D01*
X0033472Y0114395D01*
X0033411Y0114232D01*
X0033347Y0114070D01*
X0033278Y0113910D01*
X0033205Y0113751D01*
X0033129Y0113595D01*
X0033049Y0113440D01*
X0032965Y0113287D01*
X0032877Y0113137D01*
X0032785Y0112989D01*
X0032690Y0112842D01*
X0032592Y0112699D01*
X0032490Y0112558D01*
X0032384Y0112419D01*
X0032275Y0112283D01*
X0032163Y0112149D01*
X0032048Y0112019D01*
X0031929Y0111891D01*
X0031807Y0111767D01*
X0031683Y0111645D01*
X0031555Y0111526D01*
X0031425Y0111411D01*
X0031291Y0111299D01*
X0031155Y0111190D01*
X0031016Y0111084D01*
X0030875Y0110982D01*
X0030732Y0110884D01*
X0030585Y0110789D01*
X0030437Y0110697D01*
X0030287Y0110609D01*
X0030134Y0110525D01*
X0029979Y0110445D01*
X0029823Y0110369D01*
X0029664Y0110296D01*
X0029504Y0110227D01*
X0029342Y0110163D01*
X0029179Y0110102D01*
X0029014Y0110045D01*
X0028848Y0109993D01*
X0028681Y0109944D01*
X0028512Y0109900D01*
X0028343Y0109860D01*
X0028172Y0109823D01*
X0028001Y0109792D01*
X0027829Y0109764D01*
X0027656Y0109740D01*
X0027483Y0109721D01*
X0027309Y0109706D01*
X0027135Y0109696D01*
X0026961Y0109689D01*
X0026787Y0109687D01*
X0026613Y0109689D01*
X0026439Y0109696D01*
X0026265Y0109706D01*
X0026091Y0109721D01*
X0025918Y0109740D01*
X0025745Y0109764D01*
X0025573Y0109792D01*
X0025402Y0109823D01*
X0025231Y0109860D01*
X0025062Y0109900D01*
X0024893Y0109944D01*
X0024726Y0109993D01*
X0024560Y0110045D01*
X0024395Y0110102D01*
X0024232Y0110163D01*
X0024070Y0110227D01*
X0023910Y0110296D01*
X0023751Y0110369D01*
X0023595Y0110445D01*
X0023440Y0110525D01*
X0023287Y0110609D01*
X0023137Y0110697D01*
X0022989Y0110789D01*
X0022842Y0110884D01*
X0022699Y0110982D01*
X0022558Y0111084D01*
X0022419Y0111190D01*
X0022283Y0111299D01*
X0022149Y0111411D01*
X0022019Y0111526D01*
X0021891Y0111645D01*
X0021767Y0111767D01*
X0021645Y0111891D01*
X0021526Y0112019D01*
X0021411Y0112149D01*
X0021299Y0112283D01*
X0021190Y0112419D01*
X0021084Y0112558D01*
X0020982Y0112699D01*
X0020884Y0112842D01*
X0020789Y0112989D01*
X0020697Y0113137D01*
X0020609Y0113287D01*
X0020525Y0113440D01*
X0020445Y0113595D01*
X0020369Y0113751D01*
X0020296Y0113910D01*
X0020227Y0114070D01*
X0020163Y0114232D01*
X0020102Y0114395D01*
X0020045Y0114560D01*
X0019993Y0114726D01*
X0019944Y0114893D01*
X0019900Y0115062D01*
X0019860Y0115231D01*
X0019823Y0115402D01*
X0019792Y0115573D01*
X0019764Y0115745D01*
X0019740Y0115918D01*
X0019721Y0116091D01*
X0019706Y0116265D01*
X0019696Y0116439D01*
X0019689Y0116613D01*
X0019687Y0116787D01*
X0030287Y0126287D02*
X0029987Y0127087D01*
X0030287Y0126287D02*
X0031287Y0125787D01*
X0032087Y0126087D01*
X0032587Y0127087D01*
X0032287Y0127887D01*
X0031387Y0128287D01*
X0030487Y0128187D01*
X0031287Y0129787D01*
X0033487Y0128787D01*
X0044787Y0141787D02*
X0012787Y0141787D01*
X0006787Y0147787D01*
X0006787Y0179787D01*
X0006789Y0179874D01*
X0006795Y0179961D01*
X0006804Y0180048D01*
X0006817Y0180134D01*
X0006834Y0180220D01*
X0006855Y0180305D01*
X0006880Y0180388D01*
X0006908Y0180471D01*
X0006939Y0180552D01*
X0006974Y0180632D01*
X0007013Y0180710D01*
X0007055Y0180787D01*
X0007100Y0180862D01*
X0007149Y0180934D01*
X0007200Y0181005D01*
X0007255Y0181073D01*
X0007312Y0181138D01*
X0007373Y0181201D01*
X0007436Y0181262D01*
X0007501Y0181319D01*
X0007569Y0181374D01*
X0007640Y0181425D01*
X0007712Y0181474D01*
X0007787Y0181519D01*
X0007864Y0181561D01*
X0007942Y0181600D01*
X0008022Y0181635D01*
X0008103Y0181666D01*
X0008186Y0181694D01*
X0008269Y0181719D01*
X0008354Y0181740D01*
X0008440Y0181757D01*
X0008526Y0181770D01*
X0008613Y0181779D01*
X0008700Y0181785D01*
X0008787Y0181787D01*
X0044787Y0181787D01*
X0044874Y0181785D01*
X0044961Y0181779D01*
X0045048Y0181770D01*
X0045134Y0181757D01*
X0045220Y0181740D01*
X0045305Y0181719D01*
X0045388Y0181694D01*
X0045471Y0181666D01*
X0045552Y0181635D01*
X0045632Y0181600D01*
X0045710Y0181561D01*
X0045787Y0181519D01*
X0045862Y0181474D01*
X0045934Y0181425D01*
X0046005Y0181374D01*
X0046073Y0181319D01*
X0046138Y0181262D01*
X0046201Y0181201D01*
X0046262Y0181138D01*
X0046319Y0181073D01*
X0046374Y0181005D01*
X0046425Y0180934D01*
X0046474Y0180862D01*
X0046519Y0180787D01*
X0046561Y0180710D01*
X0046600Y0180632D01*
X0046635Y0180552D01*
X0046666Y0180471D01*
X0046694Y0180388D01*
X0046719Y0180305D01*
X0046740Y0180220D01*
X0046757Y0180134D01*
X0046770Y0180048D01*
X0046779Y0179961D01*
X0046785Y0179874D01*
X0046787Y0179787D01*
X0046787Y0143787D01*
X0046785Y0143700D01*
X0046779Y0143613D01*
X0046770Y0143526D01*
X0046757Y0143440D01*
X0046740Y0143354D01*
X0046719Y0143269D01*
X0046694Y0143186D01*
X0046666Y0143103D01*
X0046635Y0143022D01*
X0046600Y0142942D01*
X0046561Y0142864D01*
X0046519Y0142787D01*
X0046474Y0142712D01*
X0046425Y0142640D01*
X0046374Y0142569D01*
X0046319Y0142501D01*
X0046262Y0142436D01*
X0046201Y0142373D01*
X0046138Y0142312D01*
X0046073Y0142255D01*
X0046005Y0142200D01*
X0045934Y0142149D01*
X0045862Y0142100D01*
X0045787Y0142055D01*
X0045710Y0142013D01*
X0045632Y0141974D01*
X0045552Y0141939D01*
X0045471Y0141908D01*
X0045388Y0141880D01*
X0045305Y0141855D01*
X0045220Y0141834D01*
X0045134Y0141817D01*
X0045048Y0141804D01*
X0044961Y0141795D01*
X0044874Y0141789D01*
X0044787Y0141787D01*
X0036587Y0151987D02*
X0034787Y0151787D01*
X0033987Y0152587D01*
X0032787Y0153787D01*
X0033987Y0152587D02*
X0035987Y0154587D01*
X0036787Y0153787D01*
X0036587Y0151987D01*
X0035987Y0154587D02*
X0034787Y0155787D01*
X0036187Y0156987D02*
X0036387Y0158787D01*
X0036187Y0156987D02*
X0036987Y0155787D01*
X0037987Y0155187D01*
X0039187Y0155387D01*
X0039787Y0156587D01*
X0039587Y0157587D01*
X0038787Y0157987D01*
X0037787Y0157587D01*
X0036987Y0155787D01*
X0034587Y0158187D02*
X0033287Y0158787D01*
X0031887Y0156687D02*
X0032887Y0155687D01*
X0031387Y0152787D02*
X0029387Y0151987D01*
X0029287Y0151287D01*
X0029587Y0150587D01*
X0030387Y0150187D01*
X0032187Y0150987D01*
X0032987Y0149387D01*
X0031187Y0148587D01*
X0030587Y0148787D01*
X0030187Y0149587D01*
X0030387Y0150187D01*
X0032187Y0150987D02*
X0031387Y0152787D01*
X0030087Y0153687D02*
X0029387Y0155287D01*
X0026787Y0154587D02*
X0026787Y0153087D01*
X0023787Y0152187D02*
X0022187Y0148587D01*
X0020487Y0149387D01*
X0020187Y0150087D01*
X0021387Y0152587D01*
X0022187Y0152887D01*
X0023787Y0152187D01*
X0023487Y0153887D02*
X0023987Y0155187D01*
X0021687Y0156687D02*
X0020687Y0155687D01*
X0019087Y0155487D02*
X0020587Y0153887D01*
X0019187Y0152487D01*
X0017787Y0151087D01*
X0016087Y0152787D01*
X0018287Y0153387D02*
X0019187Y0152487D01*
X0017987Y0157087D02*
X0016287Y0156287D01*
X0015687Y0157687D01*
X0016287Y0156287D02*
X0014587Y0155487D01*
X0013687Y0157387D01*
X0013587Y0160587D02*
X0015987Y0160587D01*
X0016687Y0161187D01*
X0016687Y0162387D01*
X0015987Y0162987D01*
X0013587Y0162987D01*
X0012987Y0162387D01*
X0012987Y0161187D01*
X0013587Y0160587D01*
X0018087Y0161787D02*
X0019587Y0161787D01*
X0020187Y0158987D02*
X0018787Y0158387D01*
X0020287Y0164787D02*
X0018987Y0165387D01*
X0017687Y0165987D02*
X0014387Y0167487D01*
X0014587Y0166287D01*
X0017487Y0165387D02*
X0017987Y0166487D01*
X0018987Y0168187D02*
X0019187Y0171587D01*
X0018687Y0172187D01*
X0017787Y0172187D01*
X0016687Y0171187D01*
X0016687Y0170087D01*
X0018987Y0168187D02*
X0020687Y0169787D01*
X0021387Y0170987D02*
X0022087Y0170587D01*
X0023787Y0171287D01*
X0023987Y0172187D01*
X0023587Y0172987D01*
X0023087Y0173187D01*
X0023187Y0173787D01*
X0022787Y0174587D01*
X0022287Y0174887D01*
X0020587Y0174187D01*
X0020387Y0173187D01*
X0022287Y0172887D02*
X0023087Y0173187D01*
X0023387Y0169787D02*
X0023987Y0168287D01*
X0021787Y0166887D02*
X0020787Y0167887D01*
X0026787Y0168887D02*
X0026787Y0170387D01*
X0030287Y0169787D02*
X0029687Y0168287D01*
X0031787Y0166787D02*
X0032787Y0167787D01*
X0033587Y0169187D02*
X0033587Y0170187D01*
X0034387Y0170987D01*
X0036187Y0171387D01*
X0037587Y0170587D01*
X0035987Y0169587D02*
X0034387Y0170987D01*
X0033587Y0169187D02*
X0034587Y0168187D01*
X0035587Y0168187D01*
X0035987Y0168587D01*
X0035987Y0169587D01*
X0036387Y0166387D02*
X0039387Y0165587D01*
X0039987Y0165787D01*
X0038987Y0167987D01*
X0036387Y0166387D02*
X0035787Y0166187D01*
X0034987Y0164987D02*
X0033487Y0164387D01*
X0033887Y0161787D02*
X0035387Y0161787D01*
X0036887Y0162287D02*
X0037487Y0162887D01*
X0038087Y0162887D01*
X0038687Y0162287D01*
X0038687Y0161087D01*
X0039287Y0160487D01*
X0039887Y0160487D01*
X0040587Y0161087D01*
X0040587Y0162287D01*
X0039887Y0162887D01*
X0039287Y0162887D01*
X0038687Y0162287D01*
X0038687Y0161087D02*
X0038087Y0160487D01*
X0037487Y0160487D01*
X0036887Y0161087D01*
X0036887Y0162287D01*
X0032087Y0171087D02*
X0032587Y0172087D01*
X0032287Y0172887D01*
X0031387Y0173287D01*
X0030487Y0173187D01*
X0031287Y0174787D01*
X0033487Y0173787D01*
X0032087Y0171087D02*
X0031287Y0170787D01*
X0030287Y0171287D01*
X0029987Y0172087D01*
X0019687Y0161787D02*
X0019689Y0161961D01*
X0019696Y0162135D01*
X0019706Y0162309D01*
X0019721Y0162483D01*
X0019740Y0162656D01*
X0019764Y0162829D01*
X0019792Y0163001D01*
X0019823Y0163172D01*
X0019860Y0163343D01*
X0019900Y0163512D01*
X0019944Y0163681D01*
X0019993Y0163848D01*
X0020045Y0164014D01*
X0020102Y0164179D01*
X0020163Y0164342D01*
X0020227Y0164504D01*
X0020296Y0164664D01*
X0020369Y0164823D01*
X0020445Y0164979D01*
X0020525Y0165134D01*
X0020609Y0165287D01*
X0020697Y0165437D01*
X0020789Y0165585D01*
X0020884Y0165732D01*
X0020982Y0165875D01*
X0021084Y0166016D01*
X0021190Y0166155D01*
X0021299Y0166291D01*
X0021411Y0166425D01*
X0021526Y0166555D01*
X0021645Y0166683D01*
X0021767Y0166807D01*
X0021891Y0166929D01*
X0022019Y0167048D01*
X0022149Y0167163D01*
X0022283Y0167275D01*
X0022419Y0167384D01*
X0022558Y0167490D01*
X0022699Y0167592D01*
X0022842Y0167690D01*
X0022989Y0167785D01*
X0023137Y0167877D01*
X0023287Y0167965D01*
X0023440Y0168049D01*
X0023595Y0168129D01*
X0023751Y0168205D01*
X0023910Y0168278D01*
X0024070Y0168347D01*
X0024232Y0168411D01*
X0024395Y0168472D01*
X0024560Y0168529D01*
X0024726Y0168581D01*
X0024893Y0168630D01*
X0025062Y0168674D01*
X0025231Y0168714D01*
X0025402Y0168751D01*
X0025573Y0168782D01*
X0025745Y0168810D01*
X0025918Y0168834D01*
X0026091Y0168853D01*
X0026265Y0168868D01*
X0026439Y0168878D01*
X0026613Y0168885D01*
X0026787Y0168887D01*
X0026961Y0168885D01*
X0027135Y0168878D01*
X0027309Y0168868D01*
X0027483Y0168853D01*
X0027656Y0168834D01*
X0027829Y0168810D01*
X0028001Y0168782D01*
X0028172Y0168751D01*
X0028343Y0168714D01*
X0028512Y0168674D01*
X0028681Y0168630D01*
X0028848Y0168581D01*
X0029014Y0168529D01*
X0029179Y0168472D01*
X0029342Y0168411D01*
X0029504Y0168347D01*
X0029664Y0168278D01*
X0029823Y0168205D01*
X0029979Y0168129D01*
X0030134Y0168049D01*
X0030287Y0167965D01*
X0030437Y0167877D01*
X0030585Y0167785D01*
X0030732Y0167690D01*
X0030875Y0167592D01*
X0031016Y0167490D01*
X0031155Y0167384D01*
X0031291Y0167275D01*
X0031425Y0167163D01*
X0031555Y0167048D01*
X0031683Y0166929D01*
X0031807Y0166807D01*
X0031929Y0166683D01*
X0032048Y0166555D01*
X0032163Y0166425D01*
X0032275Y0166291D01*
X0032384Y0166155D01*
X0032490Y0166016D01*
X0032592Y0165875D01*
X0032690Y0165732D01*
X0032785Y0165585D01*
X0032877Y0165437D01*
X0032965Y0165287D01*
X0033049Y0165134D01*
X0033129Y0164979D01*
X0033205Y0164823D01*
X0033278Y0164664D01*
X0033347Y0164504D01*
X0033411Y0164342D01*
X0033472Y0164179D01*
X0033529Y0164014D01*
X0033581Y0163848D01*
X0033630Y0163681D01*
X0033674Y0163512D01*
X0033714Y0163343D01*
X0033751Y0163172D01*
X0033782Y0163001D01*
X0033810Y0162829D01*
X0033834Y0162656D01*
X0033853Y0162483D01*
X0033868Y0162309D01*
X0033878Y0162135D01*
X0033885Y0161961D01*
X0033887Y0161787D01*
X0033885Y0161613D01*
X0033878Y0161439D01*
X0033868Y0161265D01*
X0033853Y0161091D01*
X0033834Y0160918D01*
X0033810Y0160745D01*
X0033782Y0160573D01*
X0033751Y0160402D01*
X0033714Y0160231D01*
X0033674Y0160062D01*
X0033630Y0159893D01*
X0033581Y0159726D01*
X0033529Y0159560D01*
X0033472Y0159395D01*
X0033411Y0159232D01*
X0033347Y0159070D01*
X0033278Y0158910D01*
X0033205Y0158751D01*
X0033129Y0158595D01*
X0033049Y0158440D01*
X0032965Y0158287D01*
X0032877Y0158137D01*
X0032785Y0157989D01*
X0032690Y0157842D01*
X0032592Y0157699D01*
X0032490Y0157558D01*
X0032384Y0157419D01*
X0032275Y0157283D01*
X0032163Y0157149D01*
X0032048Y0157019D01*
X0031929Y0156891D01*
X0031807Y0156767D01*
X0031683Y0156645D01*
X0031555Y0156526D01*
X0031425Y0156411D01*
X0031291Y0156299D01*
X0031155Y0156190D01*
X0031016Y0156084D01*
X0030875Y0155982D01*
X0030732Y0155884D01*
X0030585Y0155789D01*
X0030437Y0155697D01*
X0030287Y0155609D01*
X0030134Y0155525D01*
X0029979Y0155445D01*
X0029823Y0155369D01*
X0029664Y0155296D01*
X0029504Y0155227D01*
X0029342Y0155163D01*
X0029179Y0155102D01*
X0029014Y0155045D01*
X0028848Y0154993D01*
X0028681Y0154944D01*
X0028512Y0154900D01*
X0028343Y0154860D01*
X0028172Y0154823D01*
X0028001Y0154792D01*
X0027829Y0154764D01*
X0027656Y0154740D01*
X0027483Y0154721D01*
X0027309Y0154706D01*
X0027135Y0154696D01*
X0026961Y0154689D01*
X0026787Y0154687D01*
X0026613Y0154689D01*
X0026439Y0154696D01*
X0026265Y0154706D01*
X0026091Y0154721D01*
X0025918Y0154740D01*
X0025745Y0154764D01*
X0025573Y0154792D01*
X0025402Y0154823D01*
X0025231Y0154860D01*
X0025062Y0154900D01*
X0024893Y0154944D01*
X0024726Y0154993D01*
X0024560Y0155045D01*
X0024395Y0155102D01*
X0024232Y0155163D01*
X0024070Y0155227D01*
X0023910Y0155296D01*
X0023751Y0155369D01*
X0023595Y0155445D01*
X0023440Y0155525D01*
X0023287Y0155609D01*
X0023137Y0155697D01*
X0022989Y0155789D01*
X0022842Y0155884D01*
X0022699Y0155982D01*
X0022558Y0156084D01*
X0022419Y0156190D01*
X0022283Y0156299D01*
X0022149Y0156411D01*
X0022019Y0156526D01*
X0021891Y0156645D01*
X0021767Y0156767D01*
X0021645Y0156891D01*
X0021526Y0157019D01*
X0021411Y0157149D01*
X0021299Y0157283D01*
X0021190Y0157419D01*
X0021084Y0157558D01*
X0020982Y0157699D01*
X0020884Y0157842D01*
X0020789Y0157989D01*
X0020697Y0158137D01*
X0020609Y0158287D01*
X0020525Y0158440D01*
X0020445Y0158595D01*
X0020369Y0158751D01*
X0020296Y0158910D01*
X0020227Y0159070D01*
X0020163Y0159232D01*
X0020102Y0159395D01*
X0020045Y0159560D01*
X0019993Y0159726D01*
X0019944Y0159893D01*
X0019900Y0160062D01*
X0019860Y0160231D01*
X0019823Y0160402D01*
X0019792Y0160573D01*
X0019764Y0160745D01*
X0019740Y0160918D01*
X0019721Y0161091D01*
X0019706Y0161265D01*
X0019696Y0161439D01*
X0019689Y0161613D01*
X0019687Y0161787D01*
X0064014Y0167728D02*
X0065082Y0167728D01*
X0067217Y0167728D02*
X0067217Y0166661D01*
X0067217Y0167728D02*
X0071487Y0167728D01*
X0071487Y0166661D02*
X0071487Y0168796D01*
X0070420Y0172025D02*
X0066150Y0172025D01*
X0067217Y0170958D02*
X0067217Y0173093D01*
X0067217Y0175255D02*
X0067217Y0177390D01*
X0066150Y0176322D02*
X0070420Y0176322D01*
X0071487Y0177390D01*
X0071487Y0179552D02*
X0071487Y0181687D01*
X0071487Y0180619D02*
X0065082Y0180619D01*
X0065082Y0179552D01*
X0068285Y0183849D02*
X0067217Y0184916D01*
X0067217Y0187052D01*
X0068285Y0188119D01*
X0069352Y0188119D01*
X0069352Y0183849D01*
X0068285Y0183849D02*
X0070420Y0183849D01*
X0071487Y0184916D01*
X0071487Y0187052D01*
X0071487Y0190294D02*
X0071487Y0193497D01*
X0070420Y0194565D01*
X0069352Y0194565D01*
X0068285Y0193497D01*
X0068285Y0190294D01*
X0071487Y0190294D02*
X0065082Y0190294D01*
X0065082Y0193497D01*
X0066150Y0194565D01*
X0067217Y0194565D01*
X0068285Y0193497D01*
X0067217Y0196740D02*
X0067217Y0197807D01*
X0071487Y0197807D01*
X0071487Y0196740D02*
X0071487Y0198875D01*
X0070420Y0202104D02*
X0066150Y0202104D01*
X0067217Y0201037D02*
X0067217Y0203172D01*
X0068285Y0205334D02*
X0067217Y0206401D01*
X0067217Y0209604D01*
X0069352Y0208537D02*
X0069352Y0206401D01*
X0068285Y0205334D01*
X0071487Y0205334D02*
X0071487Y0208537D01*
X0070420Y0209604D01*
X0069352Y0208537D01*
X0071487Y0203172D02*
X0070420Y0202104D01*
X0065082Y0197807D02*
X0064014Y0197807D01*
X0071487Y0173093D02*
X0070420Y0172025D01*
X0071487Y0164486D02*
X0071487Y0160215D01*
X0065082Y0160215D01*
X0067217Y0151601D02*
X0067217Y0150534D01*
X0069352Y0148399D01*
X0071487Y0148399D02*
X0067217Y0148399D01*
X0068285Y0146223D02*
X0067217Y0145156D01*
X0067217Y0143021D01*
X0068285Y0141953D01*
X0070420Y0141953D01*
X0071487Y0143021D01*
X0071487Y0145156D01*
X0070420Y0146223D01*
X0068285Y0146223D01*
X0068285Y0139791D02*
X0068285Y0137656D01*
X0066150Y0138724D02*
X0065082Y0139791D01*
X0066150Y0138724D02*
X0071487Y0138724D01*
X0069352Y0101105D02*
X0068285Y0101105D01*
X0067217Y0100037D01*
X0065082Y0089308D02*
X0064014Y0089308D01*
X0073787Y0039787D02*
X0073787Y0038787D01*
X0073787Y0039787D02*
X0074787Y0039787D01*
X0078787Y0039787D02*
X0079787Y0039787D01*
X0079787Y0038787D01*
X0079787Y0034787D02*
X0079787Y0033787D01*
X0078787Y0033787D01*
X0078787Y0029787D02*
X0079787Y0029787D01*
X0079787Y0028787D01*
X0079787Y0024787D02*
X0079787Y0023787D01*
X0078787Y0023787D01*
X0074787Y0023787D02*
X0073787Y0023787D01*
X0073787Y0024787D01*
X0073787Y0028787D02*
X0073787Y0029787D01*
X0074787Y0029787D01*
X0074787Y0033787D02*
X0073787Y0033787D01*
X0073787Y0034787D01*
X0083787Y0034787D02*
X0083787Y0033787D01*
X0084787Y0033787D01*
X0084787Y0029787D02*
X0083787Y0029787D01*
X0083787Y0028787D01*
X0083787Y0024787D02*
X0083787Y0023787D01*
X0084787Y0023787D01*
X0088787Y0023787D02*
X0089787Y0023787D01*
X0089787Y0024787D01*
X0089787Y0028787D02*
X0089787Y0029787D01*
X0088787Y0029787D01*
X0088787Y0033787D02*
X0089787Y0033787D01*
X0089787Y0034787D01*
X0089787Y0038787D02*
X0089787Y0039787D01*
X0088787Y0039787D01*
X0084787Y0039787D02*
X0083787Y0039787D01*
X0083787Y0038787D01*
X0093787Y0038787D02*
X0093787Y0039787D01*
X0094787Y0039787D01*
X0098787Y0039787D02*
X0099787Y0039787D01*
X0099787Y0038787D01*
X0099787Y0034787D02*
X0099787Y0033787D01*
X0098787Y0033787D01*
X0098787Y0029787D02*
X0099787Y0029787D01*
X0099787Y0028787D01*
X0099787Y0024787D02*
X0099787Y0023787D01*
X0098787Y0023787D01*
X0094787Y0023787D02*
X0093787Y0023787D01*
X0093787Y0024787D01*
X0093787Y0028787D02*
X0093787Y0029787D01*
X0094787Y0029787D01*
X0094787Y0033787D02*
X0093787Y0033787D01*
X0093787Y0034787D01*
X0103787Y0034787D02*
X0103787Y0033787D01*
X0104787Y0033787D01*
X0104787Y0029787D02*
X0103787Y0029787D01*
X0103787Y0028787D01*
X0103787Y0024787D02*
X0103787Y0023787D01*
X0104787Y0023787D01*
X0108787Y0023787D02*
X0109787Y0023787D01*
X0109787Y0024787D01*
X0109787Y0028787D02*
X0109787Y0029787D01*
X0108787Y0029787D01*
X0108787Y0033787D02*
X0109787Y0033787D01*
X0109787Y0034787D01*
X0109787Y0038787D02*
X0109787Y0039787D01*
X0108787Y0039787D01*
X0104787Y0039787D02*
X0103787Y0039787D01*
X0103787Y0038787D01*
X0113787Y0038787D02*
X0113787Y0039787D01*
X0114787Y0039787D01*
X0118787Y0039787D02*
X0119787Y0039787D01*
X0119787Y0038787D01*
X0119787Y0034787D02*
X0119787Y0033787D01*
X0118787Y0033787D01*
X0118787Y0029787D02*
X0119787Y0029787D01*
X0119787Y0028787D01*
X0119787Y0024787D02*
X0119787Y0023787D01*
X0118787Y0023787D01*
X0118787Y0019787D02*
X0119787Y0019787D01*
X0119787Y0018787D01*
X0119787Y0014787D02*
X0119787Y0013787D01*
X0118787Y0013787D01*
X0114787Y0013787D02*
X0113787Y0013787D01*
X0113787Y0014787D01*
X0113787Y0018787D02*
X0113787Y0019787D01*
X0114787Y0019787D01*
X0114787Y0023787D02*
X0113787Y0023787D01*
X0113787Y0024787D01*
X0113787Y0028787D02*
X0113787Y0029787D01*
X0114787Y0029787D01*
X0114787Y0033787D02*
X0113787Y0033787D01*
X0113787Y0034787D01*
X0123787Y0034787D02*
X0123787Y0033787D01*
X0124787Y0033787D01*
X0124787Y0029787D02*
X0123787Y0029787D01*
X0123787Y0028787D01*
X0123787Y0024787D02*
X0123787Y0023787D01*
X0124787Y0023787D01*
X0128787Y0023787D02*
X0129787Y0023787D01*
X0129787Y0024787D01*
X0129787Y0028787D02*
X0129787Y0029787D01*
X0128787Y0029787D01*
X0128787Y0033787D02*
X0129787Y0033787D01*
X0129787Y0034787D01*
X0129787Y0038787D02*
X0129787Y0039787D01*
X0128787Y0039787D01*
X0124787Y0039787D02*
X0123787Y0039787D01*
X0123787Y0038787D01*
X0133787Y0038787D02*
X0133787Y0039787D01*
X0134787Y0039787D01*
X0138787Y0039787D02*
X0139787Y0039787D01*
X0139787Y0038787D01*
X0139787Y0034787D02*
X0139787Y0033787D01*
X0138787Y0033787D01*
X0138787Y0029787D02*
X0139787Y0029787D01*
X0139787Y0028787D01*
X0139787Y0024787D02*
X0139787Y0023787D01*
X0138787Y0023787D01*
X0134787Y0023787D02*
X0133787Y0023787D01*
X0133787Y0024787D01*
X0133787Y0028787D02*
X0133787Y0029787D01*
X0134787Y0029787D01*
X0134787Y0033787D02*
X0133787Y0033787D01*
X0133787Y0034787D01*
X0143787Y0034787D02*
X0143787Y0033787D01*
X0144787Y0033787D01*
X0144787Y0029787D02*
X0143787Y0029787D01*
X0143787Y0028787D01*
X0143787Y0024787D02*
X0143787Y0023787D01*
X0144787Y0023787D01*
X0148787Y0023787D02*
X0149787Y0023787D01*
X0149787Y0024787D01*
X0149787Y0028787D02*
X0149787Y0029787D01*
X0148787Y0029787D01*
X0148787Y0033787D02*
X0149787Y0033787D01*
X0149787Y0034787D01*
X0149787Y0038787D02*
X0149787Y0039787D01*
X0148787Y0039787D01*
X0144787Y0039787D02*
X0143787Y0039787D01*
X0143787Y0038787D01*
X0040587Y0027287D02*
X0039887Y0027887D01*
X0039287Y0027887D01*
X0038687Y0027287D01*
X0038687Y0026087D01*
X0039287Y0025487D01*
X0039887Y0025487D01*
X0040587Y0026087D01*
X0040587Y0027287D01*
X0038687Y0027287D02*
X0038087Y0027887D01*
X0037487Y0027887D01*
X0036887Y0027287D01*
X0036887Y0026087D01*
X0037487Y0025487D01*
X0038087Y0025487D01*
X0038687Y0026087D01*
X0036387Y0023787D02*
X0036187Y0021987D01*
X0036987Y0020787D01*
X0037987Y0020187D01*
X0039187Y0020387D01*
X0039787Y0021587D01*
X0039587Y0022587D01*
X0038787Y0022987D01*
X0037787Y0022587D01*
X0036987Y0020787D01*
X0035987Y0019587D02*
X0036787Y0018787D01*
X0036587Y0016987D01*
X0034787Y0016787D01*
X0033987Y0017587D01*
X0032787Y0018787D01*
X0033987Y0017587D02*
X0035987Y0019587D01*
X0034787Y0020787D01*
X0032887Y0020687D02*
X0031887Y0021687D01*
X0033287Y0023787D02*
X0034587Y0023187D01*
X0033887Y0026787D02*
X0035387Y0026787D01*
X0033487Y0029387D02*
X0034987Y0029987D01*
X0035787Y0031187D02*
X0036387Y0031387D01*
X0039387Y0030587D01*
X0039987Y0030787D01*
X0038987Y0032987D01*
X0037587Y0035587D02*
X0036187Y0036387D01*
X0034387Y0035987D01*
X0033587Y0035187D01*
X0033587Y0034187D01*
X0034587Y0033187D01*
X0035587Y0033187D01*
X0035987Y0033587D01*
X0035987Y0034587D01*
X0034387Y0035987D01*
X0032587Y0037087D02*
X0032087Y0036087D01*
X0031287Y0035787D01*
X0030287Y0036287D01*
X0029987Y0037087D01*
X0030487Y0038187D02*
X0031387Y0038287D01*
X0032287Y0037887D01*
X0032587Y0037087D01*
X0033487Y0038787D02*
X0031287Y0039787D01*
X0030487Y0038187D01*
X0030287Y0034787D02*
X0029687Y0033287D01*
X0031787Y0031787D02*
X0032787Y0032787D01*
X0026787Y0033887D02*
X0026787Y0035387D01*
X0023787Y0036287D02*
X0023987Y0037187D01*
X0023587Y0037987D01*
X0023087Y0038187D01*
X0023187Y0038787D01*
X0022787Y0039587D01*
X0022287Y0039887D01*
X0020587Y0039187D01*
X0020387Y0038187D01*
X0022287Y0037887D02*
X0023087Y0038187D01*
X0023787Y0036287D02*
X0022087Y0035587D01*
X0021387Y0035987D01*
X0020687Y0034787D02*
X0018987Y0033187D01*
X0019187Y0036587D01*
X0018687Y0037187D01*
X0017787Y0037187D01*
X0016687Y0036187D01*
X0016687Y0035087D01*
X0014387Y0032487D02*
X0014587Y0031287D01*
X0014387Y0032487D02*
X0017687Y0030987D01*
X0017987Y0031487D02*
X0017487Y0030387D01*
X0018987Y0030387D02*
X0020287Y0029787D01*
X0021787Y0031887D02*
X0020787Y0032887D01*
X0023387Y0034787D02*
X0023987Y0033287D01*
X0019687Y0026787D02*
X0019689Y0026961D01*
X0019696Y0027135D01*
X0019706Y0027309D01*
X0019721Y0027483D01*
X0019740Y0027656D01*
X0019764Y0027829D01*
X0019792Y0028001D01*
X0019823Y0028172D01*
X0019860Y0028343D01*
X0019900Y0028512D01*
X0019944Y0028681D01*
X0019993Y0028848D01*
X0020045Y0029014D01*
X0020102Y0029179D01*
X0020163Y0029342D01*
X0020227Y0029504D01*
X0020296Y0029664D01*
X0020369Y0029823D01*
X0020445Y0029979D01*
X0020525Y0030134D01*
X0020609Y0030287D01*
X0020697Y0030437D01*
X0020789Y0030585D01*
X0020884Y0030732D01*
X0020982Y0030875D01*
X0021084Y0031016D01*
X0021190Y0031155D01*
X0021299Y0031291D01*
X0021411Y0031425D01*
X0021526Y0031555D01*
X0021645Y0031683D01*
X0021767Y0031807D01*
X0021891Y0031929D01*
X0022019Y0032048D01*
X0022149Y0032163D01*
X0022283Y0032275D01*
X0022419Y0032384D01*
X0022558Y0032490D01*
X0022699Y0032592D01*
X0022842Y0032690D01*
X0022989Y0032785D01*
X0023137Y0032877D01*
X0023287Y0032965D01*
X0023440Y0033049D01*
X0023595Y0033129D01*
X0023751Y0033205D01*
X0023910Y0033278D01*
X0024070Y0033347D01*
X0024232Y0033411D01*
X0024395Y0033472D01*
X0024560Y0033529D01*
X0024726Y0033581D01*
X0024893Y0033630D01*
X0025062Y0033674D01*
X0025231Y0033714D01*
X0025402Y0033751D01*
X0025573Y0033782D01*
X0025745Y0033810D01*
X0025918Y0033834D01*
X0026091Y0033853D01*
X0026265Y0033868D01*
X0026439Y0033878D01*
X0026613Y0033885D01*
X0026787Y0033887D01*
X0026961Y0033885D01*
X0027135Y0033878D01*
X0027309Y0033868D01*
X0027483Y0033853D01*
X0027656Y0033834D01*
X0027829Y0033810D01*
X0028001Y0033782D01*
X0028172Y0033751D01*
X0028343Y0033714D01*
X0028512Y0033674D01*
X0028681Y0033630D01*
X0028848Y0033581D01*
X0029014Y0033529D01*
X0029179Y0033472D01*
X0029342Y0033411D01*
X0029504Y0033347D01*
X0029664Y0033278D01*
X0029823Y0033205D01*
X0029979Y0033129D01*
X0030134Y0033049D01*
X0030287Y0032965D01*
X0030437Y0032877D01*
X0030585Y0032785D01*
X0030732Y0032690D01*
X0030875Y0032592D01*
X0031016Y0032490D01*
X0031155Y0032384D01*
X0031291Y0032275D01*
X0031425Y0032163D01*
X0031555Y0032048D01*
X0031683Y0031929D01*
X0031807Y0031807D01*
X0031929Y0031683D01*
X0032048Y0031555D01*
X0032163Y0031425D01*
X0032275Y0031291D01*
X0032384Y0031155D01*
X0032490Y0031016D01*
X0032592Y0030875D01*
X0032690Y0030732D01*
X0032785Y0030585D01*
X0032877Y0030437D01*
X0032965Y0030287D01*
X0033049Y0030134D01*
X0033129Y0029979D01*
X0033205Y0029823D01*
X0033278Y0029664D01*
X0033347Y0029504D01*
X0033411Y0029342D01*
X0033472Y0029179D01*
X0033529Y0029014D01*
X0033581Y0028848D01*
X0033630Y0028681D01*
X0033674Y0028512D01*
X0033714Y0028343D01*
X0033751Y0028172D01*
X0033782Y0028001D01*
X0033810Y0027829D01*
X0033834Y0027656D01*
X0033853Y0027483D01*
X0033868Y0027309D01*
X0033878Y0027135D01*
X0033885Y0026961D01*
X0033887Y0026787D01*
X0033885Y0026613D01*
X0033878Y0026439D01*
X0033868Y0026265D01*
X0033853Y0026091D01*
X0033834Y0025918D01*
X0033810Y0025745D01*
X0033782Y0025573D01*
X0033751Y0025402D01*
X0033714Y0025231D01*
X0033674Y0025062D01*
X0033630Y0024893D01*
X0033581Y0024726D01*
X0033529Y0024560D01*
X0033472Y0024395D01*
X0033411Y0024232D01*
X0033347Y0024070D01*
X0033278Y0023910D01*
X0033205Y0023751D01*
X0033129Y0023595D01*
X0033049Y0023440D01*
X0032965Y0023287D01*
X0032877Y0023137D01*
X0032785Y0022989D01*
X0032690Y0022842D01*
X0032592Y0022699D01*
X0032490Y0022558D01*
X0032384Y0022419D01*
X0032275Y0022283D01*
X0032163Y0022149D01*
X0032048Y0022019D01*
X0031929Y0021891D01*
X0031807Y0021767D01*
X0031683Y0021645D01*
X0031555Y0021526D01*
X0031425Y0021411D01*
X0031291Y0021299D01*
X0031155Y0021190D01*
X0031016Y0021084D01*
X0030875Y0020982D01*
X0030732Y0020884D01*
X0030585Y0020789D01*
X0030437Y0020697D01*
X0030287Y0020609D01*
X0030134Y0020525D01*
X0029979Y0020445D01*
X0029823Y0020369D01*
X0029664Y0020296D01*
X0029504Y0020227D01*
X0029342Y0020163D01*
X0029179Y0020102D01*
X0029014Y0020045D01*
X0028848Y0019993D01*
X0028681Y0019944D01*
X0028512Y0019900D01*
X0028343Y0019860D01*
X0028172Y0019823D01*
X0028001Y0019792D01*
X0027829Y0019764D01*
X0027656Y0019740D01*
X0027483Y0019721D01*
X0027309Y0019706D01*
X0027135Y0019696D01*
X0026961Y0019689D01*
X0026787Y0019687D01*
X0026613Y0019689D01*
X0026439Y0019696D01*
X0026265Y0019706D01*
X0026091Y0019721D01*
X0025918Y0019740D01*
X0025745Y0019764D01*
X0025573Y0019792D01*
X0025402Y0019823D01*
X0025231Y0019860D01*
X0025062Y0019900D01*
X0024893Y0019944D01*
X0024726Y0019993D01*
X0024560Y0020045D01*
X0024395Y0020102D01*
X0024232Y0020163D01*
X0024070Y0020227D01*
X0023910Y0020296D01*
X0023751Y0020369D01*
X0023595Y0020445D01*
X0023440Y0020525D01*
X0023287Y0020609D01*
X0023137Y0020697D01*
X0022989Y0020789D01*
X0022842Y0020884D01*
X0022699Y0020982D01*
X0022558Y0021084D01*
X0022419Y0021190D01*
X0022283Y0021299D01*
X0022149Y0021411D01*
X0022019Y0021526D01*
X0021891Y0021645D01*
X0021767Y0021767D01*
X0021645Y0021891D01*
X0021526Y0022019D01*
X0021411Y0022149D01*
X0021299Y0022283D01*
X0021190Y0022419D01*
X0021084Y0022558D01*
X0020982Y0022699D01*
X0020884Y0022842D01*
X0020789Y0022989D01*
X0020697Y0023137D01*
X0020609Y0023287D01*
X0020525Y0023440D01*
X0020445Y0023595D01*
X0020369Y0023751D01*
X0020296Y0023910D01*
X0020227Y0024070D01*
X0020163Y0024232D01*
X0020102Y0024395D01*
X0020045Y0024560D01*
X0019993Y0024726D01*
X0019944Y0024893D01*
X0019900Y0025062D01*
X0019860Y0025231D01*
X0019823Y0025402D01*
X0019792Y0025573D01*
X0019764Y0025745D01*
X0019740Y0025918D01*
X0019721Y0026091D01*
X0019706Y0026265D01*
X0019696Y0026439D01*
X0019689Y0026613D01*
X0019687Y0026787D01*
X0019587Y0026787D02*
X0018087Y0026787D01*
X0016687Y0026187D02*
X0016687Y0027387D01*
X0015987Y0027987D01*
X0013587Y0027987D01*
X0012987Y0027387D01*
X0012987Y0026187D01*
X0013587Y0025587D01*
X0015987Y0025587D01*
X0016687Y0026187D01*
X0018787Y0023387D02*
X0020187Y0023987D01*
X0021687Y0021687D02*
X0020687Y0020687D01*
X0019087Y0020487D02*
X0020587Y0018887D01*
X0019187Y0017487D01*
X0017787Y0016087D01*
X0016087Y0017787D01*
X0018287Y0018387D02*
X0019187Y0017487D01*
X0021387Y0017587D02*
X0020187Y0015087D01*
X0020487Y0014387D01*
X0022187Y0013587D01*
X0023787Y0017187D01*
X0022187Y0017887D01*
X0021387Y0017587D01*
X0023487Y0018887D02*
X0023987Y0020187D01*
X0026787Y0019587D02*
X0026787Y0018087D01*
X0029387Y0016987D02*
X0031387Y0017787D01*
X0032187Y0015987D01*
X0032987Y0014387D01*
X0031187Y0013587D01*
X0030587Y0013787D01*
X0030187Y0014587D01*
X0030387Y0015187D01*
X0029587Y0015587D01*
X0029287Y0016287D01*
X0029387Y0016987D01*
X0030087Y0018687D02*
X0029387Y0020287D01*
X0032187Y0015987D02*
X0030387Y0015187D01*
X0017987Y0022087D02*
X0016287Y0021287D01*
X0015687Y0022687D01*
X0016287Y0021287D02*
X0014587Y0020487D01*
X0013687Y0022387D01*
D12*
X0126983Y0164487D02*
X0126983Y0166022D01*
X0126983Y0165255D02*
X0131587Y0165255D01*
X0131587Y0166022D02*
X0131587Y0164487D01*
X0131587Y0174487D02*
X0128518Y0174487D01*
X0126983Y0176022D01*
X0128518Y0177557D01*
X0131587Y0177557D01*
X0129285Y0177557D02*
X0129285Y0174487D01*
D13*
X0125372Y0171759D02*
X0121669Y0171759D01*
X0121669Y0173611D01*
X0122286Y0174228D01*
X0123520Y0174228D01*
X0124137Y0173611D01*
X0124137Y0171759D01*
X0124137Y0170538D02*
X0123520Y0169921D01*
X0121051Y0169921D01*
X0121669Y0169304D02*
X0121669Y0170538D01*
X0121669Y0168089D02*
X0124137Y0168089D01*
X0124137Y0166238D01*
X0123520Y0165621D01*
X0121669Y0165621D01*
X0121051Y0164406D02*
X0120434Y0163789D01*
X0120434Y0162555D01*
X0121051Y0161937D01*
X0123520Y0161937D01*
X0124137Y0162555D01*
X0124137Y0163789D01*
X0123520Y0164406D01*
X0121051Y0164406D01*
X0121669Y0175442D02*
X0123520Y0175442D01*
X0124137Y0176059D01*
X0124137Y0177911D01*
X0121669Y0177911D01*
X0121669Y0179125D02*
X0121669Y0180360D01*
X0121051Y0179743D02*
X0123520Y0179743D01*
X0124137Y0180360D01*
X0111637Y0021677D02*
X0111020Y0021059D01*
X0108551Y0021059D01*
X0109169Y0020442D02*
X0109169Y0021677D01*
X0109169Y0019228D02*
X0111637Y0019228D01*
X0111637Y0017376D01*
X0111020Y0016759D01*
X0109169Y0016759D01*
X0109786Y0015545D02*
X0109169Y0014928D01*
X0109169Y0013076D01*
X0112872Y0013076D01*
X0111637Y0013076D02*
X0111637Y0014928D01*
X0111020Y0015545D01*
X0109786Y0015545D01*
X0109786Y0011862D02*
X0109169Y0011244D01*
X0109169Y0009393D01*
X0111637Y0009393D01*
X0111637Y0008172D02*
X0111637Y0006937D01*
X0111637Y0007555D02*
X0107934Y0007555D01*
X0107934Y0008172D02*
X0107934Y0006937D01*
X0109786Y0011862D02*
X0111637Y0011862D01*
D14*
X0086787Y0065537D02*
X0081787Y0065537D01*
X0084287Y0068037D01*
X0086787Y0065537D01*
X0086728Y0065597D02*
X0081847Y0065597D01*
X0082345Y0066095D02*
X0086229Y0066095D01*
X0085731Y0066594D02*
X0082844Y0066594D01*
X0083342Y0067092D02*
X0085232Y0067092D01*
X0084734Y0067591D02*
X0083841Y0067591D01*
D15*
X0022487Y0069787D02*
X0022487Y0073787D01*
X0020487Y0071787D01*
X0022487Y0069787D01*
X0021987Y0070787D02*
X0021987Y0072787D01*
X0021487Y0071787D02*
X0020987Y0071787D01*
X0022487Y0028787D02*
X0022487Y0024787D01*
X0020487Y0026787D01*
X0022487Y0028787D01*
X0021987Y0027787D02*
X0021987Y0025787D01*
X0021487Y0026787D02*
X0020987Y0026787D01*
X0022487Y0114787D02*
X0022487Y0118787D01*
X0020487Y0116787D01*
X0022487Y0114787D01*
X0021987Y0115787D02*
X0021987Y0117787D01*
X0021487Y0116787D02*
X0020987Y0116787D01*
X0022487Y0159787D02*
X0022487Y0163787D01*
X0020487Y0161787D01*
X0022487Y0159787D01*
X0021987Y0160787D02*
X0021987Y0162787D01*
X0021487Y0161787D02*
X0020987Y0161787D01*
D16*
X0027787Y0161787D03*
X0027787Y0116787D03*
X0027787Y0071787D03*
X0027787Y0026787D03*
M02*
