%
M48
M72
T01C0.01181
T02C0.02559
T03C0.03346
T04C0.03600
T05C0.07874
T06C0.08268
%
T01
X18500Y55331
X21000Y61630
X26000Y76591
X28500Y90764
T02
X41000Y76000
X41000Y71000
X41000Y66000
X41000Y61000
X41000Y56000
X46000Y56000
X46000Y61000
X46000Y66000
X46000Y71000
X46000Y76000
X61000Y36000
X66000Y36000
X71000Y36000
X76000Y36000
X81000Y36000
X86000Y36000
X91000Y36000
X96000Y36000
X101000Y36000
X106000Y36000
X106000Y116000
X101000Y116000
X96000Y116000
X91000Y116000
X86000Y116000
X81000Y116000
X76000Y116000
X71000Y116000
X66000Y116000
X61000Y116000
T03
X11000Y116000
X11000Y111000
X11000Y106000
X11000Y121000
X11000Y126000
X11000Y131000
X11000Y136000
X11000Y141000
T04
X11000Y11000
X11000Y21000
X11000Y31000
X21000Y31000
X21000Y21000
X21000Y11000
X31000Y11000
X31000Y21000
X41000Y21000
X41000Y11000
X51000Y11000
X51000Y21000
X61000Y21000
X61000Y11000
X71000Y11000
X71000Y21000
X81000Y21000
X81000Y11000
X91000Y11000
X91000Y21000
X101000Y21000
X101000Y11000
X101000Y51000
X101000Y61000
X101000Y71000
X101000Y81000
X101000Y91000
X101000Y101000
X91000Y101000
X91000Y91000
X91000Y81000
X91000Y71000
X91000Y61000
X91000Y51000
X81000Y51000
X81000Y61000
X81000Y71000
X81000Y81000
X81000Y91000
X81000Y101000
X71000Y101000
X71000Y91000
X71000Y81000
X71000Y71000
X71000Y61000
X71000Y51000
X61000Y51000
X61000Y61000
X61000Y71000
X61000Y81000
X61000Y91000
X61000Y101000
X61000Y131000
X61000Y141000
X71000Y141000
X71000Y131000
X81000Y131000
X81000Y141000
X91000Y141000
X91000Y131000
X101000Y131000
X101000Y141000
X11000Y91000
X11000Y81000
X11000Y71000
X11000Y61000
X11000Y51000
T05
X45469Y111433
T06
X45469Y40567
M30
