G75*
%MOIN*%
%OFA0B0*%
%FSLAX25Y25*%
%IPPOS*%
%LPD*%
%AMOC8*
5,1,8,0,0,1.08239X$1,22.5*
%
%ADD10OC8,0.06300*%
%ADD11C,0.03937*%
%ADD12C,0.17717*%
%ADD13C,0.04331*%
%ADD14C,0.00787*%
%ADD15C,0.01969*%
D10*
X0011000Y0011000D03*
X0011000Y0021000D03*
X0011000Y0031000D03*
X0021000Y0031000D03*
X0021000Y0021000D03*
X0021000Y0011000D03*
X0031000Y0011000D03*
X0031000Y0021000D03*
X0041000Y0021000D03*
X0041000Y0011000D03*
X0051000Y0011000D03*
X0051000Y0021000D03*
X0061000Y0021000D03*
X0061000Y0011000D03*
X0071000Y0011000D03*
X0071000Y0021000D03*
X0081000Y0021000D03*
X0081000Y0011000D03*
X0091000Y0011000D03*
X0091000Y0021000D03*
X0101000Y0021000D03*
X0101000Y0011000D03*
X0101000Y0051000D03*
X0101000Y0061000D03*
X0101000Y0071000D03*
X0101000Y0081000D03*
X0101000Y0091000D03*
X0101000Y0101000D03*
X0091000Y0101000D03*
X0091000Y0091000D03*
X0091000Y0081000D03*
X0091000Y0071000D03*
X0091000Y0061000D03*
X0091000Y0051000D03*
X0081000Y0051000D03*
X0081000Y0061000D03*
X0081000Y0071000D03*
X0081000Y0081000D03*
X0081000Y0091000D03*
X0081000Y0101000D03*
X0071000Y0101000D03*
X0071000Y0091000D03*
X0071000Y0081000D03*
X0071000Y0071000D03*
X0071000Y0061000D03*
X0071000Y0051000D03*
X0061000Y0051000D03*
X0061000Y0061000D03*
X0061000Y0071000D03*
X0061000Y0081000D03*
X0061000Y0091000D03*
X0061000Y0101000D03*
X0061000Y0131000D03*
X0061000Y0141000D03*
X0071000Y0141000D03*
X0071000Y0131000D03*
X0081000Y0131000D03*
X0081000Y0141000D03*
X0091000Y0141000D03*
X0091000Y0131000D03*
X0101000Y0131000D03*
X0101000Y0141000D03*
X0011000Y0091000D03*
X0011000Y0081000D03*
X0011000Y0071000D03*
X0011000Y0061000D03*
X0011000Y0051000D03*
D11*
X0037063Y0056000D02*
X0041000Y0056000D01*
X0041000Y0061000D02*
X0037063Y0061000D01*
X0037063Y0066000D02*
X0041000Y0066000D01*
X0041000Y0071000D02*
X0037063Y0071000D01*
X0037063Y0076000D02*
X0041000Y0076000D01*
X0046000Y0076000D02*
X0049937Y0076000D01*
X0049937Y0071000D02*
X0046000Y0071000D01*
X0046000Y0066000D02*
X0049937Y0066000D01*
X0049937Y0061000D02*
X0046000Y0061000D01*
X0046000Y0056000D02*
X0049937Y0056000D01*
X0061000Y0036000D02*
X0061000Y0032063D01*
X0066000Y0032063D02*
X0066000Y0036000D01*
X0071000Y0036000D02*
X0071000Y0032063D01*
X0076000Y0032063D02*
X0076000Y0036000D01*
X0081000Y0036000D02*
X0081000Y0032063D01*
X0086000Y0032063D02*
X0086000Y0036000D01*
X0091000Y0036000D02*
X0091000Y0032063D01*
X0096000Y0032063D02*
X0096000Y0036000D01*
X0101000Y0036000D02*
X0101000Y0032063D01*
X0106000Y0032063D02*
X0106000Y0036000D01*
X0106000Y0116000D02*
X0106000Y0119937D01*
X0101000Y0119937D02*
X0101000Y0116000D01*
X0096000Y0116000D02*
X0096000Y0119937D01*
X0091000Y0119937D02*
X0091000Y0116000D01*
X0086000Y0116000D02*
X0086000Y0119937D01*
X0081000Y0119937D02*
X0081000Y0116000D01*
X0076000Y0116000D02*
X0076000Y0119937D01*
X0071000Y0119937D02*
X0071000Y0116000D01*
X0066000Y0116000D02*
X0066000Y0119937D01*
X0061000Y0119937D02*
X0061000Y0116000D01*
D12*
X0045469Y0111433D03*
X0045469Y0040567D03*
D13*
X0011788Y0106000D02*
X0010212Y0106000D01*
X0011788Y0106000D02*
X0011788Y0106000D01*
X0010212Y0106000D01*
X0010212Y0106000D01*
X0010212Y0111000D02*
X0011788Y0111000D01*
X0011788Y0111000D01*
X0010212Y0111000D01*
X0010212Y0111000D01*
X0010212Y0116000D02*
X0011788Y0116000D01*
X0011788Y0116000D01*
X0010212Y0116000D01*
X0010212Y0116000D01*
X0010212Y0121000D02*
X0011788Y0121000D01*
X0011788Y0121000D01*
X0010212Y0121000D01*
X0010212Y0121000D01*
X0010212Y0126000D02*
X0011788Y0126000D01*
X0011788Y0126000D01*
X0010212Y0126000D01*
X0010212Y0126000D01*
X0010212Y0131000D02*
X0011788Y0131000D01*
X0011788Y0131000D01*
X0010212Y0131000D01*
X0010212Y0131000D01*
X0010212Y0136000D02*
X0011788Y0136000D01*
X0011788Y0136000D01*
X0010212Y0136000D01*
X0010212Y0136000D01*
X0010212Y0141000D02*
X0011788Y0141000D01*
X0011788Y0141000D01*
X0010212Y0141000D01*
X0010212Y0141000D01*
D14*
X0011000Y0141000D02*
X0026000Y0141000D01*
X0036000Y0131000D01*
X0061000Y0131000D01*
X0060843Y0130921D01*
X0060843Y0116748D01*
X0061000Y0116000D01*
X0065567Y0116748D02*
X0066000Y0116000D01*
X0065567Y0116748D02*
X0065567Y0136433D01*
X0061000Y0141000D01*
X0071000Y0141000D02*
X0071079Y0140370D01*
X0075803Y0135646D01*
X0075803Y0116748D01*
X0076000Y0116000D01*
X0071079Y0116748D02*
X0071000Y0116000D01*
X0071079Y0116748D02*
X0071079Y0130921D01*
X0071000Y0131000D01*
X0081000Y0131000D02*
X0081315Y0130921D01*
X0081315Y0116748D01*
X0081000Y0116000D01*
X0086000Y0116000D02*
X0086039Y0116748D01*
X0086039Y0135646D01*
X0081315Y0140370D01*
X0081000Y0141000D01*
X0091000Y0141000D02*
X0091551Y0140370D01*
X0095488Y0136433D01*
X0095488Y0116748D01*
X0096000Y0116000D01*
X0091000Y0116000D02*
X0090764Y0116748D01*
X0090764Y0130921D01*
X0091000Y0131000D01*
X0101000Y0131000D02*
X0101000Y0116000D01*
X0105724Y0116748D02*
X0106000Y0116000D01*
X0105724Y0116748D02*
X0105724Y0135646D01*
X0101000Y0140370D01*
X0101000Y0141000D01*
X0051000Y0081000D02*
X0046000Y0081000D01*
X0028500Y0098500D01*
X0028500Y0133500D01*
X0026000Y0136000D01*
X0011000Y0136000D01*
X0011000Y0091000D02*
X0011236Y0090764D01*
X0028500Y0090764D01*
X0031000Y0090764D01*
X0031709Y0090764D01*
X0045882Y0076591D01*
X0046000Y0076000D01*
X0046000Y0071000D02*
X0051000Y0071000D01*
X0053500Y0073500D01*
X0053500Y0078500D01*
X0051000Y0081000D01*
X0041000Y0076000D02*
X0026591Y0076000D01*
X0026000Y0076591D01*
X0015173Y0076591D01*
X0011236Y0080528D01*
X0011000Y0081000D01*
X0011000Y0071000D02*
X0011236Y0070291D01*
X0015173Y0066354D01*
X0040370Y0066354D01*
X0041000Y0066000D01*
X0041157Y0066354D01*
X0045882Y0066354D01*
X0046000Y0066000D01*
X0046000Y0061000D02*
X0041000Y0061000D01*
X0021630Y0061000D01*
X0021000Y0061630D01*
X0011236Y0061630D01*
X0011000Y0061000D01*
X0015173Y0055331D02*
X0011236Y0051394D01*
X0011000Y0051000D01*
X0015173Y0055331D02*
X0018500Y0055331D01*
X0040331Y0055331D01*
X0041000Y0056000D01*
X0040370Y0055331D01*
X0018500Y0055331D01*
X0041000Y0056000D02*
X0041157Y0056118D01*
X0045882Y0056118D01*
X0046000Y0056000D01*
X0061000Y0036000D02*
X0060843Y0035646D01*
X0060843Y0021472D01*
X0061000Y0021000D01*
X0065567Y0015173D02*
X0061630Y0011236D01*
X0061000Y0011000D01*
X0065567Y0015173D02*
X0065567Y0035646D01*
X0066000Y0036000D01*
X0071000Y0036000D02*
X0071079Y0035646D01*
X0071079Y0021472D01*
X0071000Y0021000D01*
X0075803Y0015961D02*
X0071079Y0011236D01*
X0071000Y0011000D01*
X0075803Y0015961D02*
X0075803Y0035646D01*
X0076000Y0036000D01*
X0081000Y0036000D02*
X0081315Y0035646D01*
X0081315Y0021472D01*
X0081000Y0021000D01*
X0086039Y0015961D02*
X0081315Y0011236D01*
X0081000Y0011000D01*
X0086039Y0015961D02*
X0086039Y0035646D01*
X0086000Y0036000D01*
X0090764Y0035646D02*
X0091000Y0036000D01*
X0090764Y0035646D02*
X0090764Y0021472D01*
X0091000Y0021000D01*
X0095488Y0015173D02*
X0091551Y0011236D01*
X0091000Y0011000D01*
X0095488Y0015173D02*
X0095488Y0035646D01*
X0096000Y0036000D01*
X0101000Y0036000D02*
X0101000Y0021000D01*
X0105724Y0015961D02*
X0101000Y0011236D01*
X0101000Y0011000D01*
X0105724Y0015961D02*
X0105724Y0035646D01*
X0106000Y0036000D01*
D15*
X0028500Y0090764D03*
X0026000Y0076591D03*
X0021000Y0061630D03*
X0018500Y0055331D03*
M02*
