G75*
%MOIN*%
%OFA0B0*%
%FSLAX25Y25*%
%IPPOS*%
%LPD*%
%AMOC8*
5,1,8,0,0,1.08239X$1,22.5*
%
%ADD10C,0.03937*%
%ADD11C,0.17717*%
%ADD12C,0.05906*%
%ADD13C,0.06890*%
%ADD14C,0.00787*%
%ADD15C,0.02165*%
%ADD16C,0.02362*%
D10*
X0123269Y0053150D02*
X0127206Y0053150D01*
X0132206Y0053150D02*
X0136143Y0053150D01*
X0136143Y0058150D02*
X0132206Y0058150D01*
X0127206Y0058150D02*
X0123269Y0058150D01*
X0123269Y0063150D02*
X0127206Y0063150D01*
X0132206Y0063150D02*
X0136143Y0063150D01*
X0136143Y0068150D02*
X0132206Y0068150D01*
X0127206Y0068150D02*
X0123269Y0068150D01*
X0123269Y0073150D02*
X0127206Y0073150D01*
X0132206Y0073150D02*
X0136143Y0073150D01*
X0147206Y0093150D02*
X0147206Y0097087D01*
X0152206Y0097087D02*
X0152206Y0093150D01*
X0157206Y0093150D02*
X0157206Y0097087D01*
X0162206Y0097087D02*
X0162206Y0093150D01*
X0167206Y0093150D02*
X0167206Y0097087D01*
X0172206Y0097087D02*
X0172206Y0093150D01*
X0177206Y0093150D02*
X0177206Y0097087D01*
X0182206Y0097087D02*
X0182206Y0093150D01*
X0187206Y0093150D02*
X0187206Y0097087D01*
X0192206Y0097087D02*
X0192206Y0093150D01*
X0192206Y0013150D02*
X0192206Y0009213D01*
X0187206Y0009213D02*
X0187206Y0013150D01*
X0182206Y0013150D02*
X0182206Y0009213D01*
X0177206Y0009213D02*
X0177206Y0013150D01*
X0172206Y0013150D02*
X0172206Y0009213D01*
X0167206Y0009213D02*
X0167206Y0013150D01*
X0162206Y0013150D02*
X0162206Y0009213D01*
X0157206Y0009213D02*
X0157206Y0013150D01*
X0152206Y0013150D02*
X0152206Y0009213D01*
X0147206Y0009213D02*
X0147206Y0013150D01*
D11*
X0131674Y0017717D03*
X0131674Y0088583D03*
D12*
X0090788Y0067244D03*
X0090788Y0057402D03*
X0090788Y0049528D03*
X0090788Y0039685D03*
D13*
X0084980Y0030433D02*
X0080060Y0030433D01*
X0080060Y0076496D02*
X0084980Y0076496D01*
D14*
X0075434Y0033386D02*
X0076056Y0032764D01*
X0076103Y0032858D01*
X0076531Y0033447D01*
X0077046Y0033962D01*
X0077391Y0034213D01*
X0078952Y0035774D01*
X0081267Y0036733D01*
X0083773Y0036733D01*
X0086089Y0035774D01*
X0087650Y0034213D01*
X0087995Y0033962D01*
X0088510Y0033447D01*
X0088938Y0032858D01*
X0089268Y0032209D01*
X0089493Y0031517D01*
X0089602Y0030827D01*
X0088820Y0030827D01*
X0088820Y0030040D01*
X0089602Y0030040D01*
X0089493Y0029350D01*
X0089268Y0028658D01*
X0088938Y0028009D01*
X0088510Y0027420D01*
X0087995Y0026905D01*
X0087650Y0026654D01*
X0086089Y0025093D01*
X0084419Y0024401D01*
X0098269Y0010552D01*
X0124642Y0010552D01*
X0124176Y0011017D01*
X0123473Y0011898D01*
X0122873Y0012853D01*
X0122384Y0013869D01*
X0122012Y0014933D01*
X0121761Y0016033D01*
X0121635Y0017153D01*
X0121635Y0017323D01*
X0131280Y0017323D01*
X0131280Y0018111D01*
X0131280Y0027756D01*
X0131110Y0027756D01*
X0129990Y0027630D01*
X0128890Y0027379D01*
X0127826Y0027007D01*
X0126810Y0026517D01*
X0125855Y0025918D01*
X0124974Y0025214D01*
X0124176Y0024417D01*
X0123473Y0023536D01*
X0122873Y0022581D01*
X0122384Y0021565D01*
X0122012Y0020501D01*
X0121761Y0019401D01*
X0121635Y0018281D01*
X0121635Y0018111D01*
X0131280Y0018111D01*
X0132068Y0018111D01*
X0132068Y0027756D01*
X0132238Y0027756D01*
X0133358Y0027630D01*
X0134458Y0027379D01*
X0135522Y0027007D01*
X0136538Y0026517D01*
X0137493Y0025918D01*
X0138374Y0025214D01*
X0139172Y0024417D01*
X0139875Y0023536D01*
X0140475Y0022581D01*
X0140964Y0021565D01*
X0141336Y0020501D01*
X0141587Y0019401D01*
X0141713Y0018281D01*
X0141713Y0018111D01*
X0132068Y0018111D01*
X0132068Y0017323D01*
X0141713Y0017323D01*
X0141713Y0017153D01*
X0141587Y0016033D01*
X0141336Y0014933D01*
X0140964Y0013869D01*
X0140475Y0012853D01*
X0139875Y0011898D01*
X0139172Y0011017D01*
X0138706Y0010552D01*
X0144056Y0010552D01*
X0144056Y0013776D01*
X0144535Y0014934D01*
X0145421Y0015820D01*
X0146579Y0016300D01*
X0147832Y0016300D01*
X0148990Y0015820D01*
X0149716Y0015094D01*
X0149759Y0015158D01*
X0150198Y0015596D01*
X0150714Y0015941D01*
X0151287Y0016179D01*
X0151895Y0016300D01*
X0151959Y0016300D01*
X0151959Y0013396D01*
X0152452Y0013396D01*
X0152452Y0016300D01*
X0152516Y0016300D01*
X0153124Y0016179D01*
X0153697Y0015941D01*
X0154213Y0015596D01*
X0154652Y0015158D01*
X0154695Y0015094D01*
X0155421Y0015820D01*
X0156579Y0016300D01*
X0157832Y0016300D01*
X0158990Y0015820D01*
X0159706Y0015104D01*
X0160421Y0015820D01*
X0161579Y0016300D01*
X0162832Y0016300D01*
X0163990Y0015820D01*
X0164706Y0015104D01*
X0165421Y0015820D01*
X0166579Y0016300D01*
X0167832Y0016300D01*
X0168990Y0015820D01*
X0169706Y0015104D01*
X0170421Y0015820D01*
X0171579Y0016300D01*
X0172832Y0016300D01*
X0173990Y0015820D01*
X0174706Y0015104D01*
X0175421Y0015820D01*
X0176579Y0016300D01*
X0177832Y0016300D01*
X0178990Y0015820D01*
X0179706Y0015104D01*
X0180421Y0015820D01*
X0181579Y0016300D01*
X0182832Y0016300D01*
X0183990Y0015820D01*
X0184706Y0015104D01*
X0185421Y0015820D01*
X0186579Y0016300D01*
X0187832Y0016300D01*
X0188990Y0015820D01*
X0189706Y0015104D01*
X0190421Y0015820D01*
X0191579Y0016300D01*
X0192757Y0016300D01*
X0192757Y0090000D01*
X0191579Y0090000D01*
X0190421Y0090480D01*
X0189705Y0091196D01*
X0188990Y0090480D01*
X0187832Y0090000D01*
X0186579Y0090000D01*
X0185421Y0090480D01*
X0184705Y0091196D01*
X0183990Y0090480D01*
X0182832Y0090000D01*
X0181579Y0090000D01*
X0180421Y0090480D01*
X0179705Y0091196D01*
X0178990Y0090480D01*
X0177832Y0090000D01*
X0176579Y0090000D01*
X0175421Y0090480D01*
X0174705Y0091196D01*
X0173990Y0090480D01*
X0172832Y0090000D01*
X0171579Y0090000D01*
X0170421Y0090480D01*
X0169705Y0091196D01*
X0168990Y0090480D01*
X0167832Y0090000D01*
X0166579Y0090000D01*
X0165421Y0090480D01*
X0164705Y0091196D01*
X0163990Y0090480D01*
X0162832Y0090000D01*
X0161579Y0090000D01*
X0160421Y0090480D01*
X0159705Y0091196D01*
X0158990Y0090480D01*
X0157832Y0090000D01*
X0156579Y0090000D01*
X0155421Y0090480D01*
X0154705Y0091196D01*
X0153990Y0090480D01*
X0152832Y0090000D01*
X0151579Y0090000D01*
X0150421Y0090480D01*
X0149705Y0091196D01*
X0148990Y0090480D01*
X0147832Y0090000D01*
X0146579Y0090000D01*
X0145421Y0090480D01*
X0144535Y0091366D01*
X0144056Y0092523D01*
X0144056Y0096378D01*
X0138001Y0096378D01*
X0138374Y0096081D01*
X0139172Y0095283D01*
X0139875Y0094402D01*
X0140475Y0093447D01*
X0140964Y0092431D01*
X0141336Y0091367D01*
X0141587Y0090267D01*
X0141713Y0089147D01*
X0141713Y0088977D01*
X0132068Y0088977D01*
X0132068Y0088189D01*
X0141713Y0088189D01*
X0141713Y0088019D01*
X0141587Y0086899D01*
X0141336Y0085799D01*
X0140964Y0084735D01*
X0140475Y0083719D01*
X0139875Y0082764D01*
X0139172Y0081883D01*
X0138374Y0081085D01*
X0137493Y0080382D01*
X0136538Y0079783D01*
X0135522Y0079293D01*
X0134458Y0078921D01*
X0133358Y0078670D01*
X0132238Y0078544D01*
X0132068Y0078544D01*
X0132068Y0088189D01*
X0131280Y0088189D01*
X0121635Y0088189D01*
X0121635Y0088019D01*
X0121761Y0086899D01*
X0122012Y0085799D01*
X0122384Y0084735D01*
X0122873Y0083719D01*
X0123473Y0082764D01*
X0124176Y0081883D01*
X0124974Y0081085D01*
X0125855Y0080382D01*
X0126810Y0079783D01*
X0127826Y0079293D01*
X0128890Y0078921D01*
X0129990Y0078670D01*
X0131110Y0078544D01*
X0131280Y0078544D01*
X0131280Y0088189D01*
X0131280Y0088977D01*
X0121635Y0088977D01*
X0121635Y0089147D01*
X0121761Y0090267D01*
X0122012Y0091367D01*
X0122384Y0092431D01*
X0122873Y0093447D01*
X0123473Y0094402D01*
X0124176Y0095283D01*
X0124974Y0096081D01*
X0125347Y0096378D01*
X0098269Y0096378D01*
X0084419Y0082528D01*
X0086089Y0081837D01*
X0087650Y0080276D01*
X0087995Y0080025D01*
X0088510Y0079510D01*
X0088938Y0078921D01*
X0089268Y0078272D01*
X0089493Y0077580D01*
X0089602Y0076890D01*
X0088820Y0076890D01*
X0088820Y0076103D01*
X0089602Y0076103D01*
X0089493Y0075413D01*
X0089268Y0074721D01*
X0088938Y0074072D01*
X0088510Y0073483D01*
X0087995Y0072968D01*
X0087650Y0072717D01*
X0086089Y0071156D01*
X0083773Y0070197D01*
X0081267Y0070197D01*
X0078952Y0071156D01*
X0077391Y0072717D01*
X0077046Y0072968D01*
X0076531Y0073483D01*
X0076103Y0074072D01*
X0076056Y0074166D01*
X0075434Y0073544D01*
X0075434Y0033386D01*
X0075434Y0033728D02*
X0076812Y0033728D01*
X0076164Y0032942D02*
X0075878Y0032942D01*
X0075434Y0034514D02*
X0077692Y0034514D01*
X0078478Y0035300D02*
X0075434Y0035300D01*
X0075434Y0036086D02*
X0079705Y0036086D01*
X0081189Y0037717D02*
X0083852Y0037717D01*
X0086312Y0038736D01*
X0086693Y0039117D01*
X0086756Y0038717D01*
X0086957Y0038099D01*
X0087253Y0037519D01*
X0087635Y0036992D01*
X0088095Y0036532D01*
X0088622Y0036150D01*
X0089201Y0035854D01*
X0089820Y0035653D01*
X0090394Y0035562D01*
X0090394Y0039292D01*
X0091182Y0039292D01*
X0091182Y0040079D01*
X0094911Y0040079D01*
X0094820Y0040653D01*
X0094619Y0041272D01*
X0094324Y0041852D01*
X0093941Y0042378D01*
X0093481Y0042839D01*
X0092955Y0043221D01*
X0092375Y0043516D01*
X0091756Y0043717D01*
X0091182Y0043808D01*
X0091182Y0040079D01*
X0090394Y0040079D01*
X0090394Y0043808D01*
X0089820Y0043717D01*
X0089213Y0043520D01*
X0089213Y0045706D01*
X0089966Y0045394D01*
X0091610Y0045394D01*
X0093130Y0046023D01*
X0094293Y0047186D01*
X0094922Y0048706D01*
X0094922Y0050350D01*
X0094293Y0051870D01*
X0093130Y0053032D01*
X0092086Y0053465D01*
X0093130Y0053897D01*
X0094293Y0055060D01*
X0094610Y0055827D01*
X0096041Y0055827D01*
X0097087Y0054781D01*
X0097087Y0045249D01*
X0096398Y0044560D01*
X0096398Y0042685D01*
X0097725Y0041359D01*
X0099600Y0041359D01*
X0100926Y0042685D01*
X0100926Y0044560D01*
X0100237Y0045249D01*
X0100237Y0056086D01*
X0098268Y0058054D01*
X0097346Y0058977D01*
X0094610Y0058977D01*
X0094293Y0059744D01*
X0093130Y0060906D01*
X0091610Y0061536D01*
X0089966Y0061536D01*
X0089213Y0061224D01*
X0089213Y0063422D01*
X0089966Y0063111D01*
X0091610Y0063111D01*
X0093130Y0063740D01*
X0094293Y0064903D01*
X0094922Y0066422D01*
X0094922Y0068067D01*
X0094293Y0069586D01*
X0093130Y0070749D01*
X0091610Y0071378D01*
X0089966Y0071378D01*
X0088447Y0070749D01*
X0087284Y0069586D01*
X0086654Y0068067D01*
X0086654Y0067851D01*
X0086312Y0068194D01*
X0083852Y0069213D01*
X0081189Y0069213D01*
X0078729Y0068194D01*
X0076846Y0066311D01*
X0075828Y0063851D01*
X0075828Y0061189D01*
X0076846Y0058729D01*
X0078729Y0056846D01*
X0081189Y0055827D01*
X0083852Y0055827D01*
X0086312Y0056846D01*
X0086654Y0057189D01*
X0086654Y0056580D01*
X0087284Y0055060D01*
X0088447Y0053897D01*
X0089491Y0053465D01*
X0088447Y0053032D01*
X0087284Y0051870D01*
X0086654Y0050350D01*
X0086654Y0049741D01*
X0086312Y0050084D01*
X0083852Y0051103D01*
X0081189Y0051103D01*
X0078729Y0050084D01*
X0076846Y0048201D01*
X0075828Y0045741D01*
X0075828Y0043079D01*
X0076846Y0040619D01*
X0078729Y0038736D01*
X0081189Y0037717D01*
X0079436Y0038443D02*
X0075434Y0038443D01*
X0075434Y0037657D02*
X0087182Y0037657D01*
X0086845Y0038443D02*
X0085605Y0038443D01*
X0087756Y0036871D02*
X0075434Y0036871D01*
X0075434Y0039229D02*
X0078236Y0039229D01*
X0077450Y0040015D02*
X0075434Y0040015D01*
X0075434Y0040801D02*
X0076771Y0040801D01*
X0076445Y0041587D02*
X0075434Y0041587D01*
X0075434Y0042373D02*
X0076120Y0042373D01*
X0075828Y0043159D02*
X0075434Y0043159D01*
X0075434Y0043945D02*
X0075828Y0043945D01*
X0075828Y0044731D02*
X0075434Y0044731D01*
X0075434Y0045517D02*
X0075828Y0045517D01*
X0076060Y0046302D02*
X0075434Y0046302D01*
X0075434Y0047088D02*
X0076386Y0047088D01*
X0076711Y0047874D02*
X0075434Y0047874D01*
X0075434Y0048660D02*
X0077306Y0048660D01*
X0078091Y0049446D02*
X0075434Y0049446D01*
X0075434Y0050232D02*
X0079087Y0050232D01*
X0080984Y0051018D02*
X0075434Y0051018D01*
X0075434Y0051804D02*
X0087256Y0051804D01*
X0086931Y0051018D02*
X0084057Y0051018D01*
X0085954Y0050232D02*
X0086654Y0050232D01*
X0088004Y0052590D02*
X0075434Y0052590D01*
X0075434Y0053376D02*
X0089275Y0053376D01*
X0088182Y0054162D02*
X0075434Y0054162D01*
X0075434Y0054947D02*
X0087397Y0054947D01*
X0087005Y0055733D02*
X0075434Y0055733D01*
X0075434Y0056519D02*
X0079518Y0056519D01*
X0078270Y0057305D02*
X0075434Y0057305D01*
X0075434Y0058091D02*
X0077484Y0058091D01*
X0076785Y0058877D02*
X0075434Y0058877D01*
X0075434Y0059663D02*
X0076460Y0059663D01*
X0076134Y0060449D02*
X0075434Y0060449D01*
X0075434Y0061235D02*
X0075828Y0061235D01*
X0075828Y0062021D02*
X0075434Y0062021D01*
X0075434Y0062807D02*
X0075828Y0062807D01*
X0075828Y0063593D02*
X0075434Y0063593D01*
X0075434Y0064378D02*
X0076046Y0064378D01*
X0076371Y0065164D02*
X0075434Y0065164D01*
X0075434Y0065950D02*
X0076697Y0065950D01*
X0077271Y0066736D02*
X0075434Y0066736D01*
X0075434Y0067522D02*
X0078057Y0067522D01*
X0079004Y0068308D02*
X0075434Y0068308D01*
X0075434Y0069094D02*
X0080902Y0069094D01*
X0080136Y0070666D02*
X0075434Y0070666D01*
X0075434Y0071452D02*
X0078657Y0071452D01*
X0077871Y0072238D02*
X0075434Y0072238D01*
X0075434Y0073023D02*
X0076991Y0073023D01*
X0076294Y0073809D02*
X0075700Y0073809D01*
X0075434Y0069880D02*
X0087577Y0069880D01*
X0087080Y0069094D02*
X0084139Y0069094D01*
X0086037Y0068308D02*
X0086754Y0068308D01*
X0088363Y0070666D02*
X0084904Y0070666D01*
X0086384Y0071452D02*
X0120563Y0071452D01*
X0120598Y0071366D02*
X0121325Y0070639D01*
X0121261Y0070596D01*
X0120822Y0070158D01*
X0120477Y0069642D01*
X0120240Y0069069D01*
X0120119Y0068460D01*
X0120119Y0068396D01*
X0126959Y0068396D01*
X0126959Y0067904D01*
X0120119Y0067904D01*
X0120119Y0067840D01*
X0120240Y0067231D01*
X0120477Y0066658D01*
X0120822Y0066142D01*
X0121261Y0065704D01*
X0121325Y0065661D01*
X0120598Y0064934D01*
X0120119Y0063776D01*
X0120119Y0062523D01*
X0120598Y0061366D01*
X0121314Y0060650D01*
X0120598Y0059934D01*
X0120512Y0059725D01*
X0119427Y0059725D01*
X0118679Y0058977D01*
X0117757Y0058054D01*
X0117757Y0050844D01*
X0119725Y0048876D01*
X0120648Y0047953D01*
X0139348Y0047953D01*
X0139410Y0047891D01*
X0139410Y0045923D01*
X0142363Y0042970D01*
X0143285Y0042048D01*
X0149511Y0042048D01*
X0151480Y0044016D01*
X0184944Y0044016D01*
X0186913Y0045985D01*
X0187835Y0046907D01*
X0187835Y0050854D01*
X0188524Y0051543D01*
X0188524Y0053418D01*
X0187198Y0054744D01*
X0185323Y0054744D01*
X0183997Y0053418D01*
X0183997Y0051543D01*
X0184686Y0050854D01*
X0184686Y0050367D01*
X0184246Y0050807D01*
X0182370Y0050807D01*
X0181681Y0050118D01*
X0169393Y0050118D01*
X0170119Y0050844D01*
X0170119Y0069545D01*
X0170181Y0069607D01*
X0170854Y0069607D01*
X0171543Y0068918D01*
X0173419Y0068918D01*
X0174745Y0070244D01*
X0174745Y0072119D01*
X0174056Y0072808D01*
X0174056Y0082661D01*
X0173133Y0083583D01*
X0172776Y0083940D01*
X0172776Y0084914D01*
X0171450Y0086241D01*
X0169575Y0086241D01*
X0168249Y0084914D01*
X0168249Y0083039D01*
X0169575Y0081713D01*
X0170549Y0081713D01*
X0170906Y0081356D01*
X0170906Y0072808D01*
X0170854Y0072756D01*
X0168876Y0072756D01*
X0167892Y0071772D01*
X0166969Y0070850D01*
X0166969Y0057257D01*
X0166529Y0057697D01*
X0164654Y0057697D01*
X0163581Y0056624D01*
X0163466Y0056823D01*
X0163044Y0057245D01*
X0162528Y0057543D01*
X0161952Y0057697D01*
X0161654Y0057697D01*
X0161356Y0057697D01*
X0160781Y0057543D01*
X0160264Y0057245D01*
X0159843Y0056823D01*
X0159545Y0056307D01*
X0159391Y0055731D01*
X0159391Y0055434D01*
X0161654Y0055434D01*
X0161654Y0057697D01*
X0161654Y0055434D01*
X0161654Y0055434D01*
X0161654Y0055433D01*
X0159391Y0055433D01*
X0159391Y0055135D01*
X0159545Y0054560D01*
X0159836Y0054055D01*
X0148517Y0054055D01*
X0147828Y0054744D01*
X0145953Y0054744D01*
X0144627Y0053418D01*
X0144627Y0051543D01*
X0145362Y0050807D01*
X0144969Y0050807D01*
X0144528Y0050367D01*
X0144528Y0051165D01*
X0143606Y0052087D01*
X0140968Y0054725D01*
X0138899Y0054725D01*
X0138813Y0054934D01*
X0138097Y0055650D01*
X0138813Y0056366D01*
X0139292Y0057523D01*
X0139292Y0058776D01*
X0138813Y0059934D01*
X0138097Y0060650D01*
X0138813Y0061366D01*
X0139292Y0062523D01*
X0139292Y0063776D01*
X0138813Y0064934D01*
X0138086Y0065661D01*
X0138150Y0065704D01*
X0138589Y0066142D01*
X0138934Y0066658D01*
X0139171Y0067231D01*
X0139292Y0067840D01*
X0139292Y0067904D01*
X0132452Y0067904D01*
X0132452Y0068396D01*
X0139292Y0068396D01*
X0139292Y0068460D01*
X0139171Y0069069D01*
X0138934Y0069642D01*
X0138589Y0070158D01*
X0138150Y0070596D01*
X0138086Y0070639D01*
X0138813Y0071366D01*
X0139292Y0072523D01*
X0139292Y0073776D01*
X0138813Y0074934D01*
X0137927Y0075820D01*
X0136769Y0076300D01*
X0131579Y0076300D01*
X0130421Y0075820D01*
X0129705Y0075104D01*
X0128990Y0075820D01*
X0127832Y0076300D01*
X0122642Y0076300D01*
X0121484Y0075820D01*
X0120598Y0074934D01*
X0120119Y0073776D01*
X0120119Y0072523D01*
X0120598Y0071366D01*
X0120237Y0072238D02*
X0087170Y0072238D01*
X0088050Y0073023D02*
X0120119Y0073023D01*
X0120133Y0073809D02*
X0088747Y0073809D01*
X0089204Y0074595D02*
X0120458Y0074595D01*
X0121045Y0075381D02*
X0089483Y0075381D01*
X0088820Y0076167D02*
X0122322Y0076167D01*
X0128152Y0076167D02*
X0131259Y0076167D01*
X0129983Y0075381D02*
X0129429Y0075381D01*
X0137089Y0076167D02*
X0153190Y0076167D01*
X0153190Y0075381D02*
X0138366Y0075381D01*
X0138953Y0074595D02*
X0153190Y0074595D01*
X0153190Y0073809D02*
X0139278Y0073809D01*
X0139292Y0073023D02*
X0153190Y0073023D01*
X0153190Y0072238D02*
X0139174Y0072238D01*
X0138848Y0071452D02*
X0153190Y0071452D01*
X0153190Y0070666D02*
X0138112Y0070666D01*
X0138775Y0069880D02*
X0153190Y0069880D01*
X0153190Y0069094D02*
X0139161Y0069094D01*
X0139229Y0067522D02*
X0153190Y0067522D01*
X0153190Y0066736D02*
X0138966Y0066736D01*
X0138397Y0065950D02*
X0153190Y0065950D01*
X0153190Y0065164D02*
X0138582Y0065164D01*
X0139043Y0064378D02*
X0153190Y0064378D01*
X0153190Y0063593D02*
X0139292Y0063593D01*
X0139292Y0062807D02*
X0153190Y0062807D01*
X0153190Y0062021D02*
X0139084Y0062021D01*
X0138681Y0061235D02*
X0153190Y0061235D01*
X0153190Y0060449D02*
X0138298Y0060449D01*
X0138925Y0059663D02*
X0152840Y0059663D01*
X0152501Y0059324D02*
X0152501Y0057449D01*
X0153827Y0056122D01*
X0155702Y0056122D01*
X0157028Y0057449D01*
X0157028Y0059324D01*
X0156339Y0060013D01*
X0156339Y0085303D01*
X0157028Y0085992D01*
X0157028Y0087867D01*
X0155702Y0089193D01*
X0153827Y0089193D01*
X0152501Y0087867D01*
X0152501Y0085992D01*
X0153190Y0085303D01*
X0153190Y0060013D01*
X0152501Y0059324D01*
X0152501Y0058877D02*
X0139250Y0058877D01*
X0139292Y0058091D02*
X0152501Y0058091D01*
X0152644Y0057305D02*
X0139202Y0057305D01*
X0138876Y0056519D02*
X0153430Y0056519D01*
X0154765Y0058386D02*
X0154765Y0086930D01*
X0157028Y0087170D02*
X0187726Y0087170D01*
X0187931Y0087225D02*
X0187355Y0087071D01*
X0186839Y0086772D01*
X0186418Y0086351D01*
X0186120Y0085835D01*
X0185965Y0085259D01*
X0185965Y0084961D01*
X0185965Y0084663D01*
X0186120Y0084087D01*
X0186418Y0083571D01*
X0186839Y0083150D01*
X0187355Y0082852D01*
X0187931Y0082697D01*
X0188229Y0082697D01*
X0188229Y0084961D01*
X0185965Y0084961D01*
X0188229Y0084961D01*
X0188229Y0084961D01*
X0188229Y0084961D01*
X0188229Y0087225D01*
X0187931Y0087225D01*
X0188229Y0087225D02*
X0188527Y0087225D01*
X0189103Y0087071D01*
X0189619Y0086772D01*
X0190041Y0086351D01*
X0190339Y0085835D01*
X0190493Y0085259D01*
X0190493Y0084961D01*
X0188229Y0084961D01*
X0188229Y0084961D01*
X0188229Y0082697D01*
X0188527Y0082697D01*
X0189103Y0082852D01*
X0189619Y0083150D01*
X0190041Y0083571D01*
X0190339Y0084087D01*
X0190493Y0084663D01*
X0190493Y0084961D01*
X0188229Y0084961D01*
X0188229Y0087225D01*
X0188229Y0087170D02*
X0188229Y0087170D01*
X0188732Y0087170D02*
X0192757Y0087170D01*
X0192757Y0087956D02*
X0156940Y0087956D01*
X0156154Y0088742D02*
X0192757Y0088742D01*
X0192757Y0089528D02*
X0141670Y0089528D01*
X0141577Y0090314D02*
X0145823Y0090314D01*
X0144802Y0091099D02*
X0141397Y0091099D01*
X0141155Y0091885D02*
X0144320Y0091885D01*
X0144056Y0092671D02*
X0140848Y0092671D01*
X0140468Y0093457D02*
X0144056Y0093457D01*
X0144056Y0094243D02*
X0139974Y0094243D01*
X0139374Y0095029D02*
X0144056Y0095029D01*
X0144056Y0095815D02*
X0138640Y0095815D01*
X0149609Y0091099D02*
X0149802Y0091099D01*
X0150823Y0090314D02*
X0148588Y0090314D01*
X0152589Y0087956D02*
X0141706Y0087956D01*
X0141618Y0087170D02*
X0152501Y0087170D01*
X0152501Y0086384D02*
X0141470Y0086384D01*
X0141266Y0085598D02*
X0152895Y0085598D01*
X0153190Y0084812D02*
X0140991Y0084812D01*
X0140622Y0084026D02*
X0153190Y0084026D01*
X0153190Y0083240D02*
X0140174Y0083240D01*
X0139627Y0082454D02*
X0153190Y0082454D01*
X0153190Y0081669D02*
X0138957Y0081669D01*
X0138120Y0080883D02*
X0153190Y0080883D01*
X0153190Y0080097D02*
X0137038Y0080097D01*
X0135558Y0079311D02*
X0153190Y0079311D01*
X0153190Y0078525D02*
X0089139Y0078525D01*
X0089441Y0077739D02*
X0153190Y0077739D01*
X0153190Y0076953D02*
X0089592Y0076953D01*
X0088654Y0079311D02*
X0127790Y0079311D01*
X0126310Y0080097D02*
X0087896Y0080097D01*
X0087043Y0080883D02*
X0125228Y0080883D01*
X0124391Y0081669D02*
X0086257Y0081669D01*
X0084597Y0082454D02*
X0123721Y0082454D01*
X0123174Y0083240D02*
X0098174Y0083240D01*
X0098084Y0083150D02*
X0098505Y0083571D01*
X0098803Y0084087D01*
X0098957Y0084663D01*
X0098957Y0084961D01*
X0098957Y0085259D01*
X0098803Y0085835D01*
X0098505Y0086351D01*
X0098084Y0086772D01*
X0097567Y0087071D01*
X0096992Y0087225D01*
X0096694Y0087225D01*
X0096694Y0084961D01*
X0096694Y0084961D01*
X0098957Y0084961D01*
X0096694Y0084961D01*
X0096694Y0082697D01*
X0096992Y0082697D01*
X0097567Y0082852D01*
X0098084Y0083150D01*
X0098768Y0084026D02*
X0122726Y0084026D01*
X0122357Y0084812D02*
X0098957Y0084812D01*
X0098867Y0085598D02*
X0122082Y0085598D01*
X0121878Y0086384D02*
X0098472Y0086384D01*
X0097197Y0087170D02*
X0121730Y0087170D01*
X0121642Y0087956D02*
X0089846Y0087956D01*
X0090632Y0088742D02*
X0131280Y0088742D01*
X0131280Y0087956D02*
X0132068Y0087956D01*
X0132068Y0088742D02*
X0153375Y0088742D01*
X0153588Y0090314D02*
X0155823Y0090314D01*
X0154802Y0091099D02*
X0154609Y0091099D01*
X0158588Y0090314D02*
X0160823Y0090314D01*
X0159802Y0091099D02*
X0159609Y0091099D01*
X0163588Y0090314D02*
X0165823Y0090314D01*
X0164802Y0091099D02*
X0164609Y0091099D01*
X0168588Y0090314D02*
X0170823Y0090314D01*
X0169802Y0091099D02*
X0169609Y0091099D01*
X0173588Y0090314D02*
X0175823Y0090314D01*
X0174802Y0091099D02*
X0174609Y0091099D01*
X0178588Y0090314D02*
X0180823Y0090314D01*
X0179802Y0091099D02*
X0179609Y0091099D01*
X0183588Y0090314D02*
X0185823Y0090314D01*
X0184802Y0091099D02*
X0184609Y0091099D01*
X0188588Y0090314D02*
X0190823Y0090314D01*
X0189802Y0091099D02*
X0189609Y0091099D01*
X0190008Y0086384D02*
X0192757Y0086384D01*
X0192757Y0085598D02*
X0190402Y0085598D01*
X0190493Y0084812D02*
X0192757Y0084812D01*
X0192757Y0084026D02*
X0190303Y0084026D01*
X0189710Y0083240D02*
X0192757Y0083240D01*
X0192757Y0082454D02*
X0181050Y0082454D01*
X0180946Y0082350D02*
X0181635Y0083039D01*
X0181635Y0084914D01*
X0180309Y0086241D01*
X0178433Y0086241D01*
X0177107Y0084914D01*
X0177107Y0083039D01*
X0177796Y0082350D01*
X0177796Y0073482D01*
X0178091Y0073187D01*
X0178091Y0072212D01*
X0179417Y0070886D01*
X0181293Y0070886D01*
X0182619Y0072212D01*
X0182619Y0074088D01*
X0181293Y0075414D01*
X0180946Y0075414D01*
X0180946Y0082350D01*
X0180946Y0081669D02*
X0192757Y0081669D01*
X0192757Y0080883D02*
X0180946Y0080883D01*
X0180946Y0080097D02*
X0192757Y0080097D01*
X0192757Y0079311D02*
X0180946Y0079311D01*
X0180946Y0078525D02*
X0192757Y0078525D01*
X0192757Y0077739D02*
X0180946Y0077739D01*
X0180946Y0076953D02*
X0192757Y0076953D01*
X0192757Y0076167D02*
X0180946Y0076167D01*
X0181325Y0075381D02*
X0192757Y0075381D01*
X0192757Y0074595D02*
X0182111Y0074595D01*
X0182619Y0073809D02*
X0192757Y0073809D01*
X0192757Y0073023D02*
X0182619Y0073023D01*
X0182619Y0072238D02*
X0192757Y0072238D01*
X0192757Y0071452D02*
X0181858Y0071452D01*
X0180355Y0073150D02*
X0179371Y0074134D01*
X0179371Y0083977D01*
X0180951Y0085598D02*
X0186056Y0085598D01*
X0185965Y0084812D02*
X0181635Y0084812D01*
X0181635Y0084026D02*
X0186155Y0084026D01*
X0186748Y0083240D02*
X0181635Y0083240D01*
X0177692Y0082454D02*
X0174056Y0082454D01*
X0174056Y0081669D02*
X0177796Y0081669D01*
X0177796Y0080883D02*
X0174056Y0080883D01*
X0174056Y0080097D02*
X0177796Y0080097D01*
X0177796Y0079311D02*
X0174056Y0079311D01*
X0174056Y0078525D02*
X0177796Y0078525D01*
X0177796Y0077739D02*
X0174056Y0077739D01*
X0174056Y0076953D02*
X0177796Y0076953D01*
X0177796Y0076167D02*
X0174056Y0076167D01*
X0174056Y0075381D02*
X0177796Y0075381D01*
X0177796Y0074595D02*
X0174056Y0074595D01*
X0174056Y0073809D02*
X0177796Y0073809D01*
X0178091Y0073023D02*
X0174056Y0073023D01*
X0174627Y0072238D02*
X0178091Y0072238D01*
X0178852Y0071452D02*
X0174745Y0071452D01*
X0174745Y0070666D02*
X0192757Y0070666D01*
X0192757Y0069880D02*
X0174381Y0069880D01*
X0173595Y0069094D02*
X0192757Y0069094D01*
X0192757Y0068308D02*
X0170119Y0068308D01*
X0170119Y0069094D02*
X0171367Y0069094D01*
X0170119Y0067522D02*
X0192757Y0067522D01*
X0192757Y0066736D02*
X0170119Y0066736D01*
X0170119Y0065950D02*
X0192757Y0065950D01*
X0192757Y0065164D02*
X0170119Y0065164D01*
X0170119Y0064378D02*
X0175450Y0064378D01*
X0175544Y0064433D02*
X0175028Y0064135D01*
X0174607Y0063713D01*
X0174309Y0063197D01*
X0174154Y0062621D01*
X0174154Y0062323D01*
X0174154Y0062025D01*
X0174309Y0061449D01*
X0174607Y0060933D01*
X0175028Y0060512D01*
X0175544Y0060214D01*
X0176120Y0060059D01*
X0176418Y0060059D01*
X0176418Y0062323D01*
X0176418Y0062323D01*
X0174154Y0062323D01*
X0176418Y0062323D01*
X0176418Y0062323D01*
X0176418Y0060059D01*
X0176716Y0060059D01*
X0177292Y0060214D01*
X0177808Y0060512D01*
X0178230Y0060933D01*
X0178528Y0061449D01*
X0178682Y0062025D01*
X0178682Y0062323D01*
X0176418Y0062323D01*
X0176418Y0062323D01*
X0178682Y0062323D01*
X0178682Y0062621D01*
X0178528Y0063197D01*
X0178230Y0063713D01*
X0177808Y0064135D01*
X0177292Y0064433D01*
X0176716Y0064587D01*
X0176418Y0064587D01*
X0176120Y0064587D01*
X0175544Y0064433D01*
X0176418Y0064378D02*
X0176418Y0064378D01*
X0176418Y0064587D02*
X0176418Y0062323D01*
X0176418Y0062323D01*
X0176418Y0064587D01*
X0177386Y0064378D02*
X0192757Y0064378D01*
X0192757Y0063593D02*
X0178299Y0063593D01*
X0178632Y0062807D02*
X0192757Y0062807D01*
X0192757Y0062021D02*
X0178681Y0062021D01*
X0178404Y0061235D02*
X0192757Y0061235D01*
X0192757Y0060449D02*
X0177699Y0060449D01*
X0176418Y0060449D02*
X0176418Y0060449D01*
X0176418Y0061235D02*
X0176418Y0061235D01*
X0176418Y0062021D02*
X0176418Y0062021D01*
X0176418Y0062807D02*
X0176418Y0062807D01*
X0176418Y0063593D02*
X0176418Y0063593D01*
X0174537Y0063593D02*
X0170119Y0063593D01*
X0170119Y0062807D02*
X0174204Y0062807D01*
X0174156Y0062021D02*
X0170119Y0062021D01*
X0170119Y0061235D02*
X0174433Y0061235D01*
X0175137Y0060449D02*
X0170119Y0060449D01*
X0170119Y0059663D02*
X0192757Y0059663D01*
X0192757Y0058877D02*
X0170119Y0058877D01*
X0170119Y0058091D02*
X0192757Y0058091D01*
X0192757Y0057305D02*
X0170119Y0057305D01*
X0170119Y0056519D02*
X0192757Y0056519D01*
X0192757Y0055733D02*
X0170119Y0055733D01*
X0170119Y0054947D02*
X0192757Y0054947D01*
X0192757Y0054162D02*
X0187781Y0054162D01*
X0188524Y0053376D02*
X0192757Y0053376D01*
X0192757Y0052590D02*
X0188524Y0052590D01*
X0188524Y0051804D02*
X0192757Y0051804D01*
X0192757Y0051018D02*
X0187999Y0051018D01*
X0187835Y0050232D02*
X0192757Y0050232D01*
X0192757Y0049446D02*
X0187835Y0049446D01*
X0187835Y0048660D02*
X0192757Y0048660D01*
X0192757Y0047874D02*
X0187835Y0047874D01*
X0187835Y0047088D02*
X0192757Y0047088D01*
X0192757Y0046302D02*
X0187231Y0046302D01*
X0186445Y0045517D02*
X0192757Y0045517D01*
X0192757Y0044731D02*
X0185659Y0044731D01*
X0184292Y0045591D02*
X0186261Y0047559D01*
X0186261Y0052481D01*
X0184740Y0054162D02*
X0170119Y0054162D01*
X0170119Y0053376D02*
X0183997Y0053376D01*
X0183997Y0052590D02*
X0170119Y0052590D01*
X0170119Y0051804D02*
X0183997Y0051804D01*
X0184522Y0051018D02*
X0170119Y0051018D01*
X0169507Y0050232D02*
X0181795Y0050232D01*
X0183308Y0048544D02*
X0149843Y0048544D01*
X0146891Y0045591D01*
X0144922Y0045591D01*
X0142954Y0047559D01*
X0142954Y0050512D01*
X0140316Y0053150D01*
X0132206Y0053150D01*
X0138180Y0055733D02*
X0159391Y0055733D01*
X0159441Y0054947D02*
X0138799Y0054947D01*
X0141531Y0054162D02*
X0145370Y0054162D01*
X0144627Y0053376D02*
X0142317Y0053376D01*
X0143103Y0052590D02*
X0144627Y0052590D01*
X0144627Y0051804D02*
X0143889Y0051804D01*
X0144528Y0051018D02*
X0145152Y0051018D01*
X0146891Y0052481D02*
X0164607Y0052481D01*
X0165591Y0053465D01*
X0165591Y0055433D01*
X0164262Y0057305D02*
X0162940Y0057305D01*
X0161654Y0057305D02*
X0161654Y0057305D01*
X0161654Y0056519D02*
X0161654Y0056519D01*
X0161654Y0055733D02*
X0161654Y0055733D01*
X0160369Y0057305D02*
X0156885Y0057305D01*
X0157028Y0058091D02*
X0166969Y0058091D01*
X0166969Y0057305D02*
X0166921Y0057305D01*
X0166969Y0058877D02*
X0157028Y0058877D01*
X0156689Y0059663D02*
X0166969Y0059663D01*
X0166969Y0060449D02*
X0156339Y0060449D01*
X0156339Y0061235D02*
X0166969Y0061235D01*
X0166969Y0062021D02*
X0156339Y0062021D01*
X0156339Y0062807D02*
X0166969Y0062807D01*
X0166969Y0063593D02*
X0156339Y0063593D01*
X0156339Y0064378D02*
X0166969Y0064378D01*
X0166969Y0065164D02*
X0156339Y0065164D01*
X0156339Y0065950D02*
X0166969Y0065950D01*
X0166969Y0066736D02*
X0156339Y0066736D01*
X0156339Y0067522D02*
X0166969Y0067522D01*
X0166969Y0068308D02*
X0156339Y0068308D01*
X0156339Y0069094D02*
X0166969Y0069094D01*
X0166969Y0069880D02*
X0156339Y0069880D01*
X0156339Y0070666D02*
X0166969Y0070666D01*
X0166465Y0071040D02*
X0166981Y0071339D01*
X0167403Y0071760D01*
X0167701Y0072276D01*
X0167855Y0072852D01*
X0167855Y0073150D01*
X0167855Y0073448D01*
X0167701Y0074024D01*
X0167403Y0074540D01*
X0166981Y0074961D01*
X0166465Y0075259D01*
X0165889Y0075414D01*
X0165591Y0075414D01*
X0165293Y0075414D01*
X0164718Y0075259D01*
X0164201Y0074961D01*
X0163780Y0074540D01*
X0163482Y0074024D01*
X0163328Y0073448D01*
X0163328Y0073150D01*
X0163328Y0072852D01*
X0163482Y0072276D01*
X0163780Y0071760D01*
X0164201Y0071339D01*
X0164718Y0071040D01*
X0165293Y0070886D01*
X0165591Y0070886D01*
X0165591Y0073150D01*
X0165591Y0073150D01*
X0163328Y0073150D01*
X0165591Y0073150D01*
X0165591Y0073150D01*
X0165591Y0075414D01*
X0165591Y0073150D01*
X0165591Y0073150D01*
X0165591Y0070886D01*
X0165889Y0070886D01*
X0166465Y0071040D01*
X0167094Y0071452D02*
X0167571Y0071452D01*
X0167679Y0072238D02*
X0168357Y0072238D01*
X0167855Y0073023D02*
X0170906Y0073023D01*
X0170906Y0073809D02*
X0167758Y0073809D01*
X0167855Y0073150D02*
X0165591Y0073150D01*
X0165591Y0073150D01*
X0167855Y0073150D01*
X0165591Y0073023D02*
X0165591Y0073023D01*
X0165591Y0072238D02*
X0165591Y0072238D01*
X0165591Y0071452D02*
X0165591Y0071452D01*
X0164088Y0071452D02*
X0156339Y0071452D01*
X0156339Y0072238D02*
X0163504Y0072238D01*
X0163328Y0073023D02*
X0156339Y0073023D01*
X0156339Y0073809D02*
X0163424Y0073809D01*
X0163835Y0074595D02*
X0160396Y0074595D01*
X0160513Y0074713D02*
X0160811Y0075229D01*
X0160965Y0075805D01*
X0160965Y0076103D01*
X0160965Y0076401D01*
X0160811Y0076977D01*
X0160513Y0077493D01*
X0160092Y0077914D01*
X0159575Y0078212D01*
X0159000Y0078367D01*
X0158702Y0078367D01*
X0158702Y0076103D01*
X0160965Y0076103D01*
X0158702Y0076103D01*
X0158702Y0076103D01*
X0158702Y0076103D01*
X0158702Y0078367D01*
X0158404Y0078367D01*
X0157828Y0078212D01*
X0157312Y0077914D01*
X0156890Y0077493D01*
X0156592Y0076977D01*
X0156438Y0076401D01*
X0156438Y0076103D01*
X0158701Y0076103D01*
X0158701Y0076103D01*
X0156438Y0076103D01*
X0156438Y0075805D01*
X0156592Y0075229D01*
X0156890Y0074713D01*
X0157312Y0074291D01*
X0157828Y0073993D01*
X0158404Y0073839D01*
X0158702Y0073839D01*
X0159000Y0073839D01*
X0159575Y0073993D01*
X0160092Y0074291D01*
X0160513Y0074713D01*
X0160852Y0075381D02*
X0165172Y0075381D01*
X0165591Y0075381D02*
X0165591Y0075381D01*
X0166011Y0075381D02*
X0170906Y0075381D01*
X0170906Y0074595D02*
X0167348Y0074595D01*
X0165591Y0074595D02*
X0165591Y0074595D01*
X0165591Y0073809D02*
X0165591Y0073809D01*
X0160965Y0076167D02*
X0170906Y0076167D01*
X0170906Y0076953D02*
X0160817Y0076953D01*
X0160267Y0077739D02*
X0170906Y0077739D01*
X0170906Y0078525D02*
X0156339Y0078525D01*
X0156339Y0079311D02*
X0170906Y0079311D01*
X0170906Y0080097D02*
X0156339Y0080097D01*
X0156339Y0080883D02*
X0170906Y0080883D01*
X0170594Y0081669D02*
X0156339Y0081669D01*
X0156339Y0082454D02*
X0168833Y0082454D01*
X0168249Y0083240D02*
X0156339Y0083240D01*
X0156339Y0084026D02*
X0168249Y0084026D01*
X0168249Y0084812D02*
X0156339Y0084812D01*
X0156635Y0085598D02*
X0168932Y0085598D01*
X0170513Y0083977D02*
X0172481Y0082008D01*
X0172481Y0071181D01*
X0169528Y0071181D01*
X0168544Y0070197D01*
X0168544Y0051496D01*
X0167560Y0050512D01*
X0148859Y0050512D01*
X0146891Y0048544D01*
X0145906Y0048544D01*
X0140985Y0048544D02*
X0140985Y0046575D01*
X0143938Y0043622D01*
X0148859Y0043622D01*
X0150828Y0045591D01*
X0184292Y0045591D01*
X0192757Y0043945D02*
X0151408Y0043945D01*
X0150622Y0043159D02*
X0192757Y0043159D01*
X0192757Y0042373D02*
X0149837Y0042373D01*
X0142960Y0042373D02*
X0100614Y0042373D01*
X0100926Y0043159D02*
X0142174Y0043159D01*
X0141388Y0043945D02*
X0100926Y0043945D01*
X0100755Y0044731D02*
X0104219Y0044731D01*
X0104162Y0044764D02*
X0104678Y0044466D01*
X0105254Y0044311D01*
X0105552Y0044311D01*
X0105850Y0044311D01*
X0106426Y0044466D01*
X0106942Y0044764D01*
X0107363Y0045185D01*
X0107661Y0045701D01*
X0107816Y0046277D01*
X0107816Y0046575D01*
X0105552Y0046575D01*
X0105552Y0044311D01*
X0105552Y0046575D01*
X0105552Y0046575D01*
X0105552Y0046575D01*
X0103288Y0046575D01*
X0103288Y0046277D01*
X0103442Y0045701D01*
X0103740Y0045185D01*
X0104162Y0044764D01*
X0103549Y0045517D02*
X0100237Y0045517D01*
X0100237Y0046302D02*
X0103288Y0046302D01*
X0103288Y0046575D02*
X0105552Y0046575D01*
X0105552Y0046575D01*
X0107816Y0046575D01*
X0107816Y0046873D01*
X0107661Y0047449D01*
X0107363Y0047965D01*
X0106942Y0048387D01*
X0106426Y0048685D01*
X0105850Y0048839D01*
X0105552Y0048839D01*
X0105552Y0046575D01*
X0105552Y0046575D01*
X0105552Y0048839D01*
X0105254Y0048839D01*
X0104678Y0048685D01*
X0104162Y0048387D01*
X0103740Y0047965D01*
X0103442Y0047449D01*
X0103288Y0046873D01*
X0103288Y0046575D01*
X0103346Y0047088D02*
X0100237Y0047088D01*
X0100237Y0047874D02*
X0103688Y0047874D01*
X0104636Y0048660D02*
X0100237Y0048660D01*
X0100237Y0049446D02*
X0119155Y0049446D01*
X0119941Y0048660D02*
X0106468Y0048660D01*
X0105552Y0048660D02*
X0105552Y0048660D01*
X0105552Y0047874D02*
X0105552Y0047874D01*
X0105552Y0047088D02*
X0105552Y0047088D01*
X0105552Y0046302D02*
X0105552Y0046302D01*
X0105552Y0045517D02*
X0105552Y0045517D01*
X0105552Y0044731D02*
X0105552Y0044731D01*
X0106885Y0044731D02*
X0140603Y0044731D01*
X0139817Y0045517D02*
X0107555Y0045517D01*
X0107816Y0046302D02*
X0139410Y0046302D01*
X0139410Y0047088D02*
X0107758Y0047088D01*
X0107416Y0047874D02*
X0139410Y0047874D01*
X0140985Y0048544D02*
X0140001Y0049528D01*
X0121300Y0049528D01*
X0119331Y0051496D01*
X0119331Y0057402D01*
X0120080Y0058150D01*
X0127206Y0058150D01*
X0121113Y0060449D02*
X0093587Y0060449D01*
X0094326Y0059663D02*
X0110165Y0059663D01*
X0110175Y0059666D02*
X0109599Y0059511D01*
X0109083Y0059213D01*
X0108662Y0058792D01*
X0108364Y0058276D01*
X0108209Y0057700D01*
X0108209Y0057402D01*
X0110473Y0057402D01*
X0110473Y0057402D01*
X0108209Y0057402D01*
X0108209Y0057104D01*
X0108364Y0056528D01*
X0108662Y0056012D01*
X0109083Y0055590D01*
X0109599Y0055292D01*
X0110175Y0055138D01*
X0110473Y0055138D01*
X0110473Y0057402D01*
X0110473Y0059666D01*
X0110175Y0059666D01*
X0110473Y0059663D02*
X0110473Y0059663D01*
X0110473Y0059666D02*
X0110771Y0059666D01*
X0111347Y0059511D01*
X0111863Y0059213D01*
X0112285Y0058792D01*
X0112583Y0058276D01*
X0112737Y0057700D01*
X0112737Y0057402D01*
X0110473Y0057402D01*
X0110473Y0057402D01*
X0110473Y0057402D01*
X0110473Y0059666D01*
X0110782Y0059663D02*
X0119365Y0059663D01*
X0118579Y0058877D02*
X0112200Y0058877D01*
X0112632Y0058091D02*
X0117794Y0058091D01*
X0117757Y0057305D02*
X0112737Y0057305D01*
X0112737Y0057402D02*
X0112737Y0057104D01*
X0112583Y0056528D01*
X0112285Y0056012D01*
X0111863Y0055590D01*
X0111347Y0055292D01*
X0110771Y0055138D01*
X0110473Y0055138D01*
X0110473Y0057402D01*
X0110473Y0057402D01*
X0112737Y0057402D01*
X0112578Y0056519D02*
X0117757Y0056519D01*
X0117757Y0055733D02*
X0112006Y0055733D01*
X0110473Y0055733D02*
X0110473Y0055733D01*
X0110473Y0056519D02*
X0110473Y0056519D01*
X0110473Y0057305D02*
X0110473Y0057305D01*
X0110473Y0058091D02*
X0110473Y0058091D01*
X0110473Y0058877D02*
X0110473Y0058877D01*
X0108747Y0058877D02*
X0097446Y0058877D01*
X0098232Y0058091D02*
X0108314Y0058091D01*
X0108209Y0057305D02*
X0099018Y0057305D01*
X0099803Y0056519D02*
X0108369Y0056519D01*
X0108940Y0055733D02*
X0100237Y0055733D01*
X0100237Y0054947D02*
X0117757Y0054947D01*
X0117757Y0054162D02*
X0100237Y0054162D01*
X0100237Y0053376D02*
X0117757Y0053376D01*
X0117757Y0052590D02*
X0100237Y0052590D01*
X0100237Y0051804D02*
X0117757Y0051804D01*
X0117757Y0051018D02*
X0100237Y0051018D01*
X0100237Y0050232D02*
X0118369Y0050232D01*
X0098662Y0055433D02*
X0098662Y0043622D01*
X0096398Y0043945D02*
X0089213Y0043945D01*
X0089213Y0044731D02*
X0096569Y0044731D01*
X0097087Y0045517D02*
X0091906Y0045517D01*
X0093409Y0046302D02*
X0097087Y0046302D01*
X0097087Y0047088D02*
X0094195Y0047088D01*
X0094578Y0047874D02*
X0097087Y0047874D01*
X0097087Y0048660D02*
X0094903Y0048660D01*
X0094922Y0049446D02*
X0097087Y0049446D01*
X0097087Y0050232D02*
X0094922Y0050232D01*
X0094645Y0051018D02*
X0097087Y0051018D01*
X0097087Y0051804D02*
X0094320Y0051804D01*
X0093573Y0052590D02*
X0097087Y0052590D01*
X0097087Y0053376D02*
X0092301Y0053376D01*
X0093394Y0054162D02*
X0097087Y0054162D01*
X0096921Y0054947D02*
X0094180Y0054947D01*
X0094571Y0055733D02*
X0096135Y0055733D01*
X0096694Y0057402D02*
X0098662Y0055433D01*
X0096694Y0057402D02*
X0090788Y0057402D01*
X0086679Y0056519D02*
X0085523Y0056519D01*
X0089213Y0061235D02*
X0089239Y0061235D01*
X0089213Y0062021D02*
X0120327Y0062021D01*
X0120119Y0062807D02*
X0117111Y0062807D01*
X0117206Y0062902D02*
X0117504Y0063418D01*
X0117658Y0063994D01*
X0117658Y0064292D01*
X0117658Y0064590D01*
X0117504Y0065166D01*
X0117206Y0065682D01*
X0116784Y0066103D01*
X0116268Y0066401D01*
X0115693Y0066555D01*
X0115395Y0066555D01*
X0115395Y0064292D01*
X0117658Y0064292D01*
X0115395Y0064292D01*
X0115395Y0064292D01*
X0115394Y0064292D01*
X0115394Y0064292D01*
X0113131Y0064292D01*
X0113131Y0064590D01*
X0113285Y0065166D01*
X0113583Y0065682D01*
X0114004Y0066103D01*
X0114521Y0066401D01*
X0115096Y0066555D01*
X0115394Y0066555D01*
X0115394Y0064292D01*
X0113131Y0064292D01*
X0113131Y0063994D01*
X0113285Y0063418D01*
X0113583Y0062902D01*
X0114004Y0062480D01*
X0114521Y0062182D01*
X0115096Y0062028D01*
X0115394Y0062028D01*
X0115394Y0064292D01*
X0115395Y0064292D01*
X0115395Y0062028D01*
X0115693Y0062028D01*
X0116268Y0062182D01*
X0116784Y0062480D01*
X0117206Y0062902D01*
X0117551Y0063593D02*
X0120119Y0063593D01*
X0120368Y0064378D02*
X0117658Y0064378D01*
X0117504Y0065164D02*
X0120829Y0065164D01*
X0121014Y0065950D02*
X0116937Y0065950D01*
X0115395Y0065950D02*
X0115394Y0065950D01*
X0115394Y0065164D02*
X0115395Y0065164D01*
X0115394Y0064378D02*
X0115395Y0064378D01*
X0115394Y0063593D02*
X0115395Y0063593D01*
X0115394Y0062807D02*
X0115395Y0062807D01*
X0113678Y0062807D02*
X0089213Y0062807D01*
X0092774Y0063593D02*
X0113238Y0063593D01*
X0113131Y0064378D02*
X0093768Y0064378D01*
X0094401Y0065164D02*
X0113285Y0065164D01*
X0113852Y0065950D02*
X0094727Y0065950D01*
X0094922Y0066736D02*
X0120445Y0066736D01*
X0120182Y0067522D02*
X0094922Y0067522D01*
X0094822Y0068308D02*
X0126959Y0068308D01*
X0127452Y0068308D02*
X0131959Y0068308D01*
X0131959Y0068396D02*
X0131959Y0067904D01*
X0129056Y0067904D01*
X0127452Y0067904D01*
X0127452Y0068396D01*
X0131959Y0068396D01*
X0132452Y0068308D02*
X0153190Y0068308D01*
X0158702Y0073839D02*
X0158702Y0076103D01*
X0158702Y0073839D01*
X0158702Y0074595D02*
X0158702Y0074595D01*
X0158702Y0075381D02*
X0158702Y0075381D01*
X0158702Y0076103D02*
X0158702Y0076103D01*
X0158702Y0076167D02*
X0158702Y0076167D01*
X0158702Y0076953D02*
X0158702Y0076953D01*
X0158702Y0077739D02*
X0158702Y0077739D01*
X0157136Y0077739D02*
X0156339Y0077739D01*
X0156339Y0076953D02*
X0156586Y0076953D01*
X0156438Y0076167D02*
X0156339Y0076167D01*
X0156339Y0075381D02*
X0156551Y0075381D01*
X0156339Y0074595D02*
X0157008Y0074595D01*
X0173476Y0083240D02*
X0177107Y0083240D01*
X0177107Y0084026D02*
X0172776Y0084026D01*
X0172776Y0084812D02*
X0177107Y0084812D01*
X0177791Y0085598D02*
X0172093Y0085598D01*
X0186451Y0086384D02*
X0157028Y0086384D01*
X0132068Y0086384D02*
X0131280Y0086384D01*
X0131280Y0087170D02*
X0132068Y0087170D01*
X0132068Y0085598D02*
X0131280Y0085598D01*
X0131280Y0084812D02*
X0132068Y0084812D01*
X0132068Y0084026D02*
X0131280Y0084026D01*
X0131280Y0083240D02*
X0132068Y0083240D01*
X0132068Y0082454D02*
X0131280Y0082454D01*
X0131280Y0081669D02*
X0132068Y0081669D01*
X0132068Y0080883D02*
X0131280Y0080883D01*
X0131280Y0080097D02*
X0132068Y0080097D01*
X0132068Y0079311D02*
X0131280Y0079311D01*
X0121299Y0070666D02*
X0093213Y0070666D01*
X0093999Y0069880D02*
X0120636Y0069880D01*
X0120250Y0069094D02*
X0094497Y0069094D01*
X0092337Y0061235D02*
X0120730Y0061235D01*
X0148411Y0054162D02*
X0159775Y0054162D01*
X0159667Y0056519D02*
X0156099Y0056519D01*
X0192757Y0041587D02*
X0099828Y0041587D01*
X0097496Y0041587D02*
X0094459Y0041587D01*
X0094772Y0040801D02*
X0192757Y0040801D01*
X0192757Y0040015D02*
X0091182Y0040015D01*
X0091182Y0039292D02*
X0094911Y0039292D01*
X0094820Y0038717D01*
X0094619Y0038099D01*
X0094324Y0037519D01*
X0093941Y0036992D01*
X0093481Y0036532D01*
X0092955Y0036150D01*
X0092375Y0035854D01*
X0091756Y0035653D01*
X0091182Y0035562D01*
X0091182Y0039292D01*
X0091182Y0039229D02*
X0090394Y0039229D01*
X0090394Y0038443D02*
X0091182Y0038443D01*
X0091182Y0037657D02*
X0090394Y0037657D01*
X0090394Y0036871D02*
X0091182Y0036871D01*
X0091182Y0036086D02*
X0090394Y0036086D01*
X0088748Y0036086D02*
X0085336Y0036086D01*
X0086563Y0035300D02*
X0129461Y0035300D01*
X0129331Y0035170D02*
X0129033Y0034654D01*
X0128879Y0034078D01*
X0128879Y0033780D01*
X0131142Y0033780D01*
X0131142Y0033780D01*
X0128879Y0033780D01*
X0128879Y0033482D01*
X0129033Y0032906D01*
X0129331Y0032390D01*
X0129753Y0031968D01*
X0130269Y0031670D01*
X0130844Y0031516D01*
X0131142Y0031516D01*
X0131142Y0033780D01*
X0131142Y0036044D01*
X0130844Y0036044D01*
X0130269Y0035889D01*
X0129753Y0035591D01*
X0129331Y0035170D01*
X0128996Y0034514D02*
X0087349Y0034514D01*
X0088229Y0033728D02*
X0128879Y0033728D01*
X0129023Y0032942D02*
X0088877Y0032942D01*
X0089285Y0032156D02*
X0129565Y0032156D01*
X0131142Y0032156D02*
X0131143Y0032156D01*
X0131143Y0031516D02*
X0131441Y0031516D01*
X0132016Y0031670D01*
X0132533Y0031968D01*
X0132954Y0032390D01*
X0133252Y0032906D01*
X0133406Y0033482D01*
X0133406Y0033780D01*
X0133406Y0034078D01*
X0133252Y0034654D01*
X0132954Y0035170D01*
X0132533Y0035591D01*
X0132016Y0035889D01*
X0131441Y0036044D01*
X0131143Y0036044D01*
X0131143Y0033780D01*
X0133406Y0033780D01*
X0131143Y0033780D01*
X0131143Y0033780D01*
X0131142Y0033780D01*
X0131143Y0033780D01*
X0131143Y0031516D01*
X0131142Y0032942D02*
X0131143Y0032942D01*
X0131142Y0033728D02*
X0131143Y0033728D01*
X0131142Y0034514D02*
X0131143Y0034514D01*
X0131142Y0035300D02*
X0131143Y0035300D01*
X0132824Y0035300D02*
X0192757Y0035300D01*
X0192757Y0036086D02*
X0092829Y0036086D01*
X0093820Y0036871D02*
X0192757Y0036871D01*
X0192757Y0037657D02*
X0094394Y0037657D01*
X0094731Y0038443D02*
X0192757Y0038443D01*
X0192757Y0039229D02*
X0094901Y0039229D01*
X0091182Y0040801D02*
X0090394Y0040801D01*
X0090394Y0041587D02*
X0091182Y0041587D01*
X0091182Y0042373D02*
X0090394Y0042373D01*
X0090394Y0043159D02*
X0091182Y0043159D01*
X0093040Y0043159D02*
X0096398Y0043159D01*
X0096710Y0042373D02*
X0093945Y0042373D01*
X0089670Y0045517D02*
X0089213Y0045517D01*
X0104162Y0031654D02*
X0104678Y0031952D01*
X0105254Y0032107D01*
X0105552Y0032107D01*
X0105850Y0032107D01*
X0106426Y0031952D01*
X0106942Y0031654D01*
X0107363Y0031233D01*
X0107661Y0030717D01*
X0107816Y0030141D01*
X0107816Y0029843D01*
X0105552Y0029843D01*
X0105552Y0029843D01*
X0105552Y0032107D01*
X0105552Y0029843D01*
X0105552Y0029843D01*
X0107816Y0029843D01*
X0107816Y0029545D01*
X0107661Y0028969D01*
X0107363Y0028453D01*
X0106942Y0028031D01*
X0106426Y0027733D01*
X0105850Y0027579D01*
X0105552Y0027579D01*
X0105552Y0029843D01*
X0105552Y0029843D01*
X0103288Y0029843D01*
X0103288Y0030141D01*
X0103442Y0030717D01*
X0103740Y0031233D01*
X0104162Y0031654D01*
X0103878Y0031370D02*
X0089516Y0031370D01*
X0088820Y0030584D02*
X0103407Y0030584D01*
X0103288Y0029843D02*
X0103288Y0029545D01*
X0103442Y0028969D01*
X0103740Y0028453D01*
X0104162Y0028031D01*
X0104678Y0027733D01*
X0105254Y0027579D01*
X0105552Y0027579D01*
X0105552Y0029843D01*
X0105552Y0029843D01*
X0103288Y0029843D01*
X0103288Y0029798D02*
X0089564Y0029798D01*
X0089383Y0029012D02*
X0103431Y0029012D01*
X0103967Y0028226D02*
X0089048Y0028226D01*
X0088525Y0027441D02*
X0129159Y0027441D01*
X0131280Y0027441D02*
X0132068Y0027441D01*
X0132068Y0026655D02*
X0131280Y0026655D01*
X0131280Y0025869D02*
X0132068Y0025869D01*
X0132068Y0025083D02*
X0131280Y0025083D01*
X0131280Y0024297D02*
X0132068Y0024297D01*
X0132068Y0023511D02*
X0131280Y0023511D01*
X0131280Y0022725D02*
X0132068Y0022725D01*
X0132068Y0021939D02*
X0131280Y0021939D01*
X0131280Y0021153D02*
X0132068Y0021153D01*
X0132068Y0020367D02*
X0131280Y0020367D01*
X0131280Y0019581D02*
X0132068Y0019581D01*
X0132068Y0018795D02*
X0131280Y0018795D01*
X0131280Y0018010D02*
X0090811Y0018010D01*
X0091596Y0017224D02*
X0121635Y0017224D01*
X0121715Y0016438D02*
X0092382Y0016438D01*
X0093168Y0015652D02*
X0121848Y0015652D01*
X0122035Y0014866D02*
X0093954Y0014866D01*
X0094740Y0014080D02*
X0122310Y0014080D01*
X0122661Y0013294D02*
X0095526Y0013294D01*
X0096312Y0012508D02*
X0123090Y0012508D01*
X0123614Y0011722D02*
X0097098Y0011722D01*
X0097884Y0010936D02*
X0124257Y0010936D01*
X0132068Y0018010D02*
X0192757Y0018010D01*
X0192757Y0018795D02*
X0147467Y0018795D01*
X0147189Y0018721D02*
X0147764Y0018875D01*
X0148281Y0019173D01*
X0148702Y0019595D01*
X0149000Y0020111D01*
X0149154Y0020687D01*
X0149154Y0020985D01*
X0149154Y0021283D01*
X0149000Y0021858D01*
X0148702Y0022375D01*
X0148281Y0022796D01*
X0147764Y0023094D01*
X0147189Y0023248D01*
X0146891Y0023248D01*
X0146891Y0020985D01*
X0149154Y0020985D01*
X0146891Y0020985D01*
X0146891Y0020985D01*
X0146890Y0020985D01*
X0146890Y0020985D01*
X0144627Y0020985D01*
X0144627Y0021283D01*
X0144781Y0021858D01*
X0145079Y0022375D01*
X0145501Y0022796D01*
X0146017Y0023094D01*
X0146593Y0023248D01*
X0146890Y0023248D01*
X0146890Y0020985D01*
X0144627Y0020985D01*
X0144627Y0020687D01*
X0144781Y0020111D01*
X0145079Y0019595D01*
X0145501Y0019173D01*
X0146017Y0018875D01*
X0146593Y0018721D01*
X0146890Y0018721D01*
X0146890Y0020985D01*
X0146891Y0020985D01*
X0146891Y0018721D01*
X0147189Y0018721D01*
X0146891Y0018795D02*
X0146890Y0018795D01*
X0146314Y0018795D02*
X0141655Y0018795D01*
X0141546Y0019581D02*
X0145092Y0019581D01*
X0144712Y0020367D02*
X0141367Y0020367D01*
X0141108Y0021153D02*
X0144627Y0021153D01*
X0144828Y0021939D02*
X0140784Y0021939D01*
X0140384Y0022725D02*
X0145429Y0022725D01*
X0146890Y0022725D02*
X0146891Y0022725D01*
X0146890Y0021939D02*
X0146891Y0021939D01*
X0146890Y0021153D02*
X0146891Y0021153D01*
X0146890Y0020367D02*
X0146891Y0020367D01*
X0146890Y0019581D02*
X0146891Y0019581D01*
X0148689Y0019581D02*
X0192757Y0019581D01*
X0192757Y0020367D02*
X0149069Y0020367D01*
X0149154Y0021153D02*
X0192757Y0021153D01*
X0192757Y0021939D02*
X0148953Y0021939D01*
X0148352Y0022725D02*
X0192757Y0022725D01*
X0192757Y0023511D02*
X0139890Y0023511D01*
X0139268Y0024297D02*
X0192757Y0024297D01*
X0192757Y0025083D02*
X0159111Y0025083D01*
X0159107Y0025079D02*
X0159529Y0025500D01*
X0159827Y0026016D01*
X0159981Y0026592D01*
X0159981Y0026890D01*
X0157717Y0026890D01*
X0155454Y0026890D01*
X0155454Y0026592D01*
X0155608Y0026016D01*
X0155906Y0025500D01*
X0156327Y0025079D01*
X0156844Y0024781D01*
X0157419Y0024626D01*
X0157717Y0024626D01*
X0157717Y0026890D01*
X0157717Y0026890D01*
X0157717Y0026890D01*
X0155454Y0026890D01*
X0155454Y0027188D01*
X0155608Y0027764D01*
X0155906Y0028280D01*
X0156327Y0028702D01*
X0156844Y0029000D01*
X0157419Y0029154D01*
X0157717Y0029154D01*
X0157717Y0026890D01*
X0157717Y0024626D01*
X0158015Y0024626D01*
X0158591Y0024781D01*
X0159107Y0025079D01*
X0159742Y0025869D02*
X0192757Y0025869D01*
X0192757Y0026655D02*
X0159981Y0026655D01*
X0159981Y0026890D02*
X0159981Y0027188D01*
X0159827Y0027764D01*
X0159529Y0028280D01*
X0159107Y0028702D01*
X0158591Y0029000D01*
X0158015Y0029154D01*
X0157717Y0029154D01*
X0157717Y0026890D01*
X0157717Y0026890D01*
X0157717Y0026890D01*
X0159981Y0026890D01*
X0159913Y0027441D02*
X0192757Y0027441D01*
X0192757Y0028226D02*
X0159560Y0028226D01*
X0158544Y0029012D02*
X0192757Y0029012D01*
X0192757Y0029798D02*
X0107816Y0029798D01*
X0107697Y0030584D02*
X0172972Y0030584D01*
X0173167Y0030532D02*
X0173465Y0030532D01*
X0173465Y0032796D01*
X0173465Y0035059D01*
X0173167Y0035059D01*
X0172592Y0034905D01*
X0172075Y0034607D01*
X0171654Y0034186D01*
X0171356Y0033669D01*
X0171202Y0033094D01*
X0171202Y0032796D01*
X0173465Y0032796D01*
X0173465Y0032796D01*
X0173465Y0032796D01*
X0171202Y0032796D01*
X0171202Y0032498D01*
X0171356Y0031922D01*
X0171654Y0031406D01*
X0172075Y0030984D01*
X0172592Y0030686D01*
X0173167Y0030532D01*
X0173465Y0030532D02*
X0173763Y0030532D01*
X0174339Y0030686D01*
X0174855Y0030984D01*
X0175277Y0031406D01*
X0175575Y0031922D01*
X0175729Y0032498D01*
X0175729Y0032796D01*
X0175729Y0033094D01*
X0175575Y0033669D01*
X0175277Y0034186D01*
X0174855Y0034607D01*
X0174339Y0034905D01*
X0173763Y0035059D01*
X0173465Y0035059D01*
X0173465Y0032796D01*
X0173465Y0032796D01*
X0175729Y0032796D01*
X0173465Y0032796D01*
X0173465Y0032796D01*
X0173465Y0030532D01*
X0173465Y0030584D02*
X0173465Y0030584D01*
X0173958Y0030584D02*
X0192757Y0030584D01*
X0192757Y0031370D02*
X0175241Y0031370D01*
X0175638Y0032156D02*
X0192757Y0032156D01*
X0192757Y0032942D02*
X0175729Y0032942D01*
X0175541Y0033728D02*
X0192757Y0033728D01*
X0192757Y0034514D02*
X0174949Y0034514D01*
X0173465Y0034514D02*
X0173465Y0034514D01*
X0173465Y0033728D02*
X0173465Y0033728D01*
X0173465Y0032942D02*
X0173465Y0032942D01*
X0173465Y0032156D02*
X0173465Y0032156D01*
X0173465Y0031370D02*
X0173465Y0031370D01*
X0171689Y0031370D02*
X0107226Y0031370D01*
X0105552Y0031370D02*
X0105552Y0031370D01*
X0105552Y0030584D02*
X0105552Y0030584D01*
X0105552Y0029798D02*
X0105552Y0029798D01*
X0105552Y0029012D02*
X0105552Y0029012D01*
X0105552Y0028226D02*
X0105552Y0028226D01*
X0107137Y0028226D02*
X0155875Y0028226D01*
X0155521Y0027441D02*
X0134189Y0027441D01*
X0136253Y0026655D02*
X0155454Y0026655D01*
X0155693Y0025869D02*
X0137554Y0025869D01*
X0138506Y0025083D02*
X0156323Y0025083D01*
X0157717Y0025083D02*
X0157717Y0025083D01*
X0157717Y0025869D02*
X0157717Y0025869D01*
X0157717Y0026655D02*
X0157717Y0026655D01*
X0157717Y0027441D02*
X0157717Y0027441D01*
X0157717Y0028226D02*
X0157717Y0028226D01*
X0157717Y0029012D02*
X0157717Y0029012D01*
X0156891Y0029012D02*
X0107673Y0029012D01*
X0122964Y0022725D02*
X0086095Y0022725D01*
X0086881Y0021939D02*
X0122564Y0021939D01*
X0122240Y0021153D02*
X0087667Y0021153D01*
X0088453Y0020367D02*
X0121981Y0020367D01*
X0121802Y0019581D02*
X0089239Y0019581D01*
X0090025Y0018795D02*
X0121693Y0018795D01*
X0123458Y0023511D02*
X0085309Y0023511D01*
X0084523Y0024297D02*
X0124081Y0024297D01*
X0124842Y0025083D02*
X0086063Y0025083D01*
X0086864Y0025869D02*
X0125794Y0025869D01*
X0127095Y0026655D02*
X0087650Y0026655D01*
X0132720Y0032156D02*
X0171293Y0032156D01*
X0171202Y0032942D02*
X0133262Y0032942D01*
X0133406Y0033728D02*
X0171390Y0033728D01*
X0171982Y0034514D02*
X0133290Y0034514D01*
X0141713Y0017224D02*
X0192757Y0017224D01*
X0192757Y0016438D02*
X0141633Y0016438D01*
X0141500Y0015652D02*
X0145253Y0015652D01*
X0144507Y0014866D02*
X0141313Y0014866D01*
X0141038Y0014080D02*
X0144182Y0014080D01*
X0144056Y0013294D02*
X0140687Y0013294D01*
X0140258Y0012508D02*
X0144056Y0012508D01*
X0144056Y0011722D02*
X0139734Y0011722D01*
X0139091Y0010936D02*
X0144056Y0010936D01*
X0151959Y0014080D02*
X0152452Y0014080D01*
X0152452Y0014866D02*
X0151959Y0014866D01*
X0151959Y0015652D02*
X0152452Y0015652D01*
X0154130Y0015652D02*
X0155253Y0015652D01*
X0159158Y0015652D02*
X0160253Y0015652D01*
X0164158Y0015652D02*
X0165253Y0015652D01*
X0169158Y0015652D02*
X0170253Y0015652D01*
X0174158Y0015652D02*
X0175253Y0015652D01*
X0179158Y0015652D02*
X0180253Y0015652D01*
X0184158Y0015652D02*
X0185253Y0015652D01*
X0189158Y0015652D02*
X0190253Y0015652D01*
X0150281Y0015652D02*
X0149158Y0015652D01*
X0096694Y0082697D02*
X0096694Y0084961D01*
X0096694Y0084961D01*
X0096694Y0084961D01*
X0096694Y0087225D01*
X0096396Y0087225D01*
X0095820Y0087071D01*
X0095304Y0086772D01*
X0094882Y0086351D01*
X0094584Y0085835D01*
X0094430Y0085259D01*
X0094430Y0084961D01*
X0094430Y0084663D01*
X0094584Y0084087D01*
X0094882Y0083571D01*
X0095304Y0083150D01*
X0095820Y0082852D01*
X0096396Y0082697D01*
X0096694Y0082697D01*
X0096694Y0083240D02*
X0096694Y0083240D01*
X0096694Y0084026D02*
X0096694Y0084026D01*
X0096694Y0084812D02*
X0096694Y0084812D01*
X0096694Y0084961D02*
X0094430Y0084961D01*
X0096694Y0084961D01*
X0096694Y0084961D01*
X0096694Y0085598D02*
X0096694Y0085598D01*
X0096694Y0086384D02*
X0096694Y0086384D01*
X0096694Y0087170D02*
X0096694Y0087170D01*
X0096191Y0087170D02*
X0089060Y0087170D01*
X0088274Y0086384D02*
X0094915Y0086384D01*
X0094521Y0085598D02*
X0087488Y0085598D01*
X0086702Y0084812D02*
X0094430Y0084812D01*
X0094619Y0084026D02*
X0085916Y0084026D01*
X0085130Y0083240D02*
X0095213Y0083240D01*
X0091418Y0089528D02*
X0121678Y0089528D01*
X0121771Y0090314D02*
X0092204Y0090314D01*
X0092990Y0091099D02*
X0121951Y0091099D01*
X0122193Y0091885D02*
X0093776Y0091885D01*
X0094561Y0092671D02*
X0122500Y0092671D01*
X0122880Y0093457D02*
X0095347Y0093457D01*
X0096133Y0094243D02*
X0123374Y0094243D01*
X0123974Y0095029D02*
X0096919Y0095029D01*
X0097705Y0095815D02*
X0124708Y0095815D01*
X0188229Y0086384D02*
X0188229Y0086384D01*
X0188229Y0085598D02*
X0188229Y0085598D01*
X0188229Y0084961D02*
X0188229Y0084961D01*
X0188229Y0084812D02*
X0188229Y0084812D01*
X0188229Y0084026D02*
X0188229Y0084026D01*
X0188229Y0083240D02*
X0188229Y0083240D01*
D15*
X0188229Y0084961D03*
X0179371Y0083977D03*
X0170513Y0083977D03*
X0154765Y0086930D03*
X0158702Y0076103D03*
X0165591Y0073150D03*
X0172481Y0071181D03*
X0180355Y0073150D03*
X0176418Y0062323D03*
X0165591Y0055433D03*
X0161654Y0055433D03*
X0154765Y0058386D03*
X0146891Y0052481D03*
X0145906Y0048544D03*
X0131143Y0033780D03*
X0157717Y0026890D03*
X0146891Y0020985D03*
X0173465Y0032796D03*
X0183308Y0048544D03*
X0186261Y0052481D03*
X0115394Y0064292D03*
X0110473Y0057402D03*
X0105552Y0046575D03*
X0098662Y0043622D03*
X0105552Y0029843D03*
X0096694Y0084961D03*
D16*
X0090985Y0084961D01*
X0082520Y0076496D01*
X0090788Y0039685D02*
X0090788Y0038701D01*
X0082520Y0030433D01*
M02*
