G75*
%MOIN*%
%OFA0B0*%
%FSLAX25Y25*%
%IPPOS*%
%LPD*%
%AMOC8*
5,1,8,0,0,1.08239X$1,22.5*
%
%ADD10C,0.00000*%
D10*
X0036706Y0018611D02*
X0036706Y0081603D01*
X0040643Y0083572D02*
X0040645Y0083725D01*
X0040651Y0083879D01*
X0040661Y0084032D01*
X0040675Y0084184D01*
X0040693Y0084337D01*
X0040715Y0084488D01*
X0040740Y0084639D01*
X0040770Y0084790D01*
X0040804Y0084940D01*
X0040841Y0085088D01*
X0040882Y0085236D01*
X0040927Y0085382D01*
X0040976Y0085528D01*
X0041029Y0085672D01*
X0041085Y0085814D01*
X0041145Y0085955D01*
X0041209Y0086095D01*
X0041276Y0086233D01*
X0041347Y0086369D01*
X0041422Y0086503D01*
X0041499Y0086635D01*
X0041581Y0086765D01*
X0041665Y0086893D01*
X0041753Y0087019D01*
X0041844Y0087142D01*
X0041938Y0087263D01*
X0042036Y0087381D01*
X0042136Y0087497D01*
X0042240Y0087610D01*
X0042346Y0087721D01*
X0042455Y0087829D01*
X0042567Y0087934D01*
X0042681Y0088035D01*
X0042799Y0088134D01*
X0042918Y0088230D01*
X0043040Y0088323D01*
X0043165Y0088412D01*
X0043292Y0088499D01*
X0043421Y0088581D01*
X0043552Y0088661D01*
X0043685Y0088737D01*
X0043820Y0088810D01*
X0043957Y0088879D01*
X0044096Y0088944D01*
X0044236Y0089006D01*
X0044378Y0089064D01*
X0044521Y0089119D01*
X0044666Y0089170D01*
X0044812Y0089217D01*
X0044959Y0089260D01*
X0045107Y0089299D01*
X0045256Y0089335D01*
X0045406Y0089366D01*
X0045557Y0089394D01*
X0045708Y0089418D01*
X0045861Y0089438D01*
X0046013Y0089454D01*
X0046166Y0089466D01*
X0046319Y0089474D01*
X0046472Y0089478D01*
X0046626Y0089478D01*
X0046779Y0089474D01*
X0046932Y0089466D01*
X0047085Y0089454D01*
X0047237Y0089438D01*
X0047390Y0089418D01*
X0047541Y0089394D01*
X0047692Y0089366D01*
X0047842Y0089335D01*
X0047991Y0089299D01*
X0048139Y0089260D01*
X0048286Y0089217D01*
X0048432Y0089170D01*
X0048577Y0089119D01*
X0048720Y0089064D01*
X0048862Y0089006D01*
X0049002Y0088944D01*
X0049141Y0088879D01*
X0049278Y0088810D01*
X0049413Y0088737D01*
X0049546Y0088661D01*
X0049677Y0088581D01*
X0049806Y0088499D01*
X0049933Y0088412D01*
X0050058Y0088323D01*
X0050180Y0088230D01*
X0050299Y0088134D01*
X0050417Y0088035D01*
X0050531Y0087934D01*
X0050643Y0087829D01*
X0050752Y0087721D01*
X0050858Y0087610D01*
X0050962Y0087497D01*
X0051062Y0087381D01*
X0051160Y0087263D01*
X0051254Y0087142D01*
X0051345Y0087019D01*
X0051433Y0086893D01*
X0051517Y0086765D01*
X0051599Y0086635D01*
X0051676Y0086503D01*
X0051751Y0086369D01*
X0051822Y0086233D01*
X0051889Y0086095D01*
X0051953Y0085955D01*
X0052013Y0085814D01*
X0052069Y0085672D01*
X0052122Y0085528D01*
X0052171Y0085382D01*
X0052216Y0085236D01*
X0052257Y0085088D01*
X0052294Y0084940D01*
X0052328Y0084790D01*
X0052358Y0084639D01*
X0052383Y0084488D01*
X0052405Y0084337D01*
X0052423Y0084184D01*
X0052437Y0084032D01*
X0052447Y0083879D01*
X0052453Y0083725D01*
X0052455Y0083572D01*
X0052453Y0083419D01*
X0052447Y0083265D01*
X0052437Y0083112D01*
X0052423Y0082960D01*
X0052405Y0082807D01*
X0052383Y0082656D01*
X0052358Y0082505D01*
X0052328Y0082354D01*
X0052294Y0082204D01*
X0052257Y0082056D01*
X0052216Y0081908D01*
X0052171Y0081762D01*
X0052122Y0081616D01*
X0052069Y0081472D01*
X0052013Y0081330D01*
X0051953Y0081189D01*
X0051889Y0081049D01*
X0051822Y0080911D01*
X0051751Y0080775D01*
X0051676Y0080641D01*
X0051599Y0080509D01*
X0051517Y0080379D01*
X0051433Y0080251D01*
X0051345Y0080125D01*
X0051254Y0080002D01*
X0051160Y0079881D01*
X0051062Y0079763D01*
X0050962Y0079647D01*
X0050858Y0079534D01*
X0050752Y0079423D01*
X0050643Y0079315D01*
X0050531Y0079210D01*
X0050417Y0079109D01*
X0050299Y0079010D01*
X0050180Y0078914D01*
X0050058Y0078821D01*
X0049933Y0078732D01*
X0049806Y0078645D01*
X0049677Y0078563D01*
X0049546Y0078483D01*
X0049413Y0078407D01*
X0049278Y0078334D01*
X0049141Y0078265D01*
X0049002Y0078200D01*
X0048862Y0078138D01*
X0048720Y0078080D01*
X0048577Y0078025D01*
X0048432Y0077974D01*
X0048286Y0077927D01*
X0048139Y0077884D01*
X0047991Y0077845D01*
X0047842Y0077809D01*
X0047692Y0077778D01*
X0047541Y0077750D01*
X0047390Y0077726D01*
X0047237Y0077706D01*
X0047085Y0077690D01*
X0046932Y0077678D01*
X0046779Y0077670D01*
X0046626Y0077666D01*
X0046472Y0077666D01*
X0046319Y0077670D01*
X0046166Y0077678D01*
X0046013Y0077690D01*
X0045861Y0077706D01*
X0045708Y0077726D01*
X0045557Y0077750D01*
X0045406Y0077778D01*
X0045256Y0077809D01*
X0045107Y0077845D01*
X0044959Y0077884D01*
X0044812Y0077927D01*
X0044666Y0077974D01*
X0044521Y0078025D01*
X0044378Y0078080D01*
X0044236Y0078138D01*
X0044096Y0078200D01*
X0043957Y0078265D01*
X0043820Y0078334D01*
X0043685Y0078407D01*
X0043552Y0078483D01*
X0043421Y0078563D01*
X0043292Y0078645D01*
X0043165Y0078732D01*
X0043040Y0078821D01*
X0042918Y0078914D01*
X0042799Y0079010D01*
X0042681Y0079109D01*
X0042567Y0079210D01*
X0042455Y0079315D01*
X0042346Y0079423D01*
X0042240Y0079534D01*
X0042136Y0079647D01*
X0042036Y0079763D01*
X0041938Y0079881D01*
X0041844Y0080002D01*
X0041753Y0080125D01*
X0041665Y0080251D01*
X0041581Y0080379D01*
X0041499Y0080509D01*
X0041422Y0080641D01*
X0041347Y0080775D01*
X0041276Y0080911D01*
X0041209Y0081049D01*
X0041145Y0081189D01*
X0041085Y0081330D01*
X0041029Y0081472D01*
X0040976Y0081616D01*
X0040927Y0081762D01*
X0040882Y0081908D01*
X0040841Y0082056D01*
X0040804Y0082204D01*
X0040770Y0082354D01*
X0040740Y0082505D01*
X0040715Y0082656D01*
X0040693Y0082807D01*
X0040675Y0082960D01*
X0040661Y0083112D01*
X0040651Y0083265D01*
X0040645Y0083419D01*
X0040643Y0083572D01*
X0036706Y0081603D02*
X0036709Y0081888D01*
X0036720Y0082174D01*
X0036737Y0082459D01*
X0036761Y0082743D01*
X0036792Y0083027D01*
X0036830Y0083310D01*
X0036875Y0083591D01*
X0036926Y0083872D01*
X0036984Y0084152D01*
X0037049Y0084430D01*
X0037121Y0084706D01*
X0037199Y0084980D01*
X0037284Y0085253D01*
X0037376Y0085523D01*
X0037474Y0085791D01*
X0037578Y0086057D01*
X0037689Y0086320D01*
X0037806Y0086580D01*
X0037929Y0086838D01*
X0038059Y0087092D01*
X0038195Y0087343D01*
X0038336Y0087591D01*
X0038484Y0087835D01*
X0038637Y0088076D01*
X0038797Y0088312D01*
X0038962Y0088545D01*
X0039132Y0088774D01*
X0039308Y0088999D01*
X0039490Y0089219D01*
X0039676Y0089435D01*
X0039868Y0089646D01*
X0040065Y0089853D01*
X0040267Y0090055D01*
X0040474Y0090252D01*
X0040685Y0090444D01*
X0040901Y0090630D01*
X0041121Y0090812D01*
X0041346Y0090988D01*
X0041575Y0091158D01*
X0041808Y0091323D01*
X0042044Y0091483D01*
X0042285Y0091636D01*
X0042529Y0091784D01*
X0042777Y0091925D01*
X0043028Y0092061D01*
X0043282Y0092191D01*
X0043540Y0092314D01*
X0043800Y0092431D01*
X0044063Y0092542D01*
X0044329Y0092646D01*
X0044597Y0092744D01*
X0044867Y0092836D01*
X0045140Y0092921D01*
X0045414Y0092999D01*
X0045690Y0093071D01*
X0045968Y0093136D01*
X0046248Y0093194D01*
X0046529Y0093245D01*
X0046810Y0093290D01*
X0047093Y0093328D01*
X0047377Y0093359D01*
X0047661Y0093383D01*
X0047946Y0093400D01*
X0048232Y0093411D01*
X0048517Y0093414D01*
X0205997Y0093414D01*
X0202060Y0083572D02*
X0202062Y0083725D01*
X0202068Y0083879D01*
X0202078Y0084032D01*
X0202092Y0084184D01*
X0202110Y0084337D01*
X0202132Y0084488D01*
X0202157Y0084639D01*
X0202187Y0084790D01*
X0202221Y0084940D01*
X0202258Y0085088D01*
X0202299Y0085236D01*
X0202344Y0085382D01*
X0202393Y0085528D01*
X0202446Y0085672D01*
X0202502Y0085814D01*
X0202562Y0085955D01*
X0202626Y0086095D01*
X0202693Y0086233D01*
X0202764Y0086369D01*
X0202839Y0086503D01*
X0202916Y0086635D01*
X0202998Y0086765D01*
X0203082Y0086893D01*
X0203170Y0087019D01*
X0203261Y0087142D01*
X0203355Y0087263D01*
X0203453Y0087381D01*
X0203553Y0087497D01*
X0203657Y0087610D01*
X0203763Y0087721D01*
X0203872Y0087829D01*
X0203984Y0087934D01*
X0204098Y0088035D01*
X0204216Y0088134D01*
X0204335Y0088230D01*
X0204457Y0088323D01*
X0204582Y0088412D01*
X0204709Y0088499D01*
X0204838Y0088581D01*
X0204969Y0088661D01*
X0205102Y0088737D01*
X0205237Y0088810D01*
X0205374Y0088879D01*
X0205513Y0088944D01*
X0205653Y0089006D01*
X0205795Y0089064D01*
X0205938Y0089119D01*
X0206083Y0089170D01*
X0206229Y0089217D01*
X0206376Y0089260D01*
X0206524Y0089299D01*
X0206673Y0089335D01*
X0206823Y0089366D01*
X0206974Y0089394D01*
X0207125Y0089418D01*
X0207278Y0089438D01*
X0207430Y0089454D01*
X0207583Y0089466D01*
X0207736Y0089474D01*
X0207889Y0089478D01*
X0208043Y0089478D01*
X0208196Y0089474D01*
X0208349Y0089466D01*
X0208502Y0089454D01*
X0208654Y0089438D01*
X0208807Y0089418D01*
X0208958Y0089394D01*
X0209109Y0089366D01*
X0209259Y0089335D01*
X0209408Y0089299D01*
X0209556Y0089260D01*
X0209703Y0089217D01*
X0209849Y0089170D01*
X0209994Y0089119D01*
X0210137Y0089064D01*
X0210279Y0089006D01*
X0210419Y0088944D01*
X0210558Y0088879D01*
X0210695Y0088810D01*
X0210830Y0088737D01*
X0210963Y0088661D01*
X0211094Y0088581D01*
X0211223Y0088499D01*
X0211350Y0088412D01*
X0211475Y0088323D01*
X0211597Y0088230D01*
X0211716Y0088134D01*
X0211834Y0088035D01*
X0211948Y0087934D01*
X0212060Y0087829D01*
X0212169Y0087721D01*
X0212275Y0087610D01*
X0212379Y0087497D01*
X0212479Y0087381D01*
X0212577Y0087263D01*
X0212671Y0087142D01*
X0212762Y0087019D01*
X0212850Y0086893D01*
X0212934Y0086765D01*
X0213016Y0086635D01*
X0213093Y0086503D01*
X0213168Y0086369D01*
X0213239Y0086233D01*
X0213306Y0086095D01*
X0213370Y0085955D01*
X0213430Y0085814D01*
X0213486Y0085672D01*
X0213539Y0085528D01*
X0213588Y0085382D01*
X0213633Y0085236D01*
X0213674Y0085088D01*
X0213711Y0084940D01*
X0213745Y0084790D01*
X0213775Y0084639D01*
X0213800Y0084488D01*
X0213822Y0084337D01*
X0213840Y0084184D01*
X0213854Y0084032D01*
X0213864Y0083879D01*
X0213870Y0083725D01*
X0213872Y0083572D01*
X0213870Y0083419D01*
X0213864Y0083265D01*
X0213854Y0083112D01*
X0213840Y0082960D01*
X0213822Y0082807D01*
X0213800Y0082656D01*
X0213775Y0082505D01*
X0213745Y0082354D01*
X0213711Y0082204D01*
X0213674Y0082056D01*
X0213633Y0081908D01*
X0213588Y0081762D01*
X0213539Y0081616D01*
X0213486Y0081472D01*
X0213430Y0081330D01*
X0213370Y0081189D01*
X0213306Y0081049D01*
X0213239Y0080911D01*
X0213168Y0080775D01*
X0213093Y0080641D01*
X0213016Y0080509D01*
X0212934Y0080379D01*
X0212850Y0080251D01*
X0212762Y0080125D01*
X0212671Y0080002D01*
X0212577Y0079881D01*
X0212479Y0079763D01*
X0212379Y0079647D01*
X0212275Y0079534D01*
X0212169Y0079423D01*
X0212060Y0079315D01*
X0211948Y0079210D01*
X0211834Y0079109D01*
X0211716Y0079010D01*
X0211597Y0078914D01*
X0211475Y0078821D01*
X0211350Y0078732D01*
X0211223Y0078645D01*
X0211094Y0078563D01*
X0210963Y0078483D01*
X0210830Y0078407D01*
X0210695Y0078334D01*
X0210558Y0078265D01*
X0210419Y0078200D01*
X0210279Y0078138D01*
X0210137Y0078080D01*
X0209994Y0078025D01*
X0209849Y0077974D01*
X0209703Y0077927D01*
X0209556Y0077884D01*
X0209408Y0077845D01*
X0209259Y0077809D01*
X0209109Y0077778D01*
X0208958Y0077750D01*
X0208807Y0077726D01*
X0208654Y0077706D01*
X0208502Y0077690D01*
X0208349Y0077678D01*
X0208196Y0077670D01*
X0208043Y0077666D01*
X0207889Y0077666D01*
X0207736Y0077670D01*
X0207583Y0077678D01*
X0207430Y0077690D01*
X0207278Y0077706D01*
X0207125Y0077726D01*
X0206974Y0077750D01*
X0206823Y0077778D01*
X0206673Y0077809D01*
X0206524Y0077845D01*
X0206376Y0077884D01*
X0206229Y0077927D01*
X0206083Y0077974D01*
X0205938Y0078025D01*
X0205795Y0078080D01*
X0205653Y0078138D01*
X0205513Y0078200D01*
X0205374Y0078265D01*
X0205237Y0078334D01*
X0205102Y0078407D01*
X0204969Y0078483D01*
X0204838Y0078563D01*
X0204709Y0078645D01*
X0204582Y0078732D01*
X0204457Y0078821D01*
X0204335Y0078914D01*
X0204216Y0079010D01*
X0204098Y0079109D01*
X0203984Y0079210D01*
X0203872Y0079315D01*
X0203763Y0079423D01*
X0203657Y0079534D01*
X0203553Y0079647D01*
X0203453Y0079763D01*
X0203355Y0079881D01*
X0203261Y0080002D01*
X0203170Y0080125D01*
X0203082Y0080251D01*
X0202998Y0080379D01*
X0202916Y0080509D01*
X0202839Y0080641D01*
X0202764Y0080775D01*
X0202693Y0080911D01*
X0202626Y0081049D01*
X0202562Y0081189D01*
X0202502Y0081330D01*
X0202446Y0081472D01*
X0202393Y0081616D01*
X0202344Y0081762D01*
X0202299Y0081908D01*
X0202258Y0082056D01*
X0202221Y0082204D01*
X0202187Y0082354D01*
X0202157Y0082505D01*
X0202132Y0082656D01*
X0202110Y0082807D01*
X0202092Y0082960D01*
X0202078Y0083112D01*
X0202068Y0083265D01*
X0202062Y0083419D01*
X0202060Y0083572D01*
X0205997Y0093414D02*
X0206282Y0093411D01*
X0206568Y0093400D01*
X0206853Y0093383D01*
X0207137Y0093359D01*
X0207421Y0093328D01*
X0207704Y0093290D01*
X0207985Y0093245D01*
X0208266Y0093194D01*
X0208546Y0093136D01*
X0208824Y0093071D01*
X0209100Y0092999D01*
X0209374Y0092921D01*
X0209647Y0092836D01*
X0209917Y0092744D01*
X0210185Y0092646D01*
X0210451Y0092542D01*
X0210714Y0092431D01*
X0210974Y0092314D01*
X0211232Y0092191D01*
X0211486Y0092061D01*
X0211737Y0091925D01*
X0211985Y0091784D01*
X0212229Y0091636D01*
X0212470Y0091483D01*
X0212706Y0091323D01*
X0212939Y0091158D01*
X0213168Y0090988D01*
X0213393Y0090812D01*
X0213613Y0090630D01*
X0213829Y0090444D01*
X0214040Y0090252D01*
X0214247Y0090055D01*
X0214449Y0089853D01*
X0214646Y0089646D01*
X0214838Y0089435D01*
X0215024Y0089219D01*
X0215206Y0088999D01*
X0215382Y0088774D01*
X0215552Y0088545D01*
X0215717Y0088312D01*
X0215877Y0088076D01*
X0216030Y0087835D01*
X0216178Y0087591D01*
X0216319Y0087343D01*
X0216455Y0087092D01*
X0216585Y0086838D01*
X0216708Y0086580D01*
X0216825Y0086320D01*
X0216936Y0086057D01*
X0217040Y0085791D01*
X0217138Y0085523D01*
X0217230Y0085253D01*
X0217315Y0084980D01*
X0217393Y0084706D01*
X0217465Y0084430D01*
X0217530Y0084152D01*
X0217588Y0083872D01*
X0217639Y0083591D01*
X0217684Y0083310D01*
X0217722Y0083027D01*
X0217753Y0082743D01*
X0217777Y0082459D01*
X0217794Y0082174D01*
X0217805Y0081888D01*
X0217808Y0081603D01*
X0217808Y0018611D01*
X0202060Y0016643D02*
X0202062Y0016796D01*
X0202068Y0016950D01*
X0202078Y0017103D01*
X0202092Y0017255D01*
X0202110Y0017408D01*
X0202132Y0017559D01*
X0202157Y0017710D01*
X0202187Y0017861D01*
X0202221Y0018011D01*
X0202258Y0018159D01*
X0202299Y0018307D01*
X0202344Y0018453D01*
X0202393Y0018599D01*
X0202446Y0018743D01*
X0202502Y0018885D01*
X0202562Y0019026D01*
X0202626Y0019166D01*
X0202693Y0019304D01*
X0202764Y0019440D01*
X0202839Y0019574D01*
X0202916Y0019706D01*
X0202998Y0019836D01*
X0203082Y0019964D01*
X0203170Y0020090D01*
X0203261Y0020213D01*
X0203355Y0020334D01*
X0203453Y0020452D01*
X0203553Y0020568D01*
X0203657Y0020681D01*
X0203763Y0020792D01*
X0203872Y0020900D01*
X0203984Y0021005D01*
X0204098Y0021106D01*
X0204216Y0021205D01*
X0204335Y0021301D01*
X0204457Y0021394D01*
X0204582Y0021483D01*
X0204709Y0021570D01*
X0204838Y0021652D01*
X0204969Y0021732D01*
X0205102Y0021808D01*
X0205237Y0021881D01*
X0205374Y0021950D01*
X0205513Y0022015D01*
X0205653Y0022077D01*
X0205795Y0022135D01*
X0205938Y0022190D01*
X0206083Y0022241D01*
X0206229Y0022288D01*
X0206376Y0022331D01*
X0206524Y0022370D01*
X0206673Y0022406D01*
X0206823Y0022437D01*
X0206974Y0022465D01*
X0207125Y0022489D01*
X0207278Y0022509D01*
X0207430Y0022525D01*
X0207583Y0022537D01*
X0207736Y0022545D01*
X0207889Y0022549D01*
X0208043Y0022549D01*
X0208196Y0022545D01*
X0208349Y0022537D01*
X0208502Y0022525D01*
X0208654Y0022509D01*
X0208807Y0022489D01*
X0208958Y0022465D01*
X0209109Y0022437D01*
X0209259Y0022406D01*
X0209408Y0022370D01*
X0209556Y0022331D01*
X0209703Y0022288D01*
X0209849Y0022241D01*
X0209994Y0022190D01*
X0210137Y0022135D01*
X0210279Y0022077D01*
X0210419Y0022015D01*
X0210558Y0021950D01*
X0210695Y0021881D01*
X0210830Y0021808D01*
X0210963Y0021732D01*
X0211094Y0021652D01*
X0211223Y0021570D01*
X0211350Y0021483D01*
X0211475Y0021394D01*
X0211597Y0021301D01*
X0211716Y0021205D01*
X0211834Y0021106D01*
X0211948Y0021005D01*
X0212060Y0020900D01*
X0212169Y0020792D01*
X0212275Y0020681D01*
X0212379Y0020568D01*
X0212479Y0020452D01*
X0212577Y0020334D01*
X0212671Y0020213D01*
X0212762Y0020090D01*
X0212850Y0019964D01*
X0212934Y0019836D01*
X0213016Y0019706D01*
X0213093Y0019574D01*
X0213168Y0019440D01*
X0213239Y0019304D01*
X0213306Y0019166D01*
X0213370Y0019026D01*
X0213430Y0018885D01*
X0213486Y0018743D01*
X0213539Y0018599D01*
X0213588Y0018453D01*
X0213633Y0018307D01*
X0213674Y0018159D01*
X0213711Y0018011D01*
X0213745Y0017861D01*
X0213775Y0017710D01*
X0213800Y0017559D01*
X0213822Y0017408D01*
X0213840Y0017255D01*
X0213854Y0017103D01*
X0213864Y0016950D01*
X0213870Y0016796D01*
X0213872Y0016643D01*
X0213870Y0016490D01*
X0213864Y0016336D01*
X0213854Y0016183D01*
X0213840Y0016031D01*
X0213822Y0015878D01*
X0213800Y0015727D01*
X0213775Y0015576D01*
X0213745Y0015425D01*
X0213711Y0015275D01*
X0213674Y0015127D01*
X0213633Y0014979D01*
X0213588Y0014833D01*
X0213539Y0014687D01*
X0213486Y0014543D01*
X0213430Y0014401D01*
X0213370Y0014260D01*
X0213306Y0014120D01*
X0213239Y0013982D01*
X0213168Y0013846D01*
X0213093Y0013712D01*
X0213016Y0013580D01*
X0212934Y0013450D01*
X0212850Y0013322D01*
X0212762Y0013196D01*
X0212671Y0013073D01*
X0212577Y0012952D01*
X0212479Y0012834D01*
X0212379Y0012718D01*
X0212275Y0012605D01*
X0212169Y0012494D01*
X0212060Y0012386D01*
X0211948Y0012281D01*
X0211834Y0012180D01*
X0211716Y0012081D01*
X0211597Y0011985D01*
X0211475Y0011892D01*
X0211350Y0011803D01*
X0211223Y0011716D01*
X0211094Y0011634D01*
X0210963Y0011554D01*
X0210830Y0011478D01*
X0210695Y0011405D01*
X0210558Y0011336D01*
X0210419Y0011271D01*
X0210279Y0011209D01*
X0210137Y0011151D01*
X0209994Y0011096D01*
X0209849Y0011045D01*
X0209703Y0010998D01*
X0209556Y0010955D01*
X0209408Y0010916D01*
X0209259Y0010880D01*
X0209109Y0010849D01*
X0208958Y0010821D01*
X0208807Y0010797D01*
X0208654Y0010777D01*
X0208502Y0010761D01*
X0208349Y0010749D01*
X0208196Y0010741D01*
X0208043Y0010737D01*
X0207889Y0010737D01*
X0207736Y0010741D01*
X0207583Y0010749D01*
X0207430Y0010761D01*
X0207278Y0010777D01*
X0207125Y0010797D01*
X0206974Y0010821D01*
X0206823Y0010849D01*
X0206673Y0010880D01*
X0206524Y0010916D01*
X0206376Y0010955D01*
X0206229Y0010998D01*
X0206083Y0011045D01*
X0205938Y0011096D01*
X0205795Y0011151D01*
X0205653Y0011209D01*
X0205513Y0011271D01*
X0205374Y0011336D01*
X0205237Y0011405D01*
X0205102Y0011478D01*
X0204969Y0011554D01*
X0204838Y0011634D01*
X0204709Y0011716D01*
X0204582Y0011803D01*
X0204457Y0011892D01*
X0204335Y0011985D01*
X0204216Y0012081D01*
X0204098Y0012180D01*
X0203984Y0012281D01*
X0203872Y0012386D01*
X0203763Y0012494D01*
X0203657Y0012605D01*
X0203553Y0012718D01*
X0203453Y0012834D01*
X0203355Y0012952D01*
X0203261Y0013073D01*
X0203170Y0013196D01*
X0203082Y0013322D01*
X0202998Y0013450D01*
X0202916Y0013580D01*
X0202839Y0013712D01*
X0202764Y0013846D01*
X0202693Y0013982D01*
X0202626Y0014120D01*
X0202562Y0014260D01*
X0202502Y0014401D01*
X0202446Y0014543D01*
X0202393Y0014687D01*
X0202344Y0014833D01*
X0202299Y0014979D01*
X0202258Y0015127D01*
X0202221Y0015275D01*
X0202187Y0015425D01*
X0202157Y0015576D01*
X0202132Y0015727D01*
X0202110Y0015878D01*
X0202092Y0016031D01*
X0202078Y0016183D01*
X0202068Y0016336D01*
X0202062Y0016490D01*
X0202060Y0016643D01*
X0205997Y0006800D02*
X0206282Y0006803D01*
X0206568Y0006814D01*
X0206853Y0006831D01*
X0207137Y0006855D01*
X0207421Y0006886D01*
X0207704Y0006924D01*
X0207985Y0006969D01*
X0208266Y0007020D01*
X0208546Y0007078D01*
X0208824Y0007143D01*
X0209100Y0007215D01*
X0209374Y0007293D01*
X0209647Y0007378D01*
X0209917Y0007470D01*
X0210185Y0007568D01*
X0210451Y0007672D01*
X0210714Y0007783D01*
X0210974Y0007900D01*
X0211232Y0008023D01*
X0211486Y0008153D01*
X0211737Y0008289D01*
X0211985Y0008430D01*
X0212229Y0008578D01*
X0212470Y0008731D01*
X0212706Y0008891D01*
X0212939Y0009056D01*
X0213168Y0009226D01*
X0213393Y0009402D01*
X0213613Y0009584D01*
X0213829Y0009770D01*
X0214040Y0009962D01*
X0214247Y0010159D01*
X0214449Y0010361D01*
X0214646Y0010568D01*
X0214838Y0010779D01*
X0215024Y0010995D01*
X0215206Y0011215D01*
X0215382Y0011440D01*
X0215552Y0011669D01*
X0215717Y0011902D01*
X0215877Y0012138D01*
X0216030Y0012379D01*
X0216178Y0012623D01*
X0216319Y0012871D01*
X0216455Y0013122D01*
X0216585Y0013376D01*
X0216708Y0013634D01*
X0216825Y0013894D01*
X0216936Y0014157D01*
X0217040Y0014423D01*
X0217138Y0014691D01*
X0217230Y0014961D01*
X0217315Y0015234D01*
X0217393Y0015508D01*
X0217465Y0015784D01*
X0217530Y0016062D01*
X0217588Y0016342D01*
X0217639Y0016623D01*
X0217684Y0016904D01*
X0217722Y0017187D01*
X0217753Y0017471D01*
X0217777Y0017755D01*
X0217794Y0018040D01*
X0217805Y0018326D01*
X0217808Y0018611D01*
X0205997Y0006800D02*
X0048517Y0006800D01*
X0040643Y0016643D02*
X0040645Y0016796D01*
X0040651Y0016950D01*
X0040661Y0017103D01*
X0040675Y0017255D01*
X0040693Y0017408D01*
X0040715Y0017559D01*
X0040740Y0017710D01*
X0040770Y0017861D01*
X0040804Y0018011D01*
X0040841Y0018159D01*
X0040882Y0018307D01*
X0040927Y0018453D01*
X0040976Y0018599D01*
X0041029Y0018743D01*
X0041085Y0018885D01*
X0041145Y0019026D01*
X0041209Y0019166D01*
X0041276Y0019304D01*
X0041347Y0019440D01*
X0041422Y0019574D01*
X0041499Y0019706D01*
X0041581Y0019836D01*
X0041665Y0019964D01*
X0041753Y0020090D01*
X0041844Y0020213D01*
X0041938Y0020334D01*
X0042036Y0020452D01*
X0042136Y0020568D01*
X0042240Y0020681D01*
X0042346Y0020792D01*
X0042455Y0020900D01*
X0042567Y0021005D01*
X0042681Y0021106D01*
X0042799Y0021205D01*
X0042918Y0021301D01*
X0043040Y0021394D01*
X0043165Y0021483D01*
X0043292Y0021570D01*
X0043421Y0021652D01*
X0043552Y0021732D01*
X0043685Y0021808D01*
X0043820Y0021881D01*
X0043957Y0021950D01*
X0044096Y0022015D01*
X0044236Y0022077D01*
X0044378Y0022135D01*
X0044521Y0022190D01*
X0044666Y0022241D01*
X0044812Y0022288D01*
X0044959Y0022331D01*
X0045107Y0022370D01*
X0045256Y0022406D01*
X0045406Y0022437D01*
X0045557Y0022465D01*
X0045708Y0022489D01*
X0045861Y0022509D01*
X0046013Y0022525D01*
X0046166Y0022537D01*
X0046319Y0022545D01*
X0046472Y0022549D01*
X0046626Y0022549D01*
X0046779Y0022545D01*
X0046932Y0022537D01*
X0047085Y0022525D01*
X0047237Y0022509D01*
X0047390Y0022489D01*
X0047541Y0022465D01*
X0047692Y0022437D01*
X0047842Y0022406D01*
X0047991Y0022370D01*
X0048139Y0022331D01*
X0048286Y0022288D01*
X0048432Y0022241D01*
X0048577Y0022190D01*
X0048720Y0022135D01*
X0048862Y0022077D01*
X0049002Y0022015D01*
X0049141Y0021950D01*
X0049278Y0021881D01*
X0049413Y0021808D01*
X0049546Y0021732D01*
X0049677Y0021652D01*
X0049806Y0021570D01*
X0049933Y0021483D01*
X0050058Y0021394D01*
X0050180Y0021301D01*
X0050299Y0021205D01*
X0050417Y0021106D01*
X0050531Y0021005D01*
X0050643Y0020900D01*
X0050752Y0020792D01*
X0050858Y0020681D01*
X0050962Y0020568D01*
X0051062Y0020452D01*
X0051160Y0020334D01*
X0051254Y0020213D01*
X0051345Y0020090D01*
X0051433Y0019964D01*
X0051517Y0019836D01*
X0051599Y0019706D01*
X0051676Y0019574D01*
X0051751Y0019440D01*
X0051822Y0019304D01*
X0051889Y0019166D01*
X0051953Y0019026D01*
X0052013Y0018885D01*
X0052069Y0018743D01*
X0052122Y0018599D01*
X0052171Y0018453D01*
X0052216Y0018307D01*
X0052257Y0018159D01*
X0052294Y0018011D01*
X0052328Y0017861D01*
X0052358Y0017710D01*
X0052383Y0017559D01*
X0052405Y0017408D01*
X0052423Y0017255D01*
X0052437Y0017103D01*
X0052447Y0016950D01*
X0052453Y0016796D01*
X0052455Y0016643D01*
X0052453Y0016490D01*
X0052447Y0016336D01*
X0052437Y0016183D01*
X0052423Y0016031D01*
X0052405Y0015878D01*
X0052383Y0015727D01*
X0052358Y0015576D01*
X0052328Y0015425D01*
X0052294Y0015275D01*
X0052257Y0015127D01*
X0052216Y0014979D01*
X0052171Y0014833D01*
X0052122Y0014687D01*
X0052069Y0014543D01*
X0052013Y0014401D01*
X0051953Y0014260D01*
X0051889Y0014120D01*
X0051822Y0013982D01*
X0051751Y0013846D01*
X0051676Y0013712D01*
X0051599Y0013580D01*
X0051517Y0013450D01*
X0051433Y0013322D01*
X0051345Y0013196D01*
X0051254Y0013073D01*
X0051160Y0012952D01*
X0051062Y0012834D01*
X0050962Y0012718D01*
X0050858Y0012605D01*
X0050752Y0012494D01*
X0050643Y0012386D01*
X0050531Y0012281D01*
X0050417Y0012180D01*
X0050299Y0012081D01*
X0050180Y0011985D01*
X0050058Y0011892D01*
X0049933Y0011803D01*
X0049806Y0011716D01*
X0049677Y0011634D01*
X0049546Y0011554D01*
X0049413Y0011478D01*
X0049278Y0011405D01*
X0049141Y0011336D01*
X0049002Y0011271D01*
X0048862Y0011209D01*
X0048720Y0011151D01*
X0048577Y0011096D01*
X0048432Y0011045D01*
X0048286Y0010998D01*
X0048139Y0010955D01*
X0047991Y0010916D01*
X0047842Y0010880D01*
X0047692Y0010849D01*
X0047541Y0010821D01*
X0047390Y0010797D01*
X0047237Y0010777D01*
X0047085Y0010761D01*
X0046932Y0010749D01*
X0046779Y0010741D01*
X0046626Y0010737D01*
X0046472Y0010737D01*
X0046319Y0010741D01*
X0046166Y0010749D01*
X0046013Y0010761D01*
X0045861Y0010777D01*
X0045708Y0010797D01*
X0045557Y0010821D01*
X0045406Y0010849D01*
X0045256Y0010880D01*
X0045107Y0010916D01*
X0044959Y0010955D01*
X0044812Y0010998D01*
X0044666Y0011045D01*
X0044521Y0011096D01*
X0044378Y0011151D01*
X0044236Y0011209D01*
X0044096Y0011271D01*
X0043957Y0011336D01*
X0043820Y0011405D01*
X0043685Y0011478D01*
X0043552Y0011554D01*
X0043421Y0011634D01*
X0043292Y0011716D01*
X0043165Y0011803D01*
X0043040Y0011892D01*
X0042918Y0011985D01*
X0042799Y0012081D01*
X0042681Y0012180D01*
X0042567Y0012281D01*
X0042455Y0012386D01*
X0042346Y0012494D01*
X0042240Y0012605D01*
X0042136Y0012718D01*
X0042036Y0012834D01*
X0041938Y0012952D01*
X0041844Y0013073D01*
X0041753Y0013196D01*
X0041665Y0013322D01*
X0041581Y0013450D01*
X0041499Y0013580D01*
X0041422Y0013712D01*
X0041347Y0013846D01*
X0041276Y0013982D01*
X0041209Y0014120D01*
X0041145Y0014260D01*
X0041085Y0014401D01*
X0041029Y0014543D01*
X0040976Y0014687D01*
X0040927Y0014833D01*
X0040882Y0014979D01*
X0040841Y0015127D01*
X0040804Y0015275D01*
X0040770Y0015425D01*
X0040740Y0015576D01*
X0040715Y0015727D01*
X0040693Y0015878D01*
X0040675Y0016031D01*
X0040661Y0016183D01*
X0040651Y0016336D01*
X0040645Y0016490D01*
X0040643Y0016643D01*
X0036706Y0018611D02*
X0036709Y0018326D01*
X0036720Y0018040D01*
X0036737Y0017755D01*
X0036761Y0017471D01*
X0036792Y0017187D01*
X0036830Y0016904D01*
X0036875Y0016623D01*
X0036926Y0016342D01*
X0036984Y0016062D01*
X0037049Y0015784D01*
X0037121Y0015508D01*
X0037199Y0015234D01*
X0037284Y0014961D01*
X0037376Y0014691D01*
X0037474Y0014423D01*
X0037578Y0014157D01*
X0037689Y0013894D01*
X0037806Y0013634D01*
X0037929Y0013376D01*
X0038059Y0013122D01*
X0038195Y0012871D01*
X0038336Y0012623D01*
X0038484Y0012379D01*
X0038637Y0012138D01*
X0038797Y0011902D01*
X0038962Y0011669D01*
X0039132Y0011440D01*
X0039308Y0011215D01*
X0039490Y0010995D01*
X0039676Y0010779D01*
X0039868Y0010568D01*
X0040065Y0010361D01*
X0040267Y0010159D01*
X0040474Y0009962D01*
X0040685Y0009770D01*
X0040901Y0009584D01*
X0041121Y0009402D01*
X0041346Y0009226D01*
X0041575Y0009056D01*
X0041808Y0008891D01*
X0042044Y0008731D01*
X0042285Y0008578D01*
X0042529Y0008430D01*
X0042777Y0008289D01*
X0043028Y0008153D01*
X0043282Y0008023D01*
X0043540Y0007900D01*
X0043800Y0007783D01*
X0044063Y0007672D01*
X0044329Y0007568D01*
X0044597Y0007470D01*
X0044867Y0007378D01*
X0045140Y0007293D01*
X0045414Y0007215D01*
X0045690Y0007143D01*
X0045968Y0007078D01*
X0046248Y0007020D01*
X0046529Y0006969D01*
X0046810Y0006924D01*
X0047093Y0006886D01*
X0047377Y0006855D01*
X0047661Y0006831D01*
X0047946Y0006814D01*
X0048232Y0006803D01*
X0048517Y0006800D01*
M02*
