G75*
%MOIN*%
%OFA0B0*%
%FSLAX25Y25*%
%IPPOS*%
%LPD*%
%AMOC8*
5,1,8,0,0,1.08239X$1,22.5*
%
%ADD10C,0.00000*%
%ADD11C,0.01700*%
%ADD12C,0.00400*%
%ADD13C,0.01600*%
%ADD14C,0.01000*%
%ADD15C,0.00600*%
%ADD16C,0.03200*%
%ADD17C,0.00800*%
D10*
X0036706Y0018611D02*
X0036706Y0081603D01*
X0040643Y0083572D02*
X0040645Y0083725D01*
X0040651Y0083879D01*
X0040661Y0084032D01*
X0040675Y0084184D01*
X0040693Y0084337D01*
X0040715Y0084488D01*
X0040740Y0084639D01*
X0040770Y0084790D01*
X0040804Y0084940D01*
X0040841Y0085088D01*
X0040882Y0085236D01*
X0040927Y0085382D01*
X0040976Y0085528D01*
X0041029Y0085672D01*
X0041085Y0085814D01*
X0041145Y0085955D01*
X0041209Y0086095D01*
X0041276Y0086233D01*
X0041347Y0086369D01*
X0041422Y0086503D01*
X0041499Y0086635D01*
X0041581Y0086765D01*
X0041665Y0086893D01*
X0041753Y0087019D01*
X0041844Y0087142D01*
X0041938Y0087263D01*
X0042036Y0087381D01*
X0042136Y0087497D01*
X0042240Y0087610D01*
X0042346Y0087721D01*
X0042455Y0087829D01*
X0042567Y0087934D01*
X0042681Y0088035D01*
X0042799Y0088134D01*
X0042918Y0088230D01*
X0043040Y0088323D01*
X0043165Y0088412D01*
X0043292Y0088499D01*
X0043421Y0088581D01*
X0043552Y0088661D01*
X0043685Y0088737D01*
X0043820Y0088810D01*
X0043957Y0088879D01*
X0044096Y0088944D01*
X0044236Y0089006D01*
X0044378Y0089064D01*
X0044521Y0089119D01*
X0044666Y0089170D01*
X0044812Y0089217D01*
X0044959Y0089260D01*
X0045107Y0089299D01*
X0045256Y0089335D01*
X0045406Y0089366D01*
X0045557Y0089394D01*
X0045708Y0089418D01*
X0045861Y0089438D01*
X0046013Y0089454D01*
X0046166Y0089466D01*
X0046319Y0089474D01*
X0046472Y0089478D01*
X0046626Y0089478D01*
X0046779Y0089474D01*
X0046932Y0089466D01*
X0047085Y0089454D01*
X0047237Y0089438D01*
X0047390Y0089418D01*
X0047541Y0089394D01*
X0047692Y0089366D01*
X0047842Y0089335D01*
X0047991Y0089299D01*
X0048139Y0089260D01*
X0048286Y0089217D01*
X0048432Y0089170D01*
X0048577Y0089119D01*
X0048720Y0089064D01*
X0048862Y0089006D01*
X0049002Y0088944D01*
X0049141Y0088879D01*
X0049278Y0088810D01*
X0049413Y0088737D01*
X0049546Y0088661D01*
X0049677Y0088581D01*
X0049806Y0088499D01*
X0049933Y0088412D01*
X0050058Y0088323D01*
X0050180Y0088230D01*
X0050299Y0088134D01*
X0050417Y0088035D01*
X0050531Y0087934D01*
X0050643Y0087829D01*
X0050752Y0087721D01*
X0050858Y0087610D01*
X0050962Y0087497D01*
X0051062Y0087381D01*
X0051160Y0087263D01*
X0051254Y0087142D01*
X0051345Y0087019D01*
X0051433Y0086893D01*
X0051517Y0086765D01*
X0051599Y0086635D01*
X0051676Y0086503D01*
X0051751Y0086369D01*
X0051822Y0086233D01*
X0051889Y0086095D01*
X0051953Y0085955D01*
X0052013Y0085814D01*
X0052069Y0085672D01*
X0052122Y0085528D01*
X0052171Y0085382D01*
X0052216Y0085236D01*
X0052257Y0085088D01*
X0052294Y0084940D01*
X0052328Y0084790D01*
X0052358Y0084639D01*
X0052383Y0084488D01*
X0052405Y0084337D01*
X0052423Y0084184D01*
X0052437Y0084032D01*
X0052447Y0083879D01*
X0052453Y0083725D01*
X0052455Y0083572D01*
X0052453Y0083419D01*
X0052447Y0083265D01*
X0052437Y0083112D01*
X0052423Y0082960D01*
X0052405Y0082807D01*
X0052383Y0082656D01*
X0052358Y0082505D01*
X0052328Y0082354D01*
X0052294Y0082204D01*
X0052257Y0082056D01*
X0052216Y0081908D01*
X0052171Y0081762D01*
X0052122Y0081616D01*
X0052069Y0081472D01*
X0052013Y0081330D01*
X0051953Y0081189D01*
X0051889Y0081049D01*
X0051822Y0080911D01*
X0051751Y0080775D01*
X0051676Y0080641D01*
X0051599Y0080509D01*
X0051517Y0080379D01*
X0051433Y0080251D01*
X0051345Y0080125D01*
X0051254Y0080002D01*
X0051160Y0079881D01*
X0051062Y0079763D01*
X0050962Y0079647D01*
X0050858Y0079534D01*
X0050752Y0079423D01*
X0050643Y0079315D01*
X0050531Y0079210D01*
X0050417Y0079109D01*
X0050299Y0079010D01*
X0050180Y0078914D01*
X0050058Y0078821D01*
X0049933Y0078732D01*
X0049806Y0078645D01*
X0049677Y0078563D01*
X0049546Y0078483D01*
X0049413Y0078407D01*
X0049278Y0078334D01*
X0049141Y0078265D01*
X0049002Y0078200D01*
X0048862Y0078138D01*
X0048720Y0078080D01*
X0048577Y0078025D01*
X0048432Y0077974D01*
X0048286Y0077927D01*
X0048139Y0077884D01*
X0047991Y0077845D01*
X0047842Y0077809D01*
X0047692Y0077778D01*
X0047541Y0077750D01*
X0047390Y0077726D01*
X0047237Y0077706D01*
X0047085Y0077690D01*
X0046932Y0077678D01*
X0046779Y0077670D01*
X0046626Y0077666D01*
X0046472Y0077666D01*
X0046319Y0077670D01*
X0046166Y0077678D01*
X0046013Y0077690D01*
X0045861Y0077706D01*
X0045708Y0077726D01*
X0045557Y0077750D01*
X0045406Y0077778D01*
X0045256Y0077809D01*
X0045107Y0077845D01*
X0044959Y0077884D01*
X0044812Y0077927D01*
X0044666Y0077974D01*
X0044521Y0078025D01*
X0044378Y0078080D01*
X0044236Y0078138D01*
X0044096Y0078200D01*
X0043957Y0078265D01*
X0043820Y0078334D01*
X0043685Y0078407D01*
X0043552Y0078483D01*
X0043421Y0078563D01*
X0043292Y0078645D01*
X0043165Y0078732D01*
X0043040Y0078821D01*
X0042918Y0078914D01*
X0042799Y0079010D01*
X0042681Y0079109D01*
X0042567Y0079210D01*
X0042455Y0079315D01*
X0042346Y0079423D01*
X0042240Y0079534D01*
X0042136Y0079647D01*
X0042036Y0079763D01*
X0041938Y0079881D01*
X0041844Y0080002D01*
X0041753Y0080125D01*
X0041665Y0080251D01*
X0041581Y0080379D01*
X0041499Y0080509D01*
X0041422Y0080641D01*
X0041347Y0080775D01*
X0041276Y0080911D01*
X0041209Y0081049D01*
X0041145Y0081189D01*
X0041085Y0081330D01*
X0041029Y0081472D01*
X0040976Y0081616D01*
X0040927Y0081762D01*
X0040882Y0081908D01*
X0040841Y0082056D01*
X0040804Y0082204D01*
X0040770Y0082354D01*
X0040740Y0082505D01*
X0040715Y0082656D01*
X0040693Y0082807D01*
X0040675Y0082960D01*
X0040661Y0083112D01*
X0040651Y0083265D01*
X0040645Y0083419D01*
X0040643Y0083572D01*
X0036706Y0081603D02*
X0036709Y0081888D01*
X0036720Y0082174D01*
X0036737Y0082459D01*
X0036761Y0082743D01*
X0036792Y0083027D01*
X0036830Y0083310D01*
X0036875Y0083591D01*
X0036926Y0083872D01*
X0036984Y0084152D01*
X0037049Y0084430D01*
X0037121Y0084706D01*
X0037199Y0084980D01*
X0037284Y0085253D01*
X0037376Y0085523D01*
X0037474Y0085791D01*
X0037578Y0086057D01*
X0037689Y0086320D01*
X0037806Y0086580D01*
X0037929Y0086838D01*
X0038059Y0087092D01*
X0038195Y0087343D01*
X0038336Y0087591D01*
X0038484Y0087835D01*
X0038637Y0088076D01*
X0038797Y0088312D01*
X0038962Y0088545D01*
X0039132Y0088774D01*
X0039308Y0088999D01*
X0039490Y0089219D01*
X0039676Y0089435D01*
X0039868Y0089646D01*
X0040065Y0089853D01*
X0040267Y0090055D01*
X0040474Y0090252D01*
X0040685Y0090444D01*
X0040901Y0090630D01*
X0041121Y0090812D01*
X0041346Y0090988D01*
X0041575Y0091158D01*
X0041808Y0091323D01*
X0042044Y0091483D01*
X0042285Y0091636D01*
X0042529Y0091784D01*
X0042777Y0091925D01*
X0043028Y0092061D01*
X0043282Y0092191D01*
X0043540Y0092314D01*
X0043800Y0092431D01*
X0044063Y0092542D01*
X0044329Y0092646D01*
X0044597Y0092744D01*
X0044867Y0092836D01*
X0045140Y0092921D01*
X0045414Y0092999D01*
X0045690Y0093071D01*
X0045968Y0093136D01*
X0046248Y0093194D01*
X0046529Y0093245D01*
X0046810Y0093290D01*
X0047093Y0093328D01*
X0047377Y0093359D01*
X0047661Y0093383D01*
X0047946Y0093400D01*
X0048232Y0093411D01*
X0048517Y0093414D01*
X0205997Y0093414D01*
X0202060Y0083572D02*
X0202062Y0083725D01*
X0202068Y0083879D01*
X0202078Y0084032D01*
X0202092Y0084184D01*
X0202110Y0084337D01*
X0202132Y0084488D01*
X0202157Y0084639D01*
X0202187Y0084790D01*
X0202221Y0084940D01*
X0202258Y0085088D01*
X0202299Y0085236D01*
X0202344Y0085382D01*
X0202393Y0085528D01*
X0202446Y0085672D01*
X0202502Y0085814D01*
X0202562Y0085955D01*
X0202626Y0086095D01*
X0202693Y0086233D01*
X0202764Y0086369D01*
X0202839Y0086503D01*
X0202916Y0086635D01*
X0202998Y0086765D01*
X0203082Y0086893D01*
X0203170Y0087019D01*
X0203261Y0087142D01*
X0203355Y0087263D01*
X0203453Y0087381D01*
X0203553Y0087497D01*
X0203657Y0087610D01*
X0203763Y0087721D01*
X0203872Y0087829D01*
X0203984Y0087934D01*
X0204098Y0088035D01*
X0204216Y0088134D01*
X0204335Y0088230D01*
X0204457Y0088323D01*
X0204582Y0088412D01*
X0204709Y0088499D01*
X0204838Y0088581D01*
X0204969Y0088661D01*
X0205102Y0088737D01*
X0205237Y0088810D01*
X0205374Y0088879D01*
X0205513Y0088944D01*
X0205653Y0089006D01*
X0205795Y0089064D01*
X0205938Y0089119D01*
X0206083Y0089170D01*
X0206229Y0089217D01*
X0206376Y0089260D01*
X0206524Y0089299D01*
X0206673Y0089335D01*
X0206823Y0089366D01*
X0206974Y0089394D01*
X0207125Y0089418D01*
X0207278Y0089438D01*
X0207430Y0089454D01*
X0207583Y0089466D01*
X0207736Y0089474D01*
X0207889Y0089478D01*
X0208043Y0089478D01*
X0208196Y0089474D01*
X0208349Y0089466D01*
X0208502Y0089454D01*
X0208654Y0089438D01*
X0208807Y0089418D01*
X0208958Y0089394D01*
X0209109Y0089366D01*
X0209259Y0089335D01*
X0209408Y0089299D01*
X0209556Y0089260D01*
X0209703Y0089217D01*
X0209849Y0089170D01*
X0209994Y0089119D01*
X0210137Y0089064D01*
X0210279Y0089006D01*
X0210419Y0088944D01*
X0210558Y0088879D01*
X0210695Y0088810D01*
X0210830Y0088737D01*
X0210963Y0088661D01*
X0211094Y0088581D01*
X0211223Y0088499D01*
X0211350Y0088412D01*
X0211475Y0088323D01*
X0211597Y0088230D01*
X0211716Y0088134D01*
X0211834Y0088035D01*
X0211948Y0087934D01*
X0212060Y0087829D01*
X0212169Y0087721D01*
X0212275Y0087610D01*
X0212379Y0087497D01*
X0212479Y0087381D01*
X0212577Y0087263D01*
X0212671Y0087142D01*
X0212762Y0087019D01*
X0212850Y0086893D01*
X0212934Y0086765D01*
X0213016Y0086635D01*
X0213093Y0086503D01*
X0213168Y0086369D01*
X0213239Y0086233D01*
X0213306Y0086095D01*
X0213370Y0085955D01*
X0213430Y0085814D01*
X0213486Y0085672D01*
X0213539Y0085528D01*
X0213588Y0085382D01*
X0213633Y0085236D01*
X0213674Y0085088D01*
X0213711Y0084940D01*
X0213745Y0084790D01*
X0213775Y0084639D01*
X0213800Y0084488D01*
X0213822Y0084337D01*
X0213840Y0084184D01*
X0213854Y0084032D01*
X0213864Y0083879D01*
X0213870Y0083725D01*
X0213872Y0083572D01*
X0213870Y0083419D01*
X0213864Y0083265D01*
X0213854Y0083112D01*
X0213840Y0082960D01*
X0213822Y0082807D01*
X0213800Y0082656D01*
X0213775Y0082505D01*
X0213745Y0082354D01*
X0213711Y0082204D01*
X0213674Y0082056D01*
X0213633Y0081908D01*
X0213588Y0081762D01*
X0213539Y0081616D01*
X0213486Y0081472D01*
X0213430Y0081330D01*
X0213370Y0081189D01*
X0213306Y0081049D01*
X0213239Y0080911D01*
X0213168Y0080775D01*
X0213093Y0080641D01*
X0213016Y0080509D01*
X0212934Y0080379D01*
X0212850Y0080251D01*
X0212762Y0080125D01*
X0212671Y0080002D01*
X0212577Y0079881D01*
X0212479Y0079763D01*
X0212379Y0079647D01*
X0212275Y0079534D01*
X0212169Y0079423D01*
X0212060Y0079315D01*
X0211948Y0079210D01*
X0211834Y0079109D01*
X0211716Y0079010D01*
X0211597Y0078914D01*
X0211475Y0078821D01*
X0211350Y0078732D01*
X0211223Y0078645D01*
X0211094Y0078563D01*
X0210963Y0078483D01*
X0210830Y0078407D01*
X0210695Y0078334D01*
X0210558Y0078265D01*
X0210419Y0078200D01*
X0210279Y0078138D01*
X0210137Y0078080D01*
X0209994Y0078025D01*
X0209849Y0077974D01*
X0209703Y0077927D01*
X0209556Y0077884D01*
X0209408Y0077845D01*
X0209259Y0077809D01*
X0209109Y0077778D01*
X0208958Y0077750D01*
X0208807Y0077726D01*
X0208654Y0077706D01*
X0208502Y0077690D01*
X0208349Y0077678D01*
X0208196Y0077670D01*
X0208043Y0077666D01*
X0207889Y0077666D01*
X0207736Y0077670D01*
X0207583Y0077678D01*
X0207430Y0077690D01*
X0207278Y0077706D01*
X0207125Y0077726D01*
X0206974Y0077750D01*
X0206823Y0077778D01*
X0206673Y0077809D01*
X0206524Y0077845D01*
X0206376Y0077884D01*
X0206229Y0077927D01*
X0206083Y0077974D01*
X0205938Y0078025D01*
X0205795Y0078080D01*
X0205653Y0078138D01*
X0205513Y0078200D01*
X0205374Y0078265D01*
X0205237Y0078334D01*
X0205102Y0078407D01*
X0204969Y0078483D01*
X0204838Y0078563D01*
X0204709Y0078645D01*
X0204582Y0078732D01*
X0204457Y0078821D01*
X0204335Y0078914D01*
X0204216Y0079010D01*
X0204098Y0079109D01*
X0203984Y0079210D01*
X0203872Y0079315D01*
X0203763Y0079423D01*
X0203657Y0079534D01*
X0203553Y0079647D01*
X0203453Y0079763D01*
X0203355Y0079881D01*
X0203261Y0080002D01*
X0203170Y0080125D01*
X0203082Y0080251D01*
X0202998Y0080379D01*
X0202916Y0080509D01*
X0202839Y0080641D01*
X0202764Y0080775D01*
X0202693Y0080911D01*
X0202626Y0081049D01*
X0202562Y0081189D01*
X0202502Y0081330D01*
X0202446Y0081472D01*
X0202393Y0081616D01*
X0202344Y0081762D01*
X0202299Y0081908D01*
X0202258Y0082056D01*
X0202221Y0082204D01*
X0202187Y0082354D01*
X0202157Y0082505D01*
X0202132Y0082656D01*
X0202110Y0082807D01*
X0202092Y0082960D01*
X0202078Y0083112D01*
X0202068Y0083265D01*
X0202062Y0083419D01*
X0202060Y0083572D01*
X0205997Y0093414D02*
X0206282Y0093411D01*
X0206568Y0093400D01*
X0206853Y0093383D01*
X0207137Y0093359D01*
X0207421Y0093328D01*
X0207704Y0093290D01*
X0207985Y0093245D01*
X0208266Y0093194D01*
X0208546Y0093136D01*
X0208824Y0093071D01*
X0209100Y0092999D01*
X0209374Y0092921D01*
X0209647Y0092836D01*
X0209917Y0092744D01*
X0210185Y0092646D01*
X0210451Y0092542D01*
X0210714Y0092431D01*
X0210974Y0092314D01*
X0211232Y0092191D01*
X0211486Y0092061D01*
X0211737Y0091925D01*
X0211985Y0091784D01*
X0212229Y0091636D01*
X0212470Y0091483D01*
X0212706Y0091323D01*
X0212939Y0091158D01*
X0213168Y0090988D01*
X0213393Y0090812D01*
X0213613Y0090630D01*
X0213829Y0090444D01*
X0214040Y0090252D01*
X0214247Y0090055D01*
X0214449Y0089853D01*
X0214646Y0089646D01*
X0214838Y0089435D01*
X0215024Y0089219D01*
X0215206Y0088999D01*
X0215382Y0088774D01*
X0215552Y0088545D01*
X0215717Y0088312D01*
X0215877Y0088076D01*
X0216030Y0087835D01*
X0216178Y0087591D01*
X0216319Y0087343D01*
X0216455Y0087092D01*
X0216585Y0086838D01*
X0216708Y0086580D01*
X0216825Y0086320D01*
X0216936Y0086057D01*
X0217040Y0085791D01*
X0217138Y0085523D01*
X0217230Y0085253D01*
X0217315Y0084980D01*
X0217393Y0084706D01*
X0217465Y0084430D01*
X0217530Y0084152D01*
X0217588Y0083872D01*
X0217639Y0083591D01*
X0217684Y0083310D01*
X0217722Y0083027D01*
X0217753Y0082743D01*
X0217777Y0082459D01*
X0217794Y0082174D01*
X0217805Y0081888D01*
X0217808Y0081603D01*
X0217808Y0018611D01*
X0202060Y0016643D02*
X0202062Y0016796D01*
X0202068Y0016950D01*
X0202078Y0017103D01*
X0202092Y0017255D01*
X0202110Y0017408D01*
X0202132Y0017559D01*
X0202157Y0017710D01*
X0202187Y0017861D01*
X0202221Y0018011D01*
X0202258Y0018159D01*
X0202299Y0018307D01*
X0202344Y0018453D01*
X0202393Y0018599D01*
X0202446Y0018743D01*
X0202502Y0018885D01*
X0202562Y0019026D01*
X0202626Y0019166D01*
X0202693Y0019304D01*
X0202764Y0019440D01*
X0202839Y0019574D01*
X0202916Y0019706D01*
X0202998Y0019836D01*
X0203082Y0019964D01*
X0203170Y0020090D01*
X0203261Y0020213D01*
X0203355Y0020334D01*
X0203453Y0020452D01*
X0203553Y0020568D01*
X0203657Y0020681D01*
X0203763Y0020792D01*
X0203872Y0020900D01*
X0203984Y0021005D01*
X0204098Y0021106D01*
X0204216Y0021205D01*
X0204335Y0021301D01*
X0204457Y0021394D01*
X0204582Y0021483D01*
X0204709Y0021570D01*
X0204838Y0021652D01*
X0204969Y0021732D01*
X0205102Y0021808D01*
X0205237Y0021881D01*
X0205374Y0021950D01*
X0205513Y0022015D01*
X0205653Y0022077D01*
X0205795Y0022135D01*
X0205938Y0022190D01*
X0206083Y0022241D01*
X0206229Y0022288D01*
X0206376Y0022331D01*
X0206524Y0022370D01*
X0206673Y0022406D01*
X0206823Y0022437D01*
X0206974Y0022465D01*
X0207125Y0022489D01*
X0207278Y0022509D01*
X0207430Y0022525D01*
X0207583Y0022537D01*
X0207736Y0022545D01*
X0207889Y0022549D01*
X0208043Y0022549D01*
X0208196Y0022545D01*
X0208349Y0022537D01*
X0208502Y0022525D01*
X0208654Y0022509D01*
X0208807Y0022489D01*
X0208958Y0022465D01*
X0209109Y0022437D01*
X0209259Y0022406D01*
X0209408Y0022370D01*
X0209556Y0022331D01*
X0209703Y0022288D01*
X0209849Y0022241D01*
X0209994Y0022190D01*
X0210137Y0022135D01*
X0210279Y0022077D01*
X0210419Y0022015D01*
X0210558Y0021950D01*
X0210695Y0021881D01*
X0210830Y0021808D01*
X0210963Y0021732D01*
X0211094Y0021652D01*
X0211223Y0021570D01*
X0211350Y0021483D01*
X0211475Y0021394D01*
X0211597Y0021301D01*
X0211716Y0021205D01*
X0211834Y0021106D01*
X0211948Y0021005D01*
X0212060Y0020900D01*
X0212169Y0020792D01*
X0212275Y0020681D01*
X0212379Y0020568D01*
X0212479Y0020452D01*
X0212577Y0020334D01*
X0212671Y0020213D01*
X0212762Y0020090D01*
X0212850Y0019964D01*
X0212934Y0019836D01*
X0213016Y0019706D01*
X0213093Y0019574D01*
X0213168Y0019440D01*
X0213239Y0019304D01*
X0213306Y0019166D01*
X0213370Y0019026D01*
X0213430Y0018885D01*
X0213486Y0018743D01*
X0213539Y0018599D01*
X0213588Y0018453D01*
X0213633Y0018307D01*
X0213674Y0018159D01*
X0213711Y0018011D01*
X0213745Y0017861D01*
X0213775Y0017710D01*
X0213800Y0017559D01*
X0213822Y0017408D01*
X0213840Y0017255D01*
X0213854Y0017103D01*
X0213864Y0016950D01*
X0213870Y0016796D01*
X0213872Y0016643D01*
X0213870Y0016490D01*
X0213864Y0016336D01*
X0213854Y0016183D01*
X0213840Y0016031D01*
X0213822Y0015878D01*
X0213800Y0015727D01*
X0213775Y0015576D01*
X0213745Y0015425D01*
X0213711Y0015275D01*
X0213674Y0015127D01*
X0213633Y0014979D01*
X0213588Y0014833D01*
X0213539Y0014687D01*
X0213486Y0014543D01*
X0213430Y0014401D01*
X0213370Y0014260D01*
X0213306Y0014120D01*
X0213239Y0013982D01*
X0213168Y0013846D01*
X0213093Y0013712D01*
X0213016Y0013580D01*
X0212934Y0013450D01*
X0212850Y0013322D01*
X0212762Y0013196D01*
X0212671Y0013073D01*
X0212577Y0012952D01*
X0212479Y0012834D01*
X0212379Y0012718D01*
X0212275Y0012605D01*
X0212169Y0012494D01*
X0212060Y0012386D01*
X0211948Y0012281D01*
X0211834Y0012180D01*
X0211716Y0012081D01*
X0211597Y0011985D01*
X0211475Y0011892D01*
X0211350Y0011803D01*
X0211223Y0011716D01*
X0211094Y0011634D01*
X0210963Y0011554D01*
X0210830Y0011478D01*
X0210695Y0011405D01*
X0210558Y0011336D01*
X0210419Y0011271D01*
X0210279Y0011209D01*
X0210137Y0011151D01*
X0209994Y0011096D01*
X0209849Y0011045D01*
X0209703Y0010998D01*
X0209556Y0010955D01*
X0209408Y0010916D01*
X0209259Y0010880D01*
X0209109Y0010849D01*
X0208958Y0010821D01*
X0208807Y0010797D01*
X0208654Y0010777D01*
X0208502Y0010761D01*
X0208349Y0010749D01*
X0208196Y0010741D01*
X0208043Y0010737D01*
X0207889Y0010737D01*
X0207736Y0010741D01*
X0207583Y0010749D01*
X0207430Y0010761D01*
X0207278Y0010777D01*
X0207125Y0010797D01*
X0206974Y0010821D01*
X0206823Y0010849D01*
X0206673Y0010880D01*
X0206524Y0010916D01*
X0206376Y0010955D01*
X0206229Y0010998D01*
X0206083Y0011045D01*
X0205938Y0011096D01*
X0205795Y0011151D01*
X0205653Y0011209D01*
X0205513Y0011271D01*
X0205374Y0011336D01*
X0205237Y0011405D01*
X0205102Y0011478D01*
X0204969Y0011554D01*
X0204838Y0011634D01*
X0204709Y0011716D01*
X0204582Y0011803D01*
X0204457Y0011892D01*
X0204335Y0011985D01*
X0204216Y0012081D01*
X0204098Y0012180D01*
X0203984Y0012281D01*
X0203872Y0012386D01*
X0203763Y0012494D01*
X0203657Y0012605D01*
X0203553Y0012718D01*
X0203453Y0012834D01*
X0203355Y0012952D01*
X0203261Y0013073D01*
X0203170Y0013196D01*
X0203082Y0013322D01*
X0202998Y0013450D01*
X0202916Y0013580D01*
X0202839Y0013712D01*
X0202764Y0013846D01*
X0202693Y0013982D01*
X0202626Y0014120D01*
X0202562Y0014260D01*
X0202502Y0014401D01*
X0202446Y0014543D01*
X0202393Y0014687D01*
X0202344Y0014833D01*
X0202299Y0014979D01*
X0202258Y0015127D01*
X0202221Y0015275D01*
X0202187Y0015425D01*
X0202157Y0015576D01*
X0202132Y0015727D01*
X0202110Y0015878D01*
X0202092Y0016031D01*
X0202078Y0016183D01*
X0202068Y0016336D01*
X0202062Y0016490D01*
X0202060Y0016643D01*
X0205997Y0006800D02*
X0206282Y0006803D01*
X0206568Y0006814D01*
X0206853Y0006831D01*
X0207137Y0006855D01*
X0207421Y0006886D01*
X0207704Y0006924D01*
X0207985Y0006969D01*
X0208266Y0007020D01*
X0208546Y0007078D01*
X0208824Y0007143D01*
X0209100Y0007215D01*
X0209374Y0007293D01*
X0209647Y0007378D01*
X0209917Y0007470D01*
X0210185Y0007568D01*
X0210451Y0007672D01*
X0210714Y0007783D01*
X0210974Y0007900D01*
X0211232Y0008023D01*
X0211486Y0008153D01*
X0211737Y0008289D01*
X0211985Y0008430D01*
X0212229Y0008578D01*
X0212470Y0008731D01*
X0212706Y0008891D01*
X0212939Y0009056D01*
X0213168Y0009226D01*
X0213393Y0009402D01*
X0213613Y0009584D01*
X0213829Y0009770D01*
X0214040Y0009962D01*
X0214247Y0010159D01*
X0214449Y0010361D01*
X0214646Y0010568D01*
X0214838Y0010779D01*
X0215024Y0010995D01*
X0215206Y0011215D01*
X0215382Y0011440D01*
X0215552Y0011669D01*
X0215717Y0011902D01*
X0215877Y0012138D01*
X0216030Y0012379D01*
X0216178Y0012623D01*
X0216319Y0012871D01*
X0216455Y0013122D01*
X0216585Y0013376D01*
X0216708Y0013634D01*
X0216825Y0013894D01*
X0216936Y0014157D01*
X0217040Y0014423D01*
X0217138Y0014691D01*
X0217230Y0014961D01*
X0217315Y0015234D01*
X0217393Y0015508D01*
X0217465Y0015784D01*
X0217530Y0016062D01*
X0217588Y0016342D01*
X0217639Y0016623D01*
X0217684Y0016904D01*
X0217722Y0017187D01*
X0217753Y0017471D01*
X0217777Y0017755D01*
X0217794Y0018040D01*
X0217805Y0018326D01*
X0217808Y0018611D01*
X0205997Y0006800D02*
X0048517Y0006800D01*
X0040643Y0016643D02*
X0040645Y0016796D01*
X0040651Y0016950D01*
X0040661Y0017103D01*
X0040675Y0017255D01*
X0040693Y0017408D01*
X0040715Y0017559D01*
X0040740Y0017710D01*
X0040770Y0017861D01*
X0040804Y0018011D01*
X0040841Y0018159D01*
X0040882Y0018307D01*
X0040927Y0018453D01*
X0040976Y0018599D01*
X0041029Y0018743D01*
X0041085Y0018885D01*
X0041145Y0019026D01*
X0041209Y0019166D01*
X0041276Y0019304D01*
X0041347Y0019440D01*
X0041422Y0019574D01*
X0041499Y0019706D01*
X0041581Y0019836D01*
X0041665Y0019964D01*
X0041753Y0020090D01*
X0041844Y0020213D01*
X0041938Y0020334D01*
X0042036Y0020452D01*
X0042136Y0020568D01*
X0042240Y0020681D01*
X0042346Y0020792D01*
X0042455Y0020900D01*
X0042567Y0021005D01*
X0042681Y0021106D01*
X0042799Y0021205D01*
X0042918Y0021301D01*
X0043040Y0021394D01*
X0043165Y0021483D01*
X0043292Y0021570D01*
X0043421Y0021652D01*
X0043552Y0021732D01*
X0043685Y0021808D01*
X0043820Y0021881D01*
X0043957Y0021950D01*
X0044096Y0022015D01*
X0044236Y0022077D01*
X0044378Y0022135D01*
X0044521Y0022190D01*
X0044666Y0022241D01*
X0044812Y0022288D01*
X0044959Y0022331D01*
X0045107Y0022370D01*
X0045256Y0022406D01*
X0045406Y0022437D01*
X0045557Y0022465D01*
X0045708Y0022489D01*
X0045861Y0022509D01*
X0046013Y0022525D01*
X0046166Y0022537D01*
X0046319Y0022545D01*
X0046472Y0022549D01*
X0046626Y0022549D01*
X0046779Y0022545D01*
X0046932Y0022537D01*
X0047085Y0022525D01*
X0047237Y0022509D01*
X0047390Y0022489D01*
X0047541Y0022465D01*
X0047692Y0022437D01*
X0047842Y0022406D01*
X0047991Y0022370D01*
X0048139Y0022331D01*
X0048286Y0022288D01*
X0048432Y0022241D01*
X0048577Y0022190D01*
X0048720Y0022135D01*
X0048862Y0022077D01*
X0049002Y0022015D01*
X0049141Y0021950D01*
X0049278Y0021881D01*
X0049413Y0021808D01*
X0049546Y0021732D01*
X0049677Y0021652D01*
X0049806Y0021570D01*
X0049933Y0021483D01*
X0050058Y0021394D01*
X0050180Y0021301D01*
X0050299Y0021205D01*
X0050417Y0021106D01*
X0050531Y0021005D01*
X0050643Y0020900D01*
X0050752Y0020792D01*
X0050858Y0020681D01*
X0050962Y0020568D01*
X0051062Y0020452D01*
X0051160Y0020334D01*
X0051254Y0020213D01*
X0051345Y0020090D01*
X0051433Y0019964D01*
X0051517Y0019836D01*
X0051599Y0019706D01*
X0051676Y0019574D01*
X0051751Y0019440D01*
X0051822Y0019304D01*
X0051889Y0019166D01*
X0051953Y0019026D01*
X0052013Y0018885D01*
X0052069Y0018743D01*
X0052122Y0018599D01*
X0052171Y0018453D01*
X0052216Y0018307D01*
X0052257Y0018159D01*
X0052294Y0018011D01*
X0052328Y0017861D01*
X0052358Y0017710D01*
X0052383Y0017559D01*
X0052405Y0017408D01*
X0052423Y0017255D01*
X0052437Y0017103D01*
X0052447Y0016950D01*
X0052453Y0016796D01*
X0052455Y0016643D01*
X0052453Y0016490D01*
X0052447Y0016336D01*
X0052437Y0016183D01*
X0052423Y0016031D01*
X0052405Y0015878D01*
X0052383Y0015727D01*
X0052358Y0015576D01*
X0052328Y0015425D01*
X0052294Y0015275D01*
X0052257Y0015127D01*
X0052216Y0014979D01*
X0052171Y0014833D01*
X0052122Y0014687D01*
X0052069Y0014543D01*
X0052013Y0014401D01*
X0051953Y0014260D01*
X0051889Y0014120D01*
X0051822Y0013982D01*
X0051751Y0013846D01*
X0051676Y0013712D01*
X0051599Y0013580D01*
X0051517Y0013450D01*
X0051433Y0013322D01*
X0051345Y0013196D01*
X0051254Y0013073D01*
X0051160Y0012952D01*
X0051062Y0012834D01*
X0050962Y0012718D01*
X0050858Y0012605D01*
X0050752Y0012494D01*
X0050643Y0012386D01*
X0050531Y0012281D01*
X0050417Y0012180D01*
X0050299Y0012081D01*
X0050180Y0011985D01*
X0050058Y0011892D01*
X0049933Y0011803D01*
X0049806Y0011716D01*
X0049677Y0011634D01*
X0049546Y0011554D01*
X0049413Y0011478D01*
X0049278Y0011405D01*
X0049141Y0011336D01*
X0049002Y0011271D01*
X0048862Y0011209D01*
X0048720Y0011151D01*
X0048577Y0011096D01*
X0048432Y0011045D01*
X0048286Y0010998D01*
X0048139Y0010955D01*
X0047991Y0010916D01*
X0047842Y0010880D01*
X0047692Y0010849D01*
X0047541Y0010821D01*
X0047390Y0010797D01*
X0047237Y0010777D01*
X0047085Y0010761D01*
X0046932Y0010749D01*
X0046779Y0010741D01*
X0046626Y0010737D01*
X0046472Y0010737D01*
X0046319Y0010741D01*
X0046166Y0010749D01*
X0046013Y0010761D01*
X0045861Y0010777D01*
X0045708Y0010797D01*
X0045557Y0010821D01*
X0045406Y0010849D01*
X0045256Y0010880D01*
X0045107Y0010916D01*
X0044959Y0010955D01*
X0044812Y0010998D01*
X0044666Y0011045D01*
X0044521Y0011096D01*
X0044378Y0011151D01*
X0044236Y0011209D01*
X0044096Y0011271D01*
X0043957Y0011336D01*
X0043820Y0011405D01*
X0043685Y0011478D01*
X0043552Y0011554D01*
X0043421Y0011634D01*
X0043292Y0011716D01*
X0043165Y0011803D01*
X0043040Y0011892D01*
X0042918Y0011985D01*
X0042799Y0012081D01*
X0042681Y0012180D01*
X0042567Y0012281D01*
X0042455Y0012386D01*
X0042346Y0012494D01*
X0042240Y0012605D01*
X0042136Y0012718D01*
X0042036Y0012834D01*
X0041938Y0012952D01*
X0041844Y0013073D01*
X0041753Y0013196D01*
X0041665Y0013322D01*
X0041581Y0013450D01*
X0041499Y0013580D01*
X0041422Y0013712D01*
X0041347Y0013846D01*
X0041276Y0013982D01*
X0041209Y0014120D01*
X0041145Y0014260D01*
X0041085Y0014401D01*
X0041029Y0014543D01*
X0040976Y0014687D01*
X0040927Y0014833D01*
X0040882Y0014979D01*
X0040841Y0015127D01*
X0040804Y0015275D01*
X0040770Y0015425D01*
X0040740Y0015576D01*
X0040715Y0015727D01*
X0040693Y0015878D01*
X0040675Y0016031D01*
X0040661Y0016183D01*
X0040651Y0016336D01*
X0040645Y0016490D01*
X0040643Y0016643D01*
X0036706Y0018611D02*
X0036709Y0018326D01*
X0036720Y0018040D01*
X0036737Y0017755D01*
X0036761Y0017471D01*
X0036792Y0017187D01*
X0036830Y0016904D01*
X0036875Y0016623D01*
X0036926Y0016342D01*
X0036984Y0016062D01*
X0037049Y0015784D01*
X0037121Y0015508D01*
X0037199Y0015234D01*
X0037284Y0014961D01*
X0037376Y0014691D01*
X0037474Y0014423D01*
X0037578Y0014157D01*
X0037689Y0013894D01*
X0037806Y0013634D01*
X0037929Y0013376D01*
X0038059Y0013122D01*
X0038195Y0012871D01*
X0038336Y0012623D01*
X0038484Y0012379D01*
X0038637Y0012138D01*
X0038797Y0011902D01*
X0038962Y0011669D01*
X0039132Y0011440D01*
X0039308Y0011215D01*
X0039490Y0010995D01*
X0039676Y0010779D01*
X0039868Y0010568D01*
X0040065Y0010361D01*
X0040267Y0010159D01*
X0040474Y0009962D01*
X0040685Y0009770D01*
X0040901Y0009584D01*
X0041121Y0009402D01*
X0041346Y0009226D01*
X0041575Y0009056D01*
X0041808Y0008891D01*
X0042044Y0008731D01*
X0042285Y0008578D01*
X0042529Y0008430D01*
X0042777Y0008289D01*
X0043028Y0008153D01*
X0043282Y0008023D01*
X0043540Y0007900D01*
X0043800Y0007783D01*
X0044063Y0007672D01*
X0044329Y0007568D01*
X0044597Y0007470D01*
X0044867Y0007378D01*
X0045140Y0007293D01*
X0045414Y0007215D01*
X0045690Y0007143D01*
X0045968Y0007078D01*
X0046248Y0007020D01*
X0046529Y0006969D01*
X0046810Y0006924D01*
X0047093Y0006886D01*
X0047377Y0006855D01*
X0047661Y0006831D01*
X0047946Y0006814D01*
X0048232Y0006803D01*
X0048517Y0006800D01*
D11*
X0058856Y0082850D02*
X0063460Y0082850D01*
X0066775Y0082850D02*
X0066775Y0087454D01*
X0069077Y0089756D01*
X0071379Y0087454D01*
X0071379Y0082850D01*
X0074694Y0082850D02*
X0074694Y0089756D01*
X0078146Y0089756D01*
X0079297Y0088605D01*
X0079297Y0086303D01*
X0078146Y0085152D01*
X0074694Y0085152D01*
X0071379Y0086303D02*
X0066775Y0086303D01*
X0058856Y0089756D02*
X0058856Y0082850D01*
X0082612Y0082850D02*
X0084914Y0082850D01*
X0083763Y0082850D02*
X0083763Y0089756D01*
X0082612Y0089756D02*
X0084914Y0089756D01*
X0087891Y0088605D02*
X0087891Y0087454D01*
X0089042Y0086303D01*
X0091344Y0086303D01*
X0092495Y0085152D01*
X0092495Y0084001D01*
X0091344Y0082850D01*
X0089042Y0082850D01*
X0087891Y0084001D01*
X0087891Y0088605D02*
X0089042Y0089756D01*
X0091344Y0089756D01*
X0092495Y0088605D01*
D12*
X0103706Y0088937D02*
X0103706Y0088070D01*
X0104573Y0087202D01*
X0106308Y0087202D01*
X0107176Y0086335D01*
X0107176Y0085467D01*
X0106308Y0084600D01*
X0104573Y0084600D01*
X0103706Y0085467D01*
X0103706Y0088937D02*
X0104573Y0089804D01*
X0106308Y0089804D01*
X0107176Y0088937D01*
X0108862Y0087202D02*
X0108862Y0085467D01*
X0109730Y0084600D01*
X0111465Y0084600D01*
X0112332Y0085467D01*
X0112332Y0087202D01*
X0111465Y0088070D01*
X0109730Y0088070D01*
X0108862Y0087202D01*
X0114019Y0088070D02*
X0114019Y0085467D01*
X0114886Y0084600D01*
X0117488Y0084600D01*
X0117488Y0088070D01*
X0119175Y0088070D02*
X0121777Y0088070D01*
X0122645Y0087202D01*
X0122645Y0084600D01*
X0124332Y0085467D02*
X0124332Y0087202D01*
X0125199Y0088070D01*
X0127801Y0088070D01*
X0127801Y0089804D02*
X0127801Y0084600D01*
X0125199Y0084600D01*
X0124332Y0085467D01*
X0119175Y0084600D02*
X0119175Y0088070D01*
X0134644Y0089804D02*
X0134644Y0084600D01*
X0137247Y0084600D01*
X0138114Y0085467D01*
X0138114Y0088937D01*
X0137247Y0089804D01*
X0134644Y0089804D01*
X0139801Y0087202D02*
X0139801Y0085467D01*
X0140668Y0084600D01*
X0142403Y0084600D01*
X0143270Y0086335D02*
X0139801Y0086335D01*
X0139801Y0087202D02*
X0140668Y0088070D01*
X0142403Y0088070D01*
X0143270Y0087202D01*
X0143270Y0086335D01*
X0145825Y0085467D02*
X0146692Y0084600D01*
X0145825Y0085467D02*
X0145825Y0088937D01*
X0144957Y0088070D02*
X0146692Y0088070D01*
X0148395Y0087202D02*
X0149262Y0088070D01*
X0150997Y0088070D01*
X0151864Y0087202D01*
X0151864Y0086335D01*
X0148395Y0086335D01*
X0148395Y0087202D02*
X0148395Y0085467D01*
X0149262Y0084600D01*
X0150997Y0084600D01*
X0153551Y0085467D02*
X0154419Y0084600D01*
X0157021Y0084600D01*
X0159575Y0085467D02*
X0160442Y0084600D01*
X0159575Y0085467D02*
X0159575Y0088937D01*
X0158708Y0088070D02*
X0160442Y0088070D01*
X0162145Y0087202D02*
X0162145Y0085467D01*
X0163013Y0084600D01*
X0164747Y0084600D01*
X0165615Y0085467D01*
X0165615Y0087202D01*
X0164747Y0088070D01*
X0163013Y0088070D01*
X0162145Y0087202D01*
X0157021Y0088070D02*
X0154419Y0088070D01*
X0153551Y0087202D01*
X0153551Y0085467D01*
X0167302Y0084600D02*
X0167302Y0088070D01*
X0169036Y0088070D02*
X0169904Y0088070D01*
X0169036Y0088070D02*
X0167302Y0086335D01*
X0176755Y0086335D02*
X0178490Y0088070D01*
X0179357Y0088070D01*
X0181052Y0087202D02*
X0181919Y0088070D01*
X0183654Y0088070D01*
X0184522Y0087202D01*
X0184522Y0086335D01*
X0181052Y0086335D01*
X0181052Y0087202D02*
X0181052Y0085467D01*
X0181919Y0084600D01*
X0183654Y0084600D01*
X0187943Y0084600D02*
X0189678Y0088070D01*
X0186208Y0088070D02*
X0187943Y0084600D01*
X0196521Y0084600D02*
X0199991Y0084600D01*
X0198256Y0084600D02*
X0198256Y0089804D01*
X0196521Y0088070D01*
X0176755Y0088070D02*
X0176755Y0084600D01*
D13*
X0039732Y0046800D02*
X0039738Y0047266D01*
X0039755Y0047731D01*
X0039783Y0048196D01*
X0039823Y0048660D01*
X0039875Y0049123D01*
X0039937Y0049584D01*
X0040011Y0050044D01*
X0040097Y0050502D01*
X0040193Y0050957D01*
X0040301Y0051410D01*
X0040419Y0051861D01*
X0040549Y0052308D01*
X0040690Y0052752D01*
X0040841Y0053192D01*
X0041003Y0053629D01*
X0041176Y0054061D01*
X0041360Y0054489D01*
X0041554Y0054912D01*
X0041758Y0055331D01*
X0041972Y0055744D01*
X0042197Y0056152D01*
X0042431Y0056555D01*
X0042676Y0056951D01*
X0042930Y0057341D01*
X0043193Y0057725D01*
X0043466Y0058103D01*
X0043748Y0058473D01*
X0044039Y0058837D01*
X0044339Y0059193D01*
X0044647Y0059542D01*
X0044964Y0059883D01*
X0045289Y0060217D01*
X0045623Y0060542D01*
X0045964Y0060859D01*
X0046313Y0061167D01*
X0046669Y0061467D01*
X0047033Y0061758D01*
X0047403Y0062040D01*
X0047781Y0062313D01*
X0048165Y0062576D01*
X0048555Y0062830D01*
X0048951Y0063075D01*
X0049354Y0063309D01*
X0049762Y0063534D01*
X0050175Y0063748D01*
X0050594Y0063952D01*
X0051017Y0064146D01*
X0051445Y0064330D01*
X0051877Y0064503D01*
X0052314Y0064665D01*
X0052754Y0064816D01*
X0053198Y0064957D01*
X0053645Y0065087D01*
X0054096Y0065205D01*
X0054549Y0065313D01*
X0055004Y0065409D01*
X0055462Y0065495D01*
X0055922Y0065569D01*
X0056383Y0065631D01*
X0056846Y0065683D01*
X0057310Y0065723D01*
X0057775Y0065751D01*
X0058240Y0065768D01*
X0058706Y0065774D01*
X0059172Y0065768D01*
X0059637Y0065751D01*
X0060102Y0065723D01*
X0060566Y0065683D01*
X0061029Y0065631D01*
X0061490Y0065569D01*
X0061950Y0065495D01*
X0062408Y0065409D01*
X0062863Y0065313D01*
X0063316Y0065205D01*
X0063767Y0065087D01*
X0064214Y0064957D01*
X0064658Y0064816D01*
X0065098Y0064665D01*
X0065535Y0064503D01*
X0065967Y0064330D01*
X0066395Y0064146D01*
X0066818Y0063952D01*
X0067237Y0063748D01*
X0067650Y0063534D01*
X0068058Y0063309D01*
X0068461Y0063075D01*
X0068857Y0062830D01*
X0069247Y0062576D01*
X0069631Y0062313D01*
X0070009Y0062040D01*
X0070379Y0061758D01*
X0070743Y0061467D01*
X0071099Y0061167D01*
X0071448Y0060859D01*
X0071789Y0060542D01*
X0072123Y0060217D01*
X0072448Y0059883D01*
X0072765Y0059542D01*
X0073073Y0059193D01*
X0073373Y0058837D01*
X0073664Y0058473D01*
X0073946Y0058103D01*
X0074219Y0057725D01*
X0074482Y0057341D01*
X0074736Y0056951D01*
X0074981Y0056555D01*
X0075215Y0056152D01*
X0075440Y0055744D01*
X0075654Y0055331D01*
X0075858Y0054912D01*
X0076052Y0054489D01*
X0076236Y0054061D01*
X0076409Y0053629D01*
X0076571Y0053192D01*
X0076722Y0052752D01*
X0076863Y0052308D01*
X0076993Y0051861D01*
X0077111Y0051410D01*
X0077219Y0050957D01*
X0077315Y0050502D01*
X0077401Y0050044D01*
X0077475Y0049584D01*
X0077537Y0049123D01*
X0077589Y0048660D01*
X0077629Y0048196D01*
X0077657Y0047731D01*
X0077674Y0047266D01*
X0077680Y0046800D01*
X0077674Y0046334D01*
X0077657Y0045869D01*
X0077629Y0045404D01*
X0077589Y0044940D01*
X0077537Y0044477D01*
X0077475Y0044016D01*
X0077401Y0043556D01*
X0077315Y0043098D01*
X0077219Y0042643D01*
X0077111Y0042190D01*
X0076993Y0041739D01*
X0076863Y0041292D01*
X0076722Y0040848D01*
X0076571Y0040408D01*
X0076409Y0039971D01*
X0076236Y0039539D01*
X0076052Y0039111D01*
X0075858Y0038688D01*
X0075654Y0038269D01*
X0075440Y0037856D01*
X0075215Y0037448D01*
X0074981Y0037045D01*
X0074736Y0036649D01*
X0074482Y0036259D01*
X0074219Y0035875D01*
X0073946Y0035497D01*
X0073664Y0035127D01*
X0073373Y0034763D01*
X0073073Y0034407D01*
X0072765Y0034058D01*
X0072448Y0033717D01*
X0072123Y0033383D01*
X0071789Y0033058D01*
X0071448Y0032741D01*
X0071099Y0032433D01*
X0070743Y0032133D01*
X0070379Y0031842D01*
X0070009Y0031560D01*
X0069631Y0031287D01*
X0069247Y0031024D01*
X0068857Y0030770D01*
X0068461Y0030525D01*
X0068058Y0030291D01*
X0067650Y0030066D01*
X0067237Y0029852D01*
X0066818Y0029648D01*
X0066395Y0029454D01*
X0065967Y0029270D01*
X0065535Y0029097D01*
X0065098Y0028935D01*
X0064658Y0028784D01*
X0064214Y0028643D01*
X0063767Y0028513D01*
X0063316Y0028395D01*
X0062863Y0028287D01*
X0062408Y0028191D01*
X0061950Y0028105D01*
X0061490Y0028031D01*
X0061029Y0027969D01*
X0060566Y0027917D01*
X0060102Y0027877D01*
X0059637Y0027849D01*
X0059172Y0027832D01*
X0058706Y0027826D01*
X0058240Y0027832D01*
X0057775Y0027849D01*
X0057310Y0027877D01*
X0056846Y0027917D01*
X0056383Y0027969D01*
X0055922Y0028031D01*
X0055462Y0028105D01*
X0055004Y0028191D01*
X0054549Y0028287D01*
X0054096Y0028395D01*
X0053645Y0028513D01*
X0053198Y0028643D01*
X0052754Y0028784D01*
X0052314Y0028935D01*
X0051877Y0029097D01*
X0051445Y0029270D01*
X0051017Y0029454D01*
X0050594Y0029648D01*
X0050175Y0029852D01*
X0049762Y0030066D01*
X0049354Y0030291D01*
X0048951Y0030525D01*
X0048555Y0030770D01*
X0048165Y0031024D01*
X0047781Y0031287D01*
X0047403Y0031560D01*
X0047033Y0031842D01*
X0046669Y0032133D01*
X0046313Y0032433D01*
X0045964Y0032741D01*
X0045623Y0033058D01*
X0045289Y0033383D01*
X0044964Y0033717D01*
X0044647Y0034058D01*
X0044339Y0034407D01*
X0044039Y0034763D01*
X0043748Y0035127D01*
X0043466Y0035497D01*
X0043193Y0035875D01*
X0042930Y0036259D01*
X0042676Y0036649D01*
X0042431Y0037045D01*
X0042197Y0037448D01*
X0041972Y0037856D01*
X0041758Y0038269D01*
X0041554Y0038688D01*
X0041360Y0039111D01*
X0041176Y0039539D01*
X0041003Y0039971D01*
X0040841Y0040408D01*
X0040690Y0040848D01*
X0040549Y0041292D01*
X0040419Y0041739D01*
X0040301Y0042190D01*
X0040193Y0042643D01*
X0040097Y0043098D01*
X0040011Y0043556D01*
X0039937Y0044016D01*
X0039875Y0044477D01*
X0039823Y0044940D01*
X0039783Y0045404D01*
X0039755Y0045869D01*
X0039738Y0046334D01*
X0039732Y0046800D01*
D14*
X0049706Y0058700D02*
X0053706Y0058700D01*
D15*
X0059906Y0067500D02*
X0059906Y0070903D01*
X0061607Y0070903D01*
X0062175Y0070336D01*
X0062175Y0069201D01*
X0061607Y0068634D01*
X0059906Y0068634D01*
X0061040Y0068634D02*
X0062175Y0067500D01*
X0063589Y0067500D02*
X0065858Y0069769D01*
X0065858Y0070336D01*
X0065291Y0070903D01*
X0064156Y0070903D01*
X0063589Y0070336D01*
X0063589Y0067500D02*
X0065858Y0067500D01*
X0067272Y0068067D02*
X0069541Y0070336D01*
X0069541Y0068067D01*
X0068974Y0067500D01*
X0067839Y0067500D01*
X0067272Y0068067D01*
X0067272Y0070336D01*
X0067839Y0070903D01*
X0068974Y0070903D01*
X0069541Y0070336D01*
X0073303Y0070067D02*
X0073870Y0069500D01*
X0076139Y0069500D01*
X0076706Y0070067D01*
X0076706Y0071201D01*
X0076139Y0071769D01*
X0076706Y0073183D02*
X0074437Y0075452D01*
X0073870Y0075452D01*
X0073303Y0074885D01*
X0073303Y0073750D01*
X0073870Y0073183D01*
X0073870Y0071769D02*
X0073303Y0071201D01*
X0073303Y0070067D01*
X0076706Y0073183D02*
X0076706Y0075452D01*
X0083603Y0075185D02*
X0083603Y0074050D01*
X0084170Y0073483D01*
X0084170Y0072069D02*
X0083603Y0071501D01*
X0083603Y0070367D01*
X0084170Y0069800D01*
X0086439Y0069800D01*
X0087006Y0070367D01*
X0087006Y0071501D01*
X0086439Y0072069D01*
X0086439Y0073483D02*
X0087006Y0074050D01*
X0087006Y0075185D01*
X0086439Y0075752D01*
X0085872Y0075752D01*
X0085305Y0075185D01*
X0085305Y0074617D01*
X0085305Y0075185D02*
X0084737Y0075752D01*
X0084170Y0075752D01*
X0083603Y0075185D01*
X0093503Y0075933D02*
X0094070Y0075366D01*
X0093503Y0075933D02*
X0093503Y0077068D01*
X0094070Y0077635D01*
X0094637Y0077635D01*
X0096906Y0075366D01*
X0096906Y0077635D01*
X0096906Y0073952D02*
X0096906Y0071683D01*
X0096906Y0072817D02*
X0093503Y0072817D01*
X0094637Y0071683D01*
X0094070Y0070269D02*
X0093503Y0069701D01*
X0093503Y0068000D01*
X0096906Y0068000D01*
X0095772Y0068000D02*
X0095772Y0069701D01*
X0095205Y0070269D01*
X0094070Y0070269D01*
X0095772Y0069134D02*
X0096906Y0070269D01*
X0103103Y0069701D02*
X0103103Y0068000D01*
X0106506Y0068000D01*
X0105372Y0068000D02*
X0105372Y0069701D01*
X0104805Y0070269D01*
X0103670Y0070269D01*
X0103103Y0069701D01*
X0104237Y0071683D02*
X0103103Y0072817D01*
X0106506Y0072817D01*
X0106506Y0071683D02*
X0106506Y0073952D01*
X0106506Y0075366D02*
X0106506Y0077635D01*
X0106506Y0076501D02*
X0103103Y0076501D01*
X0104237Y0075366D01*
X0106506Y0070269D02*
X0105372Y0069134D01*
X0120906Y0077367D02*
X0121473Y0076800D01*
X0122607Y0076800D01*
X0123175Y0077367D01*
X0124589Y0077367D02*
X0125156Y0076800D01*
X0126291Y0076800D01*
X0126858Y0077367D01*
X0126858Y0078501D01*
X0126291Y0079069D01*
X0125723Y0079069D01*
X0124589Y0078501D01*
X0124589Y0080203D01*
X0126858Y0080203D01*
X0123175Y0079636D02*
X0122607Y0080203D01*
X0121473Y0080203D01*
X0120906Y0079636D01*
X0120906Y0077367D01*
X0147006Y0076834D02*
X0148707Y0076834D01*
X0149275Y0077401D01*
X0149275Y0078536D01*
X0148707Y0079103D01*
X0147006Y0079103D01*
X0147006Y0075700D01*
X0148140Y0076834D02*
X0149275Y0075700D01*
X0150689Y0075700D02*
X0152958Y0075700D01*
X0151823Y0075700D02*
X0151823Y0079103D01*
X0150689Y0077969D01*
X0154372Y0077401D02*
X0156641Y0077401D01*
X0156074Y0075700D02*
X0156074Y0079103D01*
X0154372Y0077401D01*
X0154939Y0072803D02*
X0156074Y0072803D01*
X0156641Y0072236D01*
X0156641Y0071669D01*
X0156074Y0071101D01*
X0156641Y0070534D01*
X0156641Y0069967D01*
X0156074Y0069400D01*
X0154939Y0069400D01*
X0154372Y0069967D01*
X0152958Y0069400D02*
X0150689Y0069400D01*
X0151823Y0069400D02*
X0151823Y0072803D01*
X0150689Y0071669D01*
X0149275Y0072236D02*
X0149275Y0071101D01*
X0148707Y0070534D01*
X0147006Y0070534D01*
X0147006Y0069400D02*
X0147006Y0072803D01*
X0148707Y0072803D01*
X0149275Y0072236D01*
X0148140Y0070534D02*
X0149275Y0069400D01*
X0149806Y0067103D02*
X0151507Y0067103D01*
X0152075Y0066536D01*
X0152075Y0065401D01*
X0151507Y0064834D01*
X0149806Y0064834D01*
X0149806Y0063700D02*
X0149806Y0067103D01*
X0150940Y0064834D02*
X0152075Y0063700D01*
X0153489Y0063700D02*
X0155758Y0063700D01*
X0154623Y0063700D02*
X0154623Y0067103D01*
X0153489Y0065969D01*
X0157172Y0065401D02*
X0158307Y0065969D01*
X0158874Y0065969D01*
X0159441Y0065401D01*
X0159441Y0064267D01*
X0158874Y0063700D01*
X0157739Y0063700D01*
X0157172Y0064267D01*
X0157172Y0065401D02*
X0157172Y0067103D01*
X0159441Y0067103D01*
X0156074Y0071101D02*
X0155507Y0071101D01*
X0154372Y0072236D02*
X0154939Y0072803D01*
X0177203Y0064885D02*
X0177770Y0063751D01*
X0178905Y0062617D01*
X0178905Y0064318D01*
X0179472Y0064885D01*
X0180039Y0064885D01*
X0180606Y0064318D01*
X0180606Y0063184D01*
X0180039Y0062617D01*
X0178905Y0062617D01*
X0180606Y0061202D02*
X0180606Y0058934D01*
X0180606Y0060068D02*
X0177203Y0060068D01*
X0178337Y0058934D01*
X0177770Y0057519D02*
X0178905Y0057519D01*
X0179472Y0056952D01*
X0179472Y0055251D01*
X0179472Y0056385D02*
X0180606Y0057519D01*
X0180606Y0055251D02*
X0177203Y0055251D01*
X0177203Y0056952D01*
X0177770Y0057519D01*
X0182413Y0061780D02*
X0184480Y0061780D01*
X0184480Y0075362D01*
X0200130Y0075362D01*
X0200130Y0066898D01*
X0184480Y0075362D02*
X0182413Y0075362D01*
X0182413Y0061780D01*
X0182413Y0034220D01*
X0184480Y0034220D01*
X0184480Y0020638D01*
X0200130Y0020638D01*
X0200130Y0029102D01*
X0184480Y0020638D02*
X0182413Y0020638D01*
X0182413Y0034220D01*
X0180306Y0034450D02*
X0180306Y0035585D01*
X0179739Y0036152D01*
X0177470Y0036152D01*
X0176903Y0035585D01*
X0176903Y0034450D01*
X0177470Y0033883D01*
X0178037Y0033883D01*
X0178605Y0034450D01*
X0178605Y0036152D01*
X0180306Y0034450D02*
X0179739Y0033883D01*
X0180306Y0032469D02*
X0179172Y0031334D01*
X0179172Y0031901D02*
X0179172Y0030200D01*
X0180306Y0030200D02*
X0176903Y0030200D01*
X0176903Y0031901D01*
X0177470Y0032469D01*
X0178605Y0032469D01*
X0179172Y0031901D01*
X0167358Y0025536D02*
X0167358Y0024969D01*
X0166791Y0024401D01*
X0165656Y0024401D01*
X0165089Y0024969D01*
X0165089Y0025536D01*
X0165656Y0026103D01*
X0166791Y0026103D01*
X0167358Y0025536D01*
X0166791Y0024401D02*
X0167358Y0023834D01*
X0167358Y0023267D01*
X0166791Y0022700D01*
X0165656Y0022700D01*
X0165089Y0023267D01*
X0165089Y0023834D01*
X0165656Y0024401D01*
X0163675Y0024401D02*
X0163675Y0025536D01*
X0163107Y0026103D01*
X0161406Y0026103D01*
X0161406Y0022700D01*
X0161406Y0023834D02*
X0163107Y0023834D01*
X0163675Y0024401D01*
X0162540Y0023834D02*
X0163675Y0022700D01*
X0168106Y0020000D02*
X0149106Y0020000D01*
X0148606Y0020500D01*
X0147106Y0020500D01*
X0147046Y0020498D01*
X0146985Y0020493D01*
X0146926Y0020484D01*
X0146867Y0020471D01*
X0146808Y0020455D01*
X0146751Y0020435D01*
X0146696Y0020412D01*
X0146641Y0020385D01*
X0146589Y0020356D01*
X0146538Y0020323D01*
X0146489Y0020287D01*
X0146443Y0020249D01*
X0146399Y0020207D01*
X0146357Y0020163D01*
X0146319Y0020117D01*
X0146283Y0020068D01*
X0146250Y0020017D01*
X0146221Y0019965D01*
X0146194Y0019910D01*
X0146171Y0019855D01*
X0146151Y0019798D01*
X0146135Y0019739D01*
X0146122Y0019680D01*
X0146113Y0019621D01*
X0146108Y0019560D01*
X0146106Y0019500D01*
X0140289Y0021800D02*
X0140289Y0022367D01*
X0142558Y0024636D01*
X0142558Y0025203D01*
X0140289Y0025203D01*
X0138875Y0024636D02*
X0138875Y0023501D01*
X0138307Y0022934D01*
X0136606Y0022934D01*
X0136606Y0021800D02*
X0136606Y0025203D01*
X0138307Y0025203D01*
X0138875Y0024636D01*
X0137740Y0022934D02*
X0138875Y0021800D01*
X0129758Y0022267D02*
X0129191Y0021700D01*
X0128056Y0021700D01*
X0127489Y0022267D01*
X0127489Y0023401D01*
X0129191Y0023401D01*
X0129758Y0022834D01*
X0129758Y0022267D01*
X0127489Y0023401D02*
X0128623Y0024536D01*
X0129758Y0025103D01*
X0126075Y0024536D02*
X0125507Y0025103D01*
X0124373Y0025103D01*
X0123806Y0024536D01*
X0123806Y0022267D01*
X0124373Y0021700D01*
X0125507Y0021700D01*
X0126075Y0022267D01*
X0126006Y0020500D02*
X0124506Y0020500D01*
X0124006Y0020000D01*
X0105006Y0020000D01*
X0104506Y0020500D01*
X0103006Y0020500D01*
X0102946Y0020498D01*
X0102885Y0020493D01*
X0102826Y0020484D01*
X0102767Y0020471D01*
X0102708Y0020455D01*
X0102651Y0020435D01*
X0102596Y0020412D01*
X0102541Y0020385D01*
X0102489Y0020356D01*
X0102438Y0020323D01*
X0102389Y0020287D01*
X0102343Y0020249D01*
X0102299Y0020207D01*
X0102257Y0020163D01*
X0102219Y0020117D01*
X0102183Y0020068D01*
X0102150Y0020017D01*
X0102121Y0019965D01*
X0102094Y0019910D01*
X0102071Y0019855D01*
X0102051Y0019798D01*
X0102035Y0019739D01*
X0102022Y0019680D01*
X0102013Y0019621D01*
X0102008Y0019560D01*
X0102006Y0019500D01*
X0100791Y0020601D02*
X0098523Y0020601D01*
X0100224Y0022303D01*
X0100224Y0018900D01*
X0097108Y0019467D02*
X0096541Y0018900D01*
X0095407Y0018900D01*
X0094840Y0019467D01*
X0094840Y0021736D01*
X0095407Y0022303D01*
X0096541Y0022303D01*
X0097108Y0021736D01*
X0092391Y0021536D02*
X0092391Y0020969D01*
X0090123Y0018700D01*
X0092391Y0018700D01*
X0092391Y0021536D02*
X0091824Y0022103D01*
X0090690Y0022103D01*
X0090123Y0021536D01*
X0088708Y0021536D02*
X0088708Y0020401D01*
X0088141Y0019834D01*
X0086440Y0019834D01*
X0086440Y0018700D02*
X0086440Y0022103D01*
X0088141Y0022103D01*
X0088708Y0021536D01*
X0087574Y0019834D02*
X0088708Y0018700D01*
X0082806Y0017452D02*
X0082806Y0015183D01*
X0082806Y0016317D02*
X0079403Y0016317D01*
X0080537Y0015183D01*
X0079970Y0013769D02*
X0079403Y0013201D01*
X0079403Y0012067D01*
X0079970Y0011500D01*
X0082239Y0011500D01*
X0082806Y0012067D01*
X0082806Y0013201D01*
X0082239Y0013769D01*
X0068806Y0020300D02*
X0065403Y0020300D01*
X0065403Y0022001D01*
X0065970Y0022569D01*
X0067105Y0022569D01*
X0067672Y0022001D01*
X0067672Y0020300D01*
X0067672Y0021434D02*
X0068806Y0022569D01*
X0068806Y0023983D02*
X0068806Y0026252D01*
X0068806Y0025117D02*
X0065403Y0025117D01*
X0066537Y0023983D01*
X0081540Y0037800D02*
X0081540Y0041203D01*
X0083241Y0041203D01*
X0083808Y0040636D01*
X0083808Y0039501D01*
X0083241Y0038934D01*
X0081540Y0038934D01*
X0082674Y0038934D02*
X0083808Y0037800D01*
X0085223Y0038367D02*
X0085790Y0037800D01*
X0086924Y0037800D01*
X0087491Y0038367D01*
X0087491Y0039501D01*
X0086924Y0040069D01*
X0086357Y0040069D01*
X0085223Y0039501D01*
X0085223Y0041203D01*
X0087491Y0041203D01*
X0086724Y0044900D02*
X0086724Y0048303D01*
X0085023Y0046601D01*
X0087291Y0046601D01*
X0083608Y0046601D02*
X0083041Y0046034D01*
X0081340Y0046034D01*
X0081340Y0044900D02*
X0081340Y0048303D01*
X0083041Y0048303D01*
X0083608Y0047736D01*
X0083608Y0046601D01*
X0082474Y0046034D02*
X0083608Y0044900D01*
X0083708Y0051900D02*
X0082574Y0053034D01*
X0083141Y0053034D02*
X0081440Y0053034D01*
X0081440Y0051900D02*
X0081440Y0055303D01*
X0083141Y0055303D01*
X0083708Y0054736D01*
X0083708Y0053601D01*
X0083141Y0053034D01*
X0085123Y0052467D02*
X0085690Y0051900D01*
X0086824Y0051900D01*
X0087391Y0052467D01*
X0087391Y0053034D01*
X0086824Y0053601D01*
X0086257Y0053601D01*
X0086824Y0053601D02*
X0087391Y0054169D01*
X0087391Y0054736D01*
X0086824Y0055303D01*
X0085690Y0055303D01*
X0085123Y0054736D01*
X0084608Y0061000D02*
X0082340Y0061000D01*
X0083474Y0061000D02*
X0083474Y0064403D01*
X0082340Y0063269D01*
X0080925Y0063836D02*
X0080925Y0062701D01*
X0080358Y0062134D01*
X0078657Y0062134D01*
X0079791Y0062134D02*
X0080925Y0061000D01*
X0078657Y0061000D02*
X0078657Y0064403D01*
X0080358Y0064403D01*
X0080925Y0063836D01*
X0086023Y0064403D02*
X0088291Y0064403D01*
X0088291Y0063836D01*
X0086023Y0061567D01*
X0086023Y0061000D01*
X0147169Y0054050D02*
X0147169Y0047750D01*
X0147165Y0047685D01*
X0147165Y0047619D01*
X0147169Y0047554D01*
X0147177Y0047488D01*
X0147189Y0047424D01*
X0147205Y0047360D01*
X0147224Y0047297D01*
X0147248Y0047236D01*
X0147275Y0047176D01*
X0147305Y0047118D01*
X0147339Y0047062D01*
X0147376Y0047008D01*
X0147417Y0046956D01*
X0147460Y0046907D01*
X0147507Y0046861D01*
X0147556Y0046817D01*
X0147608Y0046776D01*
X0147662Y0046739D01*
X0147718Y0046705D01*
X0147776Y0046675D01*
X0147836Y0046648D01*
X0147897Y0046624D01*
X0147960Y0046605D01*
X0148024Y0046589D01*
X0148088Y0046577D01*
X0148154Y0046569D01*
X0148153Y0046569D02*
X0154059Y0046569D01*
X0154122Y0046577D01*
X0154184Y0046588D01*
X0154246Y0046603D01*
X0154306Y0046621D01*
X0154366Y0046643D01*
X0154424Y0046668D01*
X0154480Y0046697D01*
X0154535Y0046728D01*
X0154588Y0046763D01*
X0154638Y0046801D01*
X0154687Y0046842D01*
X0154732Y0046886D01*
X0154776Y0046932D01*
X0154816Y0046980D01*
X0154854Y0047031D01*
X0154888Y0047084D01*
X0154920Y0047139D01*
X0154948Y0047196D01*
X0154973Y0047254D01*
X0154994Y0047313D01*
X0155012Y0047374D01*
X0155026Y0047436D01*
X0155037Y0047498D01*
X0155044Y0047561D01*
X0155048Y0047624D01*
X0155047Y0047687D01*
X0155043Y0047750D01*
X0155043Y0054050D01*
X0155046Y0054113D01*
X0155047Y0054176D01*
X0155043Y0054239D01*
X0155036Y0054302D01*
X0155025Y0054364D01*
X0155011Y0054426D01*
X0154993Y0054486D01*
X0154972Y0054546D01*
X0154947Y0054604D01*
X0154919Y0054661D01*
X0154887Y0054716D01*
X0154853Y0054768D01*
X0154815Y0054819D01*
X0154774Y0054868D01*
X0154731Y0054914D01*
X0154685Y0054958D01*
X0154637Y0054998D01*
X0154586Y0055036D01*
X0154534Y0055071D01*
X0154479Y0055103D01*
X0154423Y0055132D01*
X0154365Y0055157D01*
X0154305Y0055179D01*
X0154245Y0055197D01*
X0154183Y0055212D01*
X0154121Y0055223D01*
X0154058Y0055231D01*
X0154059Y0055231D02*
X0148153Y0055231D01*
X0148154Y0055231D02*
X0148088Y0055223D01*
X0148024Y0055211D01*
X0147960Y0055195D01*
X0147897Y0055176D01*
X0147836Y0055152D01*
X0147776Y0055125D01*
X0147718Y0055095D01*
X0147662Y0055061D01*
X0147608Y0055024D01*
X0147556Y0054983D01*
X0147507Y0054939D01*
X0147460Y0054893D01*
X0147417Y0054844D01*
X0147376Y0054792D01*
X0147339Y0054738D01*
X0147305Y0054682D01*
X0147275Y0054624D01*
X0147248Y0054564D01*
X0147224Y0054503D01*
X0147205Y0054440D01*
X0147189Y0054376D01*
X0147177Y0054312D01*
X0147169Y0054246D01*
X0147165Y0054181D01*
X0147165Y0054115D01*
X0147169Y0054050D01*
X0147134Y0045303D02*
X0146567Y0044736D01*
X0146567Y0044169D01*
X0147134Y0043601D01*
X0148268Y0043601D01*
X0148835Y0043034D01*
X0148835Y0042467D01*
X0148268Y0041900D01*
X0147134Y0041900D01*
X0146567Y0042467D01*
X0150250Y0042467D02*
X0150817Y0041900D01*
X0151384Y0041900D01*
X0151951Y0042467D01*
X0151951Y0045303D01*
X0151384Y0045303D02*
X0152518Y0045303D01*
X0153933Y0044169D02*
X0155067Y0045303D01*
X0155067Y0041900D01*
X0153933Y0041900D02*
X0156202Y0041900D01*
X0148835Y0044736D02*
X0148268Y0045303D01*
X0147134Y0045303D01*
X0163753Y0045700D02*
X0167156Y0045700D01*
X0167156Y0047969D01*
X0167156Y0049383D02*
X0167156Y0051652D01*
X0167156Y0053066D02*
X0167156Y0054768D01*
X0166589Y0055335D01*
X0164320Y0055335D01*
X0163753Y0054768D01*
X0163753Y0053066D01*
X0167156Y0053066D01*
X0165455Y0050517D02*
X0165455Y0049383D01*
X0167156Y0049383D02*
X0163753Y0049383D01*
X0163753Y0051652D01*
X0177203Y0050318D02*
X0177203Y0049184D01*
X0177770Y0048617D01*
X0180039Y0048617D01*
X0177770Y0050885D01*
X0180039Y0050885D01*
X0180606Y0050318D01*
X0180606Y0049184D01*
X0180039Y0048617D01*
X0180606Y0047202D02*
X0180606Y0044934D01*
X0180606Y0046068D02*
X0177203Y0046068D01*
X0178337Y0044934D01*
X0177770Y0043519D02*
X0178905Y0043519D01*
X0179472Y0042952D01*
X0179472Y0041251D01*
X0179472Y0042385D02*
X0180606Y0043519D01*
X0180606Y0041251D02*
X0177203Y0041251D01*
X0177203Y0042952D01*
X0177770Y0043519D01*
X0177203Y0050318D02*
X0177770Y0050885D01*
X0154957Y0026003D02*
X0154957Y0022600D01*
X0153823Y0022600D02*
X0156091Y0022600D01*
X0153823Y0024869D02*
X0154957Y0026003D01*
X0152408Y0025436D02*
X0151841Y0026003D01*
X0150140Y0026003D01*
X0150140Y0022600D01*
X0151841Y0022600D01*
X0152408Y0023167D01*
X0152408Y0025436D01*
X0153706Y0017503D02*
X0155407Y0017503D01*
X0155975Y0016936D01*
X0155975Y0015801D01*
X0155407Y0015234D01*
X0153706Y0015234D01*
X0153706Y0014100D02*
X0153706Y0017503D01*
X0157389Y0016369D02*
X0158523Y0017503D01*
X0158523Y0014100D01*
X0157389Y0014100D02*
X0159658Y0014100D01*
X0161072Y0014667D02*
X0161639Y0014100D01*
X0162774Y0014100D01*
X0163341Y0014667D01*
X0163341Y0016936D01*
X0162774Y0017503D01*
X0161639Y0017503D01*
X0161072Y0016936D01*
X0161072Y0016369D01*
X0161639Y0015801D01*
X0163341Y0015801D01*
X0168106Y0012000D02*
X0149106Y0012000D01*
X0148606Y0011500D01*
X0147106Y0011500D01*
X0147046Y0011502D01*
X0146985Y0011507D01*
X0146926Y0011516D01*
X0146867Y0011529D01*
X0146808Y0011545D01*
X0146751Y0011565D01*
X0146696Y0011588D01*
X0146641Y0011615D01*
X0146589Y0011644D01*
X0146538Y0011677D01*
X0146489Y0011713D01*
X0146443Y0011751D01*
X0146399Y0011793D01*
X0146357Y0011837D01*
X0146319Y0011883D01*
X0146283Y0011932D01*
X0146250Y0011983D01*
X0146221Y0012035D01*
X0146194Y0012090D01*
X0146171Y0012145D01*
X0146151Y0012202D01*
X0146135Y0012261D01*
X0146122Y0012320D01*
X0146113Y0012379D01*
X0146108Y0012440D01*
X0146106Y0012500D01*
X0154840Y0015234D02*
X0155975Y0014100D01*
X0168106Y0012000D02*
X0168606Y0011500D01*
X0170106Y0011500D01*
X0170166Y0011502D01*
X0170227Y0011507D01*
X0170286Y0011516D01*
X0170345Y0011529D01*
X0170404Y0011545D01*
X0170461Y0011565D01*
X0170516Y0011588D01*
X0170571Y0011615D01*
X0170623Y0011644D01*
X0170674Y0011677D01*
X0170723Y0011713D01*
X0170769Y0011751D01*
X0170813Y0011793D01*
X0170855Y0011837D01*
X0170893Y0011883D01*
X0170929Y0011932D01*
X0170962Y0011983D01*
X0170991Y0012035D01*
X0171018Y0012090D01*
X0171041Y0012145D01*
X0171061Y0012202D01*
X0171077Y0012261D01*
X0171090Y0012320D01*
X0171099Y0012379D01*
X0171104Y0012440D01*
X0171106Y0012500D01*
X0171106Y0019500D02*
X0171104Y0019560D01*
X0171099Y0019621D01*
X0171090Y0019680D01*
X0171077Y0019739D01*
X0171061Y0019798D01*
X0171041Y0019855D01*
X0171018Y0019910D01*
X0170991Y0019965D01*
X0170962Y0020017D01*
X0170929Y0020068D01*
X0170893Y0020117D01*
X0170855Y0020163D01*
X0170813Y0020207D01*
X0170769Y0020249D01*
X0170723Y0020287D01*
X0170674Y0020323D01*
X0170623Y0020356D01*
X0170571Y0020385D01*
X0170516Y0020412D01*
X0170461Y0020435D01*
X0170404Y0020455D01*
X0170345Y0020471D01*
X0170286Y0020484D01*
X0170227Y0020493D01*
X0170166Y0020498D01*
X0170106Y0020500D01*
X0168606Y0020500D01*
X0168106Y0020000D01*
X0185916Y0017493D02*
X0185916Y0015225D01*
X0186483Y0014657D01*
X0187617Y0014657D01*
X0188184Y0015225D01*
X0189599Y0014657D02*
X0189599Y0018060D01*
X0191867Y0014657D01*
X0191867Y0018060D01*
X0193282Y0016926D02*
X0194416Y0018060D01*
X0194416Y0014657D01*
X0193282Y0014657D02*
X0195551Y0014657D01*
X0188184Y0017493D02*
X0187617Y0018060D01*
X0186483Y0018060D01*
X0185916Y0017493D01*
X0127006Y0019500D02*
X0127004Y0019560D01*
X0126999Y0019621D01*
X0126990Y0019680D01*
X0126977Y0019739D01*
X0126961Y0019798D01*
X0126941Y0019855D01*
X0126918Y0019910D01*
X0126891Y0019965D01*
X0126862Y0020017D01*
X0126829Y0020068D01*
X0126793Y0020117D01*
X0126755Y0020163D01*
X0126713Y0020207D01*
X0126669Y0020249D01*
X0126623Y0020287D01*
X0126574Y0020323D01*
X0126523Y0020356D01*
X0126471Y0020385D01*
X0126416Y0020412D01*
X0126361Y0020435D01*
X0126304Y0020455D01*
X0126245Y0020471D01*
X0126186Y0020484D01*
X0126127Y0020493D01*
X0126066Y0020498D01*
X0126006Y0020500D01*
X0119241Y0016836D02*
X0119241Y0016269D01*
X0118674Y0015701D01*
X0117539Y0015701D01*
X0116972Y0016269D01*
X0116972Y0016836D01*
X0117539Y0017403D01*
X0118674Y0017403D01*
X0119241Y0016836D01*
X0118674Y0015701D02*
X0119241Y0015134D01*
X0119241Y0014567D01*
X0118674Y0014000D01*
X0117539Y0014000D01*
X0116972Y0014567D01*
X0116972Y0015134D01*
X0117539Y0015701D01*
X0115558Y0014000D02*
X0113289Y0014000D01*
X0114423Y0014000D02*
X0114423Y0017403D01*
X0113289Y0016269D01*
X0111875Y0016836D02*
X0111875Y0015701D01*
X0111307Y0015134D01*
X0109606Y0015134D01*
X0109606Y0014000D02*
X0109606Y0017403D01*
X0111307Y0017403D01*
X0111875Y0016836D01*
X0110740Y0015134D02*
X0111875Y0014000D01*
X0105006Y0012000D02*
X0124006Y0012000D01*
X0124506Y0011500D01*
X0126006Y0011500D01*
X0126066Y0011502D01*
X0126127Y0011507D01*
X0126186Y0011516D01*
X0126245Y0011529D01*
X0126304Y0011545D01*
X0126361Y0011565D01*
X0126416Y0011588D01*
X0126471Y0011615D01*
X0126523Y0011644D01*
X0126574Y0011677D01*
X0126623Y0011713D01*
X0126669Y0011751D01*
X0126713Y0011793D01*
X0126755Y0011837D01*
X0126793Y0011883D01*
X0126829Y0011932D01*
X0126862Y0011983D01*
X0126891Y0012035D01*
X0126918Y0012090D01*
X0126941Y0012145D01*
X0126961Y0012202D01*
X0126977Y0012261D01*
X0126990Y0012320D01*
X0126999Y0012379D01*
X0127004Y0012440D01*
X0127006Y0012500D01*
X0115391Y0022267D02*
X0114824Y0021700D01*
X0113690Y0021700D01*
X0113123Y0022267D01*
X0113123Y0023401D01*
X0114824Y0023401D01*
X0115391Y0022834D01*
X0115391Y0022267D01*
X0113123Y0023401D02*
X0114257Y0024536D01*
X0115391Y0025103D01*
X0111708Y0024536D02*
X0111708Y0023401D01*
X0111141Y0022834D01*
X0109440Y0022834D01*
X0109440Y0021700D02*
X0109440Y0025103D01*
X0111141Y0025103D01*
X0111708Y0024536D01*
X0110574Y0022834D02*
X0111708Y0021700D01*
X0102006Y0012500D02*
X0102008Y0012440D01*
X0102013Y0012379D01*
X0102022Y0012320D01*
X0102035Y0012261D01*
X0102051Y0012202D01*
X0102071Y0012145D01*
X0102094Y0012090D01*
X0102121Y0012035D01*
X0102150Y0011983D01*
X0102183Y0011932D01*
X0102219Y0011883D01*
X0102257Y0011837D01*
X0102299Y0011793D01*
X0102343Y0011751D01*
X0102389Y0011713D01*
X0102438Y0011677D01*
X0102489Y0011644D01*
X0102541Y0011615D01*
X0102596Y0011588D01*
X0102651Y0011565D01*
X0102708Y0011545D01*
X0102767Y0011529D01*
X0102826Y0011516D01*
X0102885Y0011507D01*
X0102946Y0011502D01*
X0103006Y0011500D01*
X0104506Y0011500D01*
X0105006Y0012000D01*
D16*
X0102181Y0040287D02*
X0102183Y0040350D01*
X0102189Y0040412D01*
X0102199Y0040474D01*
X0102212Y0040536D01*
X0102230Y0040596D01*
X0102251Y0040655D01*
X0102276Y0040713D01*
X0102305Y0040769D01*
X0102337Y0040823D01*
X0102372Y0040875D01*
X0102410Y0040924D01*
X0102452Y0040972D01*
X0102496Y0041016D01*
X0102544Y0041058D01*
X0102593Y0041096D01*
X0102645Y0041131D01*
X0102699Y0041163D01*
X0102755Y0041192D01*
X0102813Y0041217D01*
X0102872Y0041238D01*
X0102932Y0041256D01*
X0102994Y0041269D01*
X0103056Y0041279D01*
X0103118Y0041285D01*
X0103181Y0041287D01*
X0103244Y0041285D01*
X0103306Y0041279D01*
X0103368Y0041269D01*
X0103430Y0041256D01*
X0103490Y0041238D01*
X0103549Y0041217D01*
X0103607Y0041192D01*
X0103663Y0041163D01*
X0103717Y0041131D01*
X0103769Y0041096D01*
X0103818Y0041058D01*
X0103866Y0041016D01*
X0103910Y0040972D01*
X0103952Y0040924D01*
X0103990Y0040875D01*
X0104025Y0040823D01*
X0104057Y0040769D01*
X0104086Y0040713D01*
X0104111Y0040655D01*
X0104132Y0040596D01*
X0104150Y0040536D01*
X0104163Y0040474D01*
X0104173Y0040412D01*
X0104179Y0040350D01*
X0104181Y0040287D01*
X0104179Y0040224D01*
X0104173Y0040162D01*
X0104163Y0040100D01*
X0104150Y0040038D01*
X0104132Y0039978D01*
X0104111Y0039919D01*
X0104086Y0039861D01*
X0104057Y0039805D01*
X0104025Y0039751D01*
X0103990Y0039699D01*
X0103952Y0039650D01*
X0103910Y0039602D01*
X0103866Y0039558D01*
X0103818Y0039516D01*
X0103769Y0039478D01*
X0103717Y0039443D01*
X0103663Y0039411D01*
X0103607Y0039382D01*
X0103549Y0039357D01*
X0103490Y0039336D01*
X0103430Y0039318D01*
X0103368Y0039305D01*
X0103306Y0039295D01*
X0103244Y0039289D01*
X0103181Y0039287D01*
X0103118Y0039289D01*
X0103056Y0039295D01*
X0102994Y0039305D01*
X0102932Y0039318D01*
X0102872Y0039336D01*
X0102813Y0039357D01*
X0102755Y0039382D01*
X0102699Y0039411D01*
X0102645Y0039443D01*
X0102593Y0039478D01*
X0102544Y0039516D01*
X0102496Y0039558D01*
X0102452Y0039602D01*
X0102410Y0039650D01*
X0102372Y0039699D01*
X0102337Y0039751D01*
X0102305Y0039805D01*
X0102276Y0039861D01*
X0102251Y0039919D01*
X0102230Y0039978D01*
X0102212Y0040038D01*
X0102199Y0040100D01*
X0102189Y0040162D01*
X0102183Y0040224D01*
X0102181Y0040287D01*
D17*
X0101502Y0046400D02*
X0101502Y0047801D01*
X0101502Y0047101D02*
X0105706Y0047101D01*
X0105706Y0047801D02*
X0105706Y0046400D01*
X0105005Y0049469D02*
X0102203Y0049469D01*
X0101502Y0050170D01*
X0101502Y0051571D01*
X0102203Y0052272D01*
X0102904Y0054073D02*
X0101502Y0055474D01*
X0105706Y0055474D01*
X0105706Y0054073D02*
X0105706Y0056876D01*
X0105005Y0052272D02*
X0105706Y0051571D01*
X0105706Y0050170D01*
X0105005Y0049469D01*
X0051304Y0064200D02*
X0048502Y0064200D01*
X0049903Y0064200D02*
X0049903Y0068404D01*
X0048502Y0067002D01*
X0046701Y0067002D02*
X0046701Y0064200D01*
X0043898Y0064200D02*
X0043898Y0067002D01*
X0045299Y0068404D01*
X0046701Y0067002D01*
X0046701Y0066302D02*
X0043898Y0066302D01*
M02*
