%
M48
M72
T01C0.01200
T02C0.02559
T03C0.07874
T04C0.08268
%
T01
X45018Y30833
X57518Y27083
X62518Y27083
X72518Y30833
X80018Y30833
X78768Y42083
X76268Y50833
X68768Y47083
X78768Y58333
X81268Y60833
X77518Y63333
X75018Y64583
X80018Y72083
X85018Y70833
X92518Y74583
X95018Y75833
X94910Y79692
X95018Y84583
X103660Y79692
X108768Y79583
X112518Y78333
X110018Y85833
X107518Y89583
X103768Y92083
X115018Y93333
X106268Y67083
X97518Y65833
X97518Y57083
X97518Y52083
X96268Y49583
X93768Y47083
X93768Y42083
X93768Y37083
X102518Y30833
X107518Y35833
X110018Y39583
X115018Y34583
X120018Y37083
X106268Y54583
X87518Y57083
X65018Y68333
X60018Y70833
X60018Y74583
X62518Y79583
X71268Y77083
X76268Y82083
X72518Y90833
X76268Y92083
X58768Y97083
X52518Y93333
X47518Y94583
X42518Y83333
X46268Y77083
X47518Y74583
X52518Y74583
X51268Y70833
X45018Y63333
X45018Y58333
X45018Y53333
X52518Y50833
X45018Y45833
X36268Y74583
T02
X35018Y60833
X35018Y55833
X30018Y55833
X30018Y60833
X30018Y50833
X30018Y45833
X30018Y40833
X35018Y40833
X35018Y45833
X35018Y50833
X50018Y20833
X55018Y20833
X60018Y20833
X65018Y20833
X70018Y20833
X75018Y20833
X80018Y20833
X85018Y20833
X90018Y20833
X95018Y20833
X95018Y100833
X90018Y100833
X85018Y100833
X80018Y100833
X75018Y100833
X70018Y100833
X65018Y100833
X60018Y100833
X55018Y100833
X50018Y100833
T03
X34486Y96266
T04
X34486Y25400
M30
