G75*
%MOIN*%
%OFA0B0*%
%FSLAX25Y25*%
%IPPOS*%
%LPD*%
%AMOC8*
5,1,8,0,0,1.08239X$1,22.5*
%
%ADD10C,0.03839*%
%ADD11C,0.17717*%
%ADD12C,0.02184*%
%ADD13C,0.01200*%
%ADD14C,0.00800*%
%ADD15C,0.00787*%
D10*
X0050018Y0020833D03*
X0055018Y0020833D03*
X0060018Y0020833D03*
X0065018Y0020833D03*
X0070018Y0020833D03*
X0075018Y0020833D03*
X0080018Y0020833D03*
X0085018Y0020833D03*
X0090018Y0020833D03*
X0095018Y0020833D03*
X0035018Y0040833D03*
X0030018Y0040833D03*
X0030018Y0045833D03*
X0035018Y0045833D03*
X0035018Y0050833D03*
X0030018Y0050833D03*
X0030018Y0055833D03*
X0035018Y0055833D03*
X0035018Y0060833D03*
X0030018Y0060833D03*
X0050018Y0100833D03*
X0055018Y0100833D03*
X0060018Y0100833D03*
X0065018Y0100833D03*
X0070018Y0100833D03*
X0075018Y0100833D03*
X0080018Y0100833D03*
X0085018Y0100833D03*
X0090018Y0100833D03*
X0095018Y0100833D03*
D11*
X0034486Y0096266D03*
X0034486Y0025400D03*
D12*
X0045018Y0030833D03*
X0057518Y0027083D03*
X0062518Y0027083D03*
X0072518Y0030833D03*
X0080018Y0030833D03*
X0078768Y0042083D03*
X0076268Y0050833D03*
X0068768Y0047083D03*
X0078768Y0058333D03*
X0081268Y0060833D03*
X0077518Y0063333D03*
X0075018Y0064583D03*
X0080018Y0072083D03*
X0085018Y0070833D03*
X0092518Y0074583D03*
X0095018Y0075833D03*
X0094910Y0079692D03*
X0095018Y0084583D03*
X0103660Y0079692D03*
X0108768Y0079583D03*
X0112518Y0078333D03*
X0110018Y0085833D03*
X0107518Y0089583D03*
X0103768Y0092083D03*
X0115018Y0093333D03*
X0106268Y0067083D03*
X0097518Y0065833D03*
X0097518Y0057083D03*
X0097518Y0052083D03*
X0096268Y0049583D03*
X0093768Y0047083D03*
X0093768Y0042083D03*
X0093768Y0037083D03*
X0102518Y0030833D03*
X0107518Y0035833D03*
X0110018Y0039583D03*
X0115018Y0034583D03*
X0120018Y0037083D03*
X0106268Y0054583D03*
X0087518Y0057083D03*
X0065018Y0068333D03*
X0060018Y0070833D03*
X0060018Y0074583D03*
X0062518Y0079583D03*
X0071268Y0077083D03*
X0076268Y0082083D03*
X0072518Y0090833D03*
X0076268Y0092083D03*
X0058768Y0097083D03*
X0052518Y0093333D03*
X0047518Y0094583D03*
X0042518Y0083333D03*
X0046268Y0077083D03*
X0047518Y0074583D03*
X0052518Y0074583D03*
X0051268Y0070833D03*
X0045018Y0063333D03*
X0045018Y0058333D03*
X0045018Y0053333D03*
X0052518Y0050833D03*
X0045018Y0045833D03*
X0036268Y0074583D03*
D13*
X0024299Y0024308D02*
X0024299Y0015114D01*
X0124880Y0015114D01*
X0124880Y0106040D01*
X0037575Y0106040D01*
X0038413Y0105747D01*
X0039450Y0105248D01*
X0040425Y0104636D01*
X0041324Y0103918D01*
X0042138Y0103104D01*
X0042855Y0102205D01*
X0043468Y0101230D01*
X0043967Y0100193D01*
X0044347Y0099107D01*
X0044603Y0097985D01*
X0044729Y0096866D01*
X0035086Y0096866D01*
X0035086Y0095666D01*
X0035086Y0086023D01*
X0036205Y0086150D01*
X0037327Y0086406D01*
X0038413Y0086786D01*
X0039450Y0087285D01*
X0040425Y0087897D01*
X0041324Y0088615D01*
X0042138Y0089428D01*
X0042855Y0090328D01*
X0043468Y0091303D01*
X0043967Y0092339D01*
X0044347Y0093426D01*
X0044603Y0094547D01*
X0044729Y0095666D01*
X0035086Y0095666D01*
X0033886Y0095666D01*
X0033886Y0086023D01*
X0032767Y0086150D01*
X0031645Y0086406D01*
X0030559Y0086786D01*
X0029522Y0087285D01*
X0028548Y0087897D01*
X0027648Y0088615D01*
X0026835Y0089428D01*
X0026117Y0090328D01*
X0025505Y0091303D01*
X0025006Y0092339D01*
X0024626Y0093426D01*
X0024369Y0094547D01*
X0024299Y0095174D01*
X0024299Y0065443D01*
X0028018Y0069162D01*
X0029189Y0070333D01*
X0048576Y0070333D01*
X0048576Y0071369D01*
X0048945Y0072261D01*
X0048053Y0071891D01*
X0046982Y0071891D01*
X0045993Y0072301D01*
X0045236Y0073058D01*
X0044826Y0074048D01*
X0044826Y0074767D01*
X0044743Y0074801D01*
X0043986Y0075558D01*
X0043576Y0076548D01*
X0043576Y0077619D01*
X0043986Y0078608D01*
X0044743Y0079366D01*
X0045732Y0079775D01*
X0046803Y0079775D01*
X0047793Y0079366D01*
X0048075Y0079083D01*
X0059826Y0079083D01*
X0059826Y0080119D01*
X0060236Y0081108D01*
X0060993Y0081866D01*
X0061982Y0082275D01*
X0063053Y0082275D01*
X0064043Y0081866D01*
X0064800Y0081108D01*
X0065210Y0080119D01*
X0065210Y0079083D01*
X0069461Y0079083D01*
X0069743Y0079366D01*
X0070732Y0079775D01*
X0071803Y0079775D01*
X0072793Y0079366D01*
X0073550Y0078608D01*
X0073960Y0077619D01*
X0073960Y0076548D01*
X0073550Y0075558D01*
X0072793Y0074801D01*
X0071803Y0074391D01*
X0070732Y0074391D01*
X0069743Y0074801D01*
X0069461Y0075083D01*
X0062710Y0075083D01*
X0062710Y0074048D01*
X0062300Y0073058D01*
X0061950Y0072708D01*
X0062300Y0072358D01*
X0062710Y0071369D01*
X0062710Y0070333D01*
X0063211Y0070333D01*
X0063493Y0070616D01*
X0064482Y0071025D01*
X0065553Y0071025D01*
X0066543Y0070616D01*
X0067300Y0069858D01*
X0067710Y0068869D01*
X0067710Y0067798D01*
X0067300Y0066808D01*
X0067075Y0066583D01*
X0073211Y0066583D01*
X0073493Y0066866D01*
X0074482Y0067275D01*
X0075553Y0067275D01*
X0076543Y0066866D01*
X0077300Y0066108D01*
X0077334Y0066025D01*
X0078053Y0066025D01*
X0079043Y0065616D01*
X0079800Y0064858D01*
X0080210Y0063869D01*
X0080210Y0063309D01*
X0080732Y0063525D01*
X0081803Y0063525D01*
X0082793Y0063116D01*
X0083550Y0062358D01*
X0083960Y0061369D01*
X0083960Y0060298D01*
X0083550Y0059308D01*
X0082793Y0058551D01*
X0081803Y0058141D01*
X0081460Y0058141D01*
X0081460Y0057798D01*
X0081050Y0056808D01*
X0080293Y0056051D01*
X0079303Y0055641D01*
X0078232Y0055641D01*
X0077243Y0056051D01*
X0076961Y0056333D01*
X0046825Y0056333D01*
X0046543Y0056051D01*
X0046017Y0055833D01*
X0046543Y0055616D01*
X0047300Y0054858D01*
X0047710Y0053869D01*
X0047710Y0052798D01*
X0047300Y0051808D01*
X0046543Y0051051D01*
X0045553Y0050641D01*
X0044482Y0050641D01*
X0043493Y0051051D01*
X0042736Y0051808D01*
X0042326Y0052798D01*
X0042326Y0053197D01*
X0041689Y0053833D01*
X0040518Y0055005D01*
X0040518Y0058505D01*
X0038537Y0056524D01*
X0038537Y0055133D01*
X0038001Y0053840D01*
X0037495Y0053333D01*
X0038001Y0052827D01*
X0038537Y0051533D01*
X0038537Y0050133D01*
X0038001Y0048840D01*
X0037344Y0048183D01*
X0037586Y0047941D01*
X0037948Y0047400D01*
X0038197Y0046798D01*
X0038324Y0046159D01*
X0038324Y0045873D01*
X0035058Y0045873D01*
X0035058Y0045794D01*
X0038324Y0045794D01*
X0038324Y0045508D01*
X0038197Y0044869D01*
X0037948Y0044267D01*
X0037586Y0043725D01*
X0037344Y0043484D01*
X0038001Y0042827D01*
X0038537Y0041533D01*
X0038537Y0040133D01*
X0038001Y0038840D01*
X0037011Y0037850D01*
X0035718Y0037314D01*
X0034318Y0037314D01*
X0033024Y0037850D01*
X0032518Y0038356D01*
X0032011Y0037850D01*
X0030718Y0037314D01*
X0029318Y0037314D01*
X0028024Y0037850D01*
X0027034Y0038840D01*
X0026499Y0040133D01*
X0026499Y0041533D01*
X0027034Y0042827D01*
X0027691Y0043484D01*
X0027449Y0043725D01*
X0027087Y0044267D01*
X0026838Y0044869D01*
X0026711Y0045508D01*
X0026711Y0045794D01*
X0029978Y0045794D01*
X0029978Y0045873D01*
X0026711Y0045873D01*
X0026711Y0046159D01*
X0026838Y0046798D01*
X0027087Y0047400D01*
X0027449Y0047941D01*
X0027691Y0048183D01*
X0027034Y0048840D01*
X0026499Y0050133D01*
X0026499Y0051533D01*
X0027034Y0052827D01*
X0027541Y0053333D01*
X0027041Y0053833D01*
X0026689Y0053833D01*
X0024299Y0056224D01*
X0024299Y0026493D01*
X0024369Y0027119D01*
X0024626Y0028241D01*
X0025006Y0029327D01*
X0025505Y0030364D01*
X0026117Y0031338D01*
X0026835Y0032238D01*
X0027648Y0033052D01*
X0028548Y0033769D01*
X0029522Y0034382D01*
X0030559Y0034881D01*
X0031645Y0035261D01*
X0032767Y0035517D01*
X0033886Y0035643D01*
X0033886Y0026000D01*
X0035086Y0026000D01*
X0035086Y0035643D01*
X0036205Y0035517D01*
X0037327Y0035261D01*
X0038413Y0034881D01*
X0039450Y0034382D01*
X0040425Y0033769D01*
X0041324Y0033052D01*
X0042138Y0032238D01*
X0042650Y0031596D01*
X0042820Y0032008D01*
X0043092Y0032414D01*
X0043437Y0032759D01*
X0043843Y0033031D01*
X0044295Y0033218D01*
X0044774Y0033313D01*
X0045018Y0033313D01*
X0045018Y0030833D01*
X0045018Y0028354D01*
X0045262Y0028354D01*
X0045741Y0028449D01*
X0046192Y0028636D01*
X0046598Y0028907D01*
X0046944Y0029253D01*
X0047215Y0029659D01*
X0047402Y0030110D01*
X0047497Y0030589D01*
X0047497Y0030833D01*
X0045018Y0030833D01*
X0045018Y0030833D01*
X0045018Y0030833D01*
X0045018Y0028354D01*
X0044774Y0028354D01*
X0044295Y0028449D01*
X0044271Y0028459D01*
X0044347Y0028241D01*
X0044603Y0027119D01*
X0044729Y0026000D01*
X0035086Y0026000D01*
X0035086Y0024800D01*
X0035086Y0015157D01*
X0036205Y0015283D01*
X0037327Y0015540D01*
X0038413Y0015920D01*
X0039450Y0016419D01*
X0040425Y0017031D01*
X0041324Y0017749D01*
X0042138Y0018562D01*
X0042855Y0019462D01*
X0043468Y0020436D01*
X0043967Y0021473D01*
X0044347Y0022559D01*
X0044603Y0023681D01*
X0044729Y0024800D01*
X0035086Y0024800D01*
X0033886Y0024800D01*
X0033886Y0015157D01*
X0032767Y0015283D01*
X0031645Y0015540D01*
X0030559Y0015920D01*
X0029522Y0016419D01*
X0028548Y0017031D01*
X0027648Y0017749D01*
X0026835Y0018562D01*
X0026117Y0019462D01*
X0025505Y0020436D01*
X0025006Y0021473D01*
X0024626Y0022559D01*
X0024369Y0023681D01*
X0024299Y0024308D01*
X0024299Y0024120D02*
X0024320Y0024120D01*
X0024299Y0022921D02*
X0024543Y0022921D01*
X0024299Y0021723D02*
X0024918Y0021723D01*
X0025463Y0020524D02*
X0024299Y0020524D01*
X0024299Y0019326D02*
X0026226Y0019326D01*
X0027270Y0018127D02*
X0024299Y0018127D01*
X0024299Y0016929D02*
X0028711Y0016929D01*
X0031100Y0015730D02*
X0024299Y0015730D01*
X0033886Y0015730D02*
X0035086Y0015730D01*
X0035086Y0016929D02*
X0033886Y0016929D01*
X0033886Y0018127D02*
X0035086Y0018127D01*
X0035086Y0019326D02*
X0033886Y0019326D01*
X0033886Y0020524D02*
X0035086Y0020524D01*
X0035086Y0021723D02*
X0033886Y0021723D01*
X0033886Y0022921D02*
X0035086Y0022921D01*
X0035086Y0024120D02*
X0033886Y0024120D01*
X0035086Y0025318D02*
X0055475Y0025318D01*
X0055236Y0025558D02*
X0055993Y0024801D01*
X0056982Y0024391D01*
X0057381Y0024391D01*
X0057990Y0023783D01*
X0057518Y0023310D01*
X0057011Y0023817D01*
X0055718Y0024353D01*
X0054318Y0024353D01*
X0053024Y0023817D01*
X0052518Y0023310D01*
X0052011Y0023817D01*
X0050718Y0024353D01*
X0049318Y0024353D01*
X0048024Y0023817D01*
X0047034Y0022827D01*
X0046499Y0021533D01*
X0046499Y0020133D01*
X0047034Y0018840D01*
X0048024Y0017850D01*
X0049318Y0017314D01*
X0050718Y0017314D01*
X0052011Y0017850D01*
X0052518Y0018356D01*
X0053024Y0017850D01*
X0054318Y0017314D01*
X0055718Y0017314D01*
X0057011Y0017850D01*
X0057518Y0018356D01*
X0058024Y0017850D01*
X0059318Y0017314D01*
X0060718Y0017314D01*
X0062011Y0017850D01*
X0062518Y0018356D01*
X0063024Y0017850D01*
X0064318Y0017314D01*
X0065718Y0017314D01*
X0067011Y0017850D01*
X0067518Y0018356D01*
X0068024Y0017850D01*
X0069318Y0017314D01*
X0070718Y0017314D01*
X0072011Y0017850D01*
X0072518Y0018356D01*
X0073024Y0017850D01*
X0074318Y0017314D01*
X0075718Y0017314D01*
X0077011Y0017850D01*
X0077518Y0018356D01*
X0078024Y0017850D01*
X0079318Y0017314D01*
X0080718Y0017314D01*
X0082011Y0017850D01*
X0082518Y0018356D01*
X0083024Y0017850D01*
X0084318Y0017314D01*
X0085718Y0017314D01*
X0087011Y0017850D01*
X0087518Y0018356D01*
X0088024Y0017850D01*
X0089318Y0017314D01*
X0090718Y0017314D01*
X0092011Y0017850D01*
X0092518Y0018356D01*
X0093024Y0017850D01*
X0094318Y0017314D01*
X0095718Y0017314D01*
X0097011Y0017850D01*
X0098001Y0018840D01*
X0098537Y0020133D01*
X0098537Y0021533D01*
X0098001Y0022827D01*
X0097011Y0023817D01*
X0095718Y0024353D01*
X0094318Y0024353D01*
X0093024Y0023817D01*
X0092518Y0023310D01*
X0092011Y0023817D01*
X0090718Y0024353D01*
X0089318Y0024353D01*
X0088024Y0023817D01*
X0087518Y0023310D01*
X0087018Y0023810D01*
X0087018Y0026662D01*
X0085846Y0027833D01*
X0084596Y0029083D01*
X0082075Y0029083D01*
X0082300Y0029308D01*
X0082710Y0030298D01*
X0082710Y0031369D01*
X0082300Y0032358D01*
X0081543Y0033116D01*
X0080553Y0033525D01*
X0079482Y0033525D01*
X0078493Y0033116D01*
X0077736Y0032358D01*
X0077326Y0031369D01*
X0077326Y0030298D01*
X0077736Y0029308D01*
X0077961Y0029083D01*
X0074274Y0029083D01*
X0074444Y0029253D01*
X0074715Y0029659D01*
X0074902Y0030110D01*
X0074997Y0030589D01*
X0074997Y0030833D01*
X0072518Y0030833D01*
X0072518Y0030833D01*
X0074997Y0030833D01*
X0074997Y0031078D01*
X0074902Y0031557D01*
X0074715Y0032008D01*
X0074444Y0032414D01*
X0074098Y0032759D01*
X0073692Y0033031D01*
X0073241Y0033218D01*
X0072762Y0033313D01*
X0072518Y0033313D01*
X0072518Y0030833D01*
X0070038Y0030833D01*
X0070038Y0030589D01*
X0070134Y0030110D01*
X0070320Y0029659D01*
X0070592Y0029253D01*
X0070761Y0029083D01*
X0064325Y0029083D01*
X0064043Y0029366D01*
X0063053Y0029775D01*
X0061982Y0029775D01*
X0060993Y0029366D01*
X0060236Y0028608D01*
X0060018Y0028083D01*
X0059800Y0028608D01*
X0059043Y0029366D01*
X0058053Y0029775D01*
X0056982Y0029775D01*
X0055993Y0029366D01*
X0055236Y0028608D01*
X0054826Y0027619D01*
X0054826Y0026548D01*
X0055236Y0025558D01*
X0054838Y0026517D02*
X0044671Y0026517D01*
X0044467Y0027715D02*
X0054866Y0027715D01*
X0055541Y0028914D02*
X0046605Y0028914D01*
X0047403Y0030112D02*
X0070133Y0030112D01*
X0070038Y0030833D02*
X0072518Y0030833D01*
X0072518Y0030833D01*
X0072518Y0030833D01*
X0072518Y0033313D01*
X0072274Y0033313D01*
X0071795Y0033218D01*
X0071343Y0033031D01*
X0070937Y0032759D01*
X0070592Y0032414D01*
X0070320Y0032008D01*
X0070134Y0031557D01*
X0070038Y0031078D01*
X0070038Y0030833D01*
X0070085Y0031311D02*
X0047451Y0031311D01*
X0047497Y0031078D02*
X0047402Y0031557D01*
X0047215Y0032008D01*
X0046944Y0032414D01*
X0046598Y0032759D01*
X0046192Y0033031D01*
X0045741Y0033218D01*
X0045262Y0033313D01*
X0045018Y0033313D01*
X0045018Y0030833D01*
X0047497Y0030833D01*
X0047497Y0031078D01*
X0046848Y0032510D02*
X0070687Y0032510D01*
X0072518Y0032510D02*
X0072518Y0032510D01*
X0072518Y0031311D02*
X0072518Y0031311D01*
X0074348Y0032510D02*
X0077887Y0032510D01*
X0077326Y0031311D02*
X0074951Y0031311D01*
X0074903Y0030112D02*
X0077402Y0030112D01*
X0082633Y0030112D02*
X0100133Y0030112D01*
X0100134Y0030110D02*
X0100320Y0029659D01*
X0100592Y0029253D01*
X0100937Y0028907D01*
X0101343Y0028636D01*
X0101795Y0028449D01*
X0102274Y0028354D01*
X0102518Y0028354D01*
X0102762Y0028354D01*
X0103241Y0028449D01*
X0103692Y0028636D01*
X0104098Y0028907D01*
X0104444Y0029253D01*
X0104715Y0029659D01*
X0104902Y0030110D01*
X0104997Y0030589D01*
X0104997Y0030833D01*
X0102518Y0030833D01*
X0102518Y0028354D01*
X0102518Y0030833D01*
X0102518Y0030833D01*
X0102518Y0030833D01*
X0104997Y0030833D01*
X0104997Y0031078D01*
X0104902Y0031557D01*
X0104715Y0032008D01*
X0104444Y0032414D01*
X0104098Y0032759D01*
X0103692Y0033031D01*
X0103241Y0033218D01*
X0102762Y0033313D01*
X0102518Y0033313D01*
X0102518Y0030833D01*
X0100038Y0030833D01*
X0100038Y0030589D01*
X0100134Y0030110D01*
X0100038Y0030833D02*
X0102518Y0030833D01*
X0102518Y0030833D01*
X0102518Y0030833D01*
X0102518Y0033313D01*
X0102274Y0033313D01*
X0101795Y0033218D01*
X0101343Y0033031D01*
X0100937Y0032759D01*
X0100592Y0032414D01*
X0100320Y0032008D01*
X0100134Y0031557D01*
X0100038Y0031078D01*
X0100038Y0030833D01*
X0100085Y0031311D02*
X0082710Y0031311D01*
X0082149Y0032510D02*
X0100687Y0032510D01*
X0102518Y0032510D02*
X0102518Y0032510D01*
X0102518Y0031311D02*
X0102518Y0031311D01*
X0102518Y0030112D02*
X0102518Y0030112D01*
X0102518Y0028914D02*
X0102518Y0028914D01*
X0104105Y0028914D02*
X0124880Y0028914D01*
X0124880Y0030112D02*
X0104903Y0030112D01*
X0104951Y0031311D02*
X0124880Y0031311D01*
X0124880Y0032510D02*
X0116751Y0032510D01*
X0116543Y0032301D02*
X0117300Y0033058D01*
X0117710Y0034048D01*
X0117710Y0035119D01*
X0117300Y0036108D01*
X0116543Y0036866D01*
X0115553Y0037275D01*
X0114482Y0037275D01*
X0113493Y0036866D01*
X0112736Y0036108D01*
X0112326Y0035119D01*
X0112326Y0034048D01*
X0112736Y0033058D01*
X0113493Y0032301D01*
X0114482Y0031891D01*
X0115553Y0031891D01*
X0116543Y0032301D01*
X0117569Y0033708D02*
X0124880Y0033708D01*
X0124880Y0034907D02*
X0121648Y0034907D01*
X0121543Y0034801D02*
X0122300Y0035558D01*
X0122710Y0036548D01*
X0122710Y0037619D01*
X0122300Y0038608D01*
X0121543Y0039366D01*
X0120553Y0039775D01*
X0119482Y0039775D01*
X0118493Y0039366D01*
X0117736Y0038608D01*
X0117326Y0037619D01*
X0117326Y0036548D01*
X0117736Y0035558D01*
X0118493Y0034801D01*
X0119482Y0034391D01*
X0120553Y0034391D01*
X0121543Y0034801D01*
X0122527Y0036105D02*
X0124880Y0036105D01*
X0124880Y0037304D02*
X0122710Y0037304D01*
X0122344Y0038502D02*
X0124880Y0038502D01*
X0124880Y0039701D02*
X0120734Y0039701D01*
X0119302Y0039701D02*
X0112710Y0039701D01*
X0112710Y0040119D02*
X0112300Y0041108D01*
X0111543Y0041866D01*
X0110553Y0042275D01*
X0109482Y0042275D01*
X0108493Y0041866D01*
X0107736Y0041108D01*
X0107326Y0040119D01*
X0107326Y0039048D01*
X0107542Y0038525D01*
X0106982Y0038525D01*
X0105993Y0038116D01*
X0105236Y0037358D01*
X0104826Y0036369D01*
X0104826Y0035298D01*
X0105236Y0034308D01*
X0105993Y0033551D01*
X0106982Y0033141D01*
X0108053Y0033141D01*
X0109043Y0033551D01*
X0109800Y0034308D01*
X0110210Y0035298D01*
X0110210Y0036369D01*
X0109994Y0036891D01*
X0110553Y0036891D01*
X0111543Y0037301D01*
X0112300Y0038058D01*
X0112710Y0039048D01*
X0112710Y0040119D01*
X0112387Y0040899D02*
X0124880Y0040899D01*
X0124880Y0042098D02*
X0110983Y0042098D01*
X0109053Y0042098D02*
X0096247Y0042098D01*
X0096247Y0042083D02*
X0096247Y0042328D01*
X0096152Y0042807D01*
X0095965Y0043258D01*
X0095694Y0043664D01*
X0095348Y0044009D01*
X0094942Y0044281D01*
X0094491Y0044468D01*
X0094012Y0044563D01*
X0093768Y0044563D01*
X0093768Y0042083D01*
X0093768Y0039604D01*
X0094012Y0039604D01*
X0094491Y0039699D01*
X0094942Y0039886D01*
X0095348Y0040157D01*
X0095694Y0040503D01*
X0095965Y0040909D01*
X0096152Y0041360D01*
X0096247Y0041839D01*
X0096247Y0042083D01*
X0093768Y0042083D01*
X0093768Y0042083D01*
X0093768Y0042083D01*
X0093768Y0039604D01*
X0093524Y0039604D01*
X0093045Y0039699D01*
X0092593Y0039886D01*
X0092187Y0040157D01*
X0091842Y0040503D01*
X0091570Y0040909D01*
X0091384Y0041360D01*
X0091288Y0041839D01*
X0091288Y0042083D01*
X0093768Y0042083D01*
X0096247Y0042083D01*
X0095959Y0040899D02*
X0107649Y0040899D01*
X0107326Y0039701D02*
X0094495Y0039701D01*
X0094491Y0039468D02*
X0094012Y0039563D01*
X0093768Y0039563D01*
X0093768Y0037083D01*
X0093768Y0034604D01*
X0094012Y0034604D01*
X0094491Y0034699D01*
X0094942Y0034886D01*
X0095348Y0035157D01*
X0095694Y0035503D01*
X0095965Y0035909D01*
X0096152Y0036360D01*
X0096247Y0036839D01*
X0096247Y0037083D01*
X0093768Y0037083D01*
X0093768Y0037083D01*
X0093768Y0037083D01*
X0093768Y0034604D01*
X0093524Y0034604D01*
X0093045Y0034699D01*
X0092593Y0034886D01*
X0092187Y0035157D01*
X0091842Y0035503D01*
X0091570Y0035909D01*
X0091384Y0036360D01*
X0091288Y0036839D01*
X0091288Y0037083D01*
X0093768Y0037083D01*
X0096247Y0037083D01*
X0096247Y0037328D01*
X0096152Y0037807D01*
X0095965Y0038258D01*
X0095694Y0038664D01*
X0095348Y0039009D01*
X0094942Y0039281D01*
X0094491Y0039468D01*
X0093768Y0039563D02*
X0093524Y0039563D01*
X0093045Y0039468D01*
X0092593Y0039281D01*
X0092187Y0039009D01*
X0091842Y0038664D01*
X0091570Y0038258D01*
X0091384Y0037807D01*
X0091288Y0037328D01*
X0091288Y0037083D01*
X0093768Y0037083D01*
X0093768Y0037083D01*
X0093768Y0037083D01*
X0093768Y0039563D01*
X0093768Y0039701D02*
X0093768Y0039701D01*
X0093041Y0039701D02*
X0080050Y0039701D01*
X0080293Y0039801D02*
X0081050Y0040558D01*
X0081460Y0041548D01*
X0081460Y0042619D01*
X0081050Y0043608D01*
X0080293Y0044366D01*
X0079303Y0044775D01*
X0078232Y0044775D01*
X0077243Y0044366D01*
X0076486Y0043608D01*
X0076076Y0042619D01*
X0076076Y0041548D01*
X0076486Y0040558D01*
X0077243Y0039801D01*
X0078232Y0039391D01*
X0079303Y0039391D01*
X0080293Y0039801D01*
X0081191Y0040899D02*
X0091577Y0040899D01*
X0091288Y0042083D02*
X0093768Y0042083D01*
X0093768Y0042083D01*
X0093768Y0042083D01*
X0093768Y0044563D01*
X0093524Y0044563D01*
X0093045Y0044468D01*
X0092593Y0044281D01*
X0092187Y0044009D01*
X0091842Y0043664D01*
X0091570Y0043258D01*
X0091384Y0042807D01*
X0091288Y0042328D01*
X0091288Y0042083D01*
X0091288Y0042098D02*
X0081460Y0042098D01*
X0081179Y0043296D02*
X0091596Y0043296D01*
X0092593Y0044886D02*
X0093045Y0044699D01*
X0093524Y0044604D01*
X0093768Y0044604D01*
X0094012Y0044604D01*
X0094491Y0044699D01*
X0094942Y0044886D01*
X0095348Y0045157D01*
X0095694Y0045503D01*
X0095965Y0045909D01*
X0096152Y0046360D01*
X0096247Y0046839D01*
X0096247Y0046891D01*
X0096803Y0046891D01*
X0097793Y0047301D01*
X0098550Y0048058D01*
X0098960Y0049048D01*
X0098960Y0049767D01*
X0099043Y0049801D01*
X0099800Y0050558D01*
X0100210Y0051548D01*
X0100210Y0052619D01*
X0099800Y0053608D01*
X0099043Y0054366D01*
X0098517Y0054583D01*
X0099043Y0054801D01*
X0099800Y0055558D01*
X0100210Y0056548D01*
X0100210Y0057619D01*
X0099800Y0058608D01*
X0099043Y0059366D01*
X0098053Y0059775D01*
X0096982Y0059775D01*
X0095993Y0059366D01*
X0095236Y0058608D01*
X0094826Y0057619D01*
X0094826Y0056548D01*
X0095236Y0055558D01*
X0095993Y0054801D01*
X0096518Y0054583D01*
X0095993Y0054366D01*
X0095236Y0053608D01*
X0094826Y0052619D01*
X0094826Y0051900D01*
X0094743Y0051866D01*
X0093986Y0051108D01*
X0093576Y0050119D01*
X0093576Y0049563D01*
X0093524Y0049563D01*
X0093045Y0049468D01*
X0092593Y0049281D01*
X0092187Y0049009D01*
X0091842Y0048664D01*
X0091570Y0048258D01*
X0091384Y0047807D01*
X0091288Y0047328D01*
X0091288Y0047083D01*
X0091288Y0046839D01*
X0091384Y0046360D01*
X0091570Y0045909D01*
X0091842Y0045503D01*
X0092187Y0045157D01*
X0092593Y0044886D01*
X0093181Y0044495D02*
X0079981Y0044495D01*
X0077554Y0044495D02*
X0047105Y0044495D01*
X0047215Y0044659D02*
X0047402Y0045110D01*
X0047497Y0045589D01*
X0047497Y0045833D01*
X0045018Y0045833D01*
X0045018Y0043354D01*
X0045262Y0043354D01*
X0045741Y0043449D01*
X0046192Y0043636D01*
X0046598Y0043907D01*
X0046944Y0044253D01*
X0047215Y0044659D01*
X0047497Y0045693D02*
X0066715Y0045693D01*
X0066842Y0045503D02*
X0067187Y0045157D01*
X0067593Y0044886D01*
X0068045Y0044699D01*
X0068524Y0044604D01*
X0068768Y0044604D01*
X0069012Y0044604D01*
X0069491Y0044699D01*
X0069942Y0044886D01*
X0070348Y0045157D01*
X0070694Y0045503D01*
X0070965Y0045909D01*
X0071152Y0046360D01*
X0071247Y0046839D01*
X0071247Y0047083D01*
X0068768Y0047083D01*
X0068768Y0044604D01*
X0068768Y0047083D01*
X0068768Y0047083D01*
X0068768Y0047083D01*
X0071247Y0047083D01*
X0071247Y0047328D01*
X0071152Y0047807D01*
X0070965Y0048258D01*
X0070694Y0048664D01*
X0070348Y0049009D01*
X0069942Y0049281D01*
X0069491Y0049468D01*
X0069012Y0049563D01*
X0068768Y0049563D01*
X0068768Y0047083D01*
X0066288Y0047083D01*
X0066288Y0046839D01*
X0066384Y0046360D01*
X0066570Y0045909D01*
X0066842Y0045503D01*
X0066288Y0046892D02*
X0047263Y0046892D01*
X0047215Y0047008D02*
X0046944Y0047414D01*
X0046598Y0047759D01*
X0046192Y0048031D01*
X0045741Y0048218D01*
X0045262Y0048313D01*
X0045018Y0048313D01*
X0045018Y0045833D01*
X0045018Y0045833D01*
X0045018Y0045833D01*
X0045018Y0043354D01*
X0044774Y0043354D01*
X0044295Y0043449D01*
X0043843Y0043636D01*
X0043437Y0043907D01*
X0043092Y0044253D01*
X0042820Y0044659D01*
X0042634Y0045110D01*
X0042538Y0045589D01*
X0042538Y0045833D01*
X0045018Y0045833D01*
X0047497Y0045833D01*
X0047497Y0046078D01*
X0047402Y0046557D01*
X0047215Y0047008D01*
X0046049Y0048090D02*
X0066501Y0048090D01*
X0066570Y0048258D02*
X0066384Y0047807D01*
X0066288Y0047328D01*
X0066288Y0047083D01*
X0068768Y0047083D01*
X0068768Y0047083D01*
X0068768Y0047083D01*
X0068768Y0049563D01*
X0068524Y0049563D01*
X0068045Y0049468D01*
X0067593Y0049281D01*
X0067187Y0049009D01*
X0066842Y0048664D01*
X0066570Y0048258D01*
X0067613Y0049289D02*
X0054780Y0049289D01*
X0054800Y0049308D02*
X0055210Y0050298D01*
X0055210Y0051369D01*
X0054800Y0052358D01*
X0054043Y0053116D01*
X0053053Y0053525D01*
X0051982Y0053525D01*
X0050993Y0053116D01*
X0050236Y0052358D01*
X0049826Y0051369D01*
X0049826Y0050298D01*
X0050236Y0049308D01*
X0050993Y0048551D01*
X0051982Y0048141D01*
X0053053Y0048141D01*
X0054043Y0048551D01*
X0054800Y0049308D01*
X0055210Y0050487D02*
X0073576Y0050487D01*
X0073576Y0050298D02*
X0073986Y0049308D01*
X0074743Y0048551D01*
X0075732Y0048141D01*
X0076803Y0048141D01*
X0077793Y0048551D01*
X0078550Y0049308D01*
X0078960Y0050298D01*
X0078960Y0051369D01*
X0078550Y0052358D01*
X0077793Y0053116D01*
X0076803Y0053525D01*
X0075732Y0053525D01*
X0074743Y0053116D01*
X0073986Y0052358D01*
X0073576Y0051369D01*
X0073576Y0050298D01*
X0074005Y0049289D02*
X0069923Y0049289D01*
X0068768Y0049289D02*
X0068768Y0049289D01*
X0068768Y0048090D02*
X0068768Y0048090D01*
X0068768Y0046892D02*
X0068768Y0046892D01*
X0068768Y0045693D02*
X0068768Y0045693D01*
X0070821Y0045693D02*
X0091715Y0045693D01*
X0091288Y0046892D02*
X0071247Y0046892D01*
X0071035Y0048090D02*
X0091501Y0048090D01*
X0091288Y0047083D02*
X0093768Y0047083D01*
X0093768Y0044604D01*
X0093768Y0047083D01*
X0093768Y0047083D01*
X0091288Y0047083D01*
X0093768Y0047083D02*
X0093768Y0047083D01*
X0093768Y0046892D02*
X0093768Y0046892D01*
X0093768Y0045693D02*
X0093768Y0045693D01*
X0093768Y0044495D02*
X0093768Y0044495D01*
X0094355Y0044495D02*
X0124880Y0044495D01*
X0124880Y0045693D02*
X0095821Y0045693D01*
X0096804Y0046892D02*
X0124880Y0046892D01*
X0124880Y0048090D02*
X0098563Y0048090D01*
X0098960Y0049289D02*
X0124880Y0049289D01*
X0124880Y0050487D02*
X0099729Y0050487D01*
X0100210Y0051686D02*
X0124880Y0051686D01*
X0124880Y0052884D02*
X0108376Y0052884D01*
X0108550Y0053058D02*
X0108960Y0054048D01*
X0108960Y0055119D01*
X0108550Y0056108D01*
X0107793Y0056866D01*
X0106803Y0057275D01*
X0105732Y0057275D01*
X0104743Y0056866D01*
X0103986Y0056108D01*
X0103576Y0055119D01*
X0103576Y0054048D01*
X0103986Y0053058D01*
X0104743Y0052301D01*
X0105732Y0051891D01*
X0106803Y0051891D01*
X0107793Y0052301D01*
X0108550Y0053058D01*
X0108960Y0054083D02*
X0124880Y0054083D01*
X0124880Y0055281D02*
X0108893Y0055281D01*
X0108179Y0056480D02*
X0124880Y0056480D01*
X0124880Y0057678D02*
X0100185Y0057678D01*
X0100182Y0056480D02*
X0104357Y0056480D01*
X0103643Y0055281D02*
X0099523Y0055281D01*
X0099326Y0054083D02*
X0103576Y0054083D01*
X0104160Y0052884D02*
X0100100Y0052884D01*
X0095710Y0054083D02*
X0047621Y0054083D01*
X0047710Y0052884D02*
X0050761Y0052884D01*
X0049957Y0051686D02*
X0047177Y0051686D01*
X0049826Y0050487D02*
X0038537Y0050487D01*
X0038474Y0051686D02*
X0042858Y0051686D01*
X0042326Y0052884D02*
X0037944Y0052884D01*
X0038102Y0054083D02*
X0041440Y0054083D01*
X0040518Y0055281D02*
X0038537Y0055281D01*
X0038537Y0056480D02*
X0040518Y0056480D01*
X0040518Y0057678D02*
X0039691Y0057678D01*
X0046877Y0055281D02*
X0085513Y0055281D01*
X0085236Y0055558D02*
X0085993Y0054801D01*
X0086982Y0054391D01*
X0088053Y0054391D01*
X0089043Y0054801D01*
X0089800Y0055558D01*
X0090210Y0056548D01*
X0090210Y0057619D01*
X0089800Y0058608D01*
X0089043Y0059366D01*
X0088053Y0059775D01*
X0086982Y0059775D01*
X0085993Y0059366D01*
X0085236Y0058608D01*
X0084826Y0057619D01*
X0084826Y0056548D01*
X0085236Y0055558D01*
X0084854Y0056480D02*
X0080721Y0056480D01*
X0081410Y0057678D02*
X0084850Y0057678D01*
X0085504Y0058877D02*
X0083118Y0058877D01*
X0083868Y0060075D02*
X0124880Y0060075D01*
X0124880Y0058877D02*
X0099532Y0058877D01*
X0095504Y0058877D02*
X0089532Y0058877D01*
X0090185Y0057678D02*
X0094850Y0057678D01*
X0094854Y0056480D02*
X0090182Y0056480D01*
X0089523Y0055281D02*
X0095513Y0055281D01*
X0094936Y0052884D02*
X0078024Y0052884D01*
X0078829Y0051686D02*
X0094563Y0051686D01*
X0093728Y0050487D02*
X0078960Y0050487D01*
X0078530Y0049289D02*
X0092613Y0049289D01*
X0093768Y0043296D02*
X0093768Y0043296D01*
X0093768Y0042098D02*
X0093768Y0042098D01*
X0093768Y0040899D02*
X0093768Y0040899D01*
X0093768Y0038502D02*
X0093768Y0038502D01*
X0093768Y0037304D02*
X0093768Y0037304D01*
X0093768Y0036105D02*
X0093768Y0036105D01*
X0093768Y0034907D02*
X0093768Y0034907D01*
X0094973Y0034907D02*
X0104988Y0034907D01*
X0104826Y0036105D02*
X0096046Y0036105D01*
X0096247Y0037304D02*
X0105213Y0037304D01*
X0106926Y0038502D02*
X0095802Y0038502D01*
X0091734Y0038502D02*
X0037664Y0038502D01*
X0038358Y0039701D02*
X0077485Y0039701D01*
X0076344Y0040899D02*
X0038537Y0040899D01*
X0038303Y0042098D02*
X0076076Y0042098D01*
X0076356Y0043296D02*
X0037532Y0043296D01*
X0038042Y0044495D02*
X0042930Y0044495D01*
X0042538Y0045693D02*
X0038324Y0045693D01*
X0038159Y0046892D02*
X0042772Y0046892D01*
X0042820Y0047008D02*
X0042634Y0046557D01*
X0042538Y0046078D01*
X0042538Y0045833D01*
X0045018Y0045833D01*
X0045018Y0045833D01*
X0045018Y0045833D01*
X0045018Y0048313D01*
X0044774Y0048313D01*
X0044295Y0048218D01*
X0043843Y0048031D01*
X0043437Y0047759D01*
X0043092Y0047414D01*
X0042820Y0047008D01*
X0043987Y0048090D02*
X0037437Y0048090D01*
X0038187Y0049289D02*
X0050255Y0049289D01*
X0055079Y0051686D02*
X0073707Y0051686D01*
X0074511Y0052884D02*
X0054274Y0052884D01*
X0045018Y0048090D02*
X0045018Y0048090D01*
X0045018Y0046892D02*
X0045018Y0046892D01*
X0045018Y0045693D02*
X0045018Y0045693D01*
X0045018Y0044495D02*
X0045018Y0044495D01*
X0034978Y0045794D02*
X0031711Y0045794D01*
X0030058Y0045794D01*
X0030058Y0045873D01*
X0034978Y0045873D01*
X0034978Y0045794D01*
X0027598Y0048090D02*
X0024299Y0048090D01*
X0024299Y0046892D02*
X0026877Y0046892D01*
X0026711Y0045693D02*
X0024299Y0045693D01*
X0024299Y0044495D02*
X0026993Y0044495D01*
X0027504Y0043296D02*
X0024299Y0043296D01*
X0024299Y0042098D02*
X0026732Y0042098D01*
X0026499Y0040899D02*
X0024299Y0040899D01*
X0024299Y0039701D02*
X0026678Y0039701D01*
X0027372Y0038502D02*
X0024299Y0038502D01*
X0024299Y0037304D02*
X0091288Y0037304D01*
X0091489Y0036105D02*
X0024299Y0036105D01*
X0024299Y0034907D02*
X0030632Y0034907D01*
X0028471Y0033708D02*
X0024299Y0033708D01*
X0024299Y0032510D02*
X0027106Y0032510D01*
X0026100Y0031311D02*
X0024299Y0031311D01*
X0024299Y0030112D02*
X0025384Y0030112D01*
X0024861Y0028914D02*
X0024299Y0028914D01*
X0024299Y0027715D02*
X0024506Y0027715D01*
X0024299Y0026517D02*
X0024302Y0026517D01*
X0033886Y0026517D02*
X0035086Y0026517D01*
X0035086Y0027715D02*
X0033886Y0027715D01*
X0033886Y0028914D02*
X0035086Y0028914D01*
X0035086Y0030112D02*
X0033886Y0030112D01*
X0033886Y0031311D02*
X0035086Y0031311D01*
X0035086Y0032510D02*
X0033886Y0032510D01*
X0033886Y0033708D02*
X0035086Y0033708D01*
X0035086Y0034907D02*
X0033886Y0034907D01*
X0038340Y0034907D02*
X0092563Y0034907D01*
X0084766Y0028914D02*
X0100931Y0028914D01*
X0104348Y0032510D02*
X0113284Y0032510D01*
X0112466Y0033708D02*
X0109200Y0033708D01*
X0110048Y0034907D02*
X0112326Y0034907D01*
X0112734Y0036105D02*
X0110210Y0036105D01*
X0111545Y0037304D02*
X0117326Y0037304D01*
X0117301Y0036105D02*
X0117509Y0036105D01*
X0117710Y0034907D02*
X0118387Y0034907D01*
X0117692Y0038502D02*
X0112484Y0038502D01*
X0105836Y0033708D02*
X0040501Y0033708D01*
X0041867Y0032510D02*
X0043187Y0032510D01*
X0045018Y0032510D02*
X0045018Y0032510D01*
X0045018Y0031311D02*
X0045018Y0031311D01*
X0045018Y0030833D02*
X0045018Y0030833D01*
X0045018Y0030112D02*
X0045018Y0030112D01*
X0045018Y0028914D02*
X0045018Y0028914D01*
X0044653Y0024120D02*
X0048756Y0024120D01*
X0047129Y0022921D02*
X0044430Y0022921D01*
X0044054Y0021723D02*
X0046577Y0021723D01*
X0046499Y0020524D02*
X0043510Y0020524D01*
X0042747Y0019326D02*
X0046833Y0019326D01*
X0047747Y0018127D02*
X0041703Y0018127D01*
X0040262Y0016929D02*
X0124880Y0016929D01*
X0124880Y0018127D02*
X0097289Y0018127D01*
X0098203Y0019326D02*
X0124880Y0019326D01*
X0124880Y0020524D02*
X0098537Y0020524D01*
X0098459Y0021723D02*
X0124880Y0021723D01*
X0124880Y0022921D02*
X0097907Y0022921D01*
X0096280Y0024120D02*
X0124880Y0024120D01*
X0124880Y0025318D02*
X0087018Y0025318D01*
X0087018Y0024120D02*
X0088756Y0024120D01*
X0091280Y0024120D02*
X0093756Y0024120D01*
X0092747Y0018127D02*
X0092289Y0018127D01*
X0087747Y0018127D02*
X0087289Y0018127D01*
X0082747Y0018127D02*
X0082289Y0018127D01*
X0077747Y0018127D02*
X0077289Y0018127D01*
X0072747Y0018127D02*
X0072289Y0018127D01*
X0067747Y0018127D02*
X0067289Y0018127D01*
X0062747Y0018127D02*
X0062289Y0018127D01*
X0057747Y0018127D02*
X0057289Y0018127D01*
X0052747Y0018127D02*
X0052289Y0018127D01*
X0051280Y0024120D02*
X0053756Y0024120D01*
X0056280Y0024120D02*
X0057653Y0024120D01*
X0059494Y0028914D02*
X0060541Y0028914D01*
X0037873Y0015730D02*
X0124880Y0015730D01*
X0124880Y0026517D02*
X0087018Y0026517D01*
X0085964Y0027715D02*
X0124880Y0027715D01*
X0124880Y0043296D02*
X0095940Y0043296D01*
X0083960Y0061274D02*
X0124880Y0061274D01*
X0124880Y0062472D02*
X0083436Y0062472D01*
X0080210Y0063671D02*
X0095873Y0063671D01*
X0095993Y0063551D02*
X0096982Y0063141D01*
X0098053Y0063141D01*
X0099043Y0063551D01*
X0099800Y0064308D01*
X0100210Y0065298D01*
X0100210Y0066369D01*
X0099800Y0067358D01*
X0099043Y0068116D01*
X0098053Y0068525D01*
X0096982Y0068525D01*
X0095993Y0068116D01*
X0095236Y0067358D01*
X0094826Y0066369D01*
X0094826Y0065298D01*
X0095236Y0064308D01*
X0095993Y0063551D01*
X0095003Y0064869D02*
X0079789Y0064869D01*
X0077317Y0066068D02*
X0094826Y0066068D01*
X0095197Y0067266D02*
X0075575Y0067266D01*
X0074460Y0067266D02*
X0067490Y0067266D01*
X0067710Y0068465D02*
X0083701Y0068465D01*
X0083493Y0068551D02*
X0084482Y0068141D01*
X0085553Y0068141D01*
X0086543Y0068551D01*
X0087300Y0069308D01*
X0087710Y0070298D01*
X0087710Y0071369D01*
X0087300Y0072358D01*
X0086543Y0073116D01*
X0085553Y0073525D01*
X0084482Y0073525D01*
X0083493Y0073116D01*
X0082736Y0072358D01*
X0082710Y0072296D01*
X0082710Y0072619D01*
X0082300Y0073608D01*
X0081543Y0074366D01*
X0080553Y0074775D01*
X0079482Y0074775D01*
X0078493Y0074366D01*
X0077736Y0073608D01*
X0077326Y0072619D01*
X0077326Y0071548D01*
X0077736Y0070558D01*
X0078493Y0069801D01*
X0079482Y0069391D01*
X0080553Y0069391D01*
X0081543Y0069801D01*
X0082300Y0070558D01*
X0082326Y0070620D01*
X0082326Y0070298D01*
X0082736Y0069308D01*
X0083493Y0068551D01*
X0082588Y0069663D02*
X0081210Y0069663D01*
X0078825Y0069663D02*
X0067381Y0069663D01*
X0065948Y0070862D02*
X0077610Y0070862D01*
X0077326Y0072060D02*
X0062423Y0072060D01*
X0062383Y0073259D02*
X0077591Y0073259D01*
X0078715Y0074457D02*
X0071963Y0074457D01*
X0070572Y0074457D02*
X0062710Y0074457D01*
X0062710Y0070862D02*
X0064087Y0070862D01*
X0073590Y0075656D02*
X0090048Y0075656D01*
X0090236Y0076108D02*
X0089826Y0075119D01*
X0089826Y0074048D01*
X0090236Y0073058D01*
X0090993Y0072301D01*
X0091982Y0071891D01*
X0093053Y0071891D01*
X0094043Y0072301D01*
X0094800Y0073058D01*
X0094834Y0073141D01*
X0095553Y0073141D01*
X0096543Y0073551D01*
X0097300Y0074308D01*
X0097710Y0075298D01*
X0097710Y0076369D01*
X0097300Y0077358D01*
X0096967Y0077692D01*
X0101852Y0077692D01*
X0102135Y0077409D01*
X0103124Y0076999D01*
X0104195Y0076999D01*
X0105184Y0077409D01*
X0105942Y0078167D01*
X0106333Y0079112D01*
X0106384Y0078860D01*
X0106570Y0078409D01*
X0106842Y0078003D01*
X0107187Y0077657D01*
X0107593Y0077386D01*
X0108045Y0077199D01*
X0108524Y0077104D01*
X0108768Y0077104D01*
X0109012Y0077104D01*
X0109491Y0077199D01*
X0109942Y0077386D01*
X0110165Y0077535D01*
X0110320Y0077159D01*
X0110592Y0076753D01*
X0110937Y0076407D01*
X0111343Y0076136D01*
X0111795Y0075949D01*
X0112274Y0075854D01*
X0112518Y0075854D01*
X0112762Y0075854D01*
X0113241Y0075949D01*
X0113692Y0076136D01*
X0114098Y0076407D01*
X0114444Y0076753D01*
X0114715Y0077159D01*
X0114902Y0077610D01*
X0114997Y0078089D01*
X0114997Y0078333D01*
X0112518Y0078333D01*
X0112518Y0075854D01*
X0112518Y0078333D01*
X0112518Y0078333D01*
X0112518Y0078333D01*
X0114997Y0078333D01*
X0114997Y0078578D01*
X0114902Y0079057D01*
X0114715Y0079508D01*
X0114444Y0079914D01*
X0114098Y0080259D01*
X0113692Y0080531D01*
X0113241Y0080718D01*
X0112762Y0080813D01*
X0112518Y0080813D01*
X0112518Y0078333D01*
X0112518Y0078333D01*
X0112518Y0080813D01*
X0112274Y0080813D01*
X0111795Y0080718D01*
X0111343Y0080531D01*
X0111121Y0080382D01*
X0110965Y0080758D01*
X0110694Y0081164D01*
X0110348Y0081509D01*
X0109942Y0081781D01*
X0109491Y0081968D01*
X0109012Y0082063D01*
X0108768Y0082063D01*
X0108768Y0079583D01*
X0108768Y0077104D01*
X0108768Y0079583D01*
X0108768Y0079583D01*
X0108768Y0079583D01*
X0108768Y0082063D01*
X0108524Y0082063D01*
X0108045Y0081968D01*
X0107593Y0081781D01*
X0107187Y0081509D01*
X0106842Y0081164D01*
X0106570Y0080758D01*
X0106384Y0080307D01*
X0106352Y0080146D01*
X0106352Y0080227D01*
X0105942Y0081217D01*
X0105184Y0081974D01*
X0104195Y0082384D01*
X0103124Y0082384D01*
X0102135Y0081974D01*
X0101852Y0081692D01*
X0096717Y0081692D01*
X0096434Y0081974D01*
X0096094Y0082115D01*
X0096543Y0082301D01*
X0097300Y0083058D01*
X0097710Y0084048D01*
X0097710Y0085119D01*
X0097300Y0086108D01*
X0096543Y0086866D01*
X0095553Y0087275D01*
X0094482Y0087275D01*
X0093493Y0086866D01*
X0092736Y0086108D01*
X0092326Y0085119D01*
X0092326Y0084048D01*
X0092736Y0083058D01*
X0093493Y0082301D01*
X0093834Y0082160D01*
X0093385Y0081974D01*
X0092627Y0081217D01*
X0092217Y0080227D01*
X0092217Y0079156D01*
X0092627Y0078167D01*
X0093086Y0077708D01*
X0092736Y0077358D01*
X0092701Y0077275D01*
X0091982Y0077275D01*
X0090993Y0076866D01*
X0090236Y0076108D01*
X0090982Y0076854D02*
X0073960Y0076854D01*
X0073780Y0078053D02*
X0092741Y0078053D01*
X0092217Y0079251D02*
X0072907Y0079251D01*
X0074094Y0080450D02*
X0065073Y0080450D01*
X0065210Y0079251D02*
X0069629Y0079251D01*
X0073986Y0080558D02*
X0073576Y0081548D01*
X0073576Y0082619D01*
X0073986Y0083608D01*
X0074743Y0084366D01*
X0075732Y0084775D01*
X0076803Y0084775D01*
X0077793Y0084366D01*
X0078550Y0083608D01*
X0078960Y0082619D01*
X0078960Y0081548D01*
X0078550Y0080558D01*
X0077793Y0079801D01*
X0076803Y0079391D01*
X0075732Y0079391D01*
X0074743Y0079801D01*
X0073986Y0080558D01*
X0073576Y0081648D02*
X0064260Y0081648D01*
X0060776Y0081648D02*
X0044640Y0081648D01*
X0044800Y0081808D02*
X0044043Y0081051D01*
X0043053Y0080641D01*
X0041982Y0080641D01*
X0040993Y0081051D01*
X0040236Y0081808D01*
X0039826Y0082798D01*
X0039826Y0083869D01*
X0040236Y0084858D01*
X0040993Y0085616D01*
X0041982Y0086025D01*
X0043053Y0086025D01*
X0044043Y0085616D01*
X0044800Y0084858D01*
X0045210Y0083869D01*
X0045210Y0082798D01*
X0044800Y0081808D01*
X0045210Y0082847D02*
X0073670Y0082847D01*
X0074423Y0084045D02*
X0045137Y0084045D01*
X0044414Y0085244D02*
X0092378Y0085244D01*
X0092327Y0084045D02*
X0078113Y0084045D01*
X0078865Y0082847D02*
X0092947Y0082847D01*
X0093059Y0081648D02*
X0078960Y0081648D01*
X0078442Y0080450D02*
X0092310Y0080450D01*
X0097089Y0082847D02*
X0124880Y0082847D01*
X0124880Y0084045D02*
X0112037Y0084045D01*
X0112300Y0084308D02*
X0111543Y0083551D01*
X0110553Y0083141D01*
X0109482Y0083141D01*
X0108493Y0083551D01*
X0107736Y0084308D01*
X0107326Y0085298D01*
X0107326Y0086369D01*
X0107542Y0086891D01*
X0106982Y0086891D01*
X0105993Y0087301D01*
X0105711Y0087583D01*
X0074189Y0087583D01*
X0073462Y0088311D01*
X0073053Y0088141D01*
X0071982Y0088141D01*
X0070993Y0088551D01*
X0070236Y0089308D01*
X0069826Y0090298D01*
X0069826Y0091369D01*
X0070236Y0092358D01*
X0070993Y0093116D01*
X0071982Y0093525D01*
X0073053Y0093525D01*
X0073820Y0093208D01*
X0073986Y0093608D01*
X0074743Y0094366D01*
X0075732Y0094775D01*
X0076803Y0094775D01*
X0077793Y0094366D01*
X0078075Y0094083D01*
X0101961Y0094083D01*
X0102243Y0094366D01*
X0103232Y0094775D01*
X0104303Y0094775D01*
X0105293Y0094366D01*
X0106050Y0093608D01*
X0106460Y0092619D01*
X0106460Y0092059D01*
X0106982Y0092275D01*
X0108053Y0092275D01*
X0109043Y0091866D01*
X0109800Y0091108D01*
X0110210Y0090119D01*
X0110210Y0089048D01*
X0109994Y0088525D01*
X0110553Y0088525D01*
X0111543Y0088116D01*
X0112300Y0087358D01*
X0112710Y0086369D01*
X0112710Y0085298D01*
X0112300Y0084308D01*
X0112688Y0085244D02*
X0124880Y0085244D01*
X0124880Y0086443D02*
X0112679Y0086443D01*
X0112017Y0087641D02*
X0124880Y0087641D01*
X0124880Y0088840D02*
X0110124Y0088840D01*
X0110210Y0090038D02*
X0124880Y0090038D01*
X0124880Y0091237D02*
X0116728Y0091237D01*
X0116543Y0091051D02*
X0117300Y0091808D01*
X0117710Y0092798D01*
X0117710Y0093869D01*
X0117300Y0094858D01*
X0116543Y0095616D01*
X0115553Y0096025D01*
X0114482Y0096025D01*
X0113493Y0095616D01*
X0112736Y0094858D01*
X0112326Y0093869D01*
X0112326Y0092798D01*
X0112736Y0091808D01*
X0113493Y0091051D01*
X0114482Y0090641D01*
X0115553Y0090641D01*
X0116543Y0091051D01*
X0117560Y0092435D02*
X0124880Y0092435D01*
X0124880Y0093634D02*
X0117710Y0093634D01*
X0117311Y0094832D02*
X0124880Y0094832D01*
X0124880Y0096031D02*
X0061016Y0096031D01*
X0060965Y0095909D02*
X0061152Y0096360D01*
X0061247Y0096839D01*
X0061247Y0097083D01*
X0058768Y0097083D01*
X0058768Y0094604D01*
X0059012Y0094604D01*
X0059491Y0094699D01*
X0059942Y0094886D01*
X0060348Y0095157D01*
X0060694Y0095503D01*
X0060965Y0095909D01*
X0061247Y0097083D02*
X0058768Y0097083D01*
X0058768Y0097083D01*
X0058768Y0097083D01*
X0058768Y0094604D01*
X0058524Y0094604D01*
X0058045Y0094699D01*
X0057593Y0094886D01*
X0057187Y0095157D01*
X0056842Y0095503D01*
X0056570Y0095909D01*
X0056384Y0096360D01*
X0056288Y0096839D01*
X0056288Y0097083D01*
X0058768Y0097083D01*
X0058768Y0097083D01*
X0056288Y0097083D01*
X0056288Y0097328D01*
X0056384Y0097807D01*
X0056390Y0097823D01*
X0055982Y0097654D01*
X0055343Y0097527D01*
X0055058Y0097527D01*
X0055058Y0100793D01*
X0054978Y0100793D01*
X0054978Y0097527D01*
X0054692Y0097527D01*
X0054053Y0097654D01*
X0053451Y0097903D01*
X0052910Y0098265D01*
X0052668Y0098507D01*
X0052011Y0097850D01*
X0050718Y0097314D01*
X0049318Y0097314D01*
X0048024Y0097850D01*
X0047034Y0098840D01*
X0046499Y0100133D01*
X0046499Y0101533D01*
X0047034Y0102827D01*
X0048024Y0103817D01*
X0049318Y0104353D01*
X0050718Y0104353D01*
X0052011Y0103817D01*
X0052668Y0103160D01*
X0052910Y0103402D01*
X0053451Y0103764D01*
X0054053Y0104013D01*
X0054692Y0104140D01*
X0054978Y0104140D01*
X0054978Y0100873D01*
X0055058Y0100873D01*
X0055058Y0104140D01*
X0055343Y0104140D01*
X0055982Y0104013D01*
X0056584Y0103764D01*
X0057126Y0103402D01*
X0057367Y0103160D01*
X0058024Y0103817D01*
X0059318Y0104353D01*
X0060718Y0104353D01*
X0062011Y0103817D01*
X0062518Y0103310D01*
X0063024Y0103817D01*
X0064318Y0104353D01*
X0065718Y0104353D01*
X0067011Y0103817D01*
X0067518Y0103310D01*
X0068024Y0103817D01*
X0069318Y0104353D01*
X0070718Y0104353D01*
X0072011Y0103817D01*
X0072518Y0103310D01*
X0073024Y0103817D01*
X0074318Y0104353D01*
X0075718Y0104353D01*
X0077011Y0103817D01*
X0077518Y0103310D01*
X0078024Y0103817D01*
X0079318Y0104353D01*
X0080718Y0104353D01*
X0082011Y0103817D01*
X0082518Y0103310D01*
X0083024Y0103817D01*
X0084318Y0104353D01*
X0085718Y0104353D01*
X0087011Y0103817D01*
X0087518Y0103310D01*
X0088024Y0103817D01*
X0089318Y0104353D01*
X0090718Y0104353D01*
X0092011Y0103817D01*
X0092518Y0103310D01*
X0093024Y0103817D01*
X0094318Y0104353D01*
X0095718Y0104353D01*
X0097011Y0103817D01*
X0098001Y0102827D01*
X0098537Y0101533D01*
X0098537Y0100133D01*
X0098001Y0098840D01*
X0097011Y0097850D01*
X0095718Y0097314D01*
X0094318Y0097314D01*
X0093024Y0097850D01*
X0092518Y0098356D01*
X0092011Y0097850D01*
X0090718Y0097314D01*
X0089318Y0097314D01*
X0088024Y0097850D01*
X0087518Y0098356D01*
X0087011Y0097850D01*
X0085718Y0097314D01*
X0084318Y0097314D01*
X0083024Y0097850D01*
X0082518Y0098356D01*
X0082011Y0097850D01*
X0080718Y0097314D01*
X0079318Y0097314D01*
X0078024Y0097850D01*
X0077518Y0098356D01*
X0077011Y0097850D01*
X0075718Y0097314D01*
X0074318Y0097314D01*
X0073024Y0097850D01*
X0072518Y0098356D01*
X0072011Y0097850D01*
X0070718Y0097314D01*
X0069318Y0097314D01*
X0068024Y0097850D01*
X0067518Y0098356D01*
X0067011Y0097850D01*
X0065718Y0097314D01*
X0064318Y0097314D01*
X0063024Y0097850D01*
X0062518Y0098356D01*
X0062011Y0097850D01*
X0061209Y0097518D01*
X0061247Y0097328D01*
X0061247Y0097083D01*
X0061247Y0097229D02*
X0124880Y0097229D01*
X0124880Y0098428D02*
X0097589Y0098428D01*
X0098327Y0099626D02*
X0124880Y0099626D01*
X0124880Y0100825D02*
X0098537Y0100825D01*
X0098334Y0102023D02*
X0124880Y0102023D01*
X0124880Y0103222D02*
X0097606Y0103222D01*
X0106025Y0093634D02*
X0112326Y0093634D01*
X0112476Y0092435D02*
X0106460Y0092435D01*
X0109672Y0091237D02*
X0113307Y0091237D01*
X0112725Y0094832D02*
X0059812Y0094832D01*
X0058768Y0094832D02*
X0058768Y0094832D01*
X0057723Y0094832D02*
X0054811Y0094832D01*
X0054800Y0094858D02*
X0054043Y0095616D01*
X0053053Y0096025D01*
X0051982Y0096025D01*
X0050993Y0095616D01*
X0050236Y0094858D01*
X0049976Y0094231D01*
X0049997Y0094339D01*
X0049997Y0094583D01*
X0047518Y0094583D01*
X0047518Y0092104D01*
X0047762Y0092104D01*
X0048241Y0092199D01*
X0048692Y0092386D01*
X0049098Y0092657D01*
X0049444Y0093003D01*
X0049715Y0093409D01*
X0049826Y0093676D01*
X0049826Y0092798D01*
X0050236Y0091808D01*
X0050993Y0091051D01*
X0051982Y0090641D01*
X0053053Y0090641D01*
X0054043Y0091051D01*
X0054800Y0091808D01*
X0055210Y0092798D01*
X0055210Y0093869D01*
X0054800Y0094858D01*
X0055210Y0093634D02*
X0074011Y0093634D01*
X0070312Y0092435D02*
X0055060Y0092435D01*
X0054228Y0091237D02*
X0069826Y0091237D01*
X0069933Y0090038D02*
X0042624Y0090038D01*
X0043426Y0091237D02*
X0050807Y0091237D01*
X0049976Y0092435D02*
X0048766Y0092435D01*
X0047518Y0092435D02*
X0047518Y0092435D01*
X0047518Y0092104D02*
X0047518Y0094583D01*
X0047518Y0094583D01*
X0047518Y0094583D01*
X0049997Y0094583D01*
X0049997Y0094828D01*
X0049902Y0095307D01*
X0049715Y0095758D01*
X0049444Y0096164D01*
X0049098Y0096509D01*
X0048692Y0096781D01*
X0048241Y0096968D01*
X0047762Y0097063D01*
X0047518Y0097063D01*
X0047518Y0094583D01*
X0045038Y0094583D01*
X0045038Y0094339D01*
X0045134Y0093860D01*
X0045320Y0093409D01*
X0045592Y0093003D01*
X0045937Y0092657D01*
X0046343Y0092386D01*
X0046795Y0092199D01*
X0047274Y0092104D01*
X0047518Y0092104D01*
X0046270Y0092435D02*
X0044000Y0092435D01*
X0044395Y0093634D02*
X0045227Y0093634D01*
X0045038Y0094583D02*
X0045038Y0094828D01*
X0045134Y0095307D01*
X0045320Y0095758D01*
X0045592Y0096164D01*
X0045937Y0096509D01*
X0046343Y0096781D01*
X0046795Y0096968D01*
X0047274Y0097063D01*
X0047518Y0097063D01*
X0047518Y0094583D01*
X0047518Y0094583D01*
X0047518Y0094583D01*
X0045038Y0094583D01*
X0045039Y0094832D02*
X0044635Y0094832D01*
X0045503Y0096031D02*
X0035086Y0096031D01*
X0035086Y0094832D02*
X0033886Y0094832D01*
X0033886Y0093634D02*
X0035086Y0093634D01*
X0035086Y0092435D02*
X0033886Y0092435D01*
X0033886Y0091237D02*
X0035086Y0091237D01*
X0035086Y0090038D02*
X0033886Y0090038D01*
X0033886Y0088840D02*
X0035086Y0088840D01*
X0035086Y0087641D02*
X0033886Y0087641D01*
X0033886Y0086443D02*
X0035086Y0086443D01*
X0037433Y0086443D02*
X0093070Y0086443D01*
X0096966Y0086443D02*
X0107356Y0086443D01*
X0107348Y0085244D02*
X0097658Y0085244D01*
X0097709Y0084045D02*
X0107998Y0084045D01*
X0107395Y0081648D02*
X0105510Y0081648D01*
X0106259Y0080450D02*
X0106443Y0080450D01*
X0108768Y0080450D02*
X0108768Y0080450D01*
X0108768Y0081648D02*
X0108768Y0081648D01*
X0110140Y0081648D02*
X0124880Y0081648D01*
X0124880Y0080450D02*
X0113813Y0080450D01*
X0112518Y0080450D02*
X0112518Y0080450D01*
X0112518Y0079251D02*
X0112518Y0079251D01*
X0112518Y0078053D02*
X0112518Y0078053D01*
X0112518Y0076854D02*
X0112518Y0076854D01*
X0110524Y0076854D02*
X0097509Y0076854D01*
X0097710Y0075656D02*
X0124880Y0075656D01*
X0124880Y0076854D02*
X0114512Y0076854D01*
X0114990Y0078053D02*
X0124880Y0078053D01*
X0124880Y0079251D02*
X0114821Y0079251D01*
X0111223Y0080450D02*
X0111093Y0080450D01*
X0108768Y0079251D02*
X0108768Y0079251D01*
X0108768Y0078053D02*
X0108768Y0078053D01*
X0106808Y0078053D02*
X0105828Y0078053D01*
X0097362Y0074457D02*
X0124880Y0074457D01*
X0124880Y0073259D02*
X0095837Y0073259D01*
X0093462Y0072060D02*
X0124880Y0072060D01*
X0124880Y0070862D02*
X0087710Y0070862D01*
X0087447Y0069663D02*
X0124880Y0069663D01*
X0124880Y0068465D02*
X0108327Y0068465D01*
X0108194Y0068664D02*
X0108465Y0068258D01*
X0108652Y0067807D01*
X0108747Y0067328D01*
X0108747Y0067083D01*
X0106268Y0067083D01*
X0106268Y0064604D01*
X0106512Y0064604D01*
X0106991Y0064699D01*
X0107442Y0064886D01*
X0107848Y0065157D01*
X0108194Y0065503D01*
X0108465Y0065909D01*
X0108652Y0066360D01*
X0108747Y0066839D01*
X0108747Y0067083D01*
X0106268Y0067083D01*
X0106268Y0067083D01*
X0106268Y0067083D01*
X0106268Y0064604D01*
X0106024Y0064604D01*
X0105545Y0064699D01*
X0105093Y0064886D01*
X0104687Y0065157D01*
X0104342Y0065503D01*
X0104070Y0065909D01*
X0103884Y0066360D01*
X0103788Y0066839D01*
X0103788Y0067083D01*
X0106268Y0067083D01*
X0106268Y0067083D01*
X0106268Y0067083D01*
X0106268Y0069563D01*
X0106512Y0069563D01*
X0106991Y0069468D01*
X0107442Y0069281D01*
X0107848Y0069009D01*
X0108194Y0068664D01*
X0108747Y0067266D02*
X0124880Y0067266D01*
X0124880Y0066068D02*
X0108531Y0066068D01*
X0107402Y0064869D02*
X0124880Y0064869D01*
X0124880Y0063671D02*
X0099163Y0063671D01*
X0100032Y0064869D02*
X0105134Y0064869D01*
X0106268Y0064869D02*
X0106268Y0064869D01*
X0106268Y0066068D02*
X0106268Y0066068D01*
X0106268Y0067083D02*
X0103788Y0067083D01*
X0103788Y0067328D01*
X0103884Y0067807D01*
X0104070Y0068258D01*
X0104342Y0068664D01*
X0104687Y0069009D01*
X0105093Y0069281D01*
X0105545Y0069468D01*
X0106024Y0069563D01*
X0106268Y0069563D01*
X0106268Y0067083D01*
X0106268Y0067266D02*
X0106268Y0067266D01*
X0106268Y0068465D02*
X0106268Y0068465D01*
X0104209Y0068465D02*
X0098200Y0068465D01*
X0096836Y0068465D02*
X0086335Y0068465D01*
X0087423Y0072060D02*
X0091574Y0072060D01*
X0090152Y0073259D02*
X0086197Y0073259D01*
X0083839Y0073259D02*
X0082445Y0073259D01*
X0081321Y0074457D02*
X0089826Y0074457D01*
X0099838Y0067266D02*
X0103788Y0067266D01*
X0104005Y0066068D02*
X0100210Y0066068D01*
X0074132Y0087641D02*
X0040017Y0087641D01*
X0041549Y0088840D02*
X0070704Y0088840D01*
X0059963Y0080450D02*
X0024299Y0080450D01*
X0024299Y0081648D02*
X0040395Y0081648D01*
X0039826Y0082847D02*
X0024299Y0082847D01*
X0024299Y0084045D02*
X0039899Y0084045D01*
X0040621Y0085244D02*
X0024299Y0085244D01*
X0024299Y0086443D02*
X0031540Y0086443D01*
X0028956Y0087641D02*
X0024299Y0087641D01*
X0024299Y0088840D02*
X0027424Y0088840D01*
X0026349Y0090038D02*
X0024299Y0090038D01*
X0024299Y0091237D02*
X0025546Y0091237D01*
X0024972Y0092435D02*
X0024299Y0092435D01*
X0024299Y0093634D02*
X0024578Y0093634D01*
X0024337Y0094832D02*
X0024299Y0094832D01*
X0038680Y0105619D02*
X0124880Y0105619D01*
X0124880Y0104420D02*
X0040695Y0104420D01*
X0042021Y0103222D02*
X0047429Y0103222D01*
X0046701Y0102023D02*
X0042969Y0102023D01*
X0043663Y0100825D02*
X0046499Y0100825D01*
X0046709Y0099626D02*
X0044165Y0099626D01*
X0044502Y0098428D02*
X0047446Y0098428D01*
X0047518Y0096031D02*
X0047518Y0096031D01*
X0047518Y0094832D02*
X0047518Y0094832D01*
X0047518Y0093634D02*
X0047518Y0093634D01*
X0049808Y0093634D02*
X0049826Y0093634D01*
X0049996Y0094832D02*
X0050225Y0094832D01*
X0049533Y0096031D02*
X0056520Y0096031D01*
X0056288Y0097229D02*
X0044688Y0097229D01*
X0052589Y0098428D02*
X0052747Y0098428D01*
X0054978Y0098428D02*
X0055058Y0098428D01*
X0055058Y0099626D02*
X0054978Y0099626D01*
X0054978Y0102023D02*
X0055058Y0102023D01*
X0055058Y0103222D02*
X0054978Y0103222D01*
X0052730Y0103222D02*
X0052606Y0103222D01*
X0057306Y0103222D02*
X0057429Y0103222D01*
X0058768Y0096031D02*
X0058768Y0096031D01*
X0059826Y0079251D02*
X0047907Y0079251D01*
X0044629Y0079251D02*
X0024299Y0079251D01*
X0024299Y0078053D02*
X0043755Y0078053D01*
X0043576Y0076854D02*
X0037264Y0076854D01*
X0037442Y0076781D02*
X0036991Y0076968D01*
X0036512Y0077063D01*
X0036268Y0077063D01*
X0036268Y0074583D01*
X0036268Y0072104D01*
X0036512Y0072104D01*
X0036991Y0072199D01*
X0037442Y0072386D01*
X0037848Y0072657D01*
X0038194Y0073003D01*
X0038465Y0073409D01*
X0038652Y0073860D01*
X0038747Y0074339D01*
X0038747Y0074583D01*
X0036268Y0074583D01*
X0036268Y0074583D01*
X0036268Y0074583D01*
X0036268Y0072104D01*
X0036024Y0072104D01*
X0035545Y0072199D01*
X0035093Y0072386D01*
X0034687Y0072657D01*
X0034342Y0073003D01*
X0034070Y0073409D01*
X0033884Y0073860D01*
X0033788Y0074339D01*
X0033788Y0074583D01*
X0036268Y0074583D01*
X0038747Y0074583D01*
X0038747Y0074828D01*
X0038652Y0075307D01*
X0038465Y0075758D01*
X0038194Y0076164D01*
X0037848Y0076509D01*
X0037442Y0076781D01*
X0036268Y0076854D02*
X0036268Y0076854D01*
X0036268Y0077063D02*
X0036024Y0077063D01*
X0035545Y0076968D01*
X0035093Y0076781D01*
X0034687Y0076509D01*
X0034342Y0076164D01*
X0034070Y0075758D01*
X0033884Y0075307D01*
X0033788Y0074828D01*
X0033788Y0074583D01*
X0036268Y0074583D01*
X0036268Y0074583D01*
X0036268Y0074583D01*
X0036268Y0077063D01*
X0035271Y0076854D02*
X0024299Y0076854D01*
X0024299Y0075656D02*
X0034028Y0075656D01*
X0033788Y0074457D02*
X0024299Y0074457D01*
X0024299Y0073259D02*
X0034171Y0073259D01*
X0036268Y0073259D02*
X0036268Y0073259D01*
X0036268Y0074457D02*
X0036268Y0074457D01*
X0036268Y0075656D02*
X0036268Y0075656D01*
X0038507Y0075656D02*
X0043945Y0075656D01*
X0044826Y0074457D02*
X0038747Y0074457D01*
X0038365Y0073259D02*
X0045152Y0073259D01*
X0046574Y0072060D02*
X0024299Y0072060D01*
X0024299Y0070862D02*
X0048576Y0070862D01*
X0048462Y0072060D02*
X0048862Y0072060D01*
X0028519Y0069663D02*
X0024299Y0069663D01*
X0024299Y0068465D02*
X0027321Y0068465D01*
X0026122Y0067266D02*
X0024299Y0067266D01*
X0024299Y0066068D02*
X0024924Y0066068D01*
X0025241Y0055281D02*
X0024299Y0055281D01*
X0024299Y0054083D02*
X0026440Y0054083D01*
X0027092Y0052884D02*
X0024299Y0052884D01*
X0024299Y0051686D02*
X0026562Y0051686D01*
X0026499Y0050487D02*
X0024299Y0050487D01*
X0024299Y0049289D02*
X0026848Y0049289D01*
D14*
X0027518Y0055833D02*
X0025018Y0058333D01*
X0025018Y0063333D01*
X0030018Y0068333D01*
X0065018Y0068333D01*
X0062518Y0065833D02*
X0063768Y0064583D01*
X0075018Y0064583D01*
X0077518Y0063333D02*
X0077518Y0062083D01*
X0076268Y0060833D01*
X0043768Y0060833D01*
X0042518Y0059583D01*
X0042518Y0055833D01*
X0045018Y0053333D01*
X0045018Y0058333D02*
X0078768Y0058333D01*
X0062518Y0065833D02*
X0042518Y0065833D01*
X0040018Y0063333D01*
X0040018Y0060833D01*
X0035018Y0055833D01*
X0046268Y0077083D02*
X0071268Y0077083D01*
X0075018Y0089583D02*
X0107518Y0089583D01*
X0103768Y0092083D02*
X0076268Y0092083D01*
X0073768Y0090833D02*
X0075018Y0089583D01*
X0073768Y0090833D02*
X0072518Y0090833D01*
X0094910Y0079692D02*
X0103660Y0079692D01*
X0083768Y0027083D02*
X0062518Y0027083D01*
X0060018Y0024583D02*
X0078768Y0024583D01*
X0080018Y0023333D01*
X0080018Y0020833D01*
X0085018Y0020833D02*
X0085018Y0025833D01*
X0083768Y0027083D01*
X0060018Y0024583D02*
X0057518Y0027083D01*
D15*
X0030018Y0055833D02*
X0027518Y0055833D01*
M02*
