G75*
%MOIN*%
%OFA0B0*%
%FSLAX25Y25*%
%IPPOS*%
%LPD*%
%AMOC8*
5,1,8,0,0,1.08239X$1,22.5*
%
%ADD10R,0.02756X0.03543*%
%ADD11R,0.03543X0.02756*%
%ADD12R,0.03740X0.01378*%
%ADD13R,0.01378X0.03740*%
%ADD14R,0.03937X0.07087*%
%ADD15C,0.03839*%
%ADD16C,0.17717*%
%ADD17C,0.01181*%
%ADD18C,0.02184*%
%ADD19C,0.00800*%
%ADD20C,0.01200*%
%ADD21C,0.00787*%
%ADD22C,0.01600*%
D10*
X0049959Y0030833D03*
X0055077Y0030833D03*
X0062459Y0030833D03*
X0067577Y0030833D03*
X0083709Y0037083D03*
X0083709Y0042083D03*
X0083709Y0047083D03*
X0088827Y0047083D03*
X0088827Y0042083D03*
X0088827Y0037083D03*
X0062577Y0093333D03*
X0057459Y0093333D03*
D11*
X0047518Y0089642D03*
X0047518Y0084524D03*
D12*
X0056278Y0081660D03*
X0056278Y0079692D03*
X0056278Y0077723D03*
X0056278Y0075755D03*
X0056278Y0073786D03*
X0056278Y0071818D03*
X0056278Y0069849D03*
X0056278Y0067881D03*
X0056278Y0065912D03*
X0056278Y0063944D03*
X0056278Y0061975D03*
X0056278Y0060007D03*
X0088758Y0060007D03*
X0088758Y0061975D03*
X0088758Y0063944D03*
X0088758Y0065912D03*
X0088758Y0067881D03*
X0088758Y0069849D03*
X0088758Y0071818D03*
X0088758Y0073786D03*
X0088758Y0075755D03*
X0088758Y0077723D03*
X0088758Y0079692D03*
X0088758Y0081660D03*
D13*
X0083345Y0087073D03*
X0081376Y0087073D03*
X0079408Y0087073D03*
X0077439Y0087073D03*
X0075471Y0087073D03*
X0073502Y0087073D03*
X0071534Y0087073D03*
X0069565Y0087073D03*
X0067597Y0087073D03*
X0065628Y0087073D03*
X0063660Y0087073D03*
X0061691Y0087073D03*
X0061691Y0054593D03*
X0063660Y0054593D03*
X0065628Y0054593D03*
X0067597Y0054593D03*
X0069565Y0054593D03*
X0071534Y0054593D03*
X0073502Y0054593D03*
X0075471Y0054593D03*
X0077439Y0054593D03*
X0079408Y0054593D03*
X0081376Y0054593D03*
X0083345Y0054593D03*
D14*
X0062439Y0040833D03*
X0052597Y0040833D03*
D15*
X0038856Y0040833D02*
X0035018Y0040833D01*
X0030018Y0040833D02*
X0026179Y0040833D01*
X0026179Y0045833D02*
X0030018Y0045833D01*
X0035018Y0045833D02*
X0038856Y0045833D01*
X0038856Y0050833D02*
X0035018Y0050833D01*
X0030018Y0050833D02*
X0026179Y0050833D01*
X0026179Y0055833D02*
X0030018Y0055833D01*
X0035018Y0055833D02*
X0038856Y0055833D01*
X0038856Y0060833D02*
X0035018Y0060833D01*
X0030018Y0060833D02*
X0026179Y0060833D01*
X0050018Y0020833D02*
X0050018Y0016995D01*
X0055018Y0016995D02*
X0055018Y0020833D01*
X0060018Y0020833D02*
X0060018Y0016995D01*
X0065018Y0016995D02*
X0065018Y0020833D01*
X0070018Y0020833D02*
X0070018Y0016995D01*
X0075018Y0016995D02*
X0075018Y0020833D01*
X0080018Y0020833D02*
X0080018Y0016995D01*
X0085018Y0016995D02*
X0085018Y0020833D01*
X0090018Y0020833D02*
X0090018Y0016995D01*
X0095018Y0016995D02*
X0095018Y0020833D01*
X0095018Y0100833D02*
X0095018Y0104672D01*
X0090018Y0104672D02*
X0090018Y0100833D01*
X0085018Y0100833D02*
X0085018Y0104672D01*
X0080018Y0104672D02*
X0080018Y0100833D01*
X0075018Y0100833D02*
X0075018Y0104672D01*
X0070018Y0104672D02*
X0070018Y0100833D01*
X0065018Y0100833D02*
X0065018Y0104672D01*
X0060018Y0104672D02*
X0060018Y0100833D01*
X0055018Y0100833D02*
X0055018Y0104672D01*
X0050018Y0104672D02*
X0050018Y0100833D01*
D16*
X0034486Y0025400D03*
X0034486Y0096266D03*
D17*
X0057459Y0093333D02*
X0061691Y0089101D01*
X0061691Y0087073D01*
X0063660Y0087073D02*
X0063660Y0092251D01*
X0062577Y0093333D01*
X0062518Y0093333D01*
D18*
X0058768Y0097083D03*
X0052518Y0093333D03*
X0047518Y0094583D03*
X0042518Y0083333D03*
X0046268Y0077083D03*
X0047518Y0074583D03*
X0052518Y0074583D03*
X0051268Y0070833D03*
X0060018Y0070833D03*
X0060018Y0074583D03*
X0062518Y0079583D03*
X0071268Y0077083D03*
X0076268Y0082083D03*
X0072518Y0090833D03*
X0076268Y0092083D03*
X0095018Y0084583D03*
X0094910Y0079692D03*
X0095018Y0075833D03*
X0092518Y0074583D03*
X0085018Y0070833D03*
X0080018Y0072083D03*
X0075018Y0064583D03*
X0077518Y0063333D03*
X0081268Y0060833D03*
X0078768Y0058333D03*
X0087518Y0057083D03*
X0097518Y0057083D03*
X0097518Y0052083D03*
X0096268Y0049583D03*
X0093768Y0047083D03*
X0093768Y0042083D03*
X0093768Y0037083D03*
X0102518Y0030833D03*
X0107518Y0035833D03*
X0110018Y0039583D03*
X0115018Y0034583D03*
X0120018Y0037083D03*
X0106268Y0054583D03*
X0097518Y0065833D03*
X0106268Y0067083D03*
X0112518Y0078333D03*
X0108768Y0079583D03*
X0103660Y0079692D03*
X0110018Y0085833D03*
X0107518Y0089583D03*
X0103768Y0092083D03*
X0115018Y0093333D03*
X0065018Y0068333D03*
X0045018Y0063333D03*
X0045018Y0058333D03*
X0045018Y0053333D03*
X0052518Y0050833D03*
X0045018Y0045833D03*
X0045018Y0030833D03*
X0057518Y0027083D03*
X0062518Y0027083D03*
X0072518Y0030833D03*
X0080018Y0030833D03*
X0078768Y0042083D03*
X0076268Y0050833D03*
X0068768Y0047083D03*
X0036268Y0074583D03*
D19*
X0032065Y0067881D02*
X0030018Y0065833D01*
X0030018Y0060833D01*
X0035018Y0060833D02*
X0035018Y0062083D01*
X0038847Y0065912D01*
X0056278Y0065912D01*
X0056278Y0063944D02*
X0059378Y0063944D01*
X0061268Y0065833D01*
X0061268Y0068333D01*
X0063768Y0070833D01*
X0075018Y0070833D01*
X0085018Y0080833D01*
X0085018Y0083333D01*
X0087518Y0085833D01*
X0092518Y0085833D01*
X0093768Y0087083D01*
X0100018Y0087083D01*
X0101268Y0088333D01*
X0101268Y0093333D01*
X0102518Y0094583D01*
X0113768Y0094583D01*
X0115018Y0093333D01*
X0113768Y0089583D02*
X0118768Y0084583D01*
X0118768Y0054583D01*
X0112518Y0048333D01*
X0112518Y0037083D01*
X0111268Y0035833D01*
X0107518Y0035833D01*
X0110018Y0039583D02*
X0110018Y0048333D01*
X0116268Y0054583D01*
X0116268Y0083333D01*
X0113768Y0085833D01*
X0110018Y0085833D01*
X0107518Y0089583D02*
X0113768Y0089583D01*
X0103768Y0087083D02*
X0103768Y0092083D01*
X0103768Y0087083D02*
X0101268Y0084583D01*
X0101268Y0072083D01*
X0097518Y0068333D01*
X0097518Y0065833D01*
X0095018Y0067083D02*
X0095018Y0068333D01*
X0098768Y0072083D01*
X0098768Y0083333D01*
X0097518Y0084583D01*
X0095018Y0084583D01*
X0094910Y0079692D02*
X0088758Y0079692D01*
X0088758Y0077723D02*
X0093128Y0077723D01*
X0095018Y0075833D01*
X0092518Y0074583D02*
X0091347Y0075755D01*
X0088758Y0075755D01*
X0088758Y0073786D02*
X0081721Y0073786D01*
X0080018Y0072083D01*
X0085018Y0070833D02*
X0086002Y0071818D01*
X0088758Y0071818D01*
X0093768Y0065833D02*
X0095018Y0067083D01*
X0093768Y0065833D02*
X0088837Y0065833D01*
X0088758Y0065912D01*
X0088758Y0063944D02*
X0078128Y0063944D01*
X0077518Y0063333D01*
X0075471Y0064131D02*
X0075471Y0054593D01*
X0077439Y0054593D02*
X0077439Y0052005D01*
X0076268Y0050833D01*
X0075018Y0047083D02*
X0071534Y0050568D01*
X0071534Y0054593D01*
X0073502Y0054593D02*
X0073502Y0062349D01*
X0071268Y0064583D01*
X0068768Y0064583D01*
X0065018Y0068333D01*
X0060018Y0070833D02*
X0059034Y0069849D01*
X0056278Y0069849D01*
X0056278Y0067881D02*
X0032065Y0067881D01*
X0045018Y0063333D02*
X0048345Y0060007D01*
X0056278Y0060007D01*
X0061691Y0054593D02*
X0061691Y0050007D01*
X0060018Y0048333D01*
X0053768Y0048333D01*
X0052518Y0047083D01*
X0052518Y0040912D01*
X0052597Y0040833D01*
X0052597Y0037005D01*
X0055018Y0034583D01*
X0055018Y0030892D01*
X0055077Y0030833D01*
X0052518Y0033333D02*
X0052518Y0028333D01*
X0053768Y0027083D01*
X0057518Y0027083D01*
X0060018Y0022083D02*
X0062518Y0024583D01*
X0063768Y0024583D01*
X0065018Y0025833D01*
X0075018Y0025833D01*
X0080018Y0030833D01*
X0072518Y0030833D02*
X0067577Y0030833D01*
X0062459Y0030833D02*
X0062459Y0040814D01*
X0062439Y0040833D01*
X0063660Y0042054D01*
X0063660Y0054593D01*
X0067597Y0054593D02*
X0067597Y0048255D01*
X0068768Y0047083D01*
X0075018Y0047083D02*
X0083709Y0047083D01*
X0082518Y0050833D02*
X0092518Y0050833D01*
X0093768Y0049583D01*
X0096268Y0049583D01*
X0093768Y0047083D02*
X0088827Y0047083D01*
X0088827Y0042083D02*
X0093768Y0042083D01*
X0093768Y0037083D02*
X0088827Y0037083D01*
X0082518Y0050833D02*
X0081376Y0051975D01*
X0081376Y0054593D01*
X0083345Y0054593D02*
X0095028Y0054593D01*
X0097518Y0057083D01*
X0088758Y0058323D02*
X0087518Y0057083D01*
X0088758Y0058323D02*
X0088758Y0060007D01*
X0088758Y0061975D02*
X0082410Y0061975D01*
X0081268Y0060833D01*
X0078768Y0058333D02*
X0079408Y0057694D01*
X0079408Y0054593D01*
X0075471Y0064131D02*
X0075018Y0064583D01*
X0060018Y0074583D02*
X0058847Y0075755D01*
X0056278Y0075755D01*
X0056278Y0073786D02*
X0053315Y0073786D01*
X0052518Y0074583D01*
X0052252Y0071818D02*
X0051268Y0070833D01*
X0052252Y0071818D02*
X0056278Y0071818D01*
X0056278Y0077723D02*
X0050658Y0077723D01*
X0047518Y0074583D01*
X0050372Y0081670D02*
X0047518Y0084524D01*
X0046327Y0083333D01*
X0042518Y0083333D01*
X0050372Y0081670D02*
X0056268Y0081670D01*
X0056278Y0079692D02*
X0062410Y0079692D01*
X0062518Y0079583D01*
X0071268Y0077083D02*
X0071534Y0077349D01*
X0071534Y0087073D01*
X0073502Y0087073D02*
X0073502Y0089849D01*
X0072518Y0090833D01*
X0076268Y0092083D02*
X0077439Y0090912D01*
X0077439Y0087073D01*
X0075471Y0087073D02*
X0075471Y0082881D01*
X0076268Y0082083D01*
X0047518Y0089642D02*
X0047518Y0094583D01*
X0052518Y0050833D02*
X0048768Y0047083D01*
X0048768Y0037083D01*
X0052518Y0033333D01*
X0050018Y0030892D02*
X0049959Y0030833D01*
X0050018Y0030892D02*
X0045018Y0030833D01*
X0060018Y0022083D02*
X0060018Y0020833D01*
D20*
X0067518Y0037083D02*
X0083709Y0037083D01*
X0078768Y0042083D02*
X0078768Y0043333D01*
X0077518Y0044583D01*
X0075018Y0044583D01*
X0069565Y0050036D01*
X0069565Y0054593D01*
X0065628Y0054593D02*
X0065628Y0038973D01*
X0067518Y0037083D01*
X0062518Y0093333D02*
X0061268Y0094583D01*
X0061268Y0095833D01*
X0060018Y0097083D01*
X0058768Y0097083D01*
D21*
X0057459Y0093333D02*
X0052518Y0093333D01*
X0060018Y0100833D02*
X0065628Y0095223D01*
X0065628Y0087073D01*
X0067597Y0087073D02*
X0067597Y0098255D01*
X0065018Y0100833D01*
X0069565Y0100381D02*
X0070018Y0100833D01*
X0069565Y0100381D02*
X0069565Y0087073D01*
X0079408Y0087073D02*
X0079408Y0096444D01*
X0075018Y0100833D01*
X0056268Y0081670D02*
X0056278Y0081660D01*
D22*
X0078768Y0042083D02*
X0083709Y0042083D01*
M02*
