G75*
%MOIN*%
%OFA0B0*%
%FSLAX25Y25*%
%IPPOS*%
%LPD*%
%AMOC8*
5,1,8,0,0,1.08239X$1,22.5*
%
%ADD10R,0.03937X0.05512*%
%ADD11R,0.04331X0.03937*%
%ADD12R,0.05906X0.03543*%
%ADD13R,0.03100X0.03500*%
%ADD14R,0.07874X0.08268*%
%ADD15R,0.07480X0.06299*%
%ADD16R,0.05315X0.01575*%
%ADD17R,0.03150X0.03937*%
%ADD18R,0.02756X0.03937*%
%ADD19R,0.03937X0.03150*%
%ADD20R,0.03937X0.02756*%
%ADD21R,0.07874X0.07874*%
%ADD22R,0.02756X0.03543*%
%ADD23R,0.06299X0.07087*%
D10*
X0093337Y0041669D03*
X0100817Y0041669D03*
X0097077Y0050331D03*
X0113337Y0041669D03*
X0120817Y0041669D03*
X0117077Y0050331D03*
X0118337Y0086669D03*
X0125817Y0086669D03*
X0122077Y0095331D03*
X0110817Y0086669D03*
X0103337Y0086669D03*
X0095817Y0086669D03*
X0088337Y0086669D03*
X0092077Y0095331D03*
X0107077Y0095331D03*
D11*
X0107077Y0112654D03*
X0107077Y0119346D03*
X0092077Y0119346D03*
X0092077Y0112654D03*
X0097077Y0069346D03*
X0097077Y0062654D03*
X0107077Y0062654D03*
X0107077Y0069346D03*
X0117077Y0069346D03*
X0117077Y0062654D03*
X0087077Y0062654D03*
X0087077Y0069346D03*
X0097077Y0024346D03*
X0097077Y0017654D03*
X0182077Y0057654D03*
X0182077Y0064346D03*
X0192077Y0064346D03*
X0192077Y0057654D03*
X0162077Y0102654D03*
X0162077Y0109346D03*
X0162077Y0117654D03*
X0162077Y0124346D03*
D12*
X0127077Y0122102D03*
X0127077Y0109898D03*
D13*
X0100777Y0137000D03*
X0093177Y0137000D03*
X0096977Y0145000D03*
X0133377Y0050000D03*
X0140977Y0050000D03*
X0137177Y0042000D03*
D14*
X0021329Y0158795D03*
X0021329Y0183205D03*
D15*
X0012077Y0187142D03*
X0012077Y0154858D03*
D16*
X0022608Y0165882D03*
X0022608Y0168441D03*
X0022608Y0171000D03*
X0022608Y0173559D03*
X0022608Y0176118D03*
D17*
X0058140Y0046276D03*
X0066014Y0046276D03*
X0066014Y0055724D03*
X0058140Y0055724D03*
X0058140Y0081276D03*
X0066014Y0081276D03*
X0066014Y0090724D03*
X0058140Y0090724D03*
D18*
X0062077Y0090724D03*
X0062077Y0046276D03*
D19*
X0066801Y0102063D03*
X0057352Y0102063D03*
X0057352Y0109937D03*
X0057352Y0117063D03*
X0057352Y0124937D03*
X0066801Y0124937D03*
X0066801Y0117063D03*
X0066801Y0109937D03*
D20*
X0057352Y0106000D03*
X0057352Y0121000D03*
D21*
X0051309Y0068500D03*
X0067844Y0068500D03*
D22*
X0298337Y0080134D03*
X0305817Y0080134D03*
X0302077Y0071866D03*
D23*
X0263839Y0071000D03*
X0252815Y0071000D03*
M02*
