G75*
%MOIN*%
%OFA0B0*%
%FSLAX25Y25*%
%IPPOS*%
%LPD*%
%AMOC8*
5,1,8,0,0,1.08239X$1,22.5*
%
%ADD10C,0.00000*%
D10*
X0013888Y0001000D02*
X0324911Y0001000D01*
X0325196Y0001003D01*
X0325482Y0001014D01*
X0325767Y0001031D01*
X0326051Y0001055D01*
X0326335Y0001086D01*
X0326618Y0001124D01*
X0326899Y0001169D01*
X0327180Y0001220D01*
X0327460Y0001278D01*
X0327738Y0001343D01*
X0328014Y0001415D01*
X0328288Y0001493D01*
X0328561Y0001578D01*
X0328831Y0001670D01*
X0329099Y0001768D01*
X0329365Y0001872D01*
X0329628Y0001983D01*
X0329888Y0002100D01*
X0330146Y0002223D01*
X0330400Y0002353D01*
X0330651Y0002489D01*
X0330899Y0002630D01*
X0331143Y0002778D01*
X0331384Y0002931D01*
X0331620Y0003091D01*
X0331853Y0003256D01*
X0332082Y0003426D01*
X0332307Y0003602D01*
X0332527Y0003784D01*
X0332743Y0003970D01*
X0332954Y0004162D01*
X0333161Y0004359D01*
X0333363Y0004561D01*
X0333560Y0004768D01*
X0333752Y0004979D01*
X0333938Y0005195D01*
X0334120Y0005415D01*
X0334296Y0005640D01*
X0334466Y0005869D01*
X0334631Y0006102D01*
X0334791Y0006338D01*
X0334944Y0006579D01*
X0335092Y0006823D01*
X0335233Y0007071D01*
X0335369Y0007322D01*
X0335499Y0007576D01*
X0335622Y0007834D01*
X0335739Y0008094D01*
X0335850Y0008357D01*
X0335954Y0008623D01*
X0336052Y0008891D01*
X0336144Y0009161D01*
X0336229Y0009434D01*
X0336307Y0009708D01*
X0336379Y0009984D01*
X0336444Y0010262D01*
X0336502Y0010542D01*
X0336553Y0010823D01*
X0336598Y0011104D01*
X0336636Y0011387D01*
X0336667Y0011671D01*
X0336691Y0011955D01*
X0336708Y0012240D01*
X0336719Y0012526D01*
X0336722Y0012811D01*
X0336722Y0209661D01*
X0336719Y0209946D01*
X0336708Y0210232D01*
X0336691Y0210517D01*
X0336667Y0210801D01*
X0336636Y0211085D01*
X0336598Y0211368D01*
X0336553Y0211649D01*
X0336502Y0211930D01*
X0336444Y0212210D01*
X0336379Y0212488D01*
X0336307Y0212764D01*
X0336229Y0213038D01*
X0336144Y0213311D01*
X0336052Y0213581D01*
X0335954Y0213849D01*
X0335850Y0214115D01*
X0335739Y0214378D01*
X0335622Y0214638D01*
X0335499Y0214896D01*
X0335369Y0215150D01*
X0335233Y0215401D01*
X0335092Y0215649D01*
X0334944Y0215893D01*
X0334791Y0216134D01*
X0334631Y0216370D01*
X0334466Y0216603D01*
X0334296Y0216832D01*
X0334120Y0217057D01*
X0333938Y0217277D01*
X0333752Y0217493D01*
X0333560Y0217704D01*
X0333363Y0217911D01*
X0333161Y0218113D01*
X0332954Y0218310D01*
X0332743Y0218502D01*
X0332527Y0218688D01*
X0332307Y0218870D01*
X0332082Y0219046D01*
X0331853Y0219216D01*
X0331620Y0219381D01*
X0331384Y0219541D01*
X0331143Y0219694D01*
X0330899Y0219842D01*
X0330651Y0219983D01*
X0330400Y0220119D01*
X0330146Y0220249D01*
X0329888Y0220372D01*
X0329628Y0220489D01*
X0329365Y0220600D01*
X0329099Y0220704D01*
X0328831Y0220802D01*
X0328561Y0220894D01*
X0328288Y0220979D01*
X0328014Y0221057D01*
X0327738Y0221129D01*
X0327460Y0221194D01*
X0327180Y0221252D01*
X0326899Y0221303D01*
X0326618Y0221348D01*
X0326335Y0221386D01*
X0326051Y0221417D01*
X0325767Y0221441D01*
X0325482Y0221458D01*
X0325196Y0221469D01*
X0324911Y0221472D01*
X0013888Y0221472D01*
X0013603Y0221469D01*
X0013317Y0221458D01*
X0013032Y0221441D01*
X0012748Y0221417D01*
X0012464Y0221386D01*
X0012181Y0221348D01*
X0011900Y0221303D01*
X0011619Y0221252D01*
X0011339Y0221194D01*
X0011061Y0221129D01*
X0010785Y0221057D01*
X0010511Y0220979D01*
X0010238Y0220894D01*
X0009968Y0220802D01*
X0009700Y0220704D01*
X0009434Y0220600D01*
X0009171Y0220489D01*
X0008911Y0220372D01*
X0008653Y0220249D01*
X0008399Y0220119D01*
X0008148Y0219983D01*
X0007900Y0219842D01*
X0007656Y0219694D01*
X0007415Y0219541D01*
X0007179Y0219381D01*
X0006946Y0219216D01*
X0006717Y0219046D01*
X0006492Y0218870D01*
X0006272Y0218688D01*
X0006056Y0218502D01*
X0005845Y0218310D01*
X0005638Y0218113D01*
X0005436Y0217911D01*
X0005239Y0217704D01*
X0005047Y0217493D01*
X0004861Y0217277D01*
X0004679Y0217057D01*
X0004503Y0216832D01*
X0004333Y0216603D01*
X0004168Y0216370D01*
X0004008Y0216134D01*
X0003855Y0215893D01*
X0003707Y0215649D01*
X0003566Y0215401D01*
X0003430Y0215150D01*
X0003300Y0214896D01*
X0003177Y0214638D01*
X0003060Y0214378D01*
X0002949Y0214115D01*
X0002845Y0213849D01*
X0002747Y0213581D01*
X0002655Y0213311D01*
X0002570Y0213038D01*
X0002492Y0212764D01*
X0002420Y0212488D01*
X0002355Y0212210D01*
X0002297Y0211930D01*
X0002246Y0211649D01*
X0002201Y0211368D01*
X0002163Y0211085D01*
X0002132Y0210801D01*
X0002108Y0210517D01*
X0002091Y0210232D01*
X0002080Y0209946D01*
X0002077Y0209661D01*
X0002077Y0012811D01*
X0002080Y0012526D01*
X0002091Y0012240D01*
X0002108Y0011955D01*
X0002132Y0011671D01*
X0002163Y0011387D01*
X0002201Y0011104D01*
X0002246Y0010823D01*
X0002297Y0010542D01*
X0002355Y0010262D01*
X0002420Y0009984D01*
X0002492Y0009708D01*
X0002570Y0009434D01*
X0002655Y0009161D01*
X0002747Y0008891D01*
X0002845Y0008623D01*
X0002949Y0008357D01*
X0003060Y0008094D01*
X0003177Y0007834D01*
X0003300Y0007576D01*
X0003430Y0007322D01*
X0003566Y0007071D01*
X0003707Y0006823D01*
X0003855Y0006579D01*
X0004008Y0006338D01*
X0004168Y0006102D01*
X0004333Y0005869D01*
X0004503Y0005640D01*
X0004679Y0005415D01*
X0004861Y0005195D01*
X0005047Y0004979D01*
X0005239Y0004768D01*
X0005436Y0004561D01*
X0005638Y0004359D01*
X0005845Y0004162D01*
X0006056Y0003970D01*
X0006272Y0003784D01*
X0006492Y0003602D01*
X0006717Y0003426D01*
X0006946Y0003256D01*
X0007179Y0003091D01*
X0007415Y0002931D01*
X0007656Y0002778D01*
X0007900Y0002630D01*
X0008148Y0002489D01*
X0008399Y0002353D01*
X0008653Y0002223D01*
X0008911Y0002100D01*
X0009171Y0001983D01*
X0009434Y0001872D01*
X0009700Y0001768D01*
X0009968Y0001670D01*
X0010238Y0001578D01*
X0010511Y0001493D01*
X0010785Y0001415D01*
X0011061Y0001343D01*
X0011339Y0001278D01*
X0011619Y0001220D01*
X0011900Y0001169D01*
X0012181Y0001124D01*
X0012464Y0001086D01*
X0012748Y0001055D01*
X0013032Y0001031D01*
X0013317Y0001014D01*
X0013603Y0001003D01*
X0013888Y0001000D01*
X0010443Y0014780D02*
X0010445Y0014927D01*
X0010451Y0015073D01*
X0010461Y0015219D01*
X0010475Y0015365D01*
X0010493Y0015511D01*
X0010514Y0015656D01*
X0010540Y0015800D01*
X0010570Y0015944D01*
X0010603Y0016086D01*
X0010640Y0016228D01*
X0010681Y0016369D01*
X0010726Y0016508D01*
X0010775Y0016647D01*
X0010827Y0016784D01*
X0010884Y0016919D01*
X0010943Y0017053D01*
X0011007Y0017185D01*
X0011074Y0017315D01*
X0011144Y0017444D01*
X0011218Y0017571D01*
X0011295Y0017695D01*
X0011376Y0017818D01*
X0011460Y0017938D01*
X0011547Y0018056D01*
X0011637Y0018171D01*
X0011730Y0018284D01*
X0011827Y0018395D01*
X0011926Y0018503D01*
X0012028Y0018608D01*
X0012133Y0018710D01*
X0012241Y0018809D01*
X0012352Y0018906D01*
X0012465Y0018999D01*
X0012580Y0019089D01*
X0012698Y0019176D01*
X0012818Y0019260D01*
X0012941Y0019341D01*
X0013065Y0019418D01*
X0013192Y0019492D01*
X0013321Y0019562D01*
X0013451Y0019629D01*
X0013583Y0019693D01*
X0013717Y0019752D01*
X0013852Y0019809D01*
X0013989Y0019861D01*
X0014128Y0019910D01*
X0014267Y0019955D01*
X0014408Y0019996D01*
X0014550Y0020033D01*
X0014692Y0020066D01*
X0014836Y0020096D01*
X0014980Y0020122D01*
X0015125Y0020143D01*
X0015271Y0020161D01*
X0015417Y0020175D01*
X0015563Y0020185D01*
X0015709Y0020191D01*
X0015856Y0020193D01*
X0016003Y0020191D01*
X0016149Y0020185D01*
X0016295Y0020175D01*
X0016441Y0020161D01*
X0016587Y0020143D01*
X0016732Y0020122D01*
X0016876Y0020096D01*
X0017020Y0020066D01*
X0017162Y0020033D01*
X0017304Y0019996D01*
X0017445Y0019955D01*
X0017584Y0019910D01*
X0017723Y0019861D01*
X0017860Y0019809D01*
X0017995Y0019752D01*
X0018129Y0019693D01*
X0018261Y0019629D01*
X0018391Y0019562D01*
X0018520Y0019492D01*
X0018647Y0019418D01*
X0018771Y0019341D01*
X0018894Y0019260D01*
X0019014Y0019176D01*
X0019132Y0019089D01*
X0019247Y0018999D01*
X0019360Y0018906D01*
X0019471Y0018809D01*
X0019579Y0018710D01*
X0019684Y0018608D01*
X0019786Y0018503D01*
X0019885Y0018395D01*
X0019982Y0018284D01*
X0020075Y0018171D01*
X0020165Y0018056D01*
X0020252Y0017938D01*
X0020336Y0017818D01*
X0020417Y0017695D01*
X0020494Y0017571D01*
X0020568Y0017444D01*
X0020638Y0017315D01*
X0020705Y0017185D01*
X0020769Y0017053D01*
X0020828Y0016919D01*
X0020885Y0016784D01*
X0020937Y0016647D01*
X0020986Y0016508D01*
X0021031Y0016369D01*
X0021072Y0016228D01*
X0021109Y0016086D01*
X0021142Y0015944D01*
X0021172Y0015800D01*
X0021198Y0015656D01*
X0021219Y0015511D01*
X0021237Y0015365D01*
X0021251Y0015219D01*
X0021261Y0015073D01*
X0021267Y0014927D01*
X0021269Y0014780D01*
X0021267Y0014633D01*
X0021261Y0014487D01*
X0021251Y0014341D01*
X0021237Y0014195D01*
X0021219Y0014049D01*
X0021198Y0013904D01*
X0021172Y0013760D01*
X0021142Y0013616D01*
X0021109Y0013474D01*
X0021072Y0013332D01*
X0021031Y0013191D01*
X0020986Y0013052D01*
X0020937Y0012913D01*
X0020885Y0012776D01*
X0020828Y0012641D01*
X0020769Y0012507D01*
X0020705Y0012375D01*
X0020638Y0012245D01*
X0020568Y0012116D01*
X0020494Y0011989D01*
X0020417Y0011865D01*
X0020336Y0011742D01*
X0020252Y0011622D01*
X0020165Y0011504D01*
X0020075Y0011389D01*
X0019982Y0011276D01*
X0019885Y0011165D01*
X0019786Y0011057D01*
X0019684Y0010952D01*
X0019579Y0010850D01*
X0019471Y0010751D01*
X0019360Y0010654D01*
X0019247Y0010561D01*
X0019132Y0010471D01*
X0019014Y0010384D01*
X0018894Y0010300D01*
X0018771Y0010219D01*
X0018647Y0010142D01*
X0018520Y0010068D01*
X0018391Y0009998D01*
X0018261Y0009931D01*
X0018129Y0009867D01*
X0017995Y0009808D01*
X0017860Y0009751D01*
X0017723Y0009699D01*
X0017584Y0009650D01*
X0017445Y0009605D01*
X0017304Y0009564D01*
X0017162Y0009527D01*
X0017020Y0009494D01*
X0016876Y0009464D01*
X0016732Y0009438D01*
X0016587Y0009417D01*
X0016441Y0009399D01*
X0016295Y0009385D01*
X0016149Y0009375D01*
X0016003Y0009369D01*
X0015856Y0009367D01*
X0015709Y0009369D01*
X0015563Y0009375D01*
X0015417Y0009385D01*
X0015271Y0009399D01*
X0015125Y0009417D01*
X0014980Y0009438D01*
X0014836Y0009464D01*
X0014692Y0009494D01*
X0014550Y0009527D01*
X0014408Y0009564D01*
X0014267Y0009605D01*
X0014128Y0009650D01*
X0013989Y0009699D01*
X0013852Y0009751D01*
X0013717Y0009808D01*
X0013583Y0009867D01*
X0013451Y0009931D01*
X0013321Y0009998D01*
X0013192Y0010068D01*
X0013065Y0010142D01*
X0012941Y0010219D01*
X0012818Y0010300D01*
X0012698Y0010384D01*
X0012580Y0010471D01*
X0012465Y0010561D01*
X0012352Y0010654D01*
X0012241Y0010751D01*
X0012133Y0010850D01*
X0012028Y0010952D01*
X0011926Y0011057D01*
X0011827Y0011165D01*
X0011730Y0011276D01*
X0011637Y0011389D01*
X0011547Y0011504D01*
X0011460Y0011622D01*
X0011376Y0011742D01*
X0011295Y0011865D01*
X0011218Y0011989D01*
X0011144Y0012116D01*
X0011074Y0012245D01*
X0011007Y0012375D01*
X0010943Y0012507D01*
X0010884Y0012641D01*
X0010827Y0012776D01*
X0010775Y0012913D01*
X0010726Y0013052D01*
X0010681Y0013191D01*
X0010640Y0013332D01*
X0010603Y0013474D01*
X0010570Y0013616D01*
X0010540Y0013760D01*
X0010514Y0013904D01*
X0010493Y0014049D01*
X0010475Y0014195D01*
X0010461Y0014341D01*
X0010451Y0014487D01*
X0010445Y0014633D01*
X0010443Y0014780D01*
X0238790Y0014780D02*
X0238792Y0014927D01*
X0238798Y0015073D01*
X0238808Y0015219D01*
X0238822Y0015365D01*
X0238840Y0015511D01*
X0238861Y0015656D01*
X0238887Y0015800D01*
X0238917Y0015944D01*
X0238950Y0016086D01*
X0238987Y0016228D01*
X0239028Y0016369D01*
X0239073Y0016508D01*
X0239122Y0016647D01*
X0239174Y0016784D01*
X0239231Y0016919D01*
X0239290Y0017053D01*
X0239354Y0017185D01*
X0239421Y0017315D01*
X0239491Y0017444D01*
X0239565Y0017571D01*
X0239642Y0017695D01*
X0239723Y0017818D01*
X0239807Y0017938D01*
X0239894Y0018056D01*
X0239984Y0018171D01*
X0240077Y0018284D01*
X0240174Y0018395D01*
X0240273Y0018503D01*
X0240375Y0018608D01*
X0240480Y0018710D01*
X0240588Y0018809D01*
X0240699Y0018906D01*
X0240812Y0018999D01*
X0240927Y0019089D01*
X0241045Y0019176D01*
X0241165Y0019260D01*
X0241288Y0019341D01*
X0241412Y0019418D01*
X0241539Y0019492D01*
X0241668Y0019562D01*
X0241798Y0019629D01*
X0241930Y0019693D01*
X0242064Y0019752D01*
X0242199Y0019809D01*
X0242336Y0019861D01*
X0242475Y0019910D01*
X0242614Y0019955D01*
X0242755Y0019996D01*
X0242897Y0020033D01*
X0243039Y0020066D01*
X0243183Y0020096D01*
X0243327Y0020122D01*
X0243472Y0020143D01*
X0243618Y0020161D01*
X0243764Y0020175D01*
X0243910Y0020185D01*
X0244056Y0020191D01*
X0244203Y0020193D01*
X0244350Y0020191D01*
X0244496Y0020185D01*
X0244642Y0020175D01*
X0244788Y0020161D01*
X0244934Y0020143D01*
X0245079Y0020122D01*
X0245223Y0020096D01*
X0245367Y0020066D01*
X0245509Y0020033D01*
X0245651Y0019996D01*
X0245792Y0019955D01*
X0245931Y0019910D01*
X0246070Y0019861D01*
X0246207Y0019809D01*
X0246342Y0019752D01*
X0246476Y0019693D01*
X0246608Y0019629D01*
X0246738Y0019562D01*
X0246867Y0019492D01*
X0246994Y0019418D01*
X0247118Y0019341D01*
X0247241Y0019260D01*
X0247361Y0019176D01*
X0247479Y0019089D01*
X0247594Y0018999D01*
X0247707Y0018906D01*
X0247818Y0018809D01*
X0247926Y0018710D01*
X0248031Y0018608D01*
X0248133Y0018503D01*
X0248232Y0018395D01*
X0248329Y0018284D01*
X0248422Y0018171D01*
X0248512Y0018056D01*
X0248599Y0017938D01*
X0248683Y0017818D01*
X0248764Y0017695D01*
X0248841Y0017571D01*
X0248915Y0017444D01*
X0248985Y0017315D01*
X0249052Y0017185D01*
X0249116Y0017053D01*
X0249175Y0016919D01*
X0249232Y0016784D01*
X0249284Y0016647D01*
X0249333Y0016508D01*
X0249378Y0016369D01*
X0249419Y0016228D01*
X0249456Y0016086D01*
X0249489Y0015944D01*
X0249519Y0015800D01*
X0249545Y0015656D01*
X0249566Y0015511D01*
X0249584Y0015365D01*
X0249598Y0015219D01*
X0249608Y0015073D01*
X0249614Y0014927D01*
X0249616Y0014780D01*
X0249614Y0014633D01*
X0249608Y0014487D01*
X0249598Y0014341D01*
X0249584Y0014195D01*
X0249566Y0014049D01*
X0249545Y0013904D01*
X0249519Y0013760D01*
X0249489Y0013616D01*
X0249456Y0013474D01*
X0249419Y0013332D01*
X0249378Y0013191D01*
X0249333Y0013052D01*
X0249284Y0012913D01*
X0249232Y0012776D01*
X0249175Y0012641D01*
X0249116Y0012507D01*
X0249052Y0012375D01*
X0248985Y0012245D01*
X0248915Y0012116D01*
X0248841Y0011989D01*
X0248764Y0011865D01*
X0248683Y0011742D01*
X0248599Y0011622D01*
X0248512Y0011504D01*
X0248422Y0011389D01*
X0248329Y0011276D01*
X0248232Y0011165D01*
X0248133Y0011057D01*
X0248031Y0010952D01*
X0247926Y0010850D01*
X0247818Y0010751D01*
X0247707Y0010654D01*
X0247594Y0010561D01*
X0247479Y0010471D01*
X0247361Y0010384D01*
X0247241Y0010300D01*
X0247118Y0010219D01*
X0246994Y0010142D01*
X0246867Y0010068D01*
X0246738Y0009998D01*
X0246608Y0009931D01*
X0246476Y0009867D01*
X0246342Y0009808D01*
X0246207Y0009751D01*
X0246070Y0009699D01*
X0245931Y0009650D01*
X0245792Y0009605D01*
X0245651Y0009564D01*
X0245509Y0009527D01*
X0245367Y0009494D01*
X0245223Y0009464D01*
X0245079Y0009438D01*
X0244934Y0009417D01*
X0244788Y0009399D01*
X0244642Y0009385D01*
X0244496Y0009375D01*
X0244350Y0009369D01*
X0244203Y0009367D01*
X0244056Y0009369D01*
X0243910Y0009375D01*
X0243764Y0009385D01*
X0243618Y0009399D01*
X0243472Y0009417D01*
X0243327Y0009438D01*
X0243183Y0009464D01*
X0243039Y0009494D01*
X0242897Y0009527D01*
X0242755Y0009564D01*
X0242614Y0009605D01*
X0242475Y0009650D01*
X0242336Y0009699D01*
X0242199Y0009751D01*
X0242064Y0009808D01*
X0241930Y0009867D01*
X0241798Y0009931D01*
X0241668Y0009998D01*
X0241539Y0010068D01*
X0241412Y0010142D01*
X0241288Y0010219D01*
X0241165Y0010300D01*
X0241045Y0010384D01*
X0240927Y0010471D01*
X0240812Y0010561D01*
X0240699Y0010654D01*
X0240588Y0010751D01*
X0240480Y0010850D01*
X0240375Y0010952D01*
X0240273Y0011057D01*
X0240174Y0011165D01*
X0240077Y0011276D01*
X0239984Y0011389D01*
X0239894Y0011504D01*
X0239807Y0011622D01*
X0239723Y0011742D01*
X0239642Y0011865D01*
X0239565Y0011989D01*
X0239491Y0012116D01*
X0239421Y0012245D01*
X0239354Y0012375D01*
X0239290Y0012507D01*
X0239231Y0012641D01*
X0239174Y0012776D01*
X0239122Y0012913D01*
X0239073Y0013052D01*
X0239028Y0013191D01*
X0238987Y0013332D01*
X0238950Y0013474D01*
X0238917Y0013616D01*
X0238887Y0013760D01*
X0238861Y0013904D01*
X0238840Y0014049D01*
X0238822Y0014195D01*
X0238808Y0014341D01*
X0238798Y0014487D01*
X0238792Y0014633D01*
X0238790Y0014780D01*
X0252904Y0141000D02*
X0252906Y0141081D01*
X0252912Y0141163D01*
X0252922Y0141244D01*
X0252936Y0141324D01*
X0252953Y0141403D01*
X0252975Y0141482D01*
X0253000Y0141559D01*
X0253029Y0141636D01*
X0253062Y0141710D01*
X0253099Y0141783D01*
X0253138Y0141854D01*
X0253182Y0141923D01*
X0253228Y0141990D01*
X0253278Y0142054D01*
X0253331Y0142116D01*
X0253387Y0142176D01*
X0253445Y0142232D01*
X0253507Y0142286D01*
X0253571Y0142337D01*
X0253637Y0142384D01*
X0253705Y0142428D01*
X0253776Y0142469D01*
X0253848Y0142506D01*
X0253923Y0142540D01*
X0253998Y0142570D01*
X0254076Y0142596D01*
X0254154Y0142619D01*
X0254233Y0142637D01*
X0254313Y0142652D01*
X0254394Y0142663D01*
X0254475Y0142670D01*
X0254557Y0142673D01*
X0254638Y0142672D01*
X0254719Y0142667D01*
X0254800Y0142658D01*
X0254881Y0142645D01*
X0254961Y0142628D01*
X0255039Y0142608D01*
X0255117Y0142583D01*
X0255194Y0142555D01*
X0255269Y0142523D01*
X0255342Y0142488D01*
X0255413Y0142449D01*
X0255483Y0142406D01*
X0255550Y0142361D01*
X0255616Y0142312D01*
X0255678Y0142260D01*
X0255738Y0142204D01*
X0255795Y0142146D01*
X0255850Y0142086D01*
X0255901Y0142022D01*
X0255949Y0141957D01*
X0255994Y0141889D01*
X0256036Y0141819D01*
X0256074Y0141747D01*
X0256109Y0141673D01*
X0256140Y0141598D01*
X0256167Y0141521D01*
X0256190Y0141443D01*
X0256210Y0141364D01*
X0256226Y0141284D01*
X0256238Y0141203D01*
X0256246Y0141122D01*
X0256250Y0141041D01*
X0256250Y0140959D01*
X0256246Y0140878D01*
X0256238Y0140797D01*
X0256226Y0140716D01*
X0256210Y0140636D01*
X0256190Y0140557D01*
X0256167Y0140479D01*
X0256140Y0140402D01*
X0256109Y0140327D01*
X0256074Y0140253D01*
X0256036Y0140181D01*
X0255994Y0140111D01*
X0255949Y0140043D01*
X0255901Y0139978D01*
X0255850Y0139914D01*
X0255795Y0139854D01*
X0255738Y0139796D01*
X0255678Y0139740D01*
X0255616Y0139688D01*
X0255550Y0139639D01*
X0255483Y0139594D01*
X0255414Y0139551D01*
X0255342Y0139512D01*
X0255269Y0139477D01*
X0255194Y0139445D01*
X0255117Y0139417D01*
X0255039Y0139392D01*
X0254961Y0139372D01*
X0254881Y0139355D01*
X0254800Y0139342D01*
X0254719Y0139333D01*
X0254638Y0139328D01*
X0254557Y0139327D01*
X0254475Y0139330D01*
X0254394Y0139337D01*
X0254313Y0139348D01*
X0254233Y0139363D01*
X0254154Y0139381D01*
X0254076Y0139404D01*
X0253998Y0139430D01*
X0253923Y0139460D01*
X0253848Y0139494D01*
X0253776Y0139531D01*
X0253705Y0139572D01*
X0253637Y0139616D01*
X0253571Y0139663D01*
X0253507Y0139714D01*
X0253445Y0139768D01*
X0253387Y0139824D01*
X0253331Y0139884D01*
X0253278Y0139946D01*
X0253228Y0140010D01*
X0253182Y0140077D01*
X0253138Y0140146D01*
X0253099Y0140217D01*
X0253062Y0140290D01*
X0253029Y0140364D01*
X0253000Y0140441D01*
X0252975Y0140518D01*
X0252953Y0140597D01*
X0252936Y0140676D01*
X0252922Y0140756D01*
X0252912Y0140837D01*
X0252906Y0140919D01*
X0252904Y0141000D01*
X0257904Y0141000D02*
X0257906Y0141081D01*
X0257912Y0141163D01*
X0257922Y0141244D01*
X0257936Y0141324D01*
X0257953Y0141403D01*
X0257975Y0141482D01*
X0258000Y0141559D01*
X0258029Y0141636D01*
X0258062Y0141710D01*
X0258099Y0141783D01*
X0258138Y0141854D01*
X0258182Y0141923D01*
X0258228Y0141990D01*
X0258278Y0142054D01*
X0258331Y0142116D01*
X0258387Y0142176D01*
X0258445Y0142232D01*
X0258507Y0142286D01*
X0258571Y0142337D01*
X0258637Y0142384D01*
X0258705Y0142428D01*
X0258776Y0142469D01*
X0258848Y0142506D01*
X0258923Y0142540D01*
X0258998Y0142570D01*
X0259076Y0142596D01*
X0259154Y0142619D01*
X0259233Y0142637D01*
X0259313Y0142652D01*
X0259394Y0142663D01*
X0259475Y0142670D01*
X0259557Y0142673D01*
X0259638Y0142672D01*
X0259719Y0142667D01*
X0259800Y0142658D01*
X0259881Y0142645D01*
X0259961Y0142628D01*
X0260039Y0142608D01*
X0260117Y0142583D01*
X0260194Y0142555D01*
X0260269Y0142523D01*
X0260342Y0142488D01*
X0260413Y0142449D01*
X0260483Y0142406D01*
X0260550Y0142361D01*
X0260616Y0142312D01*
X0260678Y0142260D01*
X0260738Y0142204D01*
X0260795Y0142146D01*
X0260850Y0142086D01*
X0260901Y0142022D01*
X0260949Y0141957D01*
X0260994Y0141889D01*
X0261036Y0141819D01*
X0261074Y0141747D01*
X0261109Y0141673D01*
X0261140Y0141598D01*
X0261167Y0141521D01*
X0261190Y0141443D01*
X0261210Y0141364D01*
X0261226Y0141284D01*
X0261238Y0141203D01*
X0261246Y0141122D01*
X0261250Y0141041D01*
X0261250Y0140959D01*
X0261246Y0140878D01*
X0261238Y0140797D01*
X0261226Y0140716D01*
X0261210Y0140636D01*
X0261190Y0140557D01*
X0261167Y0140479D01*
X0261140Y0140402D01*
X0261109Y0140327D01*
X0261074Y0140253D01*
X0261036Y0140181D01*
X0260994Y0140111D01*
X0260949Y0140043D01*
X0260901Y0139978D01*
X0260850Y0139914D01*
X0260795Y0139854D01*
X0260738Y0139796D01*
X0260678Y0139740D01*
X0260616Y0139688D01*
X0260550Y0139639D01*
X0260483Y0139594D01*
X0260414Y0139551D01*
X0260342Y0139512D01*
X0260269Y0139477D01*
X0260194Y0139445D01*
X0260117Y0139417D01*
X0260039Y0139392D01*
X0259961Y0139372D01*
X0259881Y0139355D01*
X0259800Y0139342D01*
X0259719Y0139333D01*
X0259638Y0139328D01*
X0259557Y0139327D01*
X0259475Y0139330D01*
X0259394Y0139337D01*
X0259313Y0139348D01*
X0259233Y0139363D01*
X0259154Y0139381D01*
X0259076Y0139404D01*
X0258998Y0139430D01*
X0258923Y0139460D01*
X0258848Y0139494D01*
X0258776Y0139531D01*
X0258705Y0139572D01*
X0258637Y0139616D01*
X0258571Y0139663D01*
X0258507Y0139714D01*
X0258445Y0139768D01*
X0258387Y0139824D01*
X0258331Y0139884D01*
X0258278Y0139946D01*
X0258228Y0140010D01*
X0258182Y0140077D01*
X0258138Y0140146D01*
X0258099Y0140217D01*
X0258062Y0140290D01*
X0258029Y0140364D01*
X0258000Y0140441D01*
X0257975Y0140518D01*
X0257953Y0140597D01*
X0257936Y0140676D01*
X0257922Y0140756D01*
X0257912Y0140837D01*
X0257906Y0140919D01*
X0257904Y0141000D01*
X0262904Y0141000D02*
X0262906Y0141081D01*
X0262912Y0141163D01*
X0262922Y0141244D01*
X0262936Y0141324D01*
X0262953Y0141403D01*
X0262975Y0141482D01*
X0263000Y0141559D01*
X0263029Y0141636D01*
X0263062Y0141710D01*
X0263099Y0141783D01*
X0263138Y0141854D01*
X0263182Y0141923D01*
X0263228Y0141990D01*
X0263278Y0142054D01*
X0263331Y0142116D01*
X0263387Y0142176D01*
X0263445Y0142232D01*
X0263507Y0142286D01*
X0263571Y0142337D01*
X0263637Y0142384D01*
X0263705Y0142428D01*
X0263776Y0142469D01*
X0263848Y0142506D01*
X0263923Y0142540D01*
X0263998Y0142570D01*
X0264076Y0142596D01*
X0264154Y0142619D01*
X0264233Y0142637D01*
X0264313Y0142652D01*
X0264394Y0142663D01*
X0264475Y0142670D01*
X0264557Y0142673D01*
X0264638Y0142672D01*
X0264719Y0142667D01*
X0264800Y0142658D01*
X0264881Y0142645D01*
X0264961Y0142628D01*
X0265039Y0142608D01*
X0265117Y0142583D01*
X0265194Y0142555D01*
X0265269Y0142523D01*
X0265342Y0142488D01*
X0265413Y0142449D01*
X0265483Y0142406D01*
X0265550Y0142361D01*
X0265616Y0142312D01*
X0265678Y0142260D01*
X0265738Y0142204D01*
X0265795Y0142146D01*
X0265850Y0142086D01*
X0265901Y0142022D01*
X0265949Y0141957D01*
X0265994Y0141889D01*
X0266036Y0141819D01*
X0266074Y0141747D01*
X0266109Y0141673D01*
X0266140Y0141598D01*
X0266167Y0141521D01*
X0266190Y0141443D01*
X0266210Y0141364D01*
X0266226Y0141284D01*
X0266238Y0141203D01*
X0266246Y0141122D01*
X0266250Y0141041D01*
X0266250Y0140959D01*
X0266246Y0140878D01*
X0266238Y0140797D01*
X0266226Y0140716D01*
X0266210Y0140636D01*
X0266190Y0140557D01*
X0266167Y0140479D01*
X0266140Y0140402D01*
X0266109Y0140327D01*
X0266074Y0140253D01*
X0266036Y0140181D01*
X0265994Y0140111D01*
X0265949Y0140043D01*
X0265901Y0139978D01*
X0265850Y0139914D01*
X0265795Y0139854D01*
X0265738Y0139796D01*
X0265678Y0139740D01*
X0265616Y0139688D01*
X0265550Y0139639D01*
X0265483Y0139594D01*
X0265414Y0139551D01*
X0265342Y0139512D01*
X0265269Y0139477D01*
X0265194Y0139445D01*
X0265117Y0139417D01*
X0265039Y0139392D01*
X0264961Y0139372D01*
X0264881Y0139355D01*
X0264800Y0139342D01*
X0264719Y0139333D01*
X0264638Y0139328D01*
X0264557Y0139327D01*
X0264475Y0139330D01*
X0264394Y0139337D01*
X0264313Y0139348D01*
X0264233Y0139363D01*
X0264154Y0139381D01*
X0264076Y0139404D01*
X0263998Y0139430D01*
X0263923Y0139460D01*
X0263848Y0139494D01*
X0263776Y0139531D01*
X0263705Y0139572D01*
X0263637Y0139616D01*
X0263571Y0139663D01*
X0263507Y0139714D01*
X0263445Y0139768D01*
X0263387Y0139824D01*
X0263331Y0139884D01*
X0263278Y0139946D01*
X0263228Y0140010D01*
X0263182Y0140077D01*
X0263138Y0140146D01*
X0263099Y0140217D01*
X0263062Y0140290D01*
X0263029Y0140364D01*
X0263000Y0140441D01*
X0262975Y0140518D01*
X0262953Y0140597D01*
X0262936Y0140676D01*
X0262922Y0140756D01*
X0262912Y0140837D01*
X0262906Y0140919D01*
X0262904Y0141000D01*
X0267904Y0141000D02*
X0267906Y0141081D01*
X0267912Y0141163D01*
X0267922Y0141244D01*
X0267936Y0141324D01*
X0267953Y0141403D01*
X0267975Y0141482D01*
X0268000Y0141559D01*
X0268029Y0141636D01*
X0268062Y0141710D01*
X0268099Y0141783D01*
X0268138Y0141854D01*
X0268182Y0141923D01*
X0268228Y0141990D01*
X0268278Y0142054D01*
X0268331Y0142116D01*
X0268387Y0142176D01*
X0268445Y0142232D01*
X0268507Y0142286D01*
X0268571Y0142337D01*
X0268637Y0142384D01*
X0268705Y0142428D01*
X0268776Y0142469D01*
X0268848Y0142506D01*
X0268923Y0142540D01*
X0268998Y0142570D01*
X0269076Y0142596D01*
X0269154Y0142619D01*
X0269233Y0142637D01*
X0269313Y0142652D01*
X0269394Y0142663D01*
X0269475Y0142670D01*
X0269557Y0142673D01*
X0269638Y0142672D01*
X0269719Y0142667D01*
X0269800Y0142658D01*
X0269881Y0142645D01*
X0269961Y0142628D01*
X0270039Y0142608D01*
X0270117Y0142583D01*
X0270194Y0142555D01*
X0270269Y0142523D01*
X0270342Y0142488D01*
X0270413Y0142449D01*
X0270483Y0142406D01*
X0270550Y0142361D01*
X0270616Y0142312D01*
X0270678Y0142260D01*
X0270738Y0142204D01*
X0270795Y0142146D01*
X0270850Y0142086D01*
X0270901Y0142022D01*
X0270949Y0141957D01*
X0270994Y0141889D01*
X0271036Y0141819D01*
X0271074Y0141747D01*
X0271109Y0141673D01*
X0271140Y0141598D01*
X0271167Y0141521D01*
X0271190Y0141443D01*
X0271210Y0141364D01*
X0271226Y0141284D01*
X0271238Y0141203D01*
X0271246Y0141122D01*
X0271250Y0141041D01*
X0271250Y0140959D01*
X0271246Y0140878D01*
X0271238Y0140797D01*
X0271226Y0140716D01*
X0271210Y0140636D01*
X0271190Y0140557D01*
X0271167Y0140479D01*
X0271140Y0140402D01*
X0271109Y0140327D01*
X0271074Y0140253D01*
X0271036Y0140181D01*
X0270994Y0140111D01*
X0270949Y0140043D01*
X0270901Y0139978D01*
X0270850Y0139914D01*
X0270795Y0139854D01*
X0270738Y0139796D01*
X0270678Y0139740D01*
X0270616Y0139688D01*
X0270550Y0139639D01*
X0270483Y0139594D01*
X0270414Y0139551D01*
X0270342Y0139512D01*
X0270269Y0139477D01*
X0270194Y0139445D01*
X0270117Y0139417D01*
X0270039Y0139392D01*
X0269961Y0139372D01*
X0269881Y0139355D01*
X0269800Y0139342D01*
X0269719Y0139333D01*
X0269638Y0139328D01*
X0269557Y0139327D01*
X0269475Y0139330D01*
X0269394Y0139337D01*
X0269313Y0139348D01*
X0269233Y0139363D01*
X0269154Y0139381D01*
X0269076Y0139404D01*
X0268998Y0139430D01*
X0268923Y0139460D01*
X0268848Y0139494D01*
X0268776Y0139531D01*
X0268705Y0139572D01*
X0268637Y0139616D01*
X0268571Y0139663D01*
X0268507Y0139714D01*
X0268445Y0139768D01*
X0268387Y0139824D01*
X0268331Y0139884D01*
X0268278Y0139946D01*
X0268228Y0140010D01*
X0268182Y0140077D01*
X0268138Y0140146D01*
X0268099Y0140217D01*
X0268062Y0140290D01*
X0268029Y0140364D01*
X0268000Y0140441D01*
X0267975Y0140518D01*
X0267953Y0140597D01*
X0267936Y0140676D01*
X0267922Y0140756D01*
X0267912Y0140837D01*
X0267906Y0140919D01*
X0267904Y0141000D01*
X0272904Y0141000D02*
X0272906Y0141081D01*
X0272912Y0141163D01*
X0272922Y0141244D01*
X0272936Y0141324D01*
X0272953Y0141403D01*
X0272975Y0141482D01*
X0273000Y0141559D01*
X0273029Y0141636D01*
X0273062Y0141710D01*
X0273099Y0141783D01*
X0273138Y0141854D01*
X0273182Y0141923D01*
X0273228Y0141990D01*
X0273278Y0142054D01*
X0273331Y0142116D01*
X0273387Y0142176D01*
X0273445Y0142232D01*
X0273507Y0142286D01*
X0273571Y0142337D01*
X0273637Y0142384D01*
X0273705Y0142428D01*
X0273776Y0142469D01*
X0273848Y0142506D01*
X0273923Y0142540D01*
X0273998Y0142570D01*
X0274076Y0142596D01*
X0274154Y0142619D01*
X0274233Y0142637D01*
X0274313Y0142652D01*
X0274394Y0142663D01*
X0274475Y0142670D01*
X0274557Y0142673D01*
X0274638Y0142672D01*
X0274719Y0142667D01*
X0274800Y0142658D01*
X0274881Y0142645D01*
X0274961Y0142628D01*
X0275039Y0142608D01*
X0275117Y0142583D01*
X0275194Y0142555D01*
X0275269Y0142523D01*
X0275342Y0142488D01*
X0275413Y0142449D01*
X0275483Y0142406D01*
X0275550Y0142361D01*
X0275616Y0142312D01*
X0275678Y0142260D01*
X0275738Y0142204D01*
X0275795Y0142146D01*
X0275850Y0142086D01*
X0275901Y0142022D01*
X0275949Y0141957D01*
X0275994Y0141889D01*
X0276036Y0141819D01*
X0276074Y0141747D01*
X0276109Y0141673D01*
X0276140Y0141598D01*
X0276167Y0141521D01*
X0276190Y0141443D01*
X0276210Y0141364D01*
X0276226Y0141284D01*
X0276238Y0141203D01*
X0276246Y0141122D01*
X0276250Y0141041D01*
X0276250Y0140959D01*
X0276246Y0140878D01*
X0276238Y0140797D01*
X0276226Y0140716D01*
X0276210Y0140636D01*
X0276190Y0140557D01*
X0276167Y0140479D01*
X0276140Y0140402D01*
X0276109Y0140327D01*
X0276074Y0140253D01*
X0276036Y0140181D01*
X0275994Y0140111D01*
X0275949Y0140043D01*
X0275901Y0139978D01*
X0275850Y0139914D01*
X0275795Y0139854D01*
X0275738Y0139796D01*
X0275678Y0139740D01*
X0275616Y0139688D01*
X0275550Y0139639D01*
X0275483Y0139594D01*
X0275414Y0139551D01*
X0275342Y0139512D01*
X0275269Y0139477D01*
X0275194Y0139445D01*
X0275117Y0139417D01*
X0275039Y0139392D01*
X0274961Y0139372D01*
X0274881Y0139355D01*
X0274800Y0139342D01*
X0274719Y0139333D01*
X0274638Y0139328D01*
X0274557Y0139327D01*
X0274475Y0139330D01*
X0274394Y0139337D01*
X0274313Y0139348D01*
X0274233Y0139363D01*
X0274154Y0139381D01*
X0274076Y0139404D01*
X0273998Y0139430D01*
X0273923Y0139460D01*
X0273848Y0139494D01*
X0273776Y0139531D01*
X0273705Y0139572D01*
X0273637Y0139616D01*
X0273571Y0139663D01*
X0273507Y0139714D01*
X0273445Y0139768D01*
X0273387Y0139824D01*
X0273331Y0139884D01*
X0273278Y0139946D01*
X0273228Y0140010D01*
X0273182Y0140077D01*
X0273138Y0140146D01*
X0273099Y0140217D01*
X0273062Y0140290D01*
X0273029Y0140364D01*
X0273000Y0140441D01*
X0272975Y0140518D01*
X0272953Y0140597D01*
X0272936Y0140676D01*
X0272922Y0140756D01*
X0272912Y0140837D01*
X0272906Y0140919D01*
X0272904Y0141000D01*
X0277904Y0141000D02*
X0277906Y0141081D01*
X0277912Y0141163D01*
X0277922Y0141244D01*
X0277936Y0141324D01*
X0277953Y0141403D01*
X0277975Y0141482D01*
X0278000Y0141559D01*
X0278029Y0141636D01*
X0278062Y0141710D01*
X0278099Y0141783D01*
X0278138Y0141854D01*
X0278182Y0141923D01*
X0278228Y0141990D01*
X0278278Y0142054D01*
X0278331Y0142116D01*
X0278387Y0142176D01*
X0278445Y0142232D01*
X0278507Y0142286D01*
X0278571Y0142337D01*
X0278637Y0142384D01*
X0278705Y0142428D01*
X0278776Y0142469D01*
X0278848Y0142506D01*
X0278923Y0142540D01*
X0278998Y0142570D01*
X0279076Y0142596D01*
X0279154Y0142619D01*
X0279233Y0142637D01*
X0279313Y0142652D01*
X0279394Y0142663D01*
X0279475Y0142670D01*
X0279557Y0142673D01*
X0279638Y0142672D01*
X0279719Y0142667D01*
X0279800Y0142658D01*
X0279881Y0142645D01*
X0279961Y0142628D01*
X0280039Y0142608D01*
X0280117Y0142583D01*
X0280194Y0142555D01*
X0280269Y0142523D01*
X0280342Y0142488D01*
X0280413Y0142449D01*
X0280483Y0142406D01*
X0280550Y0142361D01*
X0280616Y0142312D01*
X0280678Y0142260D01*
X0280738Y0142204D01*
X0280795Y0142146D01*
X0280850Y0142086D01*
X0280901Y0142022D01*
X0280949Y0141957D01*
X0280994Y0141889D01*
X0281036Y0141819D01*
X0281074Y0141747D01*
X0281109Y0141673D01*
X0281140Y0141598D01*
X0281167Y0141521D01*
X0281190Y0141443D01*
X0281210Y0141364D01*
X0281226Y0141284D01*
X0281238Y0141203D01*
X0281246Y0141122D01*
X0281250Y0141041D01*
X0281250Y0140959D01*
X0281246Y0140878D01*
X0281238Y0140797D01*
X0281226Y0140716D01*
X0281210Y0140636D01*
X0281190Y0140557D01*
X0281167Y0140479D01*
X0281140Y0140402D01*
X0281109Y0140327D01*
X0281074Y0140253D01*
X0281036Y0140181D01*
X0280994Y0140111D01*
X0280949Y0140043D01*
X0280901Y0139978D01*
X0280850Y0139914D01*
X0280795Y0139854D01*
X0280738Y0139796D01*
X0280678Y0139740D01*
X0280616Y0139688D01*
X0280550Y0139639D01*
X0280483Y0139594D01*
X0280414Y0139551D01*
X0280342Y0139512D01*
X0280269Y0139477D01*
X0280194Y0139445D01*
X0280117Y0139417D01*
X0280039Y0139392D01*
X0279961Y0139372D01*
X0279881Y0139355D01*
X0279800Y0139342D01*
X0279719Y0139333D01*
X0279638Y0139328D01*
X0279557Y0139327D01*
X0279475Y0139330D01*
X0279394Y0139337D01*
X0279313Y0139348D01*
X0279233Y0139363D01*
X0279154Y0139381D01*
X0279076Y0139404D01*
X0278998Y0139430D01*
X0278923Y0139460D01*
X0278848Y0139494D01*
X0278776Y0139531D01*
X0278705Y0139572D01*
X0278637Y0139616D01*
X0278571Y0139663D01*
X0278507Y0139714D01*
X0278445Y0139768D01*
X0278387Y0139824D01*
X0278331Y0139884D01*
X0278278Y0139946D01*
X0278228Y0140010D01*
X0278182Y0140077D01*
X0278138Y0140146D01*
X0278099Y0140217D01*
X0278062Y0140290D01*
X0278029Y0140364D01*
X0278000Y0140441D01*
X0277975Y0140518D01*
X0277953Y0140597D01*
X0277936Y0140676D01*
X0277922Y0140756D01*
X0277912Y0140837D01*
X0277906Y0140919D01*
X0277904Y0141000D01*
X0282904Y0141000D02*
X0282906Y0141081D01*
X0282912Y0141163D01*
X0282922Y0141244D01*
X0282936Y0141324D01*
X0282953Y0141403D01*
X0282975Y0141482D01*
X0283000Y0141559D01*
X0283029Y0141636D01*
X0283062Y0141710D01*
X0283099Y0141783D01*
X0283138Y0141854D01*
X0283182Y0141923D01*
X0283228Y0141990D01*
X0283278Y0142054D01*
X0283331Y0142116D01*
X0283387Y0142176D01*
X0283445Y0142232D01*
X0283507Y0142286D01*
X0283571Y0142337D01*
X0283637Y0142384D01*
X0283705Y0142428D01*
X0283776Y0142469D01*
X0283848Y0142506D01*
X0283923Y0142540D01*
X0283998Y0142570D01*
X0284076Y0142596D01*
X0284154Y0142619D01*
X0284233Y0142637D01*
X0284313Y0142652D01*
X0284394Y0142663D01*
X0284475Y0142670D01*
X0284557Y0142673D01*
X0284638Y0142672D01*
X0284719Y0142667D01*
X0284800Y0142658D01*
X0284881Y0142645D01*
X0284961Y0142628D01*
X0285039Y0142608D01*
X0285117Y0142583D01*
X0285194Y0142555D01*
X0285269Y0142523D01*
X0285342Y0142488D01*
X0285413Y0142449D01*
X0285483Y0142406D01*
X0285550Y0142361D01*
X0285616Y0142312D01*
X0285678Y0142260D01*
X0285738Y0142204D01*
X0285795Y0142146D01*
X0285850Y0142086D01*
X0285901Y0142022D01*
X0285949Y0141957D01*
X0285994Y0141889D01*
X0286036Y0141819D01*
X0286074Y0141747D01*
X0286109Y0141673D01*
X0286140Y0141598D01*
X0286167Y0141521D01*
X0286190Y0141443D01*
X0286210Y0141364D01*
X0286226Y0141284D01*
X0286238Y0141203D01*
X0286246Y0141122D01*
X0286250Y0141041D01*
X0286250Y0140959D01*
X0286246Y0140878D01*
X0286238Y0140797D01*
X0286226Y0140716D01*
X0286210Y0140636D01*
X0286190Y0140557D01*
X0286167Y0140479D01*
X0286140Y0140402D01*
X0286109Y0140327D01*
X0286074Y0140253D01*
X0286036Y0140181D01*
X0285994Y0140111D01*
X0285949Y0140043D01*
X0285901Y0139978D01*
X0285850Y0139914D01*
X0285795Y0139854D01*
X0285738Y0139796D01*
X0285678Y0139740D01*
X0285616Y0139688D01*
X0285550Y0139639D01*
X0285483Y0139594D01*
X0285414Y0139551D01*
X0285342Y0139512D01*
X0285269Y0139477D01*
X0285194Y0139445D01*
X0285117Y0139417D01*
X0285039Y0139392D01*
X0284961Y0139372D01*
X0284881Y0139355D01*
X0284800Y0139342D01*
X0284719Y0139333D01*
X0284638Y0139328D01*
X0284557Y0139327D01*
X0284475Y0139330D01*
X0284394Y0139337D01*
X0284313Y0139348D01*
X0284233Y0139363D01*
X0284154Y0139381D01*
X0284076Y0139404D01*
X0283998Y0139430D01*
X0283923Y0139460D01*
X0283848Y0139494D01*
X0283776Y0139531D01*
X0283705Y0139572D01*
X0283637Y0139616D01*
X0283571Y0139663D01*
X0283507Y0139714D01*
X0283445Y0139768D01*
X0283387Y0139824D01*
X0283331Y0139884D01*
X0283278Y0139946D01*
X0283228Y0140010D01*
X0283182Y0140077D01*
X0283138Y0140146D01*
X0283099Y0140217D01*
X0283062Y0140290D01*
X0283029Y0140364D01*
X0283000Y0140441D01*
X0282975Y0140518D01*
X0282953Y0140597D01*
X0282936Y0140676D01*
X0282922Y0140756D01*
X0282912Y0140837D01*
X0282906Y0140919D01*
X0282904Y0141000D01*
X0287904Y0141000D02*
X0287906Y0141081D01*
X0287912Y0141163D01*
X0287922Y0141244D01*
X0287936Y0141324D01*
X0287953Y0141403D01*
X0287975Y0141482D01*
X0288000Y0141559D01*
X0288029Y0141636D01*
X0288062Y0141710D01*
X0288099Y0141783D01*
X0288138Y0141854D01*
X0288182Y0141923D01*
X0288228Y0141990D01*
X0288278Y0142054D01*
X0288331Y0142116D01*
X0288387Y0142176D01*
X0288445Y0142232D01*
X0288507Y0142286D01*
X0288571Y0142337D01*
X0288637Y0142384D01*
X0288705Y0142428D01*
X0288776Y0142469D01*
X0288848Y0142506D01*
X0288923Y0142540D01*
X0288998Y0142570D01*
X0289076Y0142596D01*
X0289154Y0142619D01*
X0289233Y0142637D01*
X0289313Y0142652D01*
X0289394Y0142663D01*
X0289475Y0142670D01*
X0289557Y0142673D01*
X0289638Y0142672D01*
X0289719Y0142667D01*
X0289800Y0142658D01*
X0289881Y0142645D01*
X0289961Y0142628D01*
X0290039Y0142608D01*
X0290117Y0142583D01*
X0290194Y0142555D01*
X0290269Y0142523D01*
X0290342Y0142488D01*
X0290413Y0142449D01*
X0290483Y0142406D01*
X0290550Y0142361D01*
X0290616Y0142312D01*
X0290678Y0142260D01*
X0290738Y0142204D01*
X0290795Y0142146D01*
X0290850Y0142086D01*
X0290901Y0142022D01*
X0290949Y0141957D01*
X0290994Y0141889D01*
X0291036Y0141819D01*
X0291074Y0141747D01*
X0291109Y0141673D01*
X0291140Y0141598D01*
X0291167Y0141521D01*
X0291190Y0141443D01*
X0291210Y0141364D01*
X0291226Y0141284D01*
X0291238Y0141203D01*
X0291246Y0141122D01*
X0291250Y0141041D01*
X0291250Y0140959D01*
X0291246Y0140878D01*
X0291238Y0140797D01*
X0291226Y0140716D01*
X0291210Y0140636D01*
X0291190Y0140557D01*
X0291167Y0140479D01*
X0291140Y0140402D01*
X0291109Y0140327D01*
X0291074Y0140253D01*
X0291036Y0140181D01*
X0290994Y0140111D01*
X0290949Y0140043D01*
X0290901Y0139978D01*
X0290850Y0139914D01*
X0290795Y0139854D01*
X0290738Y0139796D01*
X0290678Y0139740D01*
X0290616Y0139688D01*
X0290550Y0139639D01*
X0290483Y0139594D01*
X0290414Y0139551D01*
X0290342Y0139512D01*
X0290269Y0139477D01*
X0290194Y0139445D01*
X0290117Y0139417D01*
X0290039Y0139392D01*
X0289961Y0139372D01*
X0289881Y0139355D01*
X0289800Y0139342D01*
X0289719Y0139333D01*
X0289638Y0139328D01*
X0289557Y0139327D01*
X0289475Y0139330D01*
X0289394Y0139337D01*
X0289313Y0139348D01*
X0289233Y0139363D01*
X0289154Y0139381D01*
X0289076Y0139404D01*
X0288998Y0139430D01*
X0288923Y0139460D01*
X0288848Y0139494D01*
X0288776Y0139531D01*
X0288705Y0139572D01*
X0288637Y0139616D01*
X0288571Y0139663D01*
X0288507Y0139714D01*
X0288445Y0139768D01*
X0288387Y0139824D01*
X0288331Y0139884D01*
X0288278Y0139946D01*
X0288228Y0140010D01*
X0288182Y0140077D01*
X0288138Y0140146D01*
X0288099Y0140217D01*
X0288062Y0140290D01*
X0288029Y0140364D01*
X0288000Y0140441D01*
X0287975Y0140518D01*
X0287953Y0140597D01*
X0287936Y0140676D01*
X0287922Y0140756D01*
X0287912Y0140837D01*
X0287906Y0140919D01*
X0287904Y0141000D01*
X0238790Y0207693D02*
X0238792Y0207840D01*
X0238798Y0207986D01*
X0238808Y0208132D01*
X0238822Y0208278D01*
X0238840Y0208424D01*
X0238861Y0208569D01*
X0238887Y0208713D01*
X0238917Y0208857D01*
X0238950Y0208999D01*
X0238987Y0209141D01*
X0239028Y0209282D01*
X0239073Y0209421D01*
X0239122Y0209560D01*
X0239174Y0209697D01*
X0239231Y0209832D01*
X0239290Y0209966D01*
X0239354Y0210098D01*
X0239421Y0210228D01*
X0239491Y0210357D01*
X0239565Y0210484D01*
X0239642Y0210608D01*
X0239723Y0210731D01*
X0239807Y0210851D01*
X0239894Y0210969D01*
X0239984Y0211084D01*
X0240077Y0211197D01*
X0240174Y0211308D01*
X0240273Y0211416D01*
X0240375Y0211521D01*
X0240480Y0211623D01*
X0240588Y0211722D01*
X0240699Y0211819D01*
X0240812Y0211912D01*
X0240927Y0212002D01*
X0241045Y0212089D01*
X0241165Y0212173D01*
X0241288Y0212254D01*
X0241412Y0212331D01*
X0241539Y0212405D01*
X0241668Y0212475D01*
X0241798Y0212542D01*
X0241930Y0212606D01*
X0242064Y0212665D01*
X0242199Y0212722D01*
X0242336Y0212774D01*
X0242475Y0212823D01*
X0242614Y0212868D01*
X0242755Y0212909D01*
X0242897Y0212946D01*
X0243039Y0212979D01*
X0243183Y0213009D01*
X0243327Y0213035D01*
X0243472Y0213056D01*
X0243618Y0213074D01*
X0243764Y0213088D01*
X0243910Y0213098D01*
X0244056Y0213104D01*
X0244203Y0213106D01*
X0244350Y0213104D01*
X0244496Y0213098D01*
X0244642Y0213088D01*
X0244788Y0213074D01*
X0244934Y0213056D01*
X0245079Y0213035D01*
X0245223Y0213009D01*
X0245367Y0212979D01*
X0245509Y0212946D01*
X0245651Y0212909D01*
X0245792Y0212868D01*
X0245931Y0212823D01*
X0246070Y0212774D01*
X0246207Y0212722D01*
X0246342Y0212665D01*
X0246476Y0212606D01*
X0246608Y0212542D01*
X0246738Y0212475D01*
X0246867Y0212405D01*
X0246994Y0212331D01*
X0247118Y0212254D01*
X0247241Y0212173D01*
X0247361Y0212089D01*
X0247479Y0212002D01*
X0247594Y0211912D01*
X0247707Y0211819D01*
X0247818Y0211722D01*
X0247926Y0211623D01*
X0248031Y0211521D01*
X0248133Y0211416D01*
X0248232Y0211308D01*
X0248329Y0211197D01*
X0248422Y0211084D01*
X0248512Y0210969D01*
X0248599Y0210851D01*
X0248683Y0210731D01*
X0248764Y0210608D01*
X0248841Y0210484D01*
X0248915Y0210357D01*
X0248985Y0210228D01*
X0249052Y0210098D01*
X0249116Y0209966D01*
X0249175Y0209832D01*
X0249232Y0209697D01*
X0249284Y0209560D01*
X0249333Y0209421D01*
X0249378Y0209282D01*
X0249419Y0209141D01*
X0249456Y0208999D01*
X0249489Y0208857D01*
X0249519Y0208713D01*
X0249545Y0208569D01*
X0249566Y0208424D01*
X0249584Y0208278D01*
X0249598Y0208132D01*
X0249608Y0207986D01*
X0249614Y0207840D01*
X0249616Y0207693D01*
X0249614Y0207546D01*
X0249608Y0207400D01*
X0249598Y0207254D01*
X0249584Y0207108D01*
X0249566Y0206962D01*
X0249545Y0206817D01*
X0249519Y0206673D01*
X0249489Y0206529D01*
X0249456Y0206387D01*
X0249419Y0206245D01*
X0249378Y0206104D01*
X0249333Y0205965D01*
X0249284Y0205826D01*
X0249232Y0205689D01*
X0249175Y0205554D01*
X0249116Y0205420D01*
X0249052Y0205288D01*
X0248985Y0205158D01*
X0248915Y0205029D01*
X0248841Y0204902D01*
X0248764Y0204778D01*
X0248683Y0204655D01*
X0248599Y0204535D01*
X0248512Y0204417D01*
X0248422Y0204302D01*
X0248329Y0204189D01*
X0248232Y0204078D01*
X0248133Y0203970D01*
X0248031Y0203865D01*
X0247926Y0203763D01*
X0247818Y0203664D01*
X0247707Y0203567D01*
X0247594Y0203474D01*
X0247479Y0203384D01*
X0247361Y0203297D01*
X0247241Y0203213D01*
X0247118Y0203132D01*
X0246994Y0203055D01*
X0246867Y0202981D01*
X0246738Y0202911D01*
X0246608Y0202844D01*
X0246476Y0202780D01*
X0246342Y0202721D01*
X0246207Y0202664D01*
X0246070Y0202612D01*
X0245931Y0202563D01*
X0245792Y0202518D01*
X0245651Y0202477D01*
X0245509Y0202440D01*
X0245367Y0202407D01*
X0245223Y0202377D01*
X0245079Y0202351D01*
X0244934Y0202330D01*
X0244788Y0202312D01*
X0244642Y0202298D01*
X0244496Y0202288D01*
X0244350Y0202282D01*
X0244203Y0202280D01*
X0244056Y0202282D01*
X0243910Y0202288D01*
X0243764Y0202298D01*
X0243618Y0202312D01*
X0243472Y0202330D01*
X0243327Y0202351D01*
X0243183Y0202377D01*
X0243039Y0202407D01*
X0242897Y0202440D01*
X0242755Y0202477D01*
X0242614Y0202518D01*
X0242475Y0202563D01*
X0242336Y0202612D01*
X0242199Y0202664D01*
X0242064Y0202721D01*
X0241930Y0202780D01*
X0241798Y0202844D01*
X0241668Y0202911D01*
X0241539Y0202981D01*
X0241412Y0203055D01*
X0241288Y0203132D01*
X0241165Y0203213D01*
X0241045Y0203297D01*
X0240927Y0203384D01*
X0240812Y0203474D01*
X0240699Y0203567D01*
X0240588Y0203664D01*
X0240480Y0203763D01*
X0240375Y0203865D01*
X0240273Y0203970D01*
X0240174Y0204078D01*
X0240077Y0204189D01*
X0239984Y0204302D01*
X0239894Y0204417D01*
X0239807Y0204535D01*
X0239723Y0204655D01*
X0239642Y0204778D01*
X0239565Y0204902D01*
X0239491Y0205029D01*
X0239421Y0205158D01*
X0239354Y0205288D01*
X0239290Y0205420D01*
X0239231Y0205554D01*
X0239174Y0205689D01*
X0239122Y0205826D01*
X0239073Y0205965D01*
X0239028Y0206104D01*
X0238987Y0206245D01*
X0238950Y0206387D01*
X0238917Y0206529D01*
X0238887Y0206673D01*
X0238861Y0206817D01*
X0238840Y0206962D01*
X0238822Y0207108D01*
X0238808Y0207254D01*
X0238798Y0207400D01*
X0238792Y0207546D01*
X0238790Y0207693D01*
X0010443Y0207693D02*
X0010445Y0207840D01*
X0010451Y0207986D01*
X0010461Y0208132D01*
X0010475Y0208278D01*
X0010493Y0208424D01*
X0010514Y0208569D01*
X0010540Y0208713D01*
X0010570Y0208857D01*
X0010603Y0208999D01*
X0010640Y0209141D01*
X0010681Y0209282D01*
X0010726Y0209421D01*
X0010775Y0209560D01*
X0010827Y0209697D01*
X0010884Y0209832D01*
X0010943Y0209966D01*
X0011007Y0210098D01*
X0011074Y0210228D01*
X0011144Y0210357D01*
X0011218Y0210484D01*
X0011295Y0210608D01*
X0011376Y0210731D01*
X0011460Y0210851D01*
X0011547Y0210969D01*
X0011637Y0211084D01*
X0011730Y0211197D01*
X0011827Y0211308D01*
X0011926Y0211416D01*
X0012028Y0211521D01*
X0012133Y0211623D01*
X0012241Y0211722D01*
X0012352Y0211819D01*
X0012465Y0211912D01*
X0012580Y0212002D01*
X0012698Y0212089D01*
X0012818Y0212173D01*
X0012941Y0212254D01*
X0013065Y0212331D01*
X0013192Y0212405D01*
X0013321Y0212475D01*
X0013451Y0212542D01*
X0013583Y0212606D01*
X0013717Y0212665D01*
X0013852Y0212722D01*
X0013989Y0212774D01*
X0014128Y0212823D01*
X0014267Y0212868D01*
X0014408Y0212909D01*
X0014550Y0212946D01*
X0014692Y0212979D01*
X0014836Y0213009D01*
X0014980Y0213035D01*
X0015125Y0213056D01*
X0015271Y0213074D01*
X0015417Y0213088D01*
X0015563Y0213098D01*
X0015709Y0213104D01*
X0015856Y0213106D01*
X0016003Y0213104D01*
X0016149Y0213098D01*
X0016295Y0213088D01*
X0016441Y0213074D01*
X0016587Y0213056D01*
X0016732Y0213035D01*
X0016876Y0213009D01*
X0017020Y0212979D01*
X0017162Y0212946D01*
X0017304Y0212909D01*
X0017445Y0212868D01*
X0017584Y0212823D01*
X0017723Y0212774D01*
X0017860Y0212722D01*
X0017995Y0212665D01*
X0018129Y0212606D01*
X0018261Y0212542D01*
X0018391Y0212475D01*
X0018520Y0212405D01*
X0018647Y0212331D01*
X0018771Y0212254D01*
X0018894Y0212173D01*
X0019014Y0212089D01*
X0019132Y0212002D01*
X0019247Y0211912D01*
X0019360Y0211819D01*
X0019471Y0211722D01*
X0019579Y0211623D01*
X0019684Y0211521D01*
X0019786Y0211416D01*
X0019885Y0211308D01*
X0019982Y0211197D01*
X0020075Y0211084D01*
X0020165Y0210969D01*
X0020252Y0210851D01*
X0020336Y0210731D01*
X0020417Y0210608D01*
X0020494Y0210484D01*
X0020568Y0210357D01*
X0020638Y0210228D01*
X0020705Y0210098D01*
X0020769Y0209966D01*
X0020828Y0209832D01*
X0020885Y0209697D01*
X0020937Y0209560D01*
X0020986Y0209421D01*
X0021031Y0209282D01*
X0021072Y0209141D01*
X0021109Y0208999D01*
X0021142Y0208857D01*
X0021172Y0208713D01*
X0021198Y0208569D01*
X0021219Y0208424D01*
X0021237Y0208278D01*
X0021251Y0208132D01*
X0021261Y0207986D01*
X0021267Y0207840D01*
X0021269Y0207693D01*
X0021267Y0207546D01*
X0021261Y0207400D01*
X0021251Y0207254D01*
X0021237Y0207108D01*
X0021219Y0206962D01*
X0021198Y0206817D01*
X0021172Y0206673D01*
X0021142Y0206529D01*
X0021109Y0206387D01*
X0021072Y0206245D01*
X0021031Y0206104D01*
X0020986Y0205965D01*
X0020937Y0205826D01*
X0020885Y0205689D01*
X0020828Y0205554D01*
X0020769Y0205420D01*
X0020705Y0205288D01*
X0020638Y0205158D01*
X0020568Y0205029D01*
X0020494Y0204902D01*
X0020417Y0204778D01*
X0020336Y0204655D01*
X0020252Y0204535D01*
X0020165Y0204417D01*
X0020075Y0204302D01*
X0019982Y0204189D01*
X0019885Y0204078D01*
X0019786Y0203970D01*
X0019684Y0203865D01*
X0019579Y0203763D01*
X0019471Y0203664D01*
X0019360Y0203567D01*
X0019247Y0203474D01*
X0019132Y0203384D01*
X0019014Y0203297D01*
X0018894Y0203213D01*
X0018771Y0203132D01*
X0018647Y0203055D01*
X0018520Y0202981D01*
X0018391Y0202911D01*
X0018261Y0202844D01*
X0018129Y0202780D01*
X0017995Y0202721D01*
X0017860Y0202664D01*
X0017723Y0202612D01*
X0017584Y0202563D01*
X0017445Y0202518D01*
X0017304Y0202477D01*
X0017162Y0202440D01*
X0017020Y0202407D01*
X0016876Y0202377D01*
X0016732Y0202351D01*
X0016587Y0202330D01*
X0016441Y0202312D01*
X0016295Y0202298D01*
X0016149Y0202288D01*
X0016003Y0202282D01*
X0015856Y0202280D01*
X0015709Y0202282D01*
X0015563Y0202288D01*
X0015417Y0202298D01*
X0015271Y0202312D01*
X0015125Y0202330D01*
X0014980Y0202351D01*
X0014836Y0202377D01*
X0014692Y0202407D01*
X0014550Y0202440D01*
X0014408Y0202477D01*
X0014267Y0202518D01*
X0014128Y0202563D01*
X0013989Y0202612D01*
X0013852Y0202664D01*
X0013717Y0202721D01*
X0013583Y0202780D01*
X0013451Y0202844D01*
X0013321Y0202911D01*
X0013192Y0202981D01*
X0013065Y0203055D01*
X0012941Y0203132D01*
X0012818Y0203213D01*
X0012698Y0203297D01*
X0012580Y0203384D01*
X0012465Y0203474D01*
X0012352Y0203567D01*
X0012241Y0203664D01*
X0012133Y0203763D01*
X0012028Y0203865D01*
X0011926Y0203970D01*
X0011827Y0204078D01*
X0011730Y0204189D01*
X0011637Y0204302D01*
X0011547Y0204417D01*
X0011460Y0204535D01*
X0011376Y0204655D01*
X0011295Y0204778D01*
X0011218Y0204902D01*
X0011144Y0205029D01*
X0011074Y0205158D01*
X0011007Y0205288D01*
X0010943Y0205420D01*
X0010884Y0205554D01*
X0010827Y0205689D01*
X0010775Y0205826D01*
X0010726Y0205965D01*
X0010681Y0206104D01*
X0010640Y0206245D01*
X0010603Y0206387D01*
X0010570Y0206529D01*
X0010540Y0206673D01*
X0010514Y0206817D01*
X0010493Y0206962D01*
X0010475Y0207108D01*
X0010461Y0207254D01*
X0010451Y0207400D01*
X0010445Y0207546D01*
X0010443Y0207693D01*
M02*
