G75*
%MOIN*%
%OFA0B0*%
%FSLAX25Y25*%
%IPPOS*%
%LPD*%
%AMOC8*
5,1,8,0,0,1.08239X$1,22.5*
%
%ADD10C,0.10000*%
%ADD11OC8,0.10000*%
%ADD12C,0.15000*%
%ADD13OC8,0.15000*%
%ADD14R,0.03937X0.05512*%
%ADD15R,0.04331X0.03937*%
%ADD16R,0.05906X0.03543*%
%ADD17R,0.03100X0.03500*%
%ADD18R,0.07874X0.08268*%
%ADD19R,0.07480X0.06299*%
%ADD20R,0.05315X0.01575*%
%ADD21C,0.03937*%
%ADD22C,0.17717*%
%ADD23R,0.03150X0.03937*%
%ADD24R,0.02756X0.03937*%
%ADD25R,0.03937X0.03150*%
%ADD26R,0.03937X0.02756*%
%ADD27C,0.04331*%
%ADD28R,0.04724X0.04724*%
%ADD29C,0.04724*%
%ADD30R,0.07874X0.07874*%
%ADD31C,0.09055*%
%ADD32R,0.02756X0.03543*%
%ADD33OC8,0.06300*%
%ADD34R,0.06299X0.07087*%
%ADD35C,0.01600*%
%ADD36C,0.01000*%
%ADD37C,0.01969*%
D10*
X0152077Y0091000D03*
D11*
X0152077Y0071000D03*
D12*
X0035827Y0089000D03*
X0035827Y0051500D03*
X0172077Y0181000D03*
D13*
X0172077Y0161000D03*
D14*
X0122077Y0095331D03*
X0125817Y0086669D03*
X0118337Y0086669D03*
X0110817Y0086669D03*
X0103337Y0086669D03*
X0095817Y0086669D03*
X0088337Y0086669D03*
X0092077Y0095331D03*
X0107077Y0095331D03*
X0117077Y0050331D03*
X0120817Y0041669D03*
X0113337Y0041669D03*
X0100817Y0041669D03*
X0093337Y0041669D03*
X0097077Y0050331D03*
D15*
X0097077Y0062654D03*
X0097077Y0069346D03*
X0107077Y0069346D03*
X0107077Y0062654D03*
X0117077Y0062654D03*
X0117077Y0069346D03*
X0087077Y0069346D03*
X0087077Y0062654D03*
X0097077Y0024346D03*
X0097077Y0017654D03*
X0182077Y0057654D03*
X0182077Y0064346D03*
X0192077Y0064346D03*
X0192077Y0057654D03*
X0162077Y0102654D03*
X0162077Y0109346D03*
X0162077Y0117654D03*
X0162077Y0124346D03*
X0107077Y0119346D03*
X0107077Y0112654D03*
X0092077Y0112654D03*
X0092077Y0119346D03*
D16*
X0127077Y0122102D03*
X0127077Y0109898D03*
D17*
X0100777Y0137000D03*
X0093177Y0137000D03*
X0096977Y0145000D03*
X0133377Y0050000D03*
X0140977Y0050000D03*
X0137177Y0042000D03*
D18*
X0021329Y0158795D03*
X0021329Y0183205D03*
D19*
X0012077Y0187142D03*
X0012077Y0154858D03*
D20*
X0022608Y0165882D03*
X0022608Y0168441D03*
X0022608Y0171000D03*
X0022608Y0173559D03*
X0022608Y0176118D03*
D21*
X0228140Y0161000D02*
X0232077Y0161000D01*
X0232077Y0156000D02*
X0228140Y0156000D01*
X0228140Y0151000D02*
X0232077Y0151000D01*
X0232077Y0146000D02*
X0228140Y0146000D01*
X0228140Y0141000D02*
X0232077Y0141000D01*
X0232077Y0136000D02*
X0228140Y0136000D01*
X0228140Y0131000D02*
X0232077Y0131000D01*
X0232077Y0126000D02*
X0228140Y0126000D01*
X0228140Y0121000D02*
X0232077Y0121000D01*
X0232077Y0116000D02*
X0228140Y0116000D01*
X0252077Y0104937D02*
X0252077Y0101000D01*
X0257077Y0101000D02*
X0257077Y0104937D01*
X0262077Y0104937D02*
X0262077Y0101000D01*
X0267077Y0101000D02*
X0267077Y0104937D01*
X0272077Y0104937D02*
X0272077Y0101000D01*
X0272077Y0096000D02*
X0272077Y0092063D01*
X0267077Y0092063D02*
X0267077Y0096000D01*
X0262077Y0096000D02*
X0262077Y0092063D01*
X0257077Y0092063D02*
X0257077Y0096000D01*
X0252077Y0096000D02*
X0252077Y0092063D01*
X0312077Y0116000D02*
X0316014Y0116000D01*
X0316014Y0121000D02*
X0312077Y0121000D01*
X0312077Y0126000D02*
X0316014Y0126000D01*
X0316014Y0131000D02*
X0312077Y0131000D01*
X0312077Y0136000D02*
X0316014Y0136000D01*
X0316014Y0141000D02*
X0312077Y0141000D01*
X0312077Y0146000D02*
X0316014Y0146000D01*
X0316014Y0151000D02*
X0312077Y0151000D01*
X0312077Y0156000D02*
X0316014Y0156000D01*
X0316014Y0161000D02*
X0312077Y0161000D01*
D22*
X0307510Y0100469D03*
X0236644Y0100469D03*
D23*
X0066014Y0090724D03*
X0058140Y0090724D03*
X0058140Y0081276D03*
X0066014Y0081276D03*
X0066014Y0055724D03*
X0058140Y0055724D03*
X0058140Y0046276D03*
X0066014Y0046276D03*
D24*
X0062077Y0046276D03*
X0062077Y0090724D03*
D25*
X0066801Y0102063D03*
X0057352Y0102063D03*
X0057352Y0109937D03*
X0057352Y0117063D03*
X0057352Y0124937D03*
X0066801Y0124937D03*
X0066801Y0117063D03*
X0066801Y0109937D03*
D26*
X0057352Y0106000D03*
X0057352Y0121000D03*
D27*
X0254577Y0140212D02*
X0254577Y0141788D01*
X0254577Y0141788D01*
X0254577Y0140212D01*
X0254577Y0140212D01*
X0259577Y0140212D02*
X0259577Y0141788D01*
X0259577Y0141788D01*
X0259577Y0140212D01*
X0259577Y0140212D01*
X0264577Y0140212D02*
X0264577Y0141788D01*
X0264577Y0141788D01*
X0264577Y0140212D01*
X0264577Y0140212D01*
X0269577Y0140212D02*
X0269577Y0141788D01*
X0269577Y0141788D01*
X0269577Y0140212D01*
X0269577Y0140212D01*
X0274577Y0140212D02*
X0274577Y0141788D01*
X0274577Y0141788D01*
X0274577Y0140212D01*
X0274577Y0140212D01*
X0279577Y0140212D02*
X0279577Y0141788D01*
X0279577Y0141788D01*
X0279577Y0140212D01*
X0279577Y0140212D01*
X0284577Y0140212D02*
X0284577Y0141788D01*
X0284577Y0141788D01*
X0284577Y0140212D01*
X0284577Y0140212D01*
X0289577Y0140212D02*
X0289577Y0141788D01*
X0289577Y0141788D01*
X0289577Y0140212D01*
X0289577Y0140212D01*
D28*
X0277077Y0035252D03*
X0307077Y0035439D03*
X0247077Y0035439D03*
X0212077Y0035252D03*
X0012077Y0134937D03*
D29*
X0012077Y0127063D03*
X0212077Y0066748D03*
X0212077Y0058874D03*
X0212077Y0051000D03*
X0212077Y0043126D03*
X0247077Y0043313D03*
X0247077Y0051187D03*
X0247077Y0059061D03*
X0277077Y0058874D03*
X0277077Y0066748D03*
X0277077Y0051000D03*
X0277077Y0043126D03*
X0307077Y0043313D03*
X0307077Y0051187D03*
X0307077Y0059061D03*
D30*
X0067844Y0068500D03*
X0051309Y0068500D03*
D31*
X0041132Y0170094D03*
X0041132Y0182299D03*
X0123022Y0182299D03*
X0123022Y0170094D03*
D32*
X0298337Y0080134D03*
X0305817Y0080134D03*
X0302077Y0071866D03*
D33*
X0289577Y0067250D03*
X0290827Y0051000D03*
D34*
X0263839Y0071000D03*
X0252815Y0071000D03*
D35*
X0245827Y0071000D01*
X0263839Y0071000D02*
X0265827Y0071000D01*
X0265827Y0054750D01*
X0269577Y0051000D01*
X0269577Y0046000D01*
X0272451Y0043126D01*
X0277077Y0043126D01*
X0306890Y0043126D01*
X0307077Y0043313D01*
X0290827Y0051000D02*
X0277077Y0051000D01*
X0277077Y0066748D02*
X0289075Y0066748D01*
X0289577Y0067250D01*
X0300443Y0073500D02*
X0274577Y0073500D01*
X0272077Y0071000D01*
X0265827Y0071000D01*
X0250827Y0087250D02*
X0252077Y0088500D01*
X0252077Y0096000D01*
X0252077Y0101000D01*
X0252077Y0138500D01*
X0254577Y0141000D01*
X0259577Y0141000D02*
X0259577Y0134750D01*
X0307077Y0118500D02*
X0309577Y0121000D01*
X0312077Y0121000D01*
X0307077Y0118500D02*
X0307077Y0100902D01*
X0298327Y0083500D02*
X0298337Y0083490D01*
X0298337Y0080134D01*
X0300443Y0073500D02*
X0302077Y0071866D01*
X0250827Y0087250D02*
X0212077Y0087250D01*
X0208327Y0091000D01*
X0208327Y0144750D01*
X0172077Y0181000D01*
X0138327Y0181000D01*
X0132077Y0174750D01*
X0132077Y0163500D01*
X0125827Y0157250D01*
X0087077Y0157250D01*
X0083327Y0153500D01*
X0083327Y0141463D01*
X0066801Y0124937D01*
X0066801Y0117063D01*
X0066801Y0109937D01*
X0066801Y0102063D01*
X0057352Y0102063D02*
X0041014Y0102063D01*
X0037077Y0106000D01*
X0037077Y0156000D01*
X0027195Y0165882D01*
X0022608Y0165882D01*
X0022608Y0173559D02*
X0022608Y0176118D01*
X0021329Y0177398D01*
X0021329Y0183205D01*
X0041132Y0182299D02*
X0041132Y0170094D01*
X0042077Y0169150D02*
X0042077Y0161000D01*
X0113927Y0161000D01*
X0123022Y0170094D01*
X0123022Y0182299D01*
X0118327Y0144750D02*
X0097227Y0144750D01*
X0096977Y0145000D01*
X0100777Y0137000D02*
X0104827Y0137000D01*
X0107077Y0134750D01*
X0107077Y0119346D01*
X0092077Y0119346D01*
X0127077Y0122102D02*
X0128179Y0121000D01*
X0144577Y0121000D01*
X0147923Y0124346D01*
X0162077Y0124346D01*
X0162077Y0117654D02*
X0162077Y0109346D01*
X0152077Y0113500D02*
X0152077Y0091000D01*
X0170423Y0102654D02*
X0170827Y0102250D01*
X0170423Y0102654D02*
X0162077Y0102654D01*
X0152077Y0113500D02*
X0144577Y0121000D01*
X0127077Y0122102D02*
X0127077Y0136000D01*
X0118327Y0144750D01*
X0127077Y0109898D02*
X0127077Y0100331D01*
X0122077Y0095331D01*
X0125817Y0086669D02*
X0125827Y0086659D01*
X0125827Y0081000D01*
X0129827Y0050000D02*
X0133377Y0050000D01*
X0129827Y0050000D02*
X0128327Y0048500D01*
X0128327Y0044750D01*
X0125827Y0042250D01*
X0121398Y0042250D01*
X0120817Y0041669D01*
X0120817Y0012240D01*
X0119577Y0011000D01*
X0083327Y0011000D01*
X0080827Y0013500D01*
X0080827Y0065518D01*
X0080344Y0066000D01*
X0073894Y0066000D01*
X0073894Y0067757D01*
X0074577Y0067757D01*
X0074577Y0077250D01*
X0075344Y0076482D01*
X0074577Y0077250D02*
X0073327Y0078500D01*
X0068789Y0078500D01*
X0066014Y0081276D01*
X0064577Y0086000D02*
X0062077Y0086000D01*
X0058140Y0082063D01*
X0058140Y0081276D01*
X0057864Y0081000D01*
X0048327Y0081000D01*
X0040327Y0089000D01*
X0035827Y0089000D01*
X0053327Y0087250D02*
X0054665Y0087250D01*
X0058140Y0090724D01*
X0066014Y0090724D02*
X0066014Y0087437D01*
X0064577Y0086000D01*
X0067844Y0068500D02*
X0067844Y0067757D01*
X0073894Y0067757D01*
X0073894Y0066000D02*
X0073894Y0059182D01*
X0073952Y0059125D01*
X0070551Y0055724D01*
X0066014Y0055724D01*
X0064577Y0051000D02*
X0062077Y0051000D01*
X0058140Y0054937D01*
X0058140Y0055724D01*
X0057864Y0056000D01*
X0049577Y0056000D01*
X0045077Y0051500D01*
X0035827Y0051500D01*
X0053327Y0046000D02*
X0057864Y0046000D01*
X0058140Y0046276D01*
X0065827Y0046463D02*
X0065827Y0049750D01*
X0064577Y0051000D01*
X0065827Y0046463D02*
X0066014Y0046276D01*
X0051309Y0068500D02*
X0044577Y0068500D01*
X0048327Y0109750D02*
X0048514Y0109937D01*
X0057352Y0109937D01*
X0057352Y0117063D02*
X0057165Y0117250D01*
X0047077Y0117250D01*
X0048140Y0124937D02*
X0057352Y0124937D01*
X0048140Y0124937D02*
X0042077Y0131000D01*
X0042077Y0161000D01*
X0030827Y0127250D02*
X0030640Y0127063D01*
X0012077Y0127063D01*
X0137177Y0042000D02*
X0137177Y0028600D01*
X0135827Y0027250D01*
X0175827Y0047250D02*
X0175827Y0061000D01*
X0179173Y0064346D01*
X0182077Y0064346D01*
X0192077Y0064346D01*
X0175827Y0047250D02*
X0179577Y0043500D01*
X0211703Y0043500D01*
X0212077Y0043126D01*
D36*
X0212077Y0051000D02*
X0212264Y0051187D01*
X0247077Y0051187D01*
X0260640Y0051187D01*
X0264577Y0047250D01*
X0264577Y0031000D01*
X0274577Y0021000D01*
X0328327Y0021000D01*
X0328327Y0024750D02*
X0330827Y0027250D01*
X0330827Y0137250D01*
X0317077Y0151000D01*
X0312077Y0151000D01*
X0312077Y0156000D02*
X0307077Y0156000D01*
X0300827Y0149750D01*
X0300827Y0129750D01*
X0298327Y0127250D01*
X0298327Y0117250D01*
X0292077Y0111000D01*
X0292077Y0087250D01*
X0287702Y0082875D01*
X0145202Y0082875D01*
X0124577Y0062250D01*
X0117077Y0062654D02*
X0117077Y0050331D01*
X0117657Y0050331D01*
X0122077Y0054750D01*
X0139577Y0054750D01*
X0140827Y0053500D01*
X0140827Y0050150D01*
X0140977Y0050000D01*
X0113337Y0041669D02*
X0108907Y0041669D01*
X0108327Y0042250D01*
X0108327Y0049750D01*
X0107077Y0051000D01*
X0097746Y0051000D01*
X0097077Y0050331D01*
X0097077Y0062654D01*
X0092077Y0066000D02*
X0095423Y0069346D01*
X0097077Y0069346D01*
X0092077Y0066000D02*
X0081309Y0066000D01*
X0080827Y0065518D01*
X0087077Y0062654D02*
X0087077Y0058500D01*
X0087077Y0069346D02*
X0087077Y0085409D01*
X0088337Y0086669D01*
X0088337Y0087260D01*
X0092077Y0091000D01*
X0102077Y0091000D01*
X0103327Y0089750D01*
X0103327Y0086679D01*
X0103337Y0086669D01*
X0103337Y0079740D01*
X0107077Y0076000D01*
X0132077Y0076000D01*
X0140827Y0084750D01*
X0285827Y0084750D01*
X0289577Y0088500D01*
X0289577Y0112250D01*
X0295827Y0118500D01*
X0295827Y0128500D01*
X0298327Y0131000D01*
X0298327Y0151000D01*
X0308327Y0161000D01*
X0312077Y0161000D01*
X0312077Y0146000D02*
X0318327Y0146000D01*
X0328327Y0136000D01*
X0328327Y0032250D01*
X0328327Y0024750D02*
X0273327Y0024750D01*
X0267077Y0031000D01*
X0267077Y0047250D01*
X0260827Y0053500D01*
X0252638Y0053500D01*
X0247077Y0059061D01*
X0212264Y0059061D01*
X0212077Y0058874D01*
X0193297Y0058874D01*
X0192077Y0057654D01*
X0188730Y0051000D02*
X0212077Y0051000D01*
X0212077Y0066748D02*
X0219577Y0074248D01*
X0219577Y0077250D01*
X0224577Y0077250D02*
X0304577Y0077250D01*
X0305817Y0078490D01*
X0305817Y0080134D01*
X0294577Y0086000D02*
X0294577Y0109750D01*
X0300827Y0116000D01*
X0300827Y0124750D01*
X0312077Y0131000D02*
X0315827Y0131000D01*
X0320827Y0126000D01*
X0320827Y0067250D01*
X0319577Y0066000D01*
X0303327Y0066000D01*
X0300827Y0063500D01*
X0300827Y0061000D01*
X0298701Y0058874D01*
X0277077Y0058874D01*
X0303327Y0056000D02*
X0303514Y0055813D01*
X0303514Y0054750D01*
X0307077Y0051187D01*
X0307264Y0051000D01*
X0303327Y0056000D02*
X0303327Y0062250D01*
X0304577Y0063500D01*
X0322077Y0063500D01*
X0323327Y0064750D01*
X0323327Y0132250D01*
X0319577Y0136000D01*
X0312077Y0136000D01*
X0312077Y0141000D02*
X0319577Y0141000D01*
X0325827Y0134750D01*
X0325827Y0061000D01*
X0324577Y0059750D01*
X0307766Y0059750D01*
X0307077Y0059061D01*
X0288327Y0079750D02*
X0294577Y0086000D01*
X0288327Y0079750D02*
X0213327Y0079750D01*
X0219577Y0091000D02*
X0219577Y0151000D01*
X0224577Y0156000D01*
X0232077Y0156000D01*
X0232077Y0151000D02*
X0224577Y0151000D01*
X0223327Y0149750D01*
X0223327Y0091000D01*
X0204577Y0091000D02*
X0204577Y0116000D01*
X0202923Y0117654D01*
X0162077Y0117654D01*
X0118327Y0093500D02*
X0118327Y0086679D01*
X0118337Y0086669D01*
X0112077Y0085409D02*
X0112077Y0082250D01*
X0110827Y0081000D01*
X0112077Y0085409D02*
X0110817Y0086669D01*
X0118327Y0093500D02*
X0116496Y0095331D01*
X0107077Y0095331D01*
X0107077Y0112654D01*
X0092077Y0112654D02*
X0091230Y0113500D01*
X0087077Y0113500D01*
X0092077Y0112654D02*
X0092077Y0095331D01*
X0095817Y0086669D02*
X0095817Y0081010D01*
X0095827Y0081000D01*
X0107077Y0076000D02*
X0107077Y0069346D01*
X0107077Y0062654D02*
X0107077Y0058500D01*
X0117077Y0069346D02*
X0117077Y0073500D01*
X0080827Y0078500D02*
X0078809Y0076482D01*
X0075344Y0076482D01*
X0080827Y0078500D02*
X0080827Y0117250D01*
X0083327Y0119750D01*
X0091673Y0119750D01*
X0092077Y0119346D01*
X0087077Y0126000D02*
X0087077Y0136000D01*
X0088077Y0137000D01*
X0093177Y0137000D01*
X0022077Y0151000D02*
X0021329Y0151502D01*
X0021329Y0158795D01*
X0012077Y0154858D02*
X0010827Y0148500D01*
X0021329Y0183205D02*
X0021329Y0184248D01*
X0020827Y0189750D01*
X0012077Y0192250D02*
X0012077Y0187142D01*
X0182077Y0057654D02*
X0188730Y0051000D01*
X0267077Y0088500D02*
X0268327Y0087250D01*
X0279577Y0087250D01*
X0280827Y0088500D01*
X0280827Y0119750D01*
X0278327Y0124750D02*
X0278327Y0097250D01*
X0277077Y0096000D01*
X0272077Y0096000D01*
X0267077Y0096000D02*
X0267077Y0088500D01*
X0267077Y0101000D02*
X0267077Y0113500D01*
X0269577Y0121000D02*
X0269577Y0141000D01*
X0274577Y0141000D02*
X0274577Y0128500D01*
X0278327Y0124750D01*
X0273327Y0124750D02*
X0273327Y0102250D01*
X0272077Y0101000D01*
X0284577Y0113500D02*
X0284577Y0141000D01*
X0289577Y0141000D02*
X0289577Y0134750D01*
X0279577Y0131000D02*
X0279577Y0141000D01*
X0100817Y0041669D02*
X0100817Y0037260D01*
X0100827Y0037250D01*
X0093996Y0041669D02*
X0098327Y0046000D01*
X0093996Y0041669D02*
X0093337Y0041669D01*
X0093337Y0028087D01*
X0097077Y0024346D01*
X0097077Y0017654D02*
X0097077Y0013500D01*
D37*
X0053327Y0046000D03*
X0044577Y0068500D03*
X0053327Y0087250D03*
X0048327Y0109750D03*
X0047077Y0117250D03*
X0030827Y0127250D03*
X0010827Y0148500D03*
X0022077Y0151000D03*
X0020827Y0189750D03*
X0012077Y0192250D03*
X0087077Y0126000D03*
X0087077Y0113500D03*
X0095827Y0081000D03*
X0110827Y0081000D03*
X0117077Y0073500D03*
X0125827Y0081000D03*
X0124577Y0062250D03*
X0107077Y0058500D03*
X0098327Y0046000D03*
X0100827Y0037250D03*
X0097077Y0013500D03*
X0135827Y0027250D03*
X0087077Y0058500D03*
X0170827Y0102250D03*
X0204577Y0091000D03*
X0213327Y0079750D03*
X0219577Y0077250D03*
X0224577Y0077250D03*
X0223327Y0091000D03*
X0219577Y0091000D03*
X0245827Y0071000D03*
X0298327Y0083500D03*
X0284577Y0113500D03*
X0280827Y0119750D03*
X0273327Y0124750D03*
X0269577Y0121000D03*
X0267077Y0113500D03*
X0279577Y0131000D03*
X0289577Y0134750D03*
X0300827Y0124750D03*
X0259577Y0134750D03*
X0328327Y0032250D03*
X0328327Y0021000D03*
M02*
