G75*
%MOIN*%
%OFA0B0*%
%FSLAX25Y25*%
%IPPOS*%
%LPD*%
%AMOC8*
5,1,8,0,0,1.08239X$1,22.5*
%
%ADD10C,0.10000*%
%ADD11OC8,0.10000*%
%ADD12C,0.15000*%
%ADD13OC8,0.15000*%
%ADD14C,0.03937*%
%ADD15C,0.17717*%
%ADD16C,0.04331*%
%ADD17R,0.04724X0.04724*%
%ADD18C,0.04724*%
%ADD19C,0.09055*%
%ADD20C,0.70079*%
%ADD21OC8,0.06300*%
%ADD22C,0.01969*%
%ADD23C,0.01000*%
%ADD24C,0.01600*%
%ADD25C,0.05000*%
D10*
X0152077Y0091000D03*
D11*
X0152077Y0071000D03*
D12*
X0035827Y0089000D03*
X0035827Y0051500D03*
X0172077Y0181000D03*
D13*
X0172077Y0161000D03*
D14*
X0228140Y0161000D02*
X0232077Y0161000D01*
X0232077Y0156000D02*
X0228140Y0156000D01*
X0228140Y0151000D02*
X0232077Y0151000D01*
X0232077Y0146000D02*
X0228140Y0146000D01*
X0228140Y0141000D02*
X0232077Y0141000D01*
X0232077Y0136000D02*
X0228140Y0136000D01*
X0228140Y0131000D02*
X0232077Y0131000D01*
X0232077Y0126000D02*
X0228140Y0126000D01*
X0228140Y0121000D02*
X0232077Y0121000D01*
X0232077Y0116000D02*
X0228140Y0116000D01*
X0252077Y0104937D02*
X0252077Y0101000D01*
X0257077Y0101000D02*
X0257077Y0104937D01*
X0262077Y0104937D02*
X0262077Y0101000D01*
X0267077Y0101000D02*
X0267077Y0104937D01*
X0272077Y0104937D02*
X0272077Y0101000D01*
X0272077Y0096000D02*
X0272077Y0092063D01*
X0267077Y0092063D02*
X0267077Y0096000D01*
X0262077Y0096000D02*
X0262077Y0092063D01*
X0257077Y0092063D02*
X0257077Y0096000D01*
X0252077Y0096000D02*
X0252077Y0092063D01*
X0312077Y0116000D02*
X0316014Y0116000D01*
X0316014Y0121000D02*
X0312077Y0121000D01*
X0312077Y0126000D02*
X0316014Y0126000D01*
X0316014Y0131000D02*
X0312077Y0131000D01*
X0312077Y0136000D02*
X0316014Y0136000D01*
X0316014Y0141000D02*
X0312077Y0141000D01*
X0312077Y0146000D02*
X0316014Y0146000D01*
X0316014Y0151000D02*
X0312077Y0151000D01*
X0312077Y0156000D02*
X0316014Y0156000D01*
X0316014Y0161000D02*
X0312077Y0161000D01*
D15*
X0307510Y0100469D03*
X0236644Y0100469D03*
D16*
X0254577Y0140212D02*
X0254577Y0141788D01*
X0254577Y0141788D01*
X0254577Y0140212D01*
X0254577Y0140212D01*
X0259577Y0140212D02*
X0259577Y0141788D01*
X0259577Y0141788D01*
X0259577Y0140212D01*
X0259577Y0140212D01*
X0264577Y0140212D02*
X0264577Y0141788D01*
X0264577Y0141788D01*
X0264577Y0140212D01*
X0264577Y0140212D01*
X0269577Y0140212D02*
X0269577Y0141788D01*
X0269577Y0141788D01*
X0269577Y0140212D01*
X0269577Y0140212D01*
X0274577Y0140212D02*
X0274577Y0141788D01*
X0274577Y0141788D01*
X0274577Y0140212D01*
X0274577Y0140212D01*
X0279577Y0140212D02*
X0279577Y0141788D01*
X0279577Y0141788D01*
X0279577Y0140212D01*
X0279577Y0140212D01*
X0284577Y0140212D02*
X0284577Y0141788D01*
X0284577Y0141788D01*
X0284577Y0140212D01*
X0284577Y0140212D01*
X0289577Y0140212D02*
X0289577Y0141788D01*
X0289577Y0141788D01*
X0289577Y0140212D01*
X0289577Y0140212D01*
D17*
X0277077Y0035252D03*
X0307077Y0035439D03*
X0247077Y0035439D03*
X0212077Y0035252D03*
X0012077Y0134937D03*
D18*
X0012077Y0127063D03*
X0212077Y0066748D03*
X0212077Y0058874D03*
X0212077Y0051000D03*
X0212077Y0043126D03*
X0247077Y0043313D03*
X0247077Y0051187D03*
X0247077Y0059061D03*
X0277077Y0058874D03*
X0277077Y0066748D03*
X0277077Y0051000D03*
X0277077Y0043126D03*
X0307077Y0043313D03*
X0307077Y0051187D03*
X0307077Y0059061D03*
D19*
X0123022Y0170094D03*
X0123022Y0182299D03*
X0041132Y0182299D03*
X0041132Y0170094D03*
D20*
X0082077Y0176000D03*
D21*
X0289577Y0067250D03*
X0290827Y0051000D03*
D22*
X0328327Y0032250D03*
X0328327Y0021000D03*
X0245827Y0071000D03*
X0224577Y0077250D03*
X0219577Y0077250D03*
X0213327Y0079750D03*
X0219577Y0091000D03*
X0223327Y0091000D03*
X0204577Y0091000D03*
X0170827Y0102250D03*
X0125827Y0081000D03*
X0117077Y0073500D03*
X0110827Y0081000D03*
X0095827Y0081000D03*
X0124577Y0062250D03*
X0107077Y0058500D03*
X0098327Y0046000D03*
X0100827Y0037250D03*
X0097077Y0013500D03*
X0135827Y0027250D03*
X0087077Y0058500D03*
X0053327Y0046000D03*
X0044577Y0068500D03*
X0053327Y0087250D03*
X0048327Y0109750D03*
X0047077Y0117250D03*
X0030827Y0127250D03*
X0010827Y0148500D03*
X0022077Y0151000D03*
X0020827Y0189750D03*
X0012077Y0192250D03*
X0087077Y0126000D03*
X0087077Y0113500D03*
X0259577Y0134750D03*
X0273327Y0124750D03*
X0269577Y0121000D03*
X0267077Y0113500D03*
X0280827Y0119750D03*
X0284577Y0113500D03*
X0300827Y0124750D03*
X0289577Y0134750D03*
X0279577Y0131000D03*
X0298327Y0083500D03*
D23*
X0008200Y0005399D02*
X0006476Y0007124D01*
X0005256Y0009236D01*
X0004625Y0011592D01*
X0004545Y0012811D01*
X0004545Y0209661D01*
X0004625Y0210881D01*
X0005256Y0213237D01*
X0006476Y0215349D01*
X0008200Y0217073D01*
X0009001Y0217535D01*
X0221722Y0217535D01*
X0220935Y0164858D01*
X0259754Y0164858D01*
X0259793Y0145142D01*
X0258753Y0145142D01*
X0257231Y0144511D01*
X0257077Y0144357D01*
X0256923Y0144511D01*
X0255401Y0145142D01*
X0253753Y0145142D01*
X0252231Y0144511D01*
X0251066Y0143346D01*
X0250435Y0141824D01*
X0250435Y0140176D01*
X0251066Y0138654D01*
X0252231Y0137489D01*
X0253753Y0136858D01*
X0255401Y0136858D01*
X0256923Y0137489D01*
X0257077Y0137643D01*
X0257231Y0137489D01*
X0258720Y0136872D01*
X0258700Y0136867D01*
X0258182Y0136568D01*
X0257759Y0136145D01*
X0257460Y0135627D01*
X0257305Y0135049D01*
X0257305Y0134750D01*
X0259577Y0134750D01*
X0259577Y0132478D01*
X0259818Y0132478D01*
X0259868Y0106915D01*
X0259750Y0106797D01*
X0259606Y0107013D01*
X0259152Y0107466D01*
X0258619Y0107822D01*
X0258026Y0108068D01*
X0257397Y0108193D01*
X0257217Y0108193D01*
X0257217Y0101140D01*
X0256937Y0101140D01*
X0256937Y0108193D01*
X0256756Y0108193D01*
X0256127Y0108068D01*
X0255535Y0107822D01*
X0255001Y0107466D01*
X0254548Y0107013D01*
X0254404Y0106797D01*
X0253754Y0107447D01*
X0252666Y0107898D01*
X0251488Y0107898D01*
X0250400Y0107447D01*
X0249567Y0106614D01*
X0249116Y0105526D01*
X0249116Y0100411D01*
X0249567Y0099323D01*
X0250390Y0098500D01*
X0249567Y0097677D01*
X0249116Y0096589D01*
X0249116Y0091474D01*
X0249567Y0090386D01*
X0250400Y0089553D01*
X0251488Y0089102D01*
X0252666Y0089102D01*
X0253754Y0089553D01*
X0254404Y0090203D01*
X0254548Y0089987D01*
X0255001Y0089534D01*
X0255535Y0089178D01*
X0256127Y0088932D01*
X0256756Y0088807D01*
X0256937Y0088807D01*
X0256937Y0095860D01*
X0257217Y0095860D01*
X0257217Y0088807D01*
X0257397Y0088807D01*
X0258026Y0088932D01*
X0258619Y0089178D01*
X0259152Y0089534D01*
X0259606Y0089987D01*
X0259750Y0090203D01*
X0259901Y0090052D01*
X0259986Y0046992D01*
X0246569Y0046992D01*
X0245666Y0046618D01*
X0211382Y0046618D01*
X0210099Y0046086D01*
X0209116Y0045104D01*
X0208585Y0043821D01*
X0208585Y0042431D01*
X0209116Y0041148D01*
X0210099Y0040166D01*
X0211382Y0039634D01*
X0247584Y0039634D01*
X0248487Y0040008D01*
X0260000Y0040008D01*
X0260069Y0004937D01*
X0009001Y0004937D01*
X0008200Y0005399D01*
X0008902Y0004994D02*
X0260069Y0004994D01*
X0260067Y0005993D02*
X0007607Y0005993D01*
X0006608Y0006991D02*
X0014063Y0006991D01*
X0014288Y0006898D02*
X0017424Y0006898D01*
X0020321Y0008098D01*
X0022538Y0010315D01*
X0023738Y0013212D01*
X0023738Y0016347D01*
X0022538Y0019244D01*
X0020321Y0021461D01*
X0017424Y0022661D01*
X0014288Y0022661D01*
X0011392Y0021461D01*
X0009174Y0019244D01*
X0007974Y0016347D01*
X0007974Y0013212D01*
X0009174Y0010315D01*
X0011392Y0008098D01*
X0014288Y0006898D01*
X0011652Y0007990D02*
X0005976Y0007990D01*
X0005399Y0008988D02*
X0010501Y0008988D01*
X0009503Y0009987D02*
X0005055Y0009987D01*
X0004788Y0010985D02*
X0008897Y0010985D01*
X0008483Y0011984D02*
X0004599Y0011984D01*
X0004545Y0012982D02*
X0008070Y0012982D01*
X0007974Y0013981D02*
X0004545Y0013981D01*
X0004545Y0014979D02*
X0007974Y0014979D01*
X0007974Y0015978D02*
X0004545Y0015978D01*
X0004545Y0016976D02*
X0008235Y0016976D01*
X0008648Y0017975D02*
X0004545Y0017975D01*
X0004545Y0018973D02*
X0009062Y0018973D01*
X0009902Y0019972D02*
X0004545Y0019972D01*
X0004545Y0020970D02*
X0010900Y0020970D01*
X0012616Y0021969D02*
X0004545Y0021969D01*
X0004545Y0022967D02*
X0260033Y0022967D01*
X0260035Y0021969D02*
X0247443Y0021969D01*
X0248667Y0021461D02*
X0245771Y0022661D01*
X0242635Y0022661D01*
X0239738Y0021461D01*
X0237521Y0019244D01*
X0236321Y0016347D01*
X0236321Y0013212D01*
X0237521Y0010315D01*
X0239738Y0008098D01*
X0242635Y0006898D01*
X0245771Y0006898D01*
X0248667Y0008098D01*
X0250885Y0010315D01*
X0252085Y0013212D01*
X0252085Y0016347D01*
X0250885Y0019244D01*
X0248667Y0021461D01*
X0249159Y0020970D02*
X0260037Y0020970D01*
X0260039Y0019972D02*
X0250157Y0019972D01*
X0250997Y0018973D02*
X0260041Y0018973D01*
X0260043Y0017975D02*
X0251411Y0017975D01*
X0251824Y0016976D02*
X0260045Y0016976D01*
X0260047Y0015978D02*
X0252085Y0015978D01*
X0252085Y0014979D02*
X0260049Y0014979D01*
X0260051Y0013981D02*
X0252085Y0013981D01*
X0251990Y0012982D02*
X0260053Y0012982D01*
X0260055Y0011984D02*
X0251576Y0011984D01*
X0251162Y0010985D02*
X0260057Y0010985D01*
X0260059Y0009987D02*
X0250557Y0009987D01*
X0249558Y0008988D02*
X0260061Y0008988D01*
X0260063Y0007990D02*
X0248407Y0007990D01*
X0245996Y0006991D02*
X0260065Y0006991D01*
X0262077Y0006991D02*
X0332191Y0006991D01*
X0332323Y0007124D02*
X0330599Y0005399D01*
X0329798Y0004937D01*
X0262077Y0004937D01*
X0262077Y0031760D01*
X0277771Y0031760D01*
X0278104Y0031898D01*
X0279850Y0031898D01*
X0279899Y0031947D01*
X0307771Y0031947D01*
X0308104Y0032085D01*
X0309238Y0032085D01*
X0309571Y0031947D01*
X0310960Y0031947D01*
X0312244Y0032478D01*
X0316287Y0036522D01*
X0316819Y0037805D01*
X0316819Y0085445D01*
X0316287Y0086728D01*
X0315305Y0087710D01*
X0311540Y0091476D01*
X0313090Y0092118D01*
X0315861Y0094889D01*
X0317360Y0098509D01*
X0317360Y0102428D01*
X0315861Y0106048D01*
X0313090Y0108819D01*
X0309469Y0110319D01*
X0305550Y0110319D01*
X0301930Y0108819D01*
X0299159Y0106048D01*
X0297659Y0102428D01*
X0297659Y0098509D01*
X0299159Y0094889D01*
X0301930Y0092118D01*
X0304018Y0091253D01*
X0304018Y0089872D01*
X0304549Y0088589D01*
X0309835Y0083304D01*
X0309835Y0061047D01*
X0308977Y0061905D01*
X0307744Y0062415D01*
X0306410Y0062415D01*
X0305177Y0061905D01*
X0304233Y0060961D01*
X0303722Y0059728D01*
X0303722Y0058394D01*
X0304233Y0057161D01*
X0305177Y0056217D01*
X0306410Y0055707D01*
X0307744Y0055707D01*
X0308977Y0056217D01*
X0309835Y0057075D01*
X0309835Y0053173D01*
X0308977Y0054031D01*
X0307744Y0054541D01*
X0306410Y0054541D01*
X0305177Y0054031D01*
X0304233Y0053087D01*
X0303722Y0051854D01*
X0303722Y0050520D01*
X0304233Y0049287D01*
X0305177Y0048343D01*
X0306410Y0047833D01*
X0307744Y0047833D01*
X0308977Y0048343D01*
X0309835Y0049201D01*
X0309835Y0045299D01*
X0308977Y0046157D01*
X0307744Y0046667D01*
X0306410Y0046667D01*
X0305177Y0046157D01*
X0304233Y0045213D01*
X0303722Y0043980D01*
X0303722Y0042646D01*
X0304233Y0041413D01*
X0305177Y0040469D01*
X0306410Y0039959D01*
X0307744Y0039959D01*
X0308977Y0040469D01*
X0309835Y0041327D01*
X0309835Y0039946D01*
X0308681Y0038793D01*
X0308104Y0038793D01*
X0307771Y0038931D01*
X0276569Y0038931D01*
X0276118Y0038744D01*
X0262077Y0038744D01*
X0262077Y0095860D01*
X0262217Y0095860D01*
X0262217Y0088807D01*
X0262397Y0088807D01*
X0263026Y0088932D01*
X0263619Y0089178D01*
X0264152Y0089534D01*
X0264606Y0089987D01*
X0264750Y0090203D01*
X0265400Y0089553D01*
X0266488Y0089102D01*
X0267666Y0089102D01*
X0268754Y0089553D01*
X0269577Y0090376D01*
X0270400Y0089553D01*
X0271488Y0089102D01*
X0272666Y0089102D01*
X0273754Y0089553D01*
X0274587Y0090386D01*
X0275037Y0091474D01*
X0275037Y0096589D01*
X0274587Y0097677D01*
X0273764Y0098500D01*
X0274587Y0099323D01*
X0275037Y0100411D01*
X0275037Y0105526D01*
X0274587Y0106614D01*
X0273754Y0107447D01*
X0272666Y0107898D01*
X0271488Y0107898D01*
X0270400Y0107447D01*
X0269577Y0106624D01*
X0268754Y0107447D01*
X0267666Y0107898D01*
X0266488Y0107898D01*
X0265400Y0107447D01*
X0264750Y0106797D01*
X0264606Y0107013D01*
X0264152Y0107466D01*
X0263619Y0107822D01*
X0263026Y0108068D01*
X0262397Y0108193D01*
X0262217Y0108193D01*
X0262217Y0101140D01*
X0262077Y0101140D01*
X0262077Y0137643D01*
X0262231Y0137489D01*
X0263753Y0136858D01*
X0265401Y0136858D01*
X0266923Y0137489D01*
X0267077Y0137643D01*
X0267231Y0137489D01*
X0268753Y0136858D01*
X0270401Y0136858D01*
X0271923Y0137489D01*
X0272077Y0137643D01*
X0272231Y0137489D01*
X0273753Y0136858D01*
X0275401Y0136858D01*
X0276923Y0137489D01*
X0277077Y0137643D01*
X0277231Y0137489D01*
X0278753Y0136858D01*
X0280401Y0136858D01*
X0281923Y0137489D01*
X0282077Y0137643D01*
X0282231Y0137489D01*
X0283753Y0136858D01*
X0285401Y0136858D01*
X0286923Y0137489D01*
X0287077Y0137643D01*
X0287231Y0137489D01*
X0288720Y0136872D01*
X0288700Y0136867D01*
X0288182Y0136568D01*
X0287759Y0136145D01*
X0287460Y0135627D01*
X0287305Y0135049D01*
X0287305Y0134750D01*
X0289577Y0134750D01*
X0291848Y0134750D01*
X0291848Y0135049D01*
X0291694Y0135627D01*
X0291395Y0136145D01*
X0290972Y0136568D01*
X0290454Y0136867D01*
X0290434Y0136872D01*
X0291923Y0137489D01*
X0293088Y0138654D01*
X0293718Y0140176D01*
X0293718Y0141824D01*
X0293088Y0143346D01*
X0291923Y0144511D01*
X0290401Y0145142D01*
X0288753Y0145142D01*
X0287231Y0144511D01*
X0287077Y0144357D01*
X0286923Y0144511D01*
X0285401Y0145142D01*
X0283753Y0145142D01*
X0282231Y0144511D01*
X0282077Y0144357D01*
X0281923Y0144511D01*
X0280401Y0145142D01*
X0278753Y0145142D01*
X0277231Y0144511D01*
X0277077Y0144357D01*
X0276923Y0144511D01*
X0275401Y0145142D01*
X0273753Y0145142D01*
X0272231Y0144511D01*
X0272077Y0144357D01*
X0271923Y0144511D01*
X0270401Y0145142D01*
X0268753Y0145142D01*
X0267231Y0144511D01*
X0267077Y0144357D01*
X0266923Y0144511D01*
X0265401Y0145142D01*
X0263753Y0145142D01*
X0262231Y0144511D01*
X0262077Y0144357D01*
X0262077Y0164858D01*
X0332785Y0164858D01*
X0332785Y0007924D01*
X0332323Y0007124D01*
X0332785Y0007990D02*
X0262077Y0007990D01*
X0262077Y0008988D02*
X0332785Y0008988D01*
X0332785Y0009987D02*
X0262077Y0009987D01*
X0262077Y0010985D02*
X0332785Y0010985D01*
X0332785Y0011984D02*
X0262077Y0011984D01*
X0262077Y0012982D02*
X0332785Y0012982D01*
X0332785Y0013981D02*
X0262077Y0013981D01*
X0262077Y0014979D02*
X0332785Y0014979D01*
X0332785Y0015978D02*
X0262077Y0015978D01*
X0262077Y0016976D02*
X0332785Y0016976D01*
X0332785Y0017975D02*
X0262077Y0017975D01*
X0262077Y0018973D02*
X0332785Y0018973D01*
X0332785Y0019972D02*
X0330094Y0019972D01*
X0330303Y0020181D02*
X0329145Y0019024D01*
X0327508Y0019024D01*
X0326350Y0020181D01*
X0326350Y0021819D01*
X0326835Y0022303D01*
X0326835Y0030947D01*
X0326350Y0031431D01*
X0326350Y0033069D01*
X0327508Y0034226D01*
X0329145Y0034226D01*
X0330303Y0033069D01*
X0330303Y0031431D01*
X0329819Y0030947D01*
X0329819Y0022303D01*
X0330303Y0021819D01*
X0330303Y0020181D01*
X0330303Y0020970D02*
X0332785Y0020970D01*
X0332785Y0021969D02*
X0330153Y0021969D01*
X0329819Y0022967D02*
X0332785Y0022967D01*
X0332785Y0023966D02*
X0329819Y0023966D01*
X0329819Y0024964D02*
X0332785Y0024964D01*
X0332785Y0025963D02*
X0329819Y0025963D01*
X0329819Y0026961D02*
X0332785Y0026961D01*
X0332785Y0027960D02*
X0329819Y0027960D01*
X0329819Y0028958D02*
X0332785Y0028958D01*
X0332785Y0029957D02*
X0329819Y0029957D01*
X0329827Y0030955D02*
X0332785Y0030955D01*
X0332785Y0031954D02*
X0330303Y0031954D01*
X0330303Y0032952D02*
X0332785Y0032952D01*
X0332785Y0033951D02*
X0329421Y0033951D01*
X0328327Y0032250D02*
X0328327Y0021000D01*
X0326350Y0020970D02*
X0262077Y0020970D01*
X0262077Y0019972D02*
X0326560Y0019972D01*
X0326500Y0021969D02*
X0262077Y0021969D01*
X0262077Y0022967D02*
X0326835Y0022967D01*
X0326835Y0023966D02*
X0262077Y0023966D01*
X0262077Y0024964D02*
X0326835Y0024964D01*
X0326835Y0025963D02*
X0262077Y0025963D01*
X0262077Y0026961D02*
X0326835Y0026961D01*
X0326835Y0027960D02*
X0262077Y0027960D01*
X0262077Y0028958D02*
X0326835Y0028958D01*
X0326835Y0029957D02*
X0262077Y0029957D01*
X0262077Y0030955D02*
X0326826Y0030955D01*
X0326350Y0031954D02*
X0310977Y0031954D01*
X0309554Y0031954D02*
X0307788Y0031954D01*
X0312718Y0032952D02*
X0326350Y0032952D01*
X0327233Y0033951D02*
X0313716Y0033951D01*
X0314715Y0034949D02*
X0332785Y0034949D01*
X0332785Y0035948D02*
X0315713Y0035948D01*
X0316463Y0036946D02*
X0332785Y0036946D01*
X0332785Y0037945D02*
X0316819Y0037945D01*
X0316819Y0038943D02*
X0332785Y0038943D01*
X0332785Y0039942D02*
X0316819Y0039942D01*
X0316819Y0040940D02*
X0332785Y0040940D01*
X0332785Y0041939D02*
X0316819Y0041939D01*
X0316819Y0042937D02*
X0332785Y0042937D01*
X0332785Y0043936D02*
X0316819Y0043936D01*
X0316819Y0044934D02*
X0332785Y0044934D01*
X0332785Y0045933D02*
X0316819Y0045933D01*
X0316819Y0046932D02*
X0332785Y0046932D01*
X0332785Y0047930D02*
X0316819Y0047930D01*
X0316819Y0048929D02*
X0332785Y0048929D01*
X0332785Y0049927D02*
X0316819Y0049927D01*
X0316819Y0050926D02*
X0332785Y0050926D01*
X0332785Y0051924D02*
X0316819Y0051924D01*
X0316819Y0052923D02*
X0332785Y0052923D01*
X0332785Y0053921D02*
X0316819Y0053921D01*
X0316819Y0054920D02*
X0332785Y0054920D01*
X0332785Y0055918D02*
X0316819Y0055918D01*
X0316819Y0056917D02*
X0332785Y0056917D01*
X0332785Y0057915D02*
X0316819Y0057915D01*
X0316819Y0058914D02*
X0332785Y0058914D01*
X0332785Y0059912D02*
X0316819Y0059912D01*
X0316819Y0060911D02*
X0332785Y0060911D01*
X0332785Y0061909D02*
X0316819Y0061909D01*
X0316819Y0062908D02*
X0332785Y0062908D01*
X0332785Y0063906D02*
X0316819Y0063906D01*
X0316819Y0064905D02*
X0332785Y0064905D01*
X0332785Y0065903D02*
X0316819Y0065903D01*
X0316819Y0066902D02*
X0332785Y0066902D01*
X0332785Y0067900D02*
X0316819Y0067900D01*
X0316819Y0068899D02*
X0332785Y0068899D01*
X0332785Y0069897D02*
X0316819Y0069897D01*
X0316819Y0070896D02*
X0332785Y0070896D01*
X0332785Y0071894D02*
X0316819Y0071894D01*
X0316819Y0072893D02*
X0332785Y0072893D01*
X0332785Y0073891D02*
X0316819Y0073891D01*
X0316819Y0074890D02*
X0332785Y0074890D01*
X0332785Y0075888D02*
X0316819Y0075888D01*
X0316819Y0076887D02*
X0332785Y0076887D01*
X0332785Y0077885D02*
X0316819Y0077885D01*
X0316819Y0078884D02*
X0332785Y0078884D01*
X0332785Y0079882D02*
X0316819Y0079882D01*
X0316819Y0080881D02*
X0332785Y0080881D01*
X0332785Y0081879D02*
X0316819Y0081879D01*
X0316819Y0082878D02*
X0332785Y0082878D01*
X0332785Y0083876D02*
X0316819Y0083876D01*
X0316819Y0084875D02*
X0332785Y0084875D01*
X0332785Y0085873D02*
X0316641Y0085873D01*
X0316143Y0086872D02*
X0332785Y0086872D01*
X0332785Y0087870D02*
X0315145Y0087870D01*
X0314146Y0088869D02*
X0332785Y0088869D01*
X0332785Y0089868D02*
X0313148Y0089868D01*
X0312149Y0090866D02*
X0332785Y0090866D01*
X0332785Y0091865D02*
X0312478Y0091865D01*
X0313835Y0092863D02*
X0332785Y0092863D01*
X0332785Y0093862D02*
X0314833Y0093862D01*
X0315832Y0094860D02*
X0332785Y0094860D01*
X0332785Y0095859D02*
X0316262Y0095859D01*
X0316676Y0096857D02*
X0332785Y0096857D01*
X0332785Y0097856D02*
X0317090Y0097856D01*
X0317360Y0098854D02*
X0332785Y0098854D01*
X0332785Y0099853D02*
X0317360Y0099853D01*
X0317360Y0100851D02*
X0332785Y0100851D01*
X0332785Y0101850D02*
X0317360Y0101850D01*
X0317186Y0102848D02*
X0332785Y0102848D01*
X0332785Y0103847D02*
X0316773Y0103847D01*
X0316359Y0104845D02*
X0332785Y0104845D01*
X0332785Y0105844D02*
X0315945Y0105844D01*
X0315067Y0106842D02*
X0332785Y0106842D01*
X0332785Y0107841D02*
X0314068Y0107841D01*
X0313041Y0108839D02*
X0332785Y0108839D01*
X0332785Y0109838D02*
X0310631Y0109838D01*
X0311488Y0113039D02*
X0310400Y0113490D01*
X0309567Y0114323D01*
X0309116Y0115411D01*
X0309116Y0116589D01*
X0309567Y0117677D01*
X0310390Y0118500D01*
X0309567Y0119323D01*
X0309116Y0120411D01*
X0309116Y0121589D01*
X0309567Y0122677D01*
X0310390Y0123500D01*
X0309567Y0124323D01*
X0309490Y0124508D01*
X0302803Y0124508D01*
X0302803Y0123931D01*
X0301645Y0122774D01*
X0300008Y0122774D01*
X0298850Y0123931D01*
X0298850Y0125569D01*
X0300008Y0126726D01*
X0300693Y0126726D01*
X0301459Y0127492D01*
X0309490Y0127492D01*
X0309567Y0127677D01*
X0310390Y0128500D01*
X0309567Y0129323D01*
X0309116Y0130411D01*
X0309116Y0131589D01*
X0309567Y0132677D01*
X0310390Y0133500D01*
X0309567Y0134323D01*
X0309116Y0135411D01*
X0309116Y0136589D01*
X0309567Y0137677D01*
X0310390Y0138500D01*
X0309567Y0139323D01*
X0309116Y0140411D01*
X0309116Y0141589D01*
X0309567Y0142677D01*
X0310390Y0143500D01*
X0309567Y0144323D01*
X0309116Y0145411D01*
X0309116Y0146589D01*
X0309567Y0147677D01*
X0310390Y0148500D01*
X0309567Y0149323D01*
X0309116Y0150411D01*
X0309116Y0151589D01*
X0309567Y0152677D01*
X0310390Y0153500D01*
X0309567Y0154323D01*
X0309116Y0155411D01*
X0309116Y0156589D01*
X0309567Y0157677D01*
X0310390Y0158500D01*
X0309567Y0159323D01*
X0309116Y0160411D01*
X0309116Y0161589D01*
X0309567Y0162677D01*
X0310400Y0163510D01*
X0311488Y0163961D01*
X0316603Y0163961D01*
X0317691Y0163510D01*
X0318524Y0162677D01*
X0318974Y0161589D01*
X0318974Y0160411D01*
X0318524Y0159323D01*
X0317701Y0158500D01*
X0318524Y0157677D01*
X0318974Y0156589D01*
X0318974Y0155411D01*
X0318524Y0154323D01*
X0317701Y0153500D01*
X0318524Y0152677D01*
X0318974Y0151589D01*
X0318974Y0150411D01*
X0318524Y0149323D01*
X0317701Y0148500D01*
X0318524Y0147677D01*
X0318974Y0146589D01*
X0318974Y0145411D01*
X0318524Y0144323D01*
X0317701Y0143500D01*
X0318524Y0142677D01*
X0318974Y0141589D01*
X0318974Y0140411D01*
X0318524Y0139323D01*
X0317701Y0138500D01*
X0318524Y0137677D01*
X0318974Y0136589D01*
X0318974Y0135411D01*
X0318524Y0134323D01*
X0317701Y0133500D01*
X0318524Y0132677D01*
X0318974Y0131589D01*
X0318974Y0130411D01*
X0318524Y0129323D01*
X0317701Y0128500D01*
X0318524Y0127677D01*
X0318974Y0126589D01*
X0318974Y0125411D01*
X0318524Y0124323D01*
X0317701Y0123500D01*
X0318524Y0122677D01*
X0318974Y0121589D01*
X0318974Y0120411D01*
X0318524Y0119323D01*
X0317701Y0118500D01*
X0318524Y0117677D01*
X0318974Y0116589D01*
X0318974Y0115411D01*
X0318524Y0114323D01*
X0317691Y0113490D01*
X0316603Y0113039D01*
X0311488Y0113039D01*
X0310058Y0113832D02*
X0286553Y0113832D01*
X0286553Y0114319D02*
X0285395Y0115476D01*
X0283758Y0115476D01*
X0283274Y0114992D01*
X0268380Y0114992D01*
X0267895Y0115476D01*
X0266258Y0115476D01*
X0265100Y0114319D01*
X0265100Y0112681D01*
X0266258Y0111524D01*
X0267895Y0111524D01*
X0268380Y0112008D01*
X0283274Y0112008D01*
X0283758Y0111524D01*
X0285395Y0111524D01*
X0286553Y0112681D01*
X0286553Y0114319D01*
X0286041Y0114830D02*
X0309357Y0114830D01*
X0309116Y0115829D02*
X0262077Y0115829D01*
X0262077Y0116827D02*
X0309215Y0116827D01*
X0309716Y0117826D02*
X0281698Y0117826D01*
X0281645Y0117774D02*
X0282803Y0118931D01*
X0282803Y0120569D01*
X0281645Y0121726D01*
X0280008Y0121726D01*
X0279524Y0121242D01*
X0271553Y0121242D01*
X0271553Y0121819D01*
X0270395Y0122976D01*
X0268758Y0122976D01*
X0267600Y0121819D01*
X0267600Y0120181D01*
X0268758Y0119024D01*
X0269443Y0119024D01*
X0270209Y0118258D01*
X0279524Y0118258D01*
X0280008Y0117774D01*
X0281645Y0117774D01*
X0282696Y0118824D02*
X0310065Y0118824D01*
X0309360Y0119823D02*
X0282803Y0119823D01*
X0282550Y0120821D02*
X0309116Y0120821D01*
X0309212Y0121820D02*
X0271552Y0121820D01*
X0272508Y0122774D02*
X0274145Y0122774D01*
X0275303Y0123931D01*
X0275303Y0124616D01*
X0279711Y0129024D01*
X0280395Y0129024D01*
X0281553Y0130181D01*
X0281553Y0131819D01*
X0280395Y0132976D01*
X0278758Y0132976D01*
X0277600Y0131819D01*
X0277600Y0131134D01*
X0273193Y0126726D01*
X0272508Y0126726D01*
X0271350Y0125569D01*
X0271350Y0123931D01*
X0272508Y0122774D01*
X0272463Y0122818D02*
X0270553Y0122818D01*
X0271465Y0123817D02*
X0262077Y0123817D01*
X0262077Y0124815D02*
X0271350Y0124815D01*
X0271596Y0125814D02*
X0262077Y0125814D01*
X0262077Y0126812D02*
X0273279Y0126812D01*
X0274278Y0127811D02*
X0262077Y0127811D01*
X0262077Y0128809D02*
X0275276Y0128809D01*
X0276275Y0129808D02*
X0262077Y0129808D01*
X0262077Y0130806D02*
X0277273Y0130806D01*
X0277600Y0131805D02*
X0262077Y0131805D01*
X0262077Y0132803D02*
X0278585Y0132803D01*
X0280568Y0132803D02*
X0288405Y0132803D01*
X0288182Y0132932D02*
X0288700Y0132633D01*
X0289278Y0132478D01*
X0289577Y0132478D01*
X0289876Y0132478D01*
X0290454Y0132633D01*
X0290972Y0132932D01*
X0291395Y0133355D01*
X0291694Y0133873D01*
X0291848Y0134451D01*
X0291848Y0134750D01*
X0289577Y0134750D01*
X0289577Y0134750D01*
X0289577Y0132478D01*
X0289577Y0134750D01*
X0289577Y0134750D01*
X0287305Y0134750D01*
X0287305Y0134451D01*
X0287460Y0133873D01*
X0287759Y0133355D01*
X0288182Y0132932D01*
X0287501Y0133802D02*
X0262077Y0133802D01*
X0262077Y0134801D02*
X0287305Y0134801D01*
X0287559Y0135799D02*
X0262077Y0135799D01*
X0262077Y0136798D02*
X0288580Y0136798D01*
X0290574Y0136798D02*
X0309203Y0136798D01*
X0309116Y0135799D02*
X0291594Y0135799D01*
X0291848Y0134801D02*
X0309369Y0134801D01*
X0310088Y0133802D02*
X0291653Y0133802D01*
X0290749Y0132803D02*
X0309693Y0132803D01*
X0309206Y0131805D02*
X0281553Y0131805D01*
X0281553Y0130806D02*
X0309116Y0130806D01*
X0309366Y0129808D02*
X0281180Y0129808D01*
X0279496Y0128809D02*
X0310080Y0128809D01*
X0309701Y0127811D02*
X0278498Y0127811D01*
X0277499Y0126812D02*
X0300779Y0126812D01*
X0302077Y0126000D02*
X0312077Y0126000D01*
X0310073Y0123817D02*
X0302689Y0123817D01*
X0301690Y0122818D02*
X0309708Y0122818D01*
X0302077Y0126000D02*
X0300827Y0124750D01*
X0298850Y0124815D02*
X0275502Y0124815D01*
X0275189Y0123817D02*
X0298965Y0123817D01*
X0299963Y0122818D02*
X0274190Y0122818D01*
X0273327Y0124750D02*
X0279577Y0131000D01*
X0276501Y0125814D02*
X0299096Y0125814D01*
X0289577Y0132803D02*
X0289577Y0132803D01*
X0289577Y0133802D02*
X0289577Y0133802D01*
X0289577Y0134750D02*
X0289577Y0134750D01*
X0292230Y0137796D02*
X0309686Y0137796D01*
X0310095Y0138795D02*
X0293146Y0138795D01*
X0293560Y0139793D02*
X0309372Y0139793D01*
X0309116Y0140792D02*
X0293718Y0140792D01*
X0293718Y0141790D02*
X0309199Y0141790D01*
X0309678Y0142789D02*
X0293319Y0142789D01*
X0292647Y0143787D02*
X0310103Y0143787D01*
X0309375Y0144786D02*
X0291260Y0144786D01*
X0287893Y0144786D02*
X0286260Y0144786D01*
X0282893Y0144786D02*
X0281260Y0144786D01*
X0277893Y0144786D02*
X0276260Y0144786D01*
X0272893Y0144786D02*
X0271260Y0144786D01*
X0267893Y0144786D02*
X0266260Y0144786D01*
X0262893Y0144786D02*
X0262077Y0144786D01*
X0262077Y0145784D02*
X0309116Y0145784D01*
X0309196Y0146783D02*
X0262077Y0146783D01*
X0262077Y0147781D02*
X0309671Y0147781D01*
X0310110Y0148780D02*
X0262077Y0148780D01*
X0262077Y0149778D02*
X0309378Y0149778D01*
X0309116Y0150777D02*
X0262077Y0150777D01*
X0262077Y0151775D02*
X0309193Y0151775D01*
X0309664Y0152774D02*
X0262077Y0152774D01*
X0262077Y0153772D02*
X0310118Y0153772D01*
X0309381Y0154771D02*
X0262077Y0154771D01*
X0262077Y0155769D02*
X0309116Y0155769D01*
X0309190Y0156768D02*
X0262077Y0156768D01*
X0262077Y0157766D02*
X0309656Y0157766D01*
X0310125Y0158765D02*
X0262077Y0158765D01*
X0262077Y0159763D02*
X0309384Y0159763D01*
X0309116Y0160762D02*
X0262077Y0160762D01*
X0262077Y0161760D02*
X0309187Y0161760D01*
X0309649Y0162759D02*
X0262077Y0162759D01*
X0262077Y0163757D02*
X0310997Y0163757D01*
X0317093Y0163757D02*
X0332785Y0163757D01*
X0332785Y0162759D02*
X0318442Y0162759D01*
X0318903Y0161760D02*
X0332785Y0161760D01*
X0332785Y0160762D02*
X0318974Y0160762D01*
X0318706Y0159763D02*
X0332785Y0159763D01*
X0332785Y0158765D02*
X0317966Y0158765D01*
X0318434Y0157766D02*
X0332785Y0157766D01*
X0332785Y0156768D02*
X0318900Y0156768D01*
X0318974Y0155769D02*
X0332785Y0155769D01*
X0332785Y0154771D02*
X0318709Y0154771D01*
X0317973Y0153772D02*
X0332785Y0153772D01*
X0332785Y0152774D02*
X0318427Y0152774D01*
X0318897Y0151775D02*
X0332785Y0151775D01*
X0332785Y0150777D02*
X0318974Y0150777D01*
X0318712Y0149778D02*
X0332785Y0149778D01*
X0332785Y0148780D02*
X0317980Y0148780D01*
X0318420Y0147781D02*
X0332785Y0147781D01*
X0332785Y0146783D02*
X0318894Y0146783D01*
X0318974Y0145784D02*
X0332785Y0145784D01*
X0332785Y0144786D02*
X0318715Y0144786D01*
X0317988Y0143787D02*
X0332785Y0143787D01*
X0332785Y0142789D02*
X0318412Y0142789D01*
X0318891Y0141790D02*
X0332785Y0141790D01*
X0332785Y0140792D02*
X0318974Y0140792D01*
X0318718Y0139793D02*
X0332785Y0139793D01*
X0332785Y0138795D02*
X0317995Y0138795D01*
X0318405Y0137796D02*
X0332785Y0137796D01*
X0332785Y0136798D02*
X0318888Y0136798D01*
X0318974Y0135799D02*
X0332785Y0135799D01*
X0332785Y0134801D02*
X0318721Y0134801D01*
X0318003Y0133802D02*
X0332785Y0133802D01*
X0332785Y0132803D02*
X0318397Y0132803D01*
X0318885Y0131805D02*
X0332785Y0131805D01*
X0332785Y0130806D02*
X0318974Y0130806D01*
X0318725Y0129808D02*
X0332785Y0129808D01*
X0332785Y0128809D02*
X0318010Y0128809D01*
X0318390Y0127811D02*
X0332785Y0127811D01*
X0332785Y0126812D02*
X0318882Y0126812D01*
X0318974Y0125814D02*
X0332785Y0125814D01*
X0332785Y0124815D02*
X0318728Y0124815D01*
X0318018Y0123817D02*
X0332785Y0123817D01*
X0332785Y0122818D02*
X0318382Y0122818D01*
X0318879Y0121820D02*
X0332785Y0121820D01*
X0332785Y0120821D02*
X0318974Y0120821D01*
X0318731Y0119823D02*
X0332785Y0119823D01*
X0332785Y0118824D02*
X0318025Y0118824D01*
X0318375Y0117826D02*
X0332785Y0117826D01*
X0332785Y0116827D02*
X0318876Y0116827D01*
X0318974Y0115829D02*
X0332785Y0115829D01*
X0332785Y0114830D02*
X0318734Y0114830D01*
X0318033Y0113832D02*
X0332785Y0113832D01*
X0332785Y0112833D02*
X0286553Y0112833D01*
X0285707Y0111835D02*
X0332785Y0111835D01*
X0332785Y0110836D02*
X0262077Y0110836D01*
X0262077Y0109838D02*
X0304389Y0109838D01*
X0301978Y0108839D02*
X0262077Y0108839D01*
X0262077Y0107841D02*
X0262217Y0107841D01*
X0262217Y0106842D02*
X0262077Y0106842D01*
X0262077Y0105844D02*
X0262217Y0105844D01*
X0262217Y0104845D02*
X0262077Y0104845D01*
X0262077Y0103847D02*
X0262217Y0103847D01*
X0262217Y0102848D02*
X0262077Y0102848D01*
X0262077Y0101850D02*
X0262217Y0101850D01*
X0262217Y0100860D02*
X0262217Y0097744D01*
X0262217Y0096140D01*
X0262077Y0096140D01*
X0262077Y0100860D01*
X0262217Y0100860D01*
X0262217Y0100851D02*
X0262077Y0100851D01*
X0262077Y0099853D02*
X0262217Y0099853D01*
X0262217Y0098854D02*
X0262077Y0098854D01*
X0262077Y0097856D02*
X0262217Y0097856D01*
X0262217Y0096857D02*
X0262077Y0096857D01*
X0262077Y0095859D02*
X0262217Y0095859D01*
X0262217Y0094860D02*
X0262077Y0094860D01*
X0262077Y0093862D02*
X0262217Y0093862D01*
X0262217Y0092863D02*
X0262077Y0092863D01*
X0262077Y0091865D02*
X0262217Y0091865D01*
X0262217Y0090866D02*
X0262077Y0090866D01*
X0262077Y0089868D02*
X0262217Y0089868D01*
X0262217Y0088869D02*
X0262077Y0088869D01*
X0262709Y0088869D02*
X0304433Y0088869D01*
X0304020Y0089868D02*
X0274068Y0089868D01*
X0274786Y0090866D02*
X0304018Y0090866D01*
X0302541Y0091865D02*
X0275037Y0091865D01*
X0275037Y0092863D02*
X0301185Y0092863D01*
X0300186Y0093862D02*
X0275037Y0093862D01*
X0275037Y0094860D02*
X0299188Y0094860D01*
X0298757Y0095859D02*
X0275037Y0095859D01*
X0274926Y0096857D02*
X0298344Y0096857D01*
X0297930Y0097856D02*
X0274408Y0097856D01*
X0274118Y0098854D02*
X0297659Y0098854D01*
X0297659Y0099853D02*
X0274806Y0099853D01*
X0275037Y0100851D02*
X0297659Y0100851D01*
X0297659Y0101850D02*
X0275037Y0101850D01*
X0275037Y0102848D02*
X0297834Y0102848D01*
X0298247Y0103847D02*
X0275037Y0103847D01*
X0275037Y0104845D02*
X0298661Y0104845D01*
X0299074Y0105844D02*
X0274906Y0105844D01*
X0274359Y0106842D02*
X0299953Y0106842D01*
X0300951Y0107841D02*
X0272803Y0107841D01*
X0271350Y0107841D02*
X0267803Y0107841D01*
X0266350Y0107841D02*
X0263575Y0107841D01*
X0264720Y0106842D02*
X0264795Y0106842D01*
X0269359Y0106842D02*
X0269795Y0106842D01*
X0268207Y0111835D02*
X0283447Y0111835D01*
X0284577Y0113500D02*
X0267077Y0113500D01*
X0265612Y0114830D02*
X0262077Y0114830D01*
X0262077Y0113832D02*
X0265100Y0113832D01*
X0265100Y0112833D02*
X0262077Y0112833D01*
X0262077Y0111835D02*
X0265947Y0111835D01*
X0259858Y0111835D02*
X0088207Y0111835D01*
X0087895Y0111524D02*
X0089053Y0112681D01*
X0089053Y0114319D01*
X0088569Y0114803D01*
X0088569Y0124697D01*
X0089053Y0125181D01*
X0089053Y0126819D01*
X0087895Y0127976D01*
X0086258Y0127976D01*
X0085100Y0126819D01*
X0085100Y0125181D01*
X0085585Y0124697D01*
X0085585Y0114803D01*
X0085100Y0114319D01*
X0085100Y0112681D01*
X0086258Y0111524D01*
X0087895Y0111524D01*
X0089053Y0112833D02*
X0259856Y0112833D01*
X0259854Y0113832D02*
X0234096Y0113832D01*
X0233754Y0113490D02*
X0234587Y0114323D01*
X0235037Y0115411D01*
X0235037Y0116589D01*
X0234587Y0117677D01*
X0233764Y0118500D01*
X0234587Y0119323D01*
X0235037Y0120411D01*
X0235037Y0121589D01*
X0234587Y0122677D01*
X0233764Y0123500D01*
X0234587Y0124323D01*
X0235037Y0125411D01*
X0235037Y0126589D01*
X0234587Y0127677D01*
X0233764Y0128500D01*
X0234587Y0129323D01*
X0235037Y0130411D01*
X0235037Y0131589D01*
X0234587Y0132677D01*
X0233764Y0133500D01*
X0234587Y0134323D01*
X0235037Y0135411D01*
X0235037Y0136589D01*
X0234587Y0137677D01*
X0233764Y0138500D01*
X0234587Y0139323D01*
X0235037Y0140411D01*
X0235037Y0141589D01*
X0234587Y0142677D01*
X0233764Y0143500D01*
X0234587Y0144323D01*
X0235037Y0145411D01*
X0235037Y0146589D01*
X0234587Y0147677D01*
X0233764Y0148500D01*
X0234587Y0149323D01*
X0235037Y0150411D01*
X0235037Y0151589D01*
X0234587Y0152677D01*
X0233764Y0153500D01*
X0234587Y0154323D01*
X0235037Y0155411D01*
X0235037Y0156589D01*
X0234587Y0157677D01*
X0233764Y0158500D01*
X0234587Y0159323D01*
X0235037Y0160411D01*
X0235037Y0161589D01*
X0234587Y0162677D01*
X0233754Y0163510D01*
X0232666Y0163961D01*
X0227551Y0163961D01*
X0226463Y0163510D01*
X0225630Y0162677D01*
X0225179Y0161589D01*
X0225179Y0160411D01*
X0225630Y0159323D01*
X0226453Y0158500D01*
X0225630Y0157677D01*
X0225179Y0156589D01*
X0225179Y0155411D01*
X0225630Y0154323D01*
X0226453Y0153500D01*
X0225630Y0152677D01*
X0225179Y0151589D01*
X0225179Y0150411D01*
X0225630Y0149323D01*
X0226453Y0148500D01*
X0225630Y0147677D01*
X0225179Y0146589D01*
X0225179Y0145411D01*
X0225630Y0144323D01*
X0226453Y0143500D01*
X0225630Y0142677D01*
X0225179Y0141589D01*
X0225179Y0140411D01*
X0225630Y0139323D01*
X0226453Y0138500D01*
X0225630Y0137677D01*
X0225179Y0136589D01*
X0225179Y0135411D01*
X0225630Y0134323D01*
X0226453Y0133500D01*
X0225630Y0132677D01*
X0225179Y0131589D01*
X0225179Y0130411D01*
X0225630Y0129323D01*
X0226453Y0128500D01*
X0225630Y0127677D01*
X0225179Y0126589D01*
X0225179Y0125411D01*
X0225630Y0124323D01*
X0226453Y0123500D01*
X0225630Y0122677D01*
X0225179Y0121589D01*
X0225179Y0120411D01*
X0225630Y0119323D01*
X0226453Y0118500D01*
X0225630Y0117677D01*
X0225179Y0116589D01*
X0225179Y0115411D01*
X0225630Y0114323D01*
X0226463Y0113490D01*
X0227551Y0113039D01*
X0232666Y0113039D01*
X0233754Y0113490D01*
X0234797Y0114830D02*
X0259852Y0114830D01*
X0259850Y0115829D02*
X0235037Y0115829D01*
X0234939Y0116827D02*
X0259849Y0116827D01*
X0259847Y0117826D02*
X0234438Y0117826D01*
X0234088Y0118824D02*
X0259845Y0118824D01*
X0259843Y0119823D02*
X0234794Y0119823D01*
X0235037Y0120821D02*
X0259841Y0120821D01*
X0259839Y0121820D02*
X0234942Y0121820D01*
X0234445Y0122818D02*
X0259837Y0122818D01*
X0259835Y0123817D02*
X0234081Y0123817D01*
X0234791Y0124815D02*
X0259833Y0124815D01*
X0259831Y0125814D02*
X0235037Y0125814D01*
X0234945Y0126812D02*
X0259829Y0126812D01*
X0259827Y0127811D02*
X0234453Y0127811D01*
X0234073Y0128809D02*
X0259825Y0128809D01*
X0259823Y0129808D02*
X0234788Y0129808D01*
X0235037Y0130806D02*
X0259821Y0130806D01*
X0259819Y0131805D02*
X0234948Y0131805D01*
X0234460Y0132803D02*
X0258405Y0132803D01*
X0258182Y0132932D02*
X0258700Y0132633D01*
X0259278Y0132478D01*
X0259577Y0132478D01*
X0259577Y0134750D01*
X0259577Y0134750D01*
X0257305Y0134750D01*
X0257305Y0134451D01*
X0257460Y0133873D01*
X0257759Y0133355D01*
X0258182Y0132932D01*
X0257501Y0133802D02*
X0234066Y0133802D01*
X0234784Y0134801D02*
X0257305Y0134801D01*
X0257559Y0135799D02*
X0235037Y0135799D01*
X0234951Y0136798D02*
X0258580Y0136798D01*
X0259577Y0134750D02*
X0259577Y0134750D01*
X0259577Y0133802D02*
X0259577Y0133802D01*
X0259577Y0132803D02*
X0259577Y0132803D01*
X0251923Y0137796D02*
X0234468Y0137796D01*
X0234058Y0138795D02*
X0251007Y0138795D01*
X0250594Y0139793D02*
X0234781Y0139793D01*
X0235037Y0140792D02*
X0250435Y0140792D01*
X0250435Y0141790D02*
X0234954Y0141790D01*
X0234475Y0142789D02*
X0250835Y0142789D01*
X0251507Y0143787D02*
X0234051Y0143787D01*
X0234778Y0144786D02*
X0252893Y0144786D01*
X0256260Y0144786D02*
X0257893Y0144786D01*
X0259791Y0145784D02*
X0235037Y0145784D01*
X0234957Y0146783D02*
X0259790Y0146783D01*
X0259788Y0147781D02*
X0234483Y0147781D01*
X0234043Y0148780D02*
X0259786Y0148780D01*
X0259784Y0149778D02*
X0234775Y0149778D01*
X0235037Y0150777D02*
X0259782Y0150777D01*
X0259780Y0151775D02*
X0234960Y0151775D01*
X0234490Y0152774D02*
X0259778Y0152774D01*
X0259776Y0153772D02*
X0234036Y0153772D01*
X0234772Y0154771D02*
X0259774Y0154771D01*
X0259772Y0155769D02*
X0235037Y0155769D01*
X0234963Y0156768D02*
X0259770Y0156768D01*
X0259768Y0157766D02*
X0234497Y0157766D01*
X0234029Y0158765D02*
X0259766Y0158765D01*
X0259764Y0159763D02*
X0234769Y0159763D01*
X0235037Y0160762D02*
X0259762Y0160762D01*
X0259760Y0161760D02*
X0234966Y0161760D01*
X0234505Y0162759D02*
X0259758Y0162759D01*
X0259756Y0163757D02*
X0233156Y0163757D01*
X0227060Y0163757D02*
X0180864Y0163757D01*
X0180864Y0164640D02*
X0175717Y0169787D01*
X0172577Y0169787D01*
X0172577Y0161500D01*
X0180864Y0161500D01*
X0180864Y0164640D01*
X0180748Y0164756D02*
X0259754Y0164756D01*
X0262077Y0164756D02*
X0332785Y0164756D01*
X0270827Y0119750D02*
X0269577Y0121000D01*
X0270827Y0119750D02*
X0280827Y0119750D01*
X0279956Y0117826D02*
X0262077Y0117826D01*
X0262077Y0118824D02*
X0269642Y0118824D01*
X0267959Y0119823D02*
X0262077Y0119823D01*
X0262077Y0120821D02*
X0267600Y0120821D01*
X0267602Y0121820D02*
X0262077Y0121820D01*
X0262077Y0122818D02*
X0268600Y0122818D01*
X0259860Y0110836D02*
X0050036Y0110836D01*
X0050303Y0110569D02*
X0049145Y0111726D01*
X0047508Y0111726D01*
X0046350Y0110569D01*
X0046350Y0108931D01*
X0046535Y0108747D01*
X0046535Y0096508D01*
X0047584Y0095458D01*
X0052584Y0090458D01*
X0063834Y0090458D01*
X0066535Y0087758D01*
X0066535Y0027758D01*
X0067584Y0026708D01*
X0068834Y0025458D01*
X0134824Y0025458D01*
X0135008Y0025274D01*
X0136645Y0025274D01*
X0137803Y0026431D01*
X0137803Y0028069D01*
X0136645Y0029226D01*
X0135008Y0029226D01*
X0134824Y0029042D01*
X0070319Y0029042D01*
X0070119Y0029242D01*
X0070119Y0089242D01*
X0066369Y0092992D01*
X0065319Y0094042D01*
X0054069Y0094042D01*
X0050119Y0097992D01*
X0050119Y0108747D01*
X0050303Y0108931D01*
X0050303Y0110569D01*
X0050303Y0109838D02*
X0232716Y0109838D01*
X0232755Y0109857D02*
X0231728Y0109362D01*
X0230763Y0108756D01*
X0229873Y0108045D01*
X0229067Y0107240D01*
X0228356Y0106349D01*
X0227750Y0105384D01*
X0227256Y0104357D01*
X0226879Y0103282D01*
X0226626Y0102171D01*
X0226498Y0101038D01*
X0226498Y0100968D01*
X0236144Y0100968D01*
X0236144Y0099969D01*
X0226498Y0099969D01*
X0226498Y0099899D01*
X0226626Y0098766D01*
X0226879Y0097655D01*
X0227256Y0096580D01*
X0227750Y0095553D01*
X0228356Y0094588D01*
X0229067Y0093697D01*
X0229873Y0092892D01*
X0230763Y0092181D01*
X0231728Y0091575D01*
X0232755Y0091080D01*
X0233831Y0090704D01*
X0234942Y0090450D01*
X0236074Y0090323D01*
X0236144Y0090323D01*
X0236144Y0099968D01*
X0237144Y0099968D01*
X0237144Y0090323D01*
X0237213Y0090323D01*
X0238346Y0090450D01*
X0239457Y0090704D01*
X0240532Y0091080D01*
X0241559Y0091575D01*
X0242524Y0092181D01*
X0243415Y0092892D01*
X0244221Y0093697D01*
X0244931Y0094588D01*
X0245537Y0095553D01*
X0246032Y0096580D01*
X0246408Y0097655D01*
X0246662Y0098766D01*
X0246789Y0099899D01*
X0246789Y0099969D01*
X0237144Y0099969D01*
X0237144Y0100968D01*
X0246789Y0100968D01*
X0246789Y0101038D01*
X0246662Y0102171D01*
X0246408Y0103282D01*
X0246032Y0104357D01*
X0245537Y0105384D01*
X0244931Y0106349D01*
X0244221Y0107240D01*
X0243415Y0108045D01*
X0242524Y0108756D01*
X0241559Y0109362D01*
X0240532Y0109857D01*
X0239457Y0110233D01*
X0238346Y0110487D01*
X0237213Y0110614D01*
X0237144Y0110614D01*
X0237144Y0100969D01*
X0236144Y0100969D01*
X0236144Y0110614D01*
X0236074Y0110614D01*
X0234942Y0110487D01*
X0233831Y0110233D01*
X0232755Y0109857D01*
X0230896Y0108839D02*
X0050211Y0108839D01*
X0050119Y0107841D02*
X0229668Y0107841D01*
X0228750Y0106842D02*
X0050119Y0106842D01*
X0050119Y0105844D02*
X0228039Y0105844D01*
X0227491Y0104845D02*
X0050119Y0104845D01*
X0050119Y0103847D02*
X0169211Y0103847D01*
X0169009Y0103645D02*
X0168710Y0103127D01*
X0168555Y0102549D01*
X0168555Y0102250D01*
X0170827Y0102250D01*
X0173098Y0102250D01*
X0173098Y0102549D01*
X0172944Y0103127D01*
X0172645Y0103645D01*
X0172222Y0104068D01*
X0171704Y0104367D01*
X0171126Y0104522D01*
X0170827Y0104522D01*
X0170827Y0102250D01*
X0170827Y0102250D01*
X0173098Y0102250D01*
X0173098Y0101951D01*
X0172944Y0101373D01*
X0172645Y0100855D01*
X0172222Y0100432D01*
X0171704Y0100133D01*
X0171126Y0099978D01*
X0170827Y0099978D01*
X0170827Y0102250D01*
X0170827Y0102250D01*
X0170827Y0102250D01*
X0170827Y0104522D01*
X0170528Y0104522D01*
X0169950Y0104367D01*
X0169432Y0104068D01*
X0169009Y0103645D01*
X0168635Y0102848D02*
X0050119Y0102848D01*
X0050119Y0101850D02*
X0168582Y0101850D01*
X0168555Y0101951D02*
X0168710Y0101373D01*
X0169009Y0100855D01*
X0169432Y0100432D01*
X0169950Y0100133D01*
X0170528Y0099978D01*
X0170827Y0099978D01*
X0170827Y0102250D01*
X0168555Y0102250D01*
X0168555Y0101951D01*
X0169013Y0100851D02*
X0050119Y0100851D01*
X0050119Y0099853D02*
X0226503Y0099853D01*
X0226616Y0098854D02*
X0050119Y0098854D01*
X0050256Y0097856D02*
X0226833Y0097856D01*
X0227159Y0096857D02*
X0153595Y0096857D01*
X0153269Y0096992D02*
X0150885Y0096992D01*
X0148683Y0096080D01*
X0146997Y0094394D01*
X0146085Y0092192D01*
X0146085Y0089808D01*
X0146997Y0087606D01*
X0148683Y0085920D01*
X0150885Y0085008D01*
X0153269Y0085008D01*
X0155471Y0085920D01*
X0157157Y0087606D01*
X0158069Y0089808D01*
X0158069Y0092192D01*
X0157157Y0094394D01*
X0155471Y0096080D01*
X0153269Y0096992D01*
X0155692Y0095859D02*
X0227603Y0095859D01*
X0228185Y0094860D02*
X0156691Y0094860D01*
X0157377Y0093862D02*
X0228936Y0093862D01*
X0229908Y0092863D02*
X0224259Y0092863D01*
X0224145Y0092976D02*
X0222508Y0092976D01*
X0221452Y0091920D01*
X0220395Y0092976D01*
X0218758Y0092976D01*
X0217600Y0091819D01*
X0217600Y0090181D01*
X0218085Y0089697D01*
X0218085Y0078553D01*
X0217600Y0078069D01*
X0217600Y0076431D01*
X0218758Y0075274D01*
X0220395Y0075274D01*
X0221553Y0076431D01*
X0221553Y0078069D01*
X0221069Y0078553D01*
X0221069Y0089697D01*
X0221452Y0090080D01*
X0221835Y0089697D01*
X0221835Y0077882D01*
X0222600Y0077116D01*
X0222600Y0076431D01*
X0223758Y0075274D01*
X0225395Y0075274D01*
X0226553Y0076431D01*
X0226553Y0078069D01*
X0225395Y0079226D01*
X0224819Y0079226D01*
X0224819Y0089697D01*
X0225303Y0090181D01*
X0225303Y0091819D01*
X0224145Y0092976D01*
X0225257Y0091865D02*
X0231267Y0091865D01*
X0233368Y0090866D02*
X0225303Y0090866D01*
X0224989Y0089868D02*
X0250085Y0089868D01*
X0249368Y0090866D02*
X0239920Y0090866D01*
X0242020Y0091865D02*
X0249116Y0091865D01*
X0249116Y0092863D02*
X0243379Y0092863D01*
X0244352Y0093862D02*
X0249116Y0093862D01*
X0249116Y0094860D02*
X0245102Y0094860D01*
X0245685Y0095859D02*
X0249116Y0095859D01*
X0249227Y0096857D02*
X0246129Y0096857D01*
X0246454Y0097856D02*
X0249745Y0097856D01*
X0250036Y0098854D02*
X0246672Y0098854D01*
X0246784Y0099853D02*
X0249347Y0099853D01*
X0249116Y0100851D02*
X0237144Y0100851D01*
X0237144Y0099853D02*
X0236144Y0099853D01*
X0236144Y0100851D02*
X0172641Y0100851D01*
X0173071Y0101850D02*
X0226589Y0101850D01*
X0226780Y0102848D02*
X0173018Y0102848D01*
X0172443Y0103847D02*
X0227077Y0103847D01*
X0236144Y0103847D02*
X0237144Y0103847D01*
X0237144Y0104845D02*
X0236144Y0104845D01*
X0236144Y0105844D02*
X0237144Y0105844D01*
X0237144Y0106842D02*
X0236144Y0106842D01*
X0236144Y0107841D02*
X0237144Y0107841D01*
X0237144Y0108839D02*
X0236144Y0108839D01*
X0236144Y0109838D02*
X0237144Y0109838D01*
X0240572Y0109838D02*
X0259862Y0109838D01*
X0259864Y0108839D02*
X0242391Y0108839D01*
X0243620Y0107841D02*
X0251350Y0107841D01*
X0252803Y0107841D02*
X0255579Y0107841D01*
X0256937Y0107841D02*
X0257217Y0107841D01*
X0257217Y0106842D02*
X0256937Y0106842D01*
X0256937Y0105844D02*
X0257217Y0105844D01*
X0257217Y0104845D02*
X0256937Y0104845D01*
X0256937Y0103847D02*
X0257217Y0103847D01*
X0257217Y0102848D02*
X0256937Y0102848D01*
X0256937Y0101850D02*
X0257217Y0101850D01*
X0257217Y0100860D02*
X0257217Y0097744D01*
X0257217Y0096140D01*
X0256937Y0096140D01*
X0256937Y0100860D01*
X0257217Y0100860D01*
X0257217Y0100851D02*
X0256937Y0100851D01*
X0256937Y0099853D02*
X0257217Y0099853D01*
X0257217Y0098854D02*
X0256937Y0098854D01*
X0256937Y0097856D02*
X0257217Y0097856D01*
X0257217Y0096857D02*
X0256937Y0096857D01*
X0256937Y0095859D02*
X0257217Y0095859D01*
X0257217Y0094860D02*
X0256937Y0094860D01*
X0256937Y0093862D02*
X0257217Y0093862D01*
X0257217Y0092863D02*
X0256937Y0092863D01*
X0256937Y0091865D02*
X0257217Y0091865D01*
X0257217Y0090866D02*
X0256937Y0090866D01*
X0256937Y0089868D02*
X0257217Y0089868D01*
X0257217Y0088869D02*
X0256937Y0088869D01*
X0256445Y0088869D02*
X0224819Y0088869D01*
X0224819Y0087870D02*
X0259906Y0087870D01*
X0259908Y0086872D02*
X0224819Y0086872D01*
X0224819Y0085873D02*
X0259909Y0085873D01*
X0259911Y0084875D02*
X0224819Y0084875D01*
X0224819Y0083876D02*
X0259913Y0083876D01*
X0259915Y0082878D02*
X0224819Y0082878D01*
X0224819Y0081879D02*
X0259917Y0081879D01*
X0259919Y0080881D02*
X0224819Y0080881D01*
X0224819Y0079882D02*
X0259921Y0079882D01*
X0259923Y0078884D02*
X0225738Y0078884D01*
X0226553Y0077885D02*
X0259925Y0077885D01*
X0259927Y0076887D02*
X0226553Y0076887D01*
X0226010Y0075888D02*
X0259929Y0075888D01*
X0259931Y0074890D02*
X0157079Y0074890D01*
X0158077Y0073891D02*
X0259933Y0073891D01*
X0259935Y0072893D02*
X0247092Y0072893D01*
X0247222Y0072818D02*
X0246704Y0073117D01*
X0246126Y0073272D01*
X0245827Y0073272D01*
X0245827Y0071000D01*
X0248098Y0071000D01*
X0248098Y0071299D01*
X0247944Y0071877D01*
X0247645Y0072395D01*
X0247222Y0072818D01*
X0247934Y0071894D02*
X0259937Y0071894D01*
X0259939Y0070896D02*
X0248098Y0070896D01*
X0248098Y0071000D02*
X0245827Y0071000D01*
X0245827Y0071000D01*
X0245827Y0068728D01*
X0246126Y0068728D01*
X0246704Y0068883D01*
X0247222Y0069182D01*
X0247645Y0069605D01*
X0247944Y0070123D01*
X0248098Y0070701D01*
X0248098Y0071000D01*
X0247813Y0069897D02*
X0259941Y0069897D01*
X0259943Y0068899D02*
X0246731Y0068899D01*
X0245827Y0068899D02*
X0245827Y0068899D01*
X0245827Y0068728D02*
X0245827Y0071000D01*
X0245827Y0071000D01*
X0245827Y0071000D01*
X0245827Y0073272D01*
X0245528Y0073272D01*
X0244950Y0073117D01*
X0244432Y0072818D01*
X0244009Y0072395D01*
X0243710Y0071877D01*
X0243555Y0071299D01*
X0243555Y0071000D01*
X0245827Y0071000D01*
X0243555Y0071000D01*
X0243555Y0070701D01*
X0243710Y0070123D01*
X0244009Y0069605D01*
X0244432Y0069182D01*
X0244950Y0068883D01*
X0245528Y0068728D01*
X0245827Y0068728D01*
X0244923Y0068899D02*
X0214670Y0068899D01*
X0214920Y0068648D02*
X0213977Y0069592D01*
X0212744Y0070102D01*
X0211410Y0070102D01*
X0210177Y0069592D01*
X0209233Y0068648D01*
X0208722Y0067415D01*
X0208722Y0066081D01*
X0209233Y0064848D01*
X0210177Y0063904D01*
X0211410Y0063394D01*
X0212744Y0063394D01*
X0213977Y0063904D01*
X0214920Y0064848D01*
X0215431Y0066081D01*
X0215431Y0067415D01*
X0214920Y0068648D01*
X0215230Y0067900D02*
X0259945Y0067900D01*
X0259947Y0066902D02*
X0215431Y0066902D01*
X0215358Y0065903D02*
X0259949Y0065903D01*
X0259951Y0064905D02*
X0214944Y0064905D01*
X0213979Y0063906D02*
X0259953Y0063906D01*
X0259955Y0062908D02*
X0126553Y0062908D01*
X0126553Y0063069D02*
X0125395Y0064226D01*
X0123758Y0064226D01*
X0122600Y0063069D01*
X0122600Y0062384D01*
X0115209Y0054992D01*
X0106459Y0054992D01*
X0105585Y0054118D01*
X0099294Y0047828D01*
X0099145Y0047976D01*
X0097508Y0047976D01*
X0096350Y0046819D01*
X0096350Y0045181D01*
X0097508Y0044024D01*
X0099145Y0044024D01*
X0099630Y0044508D01*
X0100195Y0044508D01*
X0107695Y0052008D01*
X0116445Y0052008D01*
X0124711Y0060274D01*
X0125395Y0060274D01*
X0126553Y0061431D01*
X0126553Y0063069D01*
X0126553Y0061909D02*
X0210639Y0061909D01*
X0210177Y0061718D02*
X0209233Y0060774D01*
X0208722Y0059541D01*
X0208722Y0058207D01*
X0209233Y0056974D01*
X0210177Y0056030D01*
X0211410Y0055520D01*
X0212744Y0055520D01*
X0213977Y0056030D01*
X0214920Y0056974D01*
X0215431Y0058207D01*
X0215431Y0059541D01*
X0214920Y0060774D01*
X0213977Y0061718D01*
X0212744Y0062228D01*
X0211410Y0062228D01*
X0210177Y0061718D01*
X0209370Y0060911D02*
X0126032Y0060911D01*
X0124349Y0059912D02*
X0208876Y0059912D01*
X0208722Y0058914D02*
X0123351Y0058914D01*
X0122352Y0057915D02*
X0208843Y0057915D01*
X0209290Y0056917D02*
X0121354Y0056917D01*
X0120355Y0055918D02*
X0210448Y0055918D01*
X0211410Y0054354D02*
X0210177Y0053844D01*
X0209233Y0052900D01*
X0208722Y0051667D01*
X0208722Y0050333D01*
X0209233Y0049100D01*
X0210177Y0048156D01*
X0211410Y0047646D01*
X0212744Y0047646D01*
X0213977Y0048156D01*
X0214920Y0049100D01*
X0215431Y0050333D01*
X0215431Y0051667D01*
X0214920Y0052900D01*
X0213977Y0053844D01*
X0212744Y0054354D01*
X0211410Y0054354D01*
X0210364Y0053921D02*
X0118358Y0053921D01*
X0117360Y0052923D02*
X0209256Y0052923D01*
X0208829Y0051924D02*
X0107611Y0051924D01*
X0106613Y0050926D02*
X0208722Y0050926D01*
X0208890Y0049927D02*
X0105614Y0049927D01*
X0104615Y0048929D02*
X0209404Y0048929D01*
X0210723Y0047930D02*
X0103617Y0047930D01*
X0102618Y0046932D02*
X0246423Y0046932D01*
X0246410Y0047833D02*
X0247744Y0047833D01*
X0248977Y0048343D01*
X0249920Y0049287D01*
X0250431Y0050520D01*
X0250431Y0051854D01*
X0249920Y0053087D01*
X0248977Y0054031D01*
X0247744Y0054541D01*
X0246410Y0054541D01*
X0245177Y0054031D01*
X0244233Y0053087D01*
X0243722Y0051854D01*
X0243722Y0050520D01*
X0244233Y0049287D01*
X0245177Y0048343D01*
X0246410Y0047833D01*
X0246175Y0047930D02*
X0213430Y0047930D01*
X0214749Y0048929D02*
X0244591Y0048929D01*
X0243968Y0049927D02*
X0215263Y0049927D01*
X0215431Y0050926D02*
X0243722Y0050926D01*
X0243751Y0051924D02*
X0215325Y0051924D01*
X0214898Y0052923D02*
X0244165Y0052923D01*
X0245067Y0053921D02*
X0213790Y0053921D01*
X0213706Y0055918D02*
X0245899Y0055918D01*
X0246410Y0055707D02*
X0245177Y0056217D01*
X0244233Y0057161D01*
X0243722Y0058394D01*
X0243722Y0059728D01*
X0244233Y0060961D01*
X0245177Y0061905D01*
X0246410Y0062415D01*
X0247744Y0062415D01*
X0248977Y0061905D01*
X0249920Y0060961D01*
X0250431Y0059728D01*
X0250431Y0058394D01*
X0249920Y0057161D01*
X0248977Y0056217D01*
X0247744Y0055707D01*
X0246410Y0055707D01*
X0248254Y0055918D02*
X0259968Y0055918D01*
X0259970Y0054920D02*
X0119357Y0054920D01*
X0117133Y0056917D02*
X0108706Y0056917D01*
X0108895Y0057105D02*
X0109194Y0057623D01*
X0109348Y0058201D01*
X0109348Y0058500D01*
X0109348Y0058799D01*
X0109194Y0059377D01*
X0108895Y0059895D01*
X0108472Y0060318D01*
X0107954Y0060617D01*
X0107376Y0060772D01*
X0107077Y0060772D01*
X0107077Y0058500D01*
X0109348Y0058500D01*
X0107077Y0058500D01*
X0107077Y0058500D01*
X0107077Y0056228D01*
X0107376Y0056228D01*
X0107954Y0056383D01*
X0108472Y0056682D01*
X0108895Y0057105D01*
X0109272Y0057915D02*
X0118132Y0057915D01*
X0119130Y0058914D02*
X0109318Y0058914D01*
X0108877Y0059912D02*
X0120129Y0059912D01*
X0121127Y0060911D02*
X0070119Y0060911D01*
X0070119Y0061909D02*
X0122126Y0061909D01*
X0122600Y0062908D02*
X0070119Y0062908D01*
X0070119Y0063906D02*
X0123438Y0063906D01*
X0124577Y0062250D02*
X0115827Y0053500D01*
X0107077Y0053500D01*
X0099577Y0046000D01*
X0098327Y0046000D01*
X0096350Y0045933D02*
X0070119Y0045933D01*
X0070119Y0044934D02*
X0096597Y0044934D01*
X0096463Y0046932D02*
X0070119Y0046932D01*
X0070119Y0047930D02*
X0097462Y0047930D01*
X0099192Y0047930D02*
X0099397Y0047930D01*
X0100395Y0048929D02*
X0070119Y0048929D01*
X0070119Y0049927D02*
X0101394Y0049927D01*
X0102392Y0050926D02*
X0070119Y0050926D01*
X0070119Y0051924D02*
X0103391Y0051924D01*
X0104389Y0052923D02*
X0070119Y0052923D01*
X0070119Y0053921D02*
X0105388Y0053921D01*
X0106386Y0054920D02*
X0070119Y0054920D01*
X0070119Y0055918D02*
X0116135Y0055918D01*
X0107077Y0056228D02*
X0107077Y0058500D01*
X0107077Y0058500D01*
X0107077Y0058500D01*
X0107077Y0060772D01*
X0106778Y0060772D01*
X0106200Y0060617D01*
X0105682Y0060318D01*
X0105259Y0059895D01*
X0104960Y0059377D01*
X0104805Y0058799D01*
X0104805Y0058500D01*
X0107077Y0058500D01*
X0104805Y0058500D01*
X0104805Y0058201D01*
X0104960Y0057623D01*
X0105259Y0057105D01*
X0105682Y0056682D01*
X0106200Y0056383D01*
X0106778Y0056228D01*
X0107077Y0056228D01*
X0107077Y0056917D02*
X0107077Y0056917D01*
X0107077Y0057915D02*
X0107077Y0057915D01*
X0107077Y0058500D02*
X0107077Y0058500D01*
X0107077Y0058914D02*
X0107077Y0058914D01*
X0107077Y0059912D02*
X0107077Y0059912D01*
X0105276Y0059912D02*
X0088877Y0059912D01*
X0088895Y0059895D02*
X0088472Y0060318D01*
X0087954Y0060617D01*
X0087376Y0060772D01*
X0087077Y0060772D01*
X0087077Y0058500D01*
X0089348Y0058500D01*
X0089348Y0058799D01*
X0089194Y0059377D01*
X0088895Y0059895D01*
X0089318Y0058914D02*
X0104836Y0058914D01*
X0104882Y0057915D02*
X0089272Y0057915D01*
X0089348Y0058201D02*
X0089194Y0057623D01*
X0088895Y0057105D01*
X0088472Y0056682D01*
X0087954Y0056383D01*
X0087376Y0056228D01*
X0087077Y0056228D01*
X0087077Y0058500D01*
X0087077Y0058500D01*
X0089348Y0058500D01*
X0089348Y0058201D01*
X0088706Y0056917D02*
X0105448Y0056917D01*
X0101620Y0045933D02*
X0209945Y0045933D01*
X0209046Y0044934D02*
X0100621Y0044934D01*
X0100528Y0039522D02*
X0099950Y0039367D01*
X0099432Y0039068D01*
X0099009Y0038645D01*
X0098710Y0038127D01*
X0098555Y0037549D01*
X0098555Y0037250D01*
X0100827Y0037250D01*
X0103098Y0037250D01*
X0103098Y0037549D01*
X0102944Y0038127D01*
X0102645Y0038645D01*
X0102222Y0039068D01*
X0101704Y0039367D01*
X0101126Y0039522D01*
X0100827Y0039522D01*
X0100827Y0037250D01*
X0100827Y0037250D01*
X0103098Y0037250D01*
X0103098Y0036951D01*
X0102944Y0036373D01*
X0102645Y0035855D01*
X0102222Y0035432D01*
X0101704Y0035133D01*
X0101126Y0034978D01*
X0100827Y0034978D01*
X0100827Y0037250D01*
X0100827Y0037250D01*
X0100827Y0037250D01*
X0100827Y0039522D01*
X0100528Y0039522D01*
X0100827Y0038943D02*
X0100827Y0038943D01*
X0100827Y0037945D02*
X0100827Y0037945D01*
X0100827Y0037250D02*
X0100827Y0037250D01*
X0100827Y0034978D01*
X0100528Y0034978D01*
X0099950Y0035133D01*
X0099432Y0035432D01*
X0099009Y0035855D01*
X0098710Y0036373D01*
X0098555Y0036951D01*
X0098555Y0037250D01*
X0100827Y0037250D01*
X0100827Y0036946D02*
X0100827Y0036946D01*
X0100827Y0035948D02*
X0100827Y0035948D01*
X0102698Y0035948D02*
X0208427Y0035948D01*
X0208427Y0035539D02*
X0208427Y0037784D01*
X0208515Y0038111D01*
X0208684Y0038405D01*
X0208924Y0038644D01*
X0209218Y0038814D01*
X0209545Y0038902D01*
X0211789Y0038902D01*
X0211789Y0035539D01*
X0211789Y0034965D01*
X0208427Y0034965D01*
X0208427Y0032720D01*
X0208515Y0032393D01*
X0208684Y0032099D01*
X0208924Y0031860D01*
X0209218Y0031690D01*
X0209545Y0031602D01*
X0211789Y0031602D01*
X0211789Y0034964D01*
X0212364Y0034964D01*
X0212364Y0031602D01*
X0214608Y0031602D01*
X0214936Y0031690D01*
X0215229Y0031860D01*
X0215469Y0032099D01*
X0215639Y0032393D01*
X0215726Y0032720D01*
X0215726Y0034965D01*
X0212364Y0034965D01*
X0212364Y0035539D01*
X0215726Y0035539D01*
X0215726Y0037784D01*
X0215639Y0038111D01*
X0215469Y0038405D01*
X0215229Y0038644D01*
X0214936Y0038814D01*
X0214608Y0038902D01*
X0212364Y0038902D01*
X0212364Y0035539D01*
X0211789Y0035539D01*
X0208427Y0035539D01*
X0208427Y0034949D02*
X0070119Y0034949D01*
X0070119Y0033951D02*
X0208427Y0033951D01*
X0208427Y0032952D02*
X0070119Y0032952D01*
X0070119Y0031954D02*
X0208830Y0031954D01*
X0211789Y0031954D02*
X0212364Y0031954D01*
X0212364Y0032952D02*
X0211789Y0032952D01*
X0211789Y0033951D02*
X0212364Y0033951D01*
X0212364Y0034949D02*
X0211789Y0034949D01*
X0211789Y0035948D02*
X0212364Y0035948D01*
X0212364Y0036946D02*
X0211789Y0036946D01*
X0211789Y0037945D02*
X0212364Y0037945D01*
X0210638Y0039942D02*
X0070119Y0039942D01*
X0070119Y0040940D02*
X0209324Y0040940D01*
X0208789Y0041939D02*
X0070119Y0041939D01*
X0070119Y0042937D02*
X0208585Y0042937D01*
X0208632Y0043936D02*
X0070119Y0043936D01*
X0066535Y0043936D02*
X0054295Y0043936D01*
X0054204Y0043883D02*
X0054722Y0044182D01*
X0055145Y0044605D01*
X0055444Y0045123D01*
X0055598Y0045701D01*
X0055598Y0046000D01*
X0055598Y0046299D01*
X0055444Y0046877D01*
X0055145Y0047395D01*
X0054722Y0047818D01*
X0054204Y0048117D01*
X0053626Y0048272D01*
X0053327Y0048272D01*
X0053327Y0046000D01*
X0055598Y0046000D01*
X0053327Y0046000D01*
X0053327Y0046000D01*
X0053327Y0043728D01*
X0053626Y0043728D01*
X0054204Y0043883D01*
X0053327Y0043936D02*
X0053327Y0043936D01*
X0053327Y0043728D02*
X0053327Y0046000D01*
X0053327Y0046000D01*
X0053327Y0046000D01*
X0053327Y0048272D01*
X0053028Y0048272D01*
X0052450Y0048117D01*
X0051932Y0047818D01*
X0051509Y0047395D01*
X0051210Y0046877D01*
X0051055Y0046299D01*
X0051055Y0046000D01*
X0053327Y0046000D01*
X0051055Y0046000D01*
X0051055Y0045701D01*
X0051210Y0045123D01*
X0051509Y0044605D01*
X0051932Y0044182D01*
X0052450Y0043883D01*
X0053028Y0043728D01*
X0053327Y0043728D01*
X0052358Y0043936D02*
X0039757Y0043936D01*
X0040637Y0044301D02*
X0037516Y0043008D01*
X0034138Y0043008D01*
X0031016Y0044301D01*
X0028627Y0046690D01*
X0027335Y0049811D01*
X0027335Y0053189D01*
X0028627Y0056310D01*
X0031016Y0058699D01*
X0034138Y0059992D01*
X0037516Y0059992D01*
X0040637Y0058699D01*
X0043026Y0056310D01*
X0044319Y0053189D01*
X0044319Y0049811D01*
X0043026Y0046690D01*
X0040637Y0044301D01*
X0041271Y0044934D02*
X0051319Y0044934D01*
X0051055Y0045933D02*
X0042269Y0045933D01*
X0043126Y0046932D02*
X0051242Y0046932D01*
X0052126Y0047930D02*
X0043540Y0047930D01*
X0043953Y0048929D02*
X0066535Y0048929D01*
X0066535Y0049927D02*
X0044319Y0049927D01*
X0044319Y0050926D02*
X0066535Y0050926D01*
X0066535Y0051924D02*
X0044319Y0051924D01*
X0044319Y0052923D02*
X0066535Y0052923D01*
X0066535Y0053921D02*
X0044016Y0053921D01*
X0043602Y0054920D02*
X0066535Y0054920D01*
X0066535Y0055918D02*
X0043189Y0055918D01*
X0042420Y0056917D02*
X0066535Y0056917D01*
X0066535Y0057915D02*
X0041421Y0057915D01*
X0040120Y0058914D02*
X0066535Y0058914D01*
X0066535Y0059912D02*
X0037709Y0059912D01*
X0033945Y0059912D02*
X0004545Y0059912D01*
X0004545Y0058914D02*
X0031534Y0058914D01*
X0030232Y0057915D02*
X0004545Y0057915D01*
X0004545Y0056917D02*
X0029234Y0056917D01*
X0028465Y0055918D02*
X0004545Y0055918D01*
X0004545Y0054920D02*
X0028051Y0054920D01*
X0027638Y0053921D02*
X0004545Y0053921D01*
X0004545Y0052923D02*
X0027335Y0052923D01*
X0027335Y0051924D02*
X0004545Y0051924D01*
X0004545Y0050926D02*
X0027335Y0050926D01*
X0027335Y0049927D02*
X0004545Y0049927D01*
X0004545Y0048929D02*
X0027700Y0048929D01*
X0028114Y0047930D02*
X0004545Y0047930D01*
X0004545Y0046932D02*
X0028527Y0046932D01*
X0029384Y0045933D02*
X0004545Y0045933D01*
X0004545Y0044934D02*
X0030383Y0044934D01*
X0031897Y0043936D02*
X0004545Y0043936D01*
X0004545Y0042937D02*
X0066535Y0042937D01*
X0066535Y0041939D02*
X0004545Y0041939D01*
X0004545Y0040940D02*
X0066535Y0040940D01*
X0066535Y0039942D02*
X0004545Y0039942D01*
X0004545Y0038943D02*
X0066535Y0038943D01*
X0066535Y0037945D02*
X0004545Y0037945D01*
X0004545Y0036946D02*
X0066535Y0036946D01*
X0066535Y0035948D02*
X0004545Y0035948D01*
X0004545Y0034949D02*
X0066535Y0034949D01*
X0066535Y0033951D02*
X0004545Y0033951D01*
X0004545Y0032952D02*
X0066535Y0032952D01*
X0066535Y0031954D02*
X0004545Y0031954D01*
X0004545Y0030955D02*
X0066535Y0030955D01*
X0066535Y0029957D02*
X0004545Y0029957D01*
X0004545Y0028958D02*
X0066535Y0028958D01*
X0066535Y0027960D02*
X0004545Y0027960D01*
X0004545Y0026961D02*
X0067331Y0026961D01*
X0068330Y0025963D02*
X0004545Y0025963D01*
X0004545Y0024964D02*
X0260029Y0024964D01*
X0260031Y0023966D02*
X0004545Y0023966D01*
X0019096Y0021969D02*
X0240963Y0021969D01*
X0239247Y0020970D02*
X0020812Y0020970D01*
X0021811Y0019972D02*
X0238248Y0019972D01*
X0237409Y0018973D02*
X0022651Y0018973D01*
X0023064Y0017975D02*
X0236995Y0017975D01*
X0236581Y0016976D02*
X0023478Y0016976D01*
X0023738Y0015978D02*
X0236321Y0015978D01*
X0236321Y0014979D02*
X0098810Y0014979D01*
X0098895Y0014895D02*
X0098472Y0015318D01*
X0097954Y0015617D01*
X0097376Y0015772D01*
X0097077Y0015772D01*
X0097077Y0013500D01*
X0099348Y0013500D01*
X0099348Y0013799D01*
X0099194Y0014377D01*
X0098895Y0014895D01*
X0099300Y0013981D02*
X0236321Y0013981D01*
X0236416Y0012982D02*
X0099290Y0012982D01*
X0099348Y0013201D02*
X0099348Y0013500D01*
X0097077Y0013500D01*
X0097077Y0013500D01*
X0097077Y0011228D01*
X0097376Y0011228D01*
X0097954Y0011383D01*
X0098472Y0011682D01*
X0098895Y0012105D01*
X0099194Y0012623D01*
X0099348Y0013201D01*
X0098773Y0011984D02*
X0236830Y0011984D01*
X0237243Y0010985D02*
X0022816Y0010985D01*
X0023229Y0011984D02*
X0095381Y0011984D01*
X0095259Y0012105D02*
X0095682Y0011682D01*
X0096200Y0011383D01*
X0096778Y0011228D01*
X0097077Y0011228D01*
X0097077Y0013500D01*
X0097077Y0013500D01*
X0097077Y0013500D01*
X0097077Y0015772D01*
X0096778Y0015772D01*
X0096200Y0015617D01*
X0095682Y0015318D01*
X0095259Y0014895D01*
X0094960Y0014377D01*
X0094805Y0013799D01*
X0094805Y0013500D01*
X0097077Y0013500D01*
X0094805Y0013500D01*
X0094805Y0013201D01*
X0094960Y0012623D01*
X0095259Y0012105D01*
X0094864Y0012982D02*
X0023643Y0012982D01*
X0023738Y0013981D02*
X0094854Y0013981D01*
X0095343Y0014979D02*
X0023738Y0014979D01*
X0022210Y0009987D02*
X0237849Y0009987D01*
X0238848Y0008988D02*
X0021212Y0008988D01*
X0020060Y0007990D02*
X0239999Y0007990D01*
X0242409Y0006991D02*
X0017650Y0006991D01*
X0070119Y0029957D02*
X0260020Y0029957D01*
X0260018Y0030955D02*
X0070119Y0030955D01*
X0070119Y0035948D02*
X0098955Y0035948D01*
X0098556Y0036946D02*
X0070119Y0036946D01*
X0070119Y0037945D02*
X0098661Y0037945D01*
X0099308Y0038943D02*
X0070119Y0038943D01*
X0066535Y0044934D02*
X0055335Y0044934D01*
X0055598Y0045933D02*
X0066535Y0045933D01*
X0066535Y0046932D02*
X0055412Y0046932D01*
X0054527Y0047930D02*
X0066535Y0047930D01*
X0070119Y0056917D02*
X0085448Y0056917D01*
X0085259Y0057105D02*
X0085682Y0056682D01*
X0086200Y0056383D01*
X0086778Y0056228D01*
X0087077Y0056228D01*
X0087077Y0058500D01*
X0087077Y0058500D01*
X0087077Y0058500D01*
X0087077Y0060772D01*
X0086778Y0060772D01*
X0086200Y0060617D01*
X0085682Y0060318D01*
X0085259Y0059895D01*
X0084960Y0059377D01*
X0084805Y0058799D01*
X0084805Y0058500D01*
X0087077Y0058500D01*
X0084805Y0058500D01*
X0084805Y0058201D01*
X0084960Y0057623D01*
X0085259Y0057105D01*
X0084882Y0057915D02*
X0070119Y0057915D01*
X0070119Y0058914D02*
X0084836Y0058914D01*
X0085276Y0059912D02*
X0070119Y0059912D01*
X0066535Y0060911D02*
X0004545Y0060911D01*
X0004545Y0061909D02*
X0066535Y0061909D01*
X0066535Y0062908D02*
X0004545Y0062908D01*
X0004545Y0063906D02*
X0066535Y0063906D01*
X0066535Y0064905D02*
X0004545Y0064905D01*
X0004545Y0065903D02*
X0066535Y0065903D01*
X0066535Y0066902D02*
X0046191Y0066902D01*
X0046395Y0067105D02*
X0045972Y0066682D01*
X0045454Y0066383D01*
X0044876Y0066228D01*
X0044577Y0066228D01*
X0044577Y0068500D01*
X0046848Y0068500D01*
X0046848Y0068799D01*
X0046694Y0069377D01*
X0046395Y0069895D01*
X0045972Y0070318D01*
X0045454Y0070617D01*
X0044876Y0070772D01*
X0044577Y0070772D01*
X0044577Y0068500D01*
X0044577Y0068500D01*
X0046848Y0068500D01*
X0046848Y0068201D01*
X0046694Y0067623D01*
X0046395Y0067105D01*
X0046768Y0067900D02*
X0066535Y0067900D01*
X0066535Y0068899D02*
X0046822Y0068899D01*
X0046392Y0069897D02*
X0066535Y0069897D01*
X0066535Y0070896D02*
X0004545Y0070896D01*
X0004545Y0071894D02*
X0066535Y0071894D01*
X0066535Y0072893D02*
X0004545Y0072893D01*
X0004545Y0073891D02*
X0066535Y0073891D01*
X0066535Y0074890D02*
X0004545Y0074890D01*
X0004545Y0075888D02*
X0066535Y0075888D01*
X0066535Y0076887D02*
X0004545Y0076887D01*
X0004545Y0077885D02*
X0066535Y0077885D01*
X0066535Y0078884D02*
X0004545Y0078884D01*
X0004545Y0079882D02*
X0066535Y0079882D01*
X0066535Y0080881D02*
X0038417Y0080881D01*
X0037516Y0080508D02*
X0040637Y0081801D01*
X0043026Y0084190D01*
X0044319Y0087311D01*
X0044319Y0090689D01*
X0043026Y0093810D01*
X0040637Y0096199D01*
X0037516Y0097492D01*
X0034138Y0097492D01*
X0031016Y0096199D01*
X0028627Y0093810D01*
X0027335Y0090689D01*
X0027335Y0087311D01*
X0028627Y0084190D01*
X0031016Y0081801D01*
X0034138Y0080508D01*
X0037516Y0080508D01*
X0040716Y0081879D02*
X0066535Y0081879D01*
X0066535Y0082878D02*
X0041714Y0082878D01*
X0042713Y0083876D02*
X0066535Y0083876D01*
X0066535Y0084875D02*
X0043310Y0084875D01*
X0043724Y0085873D02*
X0051498Y0085873D01*
X0051509Y0085855D02*
X0051932Y0085432D01*
X0052450Y0085133D01*
X0053028Y0084978D01*
X0053327Y0084978D01*
X0053626Y0084978D01*
X0054204Y0085133D01*
X0054722Y0085432D01*
X0055145Y0085855D01*
X0055444Y0086373D01*
X0055598Y0086951D01*
X0055598Y0087250D01*
X0055598Y0087549D01*
X0055444Y0088127D01*
X0055145Y0088645D01*
X0054722Y0089068D01*
X0054204Y0089367D01*
X0053626Y0089522D01*
X0053327Y0089522D01*
X0053327Y0087250D01*
X0055598Y0087250D01*
X0053327Y0087250D01*
X0053327Y0087250D01*
X0053327Y0084978D01*
X0053327Y0087250D01*
X0053327Y0087250D01*
X0053327Y0087250D01*
X0053327Y0089522D01*
X0053028Y0089522D01*
X0052450Y0089367D01*
X0051932Y0089068D01*
X0051509Y0088645D01*
X0051210Y0088127D01*
X0051055Y0087549D01*
X0051055Y0087250D01*
X0053327Y0087250D01*
X0051055Y0087250D01*
X0051055Y0086951D01*
X0051210Y0086373D01*
X0051509Y0085855D01*
X0051076Y0086872D02*
X0044137Y0086872D01*
X0044319Y0087870D02*
X0051141Y0087870D01*
X0051733Y0088869D02*
X0044319Y0088869D01*
X0044319Y0089868D02*
X0064425Y0089868D01*
X0065423Y0088869D02*
X0054920Y0088869D01*
X0055512Y0087870D02*
X0066422Y0087870D01*
X0066535Y0086872D02*
X0055577Y0086872D01*
X0055155Y0085873D02*
X0066535Y0085873D01*
X0070119Y0085873D02*
X0148795Y0085873D01*
X0147731Y0086872D02*
X0070119Y0086872D01*
X0070119Y0087870D02*
X0146887Y0087870D01*
X0146474Y0088869D02*
X0070119Y0088869D01*
X0069494Y0089868D02*
X0146085Y0089868D01*
X0146085Y0090866D02*
X0068495Y0090866D01*
X0067497Y0091865D02*
X0146085Y0091865D01*
X0146363Y0092863D02*
X0066498Y0092863D01*
X0065500Y0093862D02*
X0146776Y0093862D01*
X0147463Y0094860D02*
X0053251Y0094860D01*
X0052253Y0095859D02*
X0148461Y0095859D01*
X0150559Y0096857D02*
X0051254Y0096857D01*
X0049181Y0093862D02*
X0042975Y0093862D01*
X0043418Y0092863D02*
X0050179Y0092863D01*
X0051178Y0091865D02*
X0043832Y0091865D01*
X0044246Y0090866D02*
X0052176Y0090866D01*
X0053327Y0088869D02*
X0053327Y0088869D01*
X0053327Y0087870D02*
X0053327Y0087870D01*
X0053327Y0087250D02*
X0053327Y0087250D01*
X0053327Y0086872D02*
X0053327Y0086872D01*
X0053327Y0085873D02*
X0053327Y0085873D01*
X0048182Y0094860D02*
X0041976Y0094860D01*
X0040978Y0095859D02*
X0047184Y0095859D01*
X0046535Y0096857D02*
X0039049Y0096857D01*
X0032604Y0096857D02*
X0004545Y0096857D01*
X0004545Y0095859D02*
X0030676Y0095859D01*
X0029677Y0094860D02*
X0004545Y0094860D01*
X0004545Y0093862D02*
X0028679Y0093862D01*
X0028235Y0092863D02*
X0004545Y0092863D01*
X0004545Y0091865D02*
X0027821Y0091865D01*
X0027408Y0090866D02*
X0004545Y0090866D01*
X0004545Y0089868D02*
X0027335Y0089868D01*
X0027335Y0088869D02*
X0004545Y0088869D01*
X0004545Y0087870D02*
X0027335Y0087870D01*
X0027516Y0086872D02*
X0004545Y0086872D01*
X0004545Y0085873D02*
X0027930Y0085873D01*
X0028344Y0084875D02*
X0004545Y0084875D01*
X0004545Y0083876D02*
X0028941Y0083876D01*
X0029939Y0082878D02*
X0004545Y0082878D01*
X0004545Y0081879D02*
X0030938Y0081879D01*
X0033237Y0080881D02*
X0004545Y0080881D01*
X0004545Y0069897D02*
X0042761Y0069897D01*
X0042759Y0069895D02*
X0042460Y0069377D01*
X0042305Y0068799D01*
X0042305Y0068500D01*
X0044577Y0068500D01*
X0044577Y0068500D01*
X0044577Y0068500D01*
X0044577Y0070772D01*
X0044278Y0070772D01*
X0043700Y0070617D01*
X0043182Y0070318D01*
X0042759Y0069895D01*
X0042332Y0068899D02*
X0004545Y0068899D01*
X0004545Y0067900D02*
X0042386Y0067900D01*
X0042460Y0067623D02*
X0042759Y0067105D01*
X0043182Y0066682D01*
X0043700Y0066383D01*
X0044278Y0066228D01*
X0044577Y0066228D01*
X0044577Y0068500D01*
X0042305Y0068500D01*
X0042305Y0068201D01*
X0042460Y0067623D01*
X0042962Y0066902D02*
X0004545Y0066902D01*
X0044577Y0066902D02*
X0044577Y0066902D01*
X0044577Y0067900D02*
X0044577Y0067900D01*
X0044577Y0068500D02*
X0044577Y0068500D01*
X0044577Y0068899D02*
X0044577Y0068899D01*
X0044577Y0069897D02*
X0044577Y0069897D01*
X0070119Y0069897D02*
X0145789Y0069897D01*
X0145789Y0070500D02*
X0145789Y0068396D01*
X0149472Y0064713D01*
X0151577Y0064713D01*
X0151577Y0070500D01*
X0152577Y0070500D01*
X0152577Y0071500D01*
X0158364Y0071500D01*
X0158364Y0073604D01*
X0154681Y0077287D01*
X0152577Y0077287D01*
X0152577Y0071500D01*
X0151577Y0071500D01*
X0151577Y0077287D01*
X0149472Y0077287D01*
X0145789Y0073604D01*
X0145789Y0071500D01*
X0151577Y0071500D01*
X0151577Y0070500D01*
X0145789Y0070500D01*
X0145789Y0071894D02*
X0118684Y0071894D01*
X0118895Y0072105D02*
X0119194Y0072623D01*
X0119348Y0073201D01*
X0119348Y0073500D01*
X0119348Y0073799D01*
X0119194Y0074377D01*
X0118895Y0074895D01*
X0118472Y0075318D01*
X0117954Y0075617D01*
X0117376Y0075772D01*
X0117077Y0075772D01*
X0117077Y0073500D01*
X0119348Y0073500D01*
X0117077Y0073500D01*
X0117077Y0073500D01*
X0117077Y0071228D01*
X0117376Y0071228D01*
X0117954Y0071383D01*
X0118472Y0071682D01*
X0118895Y0072105D01*
X0119266Y0072893D02*
X0145789Y0072893D01*
X0146076Y0073891D02*
X0119324Y0073891D01*
X0118897Y0074890D02*
X0147075Y0074890D01*
X0148073Y0075888D02*
X0070119Y0075888D01*
X0070119Y0074890D02*
X0115256Y0074890D01*
X0115259Y0074895D02*
X0114960Y0074377D01*
X0114805Y0073799D01*
X0114805Y0073500D01*
X0117077Y0073500D01*
X0117077Y0073500D01*
X0117077Y0073500D01*
X0117077Y0075772D01*
X0116778Y0075772D01*
X0116200Y0075617D01*
X0115682Y0075318D01*
X0115259Y0074895D01*
X0114830Y0073891D02*
X0070119Y0073891D01*
X0070119Y0072893D02*
X0114888Y0072893D01*
X0114960Y0072623D02*
X0115259Y0072105D01*
X0115682Y0071682D01*
X0116200Y0071383D01*
X0116778Y0071228D01*
X0117077Y0071228D01*
X0117077Y0073500D01*
X0114805Y0073500D01*
X0114805Y0073201D01*
X0114960Y0072623D01*
X0115470Y0071894D02*
X0070119Y0071894D01*
X0070119Y0070896D02*
X0151577Y0070896D01*
X0151577Y0071894D02*
X0152577Y0071894D01*
X0152577Y0070896D02*
X0243555Y0070896D01*
X0243720Y0071894D02*
X0158364Y0071894D01*
X0158364Y0072893D02*
X0244562Y0072893D01*
X0245827Y0072893D02*
X0245827Y0072893D01*
X0245827Y0071894D02*
X0245827Y0071894D01*
X0245827Y0071000D02*
X0245827Y0071000D01*
X0245827Y0070896D02*
X0245827Y0070896D01*
X0245827Y0069897D02*
X0245827Y0069897D01*
X0243840Y0069897D02*
X0213239Y0069897D01*
X0210914Y0069897D02*
X0158364Y0069897D01*
X0158364Y0070500D02*
X0152577Y0070500D01*
X0152577Y0064713D01*
X0154681Y0064713D01*
X0158364Y0068396D01*
X0158364Y0070500D01*
X0158364Y0068899D02*
X0209484Y0068899D01*
X0208923Y0067900D02*
X0157869Y0067900D01*
X0156870Y0066902D02*
X0208722Y0066902D01*
X0208796Y0065903D02*
X0155872Y0065903D01*
X0154873Y0064905D02*
X0209210Y0064905D01*
X0210175Y0063906D02*
X0125716Y0063906D01*
X0117077Y0071894D02*
X0117077Y0071894D01*
X0117077Y0072893D02*
X0117077Y0072893D01*
X0117077Y0073500D02*
X0117077Y0073500D01*
X0117077Y0073891D02*
X0117077Y0073891D01*
X0117077Y0074890D02*
X0117077Y0074890D01*
X0112645Y0079605D02*
X0112944Y0080123D01*
X0113098Y0080701D01*
X0113098Y0081000D01*
X0113098Y0081299D01*
X0112944Y0081877D01*
X0112645Y0082395D01*
X0112222Y0082818D01*
X0111704Y0083117D01*
X0111126Y0083272D01*
X0110827Y0083272D01*
X0110827Y0081000D01*
X0113098Y0081000D01*
X0110827Y0081000D01*
X0110827Y0081000D01*
X0110827Y0078728D01*
X0111126Y0078728D01*
X0111704Y0078883D01*
X0112222Y0079182D01*
X0112645Y0079605D01*
X0112805Y0079882D02*
X0123849Y0079882D01*
X0123710Y0080123D02*
X0124009Y0079605D01*
X0124432Y0079182D01*
X0124950Y0078883D01*
X0125528Y0078728D01*
X0125827Y0078728D01*
X0126126Y0078728D01*
X0126704Y0078883D01*
X0127222Y0079182D01*
X0127645Y0079605D01*
X0127944Y0080123D01*
X0128098Y0080701D01*
X0128098Y0081000D01*
X0128098Y0081299D01*
X0127944Y0081877D01*
X0127645Y0082395D01*
X0127222Y0082818D01*
X0126704Y0083117D01*
X0126126Y0083272D01*
X0125827Y0083272D01*
X0125827Y0081000D01*
X0128098Y0081000D01*
X0125827Y0081000D01*
X0125827Y0081000D01*
X0125827Y0078728D01*
X0125827Y0081000D01*
X0125827Y0081000D01*
X0125827Y0081000D01*
X0125827Y0083272D01*
X0125528Y0083272D01*
X0124950Y0083117D01*
X0124432Y0082818D01*
X0124009Y0082395D01*
X0123710Y0081877D01*
X0123555Y0081299D01*
X0123555Y0081000D01*
X0125827Y0081000D01*
X0123555Y0081000D01*
X0123555Y0080701D01*
X0123710Y0080123D01*
X0123555Y0080881D02*
X0113098Y0080881D01*
X0112942Y0081879D02*
X0123711Y0081879D01*
X0124536Y0082878D02*
X0112117Y0082878D01*
X0110827Y0082878D02*
X0110827Y0082878D01*
X0110827Y0083272D02*
X0110528Y0083272D01*
X0109950Y0083117D01*
X0109432Y0082818D01*
X0109009Y0082395D01*
X0108710Y0081877D01*
X0108555Y0081299D01*
X0108555Y0081000D01*
X0110827Y0081000D01*
X0110827Y0081000D01*
X0110827Y0081000D01*
X0110827Y0083272D01*
X0109536Y0082878D02*
X0097117Y0082878D01*
X0097222Y0082818D02*
X0096704Y0083117D01*
X0096126Y0083272D01*
X0095827Y0083272D01*
X0095827Y0081000D01*
X0098098Y0081000D01*
X0098098Y0081299D01*
X0097944Y0081877D01*
X0097645Y0082395D01*
X0097222Y0082818D01*
X0097942Y0081879D02*
X0108711Y0081879D01*
X0108555Y0081000D02*
X0108555Y0080701D01*
X0108710Y0080123D01*
X0109009Y0079605D01*
X0109432Y0079182D01*
X0109950Y0078883D01*
X0110528Y0078728D01*
X0110827Y0078728D01*
X0110827Y0081000D01*
X0108555Y0081000D01*
X0108555Y0080881D02*
X0098098Y0080881D01*
X0098098Y0081000D02*
X0095827Y0081000D01*
X0095827Y0081000D01*
X0095827Y0078728D01*
X0096126Y0078728D01*
X0096704Y0078883D01*
X0097222Y0079182D01*
X0097645Y0079605D01*
X0097944Y0080123D01*
X0098098Y0080701D01*
X0098098Y0081000D01*
X0097805Y0079882D02*
X0108849Y0079882D01*
X0109949Y0078884D02*
X0096705Y0078884D01*
X0095827Y0078884D02*
X0095827Y0078884D01*
X0095827Y0078728D02*
X0095827Y0081000D01*
X0095827Y0081000D01*
X0095827Y0081000D01*
X0095827Y0083272D01*
X0095528Y0083272D01*
X0094950Y0083117D01*
X0094432Y0082818D01*
X0094009Y0082395D01*
X0093710Y0081877D01*
X0093555Y0081299D01*
X0093555Y0081000D01*
X0095827Y0081000D01*
X0093555Y0081000D01*
X0093555Y0080701D01*
X0093710Y0080123D01*
X0094009Y0079605D01*
X0094432Y0079182D01*
X0094950Y0078883D01*
X0095528Y0078728D01*
X0095827Y0078728D01*
X0094949Y0078884D02*
X0070119Y0078884D01*
X0070119Y0079882D02*
X0093849Y0079882D01*
X0093555Y0080881D02*
X0070119Y0080881D01*
X0070119Y0081879D02*
X0093711Y0081879D01*
X0094536Y0082878D02*
X0070119Y0082878D01*
X0070119Y0083876D02*
X0207090Y0083876D01*
X0208089Y0082878D02*
X0127117Y0082878D01*
X0125827Y0082878D02*
X0125827Y0082878D01*
X0125827Y0081879D02*
X0125827Y0081879D01*
X0125827Y0081000D02*
X0125827Y0081000D01*
X0125827Y0080881D02*
X0125827Y0080881D01*
X0125827Y0079882D02*
X0125827Y0079882D01*
X0125827Y0078884D02*
X0125827Y0078884D01*
X0126705Y0078884D02*
X0211398Y0078884D01*
X0211350Y0078931D02*
X0212508Y0077774D01*
X0214145Y0077774D01*
X0215303Y0078931D01*
X0215303Y0080569D01*
X0214145Y0081726D01*
X0213461Y0081726D01*
X0206069Y0089118D01*
X0206069Y0089697D01*
X0206553Y0090181D01*
X0206553Y0091819D01*
X0205395Y0092976D01*
X0203758Y0092976D01*
X0202600Y0091819D01*
X0202600Y0090181D01*
X0203085Y0089697D01*
X0203085Y0087882D01*
X0211350Y0079616D01*
X0211350Y0078931D01*
X0211084Y0079882D02*
X0127805Y0079882D01*
X0128098Y0080881D02*
X0210086Y0080881D01*
X0209087Y0081879D02*
X0127942Y0081879D01*
X0124949Y0078884D02*
X0111705Y0078884D01*
X0110827Y0078884D02*
X0110827Y0078884D01*
X0110827Y0079882D02*
X0110827Y0079882D01*
X0110827Y0080881D02*
X0110827Y0080881D01*
X0110827Y0081000D02*
X0110827Y0081000D01*
X0110827Y0081879D02*
X0110827Y0081879D01*
X0095827Y0081879D02*
X0095827Y0081879D01*
X0095827Y0081000D02*
X0095827Y0081000D01*
X0095827Y0080881D02*
X0095827Y0080881D01*
X0095827Y0079882D02*
X0095827Y0079882D01*
X0095827Y0082878D02*
X0095827Y0082878D01*
X0070119Y0084875D02*
X0206092Y0084875D01*
X0205093Y0085873D02*
X0155358Y0085873D01*
X0156423Y0086872D02*
X0204095Y0086872D01*
X0203096Y0087870D02*
X0157266Y0087870D01*
X0157680Y0088869D02*
X0203085Y0088869D01*
X0202914Y0089868D02*
X0158069Y0089868D01*
X0158069Y0090866D02*
X0202600Y0090866D01*
X0202646Y0091865D02*
X0158069Y0091865D01*
X0157791Y0092863D02*
X0203645Y0092863D01*
X0205509Y0092863D02*
X0218645Y0092863D01*
X0217646Y0091865D02*
X0206507Y0091865D01*
X0206553Y0090866D02*
X0217600Y0090866D01*
X0217914Y0089868D02*
X0206239Y0089868D01*
X0206318Y0088869D02*
X0218085Y0088869D01*
X0218085Y0087870D02*
X0207316Y0087870D01*
X0208315Y0086872D02*
X0218085Y0086872D01*
X0218085Y0085873D02*
X0209313Y0085873D01*
X0210312Y0084875D02*
X0218085Y0084875D01*
X0218085Y0083876D02*
X0211310Y0083876D01*
X0212309Y0082878D02*
X0218085Y0082878D01*
X0218085Y0081879D02*
X0213308Y0081879D01*
X0214991Y0080881D02*
X0218085Y0080881D01*
X0218085Y0079882D02*
X0215303Y0079882D01*
X0215256Y0078884D02*
X0218085Y0078884D01*
X0217600Y0077885D02*
X0214257Y0077885D01*
X0212396Y0077885D02*
X0070119Y0077885D01*
X0070119Y0076887D02*
X0149072Y0076887D01*
X0151577Y0076887D02*
X0152577Y0076887D01*
X0152577Y0075888D02*
X0151577Y0075888D01*
X0151577Y0074890D02*
X0152577Y0074890D01*
X0152577Y0073891D02*
X0151577Y0073891D01*
X0151577Y0072893D02*
X0152577Y0072893D01*
X0152577Y0069897D02*
X0151577Y0069897D01*
X0151577Y0068899D02*
X0152577Y0068899D01*
X0152577Y0067900D02*
X0151577Y0067900D01*
X0151577Y0066902D02*
X0152577Y0066902D01*
X0152577Y0065903D02*
X0151577Y0065903D01*
X0151577Y0064905D02*
X0152577Y0064905D01*
X0149280Y0064905D02*
X0070119Y0064905D01*
X0070119Y0065903D02*
X0148282Y0065903D01*
X0147283Y0066902D02*
X0070119Y0066902D01*
X0070119Y0067900D02*
X0146285Y0067900D01*
X0145789Y0068899D02*
X0070119Y0068899D01*
X0087077Y0059912D02*
X0087077Y0059912D01*
X0087077Y0058914D02*
X0087077Y0058914D01*
X0087077Y0058500D02*
X0087077Y0058500D01*
X0087077Y0057915D02*
X0087077Y0057915D01*
X0087077Y0056917D02*
X0087077Y0056917D01*
X0102346Y0038943D02*
X0244118Y0038943D01*
X0244218Y0039001D02*
X0243924Y0038831D01*
X0243684Y0038592D01*
X0243515Y0038298D01*
X0243427Y0037971D01*
X0243427Y0035726D01*
X0246789Y0035726D01*
X0246789Y0035152D01*
X0243427Y0035152D01*
X0243427Y0032907D01*
X0243515Y0032580D01*
X0243684Y0032286D01*
X0243924Y0032047D01*
X0244218Y0031877D01*
X0244545Y0031789D01*
X0246789Y0031789D01*
X0246789Y0035151D01*
X0247364Y0035151D01*
X0247364Y0031789D01*
X0249608Y0031789D01*
X0249936Y0031877D01*
X0250229Y0032047D01*
X0250469Y0032286D01*
X0250639Y0032580D01*
X0250726Y0032907D01*
X0250726Y0035152D01*
X0247364Y0035152D01*
X0247364Y0035726D01*
X0250726Y0035726D01*
X0250726Y0037971D01*
X0250639Y0038298D01*
X0250469Y0038592D01*
X0250229Y0038831D01*
X0249936Y0039001D01*
X0249608Y0039089D01*
X0247364Y0039089D01*
X0247364Y0035726D01*
X0246789Y0035726D01*
X0246789Y0039089D01*
X0244545Y0039089D01*
X0244218Y0039001D01*
X0243427Y0037945D02*
X0215683Y0037945D01*
X0215726Y0036946D02*
X0243427Y0036946D01*
X0243427Y0035948D02*
X0215726Y0035948D01*
X0215726Y0034949D02*
X0243427Y0034949D01*
X0243427Y0033951D02*
X0215726Y0033951D01*
X0215726Y0032952D02*
X0243427Y0032952D01*
X0244085Y0031954D02*
X0215324Y0031954D01*
X0208427Y0036946D02*
X0103097Y0036946D01*
X0102992Y0037945D02*
X0208470Y0037945D01*
X0214863Y0056917D02*
X0244477Y0056917D01*
X0243921Y0057915D02*
X0215310Y0057915D01*
X0215431Y0058914D02*
X0243722Y0058914D01*
X0243799Y0059912D02*
X0215277Y0059912D01*
X0214784Y0060911D02*
X0244212Y0060911D01*
X0245188Y0061909D02*
X0213514Y0061909D01*
X0218143Y0075888D02*
X0156080Y0075888D01*
X0155082Y0076887D02*
X0217600Y0076887D01*
X0219577Y0077250D02*
X0219577Y0091000D01*
X0221239Y0089868D02*
X0221664Y0089868D01*
X0221835Y0088869D02*
X0221069Y0088869D01*
X0221069Y0087870D02*
X0221835Y0087870D01*
X0221835Y0086872D02*
X0221069Y0086872D01*
X0221069Y0085873D02*
X0221835Y0085873D01*
X0221835Y0084875D02*
X0221069Y0084875D01*
X0221069Y0083876D02*
X0221835Y0083876D01*
X0221835Y0082878D02*
X0221069Y0082878D01*
X0221069Y0081879D02*
X0221835Y0081879D01*
X0221835Y0080881D02*
X0221069Y0080881D01*
X0221069Y0079882D02*
X0221835Y0079882D01*
X0221835Y0078884D02*
X0221069Y0078884D01*
X0221553Y0077885D02*
X0221835Y0077885D01*
X0221553Y0076887D02*
X0222600Y0076887D01*
X0223143Y0075888D02*
X0221010Y0075888D01*
X0223327Y0078500D02*
X0224577Y0077250D01*
X0223327Y0078500D02*
X0223327Y0091000D01*
X0222395Y0092863D02*
X0220509Y0092863D01*
X0236144Y0092863D02*
X0237144Y0092863D01*
X0237144Y0091865D02*
X0236144Y0091865D01*
X0236144Y0090866D02*
X0237144Y0090866D01*
X0237144Y0093862D02*
X0236144Y0093862D01*
X0236144Y0094860D02*
X0237144Y0094860D01*
X0237144Y0095859D02*
X0236144Y0095859D01*
X0236144Y0096857D02*
X0237144Y0096857D01*
X0237144Y0097856D02*
X0236144Y0097856D01*
X0236144Y0098854D02*
X0237144Y0098854D01*
X0237144Y0101850D02*
X0236144Y0101850D01*
X0236144Y0102848D02*
X0237144Y0102848D01*
X0244538Y0106842D02*
X0249795Y0106842D01*
X0249248Y0105844D02*
X0245248Y0105844D01*
X0245797Y0104845D02*
X0249116Y0104845D01*
X0249116Y0103847D02*
X0246210Y0103847D01*
X0246507Y0102848D02*
X0249116Y0102848D01*
X0249116Y0101850D02*
X0246698Y0101850D01*
X0254359Y0106842D02*
X0254434Y0106842D01*
X0258575Y0107841D02*
X0259866Y0107841D01*
X0259795Y0106842D02*
X0259720Y0106842D01*
X0259902Y0089868D02*
X0259486Y0089868D01*
X0259904Y0088869D02*
X0257709Y0088869D01*
X0254668Y0089868D02*
X0254068Y0089868D01*
X0262077Y0087870D02*
X0305268Y0087870D01*
X0306266Y0086872D02*
X0262077Y0086872D01*
X0262077Y0085873D02*
X0307265Y0085873D01*
X0308263Y0084875D02*
X0300156Y0084875D01*
X0300145Y0084895D02*
X0299722Y0085318D01*
X0299204Y0085617D01*
X0298626Y0085772D01*
X0298327Y0085772D01*
X0298327Y0083500D01*
X0300598Y0083500D01*
X0300598Y0083799D01*
X0300444Y0084377D01*
X0300145Y0084895D01*
X0300578Y0083876D02*
X0309262Y0083876D01*
X0309835Y0082878D02*
X0300512Y0082878D01*
X0300444Y0082623D02*
X0300598Y0083201D01*
X0300598Y0083500D01*
X0298327Y0083500D01*
X0298327Y0083500D01*
X0298327Y0081228D01*
X0298626Y0081228D01*
X0299204Y0081383D01*
X0299722Y0081682D01*
X0300145Y0082105D01*
X0300444Y0082623D01*
X0299919Y0081879D02*
X0309835Y0081879D01*
X0309835Y0080881D02*
X0262077Y0080881D01*
X0262077Y0081879D02*
X0296735Y0081879D01*
X0296932Y0081682D02*
X0297450Y0081383D01*
X0298028Y0081228D01*
X0298327Y0081228D01*
X0298327Y0083500D01*
X0298327Y0083500D01*
X0298327Y0083500D01*
X0298327Y0085772D01*
X0298028Y0085772D01*
X0297450Y0085617D01*
X0296932Y0085318D01*
X0296509Y0084895D01*
X0296210Y0084377D01*
X0296055Y0083799D01*
X0296055Y0083500D01*
X0298327Y0083500D01*
X0296055Y0083500D01*
X0296055Y0083201D01*
X0296210Y0082623D01*
X0296509Y0082105D01*
X0296932Y0081682D01*
X0298327Y0081879D02*
X0298327Y0081879D01*
X0298327Y0082878D02*
X0298327Y0082878D01*
X0298327Y0083500D02*
X0298327Y0083500D01*
X0298327Y0083876D02*
X0298327Y0083876D01*
X0298327Y0084875D02*
X0298327Y0084875D01*
X0296498Y0084875D02*
X0262077Y0084875D01*
X0262077Y0083876D02*
X0296076Y0083876D01*
X0296142Y0082878D02*
X0262077Y0082878D01*
X0262077Y0079882D02*
X0309835Y0079882D01*
X0309835Y0078884D02*
X0262077Y0078884D01*
X0262077Y0077885D02*
X0309835Y0077885D01*
X0309835Y0076887D02*
X0262077Y0076887D01*
X0262077Y0075888D02*
X0309835Y0075888D01*
X0309835Y0074890D02*
X0262077Y0074890D01*
X0262077Y0073891D02*
X0309835Y0073891D01*
X0309835Y0072893D02*
X0262077Y0072893D01*
X0262077Y0071894D02*
X0309835Y0071894D01*
X0309835Y0070896D02*
X0291789Y0070896D01*
X0291292Y0071392D02*
X0287861Y0071392D01*
X0285435Y0068966D01*
X0285435Y0065534D01*
X0287861Y0063108D01*
X0291292Y0063108D01*
X0293719Y0065534D01*
X0293719Y0068966D01*
X0291292Y0071392D01*
X0292787Y0069897D02*
X0309835Y0069897D01*
X0309835Y0068899D02*
X0293719Y0068899D01*
X0293719Y0067900D02*
X0309835Y0067900D01*
X0309835Y0066902D02*
X0293719Y0066902D01*
X0293719Y0065903D02*
X0309835Y0065903D01*
X0309835Y0064905D02*
X0293089Y0064905D01*
X0292091Y0063906D02*
X0309835Y0063906D01*
X0309835Y0062908D02*
X0262077Y0062908D01*
X0262077Y0063906D02*
X0275175Y0063906D01*
X0275177Y0063904D02*
X0276410Y0063394D01*
X0277744Y0063394D01*
X0278977Y0063904D01*
X0279920Y0064848D01*
X0280431Y0066081D01*
X0280431Y0067415D01*
X0279920Y0068648D01*
X0278977Y0069592D01*
X0277744Y0070102D01*
X0276410Y0070102D01*
X0275177Y0069592D01*
X0274233Y0068648D01*
X0273722Y0067415D01*
X0273722Y0066081D01*
X0274233Y0064848D01*
X0275177Y0063904D01*
X0274210Y0064905D02*
X0262077Y0064905D01*
X0262077Y0065903D02*
X0273796Y0065903D01*
X0273722Y0066902D02*
X0262077Y0066902D01*
X0262077Y0067900D02*
X0273923Y0067900D01*
X0274484Y0068899D02*
X0262077Y0068899D01*
X0262077Y0069897D02*
X0275914Y0069897D01*
X0278239Y0069897D02*
X0286366Y0069897D01*
X0285435Y0068899D02*
X0279670Y0068899D01*
X0280230Y0067900D02*
X0285435Y0067900D01*
X0285435Y0066902D02*
X0280431Y0066902D01*
X0280358Y0065903D02*
X0285435Y0065903D01*
X0286064Y0064905D02*
X0279944Y0064905D01*
X0278979Y0063906D02*
X0287063Y0063906D01*
X0279920Y0060774D02*
X0280431Y0059541D01*
X0280431Y0058207D01*
X0279920Y0056974D01*
X0278977Y0056030D01*
X0277744Y0055520D01*
X0276410Y0055520D01*
X0275177Y0056030D01*
X0274233Y0056974D01*
X0273722Y0058207D01*
X0273722Y0059541D01*
X0274233Y0060774D01*
X0275177Y0061718D01*
X0276410Y0062228D01*
X0277744Y0062228D01*
X0278977Y0061718D01*
X0279920Y0060774D01*
X0279784Y0060911D02*
X0304212Y0060911D01*
X0303799Y0059912D02*
X0280277Y0059912D01*
X0280431Y0058914D02*
X0303722Y0058914D01*
X0303921Y0057915D02*
X0280310Y0057915D01*
X0279863Y0056917D02*
X0304477Y0056917D01*
X0305899Y0055918D02*
X0278706Y0055918D01*
X0277744Y0054354D02*
X0276410Y0054354D01*
X0275177Y0053844D01*
X0274233Y0052900D01*
X0273722Y0051667D01*
X0273722Y0050333D01*
X0274233Y0049100D01*
X0275177Y0048156D01*
X0276410Y0047646D01*
X0277744Y0047646D01*
X0278977Y0048156D01*
X0279920Y0049100D01*
X0280431Y0050333D01*
X0280431Y0051667D01*
X0279920Y0052900D01*
X0278977Y0053844D01*
X0277744Y0054354D01*
X0278790Y0053921D02*
X0287890Y0053921D01*
X0286892Y0052923D02*
X0279898Y0052923D01*
X0280325Y0051924D02*
X0286685Y0051924D01*
X0286685Y0052716D02*
X0286685Y0049284D01*
X0289111Y0046858D01*
X0292542Y0046858D01*
X0294969Y0049284D01*
X0294969Y0052716D01*
X0292542Y0055142D01*
X0289111Y0055142D01*
X0286685Y0052716D01*
X0286685Y0050926D02*
X0280431Y0050926D01*
X0280263Y0049927D02*
X0286685Y0049927D01*
X0287040Y0048929D02*
X0279749Y0048929D01*
X0278430Y0047930D02*
X0288039Y0047930D01*
X0289037Y0046932D02*
X0262077Y0046932D01*
X0262077Y0047930D02*
X0275723Y0047930D01*
X0276410Y0046480D02*
X0275177Y0045970D01*
X0274233Y0045026D01*
X0273722Y0043793D01*
X0273722Y0042459D01*
X0274233Y0041226D01*
X0275177Y0040282D01*
X0276410Y0039772D01*
X0277744Y0039772D01*
X0278977Y0040282D01*
X0279920Y0041226D01*
X0280431Y0042459D01*
X0280431Y0043793D01*
X0279920Y0045026D01*
X0278977Y0045970D01*
X0277744Y0046480D01*
X0276410Y0046480D01*
X0275140Y0045933D02*
X0262077Y0045933D01*
X0262077Y0044934D02*
X0274195Y0044934D01*
X0273782Y0043936D02*
X0262077Y0043936D01*
X0262077Y0042937D02*
X0273722Y0042937D01*
X0273938Y0041939D02*
X0262077Y0041939D01*
X0262077Y0040940D02*
X0274519Y0040940D01*
X0275998Y0039942D02*
X0262077Y0039942D01*
X0262077Y0038943D02*
X0308832Y0038943D01*
X0309830Y0039942D02*
X0278155Y0039942D01*
X0279635Y0040940D02*
X0304706Y0040940D01*
X0304015Y0041939D02*
X0280216Y0041939D01*
X0280431Y0042937D02*
X0303722Y0042937D01*
X0303722Y0043936D02*
X0280372Y0043936D01*
X0279958Y0044934D02*
X0304118Y0044934D01*
X0304953Y0045933D02*
X0279013Y0045933D01*
X0274404Y0048929D02*
X0262077Y0048929D01*
X0262077Y0049927D02*
X0273890Y0049927D01*
X0273722Y0050926D02*
X0262077Y0050926D01*
X0262077Y0051924D02*
X0273829Y0051924D01*
X0274256Y0052923D02*
X0262077Y0052923D01*
X0262077Y0053921D02*
X0275364Y0053921D01*
X0275448Y0055918D02*
X0262077Y0055918D01*
X0262077Y0054920D02*
X0288889Y0054920D01*
X0292765Y0054920D02*
X0309835Y0054920D01*
X0309835Y0055918D02*
X0308254Y0055918D01*
X0309676Y0056917D02*
X0309835Y0056917D01*
X0309835Y0053921D02*
X0309086Y0053921D01*
X0305067Y0053921D02*
X0293763Y0053921D01*
X0294762Y0052923D02*
X0304165Y0052923D01*
X0303751Y0051924D02*
X0294969Y0051924D01*
X0294969Y0050926D02*
X0303722Y0050926D01*
X0303968Y0049927D02*
X0294969Y0049927D01*
X0294613Y0048929D02*
X0304591Y0048929D01*
X0306175Y0047930D02*
X0293615Y0047930D01*
X0292616Y0046932D02*
X0309835Y0046932D01*
X0309835Y0047930D02*
X0307979Y0047930D01*
X0309562Y0048929D02*
X0309835Y0048929D01*
X0309835Y0045933D02*
X0309200Y0045933D01*
X0309448Y0040940D02*
X0309835Y0040940D01*
X0309835Y0061909D02*
X0308966Y0061909D01*
X0305188Y0061909D02*
X0278514Y0061909D01*
X0275639Y0061909D02*
X0262077Y0061909D01*
X0262077Y0060911D02*
X0274370Y0060911D01*
X0273876Y0059912D02*
X0262077Y0059912D01*
X0262077Y0058914D02*
X0273722Y0058914D01*
X0273843Y0057915D02*
X0262077Y0057915D01*
X0262077Y0056917D02*
X0274290Y0056917D01*
X0259967Y0056917D02*
X0249676Y0056917D01*
X0250233Y0057915D02*
X0259965Y0057915D01*
X0259963Y0058914D02*
X0250431Y0058914D01*
X0250355Y0059912D02*
X0259961Y0059912D01*
X0259959Y0060911D02*
X0249941Y0060911D01*
X0248966Y0061909D02*
X0259957Y0061909D01*
X0259972Y0053921D02*
X0249086Y0053921D01*
X0249989Y0052923D02*
X0259974Y0052923D01*
X0259976Y0051924D02*
X0250402Y0051924D01*
X0250431Y0050926D02*
X0259978Y0050926D01*
X0259980Y0049927D02*
X0250186Y0049927D01*
X0249562Y0048929D02*
X0259982Y0048929D01*
X0259984Y0047930D02*
X0247979Y0047930D01*
X0248328Y0039942D02*
X0260000Y0039942D01*
X0260002Y0038943D02*
X0250035Y0038943D01*
X0250726Y0037945D02*
X0260004Y0037945D01*
X0260006Y0036946D02*
X0250726Y0036946D01*
X0250726Y0035948D02*
X0260008Y0035948D01*
X0260010Y0034949D02*
X0250726Y0034949D01*
X0250726Y0033951D02*
X0260012Y0033951D01*
X0260014Y0032952D02*
X0250726Y0032952D01*
X0250069Y0031954D02*
X0260016Y0031954D01*
X0260022Y0028958D02*
X0136913Y0028958D01*
X0137803Y0027960D02*
X0260024Y0027960D01*
X0260026Y0026961D02*
X0137803Y0026961D01*
X0137335Y0025963D02*
X0260027Y0025963D01*
X0247364Y0031954D02*
X0246789Y0031954D01*
X0246789Y0032952D02*
X0247364Y0032952D01*
X0247364Y0033951D02*
X0246789Y0033951D01*
X0246789Y0034949D02*
X0247364Y0034949D01*
X0247364Y0035948D02*
X0246789Y0035948D01*
X0246789Y0036946D02*
X0247364Y0036946D01*
X0247364Y0037945D02*
X0246789Y0037945D01*
X0246789Y0038943D02*
X0247364Y0038943D01*
X0262077Y0070896D02*
X0287365Y0070896D01*
X0270085Y0089868D02*
X0269068Y0089868D01*
X0265085Y0089868D02*
X0264486Y0089868D01*
X0226121Y0113832D02*
X0089053Y0113832D01*
X0088569Y0114830D02*
X0225420Y0114830D01*
X0225179Y0115829D02*
X0088569Y0115829D01*
X0088569Y0116827D02*
X0225278Y0116827D01*
X0225779Y0117826D02*
X0088569Y0117826D01*
X0088569Y0118824D02*
X0226128Y0118824D01*
X0225423Y0119823D02*
X0088569Y0119823D01*
X0088569Y0120821D02*
X0225179Y0120821D01*
X0225275Y0121820D02*
X0088569Y0121820D01*
X0088569Y0122818D02*
X0225771Y0122818D01*
X0226136Y0123817D02*
X0088569Y0123817D01*
X0088687Y0124815D02*
X0225426Y0124815D01*
X0225179Y0125814D02*
X0089053Y0125814D01*
X0089053Y0126812D02*
X0225272Y0126812D01*
X0225764Y0127811D02*
X0088061Y0127811D01*
X0086093Y0127811D02*
X0039050Y0127811D01*
X0038869Y0127992D02*
X0037819Y0129042D01*
X0031830Y0129042D01*
X0031645Y0129226D01*
X0030008Y0129226D01*
X0028850Y0128069D01*
X0028850Y0126431D01*
X0030008Y0125274D01*
X0031645Y0125274D01*
X0031830Y0125458D01*
X0036334Y0125458D01*
X0045100Y0116692D01*
X0045100Y0116431D01*
X0046258Y0115274D01*
X0047895Y0115274D01*
X0049053Y0116431D01*
X0049053Y0118069D01*
X0047895Y0119226D01*
X0047635Y0119226D01*
X0038869Y0127992D01*
X0038052Y0128809D02*
X0226143Y0128809D01*
X0225429Y0129808D02*
X0014076Y0129808D01*
X0013977Y0129907D02*
X0012744Y0130417D01*
X0011410Y0130417D01*
X0010177Y0129907D01*
X0009233Y0128963D01*
X0008722Y0127730D01*
X0008722Y0126396D01*
X0009233Y0125163D01*
X0010177Y0124219D01*
X0011410Y0123709D01*
X0012744Y0123709D01*
X0013977Y0124219D01*
X0014920Y0125163D01*
X0015431Y0126396D01*
X0015431Y0127730D01*
X0014920Y0128963D01*
X0013977Y0129907D01*
X0014984Y0128809D02*
X0029591Y0128809D01*
X0028850Y0127811D02*
X0015398Y0127811D01*
X0015431Y0126812D02*
X0028850Y0126812D01*
X0029468Y0125814D02*
X0015190Y0125814D01*
X0014573Y0124815D02*
X0036977Y0124815D01*
X0037975Y0123817D02*
X0013005Y0123817D01*
X0011148Y0123817D02*
X0004545Y0123817D01*
X0004545Y0124815D02*
X0009581Y0124815D01*
X0008963Y0125814D02*
X0004545Y0125814D01*
X0004545Y0126812D02*
X0008722Y0126812D01*
X0008756Y0127811D02*
X0004545Y0127811D01*
X0004545Y0128809D02*
X0009169Y0128809D01*
X0010078Y0129808D02*
X0004545Y0129808D01*
X0004545Y0130806D02*
X0225179Y0130806D01*
X0225269Y0131805D02*
X0015481Y0131805D01*
X0015469Y0131784D02*
X0015639Y0132078D01*
X0015726Y0132405D01*
X0015726Y0134650D01*
X0012364Y0134650D01*
X0012364Y0135224D01*
X0015726Y0135224D01*
X0015726Y0137469D01*
X0015639Y0137796D01*
X0225749Y0137796D01*
X0226158Y0138795D02*
X0004545Y0138795D01*
X0004545Y0139793D02*
X0079059Y0139793D01*
X0078514Y0139829D02*
X0080888Y0139673D01*
X0081577Y0139673D01*
X0081577Y0175500D01*
X0082577Y0175500D01*
X0082577Y0176500D01*
X0118404Y0176500D01*
X0118404Y0177189D01*
X0118261Y0179370D01*
X0118342Y0179173D01*
X0119895Y0177620D01*
X0121924Y0176780D01*
X0124120Y0176780D01*
X0126148Y0177620D01*
X0127701Y0179173D01*
X0128541Y0181201D01*
X0128541Y0183397D01*
X0127701Y0185426D01*
X0126148Y0186979D01*
X0124120Y0187819D01*
X0121924Y0187819D01*
X0119895Y0186979D01*
X0118342Y0185426D01*
X0117598Y0183629D01*
X0117474Y0184253D01*
X0116858Y0186551D01*
X0116093Y0188803D01*
X0115183Y0191000D01*
X0114131Y0193133D01*
X0112942Y0195193D01*
X0111621Y0197171D01*
X0110173Y0199058D01*
X0108605Y0200846D01*
X0106923Y0202528D01*
X0105135Y0204096D01*
X0103248Y0205544D01*
X0101270Y0206865D01*
X0099210Y0208055D01*
X0097077Y0209106D01*
X0094880Y0210017D01*
X0092628Y0210781D01*
X0090330Y0211397D01*
X0087997Y0211861D01*
X0085639Y0212171D01*
X0083266Y0212327D01*
X0082577Y0212327D01*
X0082577Y0176500D01*
X0081577Y0176500D01*
X0081577Y0212327D01*
X0080888Y0212327D01*
X0078514Y0212171D01*
X0076156Y0211861D01*
X0073823Y0211397D01*
X0071526Y0210781D01*
X0069274Y0210017D01*
X0067076Y0209106D01*
X0064943Y0208055D01*
X0062883Y0206865D01*
X0060906Y0205544D01*
X0059019Y0204096D01*
X0057231Y0202528D01*
X0055549Y0200846D01*
X0053981Y0199058D01*
X0052533Y0197171D01*
X0051211Y0195193D01*
X0050022Y0193133D01*
X0048970Y0191000D01*
X0048060Y0188803D01*
X0047296Y0186551D01*
X0046680Y0184253D01*
X0046556Y0183629D01*
X0045811Y0185426D01*
X0044259Y0186979D01*
X0042230Y0187819D01*
X0040034Y0187819D01*
X0038005Y0186979D01*
X0036453Y0185426D01*
X0035612Y0183397D01*
X0035612Y0181201D01*
X0036453Y0179173D01*
X0038005Y0177620D01*
X0040034Y0176780D01*
X0042230Y0176780D01*
X0044259Y0177620D01*
X0045811Y0179173D01*
X0045893Y0179370D01*
X0045750Y0177189D01*
X0045750Y0176500D01*
X0081577Y0176500D01*
X0081577Y0175500D01*
X0045750Y0175500D01*
X0045750Y0174811D01*
X0045862Y0173098D01*
X0045811Y0173221D01*
X0044259Y0174774D01*
X0042230Y0175614D01*
X0040034Y0175614D01*
X0038005Y0174774D01*
X0036453Y0173221D01*
X0035612Y0171192D01*
X0035612Y0168997D01*
X0036453Y0166968D01*
X0038005Y0165415D01*
X0040034Y0164575D01*
X0042230Y0164575D01*
X0044259Y0165415D01*
X0045811Y0166968D01*
X0046503Y0168637D01*
X0046680Y0167747D01*
X0047296Y0165449D01*
X0048060Y0163197D01*
X0048970Y0161000D01*
X0050022Y0158866D01*
X0051211Y0156807D01*
X0052533Y0154829D01*
X0053981Y0152942D01*
X0055549Y0151154D01*
X0057231Y0149472D01*
X0059019Y0147904D01*
X0060906Y0146456D01*
X0062883Y0145135D01*
X0064943Y0143945D01*
X0067076Y0142894D01*
X0069274Y0141983D01*
X0071526Y0141219D01*
X0073823Y0140603D01*
X0076156Y0140139D01*
X0078514Y0139829D01*
X0081577Y0139793D02*
X0082577Y0139793D01*
X0082577Y0139673D02*
X0083266Y0139673D01*
X0085639Y0139829D01*
X0087997Y0140139D01*
X0090330Y0140603D01*
X0092628Y0141219D01*
X0094880Y0141983D01*
X0097077Y0142894D01*
X0099210Y0143945D01*
X0101270Y0145135D01*
X0103248Y0146456D01*
X0105135Y0147904D01*
X0106923Y0149472D01*
X0108605Y0151154D01*
X0110173Y0152942D01*
X0111621Y0154829D01*
X0112942Y0156807D01*
X0114131Y0158866D01*
X0115183Y0161000D01*
X0116093Y0163197D01*
X0116858Y0165449D01*
X0117474Y0167747D01*
X0117651Y0168637D01*
X0118342Y0166968D01*
X0119895Y0165415D01*
X0121924Y0164575D01*
X0124120Y0164575D01*
X0126148Y0165415D01*
X0127701Y0166968D01*
X0128541Y0168997D01*
X0128541Y0171192D01*
X0127701Y0173221D01*
X0126148Y0174774D01*
X0124120Y0175614D01*
X0121924Y0175614D01*
X0119895Y0174774D01*
X0118342Y0173221D01*
X0118291Y0173098D01*
X0118404Y0174811D01*
X0118404Y0175500D01*
X0082577Y0175500D01*
X0082577Y0139673D01*
X0082577Y0140792D02*
X0081577Y0140792D01*
X0081577Y0141790D02*
X0082577Y0141790D01*
X0082577Y0142789D02*
X0081577Y0142789D01*
X0081577Y0143787D02*
X0082577Y0143787D01*
X0082577Y0144786D02*
X0081577Y0144786D01*
X0081577Y0145784D02*
X0082577Y0145784D01*
X0082577Y0146783D02*
X0081577Y0146783D01*
X0081577Y0147781D02*
X0082577Y0147781D01*
X0082577Y0148780D02*
X0081577Y0148780D01*
X0081577Y0149778D02*
X0082577Y0149778D01*
X0082577Y0150777D02*
X0081577Y0150777D01*
X0081577Y0151775D02*
X0082577Y0151775D01*
X0082577Y0152774D02*
X0081577Y0152774D01*
X0081577Y0153772D02*
X0082577Y0153772D01*
X0082577Y0154771D02*
X0081577Y0154771D01*
X0081577Y0155769D02*
X0082577Y0155769D01*
X0082577Y0156768D02*
X0081577Y0156768D01*
X0081577Y0157766D02*
X0082577Y0157766D01*
X0082577Y0158765D02*
X0081577Y0158765D01*
X0081577Y0159763D02*
X0082577Y0159763D01*
X0082577Y0160762D02*
X0081577Y0160762D01*
X0081577Y0161760D02*
X0082577Y0161760D01*
X0082577Y0162759D02*
X0081577Y0162759D01*
X0081577Y0163757D02*
X0082577Y0163757D01*
X0082577Y0164756D02*
X0081577Y0164756D01*
X0081577Y0165754D02*
X0082577Y0165754D01*
X0082577Y0166753D02*
X0081577Y0166753D01*
X0081577Y0167751D02*
X0082577Y0167751D01*
X0082577Y0168750D02*
X0081577Y0168750D01*
X0081577Y0169748D02*
X0082577Y0169748D01*
X0082577Y0170747D02*
X0081577Y0170747D01*
X0081577Y0171745D02*
X0082577Y0171745D01*
X0082577Y0172744D02*
X0081577Y0172744D01*
X0081577Y0173742D02*
X0082577Y0173742D01*
X0082577Y0174741D02*
X0081577Y0174741D01*
X0081577Y0175739D02*
X0004545Y0175739D01*
X0004545Y0174741D02*
X0037972Y0174741D01*
X0036974Y0173742D02*
X0004545Y0173742D01*
X0004545Y0172744D02*
X0036255Y0172744D01*
X0035841Y0171745D02*
X0004545Y0171745D01*
X0004545Y0170747D02*
X0035612Y0170747D01*
X0035612Y0169748D02*
X0004545Y0169748D01*
X0004545Y0168750D02*
X0035714Y0168750D01*
X0036128Y0167751D02*
X0004545Y0167751D01*
X0004545Y0166753D02*
X0036667Y0166753D01*
X0037666Y0165754D02*
X0004545Y0165754D01*
X0004545Y0164756D02*
X0039597Y0164756D01*
X0042667Y0164756D02*
X0047531Y0164756D01*
X0047214Y0165754D02*
X0044598Y0165754D01*
X0045596Y0166753D02*
X0046946Y0166753D01*
X0046679Y0167751D02*
X0046136Y0167751D01*
X0047870Y0163757D02*
X0004545Y0163757D01*
X0004545Y0162759D02*
X0048242Y0162759D01*
X0048655Y0161760D02*
X0004545Y0161760D01*
X0004545Y0160762D02*
X0049088Y0160762D01*
X0049580Y0159763D02*
X0004545Y0159763D01*
X0004545Y0158765D02*
X0050081Y0158765D01*
X0050657Y0157766D02*
X0004545Y0157766D01*
X0004545Y0156768D02*
X0051237Y0156768D01*
X0051905Y0155769D02*
X0004545Y0155769D01*
X0004545Y0154771D02*
X0052578Y0154771D01*
X0053344Y0153772D02*
X0004545Y0153772D01*
X0004545Y0152774D02*
X0020638Y0152774D01*
X0020682Y0152818D02*
X0020259Y0152395D01*
X0019960Y0151877D01*
X0019805Y0151299D01*
X0019805Y0151000D01*
X0022077Y0151000D01*
X0024348Y0151000D01*
X0024348Y0151299D01*
X0024194Y0151877D01*
X0023895Y0152395D01*
X0023472Y0152818D01*
X0022954Y0153117D01*
X0022376Y0153272D01*
X0022077Y0153272D01*
X0022077Y0151000D01*
X0022077Y0151000D01*
X0024348Y0151000D01*
X0024348Y0150701D01*
X0024194Y0150123D01*
X0023895Y0149605D01*
X0023472Y0149182D01*
X0022954Y0148883D01*
X0022376Y0148728D01*
X0022077Y0148728D01*
X0022077Y0151000D01*
X0022077Y0151000D01*
X0022077Y0151000D01*
X0022077Y0153272D01*
X0021778Y0153272D01*
X0021200Y0153117D01*
X0020682Y0152818D01*
X0019933Y0151775D02*
X0004545Y0151775D01*
X0004545Y0150777D02*
X0019805Y0150777D01*
X0019805Y0150701D02*
X0019960Y0150123D01*
X0020259Y0149605D01*
X0020682Y0149182D01*
X0021200Y0148883D01*
X0021778Y0148728D01*
X0022077Y0148728D01*
X0022077Y0151000D01*
X0019805Y0151000D01*
X0019805Y0150701D01*
X0020159Y0149778D02*
X0012712Y0149778D01*
X0012645Y0149895D02*
X0012222Y0150318D01*
X0011704Y0150617D01*
X0011126Y0150772D01*
X0010827Y0150772D01*
X0010827Y0148500D01*
X0013098Y0148500D01*
X0013098Y0148799D01*
X0012944Y0149377D01*
X0012645Y0149895D01*
X0013098Y0148780D02*
X0021586Y0148780D01*
X0022077Y0148780D02*
X0022077Y0148780D01*
X0022567Y0148780D02*
X0058020Y0148780D01*
X0056925Y0149778D02*
X0023994Y0149778D01*
X0024348Y0150777D02*
X0055926Y0150777D01*
X0055004Y0151775D02*
X0024221Y0151775D01*
X0023516Y0152774D02*
X0054128Y0152774D01*
X0059179Y0147781D02*
X0012986Y0147781D01*
X0012944Y0147623D02*
X0013098Y0148201D01*
X0013098Y0148500D01*
X0010827Y0148500D01*
X0010827Y0148500D01*
X0010827Y0146228D01*
X0011126Y0146228D01*
X0011704Y0146383D01*
X0012222Y0146682D01*
X0012645Y0147105D01*
X0012944Y0147623D01*
X0012322Y0146783D02*
X0060480Y0146783D01*
X0061912Y0145784D02*
X0004545Y0145784D01*
X0004545Y0144786D02*
X0063488Y0144786D01*
X0065264Y0143787D02*
X0004545Y0143787D01*
X0004545Y0142789D02*
X0067330Y0142789D01*
X0069843Y0141790D02*
X0004545Y0141790D01*
X0004545Y0140792D02*
X0073120Y0140792D01*
X0085094Y0139793D02*
X0225435Y0139793D01*
X0225179Y0140792D02*
X0091033Y0140792D01*
X0094310Y0141790D02*
X0225262Y0141790D01*
X0225741Y0142789D02*
X0096824Y0142789D01*
X0098889Y0143787D02*
X0226166Y0143787D01*
X0225438Y0144786D02*
X0100665Y0144786D01*
X0102242Y0145784D02*
X0225179Y0145784D01*
X0225259Y0146783D02*
X0103673Y0146783D01*
X0104975Y0147781D02*
X0225734Y0147781D01*
X0226173Y0148780D02*
X0106133Y0148780D01*
X0107229Y0149778D02*
X0225441Y0149778D01*
X0225179Y0150777D02*
X0108227Y0150777D01*
X0109149Y0151775D02*
X0225256Y0151775D01*
X0225727Y0152774D02*
X0176278Y0152774D01*
X0175717Y0152213D02*
X0180864Y0157360D01*
X0180864Y0160500D01*
X0172577Y0160500D01*
X0172577Y0161500D01*
X0171577Y0161500D01*
X0171577Y0169787D01*
X0168437Y0169787D01*
X0163289Y0164640D01*
X0163289Y0161500D01*
X0171577Y0161500D01*
X0171577Y0160500D01*
X0172577Y0160500D01*
X0172577Y0152213D01*
X0175717Y0152213D01*
X0177276Y0153772D02*
X0226181Y0153772D01*
X0225444Y0154771D02*
X0178275Y0154771D01*
X0179273Y0155769D02*
X0225179Y0155769D01*
X0225253Y0156768D02*
X0180272Y0156768D01*
X0180864Y0157766D02*
X0225719Y0157766D01*
X0226188Y0158765D02*
X0180864Y0158765D01*
X0180864Y0159763D02*
X0225447Y0159763D01*
X0225179Y0160762D02*
X0172577Y0160762D01*
X0172577Y0161760D02*
X0171577Y0161760D01*
X0171577Y0160762D02*
X0115066Y0160762D01*
X0115498Y0161760D02*
X0163289Y0161760D01*
X0163289Y0162759D02*
X0115912Y0162759D01*
X0116284Y0163757D02*
X0163289Y0163757D01*
X0163405Y0164756D02*
X0124557Y0164756D01*
X0126488Y0165754D02*
X0164404Y0165754D01*
X0165402Y0166753D02*
X0127486Y0166753D01*
X0128026Y0167751D02*
X0166401Y0167751D01*
X0167399Y0168750D02*
X0128439Y0168750D01*
X0128541Y0169748D02*
X0168398Y0169748D01*
X0171577Y0169748D02*
X0172577Y0169748D01*
X0172577Y0168750D02*
X0171577Y0168750D01*
X0171577Y0167751D02*
X0172577Y0167751D01*
X0172577Y0166753D02*
X0171577Y0166753D01*
X0171577Y0165754D02*
X0172577Y0165754D01*
X0172577Y0164756D02*
X0171577Y0164756D01*
X0171577Y0163757D02*
X0172577Y0163757D01*
X0172577Y0162759D02*
X0171577Y0162759D01*
X0171577Y0160500D02*
X0163289Y0160500D01*
X0163289Y0157360D01*
X0168437Y0152213D01*
X0171577Y0152213D01*
X0171577Y0160500D01*
X0171577Y0159763D02*
X0172577Y0159763D01*
X0172577Y0158765D02*
X0171577Y0158765D01*
X0171577Y0157766D02*
X0172577Y0157766D01*
X0172577Y0156768D02*
X0171577Y0156768D01*
X0171577Y0155769D02*
X0172577Y0155769D01*
X0172577Y0154771D02*
X0171577Y0154771D01*
X0171577Y0153772D02*
X0172577Y0153772D01*
X0172577Y0152774D02*
X0171577Y0152774D01*
X0167876Y0152774D02*
X0110025Y0152774D01*
X0110810Y0153772D02*
X0166877Y0153772D01*
X0165879Y0154771D02*
X0111576Y0154771D01*
X0112249Y0155769D02*
X0164880Y0155769D01*
X0163882Y0156768D02*
X0112916Y0156768D01*
X0113496Y0157766D02*
X0163289Y0157766D01*
X0163289Y0158765D02*
X0114073Y0158765D01*
X0114574Y0159763D02*
X0163289Y0159763D01*
X0176754Y0168750D02*
X0220993Y0168750D01*
X0221008Y0169748D02*
X0175756Y0169748D01*
X0177753Y0167751D02*
X0220978Y0167751D01*
X0220963Y0166753D02*
X0178751Y0166753D01*
X0179750Y0165754D02*
X0220948Y0165754D01*
X0221023Y0170747D02*
X0128541Y0170747D01*
X0128312Y0171745D02*
X0221038Y0171745D01*
X0221053Y0172744D02*
X0174336Y0172744D01*
X0173766Y0172508D02*
X0176887Y0173801D01*
X0179276Y0176190D01*
X0180569Y0179311D01*
X0180569Y0182689D01*
X0179276Y0185810D01*
X0176887Y0188199D01*
X0173766Y0189492D01*
X0170388Y0189492D01*
X0167266Y0188199D01*
X0164877Y0185810D01*
X0163585Y0182689D01*
X0163585Y0179311D01*
X0164877Y0176190D01*
X0167266Y0173801D01*
X0170388Y0172508D01*
X0173766Y0172508D01*
X0176746Y0173742D02*
X0221068Y0173742D01*
X0221083Y0174741D02*
X0177827Y0174741D01*
X0178826Y0175739D02*
X0221098Y0175739D01*
X0221113Y0176738D02*
X0179503Y0176738D01*
X0179917Y0177737D02*
X0221128Y0177737D01*
X0221142Y0178735D02*
X0180330Y0178735D01*
X0180569Y0179734D02*
X0221157Y0179734D01*
X0221172Y0180732D02*
X0180569Y0180732D01*
X0180569Y0181731D02*
X0221187Y0181731D01*
X0221202Y0182729D02*
X0180552Y0182729D01*
X0180139Y0183728D02*
X0221217Y0183728D01*
X0221232Y0184726D02*
X0179725Y0184726D01*
X0179312Y0185725D02*
X0221247Y0185725D01*
X0221262Y0186723D02*
X0178363Y0186723D01*
X0177365Y0187722D02*
X0221277Y0187722D01*
X0221292Y0188720D02*
X0175630Y0188720D01*
X0168524Y0188720D02*
X0116122Y0188720D01*
X0116460Y0187722D02*
X0121689Y0187722D01*
X0119640Y0186723D02*
X0116799Y0186723D01*
X0117079Y0185725D02*
X0118641Y0185725D01*
X0118052Y0184726D02*
X0117347Y0184726D01*
X0117578Y0183728D02*
X0117639Y0183728D01*
X0118302Y0178735D02*
X0118780Y0178735D01*
X0118368Y0177737D02*
X0119778Y0177737D01*
X0118404Y0176738D02*
X0164650Y0176738D01*
X0164237Y0177737D02*
X0126265Y0177737D01*
X0127263Y0178735D02*
X0163823Y0178735D01*
X0163585Y0179734D02*
X0127933Y0179734D01*
X0128347Y0180732D02*
X0163585Y0180732D01*
X0163585Y0181731D02*
X0128541Y0181731D01*
X0128541Y0182729D02*
X0163601Y0182729D01*
X0164015Y0183728D02*
X0128404Y0183728D01*
X0127991Y0184726D02*
X0164428Y0184726D01*
X0164842Y0185725D02*
X0127402Y0185725D01*
X0126404Y0186723D02*
X0165790Y0186723D01*
X0166789Y0187722D02*
X0124354Y0187722D01*
X0115714Y0189719D02*
X0221307Y0189719D01*
X0221322Y0190717D02*
X0115301Y0190717D01*
X0114830Y0191716D02*
X0221337Y0191716D01*
X0221351Y0192714D02*
X0114338Y0192714D01*
X0113797Y0193713D02*
X0221366Y0193713D01*
X0221381Y0194711D02*
X0113220Y0194711D01*
X0112597Y0195710D02*
X0221396Y0195710D01*
X0221411Y0196708D02*
X0111930Y0196708D01*
X0111210Y0197707D02*
X0221426Y0197707D01*
X0221441Y0198705D02*
X0110443Y0198705D01*
X0109606Y0199704D02*
X0221456Y0199704D01*
X0221471Y0200702D02*
X0108731Y0200702D01*
X0107750Y0201701D02*
X0221486Y0201701D01*
X0221501Y0202699D02*
X0106727Y0202699D01*
X0105589Y0203698D02*
X0221516Y0203698D01*
X0221531Y0204696D02*
X0104352Y0204696D01*
X0103022Y0205695D02*
X0221545Y0205695D01*
X0221560Y0206693D02*
X0101527Y0206693D01*
X0099838Y0207692D02*
X0221575Y0207692D01*
X0221590Y0208690D02*
X0097921Y0208690D01*
X0095671Y0209689D02*
X0221605Y0209689D01*
X0221620Y0210687D02*
X0092904Y0210687D01*
X0088877Y0211686D02*
X0221635Y0211686D01*
X0221650Y0212684D02*
X0022011Y0212684D01*
X0022538Y0212158D02*
X0020321Y0214375D01*
X0017424Y0215575D01*
X0014288Y0215575D01*
X0011392Y0214375D01*
X0009174Y0212158D01*
X0007974Y0209261D01*
X0007974Y0206125D01*
X0009174Y0203228D01*
X0011392Y0201011D01*
X0014288Y0199811D01*
X0017424Y0199811D01*
X0020321Y0201011D01*
X0022538Y0203228D01*
X0023738Y0206125D01*
X0023738Y0209261D01*
X0022538Y0212158D01*
X0022734Y0211686D02*
X0075277Y0211686D01*
X0071250Y0210687D02*
X0023147Y0210687D01*
X0023561Y0209689D02*
X0068482Y0209689D01*
X0066233Y0208690D02*
X0023738Y0208690D01*
X0023738Y0207692D02*
X0064315Y0207692D01*
X0062626Y0206693D02*
X0023738Y0206693D01*
X0023560Y0205695D02*
X0061132Y0205695D01*
X0059801Y0204696D02*
X0023146Y0204696D01*
X0022733Y0203698D02*
X0058565Y0203698D01*
X0057426Y0202699D02*
X0022009Y0202699D01*
X0021011Y0201701D02*
X0056404Y0201701D01*
X0055423Y0200702D02*
X0019576Y0200702D01*
X0012137Y0200702D02*
X0004545Y0200702D01*
X0004545Y0199704D02*
X0054547Y0199704D01*
X0053710Y0198705D02*
X0004545Y0198705D01*
X0004545Y0197707D02*
X0052944Y0197707D01*
X0052224Y0196708D02*
X0004545Y0196708D01*
X0004545Y0195710D02*
X0051557Y0195710D01*
X0050933Y0194711D02*
X0004545Y0194711D01*
X0004545Y0193713D02*
X0010327Y0193713D01*
X0010259Y0193645D02*
X0009960Y0193127D01*
X0009805Y0192549D01*
X0009805Y0192250D01*
X0012077Y0192250D01*
X0014348Y0192250D01*
X0014348Y0192549D01*
X0014194Y0193127D01*
X0013895Y0193645D01*
X0013472Y0194068D01*
X0012954Y0194367D01*
X0012376Y0194522D01*
X0012077Y0194522D01*
X0012077Y0192250D01*
X0012077Y0192250D01*
X0014348Y0192250D01*
X0014348Y0191951D01*
X0014194Y0191373D01*
X0013895Y0190855D01*
X0013472Y0190432D01*
X0012954Y0190133D01*
X0012376Y0189978D01*
X0012077Y0189978D01*
X0012077Y0192250D01*
X0012077Y0192250D01*
X0012077Y0192250D01*
X0012077Y0194522D01*
X0011778Y0194522D01*
X0011200Y0194367D01*
X0010682Y0194068D01*
X0010259Y0193645D01*
X0009849Y0192714D02*
X0004545Y0192714D01*
X0004545Y0191716D02*
X0009868Y0191716D01*
X0009805Y0191951D02*
X0009960Y0191373D01*
X0010259Y0190855D01*
X0010682Y0190432D01*
X0011200Y0190133D01*
X0011778Y0189978D01*
X0012077Y0189978D01*
X0012077Y0192250D01*
X0009805Y0192250D01*
X0009805Y0191951D01*
X0010397Y0190717D02*
X0004545Y0190717D01*
X0004545Y0189719D02*
X0018555Y0189719D01*
X0018555Y0189750D02*
X0018555Y0189451D01*
X0018710Y0188873D01*
X0019009Y0188355D01*
X0019432Y0187932D01*
X0019950Y0187633D01*
X0020528Y0187478D01*
X0020827Y0187478D01*
X0021126Y0187478D01*
X0021704Y0187633D01*
X0022222Y0187932D01*
X0022645Y0188355D01*
X0022944Y0188873D01*
X0023098Y0189451D01*
X0023098Y0189750D01*
X0023098Y0190049D01*
X0022944Y0190627D01*
X0022645Y0191145D01*
X0022222Y0191568D01*
X0021704Y0191867D01*
X0021126Y0192022D01*
X0020827Y0192022D01*
X0020827Y0189750D01*
X0023098Y0189750D01*
X0020827Y0189750D01*
X0020827Y0189750D01*
X0020827Y0187478D01*
X0020827Y0189750D01*
X0020827Y0189750D01*
X0020827Y0189750D01*
X0020827Y0192022D01*
X0020528Y0192022D01*
X0019950Y0191867D01*
X0019432Y0191568D01*
X0019009Y0191145D01*
X0018710Y0190627D01*
X0018555Y0190049D01*
X0018555Y0189750D01*
X0020827Y0189750D01*
X0018555Y0189750D01*
X0018762Y0190717D02*
X0013757Y0190717D01*
X0014285Y0191716D02*
X0019688Y0191716D01*
X0020827Y0191716D02*
X0020827Y0191716D01*
X0020827Y0190717D02*
X0020827Y0190717D01*
X0020827Y0189750D02*
X0020827Y0189750D01*
X0020827Y0189719D02*
X0020827Y0189719D01*
X0020827Y0188720D02*
X0020827Y0188720D01*
X0020827Y0187722D02*
X0020827Y0187722D01*
X0021857Y0187722D02*
X0039799Y0187722D01*
X0037750Y0186723D02*
X0004545Y0186723D01*
X0004545Y0185725D02*
X0036751Y0185725D01*
X0036163Y0184726D02*
X0004545Y0184726D01*
X0004545Y0183728D02*
X0035749Y0183728D01*
X0035612Y0182729D02*
X0004545Y0182729D01*
X0004545Y0181731D02*
X0035612Y0181731D01*
X0035807Y0180732D02*
X0004545Y0180732D01*
X0004545Y0179734D02*
X0036220Y0179734D01*
X0036890Y0178735D02*
X0004545Y0178735D01*
X0004545Y0177737D02*
X0037889Y0177737D01*
X0044375Y0177737D02*
X0045786Y0177737D01*
X0045750Y0176738D02*
X0004545Y0176738D01*
X0004545Y0187722D02*
X0019797Y0187722D01*
X0018798Y0188720D02*
X0004545Y0188720D01*
X0012077Y0190717D02*
X0012077Y0190717D01*
X0012077Y0191716D02*
X0012077Y0191716D01*
X0012077Y0192250D02*
X0012077Y0192250D01*
X0012077Y0192714D02*
X0012077Y0192714D01*
X0012077Y0193713D02*
X0012077Y0193713D01*
X0013827Y0193713D02*
X0050357Y0193713D01*
X0049815Y0192714D02*
X0014304Y0192714D01*
X0021965Y0191716D02*
X0049323Y0191716D01*
X0048853Y0190717D02*
X0022891Y0190717D01*
X0023098Y0189719D02*
X0048439Y0189719D01*
X0048032Y0188720D02*
X0022855Y0188720D01*
X0010702Y0201701D02*
X0004545Y0201701D01*
X0004545Y0202699D02*
X0009703Y0202699D01*
X0008980Y0203698D02*
X0004545Y0203698D01*
X0004545Y0204696D02*
X0008566Y0204696D01*
X0008153Y0205695D02*
X0004545Y0205695D01*
X0004545Y0206693D02*
X0007974Y0206693D01*
X0007974Y0207692D02*
X0004545Y0207692D01*
X0004545Y0208690D02*
X0007974Y0208690D01*
X0008152Y0209689D02*
X0004547Y0209689D01*
X0004612Y0210687D02*
X0008565Y0210687D01*
X0008979Y0211686D02*
X0004841Y0211686D01*
X0004625Y0210881D02*
X0004625Y0210881D01*
X0005108Y0212684D02*
X0009701Y0212684D01*
X0010700Y0213683D02*
X0005514Y0213683D01*
X0006091Y0214681D02*
X0012132Y0214681D01*
X0007806Y0216678D02*
X0221710Y0216678D01*
X0221695Y0215680D02*
X0006807Y0215680D01*
X0019581Y0214681D02*
X0221680Y0214681D01*
X0221665Y0213683D02*
X0021013Y0213683D01*
X0042465Y0187722D02*
X0047693Y0187722D01*
X0047354Y0186723D02*
X0044514Y0186723D01*
X0045513Y0185725D02*
X0047074Y0185725D01*
X0046807Y0184726D02*
X0046101Y0184726D01*
X0046515Y0183728D02*
X0046575Y0183728D01*
X0045851Y0178735D02*
X0045374Y0178735D01*
X0045755Y0174741D02*
X0044291Y0174741D01*
X0045290Y0173742D02*
X0045820Y0173742D01*
X0022077Y0152774D02*
X0022077Y0152774D01*
X0022077Y0151775D02*
X0022077Y0151775D01*
X0022077Y0151000D02*
X0022077Y0151000D01*
X0022077Y0150777D02*
X0022077Y0150777D01*
X0022077Y0149778D02*
X0022077Y0149778D01*
X0010827Y0149778D02*
X0010827Y0149778D01*
X0010827Y0150772D02*
X0010528Y0150772D01*
X0009950Y0150617D01*
X0009432Y0150318D01*
X0009009Y0149895D01*
X0008710Y0149377D01*
X0008555Y0148799D01*
X0008555Y0148500D01*
X0010827Y0148500D01*
X0010827Y0148500D01*
X0010827Y0148500D01*
X0010827Y0150772D01*
X0010827Y0148780D02*
X0010827Y0148780D01*
X0010827Y0148500D02*
X0010827Y0148500D01*
X0010827Y0146228D01*
X0010528Y0146228D01*
X0009950Y0146383D01*
X0009432Y0146682D01*
X0009009Y0147105D01*
X0008710Y0147623D01*
X0008555Y0148201D01*
X0008555Y0148500D01*
X0010827Y0148500D01*
X0010827Y0147781D02*
X0010827Y0147781D01*
X0010827Y0146783D02*
X0010827Y0146783D01*
X0009332Y0146783D02*
X0004545Y0146783D01*
X0004545Y0147781D02*
X0008668Y0147781D01*
X0008555Y0148780D02*
X0004545Y0148780D01*
X0004545Y0149778D02*
X0008942Y0149778D01*
X0009545Y0138587D02*
X0009218Y0138499D01*
X0008924Y0138329D01*
X0008684Y0138090D01*
X0008515Y0137796D01*
X0004545Y0137796D01*
X0004545Y0136798D02*
X0008427Y0136798D01*
X0008427Y0137469D02*
X0008427Y0135224D01*
X0011789Y0135224D01*
X0011789Y0134650D01*
X0008427Y0134650D01*
X0008427Y0132405D01*
X0008515Y0132078D01*
X0008684Y0131784D01*
X0008924Y0131545D01*
X0009218Y0131375D01*
X0009545Y0131287D01*
X0011789Y0131287D01*
X0011789Y0134650D01*
X0012364Y0134650D01*
X0012364Y0131287D01*
X0014608Y0131287D01*
X0014936Y0131375D01*
X0015229Y0131545D01*
X0015469Y0131784D01*
X0015726Y0132803D02*
X0225756Y0132803D01*
X0226151Y0133802D02*
X0015726Y0133802D01*
X0015726Y0135799D02*
X0225179Y0135799D01*
X0225266Y0136798D02*
X0015726Y0136798D01*
X0015639Y0137796D02*
X0015469Y0138090D01*
X0015229Y0138329D01*
X0014936Y0138499D01*
X0014608Y0138587D01*
X0012364Y0138587D01*
X0012364Y0135224D01*
X0011789Y0135224D01*
X0011789Y0138587D01*
X0009545Y0138587D01*
X0008515Y0137796D02*
X0008427Y0137469D01*
X0008427Y0135799D02*
X0004545Y0135799D01*
X0004545Y0134801D02*
X0011789Y0134801D01*
X0012364Y0134801D02*
X0225432Y0134801D01*
X0225250Y0161760D02*
X0180864Y0161760D01*
X0180864Y0162759D02*
X0225712Y0162759D01*
X0169818Y0172744D02*
X0127899Y0172744D01*
X0127180Y0173742D02*
X0167407Y0173742D01*
X0166326Y0174741D02*
X0126181Y0174741D01*
X0119862Y0174741D02*
X0118399Y0174741D01*
X0118334Y0173742D02*
X0118864Y0173742D01*
X0118018Y0167751D02*
X0117474Y0167751D01*
X0117207Y0166753D02*
X0118557Y0166753D01*
X0119556Y0165754D02*
X0116940Y0165754D01*
X0116623Y0164756D02*
X0121487Y0164756D01*
X0082577Y0175739D02*
X0165328Y0175739D01*
X0087077Y0126000D02*
X0087077Y0113500D01*
X0085585Y0114830D02*
X0004545Y0114830D01*
X0004545Y0113832D02*
X0085100Y0113832D01*
X0085100Y0112833D02*
X0004545Y0112833D01*
X0004545Y0111835D02*
X0085947Y0111835D01*
X0085585Y0115829D02*
X0048451Y0115829D01*
X0049053Y0116827D02*
X0085585Y0116827D01*
X0085585Y0117826D02*
X0049053Y0117826D01*
X0048297Y0118824D02*
X0085585Y0118824D01*
X0085585Y0119823D02*
X0047038Y0119823D01*
X0046040Y0120821D02*
X0085585Y0120821D01*
X0085585Y0121820D02*
X0045041Y0121820D01*
X0044043Y0122818D02*
X0085585Y0122818D01*
X0085585Y0123817D02*
X0043044Y0123817D01*
X0042046Y0124815D02*
X0085466Y0124815D01*
X0085100Y0125814D02*
X0041047Y0125814D01*
X0040049Y0126812D02*
X0085100Y0126812D01*
X0045703Y0115829D02*
X0004545Y0115829D01*
X0004545Y0116827D02*
X0044965Y0116827D01*
X0043966Y0117826D02*
X0004545Y0117826D01*
X0004545Y0118824D02*
X0042968Y0118824D01*
X0041969Y0119823D02*
X0004545Y0119823D01*
X0004545Y0120821D02*
X0040971Y0120821D01*
X0039972Y0121820D02*
X0004545Y0121820D01*
X0004545Y0122818D02*
X0038974Y0122818D01*
X0046618Y0110836D02*
X0004545Y0110836D01*
X0004545Y0109838D02*
X0046350Y0109838D01*
X0046443Y0108839D02*
X0004545Y0108839D01*
X0004545Y0107841D02*
X0046535Y0107841D01*
X0046535Y0106842D02*
X0004545Y0106842D01*
X0004545Y0105844D02*
X0046535Y0105844D01*
X0046535Y0104845D02*
X0004545Y0104845D01*
X0004545Y0103847D02*
X0046535Y0103847D01*
X0046535Y0102848D02*
X0004545Y0102848D01*
X0004545Y0101850D02*
X0046535Y0101850D01*
X0046535Y0100851D02*
X0004545Y0100851D01*
X0004545Y0099853D02*
X0046535Y0099853D01*
X0046535Y0098854D02*
X0004545Y0098854D01*
X0004545Y0097856D02*
X0046535Y0097856D01*
X0012364Y0131805D02*
X0011789Y0131805D01*
X0011789Y0132803D02*
X0012364Y0132803D01*
X0012364Y0133802D02*
X0011789Y0133802D01*
X0011789Y0135799D02*
X0012364Y0135799D01*
X0012364Y0136798D02*
X0011789Y0136798D01*
X0011789Y0137796D02*
X0012364Y0137796D01*
X0008427Y0133802D02*
X0004545Y0133802D01*
X0004545Y0132803D02*
X0008427Y0132803D01*
X0008672Y0131805D02*
X0004545Y0131805D01*
X0081577Y0176738D02*
X0082577Y0176738D01*
X0082577Y0177737D02*
X0081577Y0177737D01*
X0081577Y0178735D02*
X0082577Y0178735D01*
X0082577Y0179734D02*
X0081577Y0179734D01*
X0081577Y0180732D02*
X0082577Y0180732D01*
X0082577Y0181731D02*
X0081577Y0181731D01*
X0081577Y0182729D02*
X0082577Y0182729D01*
X0082577Y0183728D02*
X0081577Y0183728D01*
X0081577Y0184726D02*
X0082577Y0184726D01*
X0082577Y0185725D02*
X0081577Y0185725D01*
X0081577Y0186723D02*
X0082577Y0186723D01*
X0082577Y0187722D02*
X0081577Y0187722D01*
X0081577Y0188720D02*
X0082577Y0188720D01*
X0082577Y0189719D02*
X0081577Y0189719D01*
X0081577Y0190717D02*
X0082577Y0190717D01*
X0082577Y0191716D02*
X0081577Y0191716D01*
X0081577Y0192714D02*
X0082577Y0192714D01*
X0082577Y0193713D02*
X0081577Y0193713D01*
X0081577Y0194711D02*
X0082577Y0194711D01*
X0082577Y0195710D02*
X0081577Y0195710D01*
X0081577Y0196708D02*
X0082577Y0196708D01*
X0082577Y0197707D02*
X0081577Y0197707D01*
X0081577Y0198705D02*
X0082577Y0198705D01*
X0082577Y0199704D02*
X0081577Y0199704D01*
X0081577Y0200702D02*
X0082577Y0200702D01*
X0082577Y0201701D02*
X0081577Y0201701D01*
X0081577Y0202699D02*
X0082577Y0202699D01*
X0082577Y0203698D02*
X0081577Y0203698D01*
X0081577Y0204696D02*
X0082577Y0204696D01*
X0082577Y0205695D02*
X0081577Y0205695D01*
X0081577Y0206693D02*
X0082577Y0206693D01*
X0082577Y0207692D02*
X0081577Y0207692D01*
X0081577Y0208690D02*
X0082577Y0208690D01*
X0082577Y0209689D02*
X0081577Y0209689D01*
X0081577Y0210687D02*
X0082577Y0210687D01*
X0082577Y0211686D02*
X0081577Y0211686D01*
X0170827Y0103847D02*
X0170827Y0103847D01*
X0170827Y0102848D02*
X0170827Y0102848D01*
X0170827Y0102250D02*
X0170827Y0102250D01*
X0170827Y0101850D02*
X0170827Y0101850D01*
X0170827Y0100851D02*
X0170827Y0100851D01*
X0204577Y0091000D02*
X0204577Y0088500D01*
X0213327Y0079750D01*
X0262077Y0005993D02*
X0331192Y0005993D01*
X0329897Y0004994D02*
X0262077Y0004994D01*
X0097077Y0011984D02*
X0097077Y0011984D01*
X0097077Y0012982D02*
X0097077Y0012982D01*
X0097077Y0013500D02*
X0097077Y0013500D01*
X0097077Y0013981D02*
X0097077Y0013981D01*
X0097077Y0014979D02*
X0097077Y0014979D01*
X0053327Y0044934D02*
X0053327Y0044934D01*
X0053327Y0045933D02*
X0053327Y0045933D01*
X0053327Y0046000D02*
X0053327Y0046000D01*
X0053327Y0046932D02*
X0053327Y0046932D01*
X0053327Y0047930D02*
X0053327Y0047930D01*
D24*
X0068327Y0028500D02*
X0068327Y0088500D01*
X0064577Y0092250D01*
X0053327Y0092250D01*
X0048327Y0097250D01*
X0048327Y0109750D01*
X0047077Y0117250D02*
X0037077Y0127250D01*
X0030827Y0127250D01*
X0068327Y0028500D02*
X0069577Y0027250D01*
X0135827Y0027250D01*
X0247077Y0035439D02*
X0247264Y0035252D01*
X0246890Y0043126D02*
X0247077Y0043313D01*
X0277077Y0035252D02*
X0277264Y0035439D01*
X0307077Y0035439D02*
X0310266Y0035439D01*
D25*
X0313327Y0038500D01*
X0313327Y0084750D01*
X0307510Y0090567D01*
X0307510Y0100469D01*
X0264577Y0043500D02*
X0247264Y0043500D01*
X0247077Y0043313D01*
X0246890Y0043126D02*
X0212077Y0043126D01*
X0247264Y0035252D02*
X0277077Y0035252D01*
X0277264Y0035439D02*
X0307077Y0035439D01*
M02*
