%
M48
M72
T01C0.01181
T02C0.02559
T03C0.03150
T04C0.03346
T05C0.03600
T06C0.03937
T07C0.04000
T08C0.07300
T09C0.07874
T10C0.08268
T11C0.10827
%
T01
X53327Y46000
X44577Y68500
X53327Y87250
X48327Y109750
X47077Y117250
X30827Y127250
X10827Y148500
X22077Y151000
X20827Y189750
X12077Y192250
X87077Y126000
X87077Y113500
X95827Y81000
X110827Y81000
X117077Y73500
X125827Y81000
X124577Y62250
X107077Y58500
X98327Y46000
X100827Y37250
X97077Y13500
X135827Y27250
X87077Y58500
X170827Y102250
X204577Y91000
X213327Y79750
X219577Y77250
X224577Y77250
X223327Y91000
X219577Y91000
X245827Y71000
X298327Y83500
X284577Y113500
X280827Y119750
X273327Y124750
X269577Y121000
X267077Y113500
X279577Y131000
X289577Y134750
X300827Y124750
X259577Y134750
X328327Y32250
X328327Y21000
T02
X272077Y96000
X267077Y96000
X267077Y101000
X272077Y101000
X262077Y101000
X257077Y101000
X257077Y96000
X262077Y96000
X252077Y96000
X252077Y101000
X232077Y116000
X232077Y121000
X232077Y126000
X232077Y131000
X232077Y136000
X232077Y141000
X232077Y146000
X232077Y151000
X232077Y156000
X232077Y161000
X312077Y161000
X312077Y156000
X312077Y151000
X312077Y146000
X312077Y141000
X312077Y136000
X312077Y131000
X312077Y126000
X312077Y121000
X312077Y116000
T03
X277077Y66748
X277077Y58874
X277077Y51000
X277077Y43126
X277077Y35252
X307077Y35439
X307077Y43313
X307077Y51187
X307077Y59061
X247077Y59061
X247077Y51187
X247077Y43313
X247077Y35439
X212077Y35252
X212077Y43126
X212077Y51000
X212077Y58874
X212077Y66748
X12077Y127063
X12077Y134937
T04
X254577Y141000
X259577Y141000
X264577Y141000
X269577Y141000
X274577Y141000
X279577Y141000
X284577Y141000
X289577Y141000
T05
X289577Y67250
X290827Y51000
T06
X123022Y170094
X123022Y182299
X41132Y182299
X41132Y170094
T07
X152077Y91000
X152077Y71000
T08
X35827Y89000
X35827Y51500
T09
X172077Y161000
X172077Y181000
X307510Y100469
T10
X236644Y100469
T11
X15856Y14780
X244203Y14780
X244203Y207693
X15856Y207693
M30
