G75*
%MOIN*%
%OFA0B0*%
%FSLAX25Y25*%
%IPPOS*%
%LPD*%
%AMOC8*
5,1,8,0,0,1.08239X$1,22.5*
%
%ADD10C,0.10827*%
%ADD11C,0.10000*%
%ADD12OC8,0.10000*%
%ADD13C,0.15000*%
%ADD14OC8,0.15000*%
%ADD15R,0.03937X0.05512*%
%ADD16R,0.04331X0.03937*%
%ADD17R,0.05906X0.03543*%
%ADD18R,0.03100X0.03500*%
%ADD19R,0.07874X0.08268*%
%ADD20R,0.07480X0.06299*%
%ADD21R,0.05315X0.01575*%
%ADD22C,0.03937*%
%ADD23C,0.17717*%
%ADD24R,0.03150X0.03937*%
%ADD25R,0.02756X0.03937*%
%ADD26R,0.03937X0.03150*%
%ADD27R,0.03937X0.02756*%
%ADD28C,0.04331*%
%ADD29C,0.03346*%
%ADD30R,0.04724X0.04724*%
%ADD31C,0.04724*%
%ADD32R,0.07874X0.07874*%
%ADD33C,0.09055*%
%ADD34R,0.02756X0.03543*%
%ADD35OC8,0.06300*%
%ADD36R,0.06299X0.07087*%
D10*
X0015856Y0014780D03*
X0244203Y0014780D03*
X0244203Y0207693D03*
X0015856Y0207693D03*
D11*
X0152077Y0091000D03*
D12*
X0152077Y0071000D03*
D13*
X0035827Y0089000D03*
X0035827Y0051500D03*
X0172077Y0181000D03*
D14*
X0172077Y0161000D03*
D15*
X0122077Y0095331D03*
X0125817Y0086669D03*
X0118337Y0086669D03*
X0110817Y0086669D03*
X0103337Y0086669D03*
X0095817Y0086669D03*
X0088337Y0086669D03*
X0092077Y0095331D03*
X0107077Y0095331D03*
X0117077Y0050331D03*
X0120817Y0041669D03*
X0113337Y0041669D03*
X0100817Y0041669D03*
X0093337Y0041669D03*
X0097077Y0050331D03*
D16*
X0097077Y0062654D03*
X0097077Y0069346D03*
X0107077Y0069346D03*
X0107077Y0062654D03*
X0117077Y0062654D03*
X0117077Y0069346D03*
X0087077Y0069346D03*
X0087077Y0062654D03*
X0097077Y0024346D03*
X0097077Y0017654D03*
X0182077Y0057654D03*
X0182077Y0064346D03*
X0192077Y0064346D03*
X0192077Y0057654D03*
X0162077Y0102654D03*
X0162077Y0109346D03*
X0162077Y0117654D03*
X0162077Y0124346D03*
X0107077Y0119346D03*
X0107077Y0112654D03*
X0092077Y0112654D03*
X0092077Y0119346D03*
D17*
X0127077Y0122102D03*
X0127077Y0109898D03*
D18*
X0100777Y0137000D03*
X0093177Y0137000D03*
X0096977Y0145000D03*
X0133377Y0050000D03*
X0140977Y0050000D03*
X0137177Y0042000D03*
D19*
X0021329Y0158795D03*
X0021329Y0183205D03*
D20*
X0012077Y0187142D03*
X0012077Y0154858D03*
D21*
X0022608Y0165882D03*
X0022608Y0168441D03*
X0022608Y0171000D03*
X0022608Y0173559D03*
X0022608Y0176118D03*
D22*
X0228140Y0161000D02*
X0232077Y0161000D01*
X0232077Y0156000D02*
X0228140Y0156000D01*
X0228140Y0151000D02*
X0232077Y0151000D01*
X0232077Y0146000D02*
X0228140Y0146000D01*
X0228140Y0141000D02*
X0232077Y0141000D01*
X0232077Y0136000D02*
X0228140Y0136000D01*
X0228140Y0131000D02*
X0232077Y0131000D01*
X0232077Y0126000D02*
X0228140Y0126000D01*
X0228140Y0121000D02*
X0232077Y0121000D01*
X0232077Y0116000D02*
X0228140Y0116000D01*
X0252077Y0104937D02*
X0252077Y0101000D01*
X0257077Y0101000D02*
X0257077Y0104937D01*
X0262077Y0104937D02*
X0262077Y0101000D01*
X0267077Y0101000D02*
X0267077Y0104937D01*
X0272077Y0104937D02*
X0272077Y0101000D01*
X0272077Y0096000D02*
X0272077Y0092063D01*
X0267077Y0092063D02*
X0267077Y0096000D01*
X0262077Y0096000D02*
X0262077Y0092063D01*
X0257077Y0092063D02*
X0257077Y0096000D01*
X0252077Y0096000D02*
X0252077Y0092063D01*
X0312077Y0116000D02*
X0316014Y0116000D01*
X0316014Y0121000D02*
X0312077Y0121000D01*
X0312077Y0126000D02*
X0316014Y0126000D01*
X0316014Y0131000D02*
X0312077Y0131000D01*
X0312077Y0136000D02*
X0316014Y0136000D01*
X0316014Y0141000D02*
X0312077Y0141000D01*
X0312077Y0146000D02*
X0316014Y0146000D01*
X0316014Y0151000D02*
X0312077Y0151000D01*
X0312077Y0156000D02*
X0316014Y0156000D01*
X0316014Y0161000D02*
X0312077Y0161000D01*
D23*
X0307510Y0100469D03*
X0236644Y0100469D03*
D24*
X0066014Y0090724D03*
X0058140Y0090724D03*
X0058140Y0081276D03*
X0066014Y0081276D03*
X0066014Y0055724D03*
X0058140Y0055724D03*
X0058140Y0046276D03*
X0066014Y0046276D03*
D25*
X0062077Y0046276D03*
X0062077Y0090724D03*
D26*
X0066801Y0102063D03*
X0057352Y0102063D03*
X0057352Y0109937D03*
X0057352Y0117063D03*
X0057352Y0124937D03*
X0066801Y0124937D03*
X0066801Y0117063D03*
X0066801Y0109937D03*
D27*
X0057352Y0106000D03*
X0057352Y0121000D03*
D28*
X0254577Y0140212D02*
X0254577Y0141788D01*
X0254577Y0141788D01*
X0254577Y0140212D01*
X0254577Y0140212D01*
X0259577Y0140212D02*
X0259577Y0141788D01*
X0259577Y0141788D01*
X0259577Y0140212D01*
X0259577Y0140212D01*
X0264577Y0140212D02*
X0264577Y0141788D01*
X0264577Y0141788D01*
X0264577Y0140212D01*
X0264577Y0140212D01*
X0269577Y0140212D02*
X0269577Y0141788D01*
X0269577Y0141788D01*
X0269577Y0140212D01*
X0269577Y0140212D01*
X0274577Y0140212D02*
X0274577Y0141788D01*
X0274577Y0141788D01*
X0274577Y0140212D01*
X0274577Y0140212D01*
X0279577Y0140212D02*
X0279577Y0141788D01*
X0279577Y0141788D01*
X0279577Y0140212D01*
X0279577Y0140212D01*
X0284577Y0140212D02*
X0284577Y0141788D01*
X0284577Y0141788D01*
X0284577Y0140212D01*
X0284577Y0140212D01*
X0289577Y0140212D02*
X0289577Y0141788D01*
X0289577Y0141788D01*
X0289577Y0140212D01*
X0289577Y0140212D01*
D29*
X0289577Y0141000D03*
X0284577Y0141000D03*
X0279577Y0141000D03*
X0274577Y0141000D03*
X0269577Y0141000D03*
X0264577Y0141000D03*
X0259577Y0141000D03*
X0254577Y0141000D03*
D30*
X0247077Y0035439D03*
X0277077Y0035252D03*
X0307077Y0035439D03*
X0212077Y0035252D03*
X0012077Y0134937D03*
D31*
X0012077Y0127063D03*
X0212077Y0066748D03*
X0212077Y0058874D03*
X0212077Y0051000D03*
X0212077Y0043126D03*
X0247077Y0043313D03*
X0247077Y0051187D03*
X0247077Y0059061D03*
X0277077Y0058874D03*
X0277077Y0066748D03*
X0277077Y0051000D03*
X0277077Y0043126D03*
X0307077Y0043313D03*
X0307077Y0051187D03*
X0307077Y0059061D03*
D32*
X0067844Y0068500D03*
X0051309Y0068500D03*
D33*
X0041132Y0170094D03*
X0041132Y0182299D03*
X0123022Y0182299D03*
X0123022Y0170094D03*
D34*
X0298337Y0080134D03*
X0305817Y0080134D03*
X0302077Y0071866D03*
D35*
X0289577Y0067250D03*
X0290827Y0051000D03*
D36*
X0263839Y0071000D03*
X0252815Y0071000D03*
M02*
