G75*
%MOIN*%
%OFA0B0*%
%FSLAX25Y25*%
%IPPOS*%
%LPD*%
%AMOC8*
5,1,8,0,0,1.08239X$1,22.5*
%
%ADD10C,0.10827*%
%ADD11C,0.10000*%
%ADD12OC8,0.10000*%
%ADD13C,0.15000*%
%ADD14OC8,0.15000*%
%ADD15C,0.03937*%
%ADD16C,0.17717*%
%ADD17C,0.04331*%
%ADD18C,0.03346*%
%ADD19R,0.04724X0.04724*%
%ADD20C,0.04724*%
%ADD21C,0.09055*%
%ADD22C,0.70079*%
%ADD23OC8,0.06300*%
D10*
X0015856Y0014780D03*
X0244203Y0014780D03*
X0244203Y0207693D03*
X0015856Y0207693D03*
D11*
X0152077Y0091000D03*
D12*
X0152077Y0071000D03*
D13*
X0035827Y0089000D03*
X0035827Y0051500D03*
X0172077Y0181000D03*
D14*
X0172077Y0161000D03*
D15*
X0228140Y0161000D02*
X0232077Y0161000D01*
X0232077Y0156000D02*
X0228140Y0156000D01*
X0228140Y0151000D02*
X0232077Y0151000D01*
X0232077Y0146000D02*
X0228140Y0146000D01*
X0228140Y0141000D02*
X0232077Y0141000D01*
X0232077Y0136000D02*
X0228140Y0136000D01*
X0228140Y0131000D02*
X0232077Y0131000D01*
X0232077Y0126000D02*
X0228140Y0126000D01*
X0228140Y0121000D02*
X0232077Y0121000D01*
X0232077Y0116000D02*
X0228140Y0116000D01*
X0252077Y0104937D02*
X0252077Y0101000D01*
X0257077Y0101000D02*
X0257077Y0104937D01*
X0262077Y0104937D02*
X0262077Y0101000D01*
X0267077Y0101000D02*
X0267077Y0104937D01*
X0272077Y0104937D02*
X0272077Y0101000D01*
X0272077Y0096000D02*
X0272077Y0092063D01*
X0267077Y0092063D02*
X0267077Y0096000D01*
X0262077Y0096000D02*
X0262077Y0092063D01*
X0257077Y0092063D02*
X0257077Y0096000D01*
X0252077Y0096000D02*
X0252077Y0092063D01*
X0312077Y0116000D02*
X0316014Y0116000D01*
X0316014Y0121000D02*
X0312077Y0121000D01*
X0312077Y0126000D02*
X0316014Y0126000D01*
X0316014Y0131000D02*
X0312077Y0131000D01*
X0312077Y0136000D02*
X0316014Y0136000D01*
X0316014Y0141000D02*
X0312077Y0141000D01*
X0312077Y0146000D02*
X0316014Y0146000D01*
X0316014Y0151000D02*
X0312077Y0151000D01*
X0312077Y0156000D02*
X0316014Y0156000D01*
X0316014Y0161000D02*
X0312077Y0161000D01*
D16*
X0307510Y0100469D03*
X0236644Y0100469D03*
D17*
X0254577Y0140212D02*
X0254577Y0141788D01*
X0254577Y0141788D01*
X0254577Y0140212D01*
X0254577Y0140212D01*
X0259577Y0140212D02*
X0259577Y0141788D01*
X0259577Y0141788D01*
X0259577Y0140212D01*
X0259577Y0140212D01*
X0264577Y0140212D02*
X0264577Y0141788D01*
X0264577Y0141788D01*
X0264577Y0140212D01*
X0264577Y0140212D01*
X0269577Y0140212D02*
X0269577Y0141788D01*
X0269577Y0141788D01*
X0269577Y0140212D01*
X0269577Y0140212D01*
X0274577Y0140212D02*
X0274577Y0141788D01*
X0274577Y0141788D01*
X0274577Y0140212D01*
X0274577Y0140212D01*
X0279577Y0140212D02*
X0279577Y0141788D01*
X0279577Y0141788D01*
X0279577Y0140212D01*
X0279577Y0140212D01*
X0284577Y0140212D02*
X0284577Y0141788D01*
X0284577Y0141788D01*
X0284577Y0140212D01*
X0284577Y0140212D01*
X0289577Y0140212D02*
X0289577Y0141788D01*
X0289577Y0141788D01*
X0289577Y0140212D01*
X0289577Y0140212D01*
D18*
X0289577Y0141000D03*
X0284577Y0141000D03*
X0279577Y0141000D03*
X0274577Y0141000D03*
X0269577Y0141000D03*
X0264577Y0141000D03*
X0259577Y0141000D03*
X0254577Y0141000D03*
D19*
X0247077Y0035439D03*
X0277077Y0035252D03*
X0307077Y0035439D03*
X0212077Y0035252D03*
X0012077Y0134937D03*
D20*
X0012077Y0127063D03*
X0212077Y0066748D03*
X0212077Y0058874D03*
X0212077Y0051000D03*
X0212077Y0043126D03*
X0247077Y0043313D03*
X0247077Y0051187D03*
X0247077Y0059061D03*
X0277077Y0058874D03*
X0277077Y0066748D03*
X0277077Y0051000D03*
X0277077Y0043126D03*
X0307077Y0043313D03*
X0307077Y0051187D03*
X0307077Y0059061D03*
D21*
X0123022Y0170094D03*
X0123022Y0182299D03*
X0041132Y0182299D03*
X0041132Y0170094D03*
D22*
X0082077Y0176000D03*
D23*
X0289577Y0067250D03*
X0290827Y0051000D03*
M02*
