G75*
%MOIN*%
%OFA0B0*%
%FSLAX25Y25*%
%IPPOS*%
%LPD*%
%AMOC8*
5,1,8,0,0,1.08239X$1,22.5*
%
%ADD10C,0.00000*%
%ADD11C,0.00600*%
%ADD12C,0.00400*%
%ADD13R,0.09000X0.02500*%
%ADD14C,0.00500*%
D10*
X0013888Y0001000D02*
X0324911Y0001000D01*
X0325196Y0001003D01*
X0325482Y0001014D01*
X0325767Y0001031D01*
X0326051Y0001055D01*
X0326335Y0001086D01*
X0326618Y0001124D01*
X0326899Y0001169D01*
X0327180Y0001220D01*
X0327460Y0001278D01*
X0327738Y0001343D01*
X0328014Y0001415D01*
X0328288Y0001493D01*
X0328561Y0001578D01*
X0328831Y0001670D01*
X0329099Y0001768D01*
X0329365Y0001872D01*
X0329628Y0001983D01*
X0329888Y0002100D01*
X0330146Y0002223D01*
X0330400Y0002353D01*
X0330651Y0002489D01*
X0330899Y0002630D01*
X0331143Y0002778D01*
X0331384Y0002931D01*
X0331620Y0003091D01*
X0331853Y0003256D01*
X0332082Y0003426D01*
X0332307Y0003602D01*
X0332527Y0003784D01*
X0332743Y0003970D01*
X0332954Y0004162D01*
X0333161Y0004359D01*
X0333363Y0004561D01*
X0333560Y0004768D01*
X0333752Y0004979D01*
X0333938Y0005195D01*
X0334120Y0005415D01*
X0334296Y0005640D01*
X0334466Y0005869D01*
X0334631Y0006102D01*
X0334791Y0006338D01*
X0334944Y0006579D01*
X0335092Y0006823D01*
X0335233Y0007071D01*
X0335369Y0007322D01*
X0335499Y0007576D01*
X0335622Y0007834D01*
X0335739Y0008094D01*
X0335850Y0008357D01*
X0335954Y0008623D01*
X0336052Y0008891D01*
X0336144Y0009161D01*
X0336229Y0009434D01*
X0336307Y0009708D01*
X0336379Y0009984D01*
X0336444Y0010262D01*
X0336502Y0010542D01*
X0336553Y0010823D01*
X0336598Y0011104D01*
X0336636Y0011387D01*
X0336667Y0011671D01*
X0336691Y0011955D01*
X0336708Y0012240D01*
X0336719Y0012526D01*
X0336722Y0012811D01*
X0336722Y0209661D01*
X0336719Y0209946D01*
X0336708Y0210232D01*
X0336691Y0210517D01*
X0336667Y0210801D01*
X0336636Y0211085D01*
X0336598Y0211368D01*
X0336553Y0211649D01*
X0336502Y0211930D01*
X0336444Y0212210D01*
X0336379Y0212488D01*
X0336307Y0212764D01*
X0336229Y0213038D01*
X0336144Y0213311D01*
X0336052Y0213581D01*
X0335954Y0213849D01*
X0335850Y0214115D01*
X0335739Y0214378D01*
X0335622Y0214638D01*
X0335499Y0214896D01*
X0335369Y0215150D01*
X0335233Y0215401D01*
X0335092Y0215649D01*
X0334944Y0215893D01*
X0334791Y0216134D01*
X0334631Y0216370D01*
X0334466Y0216603D01*
X0334296Y0216832D01*
X0334120Y0217057D01*
X0333938Y0217277D01*
X0333752Y0217493D01*
X0333560Y0217704D01*
X0333363Y0217911D01*
X0333161Y0218113D01*
X0332954Y0218310D01*
X0332743Y0218502D01*
X0332527Y0218688D01*
X0332307Y0218870D01*
X0332082Y0219046D01*
X0331853Y0219216D01*
X0331620Y0219381D01*
X0331384Y0219541D01*
X0331143Y0219694D01*
X0330899Y0219842D01*
X0330651Y0219983D01*
X0330400Y0220119D01*
X0330146Y0220249D01*
X0329888Y0220372D01*
X0329628Y0220489D01*
X0329365Y0220600D01*
X0329099Y0220704D01*
X0328831Y0220802D01*
X0328561Y0220894D01*
X0328288Y0220979D01*
X0328014Y0221057D01*
X0327738Y0221129D01*
X0327460Y0221194D01*
X0327180Y0221252D01*
X0326899Y0221303D01*
X0326618Y0221348D01*
X0326335Y0221386D01*
X0326051Y0221417D01*
X0325767Y0221441D01*
X0325482Y0221458D01*
X0325196Y0221469D01*
X0324911Y0221472D01*
X0013888Y0221472D01*
X0013603Y0221469D01*
X0013317Y0221458D01*
X0013032Y0221441D01*
X0012748Y0221417D01*
X0012464Y0221386D01*
X0012181Y0221348D01*
X0011900Y0221303D01*
X0011619Y0221252D01*
X0011339Y0221194D01*
X0011061Y0221129D01*
X0010785Y0221057D01*
X0010511Y0220979D01*
X0010238Y0220894D01*
X0009968Y0220802D01*
X0009700Y0220704D01*
X0009434Y0220600D01*
X0009171Y0220489D01*
X0008911Y0220372D01*
X0008653Y0220249D01*
X0008399Y0220119D01*
X0008148Y0219983D01*
X0007900Y0219842D01*
X0007656Y0219694D01*
X0007415Y0219541D01*
X0007179Y0219381D01*
X0006946Y0219216D01*
X0006717Y0219046D01*
X0006492Y0218870D01*
X0006272Y0218688D01*
X0006056Y0218502D01*
X0005845Y0218310D01*
X0005638Y0218113D01*
X0005436Y0217911D01*
X0005239Y0217704D01*
X0005047Y0217493D01*
X0004861Y0217277D01*
X0004679Y0217057D01*
X0004503Y0216832D01*
X0004333Y0216603D01*
X0004168Y0216370D01*
X0004008Y0216134D01*
X0003855Y0215893D01*
X0003707Y0215649D01*
X0003566Y0215401D01*
X0003430Y0215150D01*
X0003300Y0214896D01*
X0003177Y0214638D01*
X0003060Y0214378D01*
X0002949Y0214115D01*
X0002845Y0213849D01*
X0002747Y0213581D01*
X0002655Y0213311D01*
X0002570Y0213038D01*
X0002492Y0212764D01*
X0002420Y0212488D01*
X0002355Y0212210D01*
X0002297Y0211930D01*
X0002246Y0211649D01*
X0002201Y0211368D01*
X0002163Y0211085D01*
X0002132Y0210801D01*
X0002108Y0210517D01*
X0002091Y0210232D01*
X0002080Y0209946D01*
X0002077Y0209661D01*
X0002077Y0012811D01*
X0002080Y0012526D01*
X0002091Y0012240D01*
X0002108Y0011955D01*
X0002132Y0011671D01*
X0002163Y0011387D01*
X0002201Y0011104D01*
X0002246Y0010823D01*
X0002297Y0010542D01*
X0002355Y0010262D01*
X0002420Y0009984D01*
X0002492Y0009708D01*
X0002570Y0009434D01*
X0002655Y0009161D01*
X0002747Y0008891D01*
X0002845Y0008623D01*
X0002949Y0008357D01*
X0003060Y0008094D01*
X0003177Y0007834D01*
X0003300Y0007576D01*
X0003430Y0007322D01*
X0003566Y0007071D01*
X0003707Y0006823D01*
X0003855Y0006579D01*
X0004008Y0006338D01*
X0004168Y0006102D01*
X0004333Y0005869D01*
X0004503Y0005640D01*
X0004679Y0005415D01*
X0004861Y0005195D01*
X0005047Y0004979D01*
X0005239Y0004768D01*
X0005436Y0004561D01*
X0005638Y0004359D01*
X0005845Y0004162D01*
X0006056Y0003970D01*
X0006272Y0003784D01*
X0006492Y0003602D01*
X0006717Y0003426D01*
X0006946Y0003256D01*
X0007179Y0003091D01*
X0007415Y0002931D01*
X0007656Y0002778D01*
X0007900Y0002630D01*
X0008148Y0002489D01*
X0008399Y0002353D01*
X0008653Y0002223D01*
X0008911Y0002100D01*
X0009171Y0001983D01*
X0009434Y0001872D01*
X0009700Y0001768D01*
X0009968Y0001670D01*
X0010238Y0001578D01*
X0010511Y0001493D01*
X0010785Y0001415D01*
X0011061Y0001343D01*
X0011339Y0001278D01*
X0011619Y0001220D01*
X0011900Y0001169D01*
X0012181Y0001124D01*
X0012464Y0001086D01*
X0012748Y0001055D01*
X0013032Y0001031D01*
X0013317Y0001014D01*
X0013603Y0001003D01*
X0013888Y0001000D01*
X0010443Y0014780D02*
X0010445Y0014927D01*
X0010451Y0015073D01*
X0010461Y0015219D01*
X0010475Y0015365D01*
X0010493Y0015511D01*
X0010514Y0015656D01*
X0010540Y0015800D01*
X0010570Y0015944D01*
X0010603Y0016086D01*
X0010640Y0016228D01*
X0010681Y0016369D01*
X0010726Y0016508D01*
X0010775Y0016647D01*
X0010827Y0016784D01*
X0010884Y0016919D01*
X0010943Y0017053D01*
X0011007Y0017185D01*
X0011074Y0017315D01*
X0011144Y0017444D01*
X0011218Y0017571D01*
X0011295Y0017695D01*
X0011376Y0017818D01*
X0011460Y0017938D01*
X0011547Y0018056D01*
X0011637Y0018171D01*
X0011730Y0018284D01*
X0011827Y0018395D01*
X0011926Y0018503D01*
X0012028Y0018608D01*
X0012133Y0018710D01*
X0012241Y0018809D01*
X0012352Y0018906D01*
X0012465Y0018999D01*
X0012580Y0019089D01*
X0012698Y0019176D01*
X0012818Y0019260D01*
X0012941Y0019341D01*
X0013065Y0019418D01*
X0013192Y0019492D01*
X0013321Y0019562D01*
X0013451Y0019629D01*
X0013583Y0019693D01*
X0013717Y0019752D01*
X0013852Y0019809D01*
X0013989Y0019861D01*
X0014128Y0019910D01*
X0014267Y0019955D01*
X0014408Y0019996D01*
X0014550Y0020033D01*
X0014692Y0020066D01*
X0014836Y0020096D01*
X0014980Y0020122D01*
X0015125Y0020143D01*
X0015271Y0020161D01*
X0015417Y0020175D01*
X0015563Y0020185D01*
X0015709Y0020191D01*
X0015856Y0020193D01*
X0016003Y0020191D01*
X0016149Y0020185D01*
X0016295Y0020175D01*
X0016441Y0020161D01*
X0016587Y0020143D01*
X0016732Y0020122D01*
X0016876Y0020096D01*
X0017020Y0020066D01*
X0017162Y0020033D01*
X0017304Y0019996D01*
X0017445Y0019955D01*
X0017584Y0019910D01*
X0017723Y0019861D01*
X0017860Y0019809D01*
X0017995Y0019752D01*
X0018129Y0019693D01*
X0018261Y0019629D01*
X0018391Y0019562D01*
X0018520Y0019492D01*
X0018647Y0019418D01*
X0018771Y0019341D01*
X0018894Y0019260D01*
X0019014Y0019176D01*
X0019132Y0019089D01*
X0019247Y0018999D01*
X0019360Y0018906D01*
X0019471Y0018809D01*
X0019579Y0018710D01*
X0019684Y0018608D01*
X0019786Y0018503D01*
X0019885Y0018395D01*
X0019982Y0018284D01*
X0020075Y0018171D01*
X0020165Y0018056D01*
X0020252Y0017938D01*
X0020336Y0017818D01*
X0020417Y0017695D01*
X0020494Y0017571D01*
X0020568Y0017444D01*
X0020638Y0017315D01*
X0020705Y0017185D01*
X0020769Y0017053D01*
X0020828Y0016919D01*
X0020885Y0016784D01*
X0020937Y0016647D01*
X0020986Y0016508D01*
X0021031Y0016369D01*
X0021072Y0016228D01*
X0021109Y0016086D01*
X0021142Y0015944D01*
X0021172Y0015800D01*
X0021198Y0015656D01*
X0021219Y0015511D01*
X0021237Y0015365D01*
X0021251Y0015219D01*
X0021261Y0015073D01*
X0021267Y0014927D01*
X0021269Y0014780D01*
X0021267Y0014633D01*
X0021261Y0014487D01*
X0021251Y0014341D01*
X0021237Y0014195D01*
X0021219Y0014049D01*
X0021198Y0013904D01*
X0021172Y0013760D01*
X0021142Y0013616D01*
X0021109Y0013474D01*
X0021072Y0013332D01*
X0021031Y0013191D01*
X0020986Y0013052D01*
X0020937Y0012913D01*
X0020885Y0012776D01*
X0020828Y0012641D01*
X0020769Y0012507D01*
X0020705Y0012375D01*
X0020638Y0012245D01*
X0020568Y0012116D01*
X0020494Y0011989D01*
X0020417Y0011865D01*
X0020336Y0011742D01*
X0020252Y0011622D01*
X0020165Y0011504D01*
X0020075Y0011389D01*
X0019982Y0011276D01*
X0019885Y0011165D01*
X0019786Y0011057D01*
X0019684Y0010952D01*
X0019579Y0010850D01*
X0019471Y0010751D01*
X0019360Y0010654D01*
X0019247Y0010561D01*
X0019132Y0010471D01*
X0019014Y0010384D01*
X0018894Y0010300D01*
X0018771Y0010219D01*
X0018647Y0010142D01*
X0018520Y0010068D01*
X0018391Y0009998D01*
X0018261Y0009931D01*
X0018129Y0009867D01*
X0017995Y0009808D01*
X0017860Y0009751D01*
X0017723Y0009699D01*
X0017584Y0009650D01*
X0017445Y0009605D01*
X0017304Y0009564D01*
X0017162Y0009527D01*
X0017020Y0009494D01*
X0016876Y0009464D01*
X0016732Y0009438D01*
X0016587Y0009417D01*
X0016441Y0009399D01*
X0016295Y0009385D01*
X0016149Y0009375D01*
X0016003Y0009369D01*
X0015856Y0009367D01*
X0015709Y0009369D01*
X0015563Y0009375D01*
X0015417Y0009385D01*
X0015271Y0009399D01*
X0015125Y0009417D01*
X0014980Y0009438D01*
X0014836Y0009464D01*
X0014692Y0009494D01*
X0014550Y0009527D01*
X0014408Y0009564D01*
X0014267Y0009605D01*
X0014128Y0009650D01*
X0013989Y0009699D01*
X0013852Y0009751D01*
X0013717Y0009808D01*
X0013583Y0009867D01*
X0013451Y0009931D01*
X0013321Y0009998D01*
X0013192Y0010068D01*
X0013065Y0010142D01*
X0012941Y0010219D01*
X0012818Y0010300D01*
X0012698Y0010384D01*
X0012580Y0010471D01*
X0012465Y0010561D01*
X0012352Y0010654D01*
X0012241Y0010751D01*
X0012133Y0010850D01*
X0012028Y0010952D01*
X0011926Y0011057D01*
X0011827Y0011165D01*
X0011730Y0011276D01*
X0011637Y0011389D01*
X0011547Y0011504D01*
X0011460Y0011622D01*
X0011376Y0011742D01*
X0011295Y0011865D01*
X0011218Y0011989D01*
X0011144Y0012116D01*
X0011074Y0012245D01*
X0011007Y0012375D01*
X0010943Y0012507D01*
X0010884Y0012641D01*
X0010827Y0012776D01*
X0010775Y0012913D01*
X0010726Y0013052D01*
X0010681Y0013191D01*
X0010640Y0013332D01*
X0010603Y0013474D01*
X0010570Y0013616D01*
X0010540Y0013760D01*
X0010514Y0013904D01*
X0010493Y0014049D01*
X0010475Y0014195D01*
X0010461Y0014341D01*
X0010451Y0014487D01*
X0010445Y0014633D01*
X0010443Y0014780D01*
X0238790Y0014780D02*
X0238792Y0014927D01*
X0238798Y0015073D01*
X0238808Y0015219D01*
X0238822Y0015365D01*
X0238840Y0015511D01*
X0238861Y0015656D01*
X0238887Y0015800D01*
X0238917Y0015944D01*
X0238950Y0016086D01*
X0238987Y0016228D01*
X0239028Y0016369D01*
X0239073Y0016508D01*
X0239122Y0016647D01*
X0239174Y0016784D01*
X0239231Y0016919D01*
X0239290Y0017053D01*
X0239354Y0017185D01*
X0239421Y0017315D01*
X0239491Y0017444D01*
X0239565Y0017571D01*
X0239642Y0017695D01*
X0239723Y0017818D01*
X0239807Y0017938D01*
X0239894Y0018056D01*
X0239984Y0018171D01*
X0240077Y0018284D01*
X0240174Y0018395D01*
X0240273Y0018503D01*
X0240375Y0018608D01*
X0240480Y0018710D01*
X0240588Y0018809D01*
X0240699Y0018906D01*
X0240812Y0018999D01*
X0240927Y0019089D01*
X0241045Y0019176D01*
X0241165Y0019260D01*
X0241288Y0019341D01*
X0241412Y0019418D01*
X0241539Y0019492D01*
X0241668Y0019562D01*
X0241798Y0019629D01*
X0241930Y0019693D01*
X0242064Y0019752D01*
X0242199Y0019809D01*
X0242336Y0019861D01*
X0242475Y0019910D01*
X0242614Y0019955D01*
X0242755Y0019996D01*
X0242897Y0020033D01*
X0243039Y0020066D01*
X0243183Y0020096D01*
X0243327Y0020122D01*
X0243472Y0020143D01*
X0243618Y0020161D01*
X0243764Y0020175D01*
X0243910Y0020185D01*
X0244056Y0020191D01*
X0244203Y0020193D01*
X0244350Y0020191D01*
X0244496Y0020185D01*
X0244642Y0020175D01*
X0244788Y0020161D01*
X0244934Y0020143D01*
X0245079Y0020122D01*
X0245223Y0020096D01*
X0245367Y0020066D01*
X0245509Y0020033D01*
X0245651Y0019996D01*
X0245792Y0019955D01*
X0245931Y0019910D01*
X0246070Y0019861D01*
X0246207Y0019809D01*
X0246342Y0019752D01*
X0246476Y0019693D01*
X0246608Y0019629D01*
X0246738Y0019562D01*
X0246867Y0019492D01*
X0246994Y0019418D01*
X0247118Y0019341D01*
X0247241Y0019260D01*
X0247361Y0019176D01*
X0247479Y0019089D01*
X0247594Y0018999D01*
X0247707Y0018906D01*
X0247818Y0018809D01*
X0247926Y0018710D01*
X0248031Y0018608D01*
X0248133Y0018503D01*
X0248232Y0018395D01*
X0248329Y0018284D01*
X0248422Y0018171D01*
X0248512Y0018056D01*
X0248599Y0017938D01*
X0248683Y0017818D01*
X0248764Y0017695D01*
X0248841Y0017571D01*
X0248915Y0017444D01*
X0248985Y0017315D01*
X0249052Y0017185D01*
X0249116Y0017053D01*
X0249175Y0016919D01*
X0249232Y0016784D01*
X0249284Y0016647D01*
X0249333Y0016508D01*
X0249378Y0016369D01*
X0249419Y0016228D01*
X0249456Y0016086D01*
X0249489Y0015944D01*
X0249519Y0015800D01*
X0249545Y0015656D01*
X0249566Y0015511D01*
X0249584Y0015365D01*
X0249598Y0015219D01*
X0249608Y0015073D01*
X0249614Y0014927D01*
X0249616Y0014780D01*
X0249614Y0014633D01*
X0249608Y0014487D01*
X0249598Y0014341D01*
X0249584Y0014195D01*
X0249566Y0014049D01*
X0249545Y0013904D01*
X0249519Y0013760D01*
X0249489Y0013616D01*
X0249456Y0013474D01*
X0249419Y0013332D01*
X0249378Y0013191D01*
X0249333Y0013052D01*
X0249284Y0012913D01*
X0249232Y0012776D01*
X0249175Y0012641D01*
X0249116Y0012507D01*
X0249052Y0012375D01*
X0248985Y0012245D01*
X0248915Y0012116D01*
X0248841Y0011989D01*
X0248764Y0011865D01*
X0248683Y0011742D01*
X0248599Y0011622D01*
X0248512Y0011504D01*
X0248422Y0011389D01*
X0248329Y0011276D01*
X0248232Y0011165D01*
X0248133Y0011057D01*
X0248031Y0010952D01*
X0247926Y0010850D01*
X0247818Y0010751D01*
X0247707Y0010654D01*
X0247594Y0010561D01*
X0247479Y0010471D01*
X0247361Y0010384D01*
X0247241Y0010300D01*
X0247118Y0010219D01*
X0246994Y0010142D01*
X0246867Y0010068D01*
X0246738Y0009998D01*
X0246608Y0009931D01*
X0246476Y0009867D01*
X0246342Y0009808D01*
X0246207Y0009751D01*
X0246070Y0009699D01*
X0245931Y0009650D01*
X0245792Y0009605D01*
X0245651Y0009564D01*
X0245509Y0009527D01*
X0245367Y0009494D01*
X0245223Y0009464D01*
X0245079Y0009438D01*
X0244934Y0009417D01*
X0244788Y0009399D01*
X0244642Y0009385D01*
X0244496Y0009375D01*
X0244350Y0009369D01*
X0244203Y0009367D01*
X0244056Y0009369D01*
X0243910Y0009375D01*
X0243764Y0009385D01*
X0243618Y0009399D01*
X0243472Y0009417D01*
X0243327Y0009438D01*
X0243183Y0009464D01*
X0243039Y0009494D01*
X0242897Y0009527D01*
X0242755Y0009564D01*
X0242614Y0009605D01*
X0242475Y0009650D01*
X0242336Y0009699D01*
X0242199Y0009751D01*
X0242064Y0009808D01*
X0241930Y0009867D01*
X0241798Y0009931D01*
X0241668Y0009998D01*
X0241539Y0010068D01*
X0241412Y0010142D01*
X0241288Y0010219D01*
X0241165Y0010300D01*
X0241045Y0010384D01*
X0240927Y0010471D01*
X0240812Y0010561D01*
X0240699Y0010654D01*
X0240588Y0010751D01*
X0240480Y0010850D01*
X0240375Y0010952D01*
X0240273Y0011057D01*
X0240174Y0011165D01*
X0240077Y0011276D01*
X0239984Y0011389D01*
X0239894Y0011504D01*
X0239807Y0011622D01*
X0239723Y0011742D01*
X0239642Y0011865D01*
X0239565Y0011989D01*
X0239491Y0012116D01*
X0239421Y0012245D01*
X0239354Y0012375D01*
X0239290Y0012507D01*
X0239231Y0012641D01*
X0239174Y0012776D01*
X0239122Y0012913D01*
X0239073Y0013052D01*
X0239028Y0013191D01*
X0238987Y0013332D01*
X0238950Y0013474D01*
X0238917Y0013616D01*
X0238887Y0013760D01*
X0238861Y0013904D01*
X0238840Y0014049D01*
X0238822Y0014195D01*
X0238808Y0014341D01*
X0238798Y0014487D01*
X0238792Y0014633D01*
X0238790Y0014780D01*
X0252904Y0141000D02*
X0252906Y0141081D01*
X0252912Y0141163D01*
X0252922Y0141244D01*
X0252936Y0141324D01*
X0252953Y0141403D01*
X0252975Y0141482D01*
X0253000Y0141559D01*
X0253029Y0141636D01*
X0253062Y0141710D01*
X0253099Y0141783D01*
X0253138Y0141854D01*
X0253182Y0141923D01*
X0253228Y0141990D01*
X0253278Y0142054D01*
X0253331Y0142116D01*
X0253387Y0142176D01*
X0253445Y0142232D01*
X0253507Y0142286D01*
X0253571Y0142337D01*
X0253637Y0142384D01*
X0253705Y0142428D01*
X0253776Y0142469D01*
X0253848Y0142506D01*
X0253923Y0142540D01*
X0253998Y0142570D01*
X0254076Y0142596D01*
X0254154Y0142619D01*
X0254233Y0142637D01*
X0254313Y0142652D01*
X0254394Y0142663D01*
X0254475Y0142670D01*
X0254557Y0142673D01*
X0254638Y0142672D01*
X0254719Y0142667D01*
X0254800Y0142658D01*
X0254881Y0142645D01*
X0254961Y0142628D01*
X0255039Y0142608D01*
X0255117Y0142583D01*
X0255194Y0142555D01*
X0255269Y0142523D01*
X0255342Y0142488D01*
X0255413Y0142449D01*
X0255483Y0142406D01*
X0255550Y0142361D01*
X0255616Y0142312D01*
X0255678Y0142260D01*
X0255738Y0142204D01*
X0255795Y0142146D01*
X0255850Y0142086D01*
X0255901Y0142022D01*
X0255949Y0141957D01*
X0255994Y0141889D01*
X0256036Y0141819D01*
X0256074Y0141747D01*
X0256109Y0141673D01*
X0256140Y0141598D01*
X0256167Y0141521D01*
X0256190Y0141443D01*
X0256210Y0141364D01*
X0256226Y0141284D01*
X0256238Y0141203D01*
X0256246Y0141122D01*
X0256250Y0141041D01*
X0256250Y0140959D01*
X0256246Y0140878D01*
X0256238Y0140797D01*
X0256226Y0140716D01*
X0256210Y0140636D01*
X0256190Y0140557D01*
X0256167Y0140479D01*
X0256140Y0140402D01*
X0256109Y0140327D01*
X0256074Y0140253D01*
X0256036Y0140181D01*
X0255994Y0140111D01*
X0255949Y0140043D01*
X0255901Y0139978D01*
X0255850Y0139914D01*
X0255795Y0139854D01*
X0255738Y0139796D01*
X0255678Y0139740D01*
X0255616Y0139688D01*
X0255550Y0139639D01*
X0255483Y0139594D01*
X0255414Y0139551D01*
X0255342Y0139512D01*
X0255269Y0139477D01*
X0255194Y0139445D01*
X0255117Y0139417D01*
X0255039Y0139392D01*
X0254961Y0139372D01*
X0254881Y0139355D01*
X0254800Y0139342D01*
X0254719Y0139333D01*
X0254638Y0139328D01*
X0254557Y0139327D01*
X0254475Y0139330D01*
X0254394Y0139337D01*
X0254313Y0139348D01*
X0254233Y0139363D01*
X0254154Y0139381D01*
X0254076Y0139404D01*
X0253998Y0139430D01*
X0253923Y0139460D01*
X0253848Y0139494D01*
X0253776Y0139531D01*
X0253705Y0139572D01*
X0253637Y0139616D01*
X0253571Y0139663D01*
X0253507Y0139714D01*
X0253445Y0139768D01*
X0253387Y0139824D01*
X0253331Y0139884D01*
X0253278Y0139946D01*
X0253228Y0140010D01*
X0253182Y0140077D01*
X0253138Y0140146D01*
X0253099Y0140217D01*
X0253062Y0140290D01*
X0253029Y0140364D01*
X0253000Y0140441D01*
X0252975Y0140518D01*
X0252953Y0140597D01*
X0252936Y0140676D01*
X0252922Y0140756D01*
X0252912Y0140837D01*
X0252906Y0140919D01*
X0252904Y0141000D01*
X0257904Y0141000D02*
X0257906Y0141081D01*
X0257912Y0141163D01*
X0257922Y0141244D01*
X0257936Y0141324D01*
X0257953Y0141403D01*
X0257975Y0141482D01*
X0258000Y0141559D01*
X0258029Y0141636D01*
X0258062Y0141710D01*
X0258099Y0141783D01*
X0258138Y0141854D01*
X0258182Y0141923D01*
X0258228Y0141990D01*
X0258278Y0142054D01*
X0258331Y0142116D01*
X0258387Y0142176D01*
X0258445Y0142232D01*
X0258507Y0142286D01*
X0258571Y0142337D01*
X0258637Y0142384D01*
X0258705Y0142428D01*
X0258776Y0142469D01*
X0258848Y0142506D01*
X0258923Y0142540D01*
X0258998Y0142570D01*
X0259076Y0142596D01*
X0259154Y0142619D01*
X0259233Y0142637D01*
X0259313Y0142652D01*
X0259394Y0142663D01*
X0259475Y0142670D01*
X0259557Y0142673D01*
X0259638Y0142672D01*
X0259719Y0142667D01*
X0259800Y0142658D01*
X0259881Y0142645D01*
X0259961Y0142628D01*
X0260039Y0142608D01*
X0260117Y0142583D01*
X0260194Y0142555D01*
X0260269Y0142523D01*
X0260342Y0142488D01*
X0260413Y0142449D01*
X0260483Y0142406D01*
X0260550Y0142361D01*
X0260616Y0142312D01*
X0260678Y0142260D01*
X0260738Y0142204D01*
X0260795Y0142146D01*
X0260850Y0142086D01*
X0260901Y0142022D01*
X0260949Y0141957D01*
X0260994Y0141889D01*
X0261036Y0141819D01*
X0261074Y0141747D01*
X0261109Y0141673D01*
X0261140Y0141598D01*
X0261167Y0141521D01*
X0261190Y0141443D01*
X0261210Y0141364D01*
X0261226Y0141284D01*
X0261238Y0141203D01*
X0261246Y0141122D01*
X0261250Y0141041D01*
X0261250Y0140959D01*
X0261246Y0140878D01*
X0261238Y0140797D01*
X0261226Y0140716D01*
X0261210Y0140636D01*
X0261190Y0140557D01*
X0261167Y0140479D01*
X0261140Y0140402D01*
X0261109Y0140327D01*
X0261074Y0140253D01*
X0261036Y0140181D01*
X0260994Y0140111D01*
X0260949Y0140043D01*
X0260901Y0139978D01*
X0260850Y0139914D01*
X0260795Y0139854D01*
X0260738Y0139796D01*
X0260678Y0139740D01*
X0260616Y0139688D01*
X0260550Y0139639D01*
X0260483Y0139594D01*
X0260414Y0139551D01*
X0260342Y0139512D01*
X0260269Y0139477D01*
X0260194Y0139445D01*
X0260117Y0139417D01*
X0260039Y0139392D01*
X0259961Y0139372D01*
X0259881Y0139355D01*
X0259800Y0139342D01*
X0259719Y0139333D01*
X0259638Y0139328D01*
X0259557Y0139327D01*
X0259475Y0139330D01*
X0259394Y0139337D01*
X0259313Y0139348D01*
X0259233Y0139363D01*
X0259154Y0139381D01*
X0259076Y0139404D01*
X0258998Y0139430D01*
X0258923Y0139460D01*
X0258848Y0139494D01*
X0258776Y0139531D01*
X0258705Y0139572D01*
X0258637Y0139616D01*
X0258571Y0139663D01*
X0258507Y0139714D01*
X0258445Y0139768D01*
X0258387Y0139824D01*
X0258331Y0139884D01*
X0258278Y0139946D01*
X0258228Y0140010D01*
X0258182Y0140077D01*
X0258138Y0140146D01*
X0258099Y0140217D01*
X0258062Y0140290D01*
X0258029Y0140364D01*
X0258000Y0140441D01*
X0257975Y0140518D01*
X0257953Y0140597D01*
X0257936Y0140676D01*
X0257922Y0140756D01*
X0257912Y0140837D01*
X0257906Y0140919D01*
X0257904Y0141000D01*
X0262904Y0141000D02*
X0262906Y0141081D01*
X0262912Y0141163D01*
X0262922Y0141244D01*
X0262936Y0141324D01*
X0262953Y0141403D01*
X0262975Y0141482D01*
X0263000Y0141559D01*
X0263029Y0141636D01*
X0263062Y0141710D01*
X0263099Y0141783D01*
X0263138Y0141854D01*
X0263182Y0141923D01*
X0263228Y0141990D01*
X0263278Y0142054D01*
X0263331Y0142116D01*
X0263387Y0142176D01*
X0263445Y0142232D01*
X0263507Y0142286D01*
X0263571Y0142337D01*
X0263637Y0142384D01*
X0263705Y0142428D01*
X0263776Y0142469D01*
X0263848Y0142506D01*
X0263923Y0142540D01*
X0263998Y0142570D01*
X0264076Y0142596D01*
X0264154Y0142619D01*
X0264233Y0142637D01*
X0264313Y0142652D01*
X0264394Y0142663D01*
X0264475Y0142670D01*
X0264557Y0142673D01*
X0264638Y0142672D01*
X0264719Y0142667D01*
X0264800Y0142658D01*
X0264881Y0142645D01*
X0264961Y0142628D01*
X0265039Y0142608D01*
X0265117Y0142583D01*
X0265194Y0142555D01*
X0265269Y0142523D01*
X0265342Y0142488D01*
X0265413Y0142449D01*
X0265483Y0142406D01*
X0265550Y0142361D01*
X0265616Y0142312D01*
X0265678Y0142260D01*
X0265738Y0142204D01*
X0265795Y0142146D01*
X0265850Y0142086D01*
X0265901Y0142022D01*
X0265949Y0141957D01*
X0265994Y0141889D01*
X0266036Y0141819D01*
X0266074Y0141747D01*
X0266109Y0141673D01*
X0266140Y0141598D01*
X0266167Y0141521D01*
X0266190Y0141443D01*
X0266210Y0141364D01*
X0266226Y0141284D01*
X0266238Y0141203D01*
X0266246Y0141122D01*
X0266250Y0141041D01*
X0266250Y0140959D01*
X0266246Y0140878D01*
X0266238Y0140797D01*
X0266226Y0140716D01*
X0266210Y0140636D01*
X0266190Y0140557D01*
X0266167Y0140479D01*
X0266140Y0140402D01*
X0266109Y0140327D01*
X0266074Y0140253D01*
X0266036Y0140181D01*
X0265994Y0140111D01*
X0265949Y0140043D01*
X0265901Y0139978D01*
X0265850Y0139914D01*
X0265795Y0139854D01*
X0265738Y0139796D01*
X0265678Y0139740D01*
X0265616Y0139688D01*
X0265550Y0139639D01*
X0265483Y0139594D01*
X0265414Y0139551D01*
X0265342Y0139512D01*
X0265269Y0139477D01*
X0265194Y0139445D01*
X0265117Y0139417D01*
X0265039Y0139392D01*
X0264961Y0139372D01*
X0264881Y0139355D01*
X0264800Y0139342D01*
X0264719Y0139333D01*
X0264638Y0139328D01*
X0264557Y0139327D01*
X0264475Y0139330D01*
X0264394Y0139337D01*
X0264313Y0139348D01*
X0264233Y0139363D01*
X0264154Y0139381D01*
X0264076Y0139404D01*
X0263998Y0139430D01*
X0263923Y0139460D01*
X0263848Y0139494D01*
X0263776Y0139531D01*
X0263705Y0139572D01*
X0263637Y0139616D01*
X0263571Y0139663D01*
X0263507Y0139714D01*
X0263445Y0139768D01*
X0263387Y0139824D01*
X0263331Y0139884D01*
X0263278Y0139946D01*
X0263228Y0140010D01*
X0263182Y0140077D01*
X0263138Y0140146D01*
X0263099Y0140217D01*
X0263062Y0140290D01*
X0263029Y0140364D01*
X0263000Y0140441D01*
X0262975Y0140518D01*
X0262953Y0140597D01*
X0262936Y0140676D01*
X0262922Y0140756D01*
X0262912Y0140837D01*
X0262906Y0140919D01*
X0262904Y0141000D01*
X0267904Y0141000D02*
X0267906Y0141081D01*
X0267912Y0141163D01*
X0267922Y0141244D01*
X0267936Y0141324D01*
X0267953Y0141403D01*
X0267975Y0141482D01*
X0268000Y0141559D01*
X0268029Y0141636D01*
X0268062Y0141710D01*
X0268099Y0141783D01*
X0268138Y0141854D01*
X0268182Y0141923D01*
X0268228Y0141990D01*
X0268278Y0142054D01*
X0268331Y0142116D01*
X0268387Y0142176D01*
X0268445Y0142232D01*
X0268507Y0142286D01*
X0268571Y0142337D01*
X0268637Y0142384D01*
X0268705Y0142428D01*
X0268776Y0142469D01*
X0268848Y0142506D01*
X0268923Y0142540D01*
X0268998Y0142570D01*
X0269076Y0142596D01*
X0269154Y0142619D01*
X0269233Y0142637D01*
X0269313Y0142652D01*
X0269394Y0142663D01*
X0269475Y0142670D01*
X0269557Y0142673D01*
X0269638Y0142672D01*
X0269719Y0142667D01*
X0269800Y0142658D01*
X0269881Y0142645D01*
X0269961Y0142628D01*
X0270039Y0142608D01*
X0270117Y0142583D01*
X0270194Y0142555D01*
X0270269Y0142523D01*
X0270342Y0142488D01*
X0270413Y0142449D01*
X0270483Y0142406D01*
X0270550Y0142361D01*
X0270616Y0142312D01*
X0270678Y0142260D01*
X0270738Y0142204D01*
X0270795Y0142146D01*
X0270850Y0142086D01*
X0270901Y0142022D01*
X0270949Y0141957D01*
X0270994Y0141889D01*
X0271036Y0141819D01*
X0271074Y0141747D01*
X0271109Y0141673D01*
X0271140Y0141598D01*
X0271167Y0141521D01*
X0271190Y0141443D01*
X0271210Y0141364D01*
X0271226Y0141284D01*
X0271238Y0141203D01*
X0271246Y0141122D01*
X0271250Y0141041D01*
X0271250Y0140959D01*
X0271246Y0140878D01*
X0271238Y0140797D01*
X0271226Y0140716D01*
X0271210Y0140636D01*
X0271190Y0140557D01*
X0271167Y0140479D01*
X0271140Y0140402D01*
X0271109Y0140327D01*
X0271074Y0140253D01*
X0271036Y0140181D01*
X0270994Y0140111D01*
X0270949Y0140043D01*
X0270901Y0139978D01*
X0270850Y0139914D01*
X0270795Y0139854D01*
X0270738Y0139796D01*
X0270678Y0139740D01*
X0270616Y0139688D01*
X0270550Y0139639D01*
X0270483Y0139594D01*
X0270414Y0139551D01*
X0270342Y0139512D01*
X0270269Y0139477D01*
X0270194Y0139445D01*
X0270117Y0139417D01*
X0270039Y0139392D01*
X0269961Y0139372D01*
X0269881Y0139355D01*
X0269800Y0139342D01*
X0269719Y0139333D01*
X0269638Y0139328D01*
X0269557Y0139327D01*
X0269475Y0139330D01*
X0269394Y0139337D01*
X0269313Y0139348D01*
X0269233Y0139363D01*
X0269154Y0139381D01*
X0269076Y0139404D01*
X0268998Y0139430D01*
X0268923Y0139460D01*
X0268848Y0139494D01*
X0268776Y0139531D01*
X0268705Y0139572D01*
X0268637Y0139616D01*
X0268571Y0139663D01*
X0268507Y0139714D01*
X0268445Y0139768D01*
X0268387Y0139824D01*
X0268331Y0139884D01*
X0268278Y0139946D01*
X0268228Y0140010D01*
X0268182Y0140077D01*
X0268138Y0140146D01*
X0268099Y0140217D01*
X0268062Y0140290D01*
X0268029Y0140364D01*
X0268000Y0140441D01*
X0267975Y0140518D01*
X0267953Y0140597D01*
X0267936Y0140676D01*
X0267922Y0140756D01*
X0267912Y0140837D01*
X0267906Y0140919D01*
X0267904Y0141000D01*
X0272904Y0141000D02*
X0272906Y0141081D01*
X0272912Y0141163D01*
X0272922Y0141244D01*
X0272936Y0141324D01*
X0272953Y0141403D01*
X0272975Y0141482D01*
X0273000Y0141559D01*
X0273029Y0141636D01*
X0273062Y0141710D01*
X0273099Y0141783D01*
X0273138Y0141854D01*
X0273182Y0141923D01*
X0273228Y0141990D01*
X0273278Y0142054D01*
X0273331Y0142116D01*
X0273387Y0142176D01*
X0273445Y0142232D01*
X0273507Y0142286D01*
X0273571Y0142337D01*
X0273637Y0142384D01*
X0273705Y0142428D01*
X0273776Y0142469D01*
X0273848Y0142506D01*
X0273923Y0142540D01*
X0273998Y0142570D01*
X0274076Y0142596D01*
X0274154Y0142619D01*
X0274233Y0142637D01*
X0274313Y0142652D01*
X0274394Y0142663D01*
X0274475Y0142670D01*
X0274557Y0142673D01*
X0274638Y0142672D01*
X0274719Y0142667D01*
X0274800Y0142658D01*
X0274881Y0142645D01*
X0274961Y0142628D01*
X0275039Y0142608D01*
X0275117Y0142583D01*
X0275194Y0142555D01*
X0275269Y0142523D01*
X0275342Y0142488D01*
X0275413Y0142449D01*
X0275483Y0142406D01*
X0275550Y0142361D01*
X0275616Y0142312D01*
X0275678Y0142260D01*
X0275738Y0142204D01*
X0275795Y0142146D01*
X0275850Y0142086D01*
X0275901Y0142022D01*
X0275949Y0141957D01*
X0275994Y0141889D01*
X0276036Y0141819D01*
X0276074Y0141747D01*
X0276109Y0141673D01*
X0276140Y0141598D01*
X0276167Y0141521D01*
X0276190Y0141443D01*
X0276210Y0141364D01*
X0276226Y0141284D01*
X0276238Y0141203D01*
X0276246Y0141122D01*
X0276250Y0141041D01*
X0276250Y0140959D01*
X0276246Y0140878D01*
X0276238Y0140797D01*
X0276226Y0140716D01*
X0276210Y0140636D01*
X0276190Y0140557D01*
X0276167Y0140479D01*
X0276140Y0140402D01*
X0276109Y0140327D01*
X0276074Y0140253D01*
X0276036Y0140181D01*
X0275994Y0140111D01*
X0275949Y0140043D01*
X0275901Y0139978D01*
X0275850Y0139914D01*
X0275795Y0139854D01*
X0275738Y0139796D01*
X0275678Y0139740D01*
X0275616Y0139688D01*
X0275550Y0139639D01*
X0275483Y0139594D01*
X0275414Y0139551D01*
X0275342Y0139512D01*
X0275269Y0139477D01*
X0275194Y0139445D01*
X0275117Y0139417D01*
X0275039Y0139392D01*
X0274961Y0139372D01*
X0274881Y0139355D01*
X0274800Y0139342D01*
X0274719Y0139333D01*
X0274638Y0139328D01*
X0274557Y0139327D01*
X0274475Y0139330D01*
X0274394Y0139337D01*
X0274313Y0139348D01*
X0274233Y0139363D01*
X0274154Y0139381D01*
X0274076Y0139404D01*
X0273998Y0139430D01*
X0273923Y0139460D01*
X0273848Y0139494D01*
X0273776Y0139531D01*
X0273705Y0139572D01*
X0273637Y0139616D01*
X0273571Y0139663D01*
X0273507Y0139714D01*
X0273445Y0139768D01*
X0273387Y0139824D01*
X0273331Y0139884D01*
X0273278Y0139946D01*
X0273228Y0140010D01*
X0273182Y0140077D01*
X0273138Y0140146D01*
X0273099Y0140217D01*
X0273062Y0140290D01*
X0273029Y0140364D01*
X0273000Y0140441D01*
X0272975Y0140518D01*
X0272953Y0140597D01*
X0272936Y0140676D01*
X0272922Y0140756D01*
X0272912Y0140837D01*
X0272906Y0140919D01*
X0272904Y0141000D01*
X0277904Y0141000D02*
X0277906Y0141081D01*
X0277912Y0141163D01*
X0277922Y0141244D01*
X0277936Y0141324D01*
X0277953Y0141403D01*
X0277975Y0141482D01*
X0278000Y0141559D01*
X0278029Y0141636D01*
X0278062Y0141710D01*
X0278099Y0141783D01*
X0278138Y0141854D01*
X0278182Y0141923D01*
X0278228Y0141990D01*
X0278278Y0142054D01*
X0278331Y0142116D01*
X0278387Y0142176D01*
X0278445Y0142232D01*
X0278507Y0142286D01*
X0278571Y0142337D01*
X0278637Y0142384D01*
X0278705Y0142428D01*
X0278776Y0142469D01*
X0278848Y0142506D01*
X0278923Y0142540D01*
X0278998Y0142570D01*
X0279076Y0142596D01*
X0279154Y0142619D01*
X0279233Y0142637D01*
X0279313Y0142652D01*
X0279394Y0142663D01*
X0279475Y0142670D01*
X0279557Y0142673D01*
X0279638Y0142672D01*
X0279719Y0142667D01*
X0279800Y0142658D01*
X0279881Y0142645D01*
X0279961Y0142628D01*
X0280039Y0142608D01*
X0280117Y0142583D01*
X0280194Y0142555D01*
X0280269Y0142523D01*
X0280342Y0142488D01*
X0280413Y0142449D01*
X0280483Y0142406D01*
X0280550Y0142361D01*
X0280616Y0142312D01*
X0280678Y0142260D01*
X0280738Y0142204D01*
X0280795Y0142146D01*
X0280850Y0142086D01*
X0280901Y0142022D01*
X0280949Y0141957D01*
X0280994Y0141889D01*
X0281036Y0141819D01*
X0281074Y0141747D01*
X0281109Y0141673D01*
X0281140Y0141598D01*
X0281167Y0141521D01*
X0281190Y0141443D01*
X0281210Y0141364D01*
X0281226Y0141284D01*
X0281238Y0141203D01*
X0281246Y0141122D01*
X0281250Y0141041D01*
X0281250Y0140959D01*
X0281246Y0140878D01*
X0281238Y0140797D01*
X0281226Y0140716D01*
X0281210Y0140636D01*
X0281190Y0140557D01*
X0281167Y0140479D01*
X0281140Y0140402D01*
X0281109Y0140327D01*
X0281074Y0140253D01*
X0281036Y0140181D01*
X0280994Y0140111D01*
X0280949Y0140043D01*
X0280901Y0139978D01*
X0280850Y0139914D01*
X0280795Y0139854D01*
X0280738Y0139796D01*
X0280678Y0139740D01*
X0280616Y0139688D01*
X0280550Y0139639D01*
X0280483Y0139594D01*
X0280414Y0139551D01*
X0280342Y0139512D01*
X0280269Y0139477D01*
X0280194Y0139445D01*
X0280117Y0139417D01*
X0280039Y0139392D01*
X0279961Y0139372D01*
X0279881Y0139355D01*
X0279800Y0139342D01*
X0279719Y0139333D01*
X0279638Y0139328D01*
X0279557Y0139327D01*
X0279475Y0139330D01*
X0279394Y0139337D01*
X0279313Y0139348D01*
X0279233Y0139363D01*
X0279154Y0139381D01*
X0279076Y0139404D01*
X0278998Y0139430D01*
X0278923Y0139460D01*
X0278848Y0139494D01*
X0278776Y0139531D01*
X0278705Y0139572D01*
X0278637Y0139616D01*
X0278571Y0139663D01*
X0278507Y0139714D01*
X0278445Y0139768D01*
X0278387Y0139824D01*
X0278331Y0139884D01*
X0278278Y0139946D01*
X0278228Y0140010D01*
X0278182Y0140077D01*
X0278138Y0140146D01*
X0278099Y0140217D01*
X0278062Y0140290D01*
X0278029Y0140364D01*
X0278000Y0140441D01*
X0277975Y0140518D01*
X0277953Y0140597D01*
X0277936Y0140676D01*
X0277922Y0140756D01*
X0277912Y0140837D01*
X0277906Y0140919D01*
X0277904Y0141000D01*
X0282904Y0141000D02*
X0282906Y0141081D01*
X0282912Y0141163D01*
X0282922Y0141244D01*
X0282936Y0141324D01*
X0282953Y0141403D01*
X0282975Y0141482D01*
X0283000Y0141559D01*
X0283029Y0141636D01*
X0283062Y0141710D01*
X0283099Y0141783D01*
X0283138Y0141854D01*
X0283182Y0141923D01*
X0283228Y0141990D01*
X0283278Y0142054D01*
X0283331Y0142116D01*
X0283387Y0142176D01*
X0283445Y0142232D01*
X0283507Y0142286D01*
X0283571Y0142337D01*
X0283637Y0142384D01*
X0283705Y0142428D01*
X0283776Y0142469D01*
X0283848Y0142506D01*
X0283923Y0142540D01*
X0283998Y0142570D01*
X0284076Y0142596D01*
X0284154Y0142619D01*
X0284233Y0142637D01*
X0284313Y0142652D01*
X0284394Y0142663D01*
X0284475Y0142670D01*
X0284557Y0142673D01*
X0284638Y0142672D01*
X0284719Y0142667D01*
X0284800Y0142658D01*
X0284881Y0142645D01*
X0284961Y0142628D01*
X0285039Y0142608D01*
X0285117Y0142583D01*
X0285194Y0142555D01*
X0285269Y0142523D01*
X0285342Y0142488D01*
X0285413Y0142449D01*
X0285483Y0142406D01*
X0285550Y0142361D01*
X0285616Y0142312D01*
X0285678Y0142260D01*
X0285738Y0142204D01*
X0285795Y0142146D01*
X0285850Y0142086D01*
X0285901Y0142022D01*
X0285949Y0141957D01*
X0285994Y0141889D01*
X0286036Y0141819D01*
X0286074Y0141747D01*
X0286109Y0141673D01*
X0286140Y0141598D01*
X0286167Y0141521D01*
X0286190Y0141443D01*
X0286210Y0141364D01*
X0286226Y0141284D01*
X0286238Y0141203D01*
X0286246Y0141122D01*
X0286250Y0141041D01*
X0286250Y0140959D01*
X0286246Y0140878D01*
X0286238Y0140797D01*
X0286226Y0140716D01*
X0286210Y0140636D01*
X0286190Y0140557D01*
X0286167Y0140479D01*
X0286140Y0140402D01*
X0286109Y0140327D01*
X0286074Y0140253D01*
X0286036Y0140181D01*
X0285994Y0140111D01*
X0285949Y0140043D01*
X0285901Y0139978D01*
X0285850Y0139914D01*
X0285795Y0139854D01*
X0285738Y0139796D01*
X0285678Y0139740D01*
X0285616Y0139688D01*
X0285550Y0139639D01*
X0285483Y0139594D01*
X0285414Y0139551D01*
X0285342Y0139512D01*
X0285269Y0139477D01*
X0285194Y0139445D01*
X0285117Y0139417D01*
X0285039Y0139392D01*
X0284961Y0139372D01*
X0284881Y0139355D01*
X0284800Y0139342D01*
X0284719Y0139333D01*
X0284638Y0139328D01*
X0284557Y0139327D01*
X0284475Y0139330D01*
X0284394Y0139337D01*
X0284313Y0139348D01*
X0284233Y0139363D01*
X0284154Y0139381D01*
X0284076Y0139404D01*
X0283998Y0139430D01*
X0283923Y0139460D01*
X0283848Y0139494D01*
X0283776Y0139531D01*
X0283705Y0139572D01*
X0283637Y0139616D01*
X0283571Y0139663D01*
X0283507Y0139714D01*
X0283445Y0139768D01*
X0283387Y0139824D01*
X0283331Y0139884D01*
X0283278Y0139946D01*
X0283228Y0140010D01*
X0283182Y0140077D01*
X0283138Y0140146D01*
X0283099Y0140217D01*
X0283062Y0140290D01*
X0283029Y0140364D01*
X0283000Y0140441D01*
X0282975Y0140518D01*
X0282953Y0140597D01*
X0282936Y0140676D01*
X0282922Y0140756D01*
X0282912Y0140837D01*
X0282906Y0140919D01*
X0282904Y0141000D01*
X0287904Y0141000D02*
X0287906Y0141081D01*
X0287912Y0141163D01*
X0287922Y0141244D01*
X0287936Y0141324D01*
X0287953Y0141403D01*
X0287975Y0141482D01*
X0288000Y0141559D01*
X0288029Y0141636D01*
X0288062Y0141710D01*
X0288099Y0141783D01*
X0288138Y0141854D01*
X0288182Y0141923D01*
X0288228Y0141990D01*
X0288278Y0142054D01*
X0288331Y0142116D01*
X0288387Y0142176D01*
X0288445Y0142232D01*
X0288507Y0142286D01*
X0288571Y0142337D01*
X0288637Y0142384D01*
X0288705Y0142428D01*
X0288776Y0142469D01*
X0288848Y0142506D01*
X0288923Y0142540D01*
X0288998Y0142570D01*
X0289076Y0142596D01*
X0289154Y0142619D01*
X0289233Y0142637D01*
X0289313Y0142652D01*
X0289394Y0142663D01*
X0289475Y0142670D01*
X0289557Y0142673D01*
X0289638Y0142672D01*
X0289719Y0142667D01*
X0289800Y0142658D01*
X0289881Y0142645D01*
X0289961Y0142628D01*
X0290039Y0142608D01*
X0290117Y0142583D01*
X0290194Y0142555D01*
X0290269Y0142523D01*
X0290342Y0142488D01*
X0290413Y0142449D01*
X0290483Y0142406D01*
X0290550Y0142361D01*
X0290616Y0142312D01*
X0290678Y0142260D01*
X0290738Y0142204D01*
X0290795Y0142146D01*
X0290850Y0142086D01*
X0290901Y0142022D01*
X0290949Y0141957D01*
X0290994Y0141889D01*
X0291036Y0141819D01*
X0291074Y0141747D01*
X0291109Y0141673D01*
X0291140Y0141598D01*
X0291167Y0141521D01*
X0291190Y0141443D01*
X0291210Y0141364D01*
X0291226Y0141284D01*
X0291238Y0141203D01*
X0291246Y0141122D01*
X0291250Y0141041D01*
X0291250Y0140959D01*
X0291246Y0140878D01*
X0291238Y0140797D01*
X0291226Y0140716D01*
X0291210Y0140636D01*
X0291190Y0140557D01*
X0291167Y0140479D01*
X0291140Y0140402D01*
X0291109Y0140327D01*
X0291074Y0140253D01*
X0291036Y0140181D01*
X0290994Y0140111D01*
X0290949Y0140043D01*
X0290901Y0139978D01*
X0290850Y0139914D01*
X0290795Y0139854D01*
X0290738Y0139796D01*
X0290678Y0139740D01*
X0290616Y0139688D01*
X0290550Y0139639D01*
X0290483Y0139594D01*
X0290414Y0139551D01*
X0290342Y0139512D01*
X0290269Y0139477D01*
X0290194Y0139445D01*
X0290117Y0139417D01*
X0290039Y0139392D01*
X0289961Y0139372D01*
X0289881Y0139355D01*
X0289800Y0139342D01*
X0289719Y0139333D01*
X0289638Y0139328D01*
X0289557Y0139327D01*
X0289475Y0139330D01*
X0289394Y0139337D01*
X0289313Y0139348D01*
X0289233Y0139363D01*
X0289154Y0139381D01*
X0289076Y0139404D01*
X0288998Y0139430D01*
X0288923Y0139460D01*
X0288848Y0139494D01*
X0288776Y0139531D01*
X0288705Y0139572D01*
X0288637Y0139616D01*
X0288571Y0139663D01*
X0288507Y0139714D01*
X0288445Y0139768D01*
X0288387Y0139824D01*
X0288331Y0139884D01*
X0288278Y0139946D01*
X0288228Y0140010D01*
X0288182Y0140077D01*
X0288138Y0140146D01*
X0288099Y0140217D01*
X0288062Y0140290D01*
X0288029Y0140364D01*
X0288000Y0140441D01*
X0287975Y0140518D01*
X0287953Y0140597D01*
X0287936Y0140676D01*
X0287922Y0140756D01*
X0287912Y0140837D01*
X0287906Y0140919D01*
X0287904Y0141000D01*
X0238790Y0207693D02*
X0238792Y0207840D01*
X0238798Y0207986D01*
X0238808Y0208132D01*
X0238822Y0208278D01*
X0238840Y0208424D01*
X0238861Y0208569D01*
X0238887Y0208713D01*
X0238917Y0208857D01*
X0238950Y0208999D01*
X0238987Y0209141D01*
X0239028Y0209282D01*
X0239073Y0209421D01*
X0239122Y0209560D01*
X0239174Y0209697D01*
X0239231Y0209832D01*
X0239290Y0209966D01*
X0239354Y0210098D01*
X0239421Y0210228D01*
X0239491Y0210357D01*
X0239565Y0210484D01*
X0239642Y0210608D01*
X0239723Y0210731D01*
X0239807Y0210851D01*
X0239894Y0210969D01*
X0239984Y0211084D01*
X0240077Y0211197D01*
X0240174Y0211308D01*
X0240273Y0211416D01*
X0240375Y0211521D01*
X0240480Y0211623D01*
X0240588Y0211722D01*
X0240699Y0211819D01*
X0240812Y0211912D01*
X0240927Y0212002D01*
X0241045Y0212089D01*
X0241165Y0212173D01*
X0241288Y0212254D01*
X0241412Y0212331D01*
X0241539Y0212405D01*
X0241668Y0212475D01*
X0241798Y0212542D01*
X0241930Y0212606D01*
X0242064Y0212665D01*
X0242199Y0212722D01*
X0242336Y0212774D01*
X0242475Y0212823D01*
X0242614Y0212868D01*
X0242755Y0212909D01*
X0242897Y0212946D01*
X0243039Y0212979D01*
X0243183Y0213009D01*
X0243327Y0213035D01*
X0243472Y0213056D01*
X0243618Y0213074D01*
X0243764Y0213088D01*
X0243910Y0213098D01*
X0244056Y0213104D01*
X0244203Y0213106D01*
X0244350Y0213104D01*
X0244496Y0213098D01*
X0244642Y0213088D01*
X0244788Y0213074D01*
X0244934Y0213056D01*
X0245079Y0213035D01*
X0245223Y0213009D01*
X0245367Y0212979D01*
X0245509Y0212946D01*
X0245651Y0212909D01*
X0245792Y0212868D01*
X0245931Y0212823D01*
X0246070Y0212774D01*
X0246207Y0212722D01*
X0246342Y0212665D01*
X0246476Y0212606D01*
X0246608Y0212542D01*
X0246738Y0212475D01*
X0246867Y0212405D01*
X0246994Y0212331D01*
X0247118Y0212254D01*
X0247241Y0212173D01*
X0247361Y0212089D01*
X0247479Y0212002D01*
X0247594Y0211912D01*
X0247707Y0211819D01*
X0247818Y0211722D01*
X0247926Y0211623D01*
X0248031Y0211521D01*
X0248133Y0211416D01*
X0248232Y0211308D01*
X0248329Y0211197D01*
X0248422Y0211084D01*
X0248512Y0210969D01*
X0248599Y0210851D01*
X0248683Y0210731D01*
X0248764Y0210608D01*
X0248841Y0210484D01*
X0248915Y0210357D01*
X0248985Y0210228D01*
X0249052Y0210098D01*
X0249116Y0209966D01*
X0249175Y0209832D01*
X0249232Y0209697D01*
X0249284Y0209560D01*
X0249333Y0209421D01*
X0249378Y0209282D01*
X0249419Y0209141D01*
X0249456Y0208999D01*
X0249489Y0208857D01*
X0249519Y0208713D01*
X0249545Y0208569D01*
X0249566Y0208424D01*
X0249584Y0208278D01*
X0249598Y0208132D01*
X0249608Y0207986D01*
X0249614Y0207840D01*
X0249616Y0207693D01*
X0249614Y0207546D01*
X0249608Y0207400D01*
X0249598Y0207254D01*
X0249584Y0207108D01*
X0249566Y0206962D01*
X0249545Y0206817D01*
X0249519Y0206673D01*
X0249489Y0206529D01*
X0249456Y0206387D01*
X0249419Y0206245D01*
X0249378Y0206104D01*
X0249333Y0205965D01*
X0249284Y0205826D01*
X0249232Y0205689D01*
X0249175Y0205554D01*
X0249116Y0205420D01*
X0249052Y0205288D01*
X0248985Y0205158D01*
X0248915Y0205029D01*
X0248841Y0204902D01*
X0248764Y0204778D01*
X0248683Y0204655D01*
X0248599Y0204535D01*
X0248512Y0204417D01*
X0248422Y0204302D01*
X0248329Y0204189D01*
X0248232Y0204078D01*
X0248133Y0203970D01*
X0248031Y0203865D01*
X0247926Y0203763D01*
X0247818Y0203664D01*
X0247707Y0203567D01*
X0247594Y0203474D01*
X0247479Y0203384D01*
X0247361Y0203297D01*
X0247241Y0203213D01*
X0247118Y0203132D01*
X0246994Y0203055D01*
X0246867Y0202981D01*
X0246738Y0202911D01*
X0246608Y0202844D01*
X0246476Y0202780D01*
X0246342Y0202721D01*
X0246207Y0202664D01*
X0246070Y0202612D01*
X0245931Y0202563D01*
X0245792Y0202518D01*
X0245651Y0202477D01*
X0245509Y0202440D01*
X0245367Y0202407D01*
X0245223Y0202377D01*
X0245079Y0202351D01*
X0244934Y0202330D01*
X0244788Y0202312D01*
X0244642Y0202298D01*
X0244496Y0202288D01*
X0244350Y0202282D01*
X0244203Y0202280D01*
X0244056Y0202282D01*
X0243910Y0202288D01*
X0243764Y0202298D01*
X0243618Y0202312D01*
X0243472Y0202330D01*
X0243327Y0202351D01*
X0243183Y0202377D01*
X0243039Y0202407D01*
X0242897Y0202440D01*
X0242755Y0202477D01*
X0242614Y0202518D01*
X0242475Y0202563D01*
X0242336Y0202612D01*
X0242199Y0202664D01*
X0242064Y0202721D01*
X0241930Y0202780D01*
X0241798Y0202844D01*
X0241668Y0202911D01*
X0241539Y0202981D01*
X0241412Y0203055D01*
X0241288Y0203132D01*
X0241165Y0203213D01*
X0241045Y0203297D01*
X0240927Y0203384D01*
X0240812Y0203474D01*
X0240699Y0203567D01*
X0240588Y0203664D01*
X0240480Y0203763D01*
X0240375Y0203865D01*
X0240273Y0203970D01*
X0240174Y0204078D01*
X0240077Y0204189D01*
X0239984Y0204302D01*
X0239894Y0204417D01*
X0239807Y0204535D01*
X0239723Y0204655D01*
X0239642Y0204778D01*
X0239565Y0204902D01*
X0239491Y0205029D01*
X0239421Y0205158D01*
X0239354Y0205288D01*
X0239290Y0205420D01*
X0239231Y0205554D01*
X0239174Y0205689D01*
X0239122Y0205826D01*
X0239073Y0205965D01*
X0239028Y0206104D01*
X0238987Y0206245D01*
X0238950Y0206387D01*
X0238917Y0206529D01*
X0238887Y0206673D01*
X0238861Y0206817D01*
X0238840Y0206962D01*
X0238822Y0207108D01*
X0238808Y0207254D01*
X0238798Y0207400D01*
X0238792Y0207546D01*
X0238790Y0207693D01*
X0010443Y0207693D02*
X0010445Y0207840D01*
X0010451Y0207986D01*
X0010461Y0208132D01*
X0010475Y0208278D01*
X0010493Y0208424D01*
X0010514Y0208569D01*
X0010540Y0208713D01*
X0010570Y0208857D01*
X0010603Y0208999D01*
X0010640Y0209141D01*
X0010681Y0209282D01*
X0010726Y0209421D01*
X0010775Y0209560D01*
X0010827Y0209697D01*
X0010884Y0209832D01*
X0010943Y0209966D01*
X0011007Y0210098D01*
X0011074Y0210228D01*
X0011144Y0210357D01*
X0011218Y0210484D01*
X0011295Y0210608D01*
X0011376Y0210731D01*
X0011460Y0210851D01*
X0011547Y0210969D01*
X0011637Y0211084D01*
X0011730Y0211197D01*
X0011827Y0211308D01*
X0011926Y0211416D01*
X0012028Y0211521D01*
X0012133Y0211623D01*
X0012241Y0211722D01*
X0012352Y0211819D01*
X0012465Y0211912D01*
X0012580Y0212002D01*
X0012698Y0212089D01*
X0012818Y0212173D01*
X0012941Y0212254D01*
X0013065Y0212331D01*
X0013192Y0212405D01*
X0013321Y0212475D01*
X0013451Y0212542D01*
X0013583Y0212606D01*
X0013717Y0212665D01*
X0013852Y0212722D01*
X0013989Y0212774D01*
X0014128Y0212823D01*
X0014267Y0212868D01*
X0014408Y0212909D01*
X0014550Y0212946D01*
X0014692Y0212979D01*
X0014836Y0213009D01*
X0014980Y0213035D01*
X0015125Y0213056D01*
X0015271Y0213074D01*
X0015417Y0213088D01*
X0015563Y0213098D01*
X0015709Y0213104D01*
X0015856Y0213106D01*
X0016003Y0213104D01*
X0016149Y0213098D01*
X0016295Y0213088D01*
X0016441Y0213074D01*
X0016587Y0213056D01*
X0016732Y0213035D01*
X0016876Y0213009D01*
X0017020Y0212979D01*
X0017162Y0212946D01*
X0017304Y0212909D01*
X0017445Y0212868D01*
X0017584Y0212823D01*
X0017723Y0212774D01*
X0017860Y0212722D01*
X0017995Y0212665D01*
X0018129Y0212606D01*
X0018261Y0212542D01*
X0018391Y0212475D01*
X0018520Y0212405D01*
X0018647Y0212331D01*
X0018771Y0212254D01*
X0018894Y0212173D01*
X0019014Y0212089D01*
X0019132Y0212002D01*
X0019247Y0211912D01*
X0019360Y0211819D01*
X0019471Y0211722D01*
X0019579Y0211623D01*
X0019684Y0211521D01*
X0019786Y0211416D01*
X0019885Y0211308D01*
X0019982Y0211197D01*
X0020075Y0211084D01*
X0020165Y0210969D01*
X0020252Y0210851D01*
X0020336Y0210731D01*
X0020417Y0210608D01*
X0020494Y0210484D01*
X0020568Y0210357D01*
X0020638Y0210228D01*
X0020705Y0210098D01*
X0020769Y0209966D01*
X0020828Y0209832D01*
X0020885Y0209697D01*
X0020937Y0209560D01*
X0020986Y0209421D01*
X0021031Y0209282D01*
X0021072Y0209141D01*
X0021109Y0208999D01*
X0021142Y0208857D01*
X0021172Y0208713D01*
X0021198Y0208569D01*
X0021219Y0208424D01*
X0021237Y0208278D01*
X0021251Y0208132D01*
X0021261Y0207986D01*
X0021267Y0207840D01*
X0021269Y0207693D01*
X0021267Y0207546D01*
X0021261Y0207400D01*
X0021251Y0207254D01*
X0021237Y0207108D01*
X0021219Y0206962D01*
X0021198Y0206817D01*
X0021172Y0206673D01*
X0021142Y0206529D01*
X0021109Y0206387D01*
X0021072Y0206245D01*
X0021031Y0206104D01*
X0020986Y0205965D01*
X0020937Y0205826D01*
X0020885Y0205689D01*
X0020828Y0205554D01*
X0020769Y0205420D01*
X0020705Y0205288D01*
X0020638Y0205158D01*
X0020568Y0205029D01*
X0020494Y0204902D01*
X0020417Y0204778D01*
X0020336Y0204655D01*
X0020252Y0204535D01*
X0020165Y0204417D01*
X0020075Y0204302D01*
X0019982Y0204189D01*
X0019885Y0204078D01*
X0019786Y0203970D01*
X0019684Y0203865D01*
X0019579Y0203763D01*
X0019471Y0203664D01*
X0019360Y0203567D01*
X0019247Y0203474D01*
X0019132Y0203384D01*
X0019014Y0203297D01*
X0018894Y0203213D01*
X0018771Y0203132D01*
X0018647Y0203055D01*
X0018520Y0202981D01*
X0018391Y0202911D01*
X0018261Y0202844D01*
X0018129Y0202780D01*
X0017995Y0202721D01*
X0017860Y0202664D01*
X0017723Y0202612D01*
X0017584Y0202563D01*
X0017445Y0202518D01*
X0017304Y0202477D01*
X0017162Y0202440D01*
X0017020Y0202407D01*
X0016876Y0202377D01*
X0016732Y0202351D01*
X0016587Y0202330D01*
X0016441Y0202312D01*
X0016295Y0202298D01*
X0016149Y0202288D01*
X0016003Y0202282D01*
X0015856Y0202280D01*
X0015709Y0202282D01*
X0015563Y0202288D01*
X0015417Y0202298D01*
X0015271Y0202312D01*
X0015125Y0202330D01*
X0014980Y0202351D01*
X0014836Y0202377D01*
X0014692Y0202407D01*
X0014550Y0202440D01*
X0014408Y0202477D01*
X0014267Y0202518D01*
X0014128Y0202563D01*
X0013989Y0202612D01*
X0013852Y0202664D01*
X0013717Y0202721D01*
X0013583Y0202780D01*
X0013451Y0202844D01*
X0013321Y0202911D01*
X0013192Y0202981D01*
X0013065Y0203055D01*
X0012941Y0203132D01*
X0012818Y0203213D01*
X0012698Y0203297D01*
X0012580Y0203384D01*
X0012465Y0203474D01*
X0012352Y0203567D01*
X0012241Y0203664D01*
X0012133Y0203763D01*
X0012028Y0203865D01*
X0011926Y0203970D01*
X0011827Y0204078D01*
X0011730Y0204189D01*
X0011637Y0204302D01*
X0011547Y0204417D01*
X0011460Y0204535D01*
X0011376Y0204655D01*
X0011295Y0204778D01*
X0011218Y0204902D01*
X0011144Y0205029D01*
X0011074Y0205158D01*
X0011007Y0205288D01*
X0010943Y0205420D01*
X0010884Y0205554D01*
X0010827Y0205689D01*
X0010775Y0205826D01*
X0010726Y0205965D01*
X0010681Y0206104D01*
X0010640Y0206245D01*
X0010603Y0206387D01*
X0010570Y0206529D01*
X0010540Y0206673D01*
X0010514Y0206817D01*
X0010493Y0206962D01*
X0010475Y0207108D01*
X0010461Y0207254D01*
X0010451Y0207400D01*
X0010445Y0207546D01*
X0010443Y0207693D01*
D11*
X0011093Y0142614D02*
X0007451Y0142614D01*
X0007451Y0132969D01*
X0005384Y0132969D01*
X0005384Y0129031D01*
X0007451Y0129031D01*
X0007451Y0119386D01*
X0011093Y0119386D01*
X0011093Y0121453D01*
X0021033Y0121453D01*
X0021033Y0140547D01*
X0011093Y0140547D01*
X0011093Y0142614D01*
X0023100Y0142614D01*
X0023100Y0119386D01*
X0011093Y0119386D01*
X0007451Y0119386D02*
X0005384Y0119386D01*
X0005384Y0129031D01*
X0005384Y0132969D02*
X0005384Y0142614D01*
X0007451Y0142614D01*
X0145577Y0106000D02*
X0148577Y0106000D01*
X0147077Y0104500D02*
X0147077Y0107500D01*
X0152077Y0085500D02*
X0152077Y0084500D01*
X0147577Y0084500D01*
X0147577Y0082000D01*
X0156577Y0082000D01*
X0156577Y0084500D01*
X0152077Y0084500D01*
X0132077Y0081000D02*
X0132083Y0081491D01*
X0132101Y0081981D01*
X0132131Y0082471D01*
X0132173Y0082960D01*
X0132227Y0083448D01*
X0132293Y0083935D01*
X0132371Y0084419D01*
X0132461Y0084902D01*
X0132563Y0085382D01*
X0132676Y0085860D01*
X0132801Y0086334D01*
X0132938Y0086806D01*
X0133086Y0087274D01*
X0133246Y0087738D01*
X0133417Y0088198D01*
X0133599Y0088654D01*
X0133793Y0089105D01*
X0133997Y0089551D01*
X0134213Y0089992D01*
X0134439Y0090428D01*
X0134675Y0090858D01*
X0134922Y0091282D01*
X0135180Y0091700D01*
X0135448Y0092111D01*
X0135725Y0092516D01*
X0136013Y0092914D01*
X0136310Y0093305D01*
X0136617Y0093688D01*
X0136933Y0094063D01*
X0137258Y0094431D01*
X0137592Y0094791D01*
X0137935Y0095142D01*
X0138286Y0095485D01*
X0138646Y0095819D01*
X0139014Y0096144D01*
X0139389Y0096460D01*
X0139772Y0096767D01*
X0140163Y0097064D01*
X0140561Y0097352D01*
X0140966Y0097629D01*
X0141377Y0097897D01*
X0141795Y0098155D01*
X0142219Y0098402D01*
X0142649Y0098638D01*
X0143085Y0098864D01*
X0143526Y0099080D01*
X0143972Y0099284D01*
X0144423Y0099478D01*
X0144879Y0099660D01*
X0145339Y0099831D01*
X0145803Y0099991D01*
X0146271Y0100139D01*
X0146743Y0100276D01*
X0147217Y0100401D01*
X0147695Y0100514D01*
X0148175Y0100616D01*
X0148658Y0100706D01*
X0149142Y0100784D01*
X0149629Y0100850D01*
X0150117Y0100904D01*
X0150606Y0100946D01*
X0151096Y0100976D01*
X0151586Y0100994D01*
X0152077Y0101000D01*
X0152568Y0100994D01*
X0153058Y0100976D01*
X0153548Y0100946D01*
X0154037Y0100904D01*
X0154525Y0100850D01*
X0155012Y0100784D01*
X0155496Y0100706D01*
X0155979Y0100616D01*
X0156459Y0100514D01*
X0156937Y0100401D01*
X0157411Y0100276D01*
X0157883Y0100139D01*
X0158351Y0099991D01*
X0158815Y0099831D01*
X0159275Y0099660D01*
X0159731Y0099478D01*
X0160182Y0099284D01*
X0160628Y0099080D01*
X0161069Y0098864D01*
X0161505Y0098638D01*
X0161935Y0098402D01*
X0162359Y0098155D01*
X0162777Y0097897D01*
X0163188Y0097629D01*
X0163593Y0097352D01*
X0163991Y0097064D01*
X0164382Y0096767D01*
X0164765Y0096460D01*
X0165140Y0096144D01*
X0165508Y0095819D01*
X0165868Y0095485D01*
X0166219Y0095142D01*
X0166562Y0094791D01*
X0166896Y0094431D01*
X0167221Y0094063D01*
X0167537Y0093688D01*
X0167844Y0093305D01*
X0168141Y0092914D01*
X0168429Y0092516D01*
X0168706Y0092111D01*
X0168974Y0091700D01*
X0169232Y0091282D01*
X0169479Y0090858D01*
X0169715Y0090428D01*
X0169941Y0089992D01*
X0170157Y0089551D01*
X0170361Y0089105D01*
X0170555Y0088654D01*
X0170737Y0088198D01*
X0170908Y0087738D01*
X0171068Y0087274D01*
X0171216Y0086806D01*
X0171353Y0086334D01*
X0171478Y0085860D01*
X0171591Y0085382D01*
X0171693Y0084902D01*
X0171783Y0084419D01*
X0171861Y0083935D01*
X0171927Y0083448D01*
X0171981Y0082960D01*
X0172023Y0082471D01*
X0172053Y0081981D01*
X0172071Y0081491D01*
X0172077Y0081000D01*
X0172071Y0080509D01*
X0172053Y0080019D01*
X0172023Y0079529D01*
X0171981Y0079040D01*
X0171927Y0078552D01*
X0171861Y0078065D01*
X0171783Y0077581D01*
X0171693Y0077098D01*
X0171591Y0076618D01*
X0171478Y0076140D01*
X0171353Y0075666D01*
X0171216Y0075194D01*
X0171068Y0074726D01*
X0170908Y0074262D01*
X0170737Y0073802D01*
X0170555Y0073346D01*
X0170361Y0072895D01*
X0170157Y0072449D01*
X0169941Y0072008D01*
X0169715Y0071572D01*
X0169479Y0071142D01*
X0169232Y0070718D01*
X0168974Y0070300D01*
X0168706Y0069889D01*
X0168429Y0069484D01*
X0168141Y0069086D01*
X0167844Y0068695D01*
X0167537Y0068312D01*
X0167221Y0067937D01*
X0166896Y0067569D01*
X0166562Y0067209D01*
X0166219Y0066858D01*
X0165868Y0066515D01*
X0165508Y0066181D01*
X0165140Y0065856D01*
X0164765Y0065540D01*
X0164382Y0065233D01*
X0163991Y0064936D01*
X0163593Y0064648D01*
X0163188Y0064371D01*
X0162777Y0064103D01*
X0162359Y0063845D01*
X0161935Y0063598D01*
X0161505Y0063362D01*
X0161069Y0063136D01*
X0160628Y0062920D01*
X0160182Y0062716D01*
X0159731Y0062522D01*
X0159275Y0062340D01*
X0158815Y0062169D01*
X0158351Y0062009D01*
X0157883Y0061861D01*
X0157411Y0061724D01*
X0156937Y0061599D01*
X0156459Y0061486D01*
X0155979Y0061384D01*
X0155496Y0061294D01*
X0155012Y0061216D01*
X0154525Y0061150D01*
X0154037Y0061096D01*
X0153548Y0061054D01*
X0153058Y0061024D01*
X0152568Y0061006D01*
X0152077Y0061000D01*
X0151586Y0061006D01*
X0151096Y0061024D01*
X0150606Y0061054D01*
X0150117Y0061096D01*
X0149629Y0061150D01*
X0149142Y0061216D01*
X0148658Y0061294D01*
X0148175Y0061384D01*
X0147695Y0061486D01*
X0147217Y0061599D01*
X0146743Y0061724D01*
X0146271Y0061861D01*
X0145803Y0062009D01*
X0145339Y0062169D01*
X0144879Y0062340D01*
X0144423Y0062522D01*
X0143972Y0062716D01*
X0143526Y0062920D01*
X0143085Y0063136D01*
X0142649Y0063362D01*
X0142219Y0063598D01*
X0141795Y0063845D01*
X0141377Y0064103D01*
X0140966Y0064371D01*
X0140561Y0064648D01*
X0140163Y0064936D01*
X0139772Y0065233D01*
X0139389Y0065540D01*
X0139014Y0065856D01*
X0138646Y0066181D01*
X0138286Y0066515D01*
X0137935Y0066858D01*
X0137592Y0067209D01*
X0137258Y0067569D01*
X0136933Y0067937D01*
X0136617Y0068312D01*
X0136310Y0068695D01*
X0136013Y0069086D01*
X0135725Y0069484D01*
X0135448Y0069889D01*
X0135180Y0070300D01*
X0134922Y0070718D01*
X0134675Y0071142D01*
X0134439Y0071572D01*
X0134213Y0072008D01*
X0133997Y0072449D01*
X0133793Y0072895D01*
X0133599Y0073346D01*
X0133417Y0073802D01*
X0133246Y0074262D01*
X0133086Y0074726D01*
X0132938Y0075194D01*
X0132801Y0075666D01*
X0132676Y0076140D01*
X0132563Y0076618D01*
X0132461Y0077098D01*
X0132371Y0077581D01*
X0132293Y0078065D01*
X0132227Y0078552D01*
X0132173Y0079040D01*
X0132131Y0079529D01*
X0132101Y0080019D01*
X0132083Y0080509D01*
X0132077Y0081000D01*
X0152077Y0078500D02*
X0152077Y0076500D01*
X0201053Y0074425D02*
X0213061Y0074425D01*
X0213061Y0072358D01*
X0203120Y0072358D01*
X0203120Y0029642D01*
X0213061Y0029642D01*
X0213061Y0027575D01*
X0201053Y0027575D01*
X0201053Y0074425D01*
X0213061Y0074425D02*
X0216703Y0074425D01*
X0216703Y0064780D01*
X0218770Y0064780D01*
X0218770Y0074425D01*
X0216703Y0074425D01*
X0218770Y0064780D02*
X0218770Y0037220D01*
X0216703Y0037220D01*
X0216703Y0027575D01*
X0213061Y0027575D01*
X0216703Y0027575D02*
X0218770Y0027575D01*
X0218770Y0037220D01*
X0236053Y0027762D02*
X0236053Y0066738D01*
X0248061Y0066738D01*
X0248061Y0064671D01*
X0238120Y0064671D01*
X0238120Y0029829D01*
X0248061Y0029829D01*
X0248061Y0027762D01*
X0236053Y0027762D01*
X0228301Y0020705D02*
X0226166Y0018570D01*
X0224031Y0020705D01*
X0224031Y0014300D01*
X0221856Y0015368D02*
X0220788Y0014300D01*
X0218653Y0014300D01*
X0217586Y0015368D01*
X0217586Y0019638D01*
X0218653Y0020705D01*
X0220788Y0020705D01*
X0221856Y0019638D01*
X0221856Y0015368D01*
X0228301Y0014300D02*
X0228301Y0020705D01*
X0215410Y0020705D02*
X0211140Y0020705D01*
X0213275Y0020705D02*
X0213275Y0014300D01*
X0208965Y0014300D02*
X0206830Y0014300D01*
X0207897Y0014300D02*
X0207897Y0020705D01*
X0206830Y0020705D02*
X0208965Y0020705D01*
X0204668Y0019638D02*
X0204668Y0015368D01*
X0203600Y0014300D01*
X0201465Y0014300D01*
X0200398Y0015368D01*
X0200398Y0019638D01*
X0201465Y0020705D01*
X0203600Y0020705D01*
X0204668Y0019638D01*
X0198222Y0020705D02*
X0198222Y0014300D01*
X0193952Y0014300D02*
X0193952Y0020705D01*
X0198222Y0020705D02*
X0193952Y0014300D01*
X0248061Y0027762D02*
X0251703Y0027762D01*
X0251703Y0037407D01*
X0253770Y0037407D01*
X0253770Y0057093D01*
X0251703Y0057093D01*
X0251703Y0066738D01*
X0248061Y0066738D01*
X0251703Y0066738D02*
X0253770Y0066738D01*
X0253770Y0057093D01*
X0253965Y0069300D02*
X0251830Y0069300D01*
X0252897Y0069300D02*
X0252897Y0075705D01*
X0251830Y0075705D02*
X0253965Y0075705D01*
X0249668Y0074638D02*
X0248600Y0075705D01*
X0246465Y0075705D01*
X0245397Y0074638D01*
X0245397Y0073570D01*
X0249668Y0069300D01*
X0245397Y0069300D01*
X0243222Y0070368D02*
X0242155Y0069300D01*
X0240020Y0069300D01*
X0238952Y0070368D01*
X0238952Y0074638D02*
X0240020Y0075705D01*
X0242155Y0075705D01*
X0243222Y0074638D01*
X0243222Y0070368D01*
X0266053Y0074425D02*
X0278061Y0074425D01*
X0278061Y0072358D01*
X0268120Y0072358D01*
X0268120Y0029642D01*
X0278061Y0029642D01*
X0278061Y0027575D01*
X0266053Y0027575D01*
X0266053Y0074425D01*
X0278061Y0074425D02*
X0281703Y0074425D01*
X0281703Y0064780D01*
X0283770Y0064780D01*
X0283770Y0074425D01*
X0281703Y0074425D01*
X0283770Y0064780D02*
X0283770Y0037220D01*
X0281703Y0037220D01*
X0281703Y0027575D01*
X0278061Y0027575D01*
X0281703Y0027575D02*
X0283770Y0027575D01*
X0283770Y0037220D01*
X0296053Y0027762D02*
X0296053Y0066738D01*
X0308061Y0066738D01*
X0308061Y0064671D01*
X0298120Y0064671D01*
X0298120Y0029829D01*
X0308061Y0029829D01*
X0308061Y0027762D01*
X0296053Y0027762D01*
X0292937Y0020705D02*
X0294004Y0019638D01*
X0294004Y0018570D01*
X0292937Y0017503D01*
X0290802Y0017503D01*
X0289734Y0016435D01*
X0289734Y0015368D01*
X0290802Y0014300D01*
X0292937Y0014300D01*
X0294004Y0015368D01*
X0289734Y0019638D02*
X0290802Y0020705D01*
X0292937Y0020705D01*
X0287559Y0019638D02*
X0287559Y0015368D01*
X0286491Y0014300D01*
X0284356Y0014300D01*
X0283288Y0015368D01*
X0283288Y0019638D01*
X0284356Y0020705D01*
X0286491Y0020705D01*
X0287559Y0019638D01*
X0281113Y0020705D02*
X0281113Y0015368D01*
X0280046Y0014300D01*
X0277911Y0014300D01*
X0276843Y0015368D01*
X0276843Y0020705D01*
X0274668Y0020705D02*
X0270398Y0014300D01*
X0270398Y0020705D01*
X0268222Y0020705D02*
X0265020Y0020705D01*
X0263952Y0019638D01*
X0263952Y0015368D01*
X0265020Y0014300D01*
X0268222Y0014300D01*
X0268222Y0020705D01*
X0274668Y0020705D02*
X0274668Y0014300D01*
X0253770Y0027762D02*
X0253770Y0037407D01*
X0253770Y0027762D02*
X0251703Y0027762D01*
X0308061Y0027762D02*
X0311703Y0027762D01*
X0311703Y0037407D01*
X0313770Y0037407D01*
X0313770Y0057093D01*
X0311703Y0057093D01*
X0311703Y0066738D01*
X0308061Y0066738D01*
X0311703Y0066738D02*
X0313770Y0066738D01*
X0313770Y0057093D01*
X0309668Y0069300D02*
X0309668Y0073570D01*
X0307533Y0075705D01*
X0305397Y0073570D01*
X0305397Y0069300D01*
X0303222Y0069300D02*
X0298952Y0073570D01*
X0298952Y0074638D01*
X0300020Y0075705D01*
X0302155Y0075705D01*
X0303222Y0074638D01*
X0305397Y0072503D02*
X0309668Y0072503D01*
X0303222Y0069300D02*
X0298952Y0069300D01*
X0313770Y0037407D02*
X0313770Y0027762D01*
X0311703Y0027762D01*
X0132077Y0171000D02*
X0132089Y0171982D01*
X0132125Y0172963D01*
X0132185Y0173943D01*
X0132270Y0174921D01*
X0132378Y0175896D01*
X0132510Y0176869D01*
X0132666Y0177838D01*
X0132846Y0178804D01*
X0133049Y0179764D01*
X0133276Y0180719D01*
X0133526Y0181669D01*
X0133799Y0182611D01*
X0134096Y0183547D01*
X0134415Y0184476D01*
X0134757Y0185396D01*
X0135122Y0186307D01*
X0135509Y0187210D01*
X0135917Y0188102D01*
X0136348Y0188984D01*
X0136800Y0189856D01*
X0137274Y0190716D01*
X0137768Y0191564D01*
X0138283Y0192400D01*
X0138818Y0193223D01*
X0139374Y0194032D01*
X0139949Y0194828D01*
X0140543Y0195609D01*
X0141157Y0196376D01*
X0141789Y0197127D01*
X0142439Y0197862D01*
X0143107Y0198582D01*
X0143793Y0199284D01*
X0144495Y0199970D01*
X0145215Y0200638D01*
X0145950Y0201288D01*
X0146701Y0201920D01*
X0147468Y0202534D01*
X0148249Y0203128D01*
X0149045Y0203703D01*
X0149854Y0204259D01*
X0150677Y0204794D01*
X0151513Y0205309D01*
X0152361Y0205803D01*
X0153221Y0206277D01*
X0154093Y0206729D01*
X0154975Y0207160D01*
X0155867Y0207568D01*
X0156770Y0207955D01*
X0157681Y0208320D01*
X0158601Y0208662D01*
X0159530Y0208981D01*
X0160466Y0209278D01*
X0161408Y0209551D01*
X0162358Y0209801D01*
X0163313Y0210028D01*
X0164273Y0210231D01*
X0165239Y0210411D01*
X0166208Y0210567D01*
X0167181Y0210699D01*
X0168156Y0210807D01*
X0169134Y0210892D01*
X0170114Y0210952D01*
X0171095Y0210988D01*
X0172077Y0211000D01*
X0173059Y0210988D01*
X0174040Y0210952D01*
X0175020Y0210892D01*
X0175998Y0210807D01*
X0176973Y0210699D01*
X0177946Y0210567D01*
X0178915Y0210411D01*
X0179881Y0210231D01*
X0180841Y0210028D01*
X0181796Y0209801D01*
X0182746Y0209551D01*
X0183688Y0209278D01*
X0184624Y0208981D01*
X0185553Y0208662D01*
X0186473Y0208320D01*
X0187384Y0207955D01*
X0188287Y0207568D01*
X0189179Y0207160D01*
X0190061Y0206729D01*
X0190933Y0206277D01*
X0191793Y0205803D01*
X0192641Y0205309D01*
X0193477Y0204794D01*
X0194300Y0204259D01*
X0195109Y0203703D01*
X0195905Y0203128D01*
X0196686Y0202534D01*
X0197453Y0201920D01*
X0198204Y0201288D01*
X0198939Y0200638D01*
X0199659Y0199970D01*
X0200361Y0199284D01*
X0201047Y0198582D01*
X0201715Y0197862D01*
X0202365Y0197127D01*
X0202997Y0196376D01*
X0203611Y0195609D01*
X0204205Y0194828D01*
X0204780Y0194032D01*
X0205336Y0193223D01*
X0205871Y0192400D01*
X0206386Y0191564D01*
X0206880Y0190716D01*
X0207354Y0189856D01*
X0207806Y0188984D01*
X0208237Y0188102D01*
X0208645Y0187210D01*
X0209032Y0186307D01*
X0209397Y0185396D01*
X0209739Y0184476D01*
X0210058Y0183547D01*
X0210355Y0182611D01*
X0210628Y0181669D01*
X0210878Y0180719D01*
X0211105Y0179764D01*
X0211308Y0178804D01*
X0211488Y0177838D01*
X0211644Y0176869D01*
X0211776Y0175896D01*
X0211884Y0174921D01*
X0211969Y0173943D01*
X0212029Y0172963D01*
X0212065Y0171982D01*
X0212077Y0171000D01*
X0212065Y0170018D01*
X0212029Y0169037D01*
X0211969Y0168057D01*
X0211884Y0167079D01*
X0211776Y0166104D01*
X0211644Y0165131D01*
X0211488Y0164162D01*
X0211308Y0163196D01*
X0211105Y0162236D01*
X0210878Y0161281D01*
X0210628Y0160331D01*
X0210355Y0159389D01*
X0210058Y0158453D01*
X0209739Y0157524D01*
X0209397Y0156604D01*
X0209032Y0155693D01*
X0208645Y0154790D01*
X0208237Y0153898D01*
X0207806Y0153016D01*
X0207354Y0152144D01*
X0206880Y0151284D01*
X0206386Y0150436D01*
X0205871Y0149600D01*
X0205336Y0148777D01*
X0204780Y0147968D01*
X0204205Y0147172D01*
X0203611Y0146391D01*
X0202997Y0145624D01*
X0202365Y0144873D01*
X0201715Y0144138D01*
X0201047Y0143418D01*
X0200361Y0142716D01*
X0199659Y0142030D01*
X0198939Y0141362D01*
X0198204Y0140712D01*
X0197453Y0140080D01*
X0196686Y0139466D01*
X0195905Y0138872D01*
X0195109Y0138297D01*
X0194300Y0137741D01*
X0193477Y0137206D01*
X0192641Y0136691D01*
X0191793Y0136197D01*
X0190933Y0135723D01*
X0190061Y0135271D01*
X0189179Y0134840D01*
X0188287Y0134432D01*
X0187384Y0134045D01*
X0186473Y0133680D01*
X0185553Y0133338D01*
X0184624Y0133019D01*
X0183688Y0132722D01*
X0182746Y0132449D01*
X0181796Y0132199D01*
X0180841Y0131972D01*
X0179881Y0131769D01*
X0178915Y0131589D01*
X0177946Y0131433D01*
X0176973Y0131301D01*
X0175998Y0131193D01*
X0175020Y0131108D01*
X0174040Y0131048D01*
X0173059Y0131012D01*
X0172077Y0131000D01*
X0171095Y0131012D01*
X0170114Y0131048D01*
X0169134Y0131108D01*
X0168156Y0131193D01*
X0167181Y0131301D01*
X0166208Y0131433D01*
X0165239Y0131589D01*
X0164273Y0131769D01*
X0163313Y0131972D01*
X0162358Y0132199D01*
X0161408Y0132449D01*
X0160466Y0132722D01*
X0159530Y0133019D01*
X0158601Y0133338D01*
X0157681Y0133680D01*
X0156770Y0134045D01*
X0155867Y0134432D01*
X0154975Y0134840D01*
X0154093Y0135271D01*
X0153221Y0135723D01*
X0152361Y0136197D01*
X0151513Y0136691D01*
X0150677Y0137206D01*
X0149854Y0137741D01*
X0149045Y0138297D01*
X0148249Y0138872D01*
X0147468Y0139466D01*
X0146701Y0140080D01*
X0145950Y0140712D01*
X0145215Y0141362D01*
X0144495Y0142030D01*
X0143793Y0142716D01*
X0143107Y0143418D01*
X0142439Y0144138D01*
X0141789Y0144873D01*
X0141157Y0145624D01*
X0140543Y0146391D01*
X0139949Y0147172D01*
X0139374Y0147968D01*
X0138818Y0148777D01*
X0138283Y0149600D01*
X0137768Y0150436D01*
X0137274Y0151284D01*
X0136800Y0152144D01*
X0136348Y0153016D01*
X0135917Y0153898D01*
X0135509Y0154790D01*
X0135122Y0155693D01*
X0134757Y0156604D01*
X0134415Y0157524D01*
X0134096Y0158453D01*
X0133799Y0159389D01*
X0133526Y0160331D01*
X0133276Y0161281D01*
X0133049Y0162236D01*
X0132846Y0163196D01*
X0132666Y0164162D01*
X0132510Y0165131D01*
X0132378Y0166104D01*
X0132270Y0167079D01*
X0132185Y0168057D01*
X0132125Y0169037D01*
X0132089Y0170018D01*
X0132077Y0171000D01*
X0152077Y0209500D02*
X0152077Y0212500D01*
X0150577Y0211000D02*
X0153577Y0211000D01*
D12*
X0237277Y0156002D02*
X0237277Y0154467D01*
X0238044Y0153700D01*
X0239579Y0153700D02*
X0240346Y0155235D01*
X0240346Y0156002D01*
X0239579Y0156769D01*
X0238044Y0156769D01*
X0237277Y0156002D01*
X0239579Y0153700D02*
X0241881Y0153700D01*
X0241881Y0156769D01*
X0244777Y0161002D02*
X0249381Y0161002D01*
X0247079Y0158700D01*
X0247079Y0161769D01*
X0246311Y0151769D02*
X0247079Y0151002D01*
X0247079Y0148700D01*
X0245544Y0148700D01*
X0244777Y0149467D01*
X0244777Y0151002D01*
X0245544Y0151769D01*
X0246311Y0151769D01*
X0248613Y0150235D02*
X0247079Y0148700D01*
X0248613Y0150235D02*
X0249381Y0151769D01*
X0241881Y0146769D02*
X0241113Y0146769D01*
X0238044Y0143700D01*
X0237277Y0143700D01*
X0241881Y0143700D02*
X0241881Y0146769D01*
X0245544Y0141769D02*
X0244777Y0141002D01*
X0244777Y0139467D01*
X0245544Y0138700D01*
X0246311Y0138700D01*
X0247079Y0139467D01*
X0247079Y0141002D01*
X0246311Y0141769D01*
X0245544Y0141769D01*
X0247079Y0141002D02*
X0247846Y0141769D01*
X0248613Y0141769D01*
X0249381Y0141002D01*
X0249381Y0139467D01*
X0248613Y0138700D01*
X0247846Y0138700D01*
X0247079Y0139467D01*
X0248613Y0136373D02*
X0245544Y0136373D01*
X0244777Y0135606D01*
X0244777Y0134071D01*
X0245544Y0133304D01*
X0248613Y0136373D01*
X0249381Y0135606D01*
X0249381Y0134071D01*
X0248613Y0133304D01*
X0245544Y0133304D01*
X0244777Y0131769D02*
X0244777Y0128700D01*
X0244777Y0130235D02*
X0249381Y0130235D01*
X0247846Y0128700D01*
X0247846Y0126373D02*
X0248613Y0126373D01*
X0249381Y0125606D01*
X0249381Y0124071D01*
X0248613Y0123304D01*
X0247846Y0126373D02*
X0244777Y0123304D01*
X0244777Y0126373D01*
X0241881Y0125235D02*
X0240346Y0123700D01*
X0241881Y0125235D02*
X0237277Y0125235D01*
X0237277Y0126769D02*
X0237277Y0123700D01*
X0238044Y0121373D02*
X0237277Y0120606D01*
X0237277Y0119071D01*
X0238044Y0118304D01*
X0237277Y0116769D02*
X0237277Y0113700D01*
X0237277Y0115235D02*
X0241881Y0115235D01*
X0240346Y0113700D01*
X0241113Y0118304D02*
X0241881Y0119071D01*
X0241881Y0120606D01*
X0241113Y0121373D01*
X0240346Y0121373D01*
X0239579Y0120606D01*
X0238811Y0121373D01*
X0238044Y0121373D01*
X0239579Y0120606D02*
X0239579Y0119839D01*
X0244777Y0120235D02*
X0249381Y0120235D01*
X0247846Y0118700D01*
X0244777Y0118700D02*
X0244777Y0121769D01*
X0240346Y0128304D02*
X0241881Y0129839D01*
X0237277Y0129839D01*
X0237277Y0131373D02*
X0237277Y0128304D01*
X0238044Y0133700D02*
X0237277Y0134467D01*
X0237277Y0136002D01*
X0238044Y0136769D01*
X0241113Y0136769D01*
X0241881Y0136002D01*
X0241881Y0134467D01*
X0241113Y0133700D01*
X0240346Y0133700D01*
X0239579Y0134467D01*
X0239579Y0136769D01*
X0211877Y0125804D02*
X0211877Y0121200D01*
X0208807Y0121200D01*
X0207273Y0121967D02*
X0206506Y0122735D01*
X0204204Y0122735D01*
X0204204Y0123502D02*
X0204204Y0121200D01*
X0206506Y0121200D01*
X0207273Y0121967D01*
X0206506Y0124269D02*
X0204971Y0124269D01*
X0204204Y0123502D01*
X0202669Y0124269D02*
X0199600Y0124269D01*
X0202669Y0121200D01*
X0199600Y0121200D01*
X0198065Y0121967D02*
X0198065Y0124269D01*
X0198065Y0121967D02*
X0197298Y0121200D01*
X0194996Y0121200D01*
X0194996Y0124269D01*
X0193461Y0124269D02*
X0193461Y0121200D01*
X0193461Y0122735D02*
X0191926Y0124269D01*
X0191159Y0124269D01*
X0189624Y0124269D02*
X0188857Y0124269D01*
X0188857Y0121200D01*
X0189624Y0121200D02*
X0188090Y0121200D01*
X0185788Y0121967D02*
X0185021Y0121200D01*
X0185788Y0121967D02*
X0185788Y0125037D01*
X0186555Y0124269D02*
X0185021Y0124269D01*
X0183486Y0123502D02*
X0182719Y0124269D01*
X0181184Y0124269D01*
X0180417Y0123502D01*
X0180417Y0122735D01*
X0183486Y0122735D01*
X0183486Y0123502D02*
X0183486Y0121967D01*
X0182719Y0121200D01*
X0181184Y0121200D01*
X0174278Y0121967D02*
X0174278Y0125037D01*
X0173511Y0125804D01*
X0171976Y0125804D01*
X0171209Y0125037D01*
X0169674Y0125804D02*
X0166605Y0125804D01*
X0168140Y0125804D02*
X0168140Y0121200D01*
X0171209Y0121967D02*
X0171976Y0121200D01*
X0173511Y0121200D01*
X0174278Y0121967D01*
X0177694Y0115804D02*
X0179228Y0115804D01*
X0179996Y0115037D01*
X0179996Y0114269D01*
X0179228Y0113502D01*
X0177694Y0113502D01*
X0176926Y0112735D01*
X0176926Y0111967D01*
X0177694Y0111200D01*
X0179228Y0111200D01*
X0179996Y0111967D01*
X0181530Y0111200D02*
X0183065Y0111200D01*
X0182298Y0111200D02*
X0182298Y0115804D01*
X0183065Y0115804D02*
X0181530Y0115804D01*
X0184600Y0115037D02*
X0184600Y0113502D01*
X0185367Y0112735D01*
X0187669Y0112735D01*
X0187669Y0111200D02*
X0187669Y0115804D01*
X0185367Y0115804D01*
X0184600Y0115037D01*
X0189204Y0114269D02*
X0189204Y0111200D01*
X0189204Y0113502D02*
X0192273Y0113502D01*
X0192273Y0114269D02*
X0192273Y0111200D01*
X0193807Y0111200D02*
X0196877Y0111200D01*
X0196877Y0115804D01*
X0192273Y0114269D02*
X0190738Y0115804D01*
X0189204Y0114269D01*
X0177694Y0115804D02*
X0176926Y0115037D01*
X0170788Y0115037D02*
X0170788Y0114269D01*
X0170021Y0113502D01*
X0168486Y0113502D01*
X0167719Y0112735D01*
X0167719Y0111967D01*
X0168486Y0111200D01*
X0170021Y0111200D01*
X0170788Y0111967D01*
X0170788Y0115037D02*
X0170021Y0115804D01*
X0168486Y0115804D01*
X0167719Y0115037D01*
X0166184Y0113502D02*
X0165417Y0114269D01*
X0163882Y0114269D01*
X0163115Y0113502D01*
X0163115Y0112735D01*
X0166184Y0112735D01*
X0166184Y0113502D02*
X0166184Y0111967D01*
X0165417Y0111200D01*
X0163882Y0111200D01*
X0161580Y0111200D02*
X0161580Y0114269D01*
X0160813Y0114269D01*
X0160045Y0113502D01*
X0159278Y0114269D01*
X0158511Y0113502D01*
X0158511Y0111200D01*
X0160045Y0111200D02*
X0160045Y0113502D01*
X0156976Y0114269D02*
X0156209Y0114269D01*
X0156209Y0111200D01*
X0156976Y0111200D02*
X0155441Y0111200D01*
X0153907Y0111967D02*
X0153140Y0111200D01*
X0150838Y0111200D01*
X0149303Y0111967D02*
X0148536Y0111200D01*
X0147001Y0111200D01*
X0146234Y0111967D01*
X0146234Y0113502D01*
X0147001Y0114269D01*
X0148536Y0114269D01*
X0149303Y0113502D01*
X0149303Y0111967D01*
X0150838Y0114269D02*
X0153140Y0114269D01*
X0153907Y0113502D01*
X0153907Y0111967D01*
X0156209Y0115804D02*
X0156209Y0116571D01*
X0155095Y0121200D02*
X0155862Y0121967D01*
X0155862Y0123502D01*
X0155095Y0124269D01*
X0153560Y0124269D01*
X0152793Y0123502D01*
X0152793Y0122735D01*
X0155862Y0122735D01*
X0157397Y0122735D02*
X0157397Y0121967D01*
X0158164Y0121200D01*
X0159699Y0121200D01*
X0160466Y0121967D01*
X0159699Y0123502D02*
X0158164Y0123502D01*
X0157397Y0122735D01*
X0157397Y0125037D02*
X0158164Y0125804D01*
X0159699Y0125804D01*
X0160466Y0125037D01*
X0160466Y0124269D01*
X0159699Y0123502D01*
X0155095Y0121200D02*
X0153560Y0121200D01*
X0151258Y0121200D02*
X0151258Y0124269D01*
X0148956Y0124269D01*
X0148189Y0123502D01*
X0148189Y0121200D01*
X0146655Y0121200D02*
X0144353Y0121200D01*
X0143585Y0121967D01*
X0144353Y0122735D01*
X0145887Y0122735D01*
X0146655Y0123502D01*
X0145887Y0124269D01*
X0143585Y0124269D01*
X0142051Y0123502D02*
X0142051Y0121967D01*
X0141283Y0121200D01*
X0139749Y0121200D01*
X0138981Y0121967D01*
X0138981Y0123502D01*
X0139749Y0124269D01*
X0141283Y0124269D01*
X0142051Y0123502D01*
X0137447Y0124269D02*
X0137447Y0121200D01*
X0137447Y0122735D02*
X0135912Y0124269D01*
X0135145Y0124269D01*
X0129006Y0124269D02*
X0128239Y0123502D01*
X0126704Y0123502D01*
X0125937Y0122735D01*
X0125937Y0121967D01*
X0126704Y0121200D01*
X0128239Y0121200D01*
X0129006Y0121967D01*
X0129006Y0124269D02*
X0129006Y0125037D01*
X0128239Y0125804D01*
X0126704Y0125804D01*
X0125937Y0125037D01*
X0124402Y0125804D02*
X0124402Y0121200D01*
X0124402Y0123502D02*
X0123635Y0124269D01*
X0122100Y0124269D01*
X0121333Y0123502D01*
X0121333Y0121200D01*
X0119798Y0121200D02*
X0118264Y0121200D01*
X0119031Y0121200D02*
X0119031Y0124269D01*
X0119798Y0124269D01*
X0119031Y0125804D02*
X0119031Y0126571D01*
X0116729Y0125804D02*
X0115962Y0125804D01*
X0115962Y0121200D01*
X0116729Y0121200D02*
X0115194Y0121200D01*
X0113660Y0121967D02*
X0113660Y0123502D01*
X0112892Y0124269D01*
X0111358Y0124269D01*
X0110590Y0123502D01*
X0110590Y0122735D01*
X0113660Y0122735D01*
X0113660Y0121967D02*
X0112892Y0121200D01*
X0111358Y0121200D01*
X0109056Y0121967D02*
X0109056Y0123502D01*
X0108288Y0124269D01*
X0105987Y0124269D01*
X0105987Y0125804D02*
X0105987Y0121200D01*
X0108288Y0121200D01*
X0109056Y0121967D01*
X0109402Y0115804D02*
X0107868Y0115804D01*
X0107100Y0115037D01*
X0105566Y0113502D02*
X0104798Y0114269D01*
X0103264Y0114269D01*
X0102496Y0113502D01*
X0102496Y0111967D01*
X0103264Y0111200D01*
X0104798Y0111200D01*
X0105566Y0111967D01*
X0105566Y0113502D01*
X0107100Y0111967D02*
X0107868Y0111200D01*
X0109402Y0111200D01*
X0110170Y0111967D01*
X0110170Y0115037D01*
X0109402Y0115804D01*
X0116308Y0114269D02*
X0117075Y0114269D01*
X0118610Y0112735D01*
X0118610Y0114269D02*
X0118610Y0111200D01*
X0120145Y0111967D02*
X0120912Y0111200D01*
X0122447Y0111200D01*
X0123214Y0111967D01*
X0123214Y0113502D01*
X0122447Y0114269D01*
X0120912Y0114269D01*
X0120145Y0113502D01*
X0120145Y0111967D01*
X0124749Y0111200D02*
X0125516Y0111967D01*
X0125516Y0115037D01*
X0126283Y0114269D02*
X0124749Y0114269D01*
X0127818Y0114269D02*
X0130120Y0114269D01*
X0130887Y0113502D01*
X0130887Y0111967D01*
X0130120Y0111200D01*
X0127818Y0111200D01*
X0132422Y0111200D02*
X0132422Y0114269D01*
X0135491Y0114269D02*
X0135491Y0111967D01*
X0134724Y0111200D01*
X0132422Y0111200D01*
X0137026Y0111200D02*
X0139328Y0111200D01*
X0140095Y0111967D01*
X0140095Y0113502D01*
X0139328Y0114269D01*
X0137026Y0114269D01*
X0137026Y0115804D02*
X0137026Y0111200D01*
X0141630Y0111200D02*
X0141630Y0113502D01*
X0142397Y0114269D01*
X0144699Y0114269D01*
X0144699Y0111200D01*
X0100962Y0111200D02*
X0100194Y0111200D01*
X0100194Y0111967D01*
X0100962Y0111967D01*
X0100962Y0111200D01*
X0098660Y0109665D02*
X0097125Y0111200D01*
X0097892Y0111200D01*
X0097892Y0111967D01*
X0097125Y0111967D01*
X0097125Y0111200D01*
X0095590Y0111200D02*
X0092521Y0111200D01*
X0090219Y0111967D02*
X0089452Y0111200D01*
X0090219Y0111967D02*
X0090219Y0115037D01*
X0089452Y0114269D02*
X0090987Y0114269D01*
X0087917Y0113502D02*
X0087150Y0114269D01*
X0084848Y0114269D01*
X0084848Y0115804D02*
X0084848Y0111200D01*
X0087150Y0111200D01*
X0087917Y0111967D01*
X0087917Y0113502D01*
X0083313Y0111967D02*
X0083313Y0111200D01*
X0082546Y0111200D01*
X0082546Y0111967D01*
X0083313Y0111967D01*
X0083734Y0121200D02*
X0083734Y0125804D01*
X0082200Y0124269D01*
X0080665Y0125804D01*
X0080665Y0121200D01*
X0079130Y0121200D02*
X0077596Y0121200D01*
X0078363Y0121200D02*
X0078363Y0125804D01*
X0079130Y0125804D02*
X0077596Y0125804D01*
X0076061Y0125804D02*
X0072992Y0121200D01*
X0072992Y0125804D01*
X0071457Y0125804D02*
X0069922Y0125804D01*
X0070690Y0125804D02*
X0070690Y0121200D01*
X0071457Y0121200D02*
X0069922Y0121200D01*
X0076061Y0121200D02*
X0076061Y0125804D01*
X0089873Y0124269D02*
X0090640Y0124269D01*
X0092175Y0122735D01*
X0092175Y0124269D02*
X0092175Y0121200D01*
X0093709Y0121967D02*
X0093709Y0123502D01*
X0094477Y0124269D01*
X0096011Y0124269D01*
X0096779Y0123502D01*
X0096779Y0121967D01*
X0096011Y0121200D01*
X0094477Y0121200D01*
X0093709Y0121967D01*
X0098313Y0123502D02*
X0099848Y0123502D01*
X0099081Y0125037D02*
X0099081Y0121200D01*
X0099081Y0125037D02*
X0098313Y0125804D01*
X0095590Y0115804D02*
X0095590Y0111200D01*
X0036881Y0098131D02*
X0032277Y0098131D01*
X0032277Y0099665D02*
X0032277Y0096596D01*
X0035346Y0096596D02*
X0036881Y0098131D01*
X0036113Y0064665D02*
X0036881Y0063898D01*
X0036881Y0062363D01*
X0036113Y0061596D01*
X0036113Y0064665D02*
X0035346Y0064665D01*
X0032277Y0061596D01*
X0032277Y0064665D01*
X0034946Y0025804D02*
X0034946Y0021200D01*
X0036481Y0021200D02*
X0033411Y0021200D01*
X0036481Y0024269D02*
X0034946Y0025804D01*
X0038015Y0025804D02*
X0038015Y0021200D01*
X0041085Y0025804D01*
X0041085Y0021200D01*
X0042619Y0021967D02*
X0043387Y0021200D01*
X0044921Y0021200D01*
X0045689Y0021967D01*
X0045689Y0025037D01*
X0044921Y0025804D01*
X0043387Y0025804D01*
X0042619Y0025037D01*
X0188857Y0125804D02*
X0188857Y0126571D01*
X0277277Y0103502D02*
X0277277Y0101967D01*
X0278044Y0101200D01*
X0281113Y0104269D01*
X0278044Y0104269D01*
X0277277Y0103502D01*
X0278044Y0101200D02*
X0281113Y0101200D01*
X0281881Y0101967D01*
X0281881Y0103502D01*
X0281113Y0104269D01*
X0277277Y0094269D02*
X0277277Y0091200D01*
X0277277Y0092735D02*
X0281881Y0092735D01*
X0280346Y0091200D01*
X0303811Y0113700D02*
X0302277Y0115235D01*
X0303811Y0116769D01*
X0306881Y0116769D01*
X0306881Y0113700D02*
X0303811Y0113700D01*
X0298613Y0118700D02*
X0295544Y0118700D01*
X0294777Y0119467D01*
X0294777Y0121002D01*
X0295544Y0121769D01*
X0297079Y0121769D01*
X0297079Y0120235D01*
X0298613Y0121769D02*
X0299381Y0121002D01*
X0299381Y0119467D01*
X0298613Y0118700D01*
X0302277Y0123700D02*
X0302277Y0126769D01*
X0302277Y0125235D02*
X0306881Y0125235D01*
X0305346Y0123700D01*
X0304579Y0128304D02*
X0304579Y0131373D01*
X0306881Y0130606D02*
X0304579Y0128304D01*
X0302277Y0130606D02*
X0306881Y0130606D01*
X0305346Y0133700D02*
X0306881Y0135235D01*
X0302277Y0135235D01*
X0302277Y0136769D02*
X0302277Y0133700D01*
X0299381Y0133304D02*
X0297079Y0133304D01*
X0297846Y0134839D01*
X0297846Y0135606D01*
X0297079Y0136373D01*
X0295544Y0136373D01*
X0294777Y0135606D01*
X0294777Y0134071D01*
X0295544Y0133304D01*
X0294777Y0131769D02*
X0294777Y0128700D01*
X0294777Y0130235D02*
X0299381Y0130235D01*
X0297846Y0128700D01*
X0299381Y0133304D02*
X0299381Y0136373D01*
X0297846Y0138700D02*
X0299381Y0140235D01*
X0294777Y0140235D01*
X0294777Y0141769D02*
X0294777Y0138700D01*
X0294777Y0143304D02*
X0295544Y0143304D01*
X0298613Y0146373D01*
X0299381Y0146373D01*
X0299381Y0143304D01*
X0302277Y0143700D02*
X0302277Y0146769D01*
X0302277Y0145235D02*
X0306881Y0145235D01*
X0305346Y0143700D01*
X0303811Y0141373D02*
X0304579Y0140606D01*
X0304579Y0138304D01*
X0303044Y0138304D01*
X0302277Y0139071D01*
X0302277Y0140606D01*
X0303044Y0141373D01*
X0303811Y0141373D01*
X0306113Y0139839D02*
X0304579Y0138304D01*
X0306113Y0139839D02*
X0306881Y0141373D01*
X0306113Y0148304D02*
X0305346Y0148304D01*
X0304579Y0149071D01*
X0304579Y0150606D01*
X0303811Y0151373D01*
X0303044Y0151373D01*
X0302277Y0150606D01*
X0302277Y0149071D01*
X0303044Y0148304D01*
X0303811Y0148304D01*
X0304579Y0149071D01*
X0304579Y0150606D02*
X0305346Y0151373D01*
X0306113Y0151373D01*
X0306881Y0150606D01*
X0306881Y0149071D01*
X0306113Y0148304D01*
X0299381Y0150235D02*
X0297846Y0148700D01*
X0299381Y0150235D02*
X0294777Y0150235D01*
X0294777Y0151769D02*
X0294777Y0148700D01*
X0295544Y0153304D02*
X0294777Y0154071D01*
X0294777Y0155606D01*
X0295544Y0156373D01*
X0298613Y0156373D01*
X0299381Y0155606D01*
X0299381Y0154071D01*
X0298613Y0153304D01*
X0297846Y0153304D01*
X0297079Y0154071D01*
X0297079Y0156373D01*
X0298613Y0158700D02*
X0299381Y0159467D01*
X0299381Y0161002D01*
X0298613Y0161769D01*
X0297846Y0161769D01*
X0294777Y0158700D01*
X0294777Y0161769D01*
X0302277Y0158502D02*
X0302277Y0156967D01*
X0303044Y0156200D01*
X0304579Y0157735D02*
X0304579Y0158502D01*
X0303811Y0159269D01*
X0303044Y0159269D01*
X0302277Y0158502D01*
X0304579Y0158502D02*
X0305346Y0159269D01*
X0306113Y0159269D01*
X0306881Y0158502D01*
X0306881Y0156967D01*
X0306113Y0156200D01*
X0046085Y0207735D02*
X0044550Y0206200D01*
X0043015Y0207735D01*
X0043015Y0210804D01*
X0041481Y0209269D02*
X0039946Y0210804D01*
X0039946Y0206200D01*
X0041481Y0206200D02*
X0038411Y0206200D01*
X0046085Y0207735D02*
X0046085Y0210804D01*
D13*
X0152077Y0078750D03*
D14*
X0171928Y0090450D02*
X0174931Y0090450D01*
X0173429Y0090450D02*
X0173429Y0094954D01*
X0174931Y0093453D01*
X0176532Y0094203D02*
X0177283Y0094954D01*
X0178784Y0094954D01*
X0179535Y0094203D01*
X0179535Y0091201D01*
X0178784Y0090450D01*
X0177283Y0090450D01*
X0176532Y0091201D01*
X0245827Y0091231D02*
X0246057Y0091231D01*
X0245827Y0091000D02*
X0248327Y0093500D01*
X0245827Y0096000D01*
X0245827Y0091000D01*
X0245827Y0091729D02*
X0246556Y0091729D01*
X0247054Y0092228D02*
X0245827Y0092228D01*
X0245827Y0092726D02*
X0247553Y0092726D01*
X0248051Y0093225D02*
X0245827Y0093225D01*
X0245827Y0093723D02*
X0248104Y0093723D01*
X0247605Y0094222D02*
X0245827Y0094222D01*
X0245827Y0094720D02*
X0247107Y0094720D01*
X0246608Y0095219D02*
X0245827Y0095219D01*
X0245827Y0095717D02*
X0246110Y0095717D01*
X0322327Y0096356D02*
X0322327Y0093354D01*
X0322327Y0094855D02*
X0326831Y0094855D01*
X0325329Y0093354D01*
X0326831Y0091753D02*
X0323077Y0091753D01*
X0322327Y0091002D01*
X0322327Y0089501D01*
X0323077Y0088750D01*
X0326831Y0088750D01*
X0320922Y0040025D02*
X0320172Y0040025D01*
X0319421Y0039275D01*
X0318671Y0040025D01*
X0317920Y0040025D01*
X0317169Y0039275D01*
X0317169Y0037773D01*
X0317920Y0037023D01*
X0317169Y0035421D02*
X0321673Y0035421D01*
X0320922Y0037023D02*
X0321673Y0037773D01*
X0321673Y0039275D01*
X0320922Y0040025D01*
X0319421Y0039275D02*
X0319421Y0038524D01*
X0317169Y0035421D02*
X0321673Y0032419D01*
X0317169Y0032419D01*
X0317920Y0030818D02*
X0317169Y0030067D01*
X0317169Y0028566D01*
X0317920Y0027815D01*
X0320922Y0027815D01*
X0321673Y0028566D01*
X0321673Y0030067D01*
X0320922Y0030818D01*
X0291673Y0029880D02*
X0291673Y0028379D01*
X0290922Y0027628D01*
X0287920Y0027628D01*
X0287169Y0028379D01*
X0287169Y0029880D01*
X0287920Y0030631D01*
X0287169Y0032232D02*
X0291673Y0032232D01*
X0287169Y0035234D01*
X0291673Y0035234D01*
X0291673Y0036836D02*
X0291673Y0039838D01*
X0290922Y0039838D01*
X0287920Y0036836D01*
X0287169Y0036836D01*
X0290922Y0030631D02*
X0291673Y0029880D01*
X0261673Y0030067D02*
X0261673Y0028566D01*
X0260922Y0027815D01*
X0257920Y0027815D01*
X0257169Y0028566D01*
X0257169Y0030067D01*
X0257920Y0030818D01*
X0257169Y0032419D02*
X0261673Y0032419D01*
X0257169Y0035421D01*
X0261673Y0035421D01*
X0259421Y0037023D02*
X0259421Y0039275D01*
X0258671Y0040025D01*
X0257920Y0040025D01*
X0257169Y0039275D01*
X0257169Y0037773D01*
X0257920Y0037023D01*
X0259421Y0037023D01*
X0260922Y0038524D01*
X0261673Y0040025D01*
X0260922Y0030818D02*
X0261673Y0030067D01*
X0226673Y0029880D02*
X0226673Y0028379D01*
X0225922Y0027628D01*
X0222920Y0027628D01*
X0222169Y0028379D01*
X0222169Y0029880D01*
X0222920Y0030631D01*
X0222169Y0032232D02*
X0226673Y0032232D01*
X0222169Y0035234D01*
X0226673Y0035234D01*
X0225922Y0036836D02*
X0226673Y0037586D01*
X0226673Y0039088D01*
X0225922Y0039838D01*
X0225172Y0039838D01*
X0222169Y0036836D01*
X0222169Y0039838D01*
X0225922Y0030631D02*
X0226673Y0029880D01*
X0067077Y0029500D02*
X0062709Y0029500D01*
X0058772Y0029500D02*
X0054405Y0029500D01*
X0050468Y0029500D02*
X0046100Y0029500D01*
X0042163Y0029500D02*
X0037795Y0029500D01*
X0033858Y0029500D02*
X0029491Y0029500D01*
X0025554Y0029500D02*
X0021186Y0029500D01*
X0017249Y0029500D02*
X0012881Y0029500D01*
X0008944Y0029500D02*
X0004577Y0029500D01*
X0004577Y0034107D01*
X0004577Y0038044D02*
X0004577Y0042650D01*
X0004577Y0046587D02*
X0004577Y0051194D01*
X0004577Y0055131D02*
X0004577Y0059738D01*
X0004577Y0063675D02*
X0004577Y0068281D01*
X0004577Y0072219D02*
X0004577Y0076825D01*
X0004577Y0080762D02*
X0004577Y0085369D01*
X0004577Y0089306D02*
X0004577Y0093913D01*
X0004577Y0097850D02*
X0004577Y0102456D01*
X0004577Y0106393D02*
X0004577Y0111000D01*
X0008944Y0111000D01*
X0012881Y0111000D02*
X0017249Y0111000D01*
X0021186Y0111000D02*
X0025554Y0111000D01*
X0029491Y0111000D02*
X0033858Y0111000D01*
X0037795Y0111000D02*
X0042163Y0111000D01*
X0046100Y0111000D02*
X0050468Y0111000D01*
X0054405Y0111000D02*
X0058772Y0111000D01*
X0062709Y0111000D02*
X0067077Y0111000D01*
X0067077Y0106393D01*
X0067077Y0102456D02*
X0067077Y0097850D01*
X0067077Y0093913D02*
X0067077Y0089306D01*
X0067077Y0085369D02*
X0067077Y0080762D01*
X0067077Y0076825D02*
X0067077Y0072219D01*
X0067077Y0068281D02*
X0067077Y0063675D01*
X0067077Y0059738D02*
X0067077Y0055131D01*
X0067077Y0051194D02*
X0067077Y0046587D01*
X0067077Y0042650D02*
X0067077Y0038044D01*
X0067077Y0034107D02*
X0067077Y0029500D01*
X0029672Y0118189D02*
X0026670Y0118189D01*
X0025919Y0118940D01*
X0025919Y0120441D01*
X0026670Y0121192D01*
X0025919Y0122793D02*
X0030423Y0122793D01*
X0025919Y0125795D01*
X0030423Y0125795D01*
X0028171Y0127397D02*
X0028171Y0130399D01*
X0025919Y0129649D02*
X0030423Y0129649D01*
X0028171Y0127397D01*
X0029672Y0121192D02*
X0030423Y0120441D01*
X0030423Y0118940D01*
X0029672Y0118189D01*
X0206928Y0200450D02*
X0209931Y0200450D01*
X0206928Y0203453D01*
X0206928Y0204203D01*
X0207679Y0204954D01*
X0209180Y0204954D01*
X0209931Y0204203D01*
X0211532Y0204203D02*
X0212283Y0204954D01*
X0213784Y0204954D01*
X0214535Y0204203D01*
X0214535Y0201201D01*
X0213784Y0200450D01*
X0212283Y0200450D01*
X0211532Y0201201D01*
M02*
