G75*
%MOIN*%
%OFA0B0*%
%FSLAX25Y25*%
%IPPOS*%
%LPD*%
%AMOC8*
5,1,8,0,0,1.08239X$1,22.5*
%
%ADD10C,0.10000*%
%ADD11OC8,0.10000*%
%ADD12C,0.15000*%
%ADD13OC8,0.15000*%
%ADD14C,0.03937*%
%ADD15C,0.17717*%
%ADD16C,0.04331*%
%ADD17R,0.04724X0.04724*%
%ADD18C,0.04724*%
%ADD19C,0.09055*%
%ADD20C,0.70079*%
%ADD21OC8,0.06300*%
%ADD22R,0.05906X0.05906*%
%ADD23C,0.05906*%
%ADD24C,0.05906*%
%ADD25C,0.01600*%
%ADD26C,0.01969*%
%ADD27C,0.01000*%
%ADD28C,0.05000*%
D10*
X0157913Y0111000D03*
D11*
X0157913Y0091000D03*
D12*
X0056663Y0089000D03*
X0056663Y0051500D03*
X0182913Y0181000D03*
D13*
X0182913Y0161000D03*
D14*
X0238976Y0161000D02*
X0242913Y0161000D01*
X0242913Y0156000D02*
X0238976Y0156000D01*
X0238976Y0151000D02*
X0242913Y0151000D01*
X0242913Y0146000D02*
X0238976Y0146000D01*
X0238976Y0141000D02*
X0242913Y0141000D01*
X0242913Y0136000D02*
X0238976Y0136000D01*
X0238976Y0131000D02*
X0242913Y0131000D01*
X0242913Y0126000D02*
X0238976Y0126000D01*
X0238976Y0121000D02*
X0242913Y0121000D01*
X0242913Y0116000D02*
X0238976Y0116000D01*
X0262913Y0104937D02*
X0262913Y0101000D01*
X0267913Y0101000D02*
X0267913Y0104937D01*
X0272913Y0104937D02*
X0272913Y0101000D01*
X0277913Y0101000D02*
X0277913Y0104937D01*
X0282913Y0104937D02*
X0282913Y0101000D01*
X0282913Y0096000D02*
X0282913Y0092063D01*
X0277913Y0092063D02*
X0277913Y0096000D01*
X0272913Y0096000D02*
X0272913Y0092063D01*
X0267913Y0092063D02*
X0267913Y0096000D01*
X0262913Y0096000D02*
X0262913Y0092063D01*
X0322913Y0116000D02*
X0326850Y0116000D01*
X0326850Y0121000D02*
X0322913Y0121000D01*
X0322913Y0126000D02*
X0326850Y0126000D01*
X0326850Y0131000D02*
X0322913Y0131000D01*
X0322913Y0136000D02*
X0326850Y0136000D01*
X0326850Y0141000D02*
X0322913Y0141000D01*
X0322913Y0146000D02*
X0326850Y0146000D01*
X0326850Y0151000D02*
X0322913Y0151000D01*
X0322913Y0156000D02*
X0326850Y0156000D01*
X0326850Y0161000D02*
X0322913Y0161000D01*
D15*
X0318346Y0100469D03*
X0247480Y0100469D03*
D16*
X0265413Y0140212D02*
X0265413Y0141788D01*
X0265413Y0141788D01*
X0265413Y0140212D01*
X0265413Y0140212D01*
X0270413Y0140212D02*
X0270413Y0141788D01*
X0270413Y0141788D01*
X0270413Y0140212D01*
X0270413Y0140212D01*
X0275413Y0140212D02*
X0275413Y0141788D01*
X0275413Y0141788D01*
X0275413Y0140212D01*
X0275413Y0140212D01*
X0280413Y0140212D02*
X0280413Y0141788D01*
X0280413Y0141788D01*
X0280413Y0140212D01*
X0280413Y0140212D01*
X0285413Y0140212D02*
X0285413Y0141788D01*
X0285413Y0141788D01*
X0285413Y0140212D01*
X0285413Y0140212D01*
X0290413Y0140212D02*
X0290413Y0141788D01*
X0290413Y0141788D01*
X0290413Y0140212D01*
X0290413Y0140212D01*
X0295413Y0140212D02*
X0295413Y0141788D01*
X0295413Y0141788D01*
X0295413Y0140212D01*
X0295413Y0140212D01*
X0300413Y0140212D02*
X0300413Y0141788D01*
X0300413Y0141788D01*
X0300413Y0140212D01*
X0300413Y0140212D01*
D17*
X0287913Y0035252D03*
X0257913Y0035439D03*
X0222913Y0035252D03*
X0317913Y0035439D03*
X0022913Y0134937D03*
D18*
X0022913Y0127063D03*
X0222913Y0066748D03*
X0222913Y0058874D03*
X0222913Y0051000D03*
X0222913Y0043126D03*
X0257913Y0043313D03*
X0257913Y0051187D03*
X0257913Y0059061D03*
X0287913Y0058874D03*
X0287913Y0066748D03*
X0287913Y0051000D03*
X0287913Y0043126D03*
X0317913Y0043313D03*
X0317913Y0051187D03*
X0317913Y0059061D03*
D19*
X0133858Y0170094D03*
X0133858Y0182299D03*
X0051969Y0182299D03*
X0051969Y0170094D03*
D20*
X0092913Y0176000D03*
D21*
X0300413Y0067250D03*
X0300413Y0051000D03*
D22*
X0187913Y0021079D03*
X0037913Y0090921D03*
D23*
X0037913Y0081079D03*
X0187913Y0070921D03*
X0187913Y0060921D03*
X0187913Y0050921D03*
X0187913Y0040921D03*
X0187913Y0030921D03*
D24*
X0073101Y0042861D02*
X0073101Y0056639D01*
X0079005Y0056639D01*
X0079005Y0042861D01*
X0073101Y0042861D01*
X0073101Y0048766D02*
X0079005Y0048766D01*
X0079005Y0054671D02*
X0073101Y0054671D01*
X0073100Y0073174D02*
X0059322Y0073174D01*
X0073100Y0073174D02*
X0073100Y0067270D01*
X0059322Y0067270D01*
X0059322Y0073174D01*
X0019164Y0056639D02*
X0019164Y0042861D01*
X0019164Y0056639D02*
X0025068Y0056639D01*
X0025068Y0042861D01*
X0019164Y0042861D01*
X0019164Y0048766D02*
X0025068Y0048766D01*
X0025068Y0054671D02*
X0019164Y0054671D01*
D25*
X0037913Y0070250D02*
X0056663Y0051500D01*
X0037913Y0070250D02*
X0037913Y0081079D01*
X0037913Y0090921D02*
X0054742Y0090921D01*
X0056663Y0089000D01*
X0257726Y0043126D02*
X0257913Y0043313D01*
X0257913Y0035439D02*
X0258100Y0035252D01*
X0287913Y0035252D02*
X0288100Y0035439D01*
X0317913Y0035439D02*
X0321102Y0035439D01*
D26*
X0339163Y0032250D03*
X0339163Y0021000D03*
X0256663Y0071000D03*
X0235413Y0077250D03*
X0224163Y0079750D03*
X0212913Y0078500D03*
X0209163Y0078500D03*
X0205413Y0078500D03*
X0201663Y0078500D03*
X0201663Y0089750D03*
X0205413Y0089750D03*
X0209163Y0089750D03*
X0212913Y0089750D03*
X0224163Y0087250D03*
X0231663Y0094750D03*
X0234163Y0092250D03*
X0224163Y0116000D03*
X0224163Y0121000D03*
X0224163Y0126000D03*
X0224163Y0131000D03*
X0270413Y0134750D03*
X0284163Y0124750D03*
X0280413Y0121000D03*
X0291663Y0119750D03*
X0295413Y0113500D03*
X0277913Y0113500D03*
X0290413Y0131000D03*
X0300413Y0134750D03*
X0311663Y0124750D03*
X0309163Y0083500D03*
X0172913Y0098500D03*
X0136663Y0086000D03*
X0127913Y0078500D03*
X0121663Y0086000D03*
X0106663Y0086000D03*
X0135413Y0067250D03*
X0117913Y0063500D03*
X0097913Y0063500D03*
X0089163Y0051000D03*
X0109163Y0051000D03*
X0111663Y0042250D03*
X0070413Y0086000D03*
X0059163Y0108500D03*
X0070413Y0131000D03*
X0097913Y0131000D03*
X0097913Y0118500D03*
X0029163Y0151000D03*
X0019163Y0148500D03*
X0029163Y0189750D03*
X0019163Y0192250D03*
D27*
X0015462Y0011592D02*
X0016093Y0009236D01*
X0017312Y0007124D01*
X0019037Y0005399D01*
X0019837Y0004937D01*
X0270906Y0004937D01*
X0270836Y0040008D01*
X0259324Y0040008D01*
X0258421Y0039634D01*
X0223608Y0039634D01*
X0208843Y0039634D01*
X0207559Y0040166D01*
X0205935Y0041790D01*
X0204953Y0042772D01*
X0204421Y0044055D01*
X0204421Y0067054D01*
X0203967Y0067508D01*
X0189981Y0067508D01*
X0188698Y0066976D01*
X0187129Y0066976D01*
X0185679Y0067577D01*
X0184569Y0068687D01*
X0183969Y0070137D01*
X0183969Y0071706D01*
X0184569Y0073156D01*
X0185679Y0074266D01*
X0187129Y0074866D01*
X0188698Y0074866D01*
X0189601Y0074492D01*
X0206108Y0074492D01*
X0207392Y0073960D01*
X0208374Y0072978D01*
X0210874Y0070478D01*
X0211405Y0069195D01*
X0211405Y0046618D01*
X0256503Y0046618D01*
X0257406Y0046992D01*
X0270823Y0046992D01*
X0270738Y0090052D01*
X0270586Y0090203D01*
X0270442Y0089987D01*
X0269989Y0089534D01*
X0269456Y0089178D01*
X0268863Y0088932D01*
X0268234Y0088807D01*
X0268053Y0088807D01*
X0268053Y0095860D01*
X0267774Y0095860D01*
X0267774Y0088807D01*
X0267593Y0088807D01*
X0266964Y0088932D01*
X0266371Y0089178D01*
X0265838Y0089534D01*
X0265384Y0089987D01*
X0265240Y0090203D01*
X0264590Y0089553D01*
X0263502Y0089102D01*
X0262324Y0089102D01*
X0261236Y0089553D01*
X0260403Y0090386D01*
X0259953Y0091474D01*
X0259953Y0096589D01*
X0260403Y0097677D01*
X0261226Y0098500D01*
X0260403Y0099323D01*
X0259953Y0100411D01*
X0259953Y0105526D01*
X0260403Y0106614D01*
X0261236Y0107447D01*
X0262324Y0107898D01*
X0263502Y0107898D01*
X0264590Y0107447D01*
X0265240Y0106797D01*
X0265384Y0107013D01*
X0265838Y0107466D01*
X0266371Y0107822D01*
X0266964Y0108068D01*
X0267593Y0108193D01*
X0267774Y0108193D01*
X0267774Y0101140D01*
X0268053Y0101140D01*
X0268053Y0108193D01*
X0268234Y0108193D01*
X0268863Y0108068D01*
X0269456Y0107822D01*
X0269989Y0107466D01*
X0270442Y0107013D01*
X0270586Y0106797D01*
X0270705Y0106915D01*
X0270654Y0132478D01*
X0270413Y0132478D01*
X0270413Y0134750D01*
X0268142Y0134750D01*
X0268142Y0134451D01*
X0268297Y0133873D01*
X0268596Y0133355D01*
X0269019Y0132932D01*
X0269537Y0132633D01*
X0270114Y0132478D01*
X0270413Y0132478D01*
X0270413Y0134750D01*
X0270413Y0134750D01*
X0268142Y0134750D01*
X0268142Y0135049D01*
X0268297Y0135627D01*
X0268596Y0136145D01*
X0269019Y0136568D01*
X0269537Y0136867D01*
X0269556Y0136872D01*
X0268067Y0137489D01*
X0267913Y0137643D01*
X0267759Y0137489D01*
X0266237Y0136858D01*
X0264590Y0136858D01*
X0263067Y0137489D01*
X0261902Y0138654D01*
X0261272Y0140176D01*
X0261272Y0141824D01*
X0261902Y0143346D01*
X0263067Y0144511D01*
X0264590Y0145142D01*
X0266237Y0145142D01*
X0267759Y0144511D01*
X0267913Y0144357D01*
X0268067Y0144511D01*
X0269590Y0145142D01*
X0270629Y0145142D01*
X0270591Y0164858D01*
X0231772Y0164858D01*
X0232559Y0217535D01*
X0019837Y0217535D01*
X0019037Y0217073D01*
X0017312Y0215349D01*
X0016093Y0213237D01*
X0015462Y0210881D01*
X0015462Y0210881D01*
X0015382Y0209661D01*
X0015382Y0057819D01*
X0015819Y0058874D01*
X0016929Y0059984D01*
X0018379Y0060585D01*
X0025854Y0060585D01*
X0027303Y0059984D01*
X0028413Y0058874D01*
X0029014Y0057424D01*
X0029014Y0042076D01*
X0028413Y0040626D01*
X0027303Y0039516D01*
X0025854Y0038915D01*
X0018379Y0038915D01*
X0016929Y0039516D01*
X0015819Y0040626D01*
X0015382Y0041681D01*
X0015382Y0012811D01*
X0015462Y0011592D01*
X0015436Y0011984D02*
X0019320Y0011984D01*
X0018906Y0012982D02*
X0015382Y0012982D01*
X0015382Y0013981D02*
X0018811Y0013981D01*
X0018811Y0013212D02*
X0020011Y0010315D01*
X0022228Y0008098D01*
X0025125Y0006898D01*
X0028261Y0006898D01*
X0031158Y0008098D01*
X0033375Y0010315D01*
X0034575Y0013212D01*
X0034575Y0016347D01*
X0033375Y0019244D01*
X0031158Y0021461D01*
X0028261Y0022661D01*
X0025125Y0022661D01*
X0022228Y0021461D01*
X0020011Y0019244D01*
X0018811Y0016347D01*
X0018811Y0013212D01*
X0018811Y0014979D02*
X0015382Y0014979D01*
X0015382Y0015978D02*
X0018811Y0015978D01*
X0019072Y0016976D02*
X0015382Y0016976D01*
X0015382Y0017975D02*
X0019485Y0017975D01*
X0019899Y0018973D02*
X0015382Y0018973D01*
X0015382Y0019972D02*
X0020738Y0019972D01*
X0021737Y0020970D02*
X0015382Y0020970D01*
X0015382Y0021969D02*
X0023453Y0021969D01*
X0029933Y0021969D02*
X0183969Y0021969D01*
X0183969Y0022967D02*
X0015382Y0022967D01*
X0015382Y0023966D02*
X0183969Y0023966D01*
X0183969Y0024442D02*
X0183969Y0017715D01*
X0184550Y0017134D01*
X0191277Y0017134D01*
X0191858Y0017715D01*
X0191858Y0024442D01*
X0191277Y0025024D01*
X0184550Y0025024D01*
X0183969Y0024442D01*
X0184490Y0024964D02*
X0015382Y0024964D01*
X0015382Y0025963D02*
X0270864Y0025963D01*
X0270862Y0026961D02*
X0015382Y0026961D01*
X0015382Y0027960D02*
X0185296Y0027960D01*
X0185679Y0027577D02*
X0187129Y0026976D01*
X0188698Y0026976D01*
X0190148Y0027577D01*
X0191258Y0028687D01*
X0191858Y0030137D01*
X0191858Y0031706D01*
X0191258Y0033156D01*
X0190148Y0034266D01*
X0188698Y0034866D01*
X0187129Y0034866D01*
X0185679Y0034266D01*
X0184569Y0033156D01*
X0183969Y0031706D01*
X0183969Y0030137D01*
X0184569Y0028687D01*
X0185679Y0027577D01*
X0184457Y0028958D02*
X0015382Y0028958D01*
X0015382Y0029957D02*
X0184043Y0029957D01*
X0183969Y0030955D02*
X0015382Y0030955D01*
X0015382Y0031954D02*
X0184071Y0031954D01*
X0184485Y0032952D02*
X0015382Y0032952D01*
X0015382Y0033951D02*
X0185364Y0033951D01*
X0187129Y0036976D02*
X0188698Y0036976D01*
X0190148Y0037577D01*
X0191258Y0038687D01*
X0191858Y0040137D01*
X0191858Y0041706D01*
X0191258Y0043156D01*
X0190148Y0044266D01*
X0188698Y0044866D01*
X0187129Y0044866D01*
X0185679Y0044266D01*
X0184569Y0043156D01*
X0183969Y0041706D01*
X0183969Y0040137D01*
X0184569Y0038687D01*
X0185679Y0037577D01*
X0187129Y0036976D01*
X0185311Y0037945D02*
X0015382Y0037945D01*
X0015382Y0038943D02*
X0018311Y0038943D01*
X0016503Y0039942D02*
X0015382Y0039942D01*
X0015382Y0040940D02*
X0015689Y0040940D01*
X0015382Y0036946D02*
X0219264Y0036946D01*
X0219264Y0037784D02*
X0219264Y0035539D01*
X0222626Y0035539D01*
X0222626Y0034965D01*
X0219264Y0034965D01*
X0219264Y0032720D01*
X0219352Y0032393D01*
X0219521Y0032099D01*
X0219761Y0031860D01*
X0220054Y0031690D01*
X0220382Y0031602D01*
X0222626Y0031602D01*
X0222626Y0034964D01*
X0223201Y0034964D01*
X0223201Y0031602D01*
X0225445Y0031602D01*
X0225773Y0031690D01*
X0226066Y0031860D01*
X0226306Y0032099D01*
X0226475Y0032393D01*
X0226563Y0032720D01*
X0226563Y0034965D01*
X0223201Y0034965D01*
X0223201Y0035539D01*
X0226563Y0035539D01*
X0226563Y0037784D01*
X0226475Y0038111D01*
X0226306Y0038405D01*
X0226066Y0038644D01*
X0225773Y0038814D01*
X0225445Y0038902D01*
X0223201Y0038902D01*
X0223201Y0035539D01*
X0222626Y0035539D01*
X0222626Y0038902D01*
X0220382Y0038902D01*
X0220054Y0038814D01*
X0219761Y0038644D01*
X0219521Y0038405D01*
X0219352Y0038111D01*
X0219264Y0037784D01*
X0219307Y0037945D02*
X0190516Y0037945D01*
X0191364Y0038943D02*
X0254955Y0038943D01*
X0255054Y0039001D02*
X0254761Y0038831D01*
X0254521Y0038592D01*
X0254352Y0038298D01*
X0254264Y0037971D01*
X0254264Y0035726D01*
X0257626Y0035726D01*
X0257626Y0035152D01*
X0254264Y0035152D01*
X0254264Y0032907D01*
X0254352Y0032580D01*
X0254521Y0032286D01*
X0254761Y0032047D01*
X0255054Y0031877D01*
X0255382Y0031789D01*
X0257626Y0031789D01*
X0257626Y0035151D01*
X0258201Y0035151D01*
X0258201Y0031789D01*
X0260445Y0031789D01*
X0260773Y0031877D01*
X0261066Y0032047D01*
X0261306Y0032286D01*
X0261475Y0032580D01*
X0261563Y0032907D01*
X0261563Y0035152D01*
X0258201Y0035152D01*
X0258201Y0035726D01*
X0261563Y0035726D01*
X0261563Y0037971D01*
X0261475Y0038298D01*
X0261306Y0038592D01*
X0261066Y0038831D01*
X0260773Y0039001D01*
X0260445Y0039089D01*
X0258201Y0039089D01*
X0258201Y0035726D01*
X0257626Y0035726D01*
X0257626Y0039089D01*
X0255382Y0039089D01*
X0255054Y0039001D01*
X0254264Y0037945D02*
X0226520Y0037945D01*
X0226563Y0036946D02*
X0254264Y0036946D01*
X0254264Y0035948D02*
X0226563Y0035948D01*
X0226563Y0034949D02*
X0254264Y0034949D01*
X0254264Y0033951D02*
X0226563Y0033951D01*
X0226563Y0032952D02*
X0254264Y0032952D01*
X0254921Y0031954D02*
X0226160Y0031954D01*
X0223201Y0031954D02*
X0222626Y0031954D01*
X0222626Y0032952D02*
X0223201Y0032952D01*
X0223201Y0033951D02*
X0222626Y0033951D01*
X0222626Y0034949D02*
X0223201Y0034949D01*
X0223201Y0035948D02*
X0222626Y0035948D01*
X0222626Y0036946D02*
X0223201Y0036946D01*
X0223201Y0037945D02*
X0222626Y0037945D01*
X0219264Y0035948D02*
X0015382Y0035948D01*
X0015382Y0034949D02*
X0219264Y0034949D01*
X0219264Y0033951D02*
X0190463Y0033951D01*
X0191342Y0032952D02*
X0219264Y0032952D01*
X0219666Y0031954D02*
X0191756Y0031954D01*
X0191858Y0030955D02*
X0270854Y0030955D01*
X0270856Y0029957D02*
X0191784Y0029957D01*
X0191370Y0028958D02*
X0270858Y0028958D01*
X0270860Y0027960D02*
X0190531Y0027960D01*
X0191336Y0024964D02*
X0270866Y0024964D01*
X0270868Y0023966D02*
X0191858Y0023966D01*
X0191858Y0022967D02*
X0270870Y0022967D01*
X0270872Y0021969D02*
X0258279Y0021969D01*
X0259504Y0021461D02*
X0256607Y0022661D01*
X0253472Y0022661D01*
X0250575Y0021461D01*
X0248357Y0019244D01*
X0247157Y0016347D01*
X0247157Y0013212D01*
X0248357Y0010315D01*
X0250575Y0008098D01*
X0253472Y0006898D01*
X0256607Y0006898D01*
X0259504Y0008098D01*
X0261721Y0010315D01*
X0262921Y0013212D01*
X0262921Y0016347D01*
X0261721Y0019244D01*
X0259504Y0021461D01*
X0259995Y0020970D02*
X0270874Y0020970D01*
X0270876Y0019972D02*
X0260994Y0019972D01*
X0261834Y0018973D02*
X0270878Y0018973D01*
X0270880Y0017975D02*
X0262247Y0017975D01*
X0262661Y0016976D02*
X0270882Y0016976D01*
X0270884Y0015978D02*
X0262921Y0015978D01*
X0262921Y0014979D02*
X0270886Y0014979D01*
X0270888Y0013981D02*
X0262921Y0013981D01*
X0262826Y0012982D02*
X0270890Y0012982D01*
X0270892Y0011984D02*
X0262413Y0011984D01*
X0261999Y0010985D02*
X0270894Y0010985D01*
X0270896Y0009987D02*
X0261393Y0009987D01*
X0260395Y0008988D02*
X0270898Y0008988D01*
X0270899Y0007990D02*
X0259243Y0007990D01*
X0256833Y0006991D02*
X0270901Y0006991D01*
X0270903Y0005993D02*
X0018444Y0005993D01*
X0017445Y0006991D02*
X0024900Y0006991D01*
X0022489Y0007990D02*
X0016813Y0007990D01*
X0016236Y0008988D02*
X0021338Y0008988D01*
X0020339Y0009987D02*
X0015892Y0009987D01*
X0015624Y0010985D02*
X0019733Y0010985D01*
X0019739Y0004994D02*
X0270905Y0004994D01*
X0272913Y0004994D02*
X0340734Y0004994D01*
X0340635Y0004937D02*
X0272913Y0004937D01*
X0272913Y0031760D01*
X0288608Y0031760D01*
X0288941Y0031898D01*
X0290687Y0031898D01*
X0290736Y0031947D01*
X0318608Y0031947D01*
X0318941Y0032085D01*
X0320075Y0032085D01*
X0320408Y0031947D01*
X0321797Y0031947D01*
X0323080Y0032478D01*
X0327124Y0036522D01*
X0327655Y0037805D01*
X0327655Y0085445D01*
X0327124Y0086728D01*
X0326142Y0087710D01*
X0322376Y0091476D01*
X0323926Y0092118D01*
X0326697Y0094889D01*
X0328197Y0098509D01*
X0328197Y0102428D01*
X0326697Y0106048D01*
X0323926Y0108819D01*
X0320306Y0110319D01*
X0316387Y0110319D01*
X0312767Y0108819D01*
X0309996Y0106048D01*
X0308496Y0102428D01*
X0308496Y0098509D01*
X0309996Y0094889D01*
X0312767Y0092118D01*
X0314854Y0091253D01*
X0314854Y0089872D01*
X0315386Y0088589D01*
X0320671Y0083304D01*
X0320671Y0061047D01*
X0319813Y0061905D01*
X0318581Y0062415D01*
X0317246Y0062415D01*
X0316013Y0061905D01*
X0315070Y0060961D01*
X0314559Y0059728D01*
X0314559Y0058394D01*
X0315070Y0057161D01*
X0316013Y0056217D01*
X0317246Y0055707D01*
X0318581Y0055707D01*
X0319813Y0056217D01*
X0320671Y0057075D01*
X0320671Y0053173D01*
X0319813Y0054031D01*
X0318581Y0054541D01*
X0317246Y0054541D01*
X0316013Y0054031D01*
X0315070Y0053087D01*
X0314559Y0051854D01*
X0314559Y0050520D01*
X0315070Y0049287D01*
X0316013Y0048343D01*
X0317246Y0047833D01*
X0318581Y0047833D01*
X0319813Y0048343D01*
X0320671Y0049201D01*
X0320671Y0045299D01*
X0319813Y0046157D01*
X0318581Y0046667D01*
X0317246Y0046667D01*
X0316013Y0046157D01*
X0315070Y0045213D01*
X0314559Y0043980D01*
X0314559Y0042646D01*
X0315070Y0041413D01*
X0316013Y0040469D01*
X0317246Y0039959D01*
X0318581Y0039959D01*
X0319813Y0040469D01*
X0320671Y0041327D01*
X0320671Y0039946D01*
X0319518Y0038793D01*
X0318941Y0038793D01*
X0318608Y0038931D01*
X0287406Y0038931D01*
X0286954Y0038744D01*
X0272913Y0038744D01*
X0272913Y0095860D01*
X0273053Y0095860D01*
X0273053Y0088807D01*
X0273234Y0088807D01*
X0273863Y0088932D01*
X0274456Y0089178D01*
X0274989Y0089534D01*
X0275442Y0089987D01*
X0275586Y0090203D01*
X0276236Y0089553D01*
X0277324Y0089102D01*
X0278502Y0089102D01*
X0279590Y0089553D01*
X0280413Y0090376D01*
X0281236Y0089553D01*
X0282324Y0089102D01*
X0283502Y0089102D01*
X0284590Y0089553D01*
X0285423Y0090386D01*
X0285874Y0091474D01*
X0285874Y0096589D01*
X0285423Y0097677D01*
X0284600Y0098500D01*
X0285423Y0099323D01*
X0285874Y0100411D01*
X0285874Y0105526D01*
X0285423Y0106614D01*
X0284590Y0107447D01*
X0283502Y0107898D01*
X0282324Y0107898D01*
X0281236Y0107447D01*
X0280413Y0106624D01*
X0279590Y0107447D01*
X0278502Y0107898D01*
X0277324Y0107898D01*
X0276236Y0107447D01*
X0275586Y0106797D01*
X0275442Y0107013D01*
X0274989Y0107466D01*
X0274456Y0107822D01*
X0273863Y0108068D01*
X0273234Y0108193D01*
X0273053Y0108193D01*
X0273053Y0101140D01*
X0272913Y0101140D01*
X0272913Y0137643D01*
X0273067Y0137489D01*
X0274590Y0136858D01*
X0276237Y0136858D01*
X0277759Y0137489D01*
X0277913Y0137643D01*
X0278067Y0137489D01*
X0279590Y0136858D01*
X0281237Y0136858D01*
X0282759Y0137489D01*
X0282913Y0137643D01*
X0283067Y0137489D01*
X0284590Y0136858D01*
X0286237Y0136858D01*
X0287759Y0137489D01*
X0287913Y0137643D01*
X0288067Y0137489D01*
X0289590Y0136858D01*
X0291237Y0136858D01*
X0292759Y0137489D01*
X0292913Y0137643D01*
X0293067Y0137489D01*
X0294590Y0136858D01*
X0296237Y0136858D01*
X0297759Y0137489D01*
X0297913Y0137643D01*
X0298067Y0137489D01*
X0299556Y0136872D01*
X0299537Y0136867D01*
X0299019Y0136568D01*
X0298596Y0136145D01*
X0298297Y0135627D01*
X0298142Y0135049D01*
X0298142Y0134750D01*
X0298142Y0134451D01*
X0298297Y0133873D01*
X0298596Y0133355D01*
X0299019Y0132932D01*
X0299537Y0132633D01*
X0300114Y0132478D01*
X0300413Y0132478D01*
X0300413Y0134750D01*
X0298142Y0134750D01*
X0300413Y0134750D01*
X0300413Y0134750D01*
X0300413Y0134750D01*
X0300413Y0132478D01*
X0300712Y0132478D01*
X0301290Y0132633D01*
X0301808Y0132932D01*
X0302231Y0133355D01*
X0302530Y0133873D01*
X0302685Y0134451D01*
X0302685Y0134750D01*
X0302685Y0135049D01*
X0302530Y0135627D01*
X0302231Y0136145D01*
X0301808Y0136568D01*
X0301290Y0136867D01*
X0301271Y0136872D01*
X0302759Y0137489D01*
X0303925Y0138654D01*
X0304555Y0140176D01*
X0304555Y0141824D01*
X0303925Y0143346D01*
X0302759Y0144511D01*
X0301237Y0145142D01*
X0299590Y0145142D01*
X0298067Y0144511D01*
X0297913Y0144357D01*
X0297759Y0144511D01*
X0296237Y0145142D01*
X0294590Y0145142D01*
X0293067Y0144511D01*
X0292913Y0144357D01*
X0292759Y0144511D01*
X0291237Y0145142D01*
X0289590Y0145142D01*
X0288067Y0144511D01*
X0287913Y0144357D01*
X0287759Y0144511D01*
X0286237Y0145142D01*
X0284590Y0145142D01*
X0283067Y0144511D01*
X0282913Y0144357D01*
X0282759Y0144511D01*
X0281237Y0145142D01*
X0279590Y0145142D01*
X0278067Y0144511D01*
X0277913Y0144357D01*
X0277759Y0144511D01*
X0276237Y0145142D01*
X0274590Y0145142D01*
X0273067Y0144511D01*
X0272913Y0144357D01*
X0272913Y0164858D01*
X0343622Y0164858D01*
X0343622Y0007924D01*
X0343160Y0007124D01*
X0341435Y0005399D01*
X0340635Y0004937D01*
X0342029Y0005993D02*
X0272913Y0005993D01*
X0272913Y0006991D02*
X0343027Y0006991D01*
X0343622Y0007990D02*
X0272913Y0007990D01*
X0272913Y0008988D02*
X0343622Y0008988D01*
X0343622Y0009987D02*
X0272913Y0009987D01*
X0272913Y0010985D02*
X0343622Y0010985D01*
X0343622Y0011984D02*
X0272913Y0011984D01*
X0272913Y0012982D02*
X0343622Y0012982D01*
X0343622Y0013981D02*
X0272913Y0013981D01*
X0272913Y0014979D02*
X0343622Y0014979D01*
X0343622Y0015978D02*
X0272913Y0015978D01*
X0272913Y0016976D02*
X0343622Y0016976D01*
X0343622Y0017975D02*
X0272913Y0017975D01*
X0272913Y0018973D02*
X0343622Y0018973D01*
X0343622Y0019972D02*
X0340930Y0019972D01*
X0341140Y0020181D02*
X0339982Y0019024D01*
X0338345Y0019024D01*
X0337187Y0020181D01*
X0337187Y0021819D01*
X0337671Y0022303D01*
X0337671Y0030947D01*
X0337187Y0031431D01*
X0337187Y0033069D01*
X0338345Y0034226D01*
X0339982Y0034226D01*
X0341140Y0033069D01*
X0341140Y0031431D01*
X0340655Y0030947D01*
X0340655Y0022303D01*
X0341140Y0021819D01*
X0341140Y0020181D01*
X0341140Y0020970D02*
X0343622Y0020970D01*
X0343622Y0021969D02*
X0340990Y0021969D01*
X0340655Y0022967D02*
X0343622Y0022967D01*
X0343622Y0023966D02*
X0340655Y0023966D01*
X0340655Y0024964D02*
X0343622Y0024964D01*
X0343622Y0025963D02*
X0340655Y0025963D01*
X0340655Y0026961D02*
X0343622Y0026961D01*
X0343622Y0027960D02*
X0340655Y0027960D01*
X0340655Y0028958D02*
X0343622Y0028958D01*
X0343622Y0029957D02*
X0340655Y0029957D01*
X0340664Y0030955D02*
X0343622Y0030955D01*
X0343622Y0031954D02*
X0341140Y0031954D01*
X0341140Y0032952D02*
X0343622Y0032952D01*
X0343622Y0033951D02*
X0340258Y0033951D01*
X0339163Y0032250D02*
X0339163Y0021000D01*
X0337187Y0020970D02*
X0272913Y0020970D01*
X0272913Y0019972D02*
X0337397Y0019972D01*
X0337337Y0021969D02*
X0272913Y0021969D01*
X0272913Y0022967D02*
X0337671Y0022967D01*
X0337671Y0023966D02*
X0272913Y0023966D01*
X0272913Y0024964D02*
X0337671Y0024964D01*
X0337671Y0025963D02*
X0272913Y0025963D01*
X0272913Y0026961D02*
X0337671Y0026961D01*
X0337671Y0027960D02*
X0272913Y0027960D01*
X0272913Y0028958D02*
X0337671Y0028958D01*
X0337671Y0029957D02*
X0272913Y0029957D01*
X0272913Y0030955D02*
X0337663Y0030955D01*
X0337187Y0031954D02*
X0321814Y0031954D01*
X0320391Y0031954D02*
X0318625Y0031954D01*
X0323554Y0032952D02*
X0337187Y0032952D01*
X0338069Y0033951D02*
X0324553Y0033951D01*
X0325551Y0034949D02*
X0343622Y0034949D01*
X0343622Y0035948D02*
X0326550Y0035948D01*
X0327300Y0036946D02*
X0343622Y0036946D01*
X0343622Y0037945D02*
X0327655Y0037945D01*
X0327655Y0038943D02*
X0343622Y0038943D01*
X0343622Y0039942D02*
X0327655Y0039942D01*
X0327655Y0040940D02*
X0343622Y0040940D01*
X0343622Y0041939D02*
X0327655Y0041939D01*
X0327655Y0042937D02*
X0343622Y0042937D01*
X0343622Y0043936D02*
X0327655Y0043936D01*
X0327655Y0044934D02*
X0343622Y0044934D01*
X0343622Y0045933D02*
X0327655Y0045933D01*
X0327655Y0046932D02*
X0343622Y0046932D01*
X0343622Y0047930D02*
X0327655Y0047930D01*
X0327655Y0048929D02*
X0343622Y0048929D01*
X0343622Y0049927D02*
X0327655Y0049927D01*
X0327655Y0050926D02*
X0343622Y0050926D01*
X0343622Y0051924D02*
X0327655Y0051924D01*
X0327655Y0052923D02*
X0343622Y0052923D01*
X0343622Y0053921D02*
X0327655Y0053921D01*
X0327655Y0054920D02*
X0343622Y0054920D01*
X0343622Y0055918D02*
X0327655Y0055918D01*
X0327655Y0056917D02*
X0343622Y0056917D01*
X0343622Y0057915D02*
X0327655Y0057915D01*
X0327655Y0058914D02*
X0343622Y0058914D01*
X0343622Y0059912D02*
X0327655Y0059912D01*
X0327655Y0060911D02*
X0343622Y0060911D01*
X0343622Y0061909D02*
X0327655Y0061909D01*
X0327655Y0062908D02*
X0343622Y0062908D01*
X0343622Y0063906D02*
X0327655Y0063906D01*
X0327655Y0064905D02*
X0343622Y0064905D01*
X0343622Y0065903D02*
X0327655Y0065903D01*
X0327655Y0066902D02*
X0343622Y0066902D01*
X0343622Y0067900D02*
X0327655Y0067900D01*
X0327655Y0068899D02*
X0343622Y0068899D01*
X0343622Y0069897D02*
X0327655Y0069897D01*
X0327655Y0070896D02*
X0343622Y0070896D01*
X0343622Y0071894D02*
X0327655Y0071894D01*
X0327655Y0072893D02*
X0343622Y0072893D01*
X0343622Y0073891D02*
X0327655Y0073891D01*
X0327655Y0074890D02*
X0343622Y0074890D01*
X0343622Y0075888D02*
X0327655Y0075888D01*
X0327655Y0076887D02*
X0343622Y0076887D01*
X0343622Y0077885D02*
X0327655Y0077885D01*
X0327655Y0078884D02*
X0343622Y0078884D01*
X0343622Y0079882D02*
X0327655Y0079882D01*
X0327655Y0080881D02*
X0343622Y0080881D01*
X0343622Y0081879D02*
X0327655Y0081879D01*
X0327655Y0082878D02*
X0343622Y0082878D01*
X0343622Y0083876D02*
X0327655Y0083876D01*
X0327655Y0084875D02*
X0343622Y0084875D01*
X0343622Y0085873D02*
X0327478Y0085873D01*
X0326980Y0086872D02*
X0343622Y0086872D01*
X0343622Y0087870D02*
X0325981Y0087870D01*
X0324983Y0088869D02*
X0343622Y0088869D01*
X0343622Y0089868D02*
X0323984Y0089868D01*
X0322986Y0090866D02*
X0343622Y0090866D01*
X0343622Y0091865D02*
X0323315Y0091865D01*
X0324672Y0092863D02*
X0343622Y0092863D01*
X0343622Y0093862D02*
X0325670Y0093862D01*
X0326669Y0094860D02*
X0343622Y0094860D01*
X0343622Y0095859D02*
X0327099Y0095859D01*
X0327513Y0096857D02*
X0343622Y0096857D01*
X0343622Y0097856D02*
X0327926Y0097856D01*
X0328197Y0098854D02*
X0343622Y0098854D01*
X0343622Y0099853D02*
X0328197Y0099853D01*
X0328197Y0100851D02*
X0343622Y0100851D01*
X0343622Y0101850D02*
X0328197Y0101850D01*
X0328023Y0102848D02*
X0343622Y0102848D01*
X0343622Y0103847D02*
X0327609Y0103847D01*
X0327196Y0104845D02*
X0343622Y0104845D01*
X0343622Y0105844D02*
X0326782Y0105844D01*
X0325903Y0106842D02*
X0343622Y0106842D01*
X0343622Y0107841D02*
X0324905Y0107841D01*
X0323878Y0108839D02*
X0343622Y0108839D01*
X0343622Y0109838D02*
X0321467Y0109838D01*
X0322324Y0113039D02*
X0327439Y0113039D01*
X0328527Y0113490D01*
X0329360Y0114323D01*
X0329811Y0115411D01*
X0329811Y0116589D01*
X0329360Y0117677D01*
X0328537Y0118500D01*
X0329360Y0119323D01*
X0329811Y0120411D01*
X0329811Y0121589D01*
X0329360Y0122677D01*
X0328537Y0123500D01*
X0329360Y0124323D01*
X0329811Y0125411D01*
X0329811Y0126589D01*
X0329360Y0127677D01*
X0328537Y0128500D01*
X0329360Y0129323D01*
X0329811Y0130411D01*
X0329811Y0131589D01*
X0329360Y0132677D01*
X0328537Y0133500D01*
X0329360Y0134323D01*
X0329811Y0135411D01*
X0329811Y0136589D01*
X0329360Y0137677D01*
X0328537Y0138500D01*
X0329360Y0139323D01*
X0329811Y0140411D01*
X0329811Y0141589D01*
X0329360Y0142677D01*
X0328537Y0143500D01*
X0329360Y0144323D01*
X0329811Y0145411D01*
X0329811Y0146589D01*
X0329360Y0147677D01*
X0328537Y0148500D01*
X0329360Y0149323D01*
X0329811Y0150411D01*
X0329811Y0151589D01*
X0329360Y0152677D01*
X0328537Y0153500D01*
X0329360Y0154323D01*
X0329811Y0155411D01*
X0329811Y0156589D01*
X0329360Y0157677D01*
X0328537Y0158500D01*
X0329360Y0159323D01*
X0329811Y0160411D01*
X0329811Y0161589D01*
X0329360Y0162677D01*
X0328527Y0163510D01*
X0327439Y0163961D01*
X0322324Y0163961D01*
X0321236Y0163510D01*
X0320403Y0162677D01*
X0319953Y0161589D01*
X0319953Y0160411D01*
X0320403Y0159323D01*
X0321226Y0158500D01*
X0320403Y0157677D01*
X0319953Y0156589D01*
X0319953Y0155411D01*
X0320403Y0154323D01*
X0321226Y0153500D01*
X0320403Y0152677D01*
X0319953Y0151589D01*
X0319953Y0150411D01*
X0320403Y0149323D01*
X0321226Y0148500D01*
X0320403Y0147677D01*
X0319953Y0146589D01*
X0319953Y0145411D01*
X0320403Y0144323D01*
X0321226Y0143500D01*
X0320403Y0142677D01*
X0319953Y0141589D01*
X0319953Y0140411D01*
X0320403Y0139323D01*
X0321226Y0138500D01*
X0320403Y0137677D01*
X0319953Y0136589D01*
X0319953Y0135411D01*
X0320403Y0134323D01*
X0321226Y0133500D01*
X0320403Y0132677D01*
X0319953Y0131589D01*
X0319953Y0130411D01*
X0320403Y0129323D01*
X0321226Y0128500D01*
X0320403Y0127677D01*
X0320327Y0127492D01*
X0312295Y0127492D01*
X0311530Y0126726D01*
X0310845Y0126726D01*
X0309687Y0125569D01*
X0309687Y0123931D01*
X0310845Y0122774D01*
X0312482Y0122774D01*
X0313640Y0123931D01*
X0313640Y0124508D01*
X0320327Y0124508D01*
X0320403Y0124323D01*
X0321226Y0123500D01*
X0320403Y0122677D01*
X0319953Y0121589D01*
X0319953Y0120411D01*
X0320403Y0119323D01*
X0321226Y0118500D01*
X0320403Y0117677D01*
X0319953Y0116589D01*
X0319953Y0115411D01*
X0320403Y0114323D01*
X0321236Y0113490D01*
X0322324Y0113039D01*
X0320895Y0113832D02*
X0297390Y0113832D01*
X0297390Y0114319D02*
X0296232Y0115476D01*
X0294595Y0115476D01*
X0294110Y0114992D01*
X0279216Y0114992D01*
X0278732Y0115476D01*
X0277095Y0115476D01*
X0275937Y0114319D01*
X0275937Y0112681D01*
X0277095Y0111524D01*
X0278732Y0111524D01*
X0279216Y0112008D01*
X0294110Y0112008D01*
X0294595Y0111524D01*
X0296232Y0111524D01*
X0297390Y0112681D01*
X0297390Y0114319D01*
X0296878Y0114830D02*
X0320193Y0114830D01*
X0319953Y0115829D02*
X0272913Y0115829D01*
X0272913Y0116827D02*
X0320052Y0116827D01*
X0320552Y0117826D02*
X0292534Y0117826D01*
X0292482Y0117774D02*
X0293640Y0118931D01*
X0293640Y0120569D01*
X0292482Y0121726D01*
X0290845Y0121726D01*
X0290360Y0121242D01*
X0282390Y0121242D01*
X0282390Y0121819D01*
X0281232Y0122976D01*
X0279595Y0122976D01*
X0278437Y0121819D01*
X0278437Y0120181D01*
X0279595Y0119024D01*
X0280280Y0119024D01*
X0281045Y0118258D01*
X0290360Y0118258D01*
X0290845Y0117774D01*
X0292482Y0117774D01*
X0293533Y0118824D02*
X0320902Y0118824D01*
X0320196Y0119823D02*
X0293640Y0119823D01*
X0293387Y0120821D02*
X0319953Y0120821D01*
X0320048Y0121820D02*
X0282389Y0121820D01*
X0283345Y0122774D02*
X0282187Y0123931D01*
X0282187Y0125569D01*
X0283345Y0126726D01*
X0284030Y0126726D01*
X0288437Y0131134D01*
X0288437Y0131819D01*
X0289595Y0132976D01*
X0291232Y0132976D01*
X0292390Y0131819D01*
X0292390Y0130181D01*
X0291232Y0129024D01*
X0290547Y0129024D01*
X0286140Y0124616D01*
X0286140Y0123931D01*
X0284982Y0122774D01*
X0283345Y0122774D01*
X0283300Y0122818D02*
X0281390Y0122818D01*
X0282301Y0123817D02*
X0272913Y0123817D01*
X0272913Y0124815D02*
X0282187Y0124815D01*
X0282432Y0125814D02*
X0272913Y0125814D01*
X0272913Y0126812D02*
X0284116Y0126812D01*
X0285114Y0127811D02*
X0272913Y0127811D01*
X0272913Y0128809D02*
X0286113Y0128809D01*
X0287111Y0129808D02*
X0272913Y0129808D01*
X0272913Y0130806D02*
X0288110Y0130806D01*
X0288437Y0131805D02*
X0272913Y0131805D01*
X0272913Y0132803D02*
X0289422Y0132803D01*
X0291405Y0132803D02*
X0299242Y0132803D01*
X0300413Y0132803D02*
X0300413Y0132803D01*
X0300413Y0133802D02*
X0300413Y0133802D01*
X0300414Y0134750D02*
X0300414Y0134750D01*
X0302685Y0134750D01*
X0300414Y0134750D01*
X0302685Y0134801D02*
X0320206Y0134801D01*
X0319953Y0135799D02*
X0302431Y0135799D01*
X0301410Y0136798D02*
X0320039Y0136798D01*
X0320522Y0137796D02*
X0303067Y0137796D01*
X0303983Y0138795D02*
X0320932Y0138795D01*
X0320209Y0139793D02*
X0304396Y0139793D01*
X0304555Y0140792D02*
X0319953Y0140792D01*
X0320036Y0141790D02*
X0304555Y0141790D01*
X0304155Y0142789D02*
X0320515Y0142789D01*
X0320939Y0143787D02*
X0303484Y0143787D01*
X0302097Y0144786D02*
X0320212Y0144786D01*
X0319953Y0145784D02*
X0272913Y0145784D01*
X0272913Y0144786D02*
X0273730Y0144786D01*
X0272913Y0146783D02*
X0320033Y0146783D01*
X0320508Y0147781D02*
X0272913Y0147781D01*
X0272913Y0148780D02*
X0320947Y0148780D01*
X0320215Y0149778D02*
X0272913Y0149778D01*
X0272913Y0150777D02*
X0319953Y0150777D01*
X0320030Y0151775D02*
X0272913Y0151775D01*
X0272913Y0152774D02*
X0320500Y0152774D01*
X0320954Y0153772D02*
X0272913Y0153772D01*
X0272913Y0154771D02*
X0320218Y0154771D01*
X0319953Y0155769D02*
X0272913Y0155769D01*
X0272913Y0156768D02*
X0320027Y0156768D01*
X0320493Y0157766D02*
X0272913Y0157766D01*
X0272913Y0158765D02*
X0320962Y0158765D01*
X0320221Y0159763D02*
X0272913Y0159763D01*
X0272913Y0160762D02*
X0319953Y0160762D01*
X0320024Y0161760D02*
X0272913Y0161760D01*
X0272913Y0162759D02*
X0320485Y0162759D01*
X0321834Y0163757D02*
X0272913Y0163757D01*
X0272913Y0164756D02*
X0343622Y0164756D01*
X0343622Y0163757D02*
X0327930Y0163757D01*
X0329279Y0162759D02*
X0343622Y0162759D01*
X0343622Y0161760D02*
X0329740Y0161760D01*
X0329811Y0160762D02*
X0343622Y0160762D01*
X0343622Y0159763D02*
X0329543Y0159763D01*
X0328802Y0158765D02*
X0343622Y0158765D01*
X0343622Y0157766D02*
X0329271Y0157766D01*
X0329737Y0156768D02*
X0343622Y0156768D01*
X0343622Y0155769D02*
X0329811Y0155769D01*
X0329546Y0154771D02*
X0343622Y0154771D01*
X0343622Y0153772D02*
X0328810Y0153772D01*
X0329264Y0152774D02*
X0343622Y0152774D01*
X0343622Y0151775D02*
X0329734Y0151775D01*
X0329811Y0150777D02*
X0343622Y0150777D01*
X0343622Y0149778D02*
X0329549Y0149778D01*
X0328817Y0148780D02*
X0343622Y0148780D01*
X0343622Y0147781D02*
X0329256Y0147781D01*
X0329731Y0146783D02*
X0343622Y0146783D01*
X0343622Y0145784D02*
X0329811Y0145784D01*
X0329552Y0144786D02*
X0343622Y0144786D01*
X0343622Y0143787D02*
X0328824Y0143787D01*
X0329249Y0142789D02*
X0343622Y0142789D01*
X0343622Y0141790D02*
X0329728Y0141790D01*
X0329811Y0140792D02*
X0343622Y0140792D01*
X0343622Y0139793D02*
X0329555Y0139793D01*
X0328832Y0138795D02*
X0343622Y0138795D01*
X0343622Y0137796D02*
X0329241Y0137796D01*
X0329725Y0136798D02*
X0343622Y0136798D01*
X0343622Y0135799D02*
X0329811Y0135799D01*
X0329558Y0134801D02*
X0343622Y0134801D01*
X0343622Y0133802D02*
X0328839Y0133802D01*
X0329234Y0132803D02*
X0343622Y0132803D01*
X0343622Y0131805D02*
X0329722Y0131805D01*
X0329811Y0130806D02*
X0343622Y0130806D01*
X0343622Y0129808D02*
X0329561Y0129808D01*
X0328847Y0128809D02*
X0343622Y0128809D01*
X0343622Y0127811D02*
X0329226Y0127811D01*
X0329718Y0126812D02*
X0343622Y0126812D01*
X0343622Y0125814D02*
X0329811Y0125814D01*
X0329564Y0124815D02*
X0343622Y0124815D01*
X0343622Y0123817D02*
X0328854Y0123817D01*
X0329219Y0122818D02*
X0343622Y0122818D01*
X0343622Y0121820D02*
X0329715Y0121820D01*
X0329811Y0120821D02*
X0343622Y0120821D01*
X0343622Y0119823D02*
X0329567Y0119823D01*
X0328862Y0118824D02*
X0343622Y0118824D01*
X0343622Y0117826D02*
X0329212Y0117826D01*
X0329712Y0116827D02*
X0343622Y0116827D01*
X0343622Y0115829D02*
X0329811Y0115829D01*
X0329570Y0114830D02*
X0343622Y0114830D01*
X0343622Y0113832D02*
X0328869Y0113832D01*
X0320545Y0122818D02*
X0312527Y0122818D01*
X0313525Y0123817D02*
X0320910Y0123817D01*
X0322913Y0126000D02*
X0312913Y0126000D01*
X0311663Y0124750D01*
X0309687Y0124815D02*
X0286339Y0124815D01*
X0286025Y0123817D02*
X0309801Y0123817D01*
X0310800Y0122818D02*
X0285027Y0122818D01*
X0284163Y0124750D02*
X0290413Y0131000D01*
X0292390Y0130806D02*
X0319953Y0130806D01*
X0320042Y0131805D02*
X0292390Y0131805D01*
X0292016Y0129808D02*
X0320203Y0129808D01*
X0320917Y0128809D02*
X0290333Y0128809D01*
X0289334Y0127811D02*
X0320537Y0127811D01*
X0320530Y0132803D02*
X0301585Y0132803D01*
X0302489Y0133802D02*
X0320924Y0133802D01*
X0311616Y0126812D02*
X0288336Y0126812D01*
X0287337Y0125814D02*
X0309932Y0125814D01*
X0298338Y0133802D02*
X0272913Y0133802D01*
X0272913Y0134801D02*
X0298142Y0134801D01*
X0298396Y0135799D02*
X0272913Y0135799D01*
X0272913Y0136798D02*
X0299417Y0136798D01*
X0298730Y0144786D02*
X0297097Y0144786D01*
X0293730Y0144786D02*
X0292097Y0144786D01*
X0288730Y0144786D02*
X0287097Y0144786D01*
X0283730Y0144786D02*
X0282097Y0144786D01*
X0278730Y0144786D02*
X0277097Y0144786D01*
X0270628Y0145784D02*
X0245874Y0145784D01*
X0245874Y0145411D02*
X0245874Y0146589D01*
X0245423Y0147677D01*
X0244600Y0148500D01*
X0245423Y0149323D01*
X0245874Y0150411D01*
X0245874Y0151589D01*
X0245423Y0152677D01*
X0244600Y0153500D01*
X0245423Y0154323D01*
X0245874Y0155411D01*
X0245874Y0156589D01*
X0245423Y0157677D01*
X0244600Y0158500D01*
X0245423Y0159323D01*
X0245874Y0160411D01*
X0245874Y0161589D01*
X0245423Y0162677D01*
X0244590Y0163510D01*
X0243502Y0163961D01*
X0238387Y0163961D01*
X0237299Y0163510D01*
X0236466Y0162677D01*
X0236016Y0161589D01*
X0236016Y0160411D01*
X0236466Y0159323D01*
X0237289Y0158500D01*
X0236466Y0157677D01*
X0236016Y0156589D01*
X0236016Y0155411D01*
X0236466Y0154323D01*
X0237289Y0153500D01*
X0236466Y0152677D01*
X0236016Y0151589D01*
X0236016Y0150411D01*
X0236466Y0149323D01*
X0237289Y0148500D01*
X0236466Y0147677D01*
X0236016Y0146589D01*
X0236016Y0145411D01*
X0236466Y0144323D01*
X0237289Y0143500D01*
X0236466Y0142677D01*
X0236016Y0141589D01*
X0236016Y0140411D01*
X0236466Y0139323D01*
X0237289Y0138500D01*
X0236466Y0137677D01*
X0236016Y0136589D01*
X0236016Y0135411D01*
X0236466Y0134323D01*
X0237289Y0133500D01*
X0236466Y0132677D01*
X0236390Y0132492D01*
X0225466Y0132492D01*
X0224982Y0132976D01*
X0223345Y0132976D01*
X0222187Y0131819D01*
X0222187Y0130181D01*
X0223345Y0129024D01*
X0224982Y0129024D01*
X0225466Y0129508D01*
X0236390Y0129508D01*
X0236466Y0129323D01*
X0237289Y0128500D01*
X0236466Y0127677D01*
X0236390Y0127492D01*
X0225466Y0127492D01*
X0224982Y0127976D01*
X0223345Y0127976D01*
X0222187Y0126819D01*
X0222187Y0125181D01*
X0223345Y0124024D01*
X0224982Y0124024D01*
X0225466Y0124508D01*
X0236390Y0124508D01*
X0236466Y0124323D01*
X0237289Y0123500D01*
X0236466Y0122677D01*
X0236390Y0122492D01*
X0225466Y0122492D01*
X0224982Y0122976D01*
X0223345Y0122976D01*
X0222187Y0121819D01*
X0222187Y0120181D01*
X0223345Y0119024D01*
X0224982Y0119024D01*
X0225466Y0119508D01*
X0236390Y0119508D01*
X0236466Y0119323D01*
X0237289Y0118500D01*
X0236466Y0117677D01*
X0236390Y0117492D01*
X0225466Y0117492D01*
X0224982Y0117976D01*
X0223345Y0117976D01*
X0222187Y0116819D01*
X0222187Y0115181D01*
X0223345Y0114024D01*
X0224982Y0114024D01*
X0225466Y0114508D01*
X0236390Y0114508D01*
X0236466Y0114323D01*
X0237299Y0113490D01*
X0238387Y0113039D01*
X0243502Y0113039D01*
X0244590Y0113490D01*
X0245423Y0114323D01*
X0245874Y0115411D01*
X0245874Y0116589D01*
X0245423Y0117677D01*
X0244600Y0118500D01*
X0245423Y0119323D01*
X0245874Y0120411D01*
X0245874Y0121589D01*
X0245423Y0122677D01*
X0244600Y0123500D01*
X0245423Y0124323D01*
X0245874Y0125411D01*
X0245874Y0126589D01*
X0245423Y0127677D01*
X0244600Y0128500D01*
X0245423Y0129323D01*
X0245874Y0130411D01*
X0245874Y0131589D01*
X0245423Y0132677D01*
X0244600Y0133500D01*
X0245423Y0134323D01*
X0245874Y0135411D01*
X0245874Y0136589D01*
X0245423Y0137677D01*
X0244600Y0138500D01*
X0245423Y0139323D01*
X0245874Y0140411D01*
X0245874Y0141589D01*
X0245423Y0142677D01*
X0244600Y0143500D01*
X0245423Y0144323D01*
X0245874Y0145411D01*
X0245615Y0144786D02*
X0263730Y0144786D01*
X0262343Y0143787D02*
X0244887Y0143787D01*
X0245312Y0142789D02*
X0261671Y0142789D01*
X0261272Y0141790D02*
X0245791Y0141790D01*
X0245874Y0140792D02*
X0261272Y0140792D01*
X0261430Y0139793D02*
X0245618Y0139793D01*
X0244895Y0138795D02*
X0261844Y0138795D01*
X0262760Y0137796D02*
X0245304Y0137796D01*
X0245788Y0136798D02*
X0269417Y0136798D01*
X0268396Y0135799D02*
X0245874Y0135799D01*
X0245621Y0134801D02*
X0268142Y0134801D01*
X0268338Y0133802D02*
X0244902Y0133802D01*
X0245297Y0132803D02*
X0269242Y0132803D01*
X0270413Y0132803D02*
X0270413Y0132803D01*
X0270413Y0133802D02*
X0270413Y0133802D01*
X0270413Y0134750D02*
X0270413Y0134750D01*
X0270656Y0131805D02*
X0245785Y0131805D01*
X0245874Y0130806D02*
X0270658Y0130806D01*
X0270660Y0129808D02*
X0245624Y0129808D01*
X0244910Y0128809D02*
X0270662Y0128809D01*
X0270664Y0127811D02*
X0245289Y0127811D01*
X0245781Y0126812D02*
X0270665Y0126812D01*
X0270667Y0125814D02*
X0245874Y0125814D01*
X0245627Y0124815D02*
X0270669Y0124815D01*
X0270671Y0123817D02*
X0244917Y0123817D01*
X0245282Y0122818D02*
X0270673Y0122818D01*
X0270675Y0121820D02*
X0245778Y0121820D01*
X0245874Y0120821D02*
X0270677Y0120821D01*
X0270679Y0119823D02*
X0245630Y0119823D01*
X0244925Y0118824D02*
X0270681Y0118824D01*
X0270683Y0117826D02*
X0245275Y0117826D01*
X0245775Y0116827D02*
X0270685Y0116827D01*
X0270687Y0115829D02*
X0245874Y0115829D01*
X0245633Y0114830D02*
X0270689Y0114830D01*
X0270691Y0113832D02*
X0244932Y0113832D01*
X0242913Y0116000D02*
X0224163Y0116000D01*
X0222187Y0115829D02*
X0161559Y0115829D01*
X0161308Y0116080D02*
X0162993Y0114394D01*
X0163905Y0112192D01*
X0163905Y0109808D01*
X0162993Y0107606D01*
X0161308Y0105920D01*
X0159105Y0105008D01*
X0156721Y0105008D01*
X0154519Y0105920D01*
X0152834Y0107606D01*
X0151921Y0109808D01*
X0151921Y0112192D01*
X0152834Y0114394D01*
X0154519Y0116080D01*
X0156721Y0116992D01*
X0159105Y0116992D01*
X0161308Y0116080D01*
X0162557Y0114830D02*
X0222538Y0114830D01*
X0222196Y0116827D02*
X0159503Y0116827D01*
X0156324Y0116827D02*
X0099036Y0116827D01*
X0098732Y0116524D02*
X0099890Y0117681D01*
X0099890Y0119319D01*
X0099405Y0119803D01*
X0099405Y0129697D01*
X0099890Y0130181D01*
X0099890Y0131819D01*
X0098732Y0132976D01*
X0097095Y0132976D01*
X0095937Y0131819D01*
X0095937Y0130181D01*
X0096421Y0129697D01*
X0096421Y0119803D01*
X0095937Y0119319D01*
X0095937Y0117681D01*
X0097095Y0116524D01*
X0098732Y0116524D01*
X0099890Y0117826D02*
X0223194Y0117826D01*
X0225133Y0117826D02*
X0236615Y0117826D01*
X0236965Y0118824D02*
X0099890Y0118824D01*
X0099405Y0119823D02*
X0222546Y0119823D01*
X0222187Y0120821D02*
X0099405Y0120821D01*
X0099405Y0121820D02*
X0222188Y0121820D01*
X0223187Y0122818D02*
X0099405Y0122818D01*
X0099405Y0123817D02*
X0236973Y0123817D01*
X0236608Y0122818D02*
X0225140Y0122818D01*
X0224163Y0121000D02*
X0242913Y0121000D01*
X0242913Y0126000D02*
X0224163Y0126000D01*
X0222187Y0125814D02*
X0099405Y0125814D01*
X0099405Y0126812D02*
X0222187Y0126812D01*
X0223179Y0127811D02*
X0099405Y0127811D01*
X0099405Y0128809D02*
X0236980Y0128809D01*
X0236600Y0127811D02*
X0225147Y0127811D01*
X0222560Y0129808D02*
X0099516Y0129808D01*
X0099890Y0130806D02*
X0222187Y0130806D01*
X0222187Y0131805D02*
X0099890Y0131805D01*
X0098905Y0132803D02*
X0223172Y0132803D01*
X0225155Y0132803D02*
X0236593Y0132803D01*
X0236987Y0133802D02*
X0026563Y0133802D01*
X0026563Y0134650D02*
X0026563Y0132405D01*
X0026475Y0132078D01*
X0026306Y0131784D01*
X0026066Y0131545D01*
X0025773Y0131375D01*
X0025445Y0131287D01*
X0023201Y0131287D01*
X0023201Y0134650D01*
X0023201Y0135224D01*
X0026563Y0135224D01*
X0026563Y0137469D01*
X0026475Y0137796D01*
X0236585Y0137796D01*
X0236995Y0138795D02*
X0015382Y0138795D01*
X0015382Y0139793D02*
X0089896Y0139793D01*
X0089351Y0139829D02*
X0091724Y0139673D01*
X0092413Y0139673D01*
X0092413Y0175500D01*
X0056587Y0175500D01*
X0056587Y0174811D01*
X0056699Y0173098D01*
X0056648Y0173221D01*
X0055095Y0174774D01*
X0053066Y0175614D01*
X0050871Y0175614D01*
X0048842Y0174774D01*
X0047289Y0173221D01*
X0046449Y0171192D01*
X0046449Y0168997D01*
X0047289Y0166968D01*
X0048842Y0165415D01*
X0050871Y0164575D01*
X0053066Y0164575D01*
X0055095Y0165415D01*
X0056648Y0166968D01*
X0057339Y0168637D01*
X0057517Y0167747D01*
X0058132Y0165449D01*
X0058897Y0163197D01*
X0059807Y0161000D01*
X0060859Y0158866D01*
X0062048Y0156807D01*
X0063369Y0154829D01*
X0064817Y0152942D01*
X0066386Y0151154D01*
X0068067Y0149472D01*
X0069856Y0147904D01*
X0071743Y0146456D01*
X0073720Y0145135D01*
X0075780Y0143945D01*
X0077913Y0142894D01*
X0080110Y0141983D01*
X0082363Y0141219D01*
X0084660Y0140603D01*
X0086993Y0140139D01*
X0089351Y0139829D01*
X0092413Y0139793D02*
X0093413Y0139793D01*
X0093413Y0139673D02*
X0094103Y0139673D01*
X0096476Y0139829D01*
X0098834Y0140139D01*
X0101167Y0140603D01*
X0103464Y0141219D01*
X0105716Y0141983D01*
X0107914Y0142894D01*
X0110047Y0143945D01*
X0112107Y0145135D01*
X0114084Y0146456D01*
X0115971Y0147904D01*
X0117759Y0149472D01*
X0119441Y0151154D01*
X0121009Y0152942D01*
X0122457Y0154829D01*
X0123779Y0156807D01*
X0124968Y0158866D01*
X0126020Y0161000D01*
X0126930Y0163197D01*
X0127695Y0165449D01*
X0128310Y0167747D01*
X0128487Y0168637D01*
X0129179Y0166968D01*
X0130732Y0165415D01*
X0132760Y0164575D01*
X0134956Y0164575D01*
X0136985Y0165415D01*
X0138538Y0166968D01*
X0139378Y0168997D01*
X0139378Y0171192D01*
X0138538Y0173221D01*
X0136985Y0174774D01*
X0134956Y0175614D01*
X0132760Y0175614D01*
X0130732Y0174774D01*
X0129179Y0173221D01*
X0129128Y0173098D01*
X0129240Y0174811D01*
X0129240Y0175500D01*
X0093413Y0175500D01*
X0093413Y0139673D01*
X0093413Y0140792D02*
X0092413Y0140792D01*
X0092413Y0141790D02*
X0093413Y0141790D01*
X0093413Y0142789D02*
X0092413Y0142789D01*
X0092413Y0143787D02*
X0093413Y0143787D01*
X0093413Y0144786D02*
X0092413Y0144786D01*
X0092413Y0145784D02*
X0093413Y0145784D01*
X0093413Y0146783D02*
X0092413Y0146783D01*
X0092413Y0147781D02*
X0093413Y0147781D01*
X0093413Y0148780D02*
X0092413Y0148780D01*
X0092413Y0149778D02*
X0093413Y0149778D01*
X0093413Y0150777D02*
X0092413Y0150777D01*
X0092413Y0151775D02*
X0093413Y0151775D01*
X0093413Y0152774D02*
X0092413Y0152774D01*
X0092413Y0153772D02*
X0093413Y0153772D01*
X0093413Y0154771D02*
X0092413Y0154771D01*
X0092413Y0155769D02*
X0093413Y0155769D01*
X0093413Y0156768D02*
X0092413Y0156768D01*
X0092413Y0157766D02*
X0093413Y0157766D01*
X0093413Y0158765D02*
X0092413Y0158765D01*
X0092413Y0159763D02*
X0093413Y0159763D01*
X0093413Y0160762D02*
X0092413Y0160762D01*
X0092413Y0161760D02*
X0093413Y0161760D01*
X0093413Y0162759D02*
X0092413Y0162759D01*
X0092413Y0163757D02*
X0093413Y0163757D01*
X0093413Y0164756D02*
X0092413Y0164756D01*
X0092413Y0165754D02*
X0093413Y0165754D01*
X0093413Y0166753D02*
X0092413Y0166753D01*
X0092413Y0167751D02*
X0093413Y0167751D01*
X0093413Y0168750D02*
X0092413Y0168750D01*
X0092413Y0169748D02*
X0093413Y0169748D01*
X0093413Y0170747D02*
X0092413Y0170747D01*
X0092413Y0171745D02*
X0093413Y0171745D01*
X0093413Y0172744D02*
X0092413Y0172744D01*
X0092413Y0173742D02*
X0093413Y0173742D01*
X0093413Y0174741D02*
X0092413Y0174741D01*
X0092413Y0175500D02*
X0093413Y0175500D01*
X0093413Y0176500D01*
X0092413Y0176500D01*
X0092413Y0175500D01*
X0092413Y0175739D02*
X0015382Y0175739D01*
X0015382Y0174741D02*
X0048809Y0174741D01*
X0047810Y0173742D02*
X0015382Y0173742D01*
X0015382Y0172744D02*
X0047091Y0172744D01*
X0046678Y0171745D02*
X0015382Y0171745D01*
X0015382Y0170747D02*
X0046449Y0170747D01*
X0046449Y0169748D02*
X0015382Y0169748D01*
X0015382Y0168750D02*
X0046551Y0168750D01*
X0046965Y0167751D02*
X0015382Y0167751D01*
X0015382Y0166753D02*
X0047504Y0166753D01*
X0048503Y0165754D02*
X0015382Y0165754D01*
X0015382Y0164756D02*
X0050433Y0164756D01*
X0053504Y0164756D02*
X0058368Y0164756D01*
X0058050Y0165754D02*
X0055434Y0165754D01*
X0056433Y0166753D02*
X0057783Y0166753D01*
X0057516Y0167751D02*
X0056972Y0167751D01*
X0058707Y0163757D02*
X0015382Y0163757D01*
X0015382Y0162759D02*
X0059078Y0162759D01*
X0059492Y0161760D02*
X0015382Y0161760D01*
X0015382Y0160762D02*
X0059924Y0160762D01*
X0060417Y0159763D02*
X0015382Y0159763D01*
X0015382Y0158765D02*
X0060918Y0158765D01*
X0061494Y0157766D02*
X0015382Y0157766D01*
X0015382Y0156768D02*
X0062074Y0156768D01*
X0062741Y0155769D02*
X0015382Y0155769D01*
X0015382Y0154771D02*
X0063414Y0154771D01*
X0064180Y0153772D02*
X0015382Y0153772D01*
X0015382Y0152774D02*
X0027725Y0152774D01*
X0027769Y0152818D02*
X0027346Y0152395D01*
X0027047Y0151877D01*
X0026892Y0151299D01*
X0026892Y0151000D01*
X0026892Y0150701D01*
X0027047Y0150123D01*
X0027346Y0149605D01*
X0027769Y0149182D01*
X0028287Y0148883D01*
X0028864Y0148728D01*
X0029163Y0148728D01*
X0029163Y0151000D01*
X0026892Y0151000D01*
X0029163Y0151000D01*
X0029163Y0151000D01*
X0029163Y0153272D01*
X0028864Y0153272D01*
X0028287Y0153117D01*
X0027769Y0152818D01*
X0027019Y0151775D02*
X0015382Y0151775D01*
X0015382Y0150777D02*
X0026892Y0150777D01*
X0027246Y0149778D02*
X0021048Y0149778D01*
X0020981Y0149895D02*
X0020558Y0150318D01*
X0020040Y0150617D01*
X0019462Y0150772D01*
X0019163Y0150772D01*
X0018864Y0150772D01*
X0018287Y0150617D01*
X0017769Y0150318D01*
X0017346Y0149895D01*
X0017047Y0149377D01*
X0016892Y0148799D01*
X0016892Y0148500D01*
X0016892Y0148201D01*
X0017047Y0147623D01*
X0017346Y0147105D01*
X0017769Y0146682D01*
X0018287Y0146383D01*
X0018864Y0146228D01*
X0019163Y0146228D01*
X0019163Y0148500D01*
X0016892Y0148500D01*
X0019163Y0148500D01*
X0019163Y0148500D01*
X0019163Y0150772D01*
X0019163Y0148500D01*
X0019163Y0148500D01*
X0019163Y0148500D01*
X0019163Y0146228D01*
X0019462Y0146228D01*
X0020040Y0146383D01*
X0020558Y0146682D01*
X0020981Y0147105D01*
X0021280Y0147623D01*
X0021435Y0148201D01*
X0021435Y0148500D01*
X0021435Y0148799D01*
X0021280Y0149377D01*
X0020981Y0149895D01*
X0021435Y0148780D02*
X0028673Y0148780D01*
X0029163Y0148780D02*
X0029163Y0148780D01*
X0029163Y0148728D02*
X0029462Y0148728D01*
X0030040Y0148883D01*
X0030558Y0149182D01*
X0030981Y0149605D01*
X0031280Y0150123D01*
X0031435Y0150701D01*
X0031435Y0151000D01*
X0031435Y0151299D01*
X0031280Y0151877D01*
X0030981Y0152395D01*
X0030558Y0152818D01*
X0030040Y0153117D01*
X0029462Y0153272D01*
X0029163Y0153272D01*
X0029163Y0151000D01*
X0029163Y0151000D01*
X0029163Y0151000D01*
X0029163Y0148728D01*
X0029654Y0148780D02*
X0068857Y0148780D01*
X0067761Y0149778D02*
X0031081Y0149778D01*
X0031435Y0150777D02*
X0066763Y0150777D01*
X0065841Y0151775D02*
X0031307Y0151775D01*
X0031435Y0151000D02*
X0029164Y0151000D01*
X0029164Y0151000D01*
X0031435Y0151000D01*
X0030602Y0152774D02*
X0064965Y0152774D01*
X0070016Y0147781D02*
X0021323Y0147781D01*
X0021435Y0148500D02*
X0019164Y0148500D01*
X0021435Y0148500D01*
X0020659Y0146783D02*
X0071317Y0146783D01*
X0072748Y0145784D02*
X0015382Y0145784D01*
X0015382Y0144786D02*
X0074325Y0144786D01*
X0076101Y0143787D02*
X0015382Y0143787D01*
X0015382Y0142789D02*
X0078166Y0142789D01*
X0080680Y0141790D02*
X0015382Y0141790D01*
X0015382Y0140792D02*
X0083957Y0140792D01*
X0095931Y0139793D02*
X0236272Y0139793D01*
X0236016Y0140792D02*
X0101870Y0140792D01*
X0105147Y0141790D02*
X0236099Y0141790D01*
X0236578Y0142789D02*
X0107660Y0142789D01*
X0109726Y0143787D02*
X0237002Y0143787D01*
X0236275Y0144786D02*
X0111502Y0144786D01*
X0113079Y0145784D02*
X0236016Y0145784D01*
X0236096Y0146783D02*
X0114510Y0146783D01*
X0115811Y0147781D02*
X0236571Y0147781D01*
X0237010Y0148780D02*
X0116970Y0148780D01*
X0118065Y0149778D02*
X0236278Y0149778D01*
X0236016Y0150777D02*
X0119064Y0150777D01*
X0119986Y0151775D02*
X0236093Y0151775D01*
X0236563Y0152774D02*
X0187114Y0152774D01*
X0186553Y0152213D02*
X0191701Y0157360D01*
X0191701Y0160500D01*
X0183413Y0160500D01*
X0183413Y0152213D01*
X0186553Y0152213D01*
X0188113Y0153772D02*
X0237017Y0153772D01*
X0236281Y0154771D02*
X0189111Y0154771D01*
X0190110Y0155769D02*
X0236016Y0155769D01*
X0236090Y0156768D02*
X0191108Y0156768D01*
X0191701Y0157766D02*
X0236556Y0157766D01*
X0237025Y0158765D02*
X0191701Y0158765D01*
X0191701Y0159763D02*
X0236284Y0159763D01*
X0236016Y0160762D02*
X0183413Y0160762D01*
X0183413Y0160500D02*
X0183413Y0161500D01*
X0182413Y0161500D01*
X0182413Y0160500D01*
X0174126Y0160500D01*
X0174126Y0157360D01*
X0179274Y0152213D01*
X0182413Y0152213D01*
X0182413Y0160500D01*
X0183413Y0160500D01*
X0183413Y0159763D02*
X0182413Y0159763D01*
X0182413Y0158765D02*
X0183413Y0158765D01*
X0183413Y0157766D02*
X0182413Y0157766D01*
X0182413Y0156768D02*
X0183413Y0156768D01*
X0183413Y0155769D02*
X0182413Y0155769D01*
X0182413Y0154771D02*
X0183413Y0154771D01*
X0183413Y0153772D02*
X0182413Y0153772D01*
X0182413Y0152774D02*
X0183413Y0152774D01*
X0178712Y0152774D02*
X0120862Y0152774D01*
X0121646Y0153772D02*
X0177714Y0153772D01*
X0176715Y0154771D02*
X0122412Y0154771D01*
X0123085Y0155769D02*
X0175717Y0155769D01*
X0174718Y0156768D02*
X0123753Y0156768D01*
X0124333Y0157766D02*
X0174126Y0157766D01*
X0174126Y0158765D02*
X0124909Y0158765D01*
X0125410Y0159763D02*
X0174126Y0159763D01*
X0174126Y0161500D02*
X0182413Y0161500D01*
X0182413Y0169787D01*
X0179274Y0169787D01*
X0174126Y0164640D01*
X0174126Y0161500D01*
X0174126Y0161760D02*
X0126335Y0161760D01*
X0126749Y0162759D02*
X0174126Y0162759D01*
X0174126Y0163757D02*
X0127120Y0163757D01*
X0127459Y0164756D02*
X0132323Y0164756D01*
X0130392Y0165754D02*
X0127776Y0165754D01*
X0128044Y0166753D02*
X0129394Y0166753D01*
X0128854Y0167751D02*
X0128311Y0167751D01*
X0129170Y0173742D02*
X0129700Y0173742D01*
X0129236Y0174741D02*
X0130699Y0174741D01*
X0129240Y0176500D02*
X0129240Y0177189D01*
X0129097Y0179370D01*
X0129179Y0179173D01*
X0130732Y0177620D01*
X0132760Y0176780D01*
X0134956Y0176780D01*
X0136985Y0177620D01*
X0138538Y0179173D01*
X0139378Y0181201D01*
X0139378Y0183397D01*
X0138538Y0185426D01*
X0136985Y0186979D01*
X0134956Y0187819D01*
X0132760Y0187819D01*
X0130732Y0186979D01*
X0129179Y0185426D01*
X0128434Y0183629D01*
X0128310Y0184253D01*
X0127695Y0186551D01*
X0126930Y0188803D01*
X0126020Y0191000D01*
X0124968Y0193133D01*
X0123779Y0195193D01*
X0122457Y0197171D01*
X0121009Y0199058D01*
X0119441Y0200846D01*
X0117759Y0202528D01*
X0115971Y0204096D01*
X0114084Y0205544D01*
X0112107Y0206865D01*
X0110047Y0208055D01*
X0107914Y0209106D01*
X0105716Y0210017D01*
X0103464Y0210781D01*
X0101167Y0211397D01*
X0098834Y0211861D01*
X0096476Y0212171D01*
X0094103Y0212327D01*
X0093413Y0212327D01*
X0093413Y0176500D01*
X0129240Y0176500D01*
X0129240Y0176738D02*
X0175487Y0176738D01*
X0175714Y0176190D02*
X0178103Y0173801D01*
X0181224Y0172508D01*
X0184603Y0172508D01*
X0187724Y0173801D01*
X0190113Y0176190D01*
X0191405Y0179311D01*
X0191405Y0182689D01*
X0190113Y0185810D01*
X0187724Y0188199D01*
X0184603Y0189492D01*
X0181224Y0189492D01*
X0178103Y0188199D01*
X0175714Y0185810D01*
X0174421Y0182689D01*
X0174421Y0179311D01*
X0175714Y0176190D01*
X0176164Y0175739D02*
X0093413Y0175739D01*
X0093413Y0176738D02*
X0092413Y0176738D01*
X0092413Y0176500D02*
X0092413Y0212327D01*
X0091724Y0212327D01*
X0089351Y0212171D01*
X0086993Y0211861D01*
X0084660Y0211397D01*
X0082363Y0210781D01*
X0080110Y0210017D01*
X0077913Y0209106D01*
X0075780Y0208055D01*
X0073720Y0206865D01*
X0071743Y0205544D01*
X0069856Y0204096D01*
X0068067Y0202528D01*
X0066386Y0200846D01*
X0064817Y0199058D01*
X0063369Y0197171D01*
X0062048Y0195193D01*
X0060859Y0193133D01*
X0059807Y0191000D01*
X0058897Y0188803D01*
X0058132Y0186551D01*
X0057517Y0184253D01*
X0057392Y0183629D01*
X0056648Y0185426D01*
X0055095Y0186979D01*
X0053066Y0187819D01*
X0050871Y0187819D01*
X0048842Y0186979D01*
X0047289Y0185426D01*
X0046449Y0183397D01*
X0046449Y0181201D01*
X0047289Y0179173D01*
X0048842Y0177620D01*
X0050871Y0176780D01*
X0053066Y0176780D01*
X0055095Y0177620D01*
X0056648Y0179173D01*
X0056730Y0179370D01*
X0056587Y0177189D01*
X0056587Y0176500D01*
X0092413Y0176500D01*
X0092413Y0177737D02*
X0093413Y0177737D01*
X0093413Y0178735D02*
X0092413Y0178735D01*
X0092413Y0179734D02*
X0093413Y0179734D01*
X0093413Y0180732D02*
X0092413Y0180732D01*
X0092413Y0181731D02*
X0093413Y0181731D01*
X0093413Y0182729D02*
X0092413Y0182729D01*
X0092413Y0183728D02*
X0093413Y0183728D01*
X0093413Y0184726D02*
X0092413Y0184726D01*
X0092413Y0185725D02*
X0093413Y0185725D01*
X0093413Y0186723D02*
X0092413Y0186723D01*
X0092413Y0187722D02*
X0093413Y0187722D01*
X0093413Y0188720D02*
X0092413Y0188720D01*
X0092413Y0189719D02*
X0093413Y0189719D01*
X0093413Y0190717D02*
X0092413Y0190717D01*
X0092413Y0191716D02*
X0093413Y0191716D01*
X0093413Y0192714D02*
X0092413Y0192714D01*
X0092413Y0193713D02*
X0093413Y0193713D01*
X0093413Y0194711D02*
X0092413Y0194711D01*
X0092413Y0195710D02*
X0093413Y0195710D01*
X0093413Y0196708D02*
X0092413Y0196708D01*
X0092413Y0197707D02*
X0093413Y0197707D01*
X0093413Y0198705D02*
X0092413Y0198705D01*
X0092413Y0199704D02*
X0093413Y0199704D01*
X0093413Y0200702D02*
X0092413Y0200702D01*
X0092413Y0201701D02*
X0093413Y0201701D01*
X0093413Y0202699D02*
X0092413Y0202699D01*
X0092413Y0203698D02*
X0093413Y0203698D01*
X0093413Y0204696D02*
X0092413Y0204696D01*
X0092413Y0205695D02*
X0093413Y0205695D01*
X0093413Y0206693D02*
X0092413Y0206693D01*
X0092413Y0207692D02*
X0093413Y0207692D01*
X0093413Y0208690D02*
X0092413Y0208690D01*
X0092413Y0209689D02*
X0093413Y0209689D01*
X0093413Y0210687D02*
X0092413Y0210687D01*
X0092413Y0211686D02*
X0093413Y0211686D01*
X0099713Y0211686D02*
X0232472Y0211686D01*
X0232487Y0212684D02*
X0032848Y0212684D01*
X0033375Y0212158D02*
X0031158Y0214375D01*
X0028261Y0215575D01*
X0025125Y0215575D01*
X0022228Y0214375D01*
X0020011Y0212158D01*
X0018811Y0209261D01*
X0018811Y0206125D01*
X0020011Y0203228D01*
X0022228Y0201011D01*
X0025125Y0199811D01*
X0028261Y0199811D01*
X0031158Y0201011D01*
X0033375Y0203228D01*
X0034575Y0206125D01*
X0034575Y0209261D01*
X0033375Y0212158D01*
X0033570Y0211686D02*
X0086114Y0211686D01*
X0082086Y0210687D02*
X0033984Y0210687D01*
X0034397Y0209689D02*
X0079319Y0209689D01*
X0077069Y0208690D02*
X0034575Y0208690D01*
X0034575Y0207692D02*
X0075152Y0207692D01*
X0073463Y0206693D02*
X0034575Y0206693D01*
X0034397Y0205695D02*
X0071968Y0205695D01*
X0070638Y0204696D02*
X0033983Y0204696D01*
X0033569Y0203698D02*
X0069402Y0203698D01*
X0068263Y0202699D02*
X0032846Y0202699D01*
X0031847Y0201701D02*
X0067240Y0201701D01*
X0066260Y0200702D02*
X0030412Y0200702D01*
X0022973Y0200702D02*
X0015382Y0200702D01*
X0015382Y0199704D02*
X0065384Y0199704D01*
X0064547Y0198705D02*
X0015382Y0198705D01*
X0015382Y0197707D02*
X0063781Y0197707D01*
X0063060Y0196708D02*
X0015382Y0196708D01*
X0015382Y0195710D02*
X0062393Y0195710D01*
X0061770Y0194711D02*
X0015382Y0194711D01*
X0015382Y0193713D02*
X0017413Y0193713D01*
X0017346Y0193645D02*
X0017047Y0193127D01*
X0016892Y0192549D01*
X0016892Y0192250D01*
X0016892Y0191951D01*
X0017047Y0191373D01*
X0017346Y0190855D01*
X0017769Y0190432D01*
X0018287Y0190133D01*
X0018864Y0189978D01*
X0019163Y0189978D01*
X0019163Y0192250D01*
X0016892Y0192250D01*
X0019163Y0192250D01*
X0019163Y0192250D01*
X0019163Y0194522D01*
X0018864Y0194522D01*
X0018287Y0194367D01*
X0017769Y0194068D01*
X0017346Y0193645D01*
X0016936Y0192714D02*
X0015382Y0192714D01*
X0015382Y0191716D02*
X0016955Y0191716D01*
X0017484Y0190717D02*
X0015382Y0190717D01*
X0015382Y0189719D02*
X0026892Y0189719D01*
X0026892Y0189750D02*
X0026892Y0189451D01*
X0027047Y0188873D01*
X0027346Y0188355D01*
X0027769Y0187932D01*
X0028287Y0187633D01*
X0028864Y0187478D01*
X0029163Y0187478D01*
X0029163Y0189750D01*
X0026892Y0189750D01*
X0029163Y0189750D01*
X0029163Y0189750D01*
X0029163Y0192022D01*
X0028864Y0192022D01*
X0028287Y0191867D01*
X0027769Y0191568D01*
X0027346Y0191145D01*
X0027047Y0190627D01*
X0026892Y0190049D01*
X0026892Y0189750D01*
X0027099Y0190717D02*
X0020843Y0190717D01*
X0020981Y0190855D02*
X0020558Y0190432D01*
X0020040Y0190133D01*
X0019462Y0189978D01*
X0019163Y0189978D01*
X0019163Y0192250D01*
X0019163Y0192250D01*
X0019163Y0192250D01*
X0019163Y0194522D01*
X0019462Y0194522D01*
X0020040Y0194367D01*
X0020558Y0194068D01*
X0020981Y0193645D01*
X0021280Y0193127D01*
X0021435Y0192549D01*
X0021435Y0192250D01*
X0019164Y0192250D01*
X0019164Y0192250D01*
X0021435Y0192250D01*
X0021435Y0191951D01*
X0021280Y0191373D01*
X0020981Y0190855D01*
X0021372Y0191716D02*
X0028025Y0191716D01*
X0029163Y0191716D02*
X0029163Y0191716D01*
X0029163Y0192022D02*
X0029163Y0189750D01*
X0029163Y0189750D01*
X0029163Y0189750D01*
X0029163Y0187478D01*
X0029462Y0187478D01*
X0030040Y0187633D01*
X0030558Y0187932D01*
X0030981Y0188355D01*
X0031280Y0188873D01*
X0031435Y0189451D01*
X0031435Y0189750D01*
X0031435Y0190049D01*
X0031280Y0190627D01*
X0030981Y0191145D01*
X0030558Y0191568D01*
X0030040Y0191867D01*
X0029462Y0192022D01*
X0029163Y0192022D01*
X0030302Y0191716D02*
X0060160Y0191716D01*
X0059690Y0190717D02*
X0031228Y0190717D01*
X0031435Y0189750D02*
X0029164Y0189750D01*
X0029164Y0189750D01*
X0031435Y0189750D01*
X0031435Y0189719D02*
X0059276Y0189719D01*
X0058869Y0188720D02*
X0031192Y0188720D01*
X0030193Y0187722D02*
X0050636Y0187722D01*
X0048586Y0186723D02*
X0015382Y0186723D01*
X0015382Y0185725D02*
X0047588Y0185725D01*
X0046999Y0184726D02*
X0015382Y0184726D01*
X0015382Y0183728D02*
X0046586Y0183728D01*
X0046449Y0182729D02*
X0015382Y0182729D01*
X0015382Y0181731D02*
X0046449Y0181731D01*
X0046643Y0180732D02*
X0015382Y0180732D01*
X0015382Y0179734D02*
X0047057Y0179734D01*
X0047727Y0178735D02*
X0015382Y0178735D01*
X0015382Y0177737D02*
X0048725Y0177737D01*
X0055212Y0177737D02*
X0056622Y0177737D01*
X0056587Y0176738D02*
X0015382Y0176738D01*
X0015382Y0187722D02*
X0028133Y0187722D01*
X0029163Y0187722D02*
X0029163Y0187722D01*
X0029163Y0188720D02*
X0029163Y0188720D01*
X0029163Y0189719D02*
X0029163Y0189719D01*
X0029163Y0190717D02*
X0029163Y0190717D01*
X0027135Y0188720D02*
X0015382Y0188720D01*
X0019163Y0190717D02*
X0019163Y0190717D01*
X0019163Y0191716D02*
X0019163Y0191716D01*
X0019163Y0192714D02*
X0019163Y0192714D01*
X0019163Y0193713D02*
X0019163Y0193713D01*
X0020913Y0193713D02*
X0061193Y0193713D01*
X0060652Y0192714D02*
X0021391Y0192714D01*
X0021538Y0201701D02*
X0015382Y0201701D01*
X0015382Y0202699D02*
X0020540Y0202699D01*
X0019816Y0203698D02*
X0015382Y0203698D01*
X0015382Y0204696D02*
X0019403Y0204696D01*
X0018989Y0205695D02*
X0015382Y0205695D01*
X0015382Y0206693D02*
X0018811Y0206693D01*
X0018811Y0207692D02*
X0015382Y0207692D01*
X0015382Y0208690D02*
X0018811Y0208690D01*
X0018988Y0209689D02*
X0015384Y0209689D01*
X0015449Y0210687D02*
X0019402Y0210687D01*
X0019816Y0211686D02*
X0015678Y0211686D01*
X0015945Y0212684D02*
X0020538Y0212684D01*
X0021536Y0213683D02*
X0016351Y0213683D01*
X0016927Y0214681D02*
X0022968Y0214681D01*
X0018642Y0216678D02*
X0232546Y0216678D01*
X0232531Y0215680D02*
X0017644Y0215680D01*
X0030418Y0214681D02*
X0232516Y0214681D01*
X0232501Y0213683D02*
X0031850Y0213683D01*
X0053301Y0187722D02*
X0058530Y0187722D01*
X0058191Y0186723D02*
X0055351Y0186723D01*
X0056349Y0185725D02*
X0057911Y0185725D01*
X0057643Y0184726D02*
X0056938Y0184726D01*
X0057351Y0183728D02*
X0057412Y0183728D01*
X0056688Y0178735D02*
X0056210Y0178735D01*
X0056591Y0174741D02*
X0055128Y0174741D01*
X0056127Y0173742D02*
X0056657Y0173742D01*
X0029163Y0152774D02*
X0029163Y0152774D01*
X0029163Y0151775D02*
X0029163Y0151775D01*
X0029163Y0150777D02*
X0029163Y0150777D01*
X0029163Y0149778D02*
X0029163Y0149778D01*
X0019163Y0149778D02*
X0019163Y0149778D01*
X0019163Y0148780D02*
X0019163Y0148780D01*
X0019164Y0148500D02*
X0019164Y0148500D01*
X0019163Y0147781D02*
X0019163Y0147781D01*
X0019163Y0146783D02*
X0019163Y0146783D01*
X0017668Y0146783D02*
X0015382Y0146783D01*
X0015382Y0147781D02*
X0017004Y0147781D01*
X0016892Y0148780D02*
X0015382Y0148780D01*
X0015382Y0149778D02*
X0017278Y0149778D01*
X0020382Y0138587D02*
X0020054Y0138499D01*
X0019761Y0138329D01*
X0019521Y0138090D01*
X0019352Y0137796D01*
X0015382Y0137796D01*
X0015382Y0136798D02*
X0019264Y0136798D01*
X0019264Y0137469D02*
X0019264Y0135224D01*
X0022626Y0135224D01*
X0022626Y0134650D01*
X0019264Y0134650D01*
X0019264Y0132405D01*
X0019352Y0132078D01*
X0019521Y0131784D01*
X0019761Y0131545D01*
X0020054Y0131375D01*
X0020382Y0131287D01*
X0022626Y0131287D01*
X0022626Y0134650D01*
X0023201Y0134650D01*
X0026563Y0134650D01*
X0026563Y0135799D02*
X0236016Y0135799D01*
X0236102Y0136798D02*
X0026563Y0136798D01*
X0026475Y0137796D02*
X0026306Y0138090D01*
X0026066Y0138329D01*
X0025773Y0138499D01*
X0025445Y0138587D01*
X0023201Y0138587D01*
X0023201Y0135224D01*
X0022626Y0135224D01*
X0022626Y0138587D01*
X0020382Y0138587D01*
X0019352Y0137796D02*
X0019264Y0137469D01*
X0019264Y0135799D02*
X0015382Y0135799D01*
X0015382Y0134801D02*
X0022626Y0134801D01*
X0023201Y0134801D02*
X0236269Y0134801D01*
X0242913Y0131000D02*
X0224163Y0131000D01*
X0222553Y0124815D02*
X0099405Y0124815D01*
X0096421Y0124815D02*
X0025410Y0124815D01*
X0025757Y0125163D02*
X0024813Y0124219D01*
X0023581Y0123709D01*
X0022246Y0123709D01*
X0021013Y0124219D01*
X0020070Y0125163D01*
X0019559Y0126396D01*
X0019559Y0127730D01*
X0020070Y0128963D01*
X0021013Y0129907D01*
X0022246Y0130417D01*
X0023581Y0130417D01*
X0024813Y0129907D01*
X0025757Y0128963D01*
X0026268Y0127730D01*
X0026268Y0126396D01*
X0025757Y0125163D01*
X0026027Y0125814D02*
X0096421Y0125814D01*
X0096421Y0126812D02*
X0026268Y0126812D01*
X0026234Y0127811D02*
X0096421Y0127811D01*
X0096421Y0128809D02*
X0071015Y0128809D01*
X0071290Y0128883D02*
X0071808Y0129182D01*
X0072231Y0129605D01*
X0072530Y0130123D01*
X0072685Y0130701D01*
X0072685Y0131000D01*
X0072685Y0131299D01*
X0072530Y0131877D01*
X0072231Y0132395D01*
X0071808Y0132818D01*
X0071290Y0133117D01*
X0070712Y0133272D01*
X0070413Y0133272D01*
X0070114Y0133272D01*
X0069537Y0133117D01*
X0069019Y0132818D01*
X0068596Y0132395D01*
X0068297Y0131877D01*
X0068142Y0131299D01*
X0068142Y0131000D01*
X0068142Y0130701D01*
X0068297Y0130123D01*
X0068596Y0129605D01*
X0069019Y0129182D01*
X0069537Y0128883D01*
X0070114Y0128728D01*
X0070413Y0128728D01*
X0070413Y0131000D01*
X0068142Y0131000D01*
X0070413Y0131000D01*
X0070413Y0131000D01*
X0070413Y0133272D01*
X0070413Y0131000D01*
X0070413Y0131000D01*
X0070413Y0131000D01*
X0070413Y0128728D01*
X0070712Y0128728D01*
X0071290Y0128883D01*
X0070413Y0128809D02*
X0070413Y0128809D01*
X0069812Y0128809D02*
X0025821Y0128809D01*
X0024912Y0129808D02*
X0068479Y0129808D01*
X0068142Y0130806D02*
X0015382Y0130806D01*
X0015382Y0129808D02*
X0020915Y0129808D01*
X0020006Y0128809D02*
X0015382Y0128809D01*
X0015382Y0127811D02*
X0019593Y0127811D01*
X0019559Y0126812D02*
X0015382Y0126812D01*
X0015382Y0125814D02*
X0019800Y0125814D01*
X0020417Y0124815D02*
X0015382Y0124815D01*
X0015382Y0123817D02*
X0021985Y0123817D01*
X0023842Y0123817D02*
X0096421Y0123817D01*
X0096421Y0122818D02*
X0015382Y0122818D01*
X0015382Y0121820D02*
X0096421Y0121820D01*
X0096421Y0120821D02*
X0015382Y0120821D01*
X0015382Y0119823D02*
X0096421Y0119823D01*
X0095937Y0118824D02*
X0015382Y0118824D01*
X0015382Y0117826D02*
X0095937Y0117826D01*
X0096791Y0116827D02*
X0015382Y0116827D01*
X0015382Y0115829D02*
X0154268Y0115829D01*
X0153270Y0114830D02*
X0015382Y0114830D01*
X0015382Y0113832D02*
X0152601Y0113832D01*
X0152187Y0112833D02*
X0015382Y0112833D01*
X0015382Y0111835D02*
X0151921Y0111835D01*
X0151921Y0110836D02*
X0015382Y0110836D01*
X0015382Y0109838D02*
X0057313Y0109838D01*
X0057346Y0109895D02*
X0057047Y0109377D01*
X0056892Y0108799D01*
X0056892Y0108500D01*
X0056892Y0108201D01*
X0057047Y0107623D01*
X0057346Y0107105D01*
X0057769Y0106682D01*
X0058287Y0106383D01*
X0058864Y0106228D01*
X0059163Y0106228D01*
X0059163Y0108500D01*
X0056892Y0108500D01*
X0059163Y0108500D01*
X0059163Y0108500D01*
X0059163Y0110772D01*
X0058864Y0110772D01*
X0058287Y0110617D01*
X0057769Y0110318D01*
X0057346Y0109895D01*
X0056902Y0108839D02*
X0015382Y0108839D01*
X0015382Y0107841D02*
X0056988Y0107841D01*
X0057609Y0106842D02*
X0015382Y0106842D01*
X0015382Y0105844D02*
X0154704Y0105844D01*
X0153597Y0106842D02*
X0060718Y0106842D01*
X0060558Y0106682D02*
X0060981Y0107105D01*
X0061280Y0107623D01*
X0061435Y0108201D01*
X0061435Y0108500D01*
X0061435Y0108799D01*
X0061280Y0109377D01*
X0060981Y0109895D01*
X0060558Y0110318D01*
X0060040Y0110617D01*
X0059462Y0110772D01*
X0059163Y0110772D01*
X0059163Y0108500D01*
X0059163Y0108500D01*
X0059163Y0108500D01*
X0059163Y0106228D01*
X0059462Y0106228D01*
X0060040Y0106383D01*
X0060558Y0106682D01*
X0061338Y0107841D02*
X0152736Y0107841D01*
X0152323Y0108839D02*
X0061424Y0108839D01*
X0061435Y0108500D02*
X0059164Y0108500D01*
X0059164Y0108500D01*
X0061435Y0108500D01*
X0061014Y0109838D02*
X0151921Y0109838D01*
X0161123Y0105844D02*
X0238876Y0105844D01*
X0238587Y0105384D02*
X0238092Y0104357D01*
X0237716Y0103282D01*
X0237462Y0102171D01*
X0237335Y0101038D01*
X0237335Y0100968D01*
X0246980Y0100968D01*
X0246980Y0099969D01*
X0237335Y0099969D01*
X0237335Y0099899D01*
X0237462Y0098766D01*
X0237716Y0097655D01*
X0238092Y0096580D01*
X0238587Y0095553D01*
X0239193Y0094588D01*
X0239903Y0093697D01*
X0240709Y0092892D01*
X0241600Y0092181D01*
X0242565Y0091575D01*
X0243592Y0091080D01*
X0244667Y0090704D01*
X0245778Y0090450D01*
X0246911Y0090323D01*
X0246980Y0090323D01*
X0246980Y0099968D01*
X0247980Y0099968D01*
X0247980Y0090323D01*
X0248050Y0090323D01*
X0249182Y0090450D01*
X0250293Y0090704D01*
X0251369Y0091080D01*
X0252396Y0091575D01*
X0253361Y0092181D01*
X0254251Y0092892D01*
X0255057Y0093697D01*
X0255768Y0094588D01*
X0256374Y0095553D01*
X0256868Y0096580D01*
X0257245Y0097655D01*
X0257498Y0098766D01*
X0257626Y0099899D01*
X0257626Y0099969D01*
X0247980Y0099969D01*
X0247980Y0100968D01*
X0257626Y0100968D01*
X0257626Y0101038D01*
X0257498Y0102171D01*
X0257245Y0103282D01*
X0256868Y0104357D01*
X0256374Y0105384D01*
X0255768Y0106349D01*
X0255057Y0107240D01*
X0254251Y0108045D01*
X0253361Y0108756D01*
X0252396Y0109362D01*
X0251369Y0109857D01*
X0250293Y0110233D01*
X0249182Y0110487D01*
X0248050Y0110614D01*
X0247980Y0110614D01*
X0247980Y0100969D01*
X0246980Y0100969D01*
X0246980Y0110614D01*
X0246911Y0110614D01*
X0245778Y0110487D01*
X0244667Y0110233D01*
X0243592Y0109857D01*
X0242565Y0109362D01*
X0241600Y0108756D01*
X0240709Y0108045D01*
X0239903Y0107240D01*
X0239193Y0106349D01*
X0238587Y0105384D01*
X0238327Y0104845D02*
X0015382Y0104845D01*
X0015382Y0103847D02*
X0237914Y0103847D01*
X0237617Y0102848D02*
X0015382Y0102848D01*
X0015382Y0101850D02*
X0237426Y0101850D01*
X0237340Y0099853D02*
X0174756Y0099853D01*
X0174731Y0099895D02*
X0174308Y0100318D01*
X0173790Y0100617D01*
X0173212Y0100772D01*
X0172913Y0100772D01*
X0172614Y0100772D01*
X0172037Y0100617D01*
X0171519Y0100318D01*
X0171096Y0099895D01*
X0170797Y0099377D01*
X0170642Y0098799D01*
X0170642Y0098500D01*
X0170642Y0098201D01*
X0170797Y0097623D01*
X0171096Y0097105D01*
X0171519Y0096682D01*
X0172037Y0096383D01*
X0172614Y0096228D01*
X0172913Y0096228D01*
X0172913Y0098500D01*
X0170642Y0098500D01*
X0172913Y0098500D01*
X0172913Y0098500D01*
X0172913Y0100772D01*
X0172913Y0098500D01*
X0172913Y0098500D01*
X0172913Y0098500D01*
X0172913Y0096228D01*
X0173212Y0096228D01*
X0173790Y0096383D01*
X0174308Y0096682D01*
X0174731Y0097105D01*
X0175030Y0097623D01*
X0175185Y0098201D01*
X0175185Y0098500D01*
X0175185Y0098799D01*
X0175030Y0099377D01*
X0174731Y0099895D01*
X0175170Y0098854D02*
X0237452Y0098854D01*
X0237670Y0097856D02*
X0175092Y0097856D01*
X0175185Y0098500D02*
X0172914Y0098500D01*
X0175185Y0098500D01*
X0174483Y0096857D02*
X0237995Y0096857D01*
X0238439Y0095859D02*
X0233350Y0095859D01*
X0233640Y0095569D02*
X0232482Y0096726D01*
X0230845Y0096726D01*
X0229687Y0095569D01*
X0229687Y0093931D01*
X0230171Y0093447D01*
X0230171Y0077868D01*
X0229795Y0077492D01*
X0224795Y0077492D01*
X0222295Y0074992D01*
X0221421Y0074118D01*
X0221421Y0069761D01*
X0221013Y0069592D01*
X0220070Y0068648D01*
X0219559Y0067415D01*
X0219559Y0066081D01*
X0220070Y0064848D01*
X0221013Y0063904D01*
X0222246Y0063394D01*
X0223581Y0063394D01*
X0224813Y0063904D01*
X0225757Y0064848D01*
X0226268Y0066081D01*
X0226268Y0067415D01*
X0225757Y0068648D01*
X0224813Y0069592D01*
X0224405Y0069761D01*
X0224405Y0072882D01*
X0226031Y0074508D01*
X0231031Y0074508D01*
X0231905Y0075382D01*
X0233155Y0076632D01*
X0233155Y0077398D01*
X0233437Y0077116D01*
X0233437Y0076431D01*
X0234595Y0075274D01*
X0236232Y0075274D01*
X0237390Y0076431D01*
X0237390Y0078069D01*
X0236232Y0079226D01*
X0235655Y0079226D01*
X0235655Y0090947D01*
X0236140Y0091431D01*
X0236140Y0093069D01*
X0234982Y0094226D01*
X0233640Y0094226D01*
X0233640Y0095569D01*
X0233640Y0094860D02*
X0239022Y0094860D01*
X0239772Y0093862D02*
X0235347Y0093862D01*
X0236140Y0092863D02*
X0240745Y0092863D01*
X0242104Y0091865D02*
X0236140Y0091865D01*
X0235655Y0090866D02*
X0244204Y0090866D01*
X0246980Y0090866D02*
X0247980Y0090866D01*
X0247980Y0091865D02*
X0246980Y0091865D01*
X0246980Y0092863D02*
X0247980Y0092863D01*
X0247980Y0093862D02*
X0246980Y0093862D01*
X0246980Y0094860D02*
X0247980Y0094860D01*
X0247980Y0095859D02*
X0246980Y0095859D01*
X0246980Y0096857D02*
X0247980Y0096857D01*
X0247980Y0097856D02*
X0246980Y0097856D01*
X0246980Y0098854D02*
X0247980Y0098854D01*
X0247980Y0099853D02*
X0246980Y0099853D01*
X0246980Y0100851D02*
X0015382Y0100851D01*
X0015382Y0099853D02*
X0171071Y0099853D01*
X0170656Y0098854D02*
X0015382Y0098854D01*
X0015382Y0097856D02*
X0170734Y0097856D01*
X0171344Y0096857D02*
X0160948Y0096857D01*
X0160518Y0097287D02*
X0158413Y0097287D01*
X0158413Y0091500D01*
X0157413Y0091500D01*
X0157413Y0090500D01*
X0151626Y0090500D01*
X0151626Y0088396D01*
X0155309Y0084713D01*
X0157413Y0084713D01*
X0157413Y0090500D01*
X0158413Y0090500D01*
X0158413Y0084713D01*
X0160518Y0084713D01*
X0164201Y0088396D01*
X0164201Y0090500D01*
X0158413Y0090500D01*
X0158413Y0091500D01*
X0164201Y0091500D01*
X0164201Y0093604D01*
X0160518Y0097287D01*
X0161947Y0095859D02*
X0229977Y0095859D01*
X0229687Y0094860D02*
X0162945Y0094860D01*
X0163944Y0093862D02*
X0229757Y0093862D01*
X0230171Y0092863D02*
X0164201Y0092863D01*
X0164201Y0091865D02*
X0230171Y0091865D01*
X0230171Y0090866D02*
X0214592Y0090866D01*
X0214890Y0090569D02*
X0213732Y0091726D01*
X0212095Y0091726D01*
X0211038Y0090670D01*
X0209982Y0091726D01*
X0208345Y0091726D01*
X0207288Y0090670D01*
X0206232Y0091726D01*
X0204595Y0091726D01*
X0203538Y0090670D01*
X0202482Y0091726D01*
X0200845Y0091726D01*
X0199687Y0090569D01*
X0199687Y0088931D01*
X0200171Y0088447D01*
X0200171Y0079803D01*
X0199687Y0079319D01*
X0199687Y0077681D01*
X0200845Y0076524D01*
X0202482Y0076524D01*
X0203538Y0077580D01*
X0204595Y0076524D01*
X0206232Y0076524D01*
X0207288Y0077580D01*
X0208345Y0076524D01*
X0209982Y0076524D01*
X0211038Y0077580D01*
X0212095Y0076524D01*
X0213732Y0076524D01*
X0214890Y0077681D01*
X0214890Y0079319D01*
X0214405Y0079803D01*
X0214405Y0088447D01*
X0214890Y0088931D01*
X0214890Y0090569D01*
X0214890Y0089868D02*
X0230171Y0089868D01*
X0230171Y0088869D02*
X0225339Y0088869D01*
X0224982Y0089226D02*
X0223345Y0089226D01*
X0222187Y0088069D01*
X0222187Y0086431D01*
X0222671Y0085947D01*
X0222671Y0081053D01*
X0222187Y0080569D01*
X0222187Y0078931D01*
X0223345Y0077774D01*
X0224982Y0077774D01*
X0226140Y0078931D01*
X0226140Y0080569D01*
X0225655Y0081053D01*
X0225655Y0085947D01*
X0226140Y0086431D01*
X0226140Y0088069D01*
X0224982Y0089226D01*
X0226140Y0087870D02*
X0230171Y0087870D01*
X0230171Y0086872D02*
X0226140Y0086872D01*
X0225655Y0085873D02*
X0230171Y0085873D01*
X0230171Y0084875D02*
X0225655Y0084875D01*
X0225655Y0083876D02*
X0230171Y0083876D01*
X0230171Y0082878D02*
X0225655Y0082878D01*
X0225655Y0081879D02*
X0230171Y0081879D01*
X0230171Y0080881D02*
X0225827Y0080881D01*
X0226140Y0079882D02*
X0230171Y0079882D01*
X0230171Y0078884D02*
X0226092Y0078884D01*
X0225094Y0077885D02*
X0230171Y0077885D01*
X0231663Y0077250D02*
X0230413Y0076000D01*
X0225413Y0076000D01*
X0222913Y0073500D01*
X0222913Y0066748D01*
X0219760Y0067900D02*
X0211405Y0067900D01*
X0211405Y0066902D02*
X0219559Y0066902D01*
X0219633Y0065903D02*
X0211405Y0065903D01*
X0211405Y0064905D02*
X0220046Y0064905D01*
X0221011Y0063906D02*
X0211405Y0063906D01*
X0211405Y0062908D02*
X0270791Y0062908D01*
X0270789Y0063906D02*
X0224815Y0063906D01*
X0225781Y0064905D02*
X0270787Y0064905D01*
X0270785Y0065903D02*
X0226194Y0065903D01*
X0226268Y0066902D02*
X0270783Y0066902D01*
X0270781Y0067900D02*
X0226067Y0067900D01*
X0225506Y0068899D02*
X0255760Y0068899D01*
X0255787Y0068883D02*
X0256364Y0068728D01*
X0256663Y0068728D01*
X0256663Y0071000D01*
X0254392Y0071000D01*
X0254392Y0070701D01*
X0254547Y0070123D01*
X0254846Y0069605D01*
X0255269Y0069182D01*
X0255787Y0068883D01*
X0256663Y0068899D02*
X0256663Y0068899D01*
X0256663Y0068728D02*
X0256962Y0068728D01*
X0257540Y0068883D01*
X0258058Y0069182D01*
X0258481Y0069605D01*
X0258780Y0070123D01*
X0258935Y0070701D01*
X0258935Y0071000D01*
X0258935Y0071299D01*
X0258780Y0071877D01*
X0258481Y0072395D01*
X0258058Y0072818D01*
X0257540Y0073117D01*
X0256962Y0073272D01*
X0256663Y0073272D01*
X0256364Y0073272D01*
X0255787Y0073117D01*
X0255269Y0072818D01*
X0254846Y0072395D01*
X0254547Y0071877D01*
X0254392Y0071299D01*
X0254392Y0071000D01*
X0256663Y0071000D01*
X0256663Y0071000D01*
X0256663Y0073272D01*
X0256663Y0071000D01*
X0256663Y0071000D01*
X0256663Y0071000D01*
X0256663Y0068728D01*
X0257567Y0068899D02*
X0270780Y0068899D01*
X0270778Y0069897D02*
X0258650Y0069897D01*
X0258935Y0070896D02*
X0270776Y0070896D01*
X0270774Y0071894D02*
X0258770Y0071894D01*
X0258935Y0071000D02*
X0256664Y0071000D01*
X0256664Y0071000D01*
X0258935Y0071000D01*
X0257928Y0072893D02*
X0270772Y0072893D01*
X0270770Y0073891D02*
X0225415Y0073891D01*
X0224416Y0072893D02*
X0255399Y0072893D01*
X0256663Y0072893D02*
X0256663Y0072893D01*
X0256663Y0071894D02*
X0256663Y0071894D01*
X0256663Y0070896D02*
X0256663Y0070896D01*
X0256663Y0069897D02*
X0256663Y0069897D01*
X0254677Y0069897D02*
X0224405Y0069897D01*
X0224405Y0070896D02*
X0254392Y0070896D01*
X0254557Y0071894D02*
X0224405Y0071894D01*
X0221421Y0071894D02*
X0209458Y0071894D01*
X0210456Y0070896D02*
X0221421Y0070896D01*
X0221421Y0069897D02*
X0211114Y0069897D01*
X0211405Y0068899D02*
X0220320Y0068899D01*
X0221421Y0072893D02*
X0208459Y0072893D01*
X0207461Y0073891D02*
X0221421Y0073891D01*
X0222193Y0074890D02*
X0076660Y0074890D01*
X0076445Y0075410D02*
X0075335Y0076520D01*
X0073885Y0077120D01*
X0058536Y0077120D01*
X0057086Y0076520D01*
X0055977Y0075410D01*
X0055376Y0073960D01*
X0055376Y0066485D01*
X0055977Y0065035D01*
X0057086Y0063925D01*
X0058536Y0063325D01*
X0073885Y0063325D01*
X0075335Y0063925D01*
X0076445Y0065035D01*
X0077045Y0066485D01*
X0077045Y0073960D01*
X0076445Y0075410D01*
X0075966Y0075888D02*
X0223192Y0075888D01*
X0224190Y0076887D02*
X0214095Y0076887D01*
X0214890Y0077885D02*
X0223233Y0077885D01*
X0222234Y0078884D02*
X0214890Y0078884D01*
X0214405Y0079882D02*
X0222187Y0079882D01*
X0222499Y0080881D02*
X0214405Y0080881D01*
X0214405Y0081879D02*
X0222671Y0081879D01*
X0222671Y0082878D02*
X0214405Y0082878D01*
X0214405Y0083876D02*
X0222671Y0083876D01*
X0222671Y0084875D02*
X0214405Y0084875D01*
X0214405Y0085873D02*
X0222671Y0085873D01*
X0222187Y0086872D02*
X0214405Y0086872D01*
X0214405Y0087870D02*
X0222187Y0087870D01*
X0222987Y0088869D02*
X0214827Y0088869D01*
X0212913Y0089750D02*
X0212913Y0078500D01*
X0211731Y0076887D02*
X0210345Y0076887D01*
X0209163Y0078500D02*
X0209163Y0089750D01*
X0207484Y0090866D02*
X0207092Y0090866D01*
X0205413Y0089750D02*
X0205413Y0078500D01*
X0204231Y0076887D02*
X0202845Y0076887D01*
X0201663Y0078500D02*
X0201663Y0089750D01*
X0199687Y0089868D02*
X0164201Y0089868D01*
X0164201Y0088869D02*
X0199749Y0088869D01*
X0200171Y0087870D02*
X0163676Y0087870D01*
X0162677Y0086872D02*
X0200171Y0086872D01*
X0200171Y0085873D02*
X0161679Y0085873D01*
X0160680Y0084875D02*
X0200171Y0084875D01*
X0200171Y0083876D02*
X0137515Y0083876D01*
X0137540Y0083883D02*
X0138058Y0084182D01*
X0138481Y0084605D01*
X0138780Y0085123D01*
X0138935Y0085701D01*
X0138935Y0086000D01*
X0138935Y0086299D01*
X0138780Y0086877D01*
X0138481Y0087395D01*
X0138058Y0087818D01*
X0137540Y0088117D01*
X0136962Y0088272D01*
X0136663Y0088272D01*
X0136364Y0088272D01*
X0135787Y0088117D01*
X0135269Y0087818D01*
X0134846Y0087395D01*
X0134547Y0086877D01*
X0134392Y0086299D01*
X0134392Y0086000D01*
X0134392Y0085701D01*
X0134547Y0085123D01*
X0134846Y0084605D01*
X0135269Y0084182D01*
X0135787Y0083883D01*
X0136364Y0083728D01*
X0136663Y0083728D01*
X0136663Y0086000D01*
X0134392Y0086000D01*
X0136663Y0086000D01*
X0136663Y0086000D01*
X0136663Y0088272D01*
X0136663Y0086000D01*
X0136663Y0086000D01*
X0136663Y0086000D01*
X0136663Y0083728D01*
X0136962Y0083728D01*
X0137540Y0083883D01*
X0136663Y0083876D02*
X0136663Y0083876D01*
X0135812Y0083876D02*
X0122515Y0083876D01*
X0122540Y0083883D02*
X0123058Y0084182D01*
X0123481Y0084605D01*
X0123780Y0085123D01*
X0123935Y0085701D01*
X0123935Y0086000D01*
X0123935Y0086299D01*
X0123780Y0086877D01*
X0123481Y0087395D01*
X0123058Y0087818D01*
X0122540Y0088117D01*
X0121962Y0088272D01*
X0121663Y0088272D01*
X0121364Y0088272D01*
X0120787Y0088117D01*
X0120269Y0087818D01*
X0119846Y0087395D01*
X0119547Y0086877D01*
X0119392Y0086299D01*
X0119392Y0086000D01*
X0119392Y0085701D01*
X0119547Y0085123D01*
X0119846Y0084605D01*
X0120269Y0084182D01*
X0120787Y0083883D01*
X0121364Y0083728D01*
X0121663Y0083728D01*
X0121663Y0086000D01*
X0119392Y0086000D01*
X0121663Y0086000D01*
X0121663Y0086000D01*
X0121663Y0088272D01*
X0121663Y0086000D01*
X0121663Y0086000D01*
X0121663Y0086000D01*
X0121663Y0083728D01*
X0121962Y0083728D01*
X0122540Y0083883D01*
X0121663Y0083876D02*
X0121663Y0083876D01*
X0120812Y0083876D02*
X0107515Y0083876D01*
X0107540Y0083883D02*
X0108058Y0084182D01*
X0108481Y0084605D01*
X0108780Y0085123D01*
X0108935Y0085701D01*
X0108935Y0086000D01*
X0108935Y0086299D01*
X0108780Y0086877D01*
X0108481Y0087395D01*
X0108058Y0087818D01*
X0107540Y0088117D01*
X0106962Y0088272D01*
X0106663Y0088272D01*
X0106364Y0088272D01*
X0105787Y0088117D01*
X0105269Y0087818D01*
X0104846Y0087395D01*
X0104547Y0086877D01*
X0104392Y0086299D01*
X0104392Y0086000D01*
X0104392Y0085701D01*
X0104547Y0085123D01*
X0104846Y0084605D01*
X0105269Y0084182D01*
X0105787Y0083883D01*
X0106364Y0083728D01*
X0106663Y0083728D01*
X0106663Y0086000D01*
X0104392Y0086000D01*
X0106663Y0086000D01*
X0106663Y0086000D01*
X0106663Y0088272D01*
X0106663Y0086000D01*
X0106663Y0086000D01*
X0106663Y0086000D01*
X0106663Y0083728D01*
X0106962Y0083728D01*
X0107540Y0083883D01*
X0106663Y0083876D02*
X0106663Y0083876D01*
X0105812Y0083876D02*
X0071265Y0083876D01*
X0071290Y0083883D02*
X0071808Y0084182D01*
X0072231Y0084605D01*
X0072530Y0085123D01*
X0072685Y0085701D01*
X0072685Y0086000D01*
X0072685Y0086299D01*
X0072530Y0086877D01*
X0072231Y0087395D01*
X0071808Y0087818D01*
X0071290Y0088117D01*
X0070712Y0088272D01*
X0070413Y0088272D01*
X0070114Y0088272D01*
X0069537Y0088117D01*
X0069019Y0087818D01*
X0068596Y0087395D01*
X0068297Y0086877D01*
X0068142Y0086299D01*
X0068142Y0086000D01*
X0068142Y0085701D01*
X0068297Y0085123D01*
X0068596Y0084605D01*
X0069019Y0084182D01*
X0069537Y0083883D01*
X0070114Y0083728D01*
X0070413Y0083728D01*
X0070413Y0086000D01*
X0068142Y0086000D01*
X0070413Y0086000D01*
X0070413Y0086000D01*
X0070413Y0088272D01*
X0070413Y0086000D01*
X0070413Y0086000D01*
X0070413Y0086000D01*
X0070413Y0083728D01*
X0070712Y0083728D01*
X0071290Y0083883D01*
X0070413Y0083876D02*
X0070413Y0083876D01*
X0069562Y0083876D02*
X0063549Y0083876D01*
X0063863Y0084190D02*
X0065155Y0087311D01*
X0065155Y0090689D01*
X0063863Y0093810D01*
X0061474Y0096199D01*
X0058353Y0097492D01*
X0054974Y0097492D01*
X0051853Y0096199D01*
X0049464Y0093810D01*
X0049010Y0092713D01*
X0041858Y0092713D01*
X0041858Y0094285D01*
X0041277Y0094866D01*
X0034550Y0094866D01*
X0033969Y0094285D01*
X0033969Y0087558D01*
X0034550Y0086976D01*
X0041277Y0086976D01*
X0041858Y0087558D01*
X0041858Y0089129D01*
X0048171Y0089129D01*
X0048171Y0087311D01*
X0049464Y0084190D01*
X0051853Y0081801D01*
X0054974Y0080508D01*
X0058353Y0080508D01*
X0061474Y0081801D01*
X0063863Y0084190D01*
X0064147Y0084875D02*
X0068440Y0084875D01*
X0068142Y0085873D02*
X0064560Y0085873D01*
X0064974Y0086872D02*
X0068295Y0086872D01*
X0069110Y0087870D02*
X0065155Y0087870D01*
X0065155Y0088869D02*
X0151626Y0088869D01*
X0151626Y0089868D02*
X0065155Y0089868D01*
X0065082Y0090866D02*
X0157413Y0090866D01*
X0157413Y0091500D02*
X0151626Y0091500D01*
X0151626Y0093604D01*
X0155309Y0097287D01*
X0157413Y0097287D01*
X0157413Y0091500D01*
X0157413Y0091865D02*
X0158413Y0091865D01*
X0158413Y0092863D02*
X0157413Y0092863D01*
X0157413Y0093862D02*
X0158413Y0093862D01*
X0158413Y0094860D02*
X0157413Y0094860D01*
X0157413Y0095859D02*
X0158413Y0095859D01*
X0158413Y0096857D02*
X0157413Y0096857D01*
X0154879Y0096857D02*
X0059886Y0096857D01*
X0061814Y0095859D02*
X0153880Y0095859D01*
X0152882Y0094860D02*
X0062813Y0094860D01*
X0063811Y0093862D02*
X0151883Y0093862D01*
X0151626Y0092863D02*
X0064255Y0092863D01*
X0064669Y0091865D02*
X0151626Y0091865D01*
X0152151Y0087870D02*
X0137967Y0087870D01*
X0138782Y0086872D02*
X0153150Y0086872D01*
X0154148Y0085873D02*
X0138935Y0085873D01*
X0138935Y0086000D02*
X0136664Y0086000D01*
X0138935Y0086000D01*
X0138637Y0084875D02*
X0155147Y0084875D01*
X0157413Y0084875D02*
X0158413Y0084875D01*
X0158413Y0085873D02*
X0157413Y0085873D01*
X0157413Y0086872D02*
X0158413Y0086872D01*
X0158413Y0087870D02*
X0157413Y0087870D01*
X0157413Y0088869D02*
X0158413Y0088869D01*
X0158413Y0089868D02*
X0157413Y0089868D01*
X0158413Y0090866D02*
X0199984Y0090866D01*
X0203342Y0090866D02*
X0203734Y0090866D01*
X0210842Y0090866D02*
X0211234Y0090866D01*
X0200171Y0082878D02*
X0062551Y0082878D01*
X0061552Y0081879D02*
X0200171Y0081879D01*
X0200171Y0080881D02*
X0059253Y0080881D01*
X0054074Y0080881D02*
X0041858Y0080881D01*
X0041858Y0080294D02*
X0041858Y0081863D01*
X0041258Y0083313D01*
X0040148Y0084423D01*
X0038698Y0085024D01*
X0037129Y0085024D01*
X0035679Y0084423D01*
X0034569Y0083313D01*
X0033969Y0081863D01*
X0033969Y0080294D01*
X0034569Y0078844D01*
X0035679Y0077734D01*
X0036121Y0077551D01*
X0036121Y0069508D01*
X0049421Y0056207D01*
X0048171Y0053189D01*
X0048171Y0049811D01*
X0049464Y0046690D01*
X0051853Y0044301D01*
X0054974Y0043008D01*
X0058353Y0043008D01*
X0061474Y0044301D01*
X0063863Y0046690D01*
X0065155Y0049811D01*
X0065155Y0053189D01*
X0063863Y0056310D01*
X0061474Y0058699D01*
X0058353Y0059992D01*
X0054974Y0059992D01*
X0051956Y0058742D01*
X0039705Y0070992D01*
X0039705Y0077551D01*
X0040148Y0077734D01*
X0041258Y0078844D01*
X0041858Y0080294D01*
X0041688Y0079882D02*
X0126088Y0079882D01*
X0126096Y0079895D02*
X0125797Y0079377D01*
X0125642Y0078799D01*
X0125642Y0078500D01*
X0125642Y0078201D01*
X0125797Y0077623D01*
X0126096Y0077105D01*
X0126519Y0076682D01*
X0127037Y0076383D01*
X0127614Y0076228D01*
X0127913Y0076228D01*
X0127913Y0078500D01*
X0125642Y0078500D01*
X0127913Y0078500D01*
X0127913Y0078500D01*
X0127913Y0080772D01*
X0127614Y0080772D01*
X0127037Y0080617D01*
X0126519Y0080318D01*
X0126096Y0079895D01*
X0125664Y0078884D02*
X0041274Y0078884D01*
X0040299Y0077885D02*
X0125726Y0077885D01*
X0126314Y0076887D02*
X0074448Y0076887D01*
X0077045Y0073891D02*
X0185305Y0073891D01*
X0184460Y0072893D02*
X0077045Y0072893D01*
X0077045Y0071894D02*
X0184047Y0071894D01*
X0183969Y0070896D02*
X0077045Y0070896D01*
X0077045Y0069897D02*
X0184068Y0069897D01*
X0184481Y0068899D02*
X0136560Y0068899D01*
X0136232Y0069226D02*
X0137390Y0068069D01*
X0137390Y0066431D01*
X0136232Y0065274D01*
X0135547Y0065274D01*
X0127281Y0057008D01*
X0118531Y0057008D01*
X0111031Y0049508D01*
X0110466Y0049508D01*
X0109982Y0049024D01*
X0108345Y0049024D01*
X0107187Y0050181D01*
X0107187Y0051819D01*
X0108345Y0052976D01*
X0109982Y0052976D01*
X0110131Y0052828D01*
X0116421Y0059118D01*
X0117295Y0059992D01*
X0126045Y0059992D01*
X0133437Y0067384D01*
X0133437Y0068069D01*
X0134595Y0069226D01*
X0136232Y0069226D01*
X0137390Y0067900D02*
X0185355Y0067900D01*
X0186286Y0064851D02*
X0185691Y0064548D01*
X0185151Y0064155D01*
X0184679Y0063684D01*
X0184287Y0063144D01*
X0183984Y0062549D01*
X0183778Y0061914D01*
X0183697Y0061406D01*
X0187429Y0061406D01*
X0187429Y0065138D01*
X0186920Y0065057D01*
X0186286Y0064851D01*
X0186452Y0064905D02*
X0135178Y0064905D01*
X0134180Y0063906D02*
X0184902Y0063906D01*
X0184167Y0062908D02*
X0133181Y0062908D01*
X0132183Y0061909D02*
X0183777Y0061909D01*
X0183697Y0060437D02*
X0183778Y0059928D01*
X0183984Y0059294D01*
X0184287Y0058699D01*
X0184679Y0058159D01*
X0185151Y0057687D01*
X0185691Y0057295D01*
X0186286Y0056992D01*
X0186920Y0056786D01*
X0187429Y0056705D01*
X0187429Y0060437D01*
X0183697Y0060437D01*
X0183783Y0059912D02*
X0130186Y0059912D01*
X0131184Y0060911D02*
X0187429Y0060911D01*
X0187429Y0060437D02*
X0187429Y0061406D01*
X0188398Y0061406D01*
X0188398Y0065138D01*
X0188906Y0065057D01*
X0189541Y0064851D01*
X0190136Y0064548D01*
X0190676Y0064155D01*
X0191148Y0063684D01*
X0191540Y0063144D01*
X0191843Y0062549D01*
X0192049Y0061914D01*
X0192130Y0061406D01*
X0188398Y0061406D01*
X0188398Y0060437D01*
X0192130Y0060437D01*
X0192049Y0059928D01*
X0191843Y0059294D01*
X0191540Y0058699D01*
X0191148Y0058159D01*
X0190676Y0057687D01*
X0190136Y0057295D01*
X0189541Y0056992D01*
X0188906Y0056786D01*
X0188398Y0056705D01*
X0188398Y0060437D01*
X0187429Y0060437D01*
X0187429Y0059912D02*
X0188398Y0059912D01*
X0188398Y0058914D02*
X0187429Y0058914D01*
X0187429Y0057915D02*
X0188398Y0057915D01*
X0188398Y0056917D02*
X0187429Y0056917D01*
X0186517Y0056917D02*
X0118440Y0056917D01*
X0117442Y0055918D02*
X0204421Y0055918D01*
X0204421Y0054920D02*
X0116443Y0054920D01*
X0115445Y0053921D02*
X0185334Y0053921D01*
X0185679Y0054266D02*
X0184569Y0053156D01*
X0183969Y0051706D01*
X0183969Y0050137D01*
X0184569Y0048687D01*
X0185679Y0047577D01*
X0187129Y0046976D01*
X0188698Y0046976D01*
X0190148Y0047577D01*
X0191258Y0048687D01*
X0191858Y0050137D01*
X0191858Y0051706D01*
X0191258Y0053156D01*
X0190148Y0054266D01*
X0188698Y0054866D01*
X0187129Y0054866D01*
X0185679Y0054266D01*
X0184472Y0052923D02*
X0114446Y0052923D01*
X0113448Y0051924D02*
X0184059Y0051924D01*
X0183969Y0050926D02*
X0112449Y0050926D01*
X0111451Y0049927D02*
X0184055Y0049927D01*
X0184469Y0048929D02*
X0090119Y0048929D01*
X0090040Y0048883D02*
X0090558Y0049182D01*
X0090981Y0049605D01*
X0091280Y0050123D01*
X0091435Y0050701D01*
X0091435Y0051000D01*
X0091435Y0051299D01*
X0091280Y0051877D01*
X0090981Y0052395D01*
X0090558Y0052818D01*
X0090040Y0053117D01*
X0089462Y0053272D01*
X0089163Y0053272D01*
X0088864Y0053272D01*
X0088287Y0053117D01*
X0087769Y0052818D01*
X0087346Y0052395D01*
X0087047Y0051877D01*
X0086892Y0051299D01*
X0086892Y0051000D01*
X0086892Y0050701D01*
X0087047Y0050123D01*
X0087346Y0049605D01*
X0087769Y0049182D01*
X0088287Y0048883D01*
X0088864Y0048728D01*
X0089163Y0048728D01*
X0089163Y0051000D01*
X0086892Y0051000D01*
X0089163Y0051000D01*
X0089163Y0051000D01*
X0089163Y0053272D01*
X0089163Y0051000D01*
X0089163Y0051000D01*
X0089163Y0051000D01*
X0089163Y0048728D01*
X0089462Y0048728D01*
X0090040Y0048883D01*
X0089163Y0048929D02*
X0089163Y0048929D01*
X0088208Y0048929D02*
X0082951Y0048929D01*
X0082951Y0049927D02*
X0087160Y0049927D01*
X0086892Y0050926D02*
X0082951Y0050926D01*
X0082951Y0051924D02*
X0087074Y0051924D01*
X0087950Y0052923D02*
X0082951Y0052923D01*
X0082951Y0053921D02*
X0111224Y0053921D01*
X0110226Y0052923D02*
X0110036Y0052923D01*
X0108291Y0052923D02*
X0090377Y0052923D01*
X0089163Y0052923D02*
X0089163Y0052923D01*
X0089163Y0051924D02*
X0089163Y0051924D01*
X0089164Y0051000D02*
X0091435Y0051000D01*
X0089164Y0051000D01*
X0089164Y0051000D01*
X0089163Y0050926D02*
X0089163Y0050926D01*
X0089163Y0049927D02*
X0089163Y0049927D01*
X0091167Y0049927D02*
X0107441Y0049927D01*
X0107187Y0050926D02*
X0091435Y0050926D01*
X0091253Y0051924D02*
X0107292Y0051924D01*
X0109163Y0051000D02*
X0110413Y0051000D01*
X0117913Y0058500D01*
X0126663Y0058500D01*
X0135413Y0067250D01*
X0136862Y0065903D02*
X0204421Y0065903D01*
X0204421Y0064905D02*
X0189375Y0064905D01*
X0188398Y0064905D02*
X0187429Y0064905D01*
X0187429Y0063906D02*
X0188398Y0063906D01*
X0188398Y0062908D02*
X0187429Y0062908D01*
X0187429Y0061909D02*
X0188398Y0061909D01*
X0188398Y0060911D02*
X0204421Y0060911D01*
X0204421Y0061909D02*
X0192050Y0061909D01*
X0191660Y0062908D02*
X0204421Y0062908D01*
X0204421Y0063906D02*
X0190925Y0063906D01*
X0192044Y0059912D02*
X0204421Y0059912D01*
X0204421Y0058914D02*
X0191649Y0058914D01*
X0190904Y0057915D02*
X0204421Y0057915D01*
X0204421Y0056917D02*
X0189310Y0056917D01*
X0190492Y0053921D02*
X0204421Y0053921D01*
X0204421Y0052923D02*
X0191354Y0052923D01*
X0191768Y0051924D02*
X0204421Y0051924D01*
X0204421Y0050926D02*
X0191858Y0050926D01*
X0191771Y0049927D02*
X0204421Y0049927D01*
X0204421Y0048929D02*
X0191358Y0048929D01*
X0190501Y0047930D02*
X0204421Y0047930D01*
X0204421Y0046932D02*
X0082951Y0046932D01*
X0082951Y0047930D02*
X0185326Y0047930D01*
X0185349Y0043936D02*
X0113190Y0043936D01*
X0113058Y0044068D02*
X0112540Y0044367D01*
X0111962Y0044522D01*
X0111663Y0044522D01*
X0111364Y0044522D01*
X0110787Y0044367D01*
X0110269Y0044068D01*
X0109846Y0043645D01*
X0109547Y0043127D01*
X0109392Y0042549D01*
X0109392Y0042250D01*
X0109392Y0041951D01*
X0109547Y0041373D01*
X0109846Y0040855D01*
X0110269Y0040432D01*
X0110787Y0040133D01*
X0111364Y0039978D01*
X0111663Y0039978D01*
X0111663Y0042250D01*
X0109392Y0042250D01*
X0111663Y0042250D01*
X0111663Y0042250D01*
X0111663Y0044522D01*
X0111663Y0042250D01*
X0111663Y0042250D01*
X0111663Y0042250D01*
X0111663Y0039978D01*
X0111962Y0039978D01*
X0112540Y0040133D01*
X0113058Y0040432D01*
X0113481Y0040855D01*
X0113780Y0041373D01*
X0113935Y0041951D01*
X0113935Y0042250D01*
X0113935Y0042549D01*
X0113780Y0043127D01*
X0113481Y0043645D01*
X0113058Y0044068D01*
X0113831Y0042937D02*
X0184479Y0042937D01*
X0184065Y0041939D02*
X0113932Y0041939D01*
X0113935Y0042250D02*
X0111664Y0042250D01*
X0113935Y0042250D01*
X0113530Y0040940D02*
X0183969Y0040940D01*
X0184049Y0039942D02*
X0081667Y0039942D01*
X0081240Y0039516D02*
X0082350Y0040626D01*
X0082951Y0042076D01*
X0082951Y0057424D01*
X0082350Y0058874D01*
X0081240Y0059984D01*
X0079791Y0060585D01*
X0072316Y0060585D01*
X0070866Y0059984D01*
X0069756Y0058874D01*
X0069156Y0057424D01*
X0069156Y0042076D01*
X0069756Y0040626D01*
X0070866Y0039516D01*
X0072316Y0038915D01*
X0079791Y0038915D01*
X0081240Y0039516D01*
X0079858Y0038943D02*
X0184463Y0038943D01*
X0190478Y0043936D02*
X0204471Y0043936D01*
X0204421Y0044934D02*
X0082951Y0044934D01*
X0082951Y0043936D02*
X0110137Y0043936D01*
X0109496Y0042937D02*
X0082951Y0042937D01*
X0082894Y0041939D02*
X0109395Y0041939D01*
X0109796Y0040940D02*
X0082481Y0040940D01*
X0082951Y0045933D02*
X0204421Y0045933D01*
X0204884Y0042937D02*
X0191348Y0042937D01*
X0191762Y0041939D02*
X0205786Y0041939D01*
X0206784Y0040940D02*
X0191858Y0040940D01*
X0191778Y0039942D02*
X0208099Y0039942D01*
X0211405Y0046932D02*
X0257259Y0046932D01*
X0257246Y0047833D02*
X0258581Y0047833D01*
X0259813Y0048343D01*
X0260757Y0049287D01*
X0261268Y0050520D01*
X0261268Y0051854D01*
X0260757Y0053087D01*
X0259813Y0054031D01*
X0258581Y0054541D01*
X0257246Y0054541D01*
X0256013Y0054031D01*
X0255070Y0053087D01*
X0254559Y0051854D01*
X0254559Y0050520D01*
X0255070Y0049287D01*
X0256013Y0048343D01*
X0257246Y0047833D01*
X0257011Y0047930D02*
X0224267Y0047930D01*
X0224813Y0048156D02*
X0225757Y0049100D01*
X0226268Y0050333D01*
X0226268Y0051667D01*
X0225757Y0052900D01*
X0224813Y0053844D01*
X0223581Y0054354D01*
X0222246Y0054354D01*
X0221013Y0053844D01*
X0220070Y0052900D01*
X0219559Y0051667D01*
X0219559Y0050333D01*
X0220070Y0049100D01*
X0221013Y0048156D01*
X0222246Y0047646D01*
X0223581Y0047646D01*
X0224813Y0048156D01*
X0225586Y0048929D02*
X0255428Y0048929D01*
X0254805Y0049927D02*
X0226100Y0049927D01*
X0226268Y0050926D02*
X0254559Y0050926D01*
X0254588Y0051924D02*
X0226161Y0051924D01*
X0225735Y0052923D02*
X0255002Y0052923D01*
X0255904Y0053921D02*
X0224626Y0053921D01*
X0223581Y0055520D02*
X0224813Y0056030D01*
X0225757Y0056974D01*
X0226268Y0058207D01*
X0226268Y0059541D01*
X0225757Y0060774D01*
X0224813Y0061718D01*
X0223581Y0062228D01*
X0222246Y0062228D01*
X0221013Y0061718D01*
X0220070Y0060774D01*
X0219559Y0059541D01*
X0219559Y0058207D01*
X0220070Y0056974D01*
X0221013Y0056030D01*
X0222246Y0055520D01*
X0223581Y0055520D01*
X0224543Y0055918D02*
X0256736Y0055918D01*
X0257246Y0055707D02*
X0256013Y0056217D01*
X0255070Y0057161D01*
X0254559Y0058394D01*
X0254559Y0059728D01*
X0255070Y0060961D01*
X0256013Y0061905D01*
X0257246Y0062415D01*
X0258581Y0062415D01*
X0259813Y0061905D01*
X0260757Y0060961D01*
X0261268Y0059728D01*
X0261268Y0058394D01*
X0260757Y0057161D01*
X0259813Y0056217D01*
X0258581Y0055707D01*
X0257246Y0055707D01*
X0259091Y0055918D02*
X0270805Y0055918D01*
X0270807Y0054920D02*
X0211405Y0054920D01*
X0211405Y0055918D02*
X0221284Y0055918D01*
X0220127Y0056917D02*
X0211405Y0056917D01*
X0211405Y0057915D02*
X0219680Y0057915D01*
X0219559Y0058914D02*
X0211405Y0058914D01*
X0211405Y0059912D02*
X0219713Y0059912D01*
X0220206Y0060911D02*
X0211405Y0060911D01*
X0211405Y0061909D02*
X0221476Y0061909D01*
X0224351Y0061909D02*
X0256024Y0061909D01*
X0255049Y0060911D02*
X0225620Y0060911D01*
X0226114Y0059912D02*
X0254635Y0059912D01*
X0254559Y0058914D02*
X0226268Y0058914D01*
X0226147Y0057915D02*
X0254757Y0057915D01*
X0255314Y0056917D02*
X0225700Y0056917D01*
X0221200Y0053921D02*
X0211405Y0053921D01*
X0211405Y0052923D02*
X0220092Y0052923D01*
X0219665Y0051924D02*
X0211405Y0051924D01*
X0211405Y0050926D02*
X0219559Y0050926D01*
X0219727Y0049927D02*
X0211405Y0049927D01*
X0211405Y0048929D02*
X0220241Y0048929D01*
X0221560Y0047930D02*
X0211405Y0047930D01*
X0184923Y0057915D02*
X0128189Y0057915D01*
X0129187Y0058914D02*
X0184177Y0058914D01*
X0204421Y0066902D02*
X0137390Y0066902D01*
X0134267Y0068899D02*
X0077045Y0068899D01*
X0077045Y0067900D02*
X0133437Y0067900D01*
X0132955Y0066902D02*
X0077045Y0066902D01*
X0076804Y0065903D02*
X0131956Y0065903D01*
X0130958Y0064905D02*
X0119721Y0064905D01*
X0119731Y0064895D02*
X0119308Y0065318D01*
X0118790Y0065617D01*
X0118212Y0065772D01*
X0117913Y0065772D01*
X0117614Y0065772D01*
X0117037Y0065617D01*
X0116519Y0065318D01*
X0116096Y0064895D01*
X0115797Y0064377D01*
X0115642Y0063799D01*
X0115642Y0063500D01*
X0115642Y0063201D01*
X0115797Y0062623D01*
X0116096Y0062105D01*
X0116519Y0061682D01*
X0117037Y0061383D01*
X0117614Y0061228D01*
X0117913Y0061228D01*
X0117913Y0063500D01*
X0115642Y0063500D01*
X0117913Y0063500D01*
X0117913Y0063500D01*
X0117913Y0065772D01*
X0117913Y0063500D01*
X0117913Y0063500D01*
X0117913Y0063500D01*
X0117913Y0061228D01*
X0118212Y0061228D01*
X0118790Y0061383D01*
X0119308Y0061682D01*
X0119731Y0062105D01*
X0120030Y0062623D01*
X0120185Y0063201D01*
X0120185Y0063500D01*
X0120185Y0063799D01*
X0120030Y0064377D01*
X0119731Y0064895D01*
X0120156Y0063906D02*
X0129959Y0063906D01*
X0128961Y0062908D02*
X0120106Y0062908D01*
X0120185Y0063500D02*
X0117914Y0063500D01*
X0120185Y0063500D01*
X0119535Y0061909D02*
X0127962Y0061909D01*
X0126964Y0060911D02*
X0049787Y0060911D01*
X0048789Y0061909D02*
X0096292Y0061909D01*
X0096096Y0062105D02*
X0096519Y0061682D01*
X0097037Y0061383D01*
X0097614Y0061228D01*
X0097913Y0061228D01*
X0097913Y0063500D01*
X0095642Y0063500D01*
X0095642Y0063201D01*
X0095797Y0062623D01*
X0096096Y0062105D01*
X0095720Y0062908D02*
X0047790Y0062908D01*
X0046792Y0063906D02*
X0057133Y0063906D01*
X0056107Y0064905D02*
X0045793Y0064905D01*
X0044795Y0065903D02*
X0055617Y0065903D01*
X0055376Y0066902D02*
X0043796Y0066902D01*
X0042798Y0067900D02*
X0055376Y0067900D01*
X0055376Y0068899D02*
X0041799Y0068899D01*
X0040801Y0069897D02*
X0055376Y0069897D01*
X0055376Y0070896D02*
X0039802Y0070896D01*
X0039705Y0071894D02*
X0055376Y0071894D01*
X0055376Y0072893D02*
X0039705Y0072893D01*
X0039705Y0073891D02*
X0055376Y0073891D01*
X0055761Y0074890D02*
X0039705Y0074890D01*
X0039705Y0075888D02*
X0056455Y0075888D01*
X0057973Y0076887D02*
X0039705Y0076887D01*
X0036121Y0076887D02*
X0015382Y0076887D01*
X0015382Y0077885D02*
X0035528Y0077885D01*
X0034553Y0078884D02*
X0015382Y0078884D01*
X0015382Y0079882D02*
X0034139Y0079882D01*
X0033969Y0080881D02*
X0015382Y0080881D01*
X0015382Y0081879D02*
X0033975Y0081879D01*
X0034389Y0082878D02*
X0015382Y0082878D01*
X0015382Y0083876D02*
X0035132Y0083876D01*
X0036770Y0084875D02*
X0015382Y0084875D01*
X0015382Y0085873D02*
X0048767Y0085873D01*
X0049180Y0084875D02*
X0039057Y0084875D01*
X0040695Y0083876D02*
X0049777Y0083876D01*
X0050776Y0082878D02*
X0041438Y0082878D01*
X0041852Y0081879D02*
X0051774Y0081879D01*
X0048353Y0086872D02*
X0015382Y0086872D01*
X0015382Y0087870D02*
X0033969Y0087870D01*
X0033969Y0088869D02*
X0015382Y0088869D01*
X0015382Y0089868D02*
X0033969Y0089868D01*
X0033969Y0090866D02*
X0015382Y0090866D01*
X0015382Y0091865D02*
X0033969Y0091865D01*
X0033969Y0092863D02*
X0015382Y0092863D01*
X0015382Y0093862D02*
X0033969Y0093862D01*
X0034544Y0094860D02*
X0015382Y0094860D01*
X0015382Y0095859D02*
X0051512Y0095859D01*
X0050514Y0094860D02*
X0041283Y0094860D01*
X0041858Y0093862D02*
X0049515Y0093862D01*
X0049072Y0092863D02*
X0041858Y0092863D01*
X0041858Y0088869D02*
X0048171Y0088869D01*
X0048171Y0087870D02*
X0041858Y0087870D01*
X0053441Y0096857D02*
X0015382Y0096857D01*
X0015382Y0075888D02*
X0036121Y0075888D01*
X0036121Y0074890D02*
X0015382Y0074890D01*
X0015382Y0073891D02*
X0036121Y0073891D01*
X0036121Y0072893D02*
X0015382Y0072893D01*
X0015382Y0071894D02*
X0036121Y0071894D01*
X0036121Y0070896D02*
X0015382Y0070896D01*
X0015382Y0069897D02*
X0036121Y0069897D01*
X0036730Y0068899D02*
X0015382Y0068899D01*
X0015382Y0067900D02*
X0037729Y0067900D01*
X0038727Y0066902D02*
X0015382Y0066902D01*
X0015382Y0065903D02*
X0039726Y0065903D01*
X0040724Y0064905D02*
X0015382Y0064905D01*
X0015382Y0063906D02*
X0041723Y0063906D01*
X0042721Y0062908D02*
X0015382Y0062908D01*
X0015382Y0061909D02*
X0043720Y0061909D01*
X0044718Y0060911D02*
X0015382Y0060911D01*
X0015382Y0059912D02*
X0016857Y0059912D01*
X0015858Y0058914D02*
X0015382Y0058914D01*
X0015382Y0057915D02*
X0015422Y0057915D01*
X0027375Y0059912D02*
X0045717Y0059912D01*
X0046715Y0058914D02*
X0028374Y0058914D01*
X0028811Y0057915D02*
X0047714Y0057915D01*
X0048712Y0056917D02*
X0029014Y0056917D01*
X0029014Y0055918D02*
X0049302Y0055918D01*
X0048888Y0054920D02*
X0029014Y0054920D01*
X0029014Y0053921D02*
X0048474Y0053921D01*
X0048171Y0052923D02*
X0029014Y0052923D01*
X0029014Y0051924D02*
X0048171Y0051924D01*
X0048171Y0050926D02*
X0029014Y0050926D01*
X0029014Y0049927D02*
X0048171Y0049927D01*
X0048537Y0048929D02*
X0029014Y0048929D01*
X0029014Y0047930D02*
X0048950Y0047930D01*
X0049364Y0046932D02*
X0029014Y0046932D01*
X0029014Y0045933D02*
X0050221Y0045933D01*
X0051219Y0044934D02*
X0029014Y0044934D01*
X0029014Y0043936D02*
X0052734Y0043936D01*
X0060593Y0043936D02*
X0069156Y0043936D01*
X0069156Y0044934D02*
X0062108Y0044934D01*
X0063106Y0045933D02*
X0069156Y0045933D01*
X0069156Y0046932D02*
X0063963Y0046932D01*
X0064376Y0047930D02*
X0069156Y0047930D01*
X0069156Y0048929D02*
X0064790Y0048929D01*
X0065155Y0049927D02*
X0069156Y0049927D01*
X0069156Y0050926D02*
X0065155Y0050926D01*
X0065155Y0051924D02*
X0069156Y0051924D01*
X0069156Y0052923D02*
X0065155Y0052923D01*
X0064852Y0053921D02*
X0069156Y0053921D01*
X0069156Y0054920D02*
X0064439Y0054920D01*
X0064025Y0055918D02*
X0069156Y0055918D01*
X0069156Y0056917D02*
X0063256Y0056917D01*
X0062258Y0057915D02*
X0069359Y0057915D01*
X0069795Y0058914D02*
X0060956Y0058914D01*
X0058546Y0059912D02*
X0070794Y0059912D01*
X0075289Y0063906D02*
X0095670Y0063906D01*
X0095642Y0063799D02*
X0095642Y0063500D01*
X0097913Y0063500D01*
X0097913Y0063500D01*
X0097913Y0065772D01*
X0097614Y0065772D01*
X0097037Y0065617D01*
X0096519Y0065318D01*
X0096096Y0064895D01*
X0095797Y0064377D01*
X0095642Y0063799D01*
X0096106Y0064905D02*
X0076314Y0064905D01*
X0081312Y0059912D02*
X0117215Y0059912D01*
X0116217Y0058914D02*
X0082311Y0058914D01*
X0082748Y0057915D02*
X0115218Y0057915D01*
X0114220Y0056917D02*
X0082951Y0056917D01*
X0082951Y0055918D02*
X0113221Y0055918D01*
X0112223Y0054920D02*
X0082951Y0054920D01*
X0097913Y0061228D02*
X0098212Y0061228D01*
X0098790Y0061383D01*
X0099308Y0061682D01*
X0099731Y0062105D01*
X0100030Y0062623D01*
X0100185Y0063201D01*
X0100185Y0063500D01*
X0100185Y0063799D01*
X0100030Y0064377D01*
X0099731Y0064895D01*
X0099308Y0065318D01*
X0098790Y0065617D01*
X0098212Y0065772D01*
X0097913Y0065772D01*
X0097913Y0063500D01*
X0097913Y0063500D01*
X0097913Y0063500D01*
X0097913Y0061228D01*
X0097913Y0061909D02*
X0097913Y0061909D01*
X0097913Y0062908D02*
X0097913Y0062908D01*
X0097914Y0063500D02*
X0097914Y0063500D01*
X0100185Y0063500D01*
X0097914Y0063500D01*
X0097913Y0063906D02*
X0097913Y0063906D01*
X0097913Y0064905D02*
X0097913Y0064905D01*
X0099721Y0064905D02*
X0116106Y0064905D01*
X0115670Y0063906D02*
X0100156Y0063906D01*
X0100106Y0062908D02*
X0115720Y0062908D01*
X0116292Y0061909D02*
X0099535Y0061909D01*
X0117913Y0061909D02*
X0117913Y0061909D01*
X0117913Y0062908D02*
X0117913Y0062908D01*
X0117914Y0063500D02*
X0117914Y0063500D01*
X0117913Y0063906D02*
X0117913Y0063906D01*
X0117913Y0064905D02*
X0117913Y0064905D01*
X0127913Y0076228D02*
X0128212Y0076228D01*
X0128790Y0076383D01*
X0129308Y0076682D01*
X0129731Y0077105D01*
X0130030Y0077623D01*
X0130185Y0078201D01*
X0130185Y0078500D01*
X0130185Y0078799D01*
X0130030Y0079377D01*
X0129731Y0079895D01*
X0129308Y0080318D01*
X0128790Y0080617D01*
X0128212Y0080772D01*
X0127913Y0080772D01*
X0127913Y0078500D01*
X0127913Y0078500D01*
X0127913Y0078500D01*
X0127913Y0076228D01*
X0127913Y0076887D02*
X0127913Y0076887D01*
X0127913Y0077885D02*
X0127913Y0077885D01*
X0127914Y0078500D02*
X0127914Y0078500D01*
X0130185Y0078500D01*
X0127914Y0078500D01*
X0127913Y0078884D02*
X0127913Y0078884D01*
X0127913Y0079882D02*
X0127913Y0079882D01*
X0129738Y0079882D02*
X0200171Y0079882D01*
X0199687Y0078884D02*
X0130162Y0078884D01*
X0130100Y0077885D02*
X0199687Y0077885D01*
X0200481Y0076887D02*
X0129513Y0076887D01*
X0134690Y0084875D02*
X0123637Y0084875D01*
X0123935Y0085873D02*
X0134392Y0085873D01*
X0134545Y0086872D02*
X0123782Y0086872D01*
X0123935Y0086000D02*
X0121664Y0086000D01*
X0121664Y0086000D01*
X0123935Y0086000D01*
X0122967Y0087870D02*
X0135360Y0087870D01*
X0136663Y0087870D02*
X0136663Y0087870D01*
X0136663Y0086872D02*
X0136663Y0086872D01*
X0136664Y0086000D02*
X0136664Y0086000D01*
X0136663Y0085873D02*
X0136663Y0085873D01*
X0136663Y0084875D02*
X0136663Y0084875D01*
X0121663Y0084875D02*
X0121663Y0084875D01*
X0121663Y0085873D02*
X0121663Y0085873D01*
X0121663Y0086872D02*
X0121663Y0086872D01*
X0121663Y0087870D02*
X0121663Y0087870D01*
X0120360Y0087870D02*
X0107967Y0087870D01*
X0108782Y0086872D02*
X0119545Y0086872D01*
X0119392Y0085873D02*
X0108935Y0085873D01*
X0108935Y0086000D02*
X0106664Y0086000D01*
X0108935Y0086000D01*
X0108637Y0084875D02*
X0119690Y0084875D01*
X0106663Y0084875D02*
X0106663Y0084875D01*
X0106663Y0085873D02*
X0106663Y0085873D01*
X0106664Y0086000D02*
X0106664Y0086000D01*
X0106663Y0086872D02*
X0106663Y0086872D01*
X0106663Y0087870D02*
X0106663Y0087870D01*
X0105360Y0087870D02*
X0071717Y0087870D01*
X0072532Y0086872D02*
X0104545Y0086872D01*
X0104392Y0085873D02*
X0072685Y0085873D01*
X0072685Y0086000D02*
X0070414Y0086000D01*
X0072685Y0086000D01*
X0072387Y0084875D02*
X0104690Y0084875D01*
X0070413Y0084875D02*
X0070413Y0084875D01*
X0070413Y0085873D02*
X0070413Y0085873D01*
X0070414Y0086000D02*
X0070414Y0086000D01*
X0070413Y0086872D02*
X0070413Y0086872D01*
X0070413Y0087870D02*
X0070413Y0087870D01*
X0059163Y0106842D02*
X0059163Y0106842D01*
X0059163Y0107841D02*
X0059163Y0107841D01*
X0059163Y0108839D02*
X0059163Y0108839D01*
X0059163Y0109838D02*
X0059163Y0109838D01*
X0070413Y0129808D02*
X0070413Y0129808D01*
X0070413Y0130806D02*
X0070413Y0130806D01*
X0070414Y0131000D02*
X0070414Y0131000D01*
X0072685Y0131000D01*
X0070414Y0131000D01*
X0070413Y0131805D02*
X0070413Y0131805D01*
X0070413Y0132803D02*
X0070413Y0132803D01*
X0069004Y0132803D02*
X0026563Y0132803D01*
X0026318Y0131805D02*
X0068277Y0131805D01*
X0071822Y0132803D02*
X0096922Y0132803D01*
X0095937Y0131805D02*
X0072549Y0131805D01*
X0072685Y0130806D02*
X0095937Y0130806D01*
X0096310Y0129808D02*
X0072348Y0129808D01*
X0097913Y0131000D02*
X0097913Y0118500D01*
X0162230Y0106842D02*
X0239586Y0106842D01*
X0240504Y0107841D02*
X0163091Y0107841D01*
X0163504Y0108839D02*
X0241733Y0108839D01*
X0243552Y0109838D02*
X0163905Y0109838D01*
X0163905Y0110836D02*
X0270697Y0110836D01*
X0270699Y0109838D02*
X0251408Y0109838D01*
X0253228Y0108839D02*
X0270701Y0108839D01*
X0270703Y0107841D02*
X0269411Y0107841D01*
X0268053Y0107841D02*
X0267774Y0107841D01*
X0267774Y0106842D02*
X0268053Y0106842D01*
X0268053Y0105844D02*
X0267774Y0105844D01*
X0267774Y0104845D02*
X0268053Y0104845D01*
X0268053Y0103847D02*
X0267774Y0103847D01*
X0267774Y0102848D02*
X0268053Y0102848D01*
X0268053Y0101850D02*
X0267774Y0101850D01*
X0267774Y0100860D02*
X0268053Y0100860D01*
X0268053Y0097744D01*
X0268053Y0096140D01*
X0267774Y0096140D01*
X0267774Y0100860D01*
X0267774Y0100851D02*
X0268053Y0100851D01*
X0268053Y0099853D02*
X0267774Y0099853D01*
X0267774Y0098854D02*
X0268053Y0098854D01*
X0268053Y0097856D02*
X0267774Y0097856D01*
X0267774Y0096857D02*
X0268053Y0096857D01*
X0268053Y0095859D02*
X0267774Y0095859D01*
X0267774Y0094860D02*
X0268053Y0094860D01*
X0268053Y0093862D02*
X0267774Y0093862D01*
X0267774Y0092863D02*
X0268053Y0092863D01*
X0268053Y0091865D02*
X0267774Y0091865D01*
X0267774Y0090866D02*
X0268053Y0090866D01*
X0268053Y0089868D02*
X0267774Y0089868D01*
X0267774Y0088869D02*
X0268053Y0088869D01*
X0268545Y0088869D02*
X0270740Y0088869D01*
X0270742Y0087870D02*
X0235655Y0087870D01*
X0235655Y0086872D02*
X0270744Y0086872D01*
X0270746Y0085873D02*
X0235655Y0085873D01*
X0235655Y0084875D02*
X0270748Y0084875D01*
X0270750Y0083876D02*
X0235655Y0083876D01*
X0235655Y0082878D02*
X0270752Y0082878D01*
X0270754Y0081879D02*
X0235655Y0081879D01*
X0235655Y0080881D02*
X0270756Y0080881D01*
X0270758Y0079882D02*
X0235655Y0079882D01*
X0236575Y0078884D02*
X0270760Y0078884D01*
X0270762Y0077885D02*
X0237390Y0077885D01*
X0237390Y0076887D02*
X0270764Y0076887D01*
X0270766Y0075888D02*
X0236847Y0075888D01*
X0235413Y0077250D02*
X0234163Y0078500D01*
X0234163Y0092250D01*
X0235655Y0089868D02*
X0260922Y0089868D01*
X0260205Y0090866D02*
X0250756Y0090866D01*
X0252857Y0091865D02*
X0259953Y0091865D01*
X0259953Y0092863D02*
X0254216Y0092863D01*
X0255188Y0093862D02*
X0259953Y0093862D01*
X0259953Y0094860D02*
X0255939Y0094860D01*
X0256521Y0095859D02*
X0259953Y0095859D01*
X0260064Y0096857D02*
X0256965Y0096857D01*
X0257291Y0097856D02*
X0260582Y0097856D01*
X0260872Y0098854D02*
X0257508Y0098854D01*
X0257621Y0099853D02*
X0260184Y0099853D01*
X0259953Y0100851D02*
X0247980Y0100851D01*
X0247980Y0101850D02*
X0246980Y0101850D01*
X0246980Y0102848D02*
X0247980Y0102848D01*
X0247980Y0103847D02*
X0246980Y0103847D01*
X0246980Y0104845D02*
X0247980Y0104845D01*
X0247980Y0105844D02*
X0246980Y0105844D01*
X0246980Y0106842D02*
X0247980Y0106842D01*
X0247980Y0107841D02*
X0246980Y0107841D01*
X0246980Y0108839D02*
X0247980Y0108839D01*
X0247980Y0109838D02*
X0246980Y0109838D01*
X0254456Y0107841D02*
X0262187Y0107841D01*
X0263640Y0107841D02*
X0266415Y0107841D01*
X0265271Y0106842D02*
X0265195Y0106842D01*
X0270556Y0106842D02*
X0270632Y0106842D01*
X0272913Y0106842D02*
X0273053Y0106842D01*
X0273053Y0105844D02*
X0272913Y0105844D01*
X0272913Y0104845D02*
X0273053Y0104845D01*
X0273053Y0103847D02*
X0272913Y0103847D01*
X0272913Y0102848D02*
X0273053Y0102848D01*
X0273053Y0101850D02*
X0272913Y0101850D01*
X0272913Y0100860D02*
X0273053Y0100860D01*
X0273053Y0097744D01*
X0273053Y0096140D01*
X0272913Y0096140D01*
X0272913Y0100860D01*
X0272913Y0100851D02*
X0273053Y0100851D01*
X0273053Y0099853D02*
X0272913Y0099853D01*
X0272913Y0098854D02*
X0273053Y0098854D01*
X0273053Y0097856D02*
X0272913Y0097856D01*
X0272913Y0096857D02*
X0273053Y0096857D01*
X0273053Y0095859D02*
X0272913Y0095859D01*
X0272913Y0094860D02*
X0273053Y0094860D01*
X0273053Y0093862D02*
X0272913Y0093862D01*
X0272913Y0092863D02*
X0273053Y0092863D01*
X0273053Y0091865D02*
X0272913Y0091865D01*
X0272913Y0090866D02*
X0273053Y0090866D01*
X0273053Y0089868D02*
X0272913Y0089868D01*
X0272913Y0088869D02*
X0273053Y0088869D01*
X0273545Y0088869D02*
X0315270Y0088869D01*
X0314856Y0089868D02*
X0284905Y0089868D01*
X0285622Y0090866D02*
X0314854Y0090866D01*
X0313378Y0091865D02*
X0285874Y0091865D01*
X0285874Y0092863D02*
X0312021Y0092863D01*
X0311023Y0093862D02*
X0285874Y0093862D01*
X0285874Y0094860D02*
X0310024Y0094860D01*
X0309594Y0095859D02*
X0285874Y0095859D01*
X0285763Y0096857D02*
X0309180Y0096857D01*
X0308767Y0097856D02*
X0285245Y0097856D01*
X0284954Y0098854D02*
X0308496Y0098854D01*
X0308496Y0099853D02*
X0285643Y0099853D01*
X0285874Y0100851D02*
X0308496Y0100851D01*
X0308496Y0101850D02*
X0285874Y0101850D01*
X0285874Y0102848D02*
X0308670Y0102848D01*
X0309084Y0103847D02*
X0285874Y0103847D01*
X0285874Y0104845D02*
X0309497Y0104845D01*
X0309911Y0105844D02*
X0285742Y0105844D01*
X0285195Y0106842D02*
X0310790Y0106842D01*
X0311788Y0107841D02*
X0283640Y0107841D01*
X0282187Y0107841D02*
X0278640Y0107841D01*
X0277187Y0107841D02*
X0274411Y0107841D01*
X0273053Y0107841D02*
X0272913Y0107841D01*
X0272913Y0108839D02*
X0312815Y0108839D01*
X0315225Y0109838D02*
X0272913Y0109838D01*
X0272913Y0110836D02*
X0343622Y0110836D01*
X0343622Y0111835D02*
X0296543Y0111835D01*
X0297390Y0112833D02*
X0343622Y0112833D01*
X0316104Y0087870D02*
X0272913Y0087870D01*
X0272913Y0086872D02*
X0317103Y0086872D01*
X0318101Y0085873D02*
X0272913Y0085873D01*
X0272913Y0084875D02*
X0307334Y0084875D01*
X0307346Y0084895D02*
X0307047Y0084377D01*
X0306892Y0083799D01*
X0306892Y0083500D01*
X0306892Y0083201D01*
X0307047Y0082623D01*
X0307346Y0082105D01*
X0307769Y0081682D01*
X0308287Y0081383D01*
X0308864Y0081228D01*
X0309163Y0081228D01*
X0309163Y0083500D01*
X0306892Y0083500D01*
X0309163Y0083500D01*
X0309163Y0083500D01*
X0309163Y0085772D01*
X0308864Y0085772D01*
X0308287Y0085617D01*
X0307769Y0085318D01*
X0307346Y0084895D01*
X0306912Y0083876D02*
X0272913Y0083876D01*
X0272913Y0082878D02*
X0306978Y0082878D01*
X0307571Y0081879D02*
X0272913Y0081879D01*
X0272913Y0080881D02*
X0320671Y0080881D01*
X0320671Y0081879D02*
X0310755Y0081879D01*
X0310558Y0081682D02*
X0310981Y0082105D01*
X0311280Y0082623D01*
X0311435Y0083201D01*
X0311435Y0083500D01*
X0311435Y0083799D01*
X0311280Y0084377D01*
X0310981Y0084895D01*
X0310558Y0085318D01*
X0310040Y0085617D01*
X0309462Y0085772D01*
X0309163Y0085772D01*
X0309163Y0083500D01*
X0309163Y0083500D01*
X0309163Y0083500D01*
X0309163Y0081228D01*
X0309462Y0081228D01*
X0310040Y0081383D01*
X0310558Y0081682D01*
X0309163Y0081879D02*
X0309163Y0081879D01*
X0309163Y0082878D02*
X0309163Y0082878D01*
X0309164Y0083500D02*
X0309164Y0083500D01*
X0311435Y0083500D01*
X0309164Y0083500D01*
X0309163Y0083876D02*
X0309163Y0083876D01*
X0309163Y0084875D02*
X0309163Y0084875D01*
X0310993Y0084875D02*
X0319100Y0084875D01*
X0320098Y0083876D02*
X0311414Y0083876D01*
X0311348Y0082878D02*
X0320671Y0082878D01*
X0320671Y0079882D02*
X0272913Y0079882D01*
X0272913Y0078884D02*
X0320671Y0078884D01*
X0320671Y0077885D02*
X0272913Y0077885D01*
X0272913Y0076887D02*
X0320671Y0076887D01*
X0320671Y0075888D02*
X0272913Y0075888D01*
X0272913Y0074890D02*
X0320671Y0074890D01*
X0320671Y0073891D02*
X0272913Y0073891D01*
X0272913Y0072893D02*
X0320671Y0072893D01*
X0320671Y0071894D02*
X0272913Y0071894D01*
X0272913Y0070896D02*
X0298201Y0070896D01*
X0298698Y0071392D02*
X0296271Y0068966D01*
X0296271Y0065534D01*
X0298698Y0063108D01*
X0302129Y0063108D01*
X0304555Y0065534D01*
X0304555Y0068966D01*
X0302129Y0071392D01*
X0298698Y0071392D01*
X0297203Y0069897D02*
X0289076Y0069897D01*
X0288581Y0070102D02*
X0287246Y0070102D01*
X0286013Y0069592D01*
X0285070Y0068648D01*
X0284559Y0067415D01*
X0284559Y0066081D01*
X0285070Y0064848D01*
X0286013Y0063904D01*
X0287246Y0063394D01*
X0288581Y0063394D01*
X0289813Y0063904D01*
X0290757Y0064848D01*
X0291268Y0066081D01*
X0291268Y0067415D01*
X0290757Y0068648D01*
X0289813Y0069592D01*
X0288581Y0070102D01*
X0286751Y0069897D02*
X0272913Y0069897D01*
X0272913Y0068899D02*
X0285320Y0068899D01*
X0284760Y0067900D02*
X0272913Y0067900D01*
X0272913Y0066902D02*
X0284559Y0066902D01*
X0284633Y0065903D02*
X0272913Y0065903D01*
X0272913Y0064905D02*
X0285046Y0064905D01*
X0286011Y0063906D02*
X0272913Y0063906D01*
X0272913Y0062908D02*
X0320671Y0062908D01*
X0320671Y0063906D02*
X0302927Y0063906D01*
X0303926Y0064905D02*
X0320671Y0064905D01*
X0320671Y0065903D02*
X0304555Y0065903D01*
X0304555Y0066902D02*
X0320671Y0066902D01*
X0320671Y0067900D02*
X0304555Y0067900D01*
X0304555Y0068899D02*
X0320671Y0068899D01*
X0320671Y0069897D02*
X0303624Y0069897D01*
X0302625Y0070896D02*
X0320671Y0070896D01*
X0320671Y0061909D02*
X0319803Y0061909D01*
X0316024Y0061909D02*
X0289351Y0061909D01*
X0289813Y0061718D02*
X0288581Y0062228D01*
X0287246Y0062228D01*
X0286013Y0061718D01*
X0285070Y0060774D01*
X0284559Y0059541D01*
X0284559Y0058207D01*
X0285070Y0056974D01*
X0286013Y0056030D01*
X0287246Y0055520D01*
X0288581Y0055520D01*
X0289813Y0056030D01*
X0290757Y0056974D01*
X0291268Y0058207D01*
X0291268Y0059541D01*
X0290757Y0060774D01*
X0289813Y0061718D01*
X0290620Y0060911D02*
X0315049Y0060911D01*
X0314635Y0059912D02*
X0291114Y0059912D01*
X0291268Y0058914D02*
X0314559Y0058914D01*
X0314757Y0057915D02*
X0291147Y0057915D01*
X0290700Y0056917D02*
X0315314Y0056917D01*
X0316736Y0055918D02*
X0289543Y0055918D01*
X0288581Y0054354D02*
X0287246Y0054354D01*
X0286013Y0053844D01*
X0285070Y0052900D01*
X0284559Y0051667D01*
X0284559Y0050333D01*
X0285070Y0049100D01*
X0286013Y0048156D01*
X0287246Y0047646D01*
X0288581Y0047646D01*
X0289813Y0048156D01*
X0290757Y0049100D01*
X0291268Y0050333D01*
X0291268Y0051667D01*
X0290757Y0052900D01*
X0289813Y0053844D01*
X0288581Y0054354D01*
X0289626Y0053921D02*
X0297477Y0053921D01*
X0298475Y0054920D02*
X0272913Y0054920D01*
X0272913Y0055918D02*
X0286284Y0055918D01*
X0285127Y0056917D02*
X0272913Y0056917D01*
X0272913Y0057915D02*
X0284680Y0057915D01*
X0284559Y0058914D02*
X0272913Y0058914D01*
X0272913Y0059912D02*
X0284713Y0059912D01*
X0285206Y0060911D02*
X0272913Y0060911D01*
X0272913Y0061909D02*
X0286476Y0061909D01*
X0289815Y0063906D02*
X0297899Y0063906D01*
X0296901Y0064905D02*
X0290781Y0064905D01*
X0291194Y0065903D02*
X0296271Y0065903D01*
X0296271Y0066902D02*
X0291268Y0066902D01*
X0291067Y0067900D02*
X0296271Y0067900D01*
X0296271Y0068899D02*
X0290506Y0068899D01*
X0286200Y0053921D02*
X0272913Y0053921D01*
X0272913Y0052923D02*
X0285092Y0052923D01*
X0284665Y0051924D02*
X0272913Y0051924D01*
X0272913Y0050926D02*
X0284559Y0050926D01*
X0284727Y0049927D02*
X0272913Y0049927D01*
X0272913Y0048929D02*
X0285241Y0048929D01*
X0286560Y0047930D02*
X0272913Y0047930D01*
X0272913Y0046932D02*
X0298624Y0046932D01*
X0298698Y0046858D02*
X0296271Y0049284D01*
X0296271Y0052716D01*
X0298698Y0055142D01*
X0302129Y0055142D01*
X0304555Y0052716D01*
X0304555Y0049284D01*
X0302129Y0046858D01*
X0298698Y0046858D01*
X0297626Y0047930D02*
X0289267Y0047930D01*
X0288581Y0046480D02*
X0287246Y0046480D01*
X0286013Y0045970D01*
X0285070Y0045026D01*
X0284559Y0043793D01*
X0284559Y0042459D01*
X0285070Y0041226D01*
X0286013Y0040282D01*
X0287246Y0039772D01*
X0288581Y0039772D01*
X0289813Y0040282D01*
X0290757Y0041226D01*
X0291268Y0042459D01*
X0291268Y0043793D01*
X0290757Y0045026D01*
X0289813Y0045970D01*
X0288581Y0046480D01*
X0289850Y0045933D02*
X0315790Y0045933D01*
X0314954Y0044934D02*
X0290795Y0044934D01*
X0291209Y0043936D02*
X0314559Y0043936D01*
X0314559Y0042937D02*
X0291268Y0042937D01*
X0291052Y0041939D02*
X0314852Y0041939D01*
X0315542Y0040940D02*
X0290472Y0040940D01*
X0288992Y0039942D02*
X0320667Y0039942D01*
X0320671Y0040940D02*
X0320285Y0040940D01*
X0319668Y0038943D02*
X0272913Y0038943D01*
X0272913Y0039942D02*
X0286835Y0039942D01*
X0285355Y0040940D02*
X0272913Y0040940D01*
X0272913Y0041939D02*
X0284774Y0041939D01*
X0284559Y0042937D02*
X0272913Y0042937D01*
X0272913Y0043936D02*
X0284618Y0043936D01*
X0285032Y0044934D02*
X0272913Y0044934D01*
X0272913Y0045933D02*
X0285977Y0045933D01*
X0290586Y0048929D02*
X0296627Y0048929D01*
X0296271Y0049927D02*
X0291100Y0049927D01*
X0291268Y0050926D02*
X0296271Y0050926D01*
X0296271Y0051924D02*
X0291161Y0051924D01*
X0290735Y0052923D02*
X0296478Y0052923D01*
X0302352Y0054920D02*
X0320671Y0054920D01*
X0320671Y0055918D02*
X0319091Y0055918D01*
X0320513Y0056917D02*
X0320671Y0056917D01*
X0320671Y0053921D02*
X0319923Y0053921D01*
X0315904Y0053921D02*
X0303350Y0053921D01*
X0304349Y0052923D02*
X0315002Y0052923D01*
X0314588Y0051924D02*
X0304555Y0051924D01*
X0304555Y0050926D02*
X0314559Y0050926D01*
X0314805Y0049927D02*
X0304555Y0049927D01*
X0304200Y0048929D02*
X0315428Y0048929D01*
X0317011Y0047930D02*
X0303201Y0047930D01*
X0302203Y0046932D02*
X0320671Y0046932D01*
X0320671Y0047930D02*
X0318816Y0047930D01*
X0320399Y0048929D02*
X0320671Y0048929D01*
X0320671Y0045933D02*
X0320037Y0045933D01*
X0270821Y0047930D02*
X0258816Y0047930D01*
X0260399Y0048929D02*
X0270819Y0048929D01*
X0270817Y0049927D02*
X0261022Y0049927D01*
X0261268Y0050926D02*
X0270815Y0050926D01*
X0270813Y0051924D02*
X0261239Y0051924D01*
X0260825Y0052923D02*
X0270811Y0052923D01*
X0270809Y0053921D02*
X0259923Y0053921D01*
X0260513Y0056917D02*
X0270803Y0056917D01*
X0270801Y0057915D02*
X0261069Y0057915D01*
X0261268Y0058914D02*
X0270799Y0058914D01*
X0270797Y0059912D02*
X0261192Y0059912D01*
X0260778Y0060911D02*
X0270795Y0060911D01*
X0270793Y0061909D02*
X0259803Y0061909D01*
X0270768Y0074890D02*
X0231413Y0074890D01*
X0232412Y0075888D02*
X0233980Y0075888D01*
X0233437Y0076887D02*
X0233155Y0076887D01*
X0231663Y0077250D02*
X0231663Y0094750D01*
X0235655Y0088869D02*
X0267281Y0088869D01*
X0265504Y0089868D02*
X0264905Y0089868D01*
X0270322Y0089868D02*
X0270738Y0089868D01*
X0275322Y0089868D02*
X0275922Y0089868D01*
X0279905Y0089868D02*
X0280922Y0089868D01*
X0259953Y0101850D02*
X0257535Y0101850D01*
X0257344Y0102848D02*
X0259953Y0102848D01*
X0259953Y0103847D02*
X0257047Y0103847D01*
X0256633Y0104845D02*
X0259953Y0104845D01*
X0260084Y0105844D02*
X0256085Y0105844D01*
X0255374Y0106842D02*
X0260632Y0106842D01*
X0270695Y0111835D02*
X0163905Y0111835D01*
X0163640Y0112833D02*
X0270693Y0112833D01*
X0272913Y0112833D02*
X0275937Y0112833D01*
X0275937Y0113832D02*
X0272913Y0113832D01*
X0272913Y0114830D02*
X0276449Y0114830D01*
X0277913Y0113500D02*
X0295413Y0113500D01*
X0294284Y0111835D02*
X0279043Y0111835D01*
X0276784Y0111835D02*
X0272913Y0111835D01*
X0272913Y0117826D02*
X0290793Y0117826D01*
X0291663Y0119750D02*
X0281663Y0119750D01*
X0280413Y0121000D01*
X0278437Y0120821D02*
X0272913Y0120821D01*
X0272913Y0119823D02*
X0278796Y0119823D01*
X0280479Y0118824D02*
X0272913Y0118824D01*
X0272913Y0121820D02*
X0278438Y0121820D01*
X0279437Y0122818D02*
X0272913Y0122818D01*
X0275556Y0106842D02*
X0275632Y0106842D01*
X0280195Y0106842D02*
X0280632Y0106842D01*
X0236958Y0113832D02*
X0163226Y0113832D01*
X0172913Y0099853D02*
X0172913Y0099853D01*
X0172913Y0098854D02*
X0172913Y0098854D01*
X0172914Y0098500D02*
X0172914Y0098500D01*
X0172913Y0097856D02*
X0172913Y0097856D01*
X0172913Y0096857D02*
X0172913Y0096857D01*
X0206595Y0076887D02*
X0207981Y0076887D01*
X0224163Y0079750D02*
X0224163Y0087250D01*
X0257626Y0038943D02*
X0258201Y0038943D01*
X0258201Y0037945D02*
X0257626Y0037945D01*
X0257626Y0036946D02*
X0258201Y0036946D01*
X0258201Y0035948D02*
X0257626Y0035948D01*
X0257626Y0034949D02*
X0258201Y0034949D01*
X0258201Y0033951D02*
X0257626Y0033951D01*
X0257626Y0032952D02*
X0258201Y0032952D01*
X0258201Y0031954D02*
X0257626Y0031954D01*
X0260905Y0031954D02*
X0270852Y0031954D01*
X0270850Y0032952D02*
X0261563Y0032952D01*
X0261563Y0033951D02*
X0270848Y0033951D01*
X0270846Y0034949D02*
X0261563Y0034949D01*
X0261563Y0035948D02*
X0270844Y0035948D01*
X0270842Y0036946D02*
X0261563Y0036946D01*
X0261563Y0037945D02*
X0270840Y0037945D01*
X0270839Y0038943D02*
X0260872Y0038943D01*
X0259165Y0039942D02*
X0270837Y0039942D01*
X0251799Y0021969D02*
X0191858Y0021969D01*
X0191858Y0020970D02*
X0250083Y0020970D01*
X0249085Y0019972D02*
X0191858Y0019972D01*
X0191858Y0018973D02*
X0248245Y0018973D01*
X0247832Y0017975D02*
X0191858Y0017975D01*
X0183969Y0017975D02*
X0033901Y0017975D01*
X0033487Y0018973D02*
X0183969Y0018973D01*
X0183969Y0019972D02*
X0032647Y0019972D01*
X0031649Y0020970D02*
X0183969Y0020970D01*
X0247157Y0015978D02*
X0034575Y0015978D01*
X0034575Y0014979D02*
X0247157Y0014979D01*
X0247157Y0013981D02*
X0034575Y0013981D01*
X0034480Y0012982D02*
X0247253Y0012982D01*
X0247666Y0011984D02*
X0034066Y0011984D01*
X0033652Y0010985D02*
X0248080Y0010985D01*
X0248686Y0009987D02*
X0033047Y0009987D01*
X0032048Y0008988D02*
X0249684Y0008988D01*
X0250835Y0007990D02*
X0030897Y0007990D01*
X0028486Y0006991D02*
X0253246Y0006991D01*
X0247418Y0016976D02*
X0034314Y0016976D01*
X0025921Y0038943D02*
X0072248Y0038943D01*
X0070440Y0039942D02*
X0027730Y0039942D01*
X0028544Y0040940D02*
X0069626Y0040940D01*
X0069212Y0041939D02*
X0028957Y0041939D01*
X0029014Y0042937D02*
X0069156Y0042937D01*
X0054781Y0059912D02*
X0050786Y0059912D01*
X0051784Y0058914D02*
X0052371Y0058914D01*
X0111663Y0043936D02*
X0111663Y0043936D01*
X0111663Y0042937D02*
X0111663Y0042937D01*
X0111664Y0042250D02*
X0111664Y0042250D01*
X0111663Y0041939D02*
X0111663Y0041939D01*
X0111663Y0040940D02*
X0111663Y0040940D01*
X0023201Y0131805D02*
X0022626Y0131805D01*
X0022626Y0132803D02*
X0023201Y0132803D01*
X0023201Y0133802D02*
X0022626Y0133802D01*
X0022626Y0135799D02*
X0023201Y0135799D01*
X0023201Y0136798D02*
X0022626Y0136798D01*
X0022626Y0137796D02*
X0023201Y0137796D01*
X0019264Y0133802D02*
X0015382Y0133802D01*
X0015382Y0132803D02*
X0019264Y0132803D01*
X0019509Y0131805D02*
X0015382Y0131805D01*
X0119567Y0200702D02*
X0232307Y0200702D01*
X0232293Y0199704D02*
X0120443Y0199704D01*
X0121280Y0198705D02*
X0232278Y0198705D01*
X0232263Y0197707D02*
X0122046Y0197707D01*
X0122766Y0196708D02*
X0232248Y0196708D01*
X0232233Y0195710D02*
X0123434Y0195710D01*
X0124057Y0194711D02*
X0232218Y0194711D01*
X0232203Y0193713D02*
X0124634Y0193713D01*
X0125175Y0192714D02*
X0232188Y0192714D01*
X0232173Y0191716D02*
X0125667Y0191716D01*
X0126137Y0190717D02*
X0232158Y0190717D01*
X0232143Y0189719D02*
X0126551Y0189719D01*
X0126958Y0188720D02*
X0179360Y0188720D01*
X0177625Y0187722D02*
X0135191Y0187722D01*
X0137240Y0186723D02*
X0176627Y0186723D01*
X0175679Y0185725D02*
X0138239Y0185725D01*
X0138827Y0184726D02*
X0175265Y0184726D01*
X0174851Y0183728D02*
X0139241Y0183728D01*
X0139378Y0182729D02*
X0174438Y0182729D01*
X0174421Y0181731D02*
X0139378Y0181731D01*
X0139184Y0180732D02*
X0174421Y0180732D01*
X0174421Y0179734D02*
X0138770Y0179734D01*
X0138100Y0178735D02*
X0174660Y0178735D01*
X0175073Y0177737D02*
X0137102Y0177737D01*
X0137018Y0174741D02*
X0177163Y0174741D01*
X0178244Y0173742D02*
X0138016Y0173742D01*
X0138735Y0172744D02*
X0180654Y0172744D01*
X0179235Y0169748D02*
X0139378Y0169748D01*
X0139378Y0170747D02*
X0231860Y0170747D01*
X0231875Y0171745D02*
X0139149Y0171745D01*
X0139276Y0168750D02*
X0178236Y0168750D01*
X0177238Y0167751D02*
X0138862Y0167751D01*
X0138323Y0166753D02*
X0176239Y0166753D01*
X0175241Y0165754D02*
X0137324Y0165754D01*
X0135393Y0164756D02*
X0174242Y0164756D01*
X0182413Y0164756D02*
X0183413Y0164756D01*
X0183413Y0165754D02*
X0182413Y0165754D01*
X0182413Y0166753D02*
X0183413Y0166753D01*
X0183413Y0167751D02*
X0182413Y0167751D01*
X0182413Y0168750D02*
X0183413Y0168750D01*
X0183413Y0169748D02*
X0182413Y0169748D01*
X0183413Y0169787D02*
X0183413Y0161500D01*
X0191701Y0161500D01*
X0191701Y0164640D01*
X0186553Y0169787D01*
X0183413Y0169787D01*
X0186592Y0169748D02*
X0231845Y0169748D01*
X0231830Y0168750D02*
X0187591Y0168750D01*
X0188589Y0167751D02*
X0231815Y0167751D01*
X0231800Y0166753D02*
X0189588Y0166753D01*
X0190586Y0165754D02*
X0231785Y0165754D01*
X0236548Y0162759D02*
X0191701Y0162759D01*
X0191701Y0163757D02*
X0237897Y0163757D01*
X0236087Y0161760D02*
X0191701Y0161760D01*
X0191585Y0164756D02*
X0270591Y0164756D01*
X0270593Y0163757D02*
X0243993Y0163757D01*
X0245341Y0162759D02*
X0270595Y0162759D01*
X0270597Y0161760D02*
X0245803Y0161760D01*
X0245874Y0160762D02*
X0270599Y0160762D01*
X0270601Y0159763D02*
X0245606Y0159763D01*
X0244865Y0158765D02*
X0270603Y0158765D01*
X0270605Y0157766D02*
X0245334Y0157766D01*
X0245800Y0156768D02*
X0270606Y0156768D01*
X0270608Y0155769D02*
X0245874Y0155769D01*
X0245609Y0154771D02*
X0270610Y0154771D01*
X0270612Y0153772D02*
X0244873Y0153772D01*
X0245327Y0152774D02*
X0270614Y0152774D01*
X0270616Y0151775D02*
X0245797Y0151775D01*
X0245874Y0150777D02*
X0270618Y0150777D01*
X0270620Y0149778D02*
X0245612Y0149778D01*
X0244880Y0148780D02*
X0270622Y0148780D01*
X0270624Y0147781D02*
X0245319Y0147781D01*
X0245794Y0146783D02*
X0270626Y0146783D01*
X0268730Y0144786D02*
X0267097Y0144786D01*
X0231890Y0172744D02*
X0185172Y0172744D01*
X0187583Y0173742D02*
X0231904Y0173742D01*
X0231919Y0174741D02*
X0188664Y0174741D01*
X0189663Y0175739D02*
X0231934Y0175739D01*
X0231949Y0176738D02*
X0190340Y0176738D01*
X0190753Y0177737D02*
X0231964Y0177737D01*
X0231979Y0178735D02*
X0191167Y0178735D01*
X0191405Y0179734D02*
X0231994Y0179734D01*
X0232009Y0180732D02*
X0191405Y0180732D01*
X0191405Y0181731D02*
X0232024Y0181731D01*
X0232039Y0182729D02*
X0191389Y0182729D01*
X0190975Y0183728D02*
X0232054Y0183728D01*
X0232069Y0184726D02*
X0190562Y0184726D01*
X0190148Y0185725D02*
X0232084Y0185725D01*
X0232098Y0186723D02*
X0189200Y0186723D01*
X0188201Y0187722D02*
X0232113Y0187722D01*
X0232128Y0188720D02*
X0186466Y0188720D01*
X0183413Y0163757D02*
X0182413Y0163757D01*
X0182413Y0162759D02*
X0183413Y0162759D01*
X0183413Y0161760D02*
X0182413Y0161760D01*
X0182413Y0160762D02*
X0125903Y0160762D01*
X0129204Y0177737D02*
X0130615Y0177737D01*
X0129616Y0178735D02*
X0129139Y0178735D01*
X0128475Y0183728D02*
X0128415Y0183728D01*
X0128183Y0184726D02*
X0128889Y0184726D01*
X0129478Y0185725D02*
X0127916Y0185725D01*
X0127636Y0186723D02*
X0130476Y0186723D01*
X0132526Y0187722D02*
X0127297Y0187722D01*
X0118586Y0201701D02*
X0232322Y0201701D01*
X0232337Y0202699D02*
X0117564Y0202699D01*
X0116425Y0203698D02*
X0232352Y0203698D01*
X0232367Y0204696D02*
X0115189Y0204696D01*
X0113858Y0205695D02*
X0232382Y0205695D01*
X0232397Y0206693D02*
X0112364Y0206693D01*
X0110675Y0207692D02*
X0232412Y0207692D01*
X0232427Y0208690D02*
X0108758Y0208690D01*
X0106508Y0209689D02*
X0232442Y0209689D01*
X0232457Y0210687D02*
X0103740Y0210687D01*
D28*
X0318346Y0100469D02*
X0318346Y0090567D01*
X0324163Y0084750D01*
X0324163Y0038500D01*
X0321102Y0035439D01*
X0317913Y0035439D02*
X0288100Y0035439D01*
X0287913Y0035252D02*
X0258100Y0035252D01*
X0257726Y0043126D02*
X0222913Y0043126D01*
X0209537Y0043126D01*
X0207913Y0044750D01*
X0207913Y0068500D01*
X0205413Y0071000D01*
X0187992Y0071000D01*
X0187913Y0070921D01*
X0257913Y0043313D02*
X0258100Y0043500D01*
X0275413Y0043500D01*
M02*
