G75*
%MOIN*%
%OFA0B0*%
%FSLAX25Y25*%
%IPPOS*%
%LPD*%
%AMOC8*
5,1,8,0,0,1.08239X$1,22.5*
%
%ADD10R,0.03937X0.05512*%
%ADD11R,0.04331X0.03937*%
%ADD12R,0.05906X0.03543*%
%ADD13R,0.07874X0.08268*%
%ADD14R,0.07480X0.06299*%
%ADD15R,0.05315X0.01575*%
%ADD16R,0.03150X0.03937*%
%ADD17R,0.02756X0.03937*%
%ADD18R,0.03937X0.03150*%
%ADD19R,0.03937X0.02756*%
%ADD20R,0.07874X0.07874*%
%ADD21R,0.02756X0.03543*%
%ADD22R,0.06299X0.07087*%
%ADD23C,0.05906*%
%ADD24R,0.03937X0.04331*%
D10*
X0104173Y0046669D03*
X0111654Y0046669D03*
X0124173Y0046669D03*
X0131654Y0046669D03*
X0127913Y0055331D03*
X0107913Y0055331D03*
X0106654Y0091669D03*
X0099173Y0091669D03*
X0102913Y0100331D03*
X0114173Y0091669D03*
X0121654Y0091669D03*
X0129173Y0091669D03*
X0136654Y0091669D03*
X0132913Y0100331D03*
X0117913Y0100331D03*
D11*
X0117913Y0117654D03*
X0117913Y0124346D03*
X0102913Y0124346D03*
X0102913Y0117654D03*
X0097913Y0074346D03*
X0107913Y0074346D03*
X0107913Y0067654D03*
X0097913Y0067654D03*
X0117913Y0067654D03*
X0117913Y0074346D03*
X0127913Y0074346D03*
X0127913Y0067654D03*
X0095413Y0050596D03*
X0095413Y0043904D03*
X0172913Y0102654D03*
X0172913Y0109346D03*
X0172913Y0117654D03*
X0172913Y0124346D03*
X0234163Y0070596D03*
X0242913Y0070596D03*
X0242913Y0063904D03*
X0234163Y0063904D03*
D12*
X0137913Y0114898D03*
X0137913Y0127102D03*
D13*
X0028415Y0158795D03*
X0028415Y0183205D03*
D14*
X0019163Y0187142D03*
X0019163Y0154858D03*
D15*
X0029695Y0165882D03*
X0029695Y0168441D03*
X0029695Y0171000D03*
X0029695Y0173559D03*
X0029695Y0176118D03*
D16*
X0073976Y0130724D03*
X0081850Y0130724D03*
X0081850Y0121276D03*
X0073976Y0121276D03*
X0073976Y0095724D03*
X0081850Y0095724D03*
X0081850Y0086276D03*
X0073976Y0086276D03*
D17*
X0077913Y0086276D03*
X0077913Y0130724D03*
D18*
X0073189Y0137063D03*
X0073189Y0144937D03*
X0082638Y0144937D03*
X0082638Y0137063D03*
X0082638Y0152063D03*
X0082638Y0159937D03*
X0073189Y0159937D03*
X0073189Y0152063D03*
D19*
X0073189Y0156000D03*
X0073189Y0141000D03*
D20*
X0067146Y0108500D03*
X0083681Y0108500D03*
X0162913Y0162732D03*
X0162913Y0179268D03*
D21*
X0107913Y0150134D03*
X0104173Y0141866D03*
X0111654Y0141866D03*
X0142913Y0065134D03*
X0139173Y0056866D03*
X0146654Y0056866D03*
X0309173Y0080134D03*
X0316654Y0080134D03*
X0312913Y0071866D03*
D22*
X0274675Y0071000D03*
X0263652Y0071000D03*
D23*
X0025068Y0056639D02*
X0025068Y0042861D01*
X0019164Y0042861D01*
X0019164Y0056639D01*
X0025068Y0056639D01*
X0025068Y0048766D02*
X0019164Y0048766D01*
X0019164Y0054671D02*
X0025068Y0054671D01*
X0059322Y0067270D02*
X0073100Y0067270D01*
X0059322Y0067270D02*
X0059322Y0073174D01*
X0073100Y0073174D01*
X0073100Y0067270D01*
X0079005Y0056639D02*
X0079005Y0042861D01*
X0073101Y0042861D01*
X0073101Y0056639D01*
X0079005Y0056639D01*
X0079005Y0048766D02*
X0073101Y0048766D01*
X0073101Y0054671D02*
X0079005Y0054671D01*
D24*
X0182913Y0102654D03*
X0182913Y0109346D03*
M02*
