G75*
%MOIN*%
%OFA0B0*%
%FSLAX25Y25*%
%IPPOS*%
%LPD*%
%AMOC8*
5,1,8,0,0,1.08239X$1,22.5*
%
%ADD10C,0.10000*%
%ADD11OC8,0.10000*%
%ADD12C,0.15000*%
%ADD13OC8,0.15000*%
%ADD14C,0.03839*%
%ADD15C,0.17717*%
%ADD16C,0.04331*%
%ADD17R,0.04724X0.04724*%
%ADD18C,0.04724*%
%ADD19C,0.09055*%
%ADD20C,0.70079*%
%ADD21OC8,0.06300*%
%ADD22R,0.05906X0.05906*%
%ADD23C,0.05906*%
%ADD24C,0.05906*%
%ADD25C,0.01600*%
%ADD26C,0.02165*%
%ADD27C,0.01000*%
%ADD28C,0.05000*%
D10*
X0157913Y0111000D03*
D11*
X0157913Y0091000D03*
D12*
X0056663Y0089000D03*
X0056663Y0051500D03*
X0182913Y0181000D03*
D13*
X0182913Y0161000D03*
D14*
X0239075Y0161000D02*
X0242913Y0161000D01*
X0242913Y0156000D02*
X0239075Y0156000D01*
X0239075Y0151000D02*
X0242913Y0151000D01*
X0242913Y0146000D02*
X0239075Y0146000D01*
X0239075Y0141000D02*
X0242913Y0141000D01*
X0242913Y0136000D02*
X0239075Y0136000D01*
X0239075Y0131000D02*
X0242913Y0131000D01*
X0242913Y0126000D02*
X0239075Y0126000D01*
X0239075Y0121000D02*
X0242913Y0121000D01*
X0242913Y0116000D02*
X0239075Y0116000D01*
X0262913Y0104839D02*
X0262913Y0101000D01*
X0267913Y0101000D02*
X0267913Y0104839D01*
X0272913Y0104839D02*
X0272913Y0101000D01*
X0277913Y0101000D02*
X0277913Y0104839D01*
X0282913Y0104839D02*
X0282913Y0101000D01*
X0282913Y0096000D02*
X0282913Y0092161D01*
X0277913Y0092161D02*
X0277913Y0096000D01*
X0272913Y0096000D02*
X0272913Y0092161D01*
X0267913Y0092161D02*
X0267913Y0096000D01*
X0262913Y0096000D02*
X0262913Y0092161D01*
X0322913Y0116000D02*
X0326752Y0116000D01*
X0326752Y0121000D02*
X0322913Y0121000D01*
X0322913Y0126000D02*
X0326752Y0126000D01*
X0326752Y0131000D02*
X0322913Y0131000D01*
X0322913Y0136000D02*
X0326752Y0136000D01*
X0326752Y0141000D02*
X0322913Y0141000D01*
X0322913Y0146000D02*
X0326752Y0146000D01*
X0326752Y0151000D02*
X0322913Y0151000D01*
X0322913Y0156000D02*
X0326752Y0156000D01*
X0326752Y0161000D02*
X0322913Y0161000D01*
D15*
X0318346Y0100469D03*
X0247480Y0100469D03*
D16*
X0265413Y0140212D02*
X0265413Y0141788D01*
X0265413Y0141788D01*
X0265413Y0140212D01*
X0265413Y0140212D01*
X0270413Y0140212D02*
X0270413Y0141788D01*
X0270413Y0141788D01*
X0270413Y0140212D01*
X0270413Y0140212D01*
X0275413Y0140212D02*
X0275413Y0141788D01*
X0275413Y0141788D01*
X0275413Y0140212D01*
X0275413Y0140212D01*
X0280413Y0140212D02*
X0280413Y0141788D01*
X0280413Y0141788D01*
X0280413Y0140212D01*
X0280413Y0140212D01*
X0285413Y0140212D02*
X0285413Y0141788D01*
X0285413Y0141788D01*
X0285413Y0140212D01*
X0285413Y0140212D01*
X0290413Y0140212D02*
X0290413Y0141788D01*
X0290413Y0141788D01*
X0290413Y0140212D01*
X0290413Y0140212D01*
X0295413Y0140212D02*
X0295413Y0141788D01*
X0295413Y0141788D01*
X0295413Y0140212D01*
X0295413Y0140212D01*
X0300413Y0140212D02*
X0300413Y0141788D01*
X0300413Y0141788D01*
X0300413Y0140212D01*
X0300413Y0140212D01*
D17*
X0287913Y0035252D03*
X0257913Y0035439D03*
X0222913Y0035252D03*
X0317913Y0035439D03*
X0022913Y0134937D03*
D18*
X0022913Y0127063D03*
X0222913Y0066748D03*
X0222913Y0058874D03*
X0222913Y0051000D03*
X0222913Y0043126D03*
X0257913Y0043313D03*
X0257913Y0051187D03*
X0257913Y0059061D03*
X0287913Y0058874D03*
X0287913Y0066748D03*
X0287913Y0051000D03*
X0287913Y0043126D03*
X0317913Y0043313D03*
X0317913Y0051187D03*
X0317913Y0059061D03*
D19*
X0133858Y0170094D03*
X0133858Y0182299D03*
X0051969Y0182299D03*
X0051969Y0170094D03*
D20*
X0092913Y0176000D03*
D21*
X0300413Y0067250D03*
X0300413Y0051000D03*
D22*
X0187913Y0021079D03*
X0037913Y0090921D03*
D23*
X0037913Y0081079D03*
X0187913Y0070921D03*
X0187913Y0060921D03*
X0187913Y0050921D03*
X0187913Y0040921D03*
X0187913Y0030921D03*
D24*
X0073101Y0042861D02*
X0073101Y0056639D01*
X0079005Y0056639D01*
X0079005Y0042861D01*
X0073101Y0042861D01*
X0073101Y0048766D02*
X0079005Y0048766D01*
X0079005Y0054671D02*
X0073101Y0054671D01*
X0073100Y0073174D02*
X0059322Y0073174D01*
X0073100Y0073174D02*
X0073100Y0067270D01*
X0059322Y0067270D01*
X0059322Y0073174D01*
X0019164Y0056639D02*
X0019164Y0042861D01*
X0019164Y0056639D02*
X0025068Y0056639D01*
X0025068Y0042861D01*
X0019164Y0042861D01*
X0019164Y0048766D02*
X0025068Y0048766D01*
X0025068Y0054671D02*
X0019164Y0054671D01*
D25*
X0037913Y0070250D02*
X0037913Y0081079D01*
X0037913Y0090921D02*
X0054742Y0090921D01*
X0056663Y0089000D01*
X0037913Y0070250D02*
X0056663Y0051500D01*
X0257726Y0043126D02*
X0257913Y0043313D01*
X0257913Y0035439D02*
X0258100Y0035252D01*
X0287913Y0035252D02*
X0288100Y0035439D01*
X0317913Y0035439D02*
X0321102Y0035439D01*
D26*
X0339163Y0032250D03*
X0339163Y0021000D03*
X0256663Y0071000D03*
X0235413Y0077250D03*
X0224163Y0079750D03*
X0212913Y0078500D03*
X0209163Y0078500D03*
X0205413Y0078500D03*
X0201663Y0078500D03*
X0201663Y0089750D03*
X0205413Y0089750D03*
X0209163Y0089750D03*
X0212913Y0089750D03*
X0224163Y0087250D03*
X0231663Y0094750D03*
X0234163Y0092250D03*
X0224163Y0116000D03*
X0224163Y0121000D03*
X0224163Y0126000D03*
X0224163Y0131000D03*
X0270413Y0134750D03*
X0284163Y0124750D03*
X0280413Y0121000D03*
X0291663Y0119750D03*
X0295413Y0113500D03*
X0277913Y0113500D03*
X0290413Y0131000D03*
X0300413Y0134750D03*
X0311663Y0124750D03*
X0309163Y0083500D03*
X0182913Y0098500D03*
X0172913Y0098500D03*
X0136663Y0086000D03*
X0127913Y0078500D03*
X0121663Y0086000D03*
X0106663Y0086000D03*
X0135413Y0067250D03*
X0117913Y0063500D03*
X0097913Y0063500D03*
X0089163Y0051000D03*
X0109163Y0051000D03*
X0111663Y0042250D03*
X0070413Y0086000D03*
X0059163Y0108500D03*
X0070413Y0131000D03*
X0097913Y0131000D03*
X0097913Y0118500D03*
X0029163Y0151000D03*
X0019163Y0148500D03*
X0029163Y0189750D03*
X0019163Y0192250D03*
D27*
X0014882Y0010726D02*
X0015699Y0008212D01*
X0017561Y0005648D01*
X0018540Y0004937D01*
X0270906Y0004937D01*
X0270836Y0040008D01*
X0259324Y0040008D01*
X0258421Y0039634D01*
X0208843Y0039634D01*
X0207559Y0040166D01*
X0205935Y0041790D01*
X0204953Y0042772D01*
X0204421Y0044055D01*
X0204421Y0067054D01*
X0203967Y0067508D01*
X0189981Y0067508D01*
X0188698Y0066976D01*
X0187129Y0066976D01*
X0185679Y0067577D01*
X0184569Y0068687D01*
X0183969Y0070137D01*
X0183969Y0071706D01*
X0184569Y0073156D01*
X0185679Y0074266D01*
X0187129Y0074866D01*
X0188698Y0074866D01*
X0189601Y0074492D01*
X0206108Y0074492D01*
X0207392Y0073960D01*
X0208374Y0072978D01*
X0210874Y0070478D01*
X0211405Y0069195D01*
X0211405Y0046618D01*
X0256503Y0046618D01*
X0257406Y0046992D01*
X0270823Y0046992D01*
X0270738Y0090220D01*
X0270579Y0090379D01*
X0270404Y0090117D01*
X0269958Y0089671D01*
X0269432Y0089320D01*
X0268849Y0089078D01*
X0268229Y0088955D01*
X0268053Y0088955D01*
X0268053Y0095860D01*
X0267774Y0095860D01*
X0267774Y0088955D01*
X0267598Y0088955D01*
X0266978Y0089078D01*
X0266394Y0089320D01*
X0265869Y0089671D01*
X0265423Y0090117D01*
X0265248Y0090379D01*
X0264563Y0089693D01*
X0263492Y0089250D01*
X0262334Y0089250D01*
X0261264Y0089693D01*
X0260445Y0090512D01*
X0260002Y0091582D01*
X0260002Y0096579D01*
X0260445Y0097649D01*
X0261264Y0098468D01*
X0261341Y0098500D01*
X0261264Y0098532D01*
X0260445Y0099351D01*
X0260002Y0100421D01*
X0260002Y0105418D01*
X0260445Y0106488D01*
X0261264Y0107307D01*
X0262334Y0107750D01*
X0263492Y0107750D01*
X0264563Y0107307D01*
X0265248Y0106621D01*
X0265423Y0106883D01*
X0265869Y0107329D01*
X0266394Y0107680D01*
X0266978Y0107922D01*
X0267598Y0108045D01*
X0267774Y0108045D01*
X0267774Y0101140D01*
X0268053Y0101140D01*
X0268053Y0108045D01*
X0268229Y0108045D01*
X0268849Y0107922D01*
X0269432Y0107680D01*
X0269958Y0107329D01*
X0270404Y0106883D01*
X0270579Y0106621D01*
X0270705Y0106748D01*
X0270655Y0132381D01*
X0270647Y0132380D01*
X0270413Y0132380D01*
X0270413Y0134750D01*
X0268043Y0134750D01*
X0268043Y0134517D01*
X0268134Y0134059D01*
X0268313Y0133627D01*
X0268572Y0133239D01*
X0268903Y0132909D01*
X0269291Y0132650D01*
X0269722Y0132471D01*
X0270180Y0132380D01*
X0270413Y0132380D01*
X0270413Y0134750D01*
X0270413Y0134750D01*
X0268043Y0134750D01*
X0268043Y0134983D01*
X0268134Y0135441D01*
X0268313Y0135873D01*
X0268572Y0136261D01*
X0268903Y0136591D01*
X0269291Y0136850D01*
X0269722Y0137029D01*
X0269853Y0137055D01*
X0269785Y0137055D01*
X0268625Y0137536D01*
X0267913Y0138247D01*
X0267202Y0137536D01*
X0266041Y0137055D01*
X0264785Y0137055D01*
X0263625Y0137536D01*
X0262737Y0138424D01*
X0262256Y0139585D01*
X0262256Y0139858D01*
X0262059Y0140333D01*
X0262059Y0141667D01*
X0262256Y0142142D01*
X0262256Y0142415D01*
X0262737Y0143576D01*
X0263625Y0144464D01*
X0264785Y0144945D01*
X0266041Y0144945D01*
X0267202Y0144464D01*
X0267913Y0143753D01*
X0268625Y0144464D01*
X0269785Y0144945D01*
X0270630Y0144945D01*
X0270591Y0164858D01*
X0231772Y0164858D01*
X0232559Y0217535D01*
X0018540Y0217535D01*
X0017561Y0216824D01*
X0015699Y0214260D01*
X0014882Y0211747D01*
X0014882Y0010726D01*
X0014882Y0010985D02*
X0020586Y0010985D01*
X0020678Y0010761D02*
X0022674Y0008765D01*
X0025282Y0007685D01*
X0028104Y0007685D01*
X0030712Y0008765D01*
X0032707Y0010761D01*
X0033787Y0013368D01*
X0033787Y0016191D01*
X0032707Y0018798D01*
X0030712Y0020794D01*
X0028104Y0021874D01*
X0025282Y0021874D01*
X0022674Y0020794D01*
X0020678Y0018798D01*
X0019598Y0016191D01*
X0019598Y0013368D01*
X0020678Y0010761D01*
X0021453Y0009987D02*
X0015122Y0009987D01*
X0015446Y0008988D02*
X0022451Y0008988D01*
X0024546Y0007990D02*
X0015860Y0007990D01*
X0016586Y0006991D02*
X0270901Y0006991D01*
X0270903Y0005993D02*
X0017311Y0005993D01*
X0018462Y0004994D02*
X0270905Y0004994D01*
X0272913Y0004994D02*
X0342011Y0004994D01*
X0341932Y0004937D02*
X0272913Y0004937D01*
X0272913Y0031760D01*
X0288608Y0031760D01*
X0288941Y0031898D01*
X0290687Y0031898D01*
X0290736Y0031947D01*
X0318608Y0031947D01*
X0318941Y0032085D01*
X0320075Y0032085D01*
X0320408Y0031947D01*
X0321797Y0031947D01*
X0323080Y0032478D01*
X0327124Y0036522D01*
X0327655Y0037805D01*
X0327655Y0085445D01*
X0327124Y0086728D01*
X0326142Y0087710D01*
X0322376Y0091476D01*
X0323926Y0092118D01*
X0326697Y0094889D01*
X0328197Y0098509D01*
X0328197Y0102428D01*
X0326697Y0106048D01*
X0323926Y0108819D01*
X0320306Y0110319D01*
X0316387Y0110319D01*
X0312767Y0108819D01*
X0309996Y0106048D01*
X0308496Y0102428D01*
X0308496Y0098509D01*
X0309996Y0094889D01*
X0312767Y0092118D01*
X0314854Y0091253D01*
X0314854Y0089872D01*
X0315386Y0088589D01*
X0320671Y0083304D01*
X0320671Y0061047D01*
X0319813Y0061905D01*
X0318581Y0062415D01*
X0317246Y0062415D01*
X0316013Y0061905D01*
X0315070Y0060961D01*
X0314559Y0059728D01*
X0314559Y0058394D01*
X0315070Y0057161D01*
X0316013Y0056217D01*
X0317246Y0055707D01*
X0318581Y0055707D01*
X0319813Y0056217D01*
X0320671Y0057075D01*
X0320671Y0053173D01*
X0319813Y0054031D01*
X0318581Y0054541D01*
X0317246Y0054541D01*
X0316013Y0054031D01*
X0315070Y0053087D01*
X0314559Y0051854D01*
X0314559Y0050520D01*
X0315070Y0049287D01*
X0316013Y0048343D01*
X0317246Y0047833D01*
X0318581Y0047833D01*
X0319813Y0048343D01*
X0320671Y0049201D01*
X0320671Y0045299D01*
X0319813Y0046157D01*
X0318581Y0046667D01*
X0317246Y0046667D01*
X0316013Y0046157D01*
X0315070Y0045213D01*
X0314559Y0043980D01*
X0314559Y0042646D01*
X0315070Y0041413D01*
X0316013Y0040469D01*
X0317246Y0039959D01*
X0318581Y0039959D01*
X0319813Y0040469D01*
X0320671Y0041327D01*
X0320671Y0039946D01*
X0319518Y0038793D01*
X0318941Y0038793D01*
X0318608Y0038931D01*
X0287406Y0038931D01*
X0286954Y0038744D01*
X0272913Y0038744D01*
X0272913Y0095860D01*
X0273053Y0095860D01*
X0273053Y0088955D01*
X0273229Y0088955D01*
X0273849Y0089078D01*
X0274432Y0089320D01*
X0274958Y0089671D01*
X0275404Y0090117D01*
X0275579Y0090379D01*
X0276264Y0089693D01*
X0277334Y0089250D01*
X0278492Y0089250D01*
X0279563Y0089693D01*
X0280382Y0090512D01*
X0280413Y0090589D01*
X0280445Y0090512D01*
X0281264Y0089693D01*
X0282334Y0089250D01*
X0283492Y0089250D01*
X0284563Y0089693D01*
X0285382Y0090512D01*
X0285825Y0091582D01*
X0285825Y0096579D01*
X0285382Y0097649D01*
X0284563Y0098468D01*
X0284486Y0098500D01*
X0284563Y0098532D01*
X0285382Y0099351D01*
X0285825Y0100421D01*
X0285825Y0105418D01*
X0285382Y0106488D01*
X0284563Y0107307D01*
X0283492Y0107750D01*
X0282334Y0107750D01*
X0281264Y0107307D01*
X0280445Y0106488D01*
X0280413Y0106411D01*
X0280382Y0106488D01*
X0279563Y0107307D01*
X0278492Y0107750D01*
X0277334Y0107750D01*
X0276264Y0107307D01*
X0275579Y0106621D01*
X0275404Y0106883D01*
X0274958Y0107329D01*
X0274432Y0107680D01*
X0273849Y0107922D01*
X0273229Y0108045D01*
X0273053Y0108045D01*
X0273053Y0101140D01*
X0272913Y0101140D01*
X0272913Y0138247D01*
X0273625Y0137536D01*
X0274785Y0137055D01*
X0276041Y0137055D01*
X0277202Y0137536D01*
X0277913Y0138247D01*
X0278625Y0137536D01*
X0279785Y0137055D01*
X0281041Y0137055D01*
X0282202Y0137536D01*
X0282913Y0138247D01*
X0283625Y0137536D01*
X0284785Y0137055D01*
X0286041Y0137055D01*
X0287202Y0137536D01*
X0287913Y0138247D01*
X0288625Y0137536D01*
X0289785Y0137055D01*
X0291041Y0137055D01*
X0292202Y0137536D01*
X0292913Y0138247D01*
X0293625Y0137536D01*
X0294785Y0137055D01*
X0296041Y0137055D01*
X0297202Y0137536D01*
X0297913Y0138247D01*
X0298625Y0137536D01*
X0299785Y0137055D01*
X0299853Y0137055D01*
X0299722Y0137029D01*
X0299291Y0136850D01*
X0298903Y0136591D01*
X0298572Y0136261D01*
X0298313Y0135873D01*
X0298134Y0135441D01*
X0298043Y0134983D01*
X0298043Y0134750D01*
X0298043Y0134517D01*
X0298134Y0134059D01*
X0298313Y0133627D01*
X0298572Y0133239D01*
X0298903Y0132909D01*
X0299291Y0132650D01*
X0299722Y0132471D01*
X0300180Y0132380D01*
X0300413Y0132380D01*
X0300413Y0134750D01*
X0298043Y0134750D01*
X0300413Y0134750D01*
X0300413Y0134750D01*
X0300413Y0134750D01*
X0300413Y0132380D01*
X0300647Y0132380D01*
X0301105Y0132471D01*
X0301536Y0132650D01*
X0301924Y0132909D01*
X0302254Y0133239D01*
X0302514Y0133627D01*
X0302692Y0134059D01*
X0302783Y0134517D01*
X0302783Y0134750D01*
X0302783Y0134983D01*
X0302692Y0135441D01*
X0302514Y0135873D01*
X0302254Y0136261D01*
X0301924Y0136591D01*
X0301536Y0136850D01*
X0301105Y0137029D01*
X0300973Y0137055D01*
X0301041Y0137055D01*
X0302202Y0137536D01*
X0303090Y0138424D01*
X0303571Y0139585D01*
X0303571Y0139858D01*
X0303768Y0140333D01*
X0303768Y0141667D01*
X0303571Y0142142D01*
X0303571Y0142415D01*
X0303090Y0143576D01*
X0302202Y0144464D01*
X0301041Y0144945D01*
X0299785Y0144945D01*
X0298625Y0144464D01*
X0297913Y0143753D01*
X0297202Y0144464D01*
X0296041Y0144945D01*
X0294785Y0144945D01*
X0293625Y0144464D01*
X0292913Y0143753D01*
X0292202Y0144464D01*
X0291041Y0144945D01*
X0289785Y0144945D01*
X0288625Y0144464D01*
X0287913Y0143753D01*
X0287202Y0144464D01*
X0286041Y0144945D01*
X0284785Y0144945D01*
X0283625Y0144464D01*
X0282913Y0143753D01*
X0282202Y0144464D01*
X0281041Y0144945D01*
X0279785Y0144945D01*
X0278625Y0144464D01*
X0277913Y0143753D01*
X0277202Y0144464D01*
X0276041Y0144945D01*
X0274785Y0144945D01*
X0273625Y0144464D01*
X0272913Y0143753D01*
X0272913Y0164858D01*
X0343622Y0164858D01*
X0343622Y0006627D01*
X0342911Y0005648D01*
X0341932Y0004937D01*
X0343161Y0005993D02*
X0272913Y0005993D01*
X0272913Y0006991D02*
X0343622Y0006991D01*
X0343622Y0007990D02*
X0272913Y0007990D01*
X0272913Y0008988D02*
X0343622Y0008988D01*
X0343622Y0009987D02*
X0272913Y0009987D01*
X0272913Y0010985D02*
X0343622Y0010985D01*
X0343622Y0011984D02*
X0272913Y0011984D01*
X0272913Y0012982D02*
X0343622Y0012982D01*
X0343622Y0013981D02*
X0272913Y0013981D01*
X0272913Y0014979D02*
X0343622Y0014979D01*
X0343622Y0015978D02*
X0272913Y0015978D01*
X0272913Y0016976D02*
X0343622Y0016976D01*
X0343622Y0017975D02*
X0272913Y0017975D01*
X0272913Y0018973D02*
X0338256Y0018973D01*
X0338304Y0018925D02*
X0340023Y0018925D01*
X0341238Y0020141D01*
X0341238Y0021859D01*
X0340655Y0022442D01*
X0340655Y0030808D01*
X0341238Y0031391D01*
X0341238Y0033109D01*
X0340023Y0034325D01*
X0338304Y0034325D01*
X0337089Y0033109D01*
X0337089Y0031391D01*
X0337671Y0030808D01*
X0337671Y0022442D01*
X0337089Y0021859D01*
X0337089Y0020141D01*
X0338304Y0018925D01*
X0337257Y0019972D02*
X0272913Y0019972D01*
X0272913Y0020970D02*
X0337089Y0020970D01*
X0337198Y0021969D02*
X0272913Y0021969D01*
X0272913Y0022967D02*
X0337671Y0022967D01*
X0337671Y0023966D02*
X0272913Y0023966D01*
X0272913Y0024964D02*
X0337671Y0024964D01*
X0337671Y0025963D02*
X0272913Y0025963D01*
X0272913Y0026961D02*
X0337671Y0026961D01*
X0337671Y0027960D02*
X0272913Y0027960D01*
X0272913Y0028958D02*
X0337671Y0028958D01*
X0337671Y0029957D02*
X0272913Y0029957D01*
X0272913Y0030955D02*
X0337524Y0030955D01*
X0337089Y0031954D02*
X0321814Y0031954D01*
X0320391Y0031954D02*
X0318625Y0031954D01*
X0323554Y0032952D02*
X0337089Y0032952D01*
X0337930Y0033951D02*
X0324553Y0033951D01*
X0325551Y0034949D02*
X0343622Y0034949D01*
X0343622Y0033951D02*
X0340397Y0033951D01*
X0341238Y0032952D02*
X0343622Y0032952D01*
X0343622Y0031954D02*
X0341238Y0031954D01*
X0340803Y0030955D02*
X0343622Y0030955D01*
X0343622Y0029957D02*
X0340655Y0029957D01*
X0340655Y0028958D02*
X0343622Y0028958D01*
X0343622Y0027960D02*
X0340655Y0027960D01*
X0340655Y0026961D02*
X0343622Y0026961D01*
X0343622Y0025963D02*
X0340655Y0025963D01*
X0340655Y0024964D02*
X0343622Y0024964D01*
X0343622Y0023966D02*
X0340655Y0023966D01*
X0340655Y0022967D02*
X0343622Y0022967D01*
X0343622Y0021969D02*
X0341129Y0021969D01*
X0341238Y0020970D02*
X0343622Y0020970D01*
X0343622Y0019972D02*
X0341069Y0019972D01*
X0340071Y0018973D02*
X0343622Y0018973D01*
X0339163Y0021000D02*
X0339163Y0032250D01*
X0343622Y0035948D02*
X0326550Y0035948D01*
X0327300Y0036946D02*
X0343622Y0036946D01*
X0343622Y0037945D02*
X0327655Y0037945D01*
X0327655Y0038943D02*
X0343622Y0038943D01*
X0343622Y0039942D02*
X0327655Y0039942D01*
X0327655Y0040940D02*
X0343622Y0040940D01*
X0343622Y0041939D02*
X0327655Y0041939D01*
X0327655Y0042937D02*
X0343622Y0042937D01*
X0343622Y0043936D02*
X0327655Y0043936D01*
X0327655Y0044934D02*
X0343622Y0044934D01*
X0343622Y0045933D02*
X0327655Y0045933D01*
X0327655Y0046932D02*
X0343622Y0046932D01*
X0343622Y0047930D02*
X0327655Y0047930D01*
X0327655Y0048929D02*
X0343622Y0048929D01*
X0343622Y0049927D02*
X0327655Y0049927D01*
X0327655Y0050926D02*
X0343622Y0050926D01*
X0343622Y0051924D02*
X0327655Y0051924D01*
X0327655Y0052923D02*
X0343622Y0052923D01*
X0343622Y0053921D02*
X0327655Y0053921D01*
X0327655Y0054920D02*
X0343622Y0054920D01*
X0343622Y0055918D02*
X0327655Y0055918D01*
X0327655Y0056917D02*
X0343622Y0056917D01*
X0343622Y0057915D02*
X0327655Y0057915D01*
X0327655Y0058914D02*
X0343622Y0058914D01*
X0343622Y0059912D02*
X0327655Y0059912D01*
X0327655Y0060911D02*
X0343622Y0060911D01*
X0343622Y0061909D02*
X0327655Y0061909D01*
X0327655Y0062908D02*
X0343622Y0062908D01*
X0343622Y0063906D02*
X0327655Y0063906D01*
X0327655Y0064905D02*
X0343622Y0064905D01*
X0343622Y0065903D02*
X0327655Y0065903D01*
X0327655Y0066902D02*
X0343622Y0066902D01*
X0343622Y0067900D02*
X0327655Y0067900D01*
X0327655Y0068899D02*
X0343622Y0068899D01*
X0343622Y0069897D02*
X0327655Y0069897D01*
X0327655Y0070896D02*
X0343622Y0070896D01*
X0343622Y0071894D02*
X0327655Y0071894D01*
X0327655Y0072893D02*
X0343622Y0072893D01*
X0343622Y0073891D02*
X0327655Y0073891D01*
X0327655Y0074890D02*
X0343622Y0074890D01*
X0343622Y0075888D02*
X0327655Y0075888D01*
X0327655Y0076887D02*
X0343622Y0076887D01*
X0343622Y0077885D02*
X0327655Y0077885D01*
X0327655Y0078884D02*
X0343622Y0078884D01*
X0343622Y0079882D02*
X0327655Y0079882D01*
X0327655Y0080881D02*
X0343622Y0080881D01*
X0343622Y0081879D02*
X0327655Y0081879D01*
X0327655Y0082878D02*
X0343622Y0082878D01*
X0343622Y0083876D02*
X0327655Y0083876D01*
X0327655Y0084875D02*
X0343622Y0084875D01*
X0343622Y0085873D02*
X0327478Y0085873D01*
X0326980Y0086872D02*
X0343622Y0086872D01*
X0343622Y0087870D02*
X0325981Y0087870D01*
X0324983Y0088869D02*
X0343622Y0088869D01*
X0343622Y0089868D02*
X0323984Y0089868D01*
X0322986Y0090866D02*
X0343622Y0090866D01*
X0343622Y0091865D02*
X0323315Y0091865D01*
X0324672Y0092863D02*
X0343622Y0092863D01*
X0343622Y0093862D02*
X0325670Y0093862D01*
X0326669Y0094860D02*
X0343622Y0094860D01*
X0343622Y0095859D02*
X0327099Y0095859D01*
X0327513Y0096857D02*
X0343622Y0096857D01*
X0343622Y0097856D02*
X0327926Y0097856D01*
X0328197Y0098854D02*
X0343622Y0098854D01*
X0343622Y0099853D02*
X0328197Y0099853D01*
X0328197Y0100851D02*
X0343622Y0100851D01*
X0343622Y0101850D02*
X0328197Y0101850D01*
X0328023Y0102848D02*
X0343622Y0102848D01*
X0343622Y0103847D02*
X0327609Y0103847D01*
X0327196Y0104845D02*
X0343622Y0104845D01*
X0343622Y0105844D02*
X0326782Y0105844D01*
X0325903Y0106842D02*
X0343622Y0106842D01*
X0343622Y0107841D02*
X0324905Y0107841D01*
X0323878Y0108839D02*
X0343622Y0108839D01*
X0343622Y0109838D02*
X0321467Y0109838D01*
X0322334Y0113089D02*
X0327331Y0113089D01*
X0328401Y0113532D01*
X0329220Y0114351D01*
X0329663Y0115421D01*
X0329663Y0116579D01*
X0329220Y0117649D01*
X0328401Y0118468D01*
X0328324Y0118500D01*
X0328401Y0118532D01*
X0329220Y0119351D01*
X0329663Y0120421D01*
X0329663Y0121579D01*
X0329220Y0122649D01*
X0328401Y0123468D01*
X0328324Y0123500D01*
X0328401Y0123532D01*
X0329220Y0124351D01*
X0329663Y0125421D01*
X0329663Y0126579D01*
X0329220Y0127649D01*
X0328401Y0128468D01*
X0328324Y0128500D01*
X0328401Y0128532D01*
X0329220Y0129351D01*
X0329663Y0130421D01*
X0329663Y0131579D01*
X0329220Y0132649D01*
X0328401Y0133468D01*
X0328324Y0133500D01*
X0328401Y0133532D01*
X0329220Y0134351D01*
X0329663Y0135421D01*
X0329663Y0136579D01*
X0329220Y0137649D01*
X0328401Y0138468D01*
X0328324Y0138500D01*
X0328401Y0138532D01*
X0329220Y0139351D01*
X0329663Y0140421D01*
X0329663Y0141579D01*
X0329220Y0142649D01*
X0328401Y0143468D01*
X0328324Y0143500D01*
X0328401Y0143532D01*
X0329220Y0144351D01*
X0329663Y0145421D01*
X0329663Y0146579D01*
X0329220Y0147649D01*
X0328401Y0148468D01*
X0328324Y0148500D01*
X0328401Y0148532D01*
X0329220Y0149351D01*
X0329663Y0150421D01*
X0329663Y0151579D01*
X0329220Y0152649D01*
X0328401Y0153468D01*
X0328324Y0153500D01*
X0328401Y0153532D01*
X0329220Y0154351D01*
X0329663Y0155421D01*
X0329663Y0156579D01*
X0329220Y0157649D01*
X0328401Y0158468D01*
X0328324Y0158500D01*
X0328401Y0158532D01*
X0329220Y0159351D01*
X0329663Y0160421D01*
X0329663Y0161579D01*
X0329220Y0162649D01*
X0328401Y0163468D01*
X0327331Y0163911D01*
X0322334Y0163911D01*
X0321264Y0163468D01*
X0320445Y0162649D01*
X0320002Y0161579D01*
X0320002Y0160421D01*
X0320445Y0159351D01*
X0321264Y0158532D01*
X0321341Y0158500D01*
X0321264Y0158468D01*
X0320445Y0157649D01*
X0320002Y0156579D01*
X0320002Y0155421D01*
X0320445Y0154351D01*
X0321264Y0153532D01*
X0321341Y0153500D01*
X0321264Y0153468D01*
X0320445Y0152649D01*
X0320002Y0151579D01*
X0320002Y0150421D01*
X0320445Y0149351D01*
X0321264Y0148532D01*
X0321341Y0148500D01*
X0321264Y0148468D01*
X0320445Y0147649D01*
X0320002Y0146579D01*
X0320002Y0145421D01*
X0320445Y0144351D01*
X0321264Y0143532D01*
X0321341Y0143500D01*
X0321264Y0143468D01*
X0320445Y0142649D01*
X0320002Y0141579D01*
X0320002Y0140421D01*
X0320445Y0139351D01*
X0321264Y0138532D01*
X0321341Y0138500D01*
X0321264Y0138468D01*
X0320445Y0137649D01*
X0320002Y0136579D01*
X0320002Y0135421D01*
X0320445Y0134351D01*
X0321264Y0133532D01*
X0321341Y0133500D01*
X0321264Y0133468D01*
X0320445Y0132649D01*
X0320002Y0131579D01*
X0320002Y0130421D01*
X0320445Y0129351D01*
X0321264Y0128532D01*
X0321341Y0128500D01*
X0321264Y0128468D01*
X0320445Y0127649D01*
X0320380Y0127492D01*
X0312295Y0127492D01*
X0311628Y0126825D01*
X0310804Y0126825D01*
X0309589Y0125609D01*
X0309589Y0123891D01*
X0310804Y0122675D01*
X0312523Y0122675D01*
X0313738Y0123891D01*
X0313738Y0124508D01*
X0320380Y0124508D01*
X0320445Y0124351D01*
X0321264Y0123532D01*
X0321341Y0123500D01*
X0321264Y0123468D01*
X0320445Y0122649D01*
X0320002Y0121579D01*
X0320002Y0120421D01*
X0320445Y0119351D01*
X0321264Y0118532D01*
X0321341Y0118500D01*
X0321264Y0118468D01*
X0320445Y0117649D01*
X0320002Y0116579D01*
X0320002Y0115421D01*
X0320445Y0114351D01*
X0321264Y0113532D01*
X0322334Y0113089D01*
X0320964Y0113832D02*
X0297488Y0113832D01*
X0297488Y0114359D02*
X0296273Y0115575D01*
X0294554Y0115575D01*
X0293971Y0114992D01*
X0279355Y0114992D01*
X0278773Y0115575D01*
X0277054Y0115575D01*
X0275839Y0114359D01*
X0275839Y0112641D01*
X0277054Y0111425D01*
X0278773Y0111425D01*
X0279355Y0112008D01*
X0293971Y0112008D01*
X0294554Y0111425D01*
X0296273Y0111425D01*
X0297488Y0112641D01*
X0297488Y0114359D01*
X0297017Y0114830D02*
X0320247Y0114830D01*
X0320002Y0115829D02*
X0272913Y0115829D01*
X0272913Y0116827D02*
X0320105Y0116827D01*
X0320622Y0117826D02*
X0292673Y0117826D01*
X0292523Y0117675D02*
X0293738Y0118891D01*
X0293738Y0120609D01*
X0292523Y0121825D01*
X0290804Y0121825D01*
X0290221Y0121242D01*
X0282488Y0121242D01*
X0282488Y0121859D01*
X0281273Y0123075D01*
X0279554Y0123075D01*
X0278339Y0121859D01*
X0278339Y0120141D01*
X0279554Y0118925D01*
X0280378Y0118925D01*
X0281045Y0118258D01*
X0290221Y0118258D01*
X0290804Y0117675D01*
X0292523Y0117675D01*
X0293672Y0118824D02*
X0320972Y0118824D01*
X0320250Y0119823D02*
X0293738Y0119823D01*
X0293526Y0120821D02*
X0320002Y0120821D01*
X0320102Y0121820D02*
X0292528Y0121820D01*
X0290799Y0121820D02*
X0282488Y0121820D01*
X0283304Y0122675D02*
X0285023Y0122675D01*
X0286238Y0123891D01*
X0286238Y0124715D01*
X0290449Y0128925D01*
X0291273Y0128925D01*
X0292488Y0130141D01*
X0292488Y0131859D01*
X0291273Y0133075D01*
X0289554Y0133075D01*
X0288339Y0131859D01*
X0288339Y0131035D01*
X0284128Y0126825D01*
X0283304Y0126825D01*
X0282089Y0125609D01*
X0282089Y0123891D01*
X0283304Y0122675D01*
X0283161Y0122818D02*
X0281529Y0122818D01*
X0282162Y0123817D02*
X0272913Y0123817D01*
X0272913Y0124815D02*
X0282089Y0124815D01*
X0282293Y0125814D02*
X0272913Y0125814D01*
X0272913Y0126812D02*
X0283292Y0126812D01*
X0285114Y0127811D02*
X0272913Y0127811D01*
X0272913Y0128809D02*
X0286113Y0128809D01*
X0287111Y0129808D02*
X0272913Y0129808D01*
X0272913Y0130806D02*
X0288110Y0130806D01*
X0288339Y0131805D02*
X0272913Y0131805D01*
X0272913Y0132803D02*
X0289283Y0132803D01*
X0290413Y0131000D02*
X0284163Y0124750D01*
X0285166Y0122818D02*
X0310661Y0122818D01*
X0309662Y0123817D02*
X0286164Y0123817D01*
X0286339Y0124815D02*
X0309589Y0124815D01*
X0309793Y0125814D02*
X0287337Y0125814D01*
X0288336Y0126812D02*
X0310792Y0126812D01*
X0311663Y0124750D02*
X0312913Y0126000D01*
X0322913Y0126000D01*
X0320979Y0123817D02*
X0313664Y0123817D01*
X0312666Y0122818D02*
X0320614Y0122818D01*
X0320607Y0127811D02*
X0289334Y0127811D01*
X0290333Y0128809D02*
X0320987Y0128809D01*
X0320256Y0129808D02*
X0292156Y0129808D01*
X0292488Y0130806D02*
X0320002Y0130806D01*
X0320096Y0131805D02*
X0292488Y0131805D01*
X0291544Y0132803D02*
X0299061Y0132803D01*
X0298241Y0133802D02*
X0272913Y0133802D01*
X0272913Y0134801D02*
X0298043Y0134801D01*
X0298283Y0135799D02*
X0272913Y0135799D01*
X0272913Y0136798D02*
X0299212Y0136798D01*
X0298365Y0137796D02*
X0297462Y0137796D01*
X0293365Y0137796D02*
X0292462Y0137796D01*
X0288365Y0137796D02*
X0287462Y0137796D01*
X0283365Y0137796D02*
X0282462Y0137796D01*
X0278365Y0137796D02*
X0277462Y0137796D01*
X0273365Y0137796D02*
X0272913Y0137796D01*
X0269212Y0136798D02*
X0245734Y0136798D01*
X0245825Y0136579D02*
X0245382Y0137649D01*
X0244563Y0138468D01*
X0244486Y0138500D01*
X0244563Y0138532D01*
X0245382Y0139351D01*
X0245825Y0140421D01*
X0245825Y0141579D01*
X0245382Y0142649D01*
X0244563Y0143468D01*
X0244486Y0143500D01*
X0244563Y0143532D01*
X0245382Y0144351D01*
X0245825Y0145421D01*
X0245825Y0146579D01*
X0245382Y0147649D01*
X0244563Y0148468D01*
X0244486Y0148500D01*
X0244563Y0148532D01*
X0245382Y0149351D01*
X0245825Y0150421D01*
X0245825Y0151579D01*
X0245382Y0152649D01*
X0244563Y0153468D01*
X0244486Y0153500D01*
X0244563Y0153532D01*
X0245382Y0154351D01*
X0245825Y0155421D01*
X0245825Y0156579D01*
X0245382Y0157649D01*
X0244563Y0158468D01*
X0244486Y0158500D01*
X0244563Y0158532D01*
X0245382Y0159351D01*
X0245825Y0160421D01*
X0245825Y0161579D01*
X0245382Y0162649D01*
X0244563Y0163468D01*
X0243492Y0163911D01*
X0238496Y0163911D01*
X0237426Y0163468D01*
X0236607Y0162649D01*
X0236163Y0161579D01*
X0236163Y0160421D01*
X0236607Y0159351D01*
X0237426Y0158532D01*
X0237502Y0158500D01*
X0237426Y0158468D01*
X0236607Y0157649D01*
X0236163Y0156579D01*
X0236163Y0155421D01*
X0236607Y0154351D01*
X0237426Y0153532D01*
X0237502Y0153500D01*
X0237426Y0153468D01*
X0236607Y0152649D01*
X0236163Y0151579D01*
X0236163Y0150421D01*
X0236607Y0149351D01*
X0237426Y0148532D01*
X0237502Y0148500D01*
X0237426Y0148468D01*
X0236607Y0147649D01*
X0236163Y0146579D01*
X0236163Y0145421D01*
X0236607Y0144351D01*
X0237426Y0143532D01*
X0237502Y0143500D01*
X0237426Y0143468D01*
X0236607Y0142649D01*
X0236163Y0141579D01*
X0236163Y0140421D01*
X0236607Y0139351D01*
X0237426Y0138532D01*
X0237502Y0138500D01*
X0237426Y0138468D01*
X0236607Y0137649D01*
X0236163Y0136579D01*
X0236163Y0135421D01*
X0236607Y0134351D01*
X0237426Y0133532D01*
X0237502Y0133500D01*
X0237426Y0133468D01*
X0236607Y0132649D01*
X0236542Y0132492D01*
X0225605Y0132492D01*
X0225023Y0133075D01*
X0223304Y0133075D01*
X0222089Y0131859D01*
X0222089Y0130141D01*
X0223304Y0128925D01*
X0225023Y0128925D01*
X0225605Y0129508D01*
X0236542Y0129508D01*
X0236607Y0129351D01*
X0237426Y0128532D01*
X0237502Y0128500D01*
X0237426Y0128468D01*
X0236607Y0127649D01*
X0236542Y0127492D01*
X0225605Y0127492D01*
X0225023Y0128075D01*
X0223304Y0128075D01*
X0222089Y0126859D01*
X0222089Y0125141D01*
X0223304Y0123925D01*
X0225023Y0123925D01*
X0225605Y0124508D01*
X0236542Y0124508D01*
X0236607Y0124351D01*
X0237426Y0123532D01*
X0237502Y0123500D01*
X0237426Y0123468D01*
X0236607Y0122649D01*
X0236542Y0122492D01*
X0225605Y0122492D01*
X0225023Y0123075D01*
X0223304Y0123075D01*
X0222089Y0121859D01*
X0222089Y0120141D01*
X0223304Y0118925D01*
X0225023Y0118925D01*
X0225605Y0119508D01*
X0236542Y0119508D01*
X0236607Y0119351D01*
X0237426Y0118532D01*
X0237502Y0118500D01*
X0237426Y0118468D01*
X0236607Y0117649D01*
X0236542Y0117492D01*
X0225605Y0117492D01*
X0225023Y0118075D01*
X0223304Y0118075D01*
X0222089Y0116859D01*
X0222089Y0115141D01*
X0223304Y0113925D01*
X0225023Y0113925D01*
X0225605Y0114508D01*
X0236542Y0114508D01*
X0236607Y0114351D01*
X0237426Y0113532D01*
X0238496Y0113089D01*
X0243492Y0113089D01*
X0244563Y0113532D01*
X0245382Y0114351D01*
X0245825Y0115421D01*
X0245825Y0116579D01*
X0245382Y0117649D01*
X0244563Y0118468D01*
X0244486Y0118500D01*
X0244563Y0118532D01*
X0245382Y0119351D01*
X0245825Y0120421D01*
X0245825Y0121579D01*
X0245382Y0122649D01*
X0244563Y0123468D01*
X0244486Y0123500D01*
X0244563Y0123532D01*
X0245382Y0124351D01*
X0245825Y0125421D01*
X0245825Y0126579D01*
X0245382Y0127649D01*
X0244563Y0128468D01*
X0244486Y0128500D01*
X0244563Y0128532D01*
X0245382Y0129351D01*
X0245825Y0130421D01*
X0245825Y0131579D01*
X0245382Y0132649D01*
X0244563Y0133468D01*
X0244486Y0133500D01*
X0244563Y0133532D01*
X0245382Y0134351D01*
X0245825Y0135421D01*
X0245825Y0136579D01*
X0245825Y0135799D02*
X0268283Y0135799D01*
X0268043Y0134801D02*
X0245568Y0134801D01*
X0244833Y0133802D02*
X0268241Y0133802D01*
X0269061Y0132803D02*
X0245227Y0132803D01*
X0245731Y0131805D02*
X0270656Y0131805D01*
X0270658Y0130806D02*
X0245825Y0130806D01*
X0245571Y0129808D02*
X0270660Y0129808D01*
X0270662Y0128809D02*
X0244840Y0128809D01*
X0245220Y0127811D02*
X0270663Y0127811D01*
X0270665Y0126812D02*
X0245728Y0126812D01*
X0245825Y0125814D02*
X0270667Y0125814D01*
X0270669Y0124815D02*
X0245574Y0124815D01*
X0244848Y0123817D02*
X0270671Y0123817D01*
X0270673Y0122818D02*
X0245212Y0122818D01*
X0245725Y0121820D02*
X0270675Y0121820D01*
X0270677Y0120821D02*
X0245825Y0120821D01*
X0245577Y0119823D02*
X0270679Y0119823D01*
X0270681Y0118824D02*
X0244855Y0118824D01*
X0245205Y0117826D02*
X0270683Y0117826D01*
X0270685Y0116827D02*
X0245722Y0116827D01*
X0245825Y0115829D02*
X0270687Y0115829D01*
X0270689Y0114830D02*
X0245580Y0114830D01*
X0244863Y0113832D02*
X0270691Y0113832D01*
X0270693Y0112833D02*
X0163640Y0112833D01*
X0163905Y0112192D02*
X0162993Y0114394D01*
X0161308Y0116080D01*
X0159105Y0116992D01*
X0156721Y0116992D01*
X0154519Y0116080D01*
X0152834Y0114394D01*
X0151921Y0112192D01*
X0151921Y0109808D01*
X0152834Y0107606D01*
X0154519Y0105920D01*
X0156721Y0105008D01*
X0159105Y0105008D01*
X0161308Y0105920D01*
X0162993Y0107606D01*
X0163905Y0109808D01*
X0163905Y0112192D01*
X0163905Y0111835D02*
X0270695Y0111835D01*
X0270697Y0110836D02*
X0163905Y0110836D01*
X0163905Y0109838D02*
X0243552Y0109838D01*
X0243592Y0109857D02*
X0242565Y0109362D01*
X0241600Y0108756D01*
X0240709Y0108045D01*
X0239903Y0107240D01*
X0239193Y0106349D01*
X0238587Y0105384D01*
X0238092Y0104357D01*
X0237716Y0103282D01*
X0237462Y0102171D01*
X0237335Y0101038D01*
X0237335Y0100968D01*
X0246980Y0100968D01*
X0246980Y0099969D01*
X0237335Y0099969D01*
X0237335Y0099899D01*
X0237462Y0098766D01*
X0237716Y0097655D01*
X0238092Y0096580D01*
X0238587Y0095553D01*
X0239193Y0094588D01*
X0239903Y0093697D01*
X0240709Y0092892D01*
X0241600Y0092181D01*
X0242565Y0091575D01*
X0243592Y0091080D01*
X0244667Y0090704D01*
X0245778Y0090450D01*
X0246911Y0090323D01*
X0246980Y0090323D01*
X0246980Y0099968D01*
X0247980Y0099968D01*
X0247980Y0090323D01*
X0248050Y0090323D01*
X0249182Y0090450D01*
X0250293Y0090704D01*
X0251369Y0091080D01*
X0252396Y0091575D01*
X0253361Y0092181D01*
X0254251Y0092892D01*
X0255057Y0093697D01*
X0255768Y0094588D01*
X0256374Y0095553D01*
X0256868Y0096580D01*
X0257245Y0097655D01*
X0257498Y0098766D01*
X0257626Y0099899D01*
X0257626Y0099969D01*
X0247980Y0099969D01*
X0247980Y0100968D01*
X0257626Y0100968D01*
X0257626Y0101038D01*
X0257498Y0102171D01*
X0257245Y0103282D01*
X0256868Y0104357D01*
X0256374Y0105384D01*
X0255768Y0106349D01*
X0255057Y0107240D01*
X0254251Y0108045D01*
X0253361Y0108756D01*
X0252396Y0109362D01*
X0251369Y0109857D01*
X0250293Y0110233D01*
X0249182Y0110487D01*
X0248050Y0110614D01*
X0247980Y0110614D01*
X0247980Y0100969D01*
X0246980Y0100969D01*
X0246980Y0110614D01*
X0246911Y0110614D01*
X0245778Y0110487D01*
X0244667Y0110233D01*
X0243592Y0109857D01*
X0241733Y0108839D02*
X0163504Y0108839D01*
X0163091Y0107841D02*
X0240504Y0107841D01*
X0239586Y0106842D02*
X0162230Y0106842D01*
X0161123Y0105844D02*
X0238876Y0105844D01*
X0238327Y0104845D02*
X0014882Y0104845D01*
X0014882Y0103847D02*
X0237914Y0103847D01*
X0237617Y0102848D02*
X0014882Y0102848D01*
X0014882Y0101850D02*
X0237426Y0101850D01*
X0237340Y0099853D02*
X0184860Y0099853D01*
X0184754Y0100011D02*
X0184424Y0100341D01*
X0184036Y0100600D01*
X0183605Y0100779D01*
X0183147Y0100870D01*
X0182913Y0100870D01*
X0182680Y0100870D01*
X0182222Y0100779D01*
X0181791Y0100600D01*
X0181403Y0100341D01*
X0181072Y0100011D01*
X0180813Y0099623D01*
X0180634Y0099191D01*
X0180543Y0098733D01*
X0180543Y0098500D01*
X0180543Y0098267D01*
X0180634Y0097809D01*
X0180813Y0097377D01*
X0181072Y0096989D01*
X0181403Y0096659D01*
X0181791Y0096400D01*
X0182222Y0096221D01*
X0182680Y0096130D01*
X0182913Y0096130D01*
X0182913Y0098500D01*
X0180543Y0098500D01*
X0182913Y0098500D01*
X0182913Y0098500D01*
X0182913Y0100870D01*
X0182913Y0098500D01*
X0182913Y0098500D01*
X0182913Y0098500D01*
X0182913Y0096130D01*
X0183147Y0096130D01*
X0183605Y0096221D01*
X0184036Y0096400D01*
X0184424Y0096659D01*
X0184754Y0096989D01*
X0185014Y0097377D01*
X0185192Y0097809D01*
X0185283Y0098267D01*
X0185283Y0098500D01*
X0185283Y0098733D01*
X0185192Y0099191D01*
X0185014Y0099623D01*
X0184754Y0100011D01*
X0185259Y0098854D02*
X0237452Y0098854D01*
X0237670Y0097856D02*
X0185202Y0097856D01*
X0185283Y0098500D02*
X0182914Y0098500D01*
X0185283Y0098500D01*
X0184622Y0096857D02*
X0237995Y0096857D01*
X0238439Y0095859D02*
X0233489Y0095859D01*
X0233738Y0095609D02*
X0232523Y0096825D01*
X0230804Y0096825D01*
X0229589Y0095609D01*
X0229589Y0093891D01*
X0230171Y0093308D01*
X0230171Y0077868D01*
X0229795Y0077492D01*
X0224795Y0077492D01*
X0222295Y0074992D01*
X0221421Y0074118D01*
X0221421Y0069761D01*
X0221013Y0069592D01*
X0220070Y0068648D01*
X0219559Y0067415D01*
X0219559Y0066081D01*
X0220070Y0064848D01*
X0221013Y0063904D01*
X0222246Y0063394D01*
X0223581Y0063394D01*
X0224813Y0063904D01*
X0225757Y0064848D01*
X0226268Y0066081D01*
X0226268Y0067415D01*
X0225757Y0068648D01*
X0224813Y0069592D01*
X0224405Y0069761D01*
X0224405Y0072882D01*
X0226031Y0074508D01*
X0231031Y0074508D01*
X0231905Y0075382D01*
X0233155Y0076632D01*
X0233155Y0077398D01*
X0233339Y0077215D01*
X0233339Y0076391D01*
X0234554Y0075175D01*
X0236273Y0075175D01*
X0237488Y0076391D01*
X0237488Y0078109D01*
X0236273Y0079325D01*
X0235655Y0079325D01*
X0235655Y0090808D01*
X0236238Y0091391D01*
X0236238Y0093109D01*
X0235023Y0094325D01*
X0233738Y0094325D01*
X0233738Y0095609D01*
X0233738Y0094860D02*
X0239022Y0094860D01*
X0239772Y0093862D02*
X0235486Y0093862D01*
X0236238Y0092863D02*
X0240745Y0092863D01*
X0242104Y0091865D02*
X0236238Y0091865D01*
X0235714Y0090866D02*
X0244204Y0090866D01*
X0246980Y0090866D02*
X0247980Y0090866D01*
X0247980Y0091865D02*
X0246980Y0091865D01*
X0246980Y0092863D02*
X0247980Y0092863D01*
X0247980Y0093862D02*
X0246980Y0093862D01*
X0246980Y0094860D02*
X0247980Y0094860D01*
X0247980Y0095859D02*
X0246980Y0095859D01*
X0246980Y0096857D02*
X0247980Y0096857D01*
X0247980Y0097856D02*
X0246980Y0097856D01*
X0246980Y0098854D02*
X0247980Y0098854D01*
X0247980Y0099853D02*
X0246980Y0099853D01*
X0246980Y0100851D02*
X0183242Y0100851D01*
X0182913Y0100851D02*
X0182913Y0100851D01*
X0182585Y0100851D02*
X0173242Y0100851D01*
X0173147Y0100870D02*
X0172913Y0100870D01*
X0172680Y0100870D01*
X0172222Y0100779D01*
X0171791Y0100600D01*
X0171403Y0100341D01*
X0171072Y0100011D01*
X0170813Y0099623D01*
X0170634Y0099191D01*
X0170543Y0098733D01*
X0170543Y0098500D01*
X0170543Y0098267D01*
X0170634Y0097809D01*
X0170813Y0097377D01*
X0171072Y0096989D01*
X0171403Y0096659D01*
X0171791Y0096400D01*
X0172222Y0096221D01*
X0172680Y0096130D01*
X0172913Y0096130D01*
X0172913Y0098500D01*
X0170543Y0098500D01*
X0172913Y0098500D01*
X0172913Y0098500D01*
X0172913Y0100870D01*
X0172913Y0098500D01*
X0172913Y0098500D01*
X0172913Y0098500D01*
X0172913Y0096130D01*
X0173147Y0096130D01*
X0173605Y0096221D01*
X0174036Y0096400D01*
X0174424Y0096659D01*
X0174754Y0096989D01*
X0175014Y0097377D01*
X0175192Y0097809D01*
X0175283Y0098267D01*
X0175283Y0098500D01*
X0175283Y0098733D01*
X0175192Y0099191D01*
X0175014Y0099623D01*
X0174754Y0100011D01*
X0174424Y0100341D01*
X0174036Y0100600D01*
X0173605Y0100779D01*
X0173147Y0100870D01*
X0172913Y0100851D02*
X0172913Y0100851D01*
X0172585Y0100851D02*
X0014882Y0100851D01*
X0014882Y0099853D02*
X0170967Y0099853D01*
X0170567Y0098854D02*
X0014882Y0098854D01*
X0014882Y0097856D02*
X0170625Y0097856D01*
X0171205Y0096857D02*
X0160948Y0096857D01*
X0160518Y0097287D02*
X0158413Y0097287D01*
X0158413Y0091500D01*
X0157413Y0091500D01*
X0157413Y0090500D01*
X0151626Y0090500D01*
X0151626Y0088396D01*
X0155309Y0084713D01*
X0157413Y0084713D01*
X0157413Y0090500D01*
X0158413Y0090500D01*
X0158413Y0084713D01*
X0160518Y0084713D01*
X0164201Y0088396D01*
X0164201Y0090500D01*
X0158413Y0090500D01*
X0158413Y0091500D01*
X0164201Y0091500D01*
X0164201Y0093604D01*
X0160518Y0097287D01*
X0161947Y0095859D02*
X0229838Y0095859D01*
X0229589Y0094860D02*
X0162945Y0094860D01*
X0163944Y0093862D02*
X0229618Y0093862D01*
X0230171Y0092863D02*
X0164201Y0092863D01*
X0164201Y0091865D02*
X0230171Y0091865D01*
X0230171Y0090866D02*
X0214732Y0090866D01*
X0214988Y0090609D02*
X0213773Y0091825D01*
X0212054Y0091825D01*
X0211038Y0090809D01*
X0210023Y0091825D01*
X0208304Y0091825D01*
X0207288Y0090809D01*
X0206273Y0091825D01*
X0204554Y0091825D01*
X0203538Y0090809D01*
X0202523Y0091825D01*
X0200804Y0091825D01*
X0199589Y0090609D01*
X0199589Y0088891D01*
X0200171Y0088308D01*
X0200171Y0079942D01*
X0199589Y0079359D01*
X0199589Y0077641D01*
X0200804Y0076425D01*
X0202523Y0076425D01*
X0203538Y0077441D01*
X0204554Y0076425D01*
X0206273Y0076425D01*
X0207288Y0077441D01*
X0208304Y0076425D01*
X0210023Y0076425D01*
X0211038Y0077441D01*
X0212054Y0076425D01*
X0213773Y0076425D01*
X0214988Y0077641D01*
X0214988Y0079359D01*
X0214405Y0079942D01*
X0214405Y0088308D01*
X0214988Y0088891D01*
X0214988Y0090609D01*
X0214988Y0089868D02*
X0230171Y0089868D01*
X0230171Y0088869D02*
X0225479Y0088869D01*
X0225023Y0089325D02*
X0226238Y0088109D01*
X0226238Y0086391D01*
X0225655Y0085808D01*
X0225655Y0081192D01*
X0226238Y0080609D01*
X0226238Y0078891D01*
X0225023Y0077675D01*
X0223304Y0077675D01*
X0222089Y0078891D01*
X0222089Y0080609D01*
X0222671Y0081192D01*
X0222671Y0085808D01*
X0222089Y0086391D01*
X0222089Y0088109D01*
X0223304Y0089325D01*
X0225023Y0089325D01*
X0226238Y0087870D02*
X0230171Y0087870D01*
X0230171Y0086872D02*
X0226238Y0086872D01*
X0225721Y0085873D02*
X0230171Y0085873D01*
X0230171Y0084875D02*
X0225655Y0084875D01*
X0225655Y0083876D02*
X0230171Y0083876D01*
X0230171Y0082878D02*
X0225655Y0082878D01*
X0225655Y0081879D02*
X0230171Y0081879D01*
X0230171Y0080881D02*
X0225967Y0080881D01*
X0226238Y0079882D02*
X0230171Y0079882D01*
X0230171Y0078884D02*
X0226231Y0078884D01*
X0225233Y0077885D02*
X0230171Y0077885D01*
X0231663Y0077250D02*
X0230413Y0076000D01*
X0225413Y0076000D01*
X0222913Y0073500D01*
X0222913Y0066748D01*
X0219760Y0067900D02*
X0211405Y0067900D01*
X0211405Y0066902D02*
X0219559Y0066902D01*
X0219633Y0065903D02*
X0211405Y0065903D01*
X0211405Y0064905D02*
X0220046Y0064905D01*
X0221011Y0063906D02*
X0211405Y0063906D01*
X0211405Y0062908D02*
X0270791Y0062908D01*
X0270789Y0063906D02*
X0224815Y0063906D01*
X0225781Y0064905D02*
X0270787Y0064905D01*
X0270785Y0065903D02*
X0226194Y0065903D01*
X0226268Y0066902D02*
X0270783Y0066902D01*
X0270781Y0067900D02*
X0226067Y0067900D01*
X0225506Y0068899D02*
X0255543Y0068899D01*
X0255541Y0068900D02*
X0255972Y0068721D01*
X0256430Y0068630D01*
X0256663Y0068630D01*
X0256663Y0071000D01*
X0254293Y0071000D01*
X0254293Y0070767D01*
X0254384Y0070309D01*
X0254563Y0069877D01*
X0254822Y0069489D01*
X0255153Y0069159D01*
X0255541Y0068900D01*
X0256663Y0068899D02*
X0256663Y0068899D01*
X0256663Y0068630D02*
X0256897Y0068630D01*
X0257355Y0068721D01*
X0257786Y0068900D01*
X0258174Y0069159D01*
X0258504Y0069489D01*
X0258764Y0069877D01*
X0258942Y0070309D01*
X0259033Y0070767D01*
X0259033Y0071000D01*
X0259033Y0071233D01*
X0258942Y0071691D01*
X0258764Y0072123D01*
X0258504Y0072511D01*
X0258174Y0072841D01*
X0257786Y0073100D01*
X0257355Y0073279D01*
X0256897Y0073370D01*
X0256663Y0073370D01*
X0256430Y0073370D01*
X0255972Y0073279D01*
X0255541Y0073100D01*
X0255153Y0072841D01*
X0254822Y0072511D01*
X0254563Y0072123D01*
X0254384Y0071691D01*
X0254293Y0071233D01*
X0254293Y0071000D01*
X0256663Y0071000D01*
X0256663Y0071000D01*
X0256663Y0073370D01*
X0256663Y0071000D01*
X0256663Y0071000D01*
X0256663Y0071000D01*
X0256663Y0068630D01*
X0257784Y0068899D02*
X0270780Y0068899D01*
X0270778Y0069897D02*
X0258772Y0069897D01*
X0259033Y0070896D02*
X0270776Y0070896D01*
X0270774Y0071894D02*
X0258858Y0071894D01*
X0259033Y0071000D02*
X0256664Y0071000D01*
X0256664Y0071000D01*
X0259033Y0071000D01*
X0258097Y0072893D02*
X0270772Y0072893D01*
X0270770Y0073891D02*
X0225415Y0073891D01*
X0224416Y0072893D02*
X0255230Y0072893D01*
X0254468Y0071894D02*
X0224405Y0071894D01*
X0224405Y0070896D02*
X0254293Y0070896D01*
X0254555Y0069897D02*
X0224405Y0069897D01*
X0221421Y0069897D02*
X0211114Y0069897D01*
X0211405Y0068899D02*
X0220320Y0068899D01*
X0221421Y0070896D02*
X0210456Y0070896D01*
X0209458Y0071894D02*
X0221421Y0071894D01*
X0221421Y0072893D02*
X0208459Y0072893D01*
X0207461Y0073891D02*
X0221421Y0073891D01*
X0222193Y0074890D02*
X0076660Y0074890D01*
X0076445Y0075410D02*
X0075335Y0076520D01*
X0073885Y0077120D01*
X0058536Y0077120D01*
X0057086Y0076520D01*
X0055977Y0075410D01*
X0055376Y0073960D01*
X0055376Y0066485D01*
X0055977Y0065035D01*
X0057086Y0063925D01*
X0058536Y0063325D01*
X0073885Y0063325D01*
X0075335Y0063925D01*
X0076445Y0065035D01*
X0077045Y0066485D01*
X0077045Y0073960D01*
X0076445Y0075410D01*
X0075966Y0075888D02*
X0223192Y0075888D01*
X0224190Y0076887D02*
X0214234Y0076887D01*
X0214988Y0077885D02*
X0223094Y0077885D01*
X0222095Y0078884D02*
X0214988Y0078884D01*
X0214465Y0079882D02*
X0222089Y0079882D01*
X0222360Y0080881D02*
X0214405Y0080881D01*
X0214405Y0081879D02*
X0222671Y0081879D01*
X0222671Y0082878D02*
X0214405Y0082878D01*
X0214405Y0083876D02*
X0222671Y0083876D01*
X0222671Y0084875D02*
X0214405Y0084875D01*
X0214405Y0085873D02*
X0222606Y0085873D01*
X0222089Y0086872D02*
X0214405Y0086872D01*
X0214405Y0087870D02*
X0222089Y0087870D01*
X0222848Y0088869D02*
X0214967Y0088869D01*
X0212913Y0089750D02*
X0212913Y0078500D01*
X0211592Y0076887D02*
X0210484Y0076887D01*
X0209163Y0078500D02*
X0209163Y0089750D01*
X0207345Y0090866D02*
X0207232Y0090866D01*
X0205413Y0089750D02*
X0205413Y0078500D01*
X0204092Y0076887D02*
X0202984Y0076887D01*
X0201663Y0078500D02*
X0201663Y0089750D01*
X0199589Y0089868D02*
X0164201Y0089868D01*
X0164201Y0088869D02*
X0199610Y0088869D01*
X0200171Y0087870D02*
X0163676Y0087870D01*
X0162677Y0086872D02*
X0200171Y0086872D01*
X0200171Y0085873D02*
X0161679Y0085873D01*
X0160680Y0084875D02*
X0200171Y0084875D01*
X0200171Y0083876D02*
X0137730Y0083876D01*
X0137786Y0083900D02*
X0138174Y0084159D01*
X0138504Y0084489D01*
X0138764Y0084877D01*
X0138942Y0085309D01*
X0139033Y0085767D01*
X0139033Y0086000D01*
X0139033Y0086233D01*
X0138942Y0086691D01*
X0138764Y0087123D01*
X0138504Y0087511D01*
X0138174Y0087841D01*
X0137786Y0088100D01*
X0137355Y0088279D01*
X0136897Y0088370D01*
X0136663Y0088370D01*
X0136430Y0088370D01*
X0135972Y0088279D01*
X0135541Y0088100D01*
X0135153Y0087841D01*
X0134822Y0087511D01*
X0134563Y0087123D01*
X0134384Y0086691D01*
X0134293Y0086233D01*
X0134293Y0086000D01*
X0134293Y0085767D01*
X0134384Y0085309D01*
X0134563Y0084877D01*
X0134822Y0084489D01*
X0135153Y0084159D01*
X0135541Y0083900D01*
X0135972Y0083721D01*
X0136430Y0083630D01*
X0136663Y0083630D01*
X0136663Y0086000D01*
X0134293Y0086000D01*
X0136663Y0086000D01*
X0136663Y0086000D01*
X0136663Y0088370D01*
X0136663Y0086000D01*
X0136663Y0086000D01*
X0136663Y0086000D01*
X0136663Y0083630D01*
X0136897Y0083630D01*
X0137355Y0083721D01*
X0137786Y0083900D01*
X0136663Y0083876D02*
X0136663Y0083876D01*
X0136663Y0084875D02*
X0136663Y0084875D01*
X0136663Y0085873D02*
X0136663Y0085873D01*
X0136664Y0086000D02*
X0136664Y0086000D01*
X0139033Y0086000D01*
X0136664Y0086000D01*
X0136663Y0086872D02*
X0136663Y0086872D01*
X0136663Y0087870D02*
X0136663Y0087870D01*
X0135197Y0087870D02*
X0123130Y0087870D01*
X0123174Y0087841D02*
X0122786Y0088100D01*
X0122355Y0088279D01*
X0121897Y0088370D01*
X0121663Y0088370D01*
X0121430Y0088370D01*
X0120972Y0088279D01*
X0120541Y0088100D01*
X0120153Y0087841D01*
X0119822Y0087511D01*
X0119563Y0087123D01*
X0119384Y0086691D01*
X0119293Y0086233D01*
X0119293Y0086000D01*
X0119293Y0085767D01*
X0119384Y0085309D01*
X0119563Y0084877D01*
X0119822Y0084489D01*
X0120153Y0084159D01*
X0120541Y0083900D01*
X0120972Y0083721D01*
X0121430Y0083630D01*
X0121663Y0083630D01*
X0121663Y0086000D01*
X0119293Y0086000D01*
X0121663Y0086000D01*
X0121663Y0086000D01*
X0121663Y0088370D01*
X0121663Y0086000D01*
X0121663Y0086000D01*
X0121663Y0086000D01*
X0121663Y0083630D01*
X0121897Y0083630D01*
X0122355Y0083721D01*
X0122786Y0083900D01*
X0123174Y0084159D01*
X0123504Y0084489D01*
X0123764Y0084877D01*
X0123942Y0085309D01*
X0124033Y0085767D01*
X0124033Y0086000D01*
X0124033Y0086233D01*
X0123942Y0086691D01*
X0123764Y0087123D01*
X0123504Y0087511D01*
X0123174Y0087841D01*
X0123868Y0086872D02*
X0134459Y0086872D01*
X0134293Y0085873D02*
X0124033Y0085873D01*
X0124033Y0086000D02*
X0121664Y0086000D01*
X0124033Y0086000D01*
X0123762Y0084875D02*
X0134565Y0084875D01*
X0135597Y0083876D02*
X0122730Y0083876D01*
X0121663Y0083876D02*
X0121663Y0083876D01*
X0121663Y0084875D02*
X0121663Y0084875D01*
X0121663Y0085873D02*
X0121663Y0085873D01*
X0121664Y0086000D02*
X0121664Y0086000D01*
X0121663Y0086872D02*
X0121663Y0086872D01*
X0121663Y0087870D02*
X0121663Y0087870D01*
X0120197Y0087870D02*
X0108130Y0087870D01*
X0108174Y0087841D02*
X0107786Y0088100D01*
X0107355Y0088279D01*
X0106897Y0088370D01*
X0106663Y0088370D01*
X0106430Y0088370D01*
X0105972Y0088279D01*
X0105541Y0088100D01*
X0105153Y0087841D01*
X0104822Y0087511D01*
X0104563Y0087123D01*
X0104384Y0086691D01*
X0104293Y0086233D01*
X0104293Y0086000D01*
X0104293Y0085767D01*
X0104384Y0085309D01*
X0104563Y0084877D01*
X0104822Y0084489D01*
X0105153Y0084159D01*
X0105541Y0083900D01*
X0105972Y0083721D01*
X0106430Y0083630D01*
X0106663Y0083630D01*
X0106663Y0086000D01*
X0104293Y0086000D01*
X0106663Y0086000D01*
X0106663Y0086000D01*
X0106663Y0088370D01*
X0106663Y0086000D01*
X0106663Y0086000D01*
X0106663Y0086000D01*
X0106663Y0083630D01*
X0106897Y0083630D01*
X0107355Y0083721D01*
X0107786Y0083900D01*
X0108174Y0084159D01*
X0108504Y0084489D01*
X0108764Y0084877D01*
X0108942Y0085309D01*
X0109033Y0085767D01*
X0109033Y0086000D01*
X0109033Y0086233D01*
X0108942Y0086691D01*
X0108764Y0087123D01*
X0108504Y0087511D01*
X0108174Y0087841D01*
X0108868Y0086872D02*
X0119459Y0086872D01*
X0119293Y0085873D02*
X0109033Y0085873D01*
X0109033Y0086000D02*
X0106664Y0086000D01*
X0109033Y0086000D01*
X0108762Y0084875D02*
X0119565Y0084875D01*
X0120597Y0083876D02*
X0107730Y0083876D01*
X0106663Y0083876D02*
X0106663Y0083876D01*
X0106663Y0084875D02*
X0106663Y0084875D01*
X0106663Y0085873D02*
X0106663Y0085873D01*
X0106664Y0086000D02*
X0106664Y0086000D01*
X0106663Y0086872D02*
X0106663Y0086872D01*
X0106663Y0087870D02*
X0106663Y0087870D01*
X0105197Y0087870D02*
X0071880Y0087870D01*
X0071924Y0087841D02*
X0071536Y0088100D01*
X0071105Y0088279D01*
X0070647Y0088370D01*
X0070413Y0088370D01*
X0070180Y0088370D01*
X0069722Y0088279D01*
X0069291Y0088100D01*
X0068903Y0087841D01*
X0068572Y0087511D01*
X0068313Y0087123D01*
X0068134Y0086691D01*
X0068043Y0086233D01*
X0068043Y0086000D01*
X0068043Y0085767D01*
X0068134Y0085309D01*
X0068313Y0084877D01*
X0068572Y0084489D01*
X0068903Y0084159D01*
X0069291Y0083900D01*
X0069722Y0083721D01*
X0070180Y0083630D01*
X0070413Y0083630D01*
X0070413Y0086000D01*
X0068043Y0086000D01*
X0070413Y0086000D01*
X0070413Y0086000D01*
X0070413Y0088370D01*
X0070413Y0086000D01*
X0070413Y0086000D01*
X0070413Y0086000D01*
X0070413Y0083630D01*
X0070647Y0083630D01*
X0071105Y0083721D01*
X0071536Y0083900D01*
X0071924Y0084159D01*
X0072254Y0084489D01*
X0072514Y0084877D01*
X0072692Y0085309D01*
X0072783Y0085767D01*
X0072783Y0086000D01*
X0072783Y0086233D01*
X0072692Y0086691D01*
X0072514Y0087123D01*
X0072254Y0087511D01*
X0071924Y0087841D01*
X0072618Y0086872D02*
X0104459Y0086872D01*
X0104293Y0085873D02*
X0072783Y0085873D01*
X0072783Y0086000D02*
X0070414Y0086000D01*
X0072783Y0086000D01*
X0072512Y0084875D02*
X0104565Y0084875D01*
X0105597Y0083876D02*
X0071480Y0083876D01*
X0070413Y0083876D02*
X0070413Y0083876D01*
X0070413Y0084875D02*
X0070413Y0084875D01*
X0070413Y0085873D02*
X0070413Y0085873D01*
X0070414Y0086000D02*
X0070414Y0086000D01*
X0070413Y0086872D02*
X0070413Y0086872D01*
X0070413Y0087870D02*
X0070413Y0087870D01*
X0068947Y0087870D02*
X0065155Y0087870D01*
X0065155Y0087311D02*
X0063863Y0084190D01*
X0061474Y0081801D01*
X0058353Y0080508D01*
X0054974Y0080508D01*
X0051853Y0081801D01*
X0049464Y0084190D01*
X0048171Y0087311D01*
X0048171Y0089129D01*
X0041858Y0089129D01*
X0041858Y0087558D01*
X0041277Y0086976D01*
X0034550Y0086976D01*
X0033969Y0087558D01*
X0033969Y0094285D01*
X0034550Y0094866D01*
X0041277Y0094866D01*
X0041858Y0094285D01*
X0041858Y0092713D01*
X0049010Y0092713D01*
X0049464Y0093810D01*
X0051853Y0096199D01*
X0054974Y0097492D01*
X0058353Y0097492D01*
X0061474Y0096199D01*
X0063863Y0093810D01*
X0065155Y0090689D01*
X0065155Y0087311D01*
X0064974Y0086872D02*
X0068209Y0086872D01*
X0068043Y0085873D02*
X0064560Y0085873D01*
X0064147Y0084875D02*
X0068315Y0084875D01*
X0069347Y0083876D02*
X0063549Y0083876D01*
X0062551Y0082878D02*
X0200171Y0082878D01*
X0200171Y0081879D02*
X0061552Y0081879D01*
X0059253Y0080881D02*
X0200171Y0080881D01*
X0200112Y0079882D02*
X0129840Y0079882D01*
X0129754Y0080011D02*
X0129424Y0080341D01*
X0129036Y0080600D01*
X0128605Y0080779D01*
X0128147Y0080870D01*
X0127913Y0080870D01*
X0127680Y0080870D01*
X0127222Y0080779D01*
X0126791Y0080600D01*
X0126403Y0080341D01*
X0126072Y0080011D01*
X0125813Y0079623D01*
X0125634Y0079191D01*
X0125543Y0078733D01*
X0125543Y0078500D01*
X0125543Y0078267D01*
X0125634Y0077809D01*
X0125813Y0077377D01*
X0126072Y0076989D01*
X0126403Y0076659D01*
X0126791Y0076400D01*
X0127222Y0076221D01*
X0127680Y0076130D01*
X0127913Y0076130D01*
X0127913Y0078500D01*
X0125543Y0078500D01*
X0127913Y0078500D01*
X0127913Y0078500D01*
X0127913Y0080870D01*
X0127913Y0078500D01*
X0127913Y0078500D01*
X0127913Y0078500D01*
X0127913Y0076130D01*
X0128147Y0076130D01*
X0128605Y0076221D01*
X0129036Y0076400D01*
X0129424Y0076659D01*
X0129754Y0076989D01*
X0130014Y0077377D01*
X0130192Y0077809D01*
X0130283Y0078267D01*
X0130283Y0078500D01*
X0130283Y0078733D01*
X0130192Y0079191D01*
X0130014Y0079623D01*
X0129754Y0080011D01*
X0130254Y0078884D02*
X0199589Y0078884D01*
X0199589Y0077885D02*
X0130208Y0077885D01*
X0130283Y0078500D02*
X0127914Y0078500D01*
X0130283Y0078500D01*
X0129652Y0076887D02*
X0200342Y0076887D01*
X0206734Y0076887D02*
X0207842Y0076887D01*
X0204421Y0066902D02*
X0137488Y0066902D01*
X0137488Y0066391D02*
X0137488Y0068109D01*
X0136273Y0069325D01*
X0134554Y0069325D01*
X0133339Y0068109D01*
X0133339Y0067285D01*
X0126045Y0059992D01*
X0117295Y0059992D01*
X0116421Y0059118D01*
X0110200Y0052897D01*
X0110023Y0053075D01*
X0108304Y0053075D01*
X0107089Y0051859D01*
X0107089Y0050141D01*
X0108304Y0048925D01*
X0110023Y0048925D01*
X0110605Y0049508D01*
X0111031Y0049508D01*
X0118531Y0057008D01*
X0127281Y0057008D01*
X0135449Y0065175D01*
X0136273Y0065175D01*
X0137488Y0066391D01*
X0137001Y0065903D02*
X0204421Y0065903D01*
X0204421Y0064905D02*
X0189375Y0064905D01*
X0189541Y0064851D02*
X0188906Y0065057D01*
X0188398Y0065138D01*
X0188398Y0061406D01*
X0187429Y0061406D01*
X0187429Y0065138D01*
X0186920Y0065057D01*
X0186286Y0064851D01*
X0185691Y0064548D01*
X0185151Y0064155D01*
X0184679Y0063684D01*
X0184287Y0063144D01*
X0183984Y0062549D01*
X0183778Y0061914D01*
X0183697Y0061406D01*
X0187429Y0061406D01*
X0187429Y0060437D01*
X0183697Y0060437D01*
X0183778Y0059928D01*
X0183984Y0059294D01*
X0184287Y0058699D01*
X0184679Y0058159D01*
X0185151Y0057687D01*
X0185691Y0057295D01*
X0186286Y0056992D01*
X0186920Y0056786D01*
X0187429Y0056705D01*
X0187429Y0060437D01*
X0188398Y0060437D01*
X0188398Y0061406D01*
X0192130Y0061406D01*
X0192049Y0061914D01*
X0191843Y0062549D01*
X0191540Y0063144D01*
X0191148Y0063684D01*
X0190676Y0064155D01*
X0190136Y0064548D01*
X0189541Y0064851D01*
X0188398Y0064905D02*
X0187429Y0064905D01*
X0186452Y0064905D02*
X0135178Y0064905D01*
X0134180Y0063906D02*
X0184902Y0063906D01*
X0184167Y0062908D02*
X0133181Y0062908D01*
X0132183Y0061909D02*
X0183777Y0061909D01*
X0183783Y0059912D02*
X0130186Y0059912D01*
X0131184Y0060911D02*
X0187429Y0060911D01*
X0188398Y0060911D02*
X0204421Y0060911D01*
X0204421Y0061909D02*
X0192050Y0061909D01*
X0191660Y0062908D02*
X0204421Y0062908D01*
X0204421Y0063906D02*
X0190925Y0063906D01*
X0188398Y0063906D02*
X0187429Y0063906D01*
X0187429Y0062908D02*
X0188398Y0062908D01*
X0188398Y0061909D02*
X0187429Y0061909D01*
X0188398Y0060437D02*
X0192130Y0060437D01*
X0192049Y0059928D01*
X0191843Y0059294D01*
X0191540Y0058699D01*
X0191148Y0058159D01*
X0190676Y0057687D01*
X0190136Y0057295D01*
X0189541Y0056992D01*
X0188906Y0056786D01*
X0188398Y0056705D01*
X0188398Y0060437D01*
X0188398Y0059912D02*
X0187429Y0059912D01*
X0187429Y0058914D02*
X0188398Y0058914D01*
X0188398Y0057915D02*
X0187429Y0057915D01*
X0187429Y0056917D02*
X0188398Y0056917D01*
X0189310Y0056917D02*
X0204421Y0056917D01*
X0204421Y0057915D02*
X0190904Y0057915D01*
X0191649Y0058914D02*
X0204421Y0058914D01*
X0204421Y0059912D02*
X0192044Y0059912D01*
X0190148Y0054266D02*
X0188698Y0054866D01*
X0187129Y0054866D01*
X0185679Y0054266D01*
X0184569Y0053156D01*
X0183969Y0051706D01*
X0183969Y0050137D01*
X0184569Y0048687D01*
X0185679Y0047577D01*
X0187129Y0046976D01*
X0188698Y0046976D01*
X0190148Y0047577D01*
X0191258Y0048687D01*
X0191858Y0050137D01*
X0191858Y0051706D01*
X0191258Y0053156D01*
X0190148Y0054266D01*
X0190492Y0053921D02*
X0204421Y0053921D01*
X0204421Y0052923D02*
X0191354Y0052923D01*
X0191768Y0051924D02*
X0204421Y0051924D01*
X0204421Y0050926D02*
X0191858Y0050926D01*
X0191771Y0049927D02*
X0204421Y0049927D01*
X0204421Y0048929D02*
X0191358Y0048929D01*
X0190501Y0047930D02*
X0204421Y0047930D01*
X0204421Y0046932D02*
X0082951Y0046932D01*
X0082951Y0047930D02*
X0185326Y0047930D01*
X0184469Y0048929D02*
X0110026Y0048929D01*
X0108301Y0048929D02*
X0090329Y0048929D01*
X0090286Y0048900D02*
X0090674Y0049159D01*
X0091004Y0049489D01*
X0091264Y0049877D01*
X0091442Y0050309D01*
X0091533Y0050767D01*
X0091533Y0051000D01*
X0091533Y0051233D01*
X0091442Y0051691D01*
X0091264Y0052123D01*
X0091004Y0052511D01*
X0090674Y0052841D01*
X0090286Y0053100D01*
X0089855Y0053279D01*
X0089397Y0053370D01*
X0089163Y0053370D01*
X0088930Y0053370D01*
X0088472Y0053279D01*
X0088041Y0053100D01*
X0087653Y0052841D01*
X0087322Y0052511D01*
X0087063Y0052123D01*
X0086884Y0051691D01*
X0086793Y0051233D01*
X0086793Y0051000D01*
X0086793Y0050767D01*
X0086884Y0050309D01*
X0087063Y0049877D01*
X0087322Y0049489D01*
X0087653Y0049159D01*
X0088041Y0048900D01*
X0088472Y0048721D01*
X0088930Y0048630D01*
X0089163Y0048630D01*
X0089163Y0051000D01*
X0086793Y0051000D01*
X0089163Y0051000D01*
X0089163Y0051000D01*
X0089163Y0053370D01*
X0089163Y0051000D01*
X0089163Y0051000D01*
X0089163Y0051000D01*
X0089163Y0048630D01*
X0089397Y0048630D01*
X0089855Y0048721D01*
X0090286Y0048900D01*
X0089163Y0048929D02*
X0089163Y0048929D01*
X0089163Y0049927D02*
X0089163Y0049927D01*
X0089163Y0050926D02*
X0089163Y0050926D01*
X0089164Y0051000D02*
X0089164Y0051000D01*
X0091533Y0051000D01*
X0089164Y0051000D01*
X0089163Y0051924D02*
X0089163Y0051924D01*
X0089163Y0052923D02*
X0089163Y0052923D01*
X0087775Y0052923D02*
X0082951Y0052923D01*
X0082951Y0053921D02*
X0111224Y0053921D01*
X0110226Y0052923D02*
X0110175Y0052923D01*
X0110413Y0051000D02*
X0117913Y0058500D01*
X0126663Y0058500D01*
X0135413Y0067250D01*
X0134128Y0068899D02*
X0077045Y0068899D01*
X0077045Y0069897D02*
X0184068Y0069897D01*
X0183969Y0070896D02*
X0077045Y0070896D01*
X0077045Y0071894D02*
X0184047Y0071894D01*
X0184460Y0072893D02*
X0077045Y0072893D01*
X0077045Y0073891D02*
X0185305Y0073891D01*
X0184481Y0068899D02*
X0136699Y0068899D01*
X0137488Y0067900D02*
X0185355Y0067900D01*
X0184177Y0058914D02*
X0129187Y0058914D01*
X0128189Y0057915D02*
X0184923Y0057915D01*
X0186517Y0056917D02*
X0118440Y0056917D01*
X0117442Y0055918D02*
X0204421Y0055918D01*
X0204421Y0054920D02*
X0116443Y0054920D01*
X0115445Y0053921D02*
X0185334Y0053921D01*
X0184472Y0052923D02*
X0114446Y0052923D01*
X0113448Y0051924D02*
X0184059Y0051924D01*
X0183969Y0050926D02*
X0112449Y0050926D01*
X0111451Y0049927D02*
X0184055Y0049927D01*
X0185679Y0044266D02*
X0187129Y0044866D01*
X0188698Y0044866D01*
X0190148Y0044266D01*
X0191258Y0043156D01*
X0191858Y0041706D01*
X0191858Y0040137D01*
X0191258Y0038687D01*
X0190148Y0037577D01*
X0188698Y0036976D01*
X0187129Y0036976D01*
X0185679Y0037577D01*
X0184569Y0038687D01*
X0183969Y0040137D01*
X0183969Y0041706D01*
X0184569Y0043156D01*
X0185679Y0044266D01*
X0185349Y0043936D02*
X0113329Y0043936D01*
X0113174Y0044091D02*
X0112786Y0044350D01*
X0112355Y0044529D01*
X0111897Y0044620D01*
X0111663Y0044620D01*
X0111430Y0044620D01*
X0110972Y0044529D01*
X0110541Y0044350D01*
X0110153Y0044091D01*
X0109822Y0043761D01*
X0109563Y0043373D01*
X0109384Y0042941D01*
X0109293Y0042483D01*
X0109293Y0042250D01*
X0109293Y0042017D01*
X0109384Y0041559D01*
X0109563Y0041127D01*
X0109822Y0040739D01*
X0110153Y0040409D01*
X0110541Y0040150D01*
X0110972Y0039971D01*
X0111430Y0039880D01*
X0111663Y0039880D01*
X0111663Y0042250D01*
X0109293Y0042250D01*
X0111663Y0042250D01*
X0111663Y0042250D01*
X0111663Y0044620D01*
X0111663Y0042250D01*
X0111663Y0042250D01*
X0111663Y0042250D01*
X0111663Y0039880D01*
X0111897Y0039880D01*
X0112355Y0039971D01*
X0112786Y0040150D01*
X0113174Y0040409D01*
X0113504Y0040739D01*
X0113764Y0041127D01*
X0113942Y0041559D01*
X0114033Y0042017D01*
X0114033Y0042250D01*
X0114033Y0042483D01*
X0113942Y0042941D01*
X0113764Y0043373D01*
X0113504Y0043761D01*
X0113174Y0044091D01*
X0113943Y0042937D02*
X0184479Y0042937D01*
X0184065Y0041939D02*
X0114018Y0041939D01*
X0114033Y0042250D02*
X0111664Y0042250D01*
X0114033Y0042250D01*
X0113639Y0040940D02*
X0183969Y0040940D01*
X0184049Y0039942D02*
X0112209Y0039942D01*
X0111663Y0039942D02*
X0111663Y0039942D01*
X0111118Y0039942D02*
X0081667Y0039942D01*
X0081240Y0039516D02*
X0082350Y0040626D01*
X0082951Y0042076D01*
X0082951Y0057424D01*
X0082350Y0058874D01*
X0081240Y0059984D01*
X0079791Y0060585D01*
X0072316Y0060585D01*
X0070866Y0059984D01*
X0069756Y0058874D01*
X0069156Y0057424D01*
X0069156Y0042076D01*
X0069756Y0040626D01*
X0070866Y0039516D01*
X0072316Y0038915D01*
X0079791Y0038915D01*
X0081240Y0039516D01*
X0079858Y0038943D02*
X0184463Y0038943D01*
X0185311Y0037945D02*
X0014882Y0037945D01*
X0014882Y0038943D02*
X0018311Y0038943D01*
X0018379Y0038915D02*
X0016929Y0039516D01*
X0015819Y0040626D01*
X0015219Y0042076D01*
X0015219Y0057424D01*
X0015819Y0058874D01*
X0016929Y0059984D01*
X0018379Y0060585D01*
X0025854Y0060585D01*
X0027303Y0059984D01*
X0028413Y0058874D01*
X0029014Y0057424D01*
X0029014Y0042076D01*
X0028413Y0040626D01*
X0027303Y0039516D01*
X0025854Y0038915D01*
X0018379Y0038915D01*
X0016503Y0039942D02*
X0014882Y0039942D01*
X0014882Y0040940D02*
X0015689Y0040940D01*
X0015275Y0041939D02*
X0014882Y0041939D01*
X0014882Y0042937D02*
X0015219Y0042937D01*
X0015219Y0043936D02*
X0014882Y0043936D01*
X0014882Y0044934D02*
X0015219Y0044934D01*
X0015219Y0045933D02*
X0014882Y0045933D01*
X0014882Y0046932D02*
X0015219Y0046932D01*
X0015219Y0047930D02*
X0014882Y0047930D01*
X0014882Y0048929D02*
X0015219Y0048929D01*
X0015219Y0049927D02*
X0014882Y0049927D01*
X0014882Y0050926D02*
X0015219Y0050926D01*
X0015219Y0051924D02*
X0014882Y0051924D01*
X0014882Y0052923D02*
X0015219Y0052923D01*
X0015219Y0053921D02*
X0014882Y0053921D01*
X0014882Y0054920D02*
X0015219Y0054920D01*
X0015219Y0055918D02*
X0014882Y0055918D01*
X0014882Y0056917D02*
X0015219Y0056917D01*
X0015422Y0057915D02*
X0014882Y0057915D01*
X0014882Y0058914D02*
X0015858Y0058914D01*
X0014882Y0059912D02*
X0016857Y0059912D01*
X0014882Y0060911D02*
X0044718Y0060911D01*
X0043720Y0061909D02*
X0014882Y0061909D01*
X0014882Y0062908D02*
X0042721Y0062908D01*
X0041723Y0063906D02*
X0014882Y0063906D01*
X0014882Y0064905D02*
X0040724Y0064905D01*
X0039726Y0065903D02*
X0014882Y0065903D01*
X0014882Y0066902D02*
X0038727Y0066902D01*
X0037729Y0067900D02*
X0014882Y0067900D01*
X0014882Y0068899D02*
X0036730Y0068899D01*
X0037171Y0068458D02*
X0049421Y0056207D01*
X0048171Y0053189D01*
X0048171Y0049811D01*
X0049464Y0046690D01*
X0051853Y0044301D01*
X0054974Y0043008D01*
X0058353Y0043008D01*
X0061474Y0044301D01*
X0063863Y0046690D01*
X0065155Y0049811D01*
X0065155Y0053189D01*
X0063863Y0056310D01*
X0061474Y0058699D01*
X0058353Y0059992D01*
X0054974Y0059992D01*
X0051956Y0058742D01*
X0039705Y0070992D01*
X0039705Y0077551D01*
X0040148Y0077734D01*
X0041258Y0078844D01*
X0041858Y0080294D01*
X0041858Y0081863D01*
X0041258Y0083313D01*
X0040148Y0084423D01*
X0038698Y0085024D01*
X0037129Y0085024D01*
X0035679Y0084423D01*
X0034569Y0083313D01*
X0033969Y0081863D01*
X0033969Y0080294D01*
X0034569Y0078844D01*
X0035679Y0077734D01*
X0036121Y0077551D01*
X0036121Y0069508D01*
X0037171Y0068458D01*
X0036121Y0069897D02*
X0014882Y0069897D01*
X0014882Y0070896D02*
X0036121Y0070896D01*
X0036121Y0071894D02*
X0014882Y0071894D01*
X0014882Y0072893D02*
X0036121Y0072893D01*
X0036121Y0073891D02*
X0014882Y0073891D01*
X0014882Y0074890D02*
X0036121Y0074890D01*
X0036121Y0075888D02*
X0014882Y0075888D01*
X0014882Y0076887D02*
X0036121Y0076887D01*
X0035528Y0077885D02*
X0014882Y0077885D01*
X0014882Y0078884D02*
X0034553Y0078884D01*
X0034139Y0079882D02*
X0014882Y0079882D01*
X0014882Y0080881D02*
X0033969Y0080881D01*
X0033975Y0081879D02*
X0014882Y0081879D01*
X0014882Y0082878D02*
X0034389Y0082878D01*
X0035132Y0083876D02*
X0014882Y0083876D01*
X0014882Y0084875D02*
X0036770Y0084875D01*
X0039057Y0084875D02*
X0049180Y0084875D01*
X0048767Y0085873D02*
X0014882Y0085873D01*
X0014882Y0086872D02*
X0048353Y0086872D01*
X0048171Y0087870D02*
X0041858Y0087870D01*
X0041858Y0088869D02*
X0048171Y0088869D01*
X0049072Y0092863D02*
X0041858Y0092863D01*
X0041858Y0093862D02*
X0049515Y0093862D01*
X0050514Y0094860D02*
X0041283Y0094860D01*
X0034544Y0094860D02*
X0014882Y0094860D01*
X0014882Y0093862D02*
X0033969Y0093862D01*
X0033969Y0092863D02*
X0014882Y0092863D01*
X0014882Y0091865D02*
X0033969Y0091865D01*
X0033969Y0090866D02*
X0014882Y0090866D01*
X0014882Y0089868D02*
X0033969Y0089868D01*
X0033969Y0088869D02*
X0014882Y0088869D01*
X0014882Y0087870D02*
X0033969Y0087870D01*
X0040695Y0083876D02*
X0049777Y0083876D01*
X0050776Y0082878D02*
X0041438Y0082878D01*
X0041852Y0081879D02*
X0051774Y0081879D01*
X0054074Y0080881D02*
X0041858Y0080881D01*
X0041688Y0079882D02*
X0125987Y0079882D01*
X0125573Y0078884D02*
X0041274Y0078884D01*
X0040299Y0077885D02*
X0125619Y0077885D01*
X0126175Y0076887D02*
X0074448Y0076887D01*
X0077045Y0067900D02*
X0133339Y0067900D01*
X0132955Y0066902D02*
X0077045Y0066902D01*
X0076804Y0065903D02*
X0131956Y0065903D01*
X0130958Y0064905D02*
X0119825Y0064905D01*
X0119754Y0065011D02*
X0119424Y0065341D01*
X0119036Y0065600D01*
X0118605Y0065779D01*
X0118147Y0065870D01*
X0117913Y0065870D01*
X0117680Y0065870D01*
X0117222Y0065779D01*
X0116791Y0065600D01*
X0116403Y0065341D01*
X0116072Y0065011D01*
X0115813Y0064623D01*
X0115634Y0064191D01*
X0115543Y0063733D01*
X0115543Y0063500D01*
X0115543Y0063267D01*
X0115634Y0062809D01*
X0115813Y0062377D01*
X0116072Y0061989D01*
X0116403Y0061659D01*
X0116791Y0061400D01*
X0117222Y0061221D01*
X0117680Y0061130D01*
X0117913Y0061130D01*
X0117913Y0063500D01*
X0115543Y0063500D01*
X0117913Y0063500D01*
X0117913Y0063500D01*
X0117913Y0065870D01*
X0117913Y0063500D01*
X0117913Y0063500D01*
X0117913Y0063500D01*
X0117913Y0061130D01*
X0118147Y0061130D01*
X0118605Y0061221D01*
X0119036Y0061400D01*
X0119424Y0061659D01*
X0119754Y0061989D01*
X0120014Y0062377D01*
X0120192Y0062809D01*
X0120283Y0063267D01*
X0120283Y0063500D01*
X0120283Y0063733D01*
X0120192Y0064191D01*
X0120014Y0064623D01*
X0119754Y0065011D01*
X0120249Y0063906D02*
X0129959Y0063906D01*
X0128961Y0062908D02*
X0120212Y0062908D01*
X0120283Y0063500D02*
X0117914Y0063500D01*
X0120283Y0063500D01*
X0119674Y0061909D02*
X0127962Y0061909D01*
X0126964Y0060911D02*
X0049787Y0060911D01*
X0048789Y0061909D02*
X0096152Y0061909D01*
X0096072Y0061989D02*
X0096403Y0061659D01*
X0096791Y0061400D01*
X0097222Y0061221D01*
X0097680Y0061130D01*
X0097913Y0061130D01*
X0097913Y0063500D01*
X0095543Y0063500D01*
X0095543Y0063267D01*
X0095634Y0062809D01*
X0095813Y0062377D01*
X0096072Y0061989D01*
X0095615Y0062908D02*
X0047790Y0062908D01*
X0046792Y0063906D02*
X0057133Y0063906D01*
X0056107Y0064905D02*
X0045793Y0064905D01*
X0044795Y0065903D02*
X0055617Y0065903D01*
X0055376Y0066902D02*
X0043796Y0066902D01*
X0042798Y0067900D02*
X0055376Y0067900D01*
X0055376Y0068899D02*
X0041799Y0068899D01*
X0040801Y0069897D02*
X0055376Y0069897D01*
X0055376Y0070896D02*
X0039802Y0070896D01*
X0039705Y0071894D02*
X0055376Y0071894D01*
X0055376Y0072893D02*
X0039705Y0072893D01*
X0039705Y0073891D02*
X0055376Y0073891D01*
X0055761Y0074890D02*
X0039705Y0074890D01*
X0039705Y0075888D02*
X0056455Y0075888D01*
X0057973Y0076887D02*
X0039705Y0076887D01*
X0065155Y0088869D02*
X0151626Y0088869D01*
X0151626Y0089868D02*
X0065155Y0089868D01*
X0065082Y0090866D02*
X0157413Y0090866D01*
X0157413Y0091500D02*
X0151626Y0091500D01*
X0151626Y0093604D01*
X0155309Y0097287D01*
X0157413Y0097287D01*
X0157413Y0091500D01*
X0157413Y0091865D02*
X0158413Y0091865D01*
X0158413Y0092863D02*
X0157413Y0092863D01*
X0157413Y0093862D02*
X0158413Y0093862D01*
X0158413Y0094860D02*
X0157413Y0094860D01*
X0157413Y0095859D02*
X0158413Y0095859D01*
X0158413Y0096857D02*
X0157413Y0096857D01*
X0154879Y0096857D02*
X0059886Y0096857D01*
X0061814Y0095859D02*
X0153880Y0095859D01*
X0152882Y0094860D02*
X0062813Y0094860D01*
X0063811Y0093862D02*
X0151883Y0093862D01*
X0151626Y0092863D02*
X0064255Y0092863D01*
X0064669Y0091865D02*
X0151626Y0091865D01*
X0152151Y0087870D02*
X0138130Y0087870D01*
X0138868Y0086872D02*
X0153150Y0086872D01*
X0154148Y0085873D02*
X0139033Y0085873D01*
X0138762Y0084875D02*
X0155147Y0084875D01*
X0157413Y0084875D02*
X0158413Y0084875D01*
X0158413Y0085873D02*
X0157413Y0085873D01*
X0157413Y0086872D02*
X0158413Y0086872D01*
X0158413Y0087870D02*
X0157413Y0087870D01*
X0157413Y0088869D02*
X0158413Y0088869D01*
X0158413Y0089868D02*
X0157413Y0089868D01*
X0158413Y0090866D02*
X0199845Y0090866D01*
X0203482Y0090866D02*
X0203595Y0090866D01*
X0210982Y0090866D02*
X0211095Y0090866D01*
X0224163Y0087250D02*
X0224163Y0079750D01*
X0231663Y0077250D02*
X0231663Y0094750D01*
X0234163Y0092250D02*
X0234163Y0078500D01*
X0235413Y0077250D01*
X0233841Y0075888D02*
X0232412Y0075888D01*
X0233155Y0076887D02*
X0233339Y0076887D01*
X0231413Y0074890D02*
X0270768Y0074890D01*
X0270766Y0075888D02*
X0236986Y0075888D01*
X0237488Y0076887D02*
X0270764Y0076887D01*
X0270762Y0077885D02*
X0237488Y0077885D01*
X0236714Y0078884D02*
X0270760Y0078884D01*
X0270758Y0079882D02*
X0235655Y0079882D01*
X0235655Y0080881D02*
X0270756Y0080881D01*
X0270754Y0081879D02*
X0235655Y0081879D01*
X0235655Y0082878D02*
X0270752Y0082878D01*
X0270750Y0083876D02*
X0235655Y0083876D01*
X0235655Y0084875D02*
X0270748Y0084875D01*
X0270746Y0085873D02*
X0235655Y0085873D01*
X0235655Y0086872D02*
X0270744Y0086872D01*
X0270742Y0087870D02*
X0235655Y0087870D01*
X0235655Y0088869D02*
X0270740Y0088869D01*
X0270738Y0089868D02*
X0270154Y0089868D01*
X0268053Y0089868D02*
X0267774Y0089868D01*
X0267774Y0090866D02*
X0268053Y0090866D01*
X0268053Y0091865D02*
X0267774Y0091865D01*
X0267774Y0092863D02*
X0268053Y0092863D01*
X0268053Y0093862D02*
X0267774Y0093862D01*
X0267774Y0094860D02*
X0268053Y0094860D01*
X0268053Y0095859D02*
X0267774Y0095859D01*
X0267774Y0096140D02*
X0267774Y0100860D01*
X0268053Y0100860D01*
X0268053Y0097793D01*
X0268053Y0096140D01*
X0267774Y0096140D01*
X0267774Y0096857D02*
X0268053Y0096857D01*
X0268053Y0097856D02*
X0267774Y0097856D01*
X0267774Y0098854D02*
X0268053Y0098854D01*
X0268053Y0099853D02*
X0267774Y0099853D01*
X0267774Y0100851D02*
X0268053Y0100851D01*
X0268053Y0101850D02*
X0267774Y0101850D01*
X0267774Y0102848D02*
X0268053Y0102848D01*
X0268053Y0103847D02*
X0267774Y0103847D01*
X0267774Y0104845D02*
X0268053Y0104845D01*
X0268053Y0105844D02*
X0267774Y0105844D01*
X0267774Y0106842D02*
X0268053Y0106842D01*
X0268053Y0107841D02*
X0267774Y0107841D01*
X0266782Y0107841D02*
X0254456Y0107841D01*
X0255374Y0106842D02*
X0260800Y0106842D01*
X0260178Y0105844D02*
X0256085Y0105844D01*
X0256633Y0104845D02*
X0260002Y0104845D01*
X0260002Y0103847D02*
X0257047Y0103847D01*
X0257344Y0102848D02*
X0260002Y0102848D01*
X0260002Y0101850D02*
X0257535Y0101850D01*
X0257621Y0099853D02*
X0260237Y0099853D01*
X0260002Y0100851D02*
X0247980Y0100851D01*
X0247980Y0101850D02*
X0246980Y0101850D01*
X0246980Y0102848D02*
X0247980Y0102848D01*
X0247980Y0103847D02*
X0246980Y0103847D01*
X0246980Y0104845D02*
X0247980Y0104845D01*
X0247980Y0105844D02*
X0246980Y0105844D01*
X0246980Y0106842D02*
X0247980Y0106842D01*
X0247980Y0107841D02*
X0246980Y0107841D01*
X0246980Y0108839D02*
X0247980Y0108839D01*
X0247980Y0109838D02*
X0246980Y0109838D01*
X0251408Y0109838D02*
X0270699Y0109838D01*
X0270701Y0108839D02*
X0253228Y0108839D01*
X0242913Y0116000D02*
X0224163Y0116000D01*
X0222089Y0115829D02*
X0161559Y0115829D01*
X0162557Y0114830D02*
X0222399Y0114830D01*
X0222089Y0116827D02*
X0159503Y0116827D01*
X0156324Y0116827D02*
X0099175Y0116827D01*
X0098773Y0116425D02*
X0099988Y0117641D01*
X0099988Y0119359D01*
X0099405Y0119942D01*
X0099405Y0129558D01*
X0099988Y0130141D01*
X0099988Y0131859D01*
X0098773Y0133075D01*
X0097054Y0133075D01*
X0095839Y0131859D01*
X0095839Y0130141D01*
X0096421Y0129558D01*
X0096421Y0119942D01*
X0095839Y0119359D01*
X0095839Y0117641D01*
X0097054Y0116425D01*
X0098773Y0116425D01*
X0099988Y0117826D02*
X0223055Y0117826D01*
X0222406Y0119823D02*
X0099525Y0119823D01*
X0099405Y0120821D02*
X0222089Y0120821D01*
X0222089Y0121820D02*
X0099405Y0121820D01*
X0099405Y0122818D02*
X0223048Y0122818D01*
X0222414Y0124815D02*
X0099405Y0124815D01*
X0099405Y0123817D02*
X0237141Y0123817D01*
X0236776Y0122818D02*
X0225279Y0122818D01*
X0224163Y0121000D02*
X0242913Y0121000D01*
X0237133Y0118824D02*
X0099988Y0118824D01*
X0097913Y0118500D02*
X0097913Y0131000D01*
X0095839Y0130806D02*
X0072783Y0130806D01*
X0072783Y0130767D02*
X0072783Y0131000D01*
X0072783Y0131233D01*
X0072692Y0131691D01*
X0072514Y0132123D01*
X0072254Y0132511D01*
X0071924Y0132841D01*
X0071536Y0133100D01*
X0071105Y0133279D01*
X0070647Y0133370D01*
X0070413Y0133370D01*
X0070180Y0133370D01*
X0069722Y0133279D01*
X0069291Y0133100D01*
X0068903Y0132841D01*
X0068572Y0132511D01*
X0068313Y0132123D01*
X0068134Y0131691D01*
X0068043Y0131233D01*
X0068043Y0131000D01*
X0068043Y0130767D01*
X0068134Y0130309D01*
X0068313Y0129877D01*
X0068572Y0129489D01*
X0068903Y0129159D01*
X0069291Y0128900D01*
X0069722Y0128721D01*
X0070180Y0128630D01*
X0070413Y0128630D01*
X0070413Y0131000D01*
X0068043Y0131000D01*
X0070413Y0131000D01*
X0070413Y0131000D01*
X0070413Y0133370D01*
X0070413Y0131000D01*
X0070413Y0131000D01*
X0070413Y0131000D01*
X0070413Y0128630D01*
X0070647Y0128630D01*
X0071105Y0128721D01*
X0071536Y0128900D01*
X0071924Y0129159D01*
X0072254Y0129489D01*
X0072514Y0129877D01*
X0072692Y0130309D01*
X0072783Y0130767D01*
X0072783Y0131000D02*
X0070414Y0131000D01*
X0072783Y0131000D01*
X0072645Y0131805D02*
X0095839Y0131805D01*
X0096783Y0132803D02*
X0071962Y0132803D01*
X0070413Y0132803D02*
X0070413Y0132803D01*
X0070413Y0131805D02*
X0070413Y0131805D01*
X0070414Y0131000D02*
X0070414Y0131000D01*
X0070413Y0130806D02*
X0070413Y0130806D01*
X0070413Y0129808D02*
X0070413Y0129808D01*
X0070413Y0128809D02*
X0070413Y0128809D01*
X0069509Y0128809D02*
X0026136Y0128809D01*
X0026148Y0128792D02*
X0025748Y0129389D01*
X0025240Y0129898D01*
X0024642Y0130297D01*
X0023978Y0130572D01*
X0023273Y0130713D01*
X0023201Y0130713D01*
X0023201Y0127350D01*
X0026563Y0127350D01*
X0026563Y0127422D01*
X0026423Y0128128D01*
X0026148Y0128792D01*
X0026486Y0127811D02*
X0096421Y0127811D01*
X0096421Y0128809D02*
X0071318Y0128809D01*
X0072467Y0129808D02*
X0096171Y0129808D01*
X0099405Y0128809D02*
X0237148Y0128809D01*
X0236768Y0127811D02*
X0225287Y0127811D01*
X0224163Y0126000D02*
X0242913Y0126000D01*
X0242913Y0131000D02*
X0224163Y0131000D01*
X0222089Y0130806D02*
X0099988Y0130806D01*
X0099988Y0131805D02*
X0222089Y0131805D01*
X0223033Y0132803D02*
X0099044Y0132803D01*
X0099656Y0129808D02*
X0222421Y0129808D01*
X0223040Y0127811D02*
X0099405Y0127811D01*
X0099405Y0126812D02*
X0222089Y0126812D01*
X0222089Y0125814D02*
X0099405Y0125814D01*
X0096421Y0125814D02*
X0026346Y0125814D01*
X0026423Y0125998D02*
X0026563Y0126704D01*
X0026563Y0126776D01*
X0023201Y0126776D01*
X0023201Y0127350D01*
X0022626Y0127350D01*
X0022626Y0126776D01*
X0019264Y0126776D01*
X0019264Y0126704D01*
X0019404Y0125998D01*
X0019679Y0125334D01*
X0020079Y0124737D01*
X0020587Y0124228D01*
X0021185Y0123829D01*
X0021849Y0123554D01*
X0022554Y0123413D01*
X0022626Y0123413D01*
X0022626Y0126776D01*
X0023201Y0126776D01*
X0023201Y0123413D01*
X0023273Y0123413D01*
X0023978Y0123554D01*
X0024642Y0123829D01*
X0025240Y0124228D01*
X0025748Y0124737D01*
X0026148Y0125334D01*
X0026423Y0125998D01*
X0025801Y0124815D02*
X0096421Y0124815D01*
X0096421Y0123817D02*
X0024613Y0123817D01*
X0023201Y0123817D02*
X0022626Y0123817D01*
X0022626Y0124815D02*
X0023201Y0124815D01*
X0023201Y0125814D02*
X0022626Y0125814D01*
X0022626Y0126812D02*
X0014882Y0126812D01*
X0014882Y0125814D02*
X0019480Y0125814D01*
X0020026Y0124815D02*
X0014882Y0124815D01*
X0014882Y0123817D02*
X0021213Y0123817D01*
X0023201Y0126812D02*
X0096421Y0126812D01*
X0096421Y0122818D02*
X0014882Y0122818D01*
X0014882Y0121820D02*
X0096421Y0121820D01*
X0096421Y0120821D02*
X0014882Y0120821D01*
X0014882Y0119823D02*
X0096302Y0119823D01*
X0095839Y0118824D02*
X0014882Y0118824D01*
X0014882Y0117826D02*
X0095839Y0117826D01*
X0096652Y0116827D02*
X0014882Y0116827D01*
X0014882Y0115829D02*
X0154268Y0115829D01*
X0153270Y0114830D02*
X0014882Y0114830D01*
X0014882Y0113832D02*
X0152601Y0113832D01*
X0152187Y0112833D02*
X0014882Y0112833D01*
X0014882Y0111835D02*
X0151921Y0111835D01*
X0151921Y0110836D02*
X0059567Y0110836D01*
X0059397Y0110870D02*
X0059163Y0110870D01*
X0058930Y0110870D01*
X0058472Y0110779D01*
X0058041Y0110600D01*
X0057653Y0110341D01*
X0057322Y0110011D01*
X0057063Y0109623D01*
X0056884Y0109191D01*
X0056793Y0108733D01*
X0056793Y0108500D01*
X0056793Y0108267D01*
X0056884Y0107809D01*
X0057063Y0107377D01*
X0057322Y0106989D01*
X0057653Y0106659D01*
X0058041Y0106400D01*
X0058472Y0106221D01*
X0058930Y0106130D01*
X0059163Y0106130D01*
X0059163Y0108500D01*
X0056793Y0108500D01*
X0059163Y0108500D01*
X0059163Y0108500D01*
X0059163Y0110870D01*
X0059163Y0108500D01*
X0059163Y0108500D01*
X0059163Y0108500D01*
X0059163Y0106130D01*
X0059397Y0106130D01*
X0059855Y0106221D01*
X0060286Y0106400D01*
X0060674Y0106659D01*
X0061004Y0106989D01*
X0061264Y0107377D01*
X0061442Y0107809D01*
X0061533Y0108267D01*
X0061533Y0108500D01*
X0061533Y0108733D01*
X0061442Y0109191D01*
X0061264Y0109623D01*
X0061004Y0110011D01*
X0060674Y0110341D01*
X0060286Y0110600D01*
X0059855Y0110779D01*
X0059397Y0110870D01*
X0059163Y0110836D02*
X0059163Y0110836D01*
X0058760Y0110836D02*
X0014882Y0110836D01*
X0014882Y0109838D02*
X0057207Y0109838D01*
X0056814Y0108839D02*
X0014882Y0108839D01*
X0014882Y0107841D02*
X0056878Y0107841D01*
X0057469Y0106842D02*
X0014882Y0106842D01*
X0014882Y0105844D02*
X0154704Y0105844D01*
X0153597Y0106842D02*
X0060857Y0106842D01*
X0061449Y0107841D02*
X0152736Y0107841D01*
X0152323Y0108839D02*
X0061512Y0108839D01*
X0061533Y0108500D02*
X0059164Y0108500D01*
X0059164Y0108500D01*
X0061533Y0108500D01*
X0061120Y0109838D02*
X0151921Y0109838D01*
X0163226Y0113832D02*
X0237126Y0113832D01*
X0236783Y0117826D02*
X0225272Y0117826D01*
X0225294Y0132803D02*
X0236761Y0132803D01*
X0237155Y0133802D02*
X0026268Y0133802D01*
X0026268Y0132803D02*
X0068865Y0132803D01*
X0068181Y0131805D02*
X0025909Y0131805D01*
X0025687Y0131583D02*
X0026268Y0132164D01*
X0026268Y0137710D01*
X0025687Y0138291D01*
X0020140Y0138291D01*
X0019559Y0137710D01*
X0019559Y0132164D01*
X0020140Y0131583D01*
X0025687Y0131583D01*
X0025330Y0129808D02*
X0068359Y0129808D01*
X0068043Y0130806D02*
X0014882Y0130806D01*
X0014882Y0129808D02*
X0020497Y0129808D01*
X0020587Y0129898D02*
X0020079Y0129389D01*
X0019679Y0128792D01*
X0019404Y0128128D01*
X0019264Y0127422D01*
X0019264Y0127350D01*
X0022626Y0127350D01*
X0022626Y0130713D01*
X0022554Y0130713D01*
X0021849Y0130572D01*
X0021185Y0130297D01*
X0020587Y0129898D01*
X0019691Y0128809D02*
X0014882Y0128809D01*
X0014882Y0127811D02*
X0019341Y0127811D01*
X0022626Y0127811D02*
X0023201Y0127811D01*
X0023201Y0128809D02*
X0022626Y0128809D01*
X0022626Y0129808D02*
X0023201Y0129808D01*
X0019918Y0131805D02*
X0014882Y0131805D01*
X0014882Y0132803D02*
X0019559Y0132803D01*
X0019559Y0133802D02*
X0014882Y0133802D01*
X0014882Y0134801D02*
X0019559Y0134801D01*
X0019559Y0135799D02*
X0014882Y0135799D01*
X0014882Y0136798D02*
X0019559Y0136798D01*
X0019645Y0137796D02*
X0014882Y0137796D01*
X0014882Y0138795D02*
X0237163Y0138795D01*
X0236753Y0137796D02*
X0026182Y0137796D01*
X0026268Y0136798D02*
X0236254Y0136798D01*
X0236163Y0135799D02*
X0026268Y0135799D01*
X0026268Y0134801D02*
X0236420Y0134801D01*
X0236423Y0139793D02*
X0095931Y0139793D01*
X0096476Y0139829D02*
X0098834Y0140139D01*
X0101167Y0140603D01*
X0103464Y0141219D01*
X0105716Y0141983D01*
X0107914Y0142894D01*
X0110047Y0143945D01*
X0112107Y0145135D01*
X0114084Y0146456D01*
X0115971Y0147904D01*
X0117759Y0149472D01*
X0119441Y0151154D01*
X0121009Y0152942D01*
X0122457Y0154829D01*
X0123779Y0156807D01*
X0124968Y0158866D01*
X0126020Y0161000D01*
X0126930Y0163197D01*
X0127695Y0165449D01*
X0128310Y0167747D01*
X0128487Y0168637D01*
X0129179Y0166968D01*
X0130732Y0165415D01*
X0132760Y0164575D01*
X0134956Y0164575D01*
X0136985Y0165415D01*
X0138538Y0166968D01*
X0139378Y0168997D01*
X0139378Y0171192D01*
X0138538Y0173221D01*
X0136985Y0174774D01*
X0134956Y0175614D01*
X0132760Y0175614D01*
X0130732Y0174774D01*
X0129179Y0173221D01*
X0129128Y0173098D01*
X0129240Y0174811D01*
X0129240Y0175500D01*
X0093413Y0175500D01*
X0093413Y0139673D01*
X0094103Y0139673D01*
X0096476Y0139829D01*
X0093413Y0139793D02*
X0092413Y0139793D01*
X0092413Y0139673D02*
X0092413Y0175500D01*
X0056587Y0175500D01*
X0056587Y0174811D01*
X0056699Y0173098D01*
X0056648Y0173221D01*
X0055095Y0174774D01*
X0053066Y0175614D01*
X0050871Y0175614D01*
X0048842Y0174774D01*
X0047289Y0173221D01*
X0046449Y0171192D01*
X0046449Y0168997D01*
X0047289Y0166968D01*
X0048842Y0165415D01*
X0050871Y0164575D01*
X0053066Y0164575D01*
X0055095Y0165415D01*
X0056648Y0166968D01*
X0057339Y0168637D01*
X0057517Y0167747D01*
X0058132Y0165449D01*
X0058897Y0163197D01*
X0059807Y0161000D01*
X0060859Y0158866D01*
X0062048Y0156807D01*
X0063369Y0154829D01*
X0064817Y0152942D01*
X0066386Y0151154D01*
X0068067Y0149472D01*
X0069856Y0147904D01*
X0071743Y0146456D01*
X0073720Y0145135D01*
X0075780Y0143945D01*
X0077913Y0142894D01*
X0080110Y0141983D01*
X0082363Y0141219D01*
X0084660Y0140603D01*
X0086993Y0140139D01*
X0089351Y0139829D01*
X0091724Y0139673D01*
X0092413Y0139673D01*
X0092413Y0140792D02*
X0093413Y0140792D01*
X0093413Y0141790D02*
X0092413Y0141790D01*
X0092413Y0142789D02*
X0093413Y0142789D01*
X0093413Y0143787D02*
X0092413Y0143787D01*
X0092413Y0144786D02*
X0093413Y0144786D01*
X0093413Y0145784D02*
X0092413Y0145784D01*
X0092413Y0146783D02*
X0093413Y0146783D01*
X0093413Y0147781D02*
X0092413Y0147781D01*
X0092413Y0148780D02*
X0093413Y0148780D01*
X0093413Y0149778D02*
X0092413Y0149778D01*
X0092413Y0150777D02*
X0093413Y0150777D01*
X0093413Y0151775D02*
X0092413Y0151775D01*
X0092413Y0152774D02*
X0093413Y0152774D01*
X0093413Y0153772D02*
X0092413Y0153772D01*
X0092413Y0154771D02*
X0093413Y0154771D01*
X0093413Y0155769D02*
X0092413Y0155769D01*
X0092413Y0156768D02*
X0093413Y0156768D01*
X0093413Y0157766D02*
X0092413Y0157766D01*
X0092413Y0158765D02*
X0093413Y0158765D01*
X0093413Y0159763D02*
X0092413Y0159763D01*
X0092413Y0160762D02*
X0093413Y0160762D01*
X0093413Y0161760D02*
X0092413Y0161760D01*
X0092413Y0162759D02*
X0093413Y0162759D01*
X0093413Y0163757D02*
X0092413Y0163757D01*
X0092413Y0164756D02*
X0093413Y0164756D01*
X0093413Y0165754D02*
X0092413Y0165754D01*
X0092413Y0166753D02*
X0093413Y0166753D01*
X0093413Y0167751D02*
X0092413Y0167751D01*
X0092413Y0168750D02*
X0093413Y0168750D01*
X0093413Y0169748D02*
X0092413Y0169748D01*
X0092413Y0170747D02*
X0093413Y0170747D01*
X0093413Y0171745D02*
X0092413Y0171745D01*
X0092413Y0172744D02*
X0093413Y0172744D01*
X0093413Y0173742D02*
X0092413Y0173742D01*
X0092413Y0174741D02*
X0093413Y0174741D01*
X0093413Y0175500D02*
X0092413Y0175500D01*
X0092413Y0176500D01*
X0056587Y0176500D01*
X0056587Y0177189D01*
X0056730Y0179370D01*
X0056648Y0179173D01*
X0055095Y0177620D01*
X0053066Y0176780D01*
X0050871Y0176780D01*
X0048842Y0177620D01*
X0047289Y0179173D01*
X0046449Y0181201D01*
X0046449Y0183397D01*
X0047289Y0185426D01*
X0048842Y0186979D01*
X0050871Y0187819D01*
X0053066Y0187819D01*
X0055095Y0186979D01*
X0056648Y0185426D01*
X0057392Y0183629D01*
X0057517Y0184253D01*
X0058132Y0186551D01*
X0058897Y0188803D01*
X0059807Y0191000D01*
X0060859Y0193133D01*
X0062048Y0195193D01*
X0063369Y0197171D01*
X0064817Y0199058D01*
X0066386Y0200846D01*
X0068067Y0202528D01*
X0069856Y0204096D01*
X0071743Y0205544D01*
X0073720Y0206865D01*
X0075780Y0208055D01*
X0077913Y0209106D01*
X0080110Y0210017D01*
X0082363Y0210781D01*
X0084660Y0211397D01*
X0086993Y0211861D01*
X0089351Y0212171D01*
X0091724Y0212327D01*
X0092413Y0212327D01*
X0092413Y0176500D01*
X0093413Y0176500D01*
X0093413Y0212327D01*
X0094103Y0212327D01*
X0096476Y0212171D01*
X0098834Y0211861D01*
X0101167Y0211397D01*
X0103464Y0210781D01*
X0105716Y0210017D01*
X0107914Y0209106D01*
X0110047Y0208055D01*
X0112107Y0206865D01*
X0114084Y0205544D01*
X0115971Y0204096D01*
X0117759Y0202528D01*
X0119441Y0200846D01*
X0121009Y0199058D01*
X0122457Y0197171D01*
X0123779Y0195193D01*
X0124968Y0193133D01*
X0126020Y0191000D01*
X0126930Y0188803D01*
X0127695Y0186551D01*
X0128310Y0184253D01*
X0128434Y0183629D01*
X0129179Y0185426D01*
X0130732Y0186979D01*
X0132760Y0187819D01*
X0134956Y0187819D01*
X0136985Y0186979D01*
X0138538Y0185426D01*
X0139378Y0183397D01*
X0139378Y0181201D01*
X0138538Y0179173D01*
X0136985Y0177620D01*
X0134956Y0176780D01*
X0132760Y0176780D01*
X0130732Y0177620D01*
X0129179Y0179173D01*
X0129097Y0179370D01*
X0129240Y0177189D01*
X0129240Y0176500D01*
X0093413Y0176500D01*
X0093413Y0175500D01*
X0093413Y0175739D02*
X0176164Y0175739D01*
X0175714Y0176190D02*
X0178103Y0173801D01*
X0181224Y0172508D01*
X0184603Y0172508D01*
X0187724Y0173801D01*
X0190113Y0176190D01*
X0191405Y0179311D01*
X0191405Y0182689D01*
X0190113Y0185810D01*
X0187724Y0188199D01*
X0184603Y0189492D01*
X0181224Y0189492D01*
X0178103Y0188199D01*
X0175714Y0185810D01*
X0174421Y0182689D01*
X0174421Y0179311D01*
X0175714Y0176190D01*
X0175487Y0176738D02*
X0129240Y0176738D01*
X0129204Y0177737D02*
X0130615Y0177737D01*
X0129616Y0178735D02*
X0129139Y0178735D01*
X0129236Y0174741D02*
X0130699Y0174741D01*
X0129700Y0173742D02*
X0129170Y0173742D01*
X0128854Y0167751D02*
X0128311Y0167751D01*
X0128044Y0166753D02*
X0129394Y0166753D01*
X0130392Y0165754D02*
X0127776Y0165754D01*
X0127459Y0164756D02*
X0132323Y0164756D01*
X0135393Y0164756D02*
X0174242Y0164756D01*
X0174126Y0164640D02*
X0174126Y0161500D01*
X0182413Y0161500D01*
X0182413Y0160500D01*
X0174126Y0160500D01*
X0174126Y0157360D01*
X0179274Y0152213D01*
X0182413Y0152213D01*
X0182413Y0160500D01*
X0183413Y0160500D01*
X0183413Y0152213D01*
X0186553Y0152213D01*
X0191701Y0157360D01*
X0191701Y0160500D01*
X0183413Y0160500D01*
X0183413Y0161500D01*
X0182413Y0161500D01*
X0182413Y0169787D01*
X0179274Y0169787D01*
X0174126Y0164640D01*
X0174126Y0163757D02*
X0127120Y0163757D01*
X0126749Y0162759D02*
X0174126Y0162759D01*
X0174126Y0161760D02*
X0126335Y0161760D01*
X0125903Y0160762D02*
X0182413Y0160762D01*
X0182413Y0161760D02*
X0183413Y0161760D01*
X0183413Y0161500D02*
X0183413Y0169787D01*
X0186553Y0169787D01*
X0191701Y0164640D01*
X0191701Y0161500D01*
X0183413Y0161500D01*
X0183413Y0160762D02*
X0236163Y0160762D01*
X0236238Y0161760D02*
X0191701Y0161760D01*
X0191701Y0162759D02*
X0236716Y0162759D01*
X0238124Y0163757D02*
X0191701Y0163757D01*
X0191585Y0164756D02*
X0270591Y0164756D01*
X0270593Y0163757D02*
X0243864Y0163757D01*
X0245272Y0162759D02*
X0270595Y0162759D01*
X0270597Y0161760D02*
X0245750Y0161760D01*
X0245825Y0160762D02*
X0270599Y0160762D01*
X0270601Y0159763D02*
X0245552Y0159763D01*
X0244796Y0158765D02*
X0270603Y0158765D01*
X0270605Y0157766D02*
X0245264Y0157766D01*
X0245747Y0156768D02*
X0270606Y0156768D01*
X0270608Y0155769D02*
X0245825Y0155769D01*
X0245555Y0154771D02*
X0270610Y0154771D01*
X0270612Y0153772D02*
X0244803Y0153772D01*
X0245257Y0152774D02*
X0270614Y0152774D01*
X0270616Y0151775D02*
X0245744Y0151775D01*
X0245825Y0150777D02*
X0270618Y0150777D01*
X0270620Y0149778D02*
X0245559Y0149778D01*
X0244810Y0148780D02*
X0270622Y0148780D01*
X0270624Y0147781D02*
X0245250Y0147781D01*
X0245740Y0146783D02*
X0270626Y0146783D01*
X0270628Y0145784D02*
X0245825Y0145784D01*
X0245562Y0144786D02*
X0264401Y0144786D01*
X0262948Y0143787D02*
X0244818Y0143787D01*
X0245242Y0142789D02*
X0262410Y0142789D01*
X0262110Y0141790D02*
X0245737Y0141790D01*
X0245825Y0140792D02*
X0262059Y0140792D01*
X0262256Y0139793D02*
X0245565Y0139793D01*
X0244825Y0138795D02*
X0262583Y0138795D01*
X0263365Y0137796D02*
X0245235Y0137796D01*
X0236163Y0140792D02*
X0101870Y0140792D01*
X0105147Y0141790D02*
X0236251Y0141790D01*
X0236746Y0142789D02*
X0107660Y0142789D01*
X0109726Y0143787D02*
X0237170Y0143787D01*
X0236427Y0144786D02*
X0111502Y0144786D01*
X0113079Y0145784D02*
X0236163Y0145784D01*
X0236248Y0146783D02*
X0114510Y0146783D01*
X0115811Y0147781D02*
X0236739Y0147781D01*
X0237178Y0148780D02*
X0116970Y0148780D01*
X0118065Y0149778D02*
X0236430Y0149778D01*
X0236163Y0150777D02*
X0119064Y0150777D01*
X0119986Y0151775D02*
X0236245Y0151775D01*
X0236731Y0152774D02*
X0187114Y0152774D01*
X0188113Y0153772D02*
X0237185Y0153772D01*
X0236433Y0154771D02*
X0189111Y0154771D01*
X0190110Y0155769D02*
X0236163Y0155769D01*
X0236242Y0156768D02*
X0191108Y0156768D01*
X0191701Y0157766D02*
X0236724Y0157766D01*
X0237193Y0158765D02*
X0191701Y0158765D01*
X0191701Y0159763D02*
X0236436Y0159763D01*
X0231785Y0165754D02*
X0190586Y0165754D01*
X0189588Y0166753D02*
X0231800Y0166753D01*
X0231815Y0167751D02*
X0188589Y0167751D01*
X0187591Y0168750D02*
X0231830Y0168750D01*
X0231845Y0169748D02*
X0186592Y0169748D01*
X0183413Y0169748D02*
X0182413Y0169748D01*
X0182413Y0168750D02*
X0183413Y0168750D01*
X0183413Y0167751D02*
X0182413Y0167751D01*
X0182413Y0166753D02*
X0183413Y0166753D01*
X0183413Y0165754D02*
X0182413Y0165754D01*
X0182413Y0164756D02*
X0183413Y0164756D01*
X0183413Y0163757D02*
X0182413Y0163757D01*
X0182413Y0162759D02*
X0183413Y0162759D01*
X0183413Y0159763D02*
X0182413Y0159763D01*
X0182413Y0158765D02*
X0183413Y0158765D01*
X0183413Y0157766D02*
X0182413Y0157766D01*
X0182413Y0156768D02*
X0183413Y0156768D01*
X0183413Y0155769D02*
X0182413Y0155769D01*
X0182413Y0154771D02*
X0183413Y0154771D01*
X0183413Y0153772D02*
X0182413Y0153772D01*
X0182413Y0152774D02*
X0183413Y0152774D01*
X0178712Y0152774D02*
X0120862Y0152774D01*
X0121646Y0153772D02*
X0177714Y0153772D01*
X0176715Y0154771D02*
X0122412Y0154771D01*
X0123085Y0155769D02*
X0175717Y0155769D01*
X0174718Y0156768D02*
X0123753Y0156768D01*
X0124333Y0157766D02*
X0174126Y0157766D01*
X0174126Y0158765D02*
X0124909Y0158765D01*
X0125410Y0159763D02*
X0174126Y0159763D01*
X0175241Y0165754D02*
X0137324Y0165754D01*
X0138323Y0166753D02*
X0176239Y0166753D01*
X0177238Y0167751D02*
X0138862Y0167751D01*
X0139276Y0168750D02*
X0178236Y0168750D01*
X0179235Y0169748D02*
X0139378Y0169748D01*
X0139378Y0170747D02*
X0231860Y0170747D01*
X0231875Y0171745D02*
X0139149Y0171745D01*
X0138735Y0172744D02*
X0180654Y0172744D01*
X0178244Y0173742D02*
X0138016Y0173742D01*
X0137018Y0174741D02*
X0177163Y0174741D01*
X0175073Y0177737D02*
X0137102Y0177737D01*
X0138100Y0178735D02*
X0174660Y0178735D01*
X0174421Y0179734D02*
X0138770Y0179734D01*
X0139184Y0180732D02*
X0174421Y0180732D01*
X0174421Y0181731D02*
X0139378Y0181731D01*
X0139378Y0182729D02*
X0174438Y0182729D01*
X0174851Y0183728D02*
X0139241Y0183728D01*
X0138827Y0184726D02*
X0175265Y0184726D01*
X0175679Y0185725D02*
X0138239Y0185725D01*
X0137240Y0186723D02*
X0176627Y0186723D01*
X0177625Y0187722D02*
X0135191Y0187722D01*
X0132526Y0187722D02*
X0127297Y0187722D01*
X0126958Y0188720D02*
X0179360Y0188720D01*
X0186466Y0188720D02*
X0232128Y0188720D01*
X0232113Y0187722D02*
X0188201Y0187722D01*
X0189200Y0186723D02*
X0232098Y0186723D01*
X0232084Y0185725D02*
X0190148Y0185725D01*
X0190562Y0184726D02*
X0232069Y0184726D01*
X0232054Y0183728D02*
X0190975Y0183728D01*
X0191389Y0182729D02*
X0232039Y0182729D01*
X0232024Y0181731D02*
X0191405Y0181731D01*
X0191405Y0180732D02*
X0232009Y0180732D01*
X0231994Y0179734D02*
X0191405Y0179734D01*
X0191167Y0178735D02*
X0231979Y0178735D01*
X0231964Y0177737D02*
X0190753Y0177737D01*
X0190340Y0176738D02*
X0231949Y0176738D01*
X0231934Y0175739D02*
X0189663Y0175739D01*
X0188664Y0174741D02*
X0231919Y0174741D01*
X0231904Y0173742D02*
X0187583Y0173742D01*
X0185172Y0172744D02*
X0231890Y0172744D01*
X0232143Y0189719D02*
X0126551Y0189719D01*
X0126137Y0190717D02*
X0232158Y0190717D01*
X0232173Y0191716D02*
X0125667Y0191716D01*
X0125175Y0192714D02*
X0232188Y0192714D01*
X0232203Y0193713D02*
X0124634Y0193713D01*
X0124057Y0194711D02*
X0232218Y0194711D01*
X0232233Y0195710D02*
X0123434Y0195710D01*
X0122766Y0196708D02*
X0232248Y0196708D01*
X0232263Y0197707D02*
X0122046Y0197707D01*
X0121280Y0198705D02*
X0232278Y0198705D01*
X0232293Y0199704D02*
X0120443Y0199704D01*
X0119567Y0200702D02*
X0232307Y0200702D01*
X0232322Y0201701D02*
X0118586Y0201701D01*
X0117564Y0202699D02*
X0232337Y0202699D01*
X0232352Y0203698D02*
X0116425Y0203698D01*
X0115189Y0204696D02*
X0232367Y0204696D01*
X0232382Y0205695D02*
X0113858Y0205695D01*
X0112364Y0206693D02*
X0232397Y0206693D01*
X0232412Y0207692D02*
X0110675Y0207692D01*
X0108758Y0208690D02*
X0232427Y0208690D01*
X0232442Y0209689D02*
X0106508Y0209689D01*
X0103740Y0210687D02*
X0232457Y0210687D01*
X0232472Y0211686D02*
X0099713Y0211686D01*
X0093413Y0211686D02*
X0092413Y0211686D01*
X0092413Y0210687D02*
X0093413Y0210687D01*
X0093413Y0209689D02*
X0092413Y0209689D01*
X0092413Y0208690D02*
X0093413Y0208690D01*
X0093413Y0207692D02*
X0092413Y0207692D01*
X0092413Y0206693D02*
X0093413Y0206693D01*
X0093413Y0205695D02*
X0092413Y0205695D01*
X0092413Y0204696D02*
X0093413Y0204696D01*
X0093413Y0203698D02*
X0092413Y0203698D01*
X0092413Y0202699D02*
X0093413Y0202699D01*
X0093413Y0201701D02*
X0092413Y0201701D01*
X0092413Y0200702D02*
X0093413Y0200702D01*
X0093413Y0199704D02*
X0092413Y0199704D01*
X0092413Y0198705D02*
X0093413Y0198705D01*
X0093413Y0197707D02*
X0092413Y0197707D01*
X0092413Y0196708D02*
X0093413Y0196708D01*
X0093413Y0195710D02*
X0092413Y0195710D01*
X0092413Y0194711D02*
X0093413Y0194711D01*
X0093413Y0193713D02*
X0092413Y0193713D01*
X0092413Y0192714D02*
X0093413Y0192714D01*
X0093413Y0191716D02*
X0092413Y0191716D01*
X0092413Y0190717D02*
X0093413Y0190717D01*
X0093413Y0189719D02*
X0092413Y0189719D01*
X0092413Y0188720D02*
X0093413Y0188720D01*
X0093413Y0187722D02*
X0092413Y0187722D01*
X0092413Y0186723D02*
X0093413Y0186723D01*
X0093413Y0185725D02*
X0092413Y0185725D01*
X0092413Y0184726D02*
X0093413Y0184726D01*
X0093413Y0183728D02*
X0092413Y0183728D01*
X0092413Y0182729D02*
X0093413Y0182729D01*
X0093413Y0181731D02*
X0092413Y0181731D01*
X0092413Y0180732D02*
X0093413Y0180732D01*
X0093413Y0179734D02*
X0092413Y0179734D01*
X0092413Y0178735D02*
X0093413Y0178735D01*
X0093413Y0177737D02*
X0092413Y0177737D01*
X0092413Y0176738D02*
X0093413Y0176738D01*
X0092413Y0175739D02*
X0014882Y0175739D01*
X0014882Y0174741D02*
X0048809Y0174741D01*
X0047810Y0173742D02*
X0014882Y0173742D01*
X0014882Y0172744D02*
X0047091Y0172744D01*
X0046678Y0171745D02*
X0014882Y0171745D01*
X0014882Y0170747D02*
X0046449Y0170747D01*
X0046449Y0169748D02*
X0014882Y0169748D01*
X0014882Y0168750D02*
X0046551Y0168750D01*
X0046965Y0167751D02*
X0014882Y0167751D01*
X0014882Y0166753D02*
X0047504Y0166753D01*
X0048503Y0165754D02*
X0014882Y0165754D01*
X0014882Y0164756D02*
X0050433Y0164756D01*
X0053504Y0164756D02*
X0058368Y0164756D01*
X0058050Y0165754D02*
X0055434Y0165754D01*
X0056433Y0166753D02*
X0057783Y0166753D01*
X0057516Y0167751D02*
X0056972Y0167751D01*
X0058707Y0163757D02*
X0014882Y0163757D01*
X0014882Y0162759D02*
X0059078Y0162759D01*
X0059492Y0161760D02*
X0014882Y0161760D01*
X0014882Y0160762D02*
X0059924Y0160762D01*
X0060417Y0159763D02*
X0014882Y0159763D01*
X0014882Y0158765D02*
X0060918Y0158765D01*
X0061494Y0157766D02*
X0014882Y0157766D01*
X0014882Y0156768D02*
X0062074Y0156768D01*
X0062741Y0155769D02*
X0014882Y0155769D01*
X0014882Y0154771D02*
X0063414Y0154771D01*
X0064180Y0153772D02*
X0014882Y0153772D01*
X0014882Y0152774D02*
X0027585Y0152774D01*
X0027653Y0152841D02*
X0027322Y0152511D01*
X0027063Y0152123D01*
X0026884Y0151691D01*
X0026793Y0151233D01*
X0026793Y0151000D01*
X0026793Y0150767D01*
X0026884Y0150309D01*
X0027063Y0149877D01*
X0027322Y0149489D01*
X0027653Y0149159D01*
X0028041Y0148900D01*
X0028472Y0148721D01*
X0028930Y0148630D01*
X0029163Y0148630D01*
X0029163Y0151000D01*
X0026793Y0151000D01*
X0029163Y0151000D01*
X0029163Y0151000D01*
X0029163Y0153370D01*
X0028930Y0153370D01*
X0028472Y0153279D01*
X0028041Y0153100D01*
X0027653Y0152841D01*
X0026919Y0151775D02*
X0014882Y0151775D01*
X0014882Y0150777D02*
X0018467Y0150777D01*
X0018472Y0150779D02*
X0018041Y0150600D01*
X0017653Y0150341D01*
X0017322Y0150011D01*
X0017063Y0149623D01*
X0016884Y0149191D01*
X0016793Y0148733D01*
X0016793Y0148500D01*
X0016793Y0148267D01*
X0016884Y0147809D01*
X0017063Y0147377D01*
X0017322Y0146989D01*
X0017653Y0146659D01*
X0018041Y0146400D01*
X0018472Y0146221D01*
X0018930Y0146130D01*
X0019163Y0146130D01*
X0019163Y0148500D01*
X0016793Y0148500D01*
X0019163Y0148500D01*
X0019163Y0148500D01*
X0019163Y0150870D01*
X0018930Y0150870D01*
X0018472Y0150779D01*
X0019163Y0150777D02*
X0019163Y0150777D01*
X0019163Y0150870D02*
X0019397Y0150870D01*
X0019855Y0150779D01*
X0020286Y0150600D01*
X0020674Y0150341D01*
X0021004Y0150011D01*
X0021264Y0149623D01*
X0021442Y0149191D01*
X0021533Y0148733D01*
X0021533Y0148500D01*
X0019164Y0148500D01*
X0019164Y0148500D01*
X0021533Y0148500D01*
X0021533Y0148267D01*
X0021442Y0147809D01*
X0021264Y0147377D01*
X0021004Y0146989D01*
X0020674Y0146659D01*
X0020286Y0146400D01*
X0019855Y0146221D01*
X0019397Y0146130D01*
X0019163Y0146130D01*
X0019163Y0148500D01*
X0019163Y0148500D01*
X0019163Y0148500D01*
X0019163Y0150870D01*
X0019860Y0150777D02*
X0026793Y0150777D01*
X0027129Y0149778D02*
X0021160Y0149778D01*
X0021524Y0148780D02*
X0028330Y0148780D01*
X0029163Y0148780D02*
X0029163Y0148780D01*
X0029163Y0148630D02*
X0029397Y0148630D01*
X0029855Y0148721D01*
X0030286Y0148900D01*
X0030674Y0149159D01*
X0031004Y0149489D01*
X0031264Y0149877D01*
X0031442Y0150309D01*
X0031533Y0150767D01*
X0031533Y0151000D01*
X0031533Y0151233D01*
X0031442Y0151691D01*
X0031264Y0152123D01*
X0031004Y0152511D01*
X0030674Y0152841D01*
X0030286Y0153100D01*
X0029855Y0153279D01*
X0029397Y0153370D01*
X0029163Y0153370D01*
X0029163Y0151000D01*
X0029163Y0151000D01*
X0029163Y0151000D01*
X0029163Y0148630D01*
X0029996Y0148780D02*
X0068857Y0148780D01*
X0067761Y0149778D02*
X0031197Y0149778D01*
X0031533Y0150777D02*
X0066763Y0150777D01*
X0065841Y0151775D02*
X0031408Y0151775D01*
X0031533Y0151000D02*
X0029164Y0151000D01*
X0029164Y0151000D01*
X0031533Y0151000D01*
X0030741Y0152774D02*
X0064965Y0152774D01*
X0070016Y0147781D02*
X0021431Y0147781D01*
X0020798Y0146783D02*
X0071317Y0146783D01*
X0072748Y0145784D02*
X0014882Y0145784D01*
X0014882Y0144786D02*
X0074325Y0144786D01*
X0076101Y0143787D02*
X0014882Y0143787D01*
X0014882Y0142789D02*
X0078166Y0142789D01*
X0080680Y0141790D02*
X0014882Y0141790D01*
X0014882Y0140792D02*
X0083957Y0140792D01*
X0089896Y0139793D02*
X0014882Y0139793D01*
X0014882Y0146783D02*
X0017529Y0146783D01*
X0016896Y0147781D02*
X0014882Y0147781D01*
X0014882Y0148780D02*
X0016803Y0148780D01*
X0017167Y0149778D02*
X0014882Y0149778D01*
X0019163Y0149778D02*
X0019163Y0149778D01*
X0019163Y0148780D02*
X0019163Y0148780D01*
X0019163Y0147781D02*
X0019163Y0147781D01*
X0019163Y0146783D02*
X0019163Y0146783D01*
X0029163Y0149778D02*
X0029163Y0149778D01*
X0029163Y0150777D02*
X0029163Y0150777D01*
X0029163Y0151775D02*
X0029163Y0151775D01*
X0029163Y0152774D02*
X0029163Y0152774D01*
X0056127Y0173742D02*
X0056657Y0173742D01*
X0056591Y0174741D02*
X0055128Y0174741D01*
X0056587Y0176738D02*
X0014882Y0176738D01*
X0014882Y0177737D02*
X0048725Y0177737D01*
X0047727Y0178735D02*
X0014882Y0178735D01*
X0014882Y0179734D02*
X0047057Y0179734D01*
X0046643Y0180732D02*
X0014882Y0180732D01*
X0014882Y0181731D02*
X0046449Y0181731D01*
X0046449Y0182729D02*
X0014882Y0182729D01*
X0014882Y0183728D02*
X0046586Y0183728D01*
X0046999Y0184726D02*
X0014882Y0184726D01*
X0014882Y0185725D02*
X0047588Y0185725D01*
X0048586Y0186723D02*
X0014882Y0186723D01*
X0014882Y0187722D02*
X0027933Y0187722D01*
X0028041Y0187650D02*
X0028472Y0187471D01*
X0028930Y0187380D01*
X0029163Y0187380D01*
X0029163Y0189750D01*
X0026793Y0189750D01*
X0026793Y0189517D01*
X0026884Y0189059D01*
X0027063Y0188627D01*
X0027322Y0188239D01*
X0027653Y0187909D01*
X0028041Y0187650D01*
X0029163Y0187722D02*
X0029163Y0187722D01*
X0029163Y0187380D02*
X0029397Y0187380D01*
X0029855Y0187471D01*
X0030286Y0187650D01*
X0030674Y0187909D01*
X0031004Y0188239D01*
X0031264Y0188627D01*
X0031442Y0189059D01*
X0031533Y0189517D01*
X0031533Y0189750D01*
X0031533Y0189983D01*
X0031442Y0190441D01*
X0031264Y0190873D01*
X0031004Y0191261D01*
X0030674Y0191591D01*
X0030286Y0191850D01*
X0029855Y0192029D01*
X0029397Y0192120D01*
X0029163Y0192120D01*
X0028930Y0192120D01*
X0028472Y0192029D01*
X0028041Y0191850D01*
X0027653Y0191591D01*
X0027322Y0191261D01*
X0027063Y0190873D01*
X0026884Y0190441D01*
X0026793Y0189983D01*
X0026793Y0189750D01*
X0029163Y0189750D01*
X0029163Y0189750D01*
X0029163Y0192120D01*
X0029163Y0189750D01*
X0029163Y0189750D01*
X0029163Y0189750D01*
X0029163Y0187380D01*
X0030394Y0187722D02*
X0050636Y0187722D01*
X0053301Y0187722D02*
X0058530Y0187722D01*
X0058869Y0188720D02*
X0031302Y0188720D01*
X0031533Y0189719D02*
X0059276Y0189719D01*
X0059690Y0190717D02*
X0031328Y0190717D01*
X0031533Y0189750D02*
X0029164Y0189750D01*
X0029164Y0189750D01*
X0031533Y0189750D01*
X0030488Y0191716D02*
X0060160Y0191716D01*
X0060652Y0192714D02*
X0021488Y0192714D01*
X0021442Y0192941D02*
X0021264Y0193373D01*
X0021004Y0193761D01*
X0020674Y0194091D01*
X0020286Y0194350D01*
X0019855Y0194529D01*
X0019397Y0194620D01*
X0019163Y0194620D01*
X0018930Y0194620D01*
X0018472Y0194529D01*
X0018041Y0194350D01*
X0017653Y0194091D01*
X0017322Y0193761D01*
X0017063Y0193373D01*
X0016884Y0192941D01*
X0016793Y0192483D01*
X0016793Y0192250D01*
X0016793Y0192017D01*
X0016884Y0191559D01*
X0017063Y0191127D01*
X0017322Y0190739D01*
X0017653Y0190409D01*
X0018041Y0190150D01*
X0018472Y0189971D01*
X0018930Y0189880D01*
X0019163Y0189880D01*
X0019163Y0192250D01*
X0016793Y0192250D01*
X0019163Y0192250D01*
X0019163Y0192250D01*
X0019163Y0194620D01*
X0019163Y0192250D01*
X0019163Y0192250D01*
X0019163Y0192250D01*
X0019163Y0189880D01*
X0019397Y0189880D01*
X0019855Y0189971D01*
X0020286Y0190150D01*
X0020674Y0190409D01*
X0021004Y0190739D01*
X0021264Y0191127D01*
X0021442Y0191559D01*
X0021533Y0192017D01*
X0021533Y0192250D01*
X0021533Y0192483D01*
X0021442Y0192941D01*
X0021533Y0192250D02*
X0019164Y0192250D01*
X0019164Y0192250D01*
X0021533Y0192250D01*
X0021474Y0191716D02*
X0027839Y0191716D01*
X0026999Y0190717D02*
X0020982Y0190717D01*
X0019163Y0190717D02*
X0019163Y0190717D01*
X0019163Y0191716D02*
X0019163Y0191716D01*
X0019163Y0192714D02*
X0019163Y0192714D01*
X0019163Y0193713D02*
X0019163Y0193713D01*
X0017290Y0193713D02*
X0014882Y0193713D01*
X0014882Y0194711D02*
X0061770Y0194711D01*
X0061193Y0193713D02*
X0021037Y0193713D01*
X0026793Y0189719D02*
X0014882Y0189719D01*
X0014882Y0190717D02*
X0017344Y0190717D01*
X0016853Y0191716D02*
X0014882Y0191716D01*
X0014882Y0192714D02*
X0016839Y0192714D01*
X0014882Y0195710D02*
X0062393Y0195710D01*
X0063060Y0196708D02*
X0014882Y0196708D01*
X0014882Y0197707D02*
X0063781Y0197707D01*
X0064547Y0198705D02*
X0014882Y0198705D01*
X0014882Y0199704D02*
X0065384Y0199704D01*
X0066260Y0200702D02*
X0028355Y0200702D01*
X0028104Y0200598D02*
X0030712Y0201678D01*
X0032707Y0203674D01*
X0033787Y0206282D01*
X0033787Y0209104D01*
X0032707Y0211712D01*
X0030712Y0213707D01*
X0028104Y0214787D01*
X0025282Y0214787D01*
X0022674Y0213707D01*
X0020678Y0211712D01*
X0019598Y0209104D01*
X0019598Y0206282D01*
X0020678Y0203674D01*
X0022674Y0201678D01*
X0025282Y0200598D01*
X0028104Y0200598D01*
X0030734Y0201701D02*
X0067240Y0201701D01*
X0068263Y0202699D02*
X0031732Y0202699D01*
X0032717Y0203698D02*
X0069402Y0203698D01*
X0070638Y0204696D02*
X0033131Y0204696D01*
X0033544Y0205695D02*
X0071968Y0205695D01*
X0073463Y0206693D02*
X0033787Y0206693D01*
X0033787Y0207692D02*
X0075152Y0207692D01*
X0077069Y0208690D02*
X0033787Y0208690D01*
X0033545Y0209689D02*
X0079319Y0209689D01*
X0082086Y0210687D02*
X0033132Y0210687D01*
X0032718Y0211686D02*
X0086114Y0211686D01*
X0058191Y0186723D02*
X0055351Y0186723D01*
X0056349Y0185725D02*
X0057911Y0185725D01*
X0057643Y0184726D02*
X0056938Y0184726D01*
X0057351Y0183728D02*
X0057412Y0183728D01*
X0056688Y0178735D02*
X0056210Y0178735D01*
X0056622Y0177737D02*
X0055212Y0177737D01*
X0029163Y0188720D02*
X0029163Y0188720D01*
X0029163Y0189719D02*
X0029163Y0189719D01*
X0029163Y0190717D02*
X0029163Y0190717D01*
X0029163Y0191716D02*
X0029163Y0191716D01*
X0027025Y0188720D02*
X0014882Y0188720D01*
X0014882Y0200702D02*
X0025031Y0200702D01*
X0022652Y0201701D02*
X0014882Y0201701D01*
X0014882Y0202699D02*
X0021653Y0202699D01*
X0020669Y0203698D02*
X0014882Y0203698D01*
X0014882Y0204696D02*
X0020255Y0204696D01*
X0019842Y0205695D02*
X0014882Y0205695D01*
X0014882Y0206693D02*
X0019598Y0206693D01*
X0019598Y0207692D02*
X0014882Y0207692D01*
X0014882Y0208690D02*
X0019598Y0208690D01*
X0019841Y0209689D02*
X0014882Y0209689D01*
X0014882Y0210687D02*
X0020254Y0210687D01*
X0020668Y0211686D02*
X0014882Y0211686D01*
X0015187Y0212684D02*
X0021651Y0212684D01*
X0022650Y0213683D02*
X0015511Y0213683D01*
X0016005Y0214681D02*
X0025026Y0214681D01*
X0028360Y0214681D02*
X0232516Y0214681D01*
X0232501Y0213683D02*
X0030736Y0213683D01*
X0031735Y0212684D02*
X0232487Y0212684D01*
X0232531Y0215680D02*
X0016730Y0215680D01*
X0017455Y0216678D02*
X0232546Y0216678D01*
X0272913Y0164756D02*
X0343622Y0164756D01*
X0343622Y0163757D02*
X0327703Y0163757D01*
X0329110Y0162759D02*
X0343622Y0162759D01*
X0343622Y0161760D02*
X0329588Y0161760D01*
X0329663Y0160762D02*
X0343622Y0160762D01*
X0343622Y0159763D02*
X0329391Y0159763D01*
X0328634Y0158765D02*
X0343622Y0158765D01*
X0343622Y0157766D02*
X0329103Y0157766D01*
X0329585Y0156768D02*
X0343622Y0156768D01*
X0343622Y0155769D02*
X0329663Y0155769D01*
X0329394Y0154771D02*
X0343622Y0154771D01*
X0343622Y0153772D02*
X0328642Y0153772D01*
X0329096Y0152774D02*
X0343622Y0152774D01*
X0343622Y0151775D02*
X0329582Y0151775D01*
X0329663Y0150777D02*
X0343622Y0150777D01*
X0343622Y0149778D02*
X0329397Y0149778D01*
X0328649Y0148780D02*
X0343622Y0148780D01*
X0343622Y0147781D02*
X0329088Y0147781D01*
X0329579Y0146783D02*
X0343622Y0146783D01*
X0343622Y0145784D02*
X0329663Y0145784D01*
X0329400Y0144786D02*
X0343622Y0144786D01*
X0343622Y0143787D02*
X0328656Y0143787D01*
X0329081Y0142789D02*
X0343622Y0142789D01*
X0343622Y0141790D02*
X0329576Y0141790D01*
X0329663Y0140792D02*
X0343622Y0140792D01*
X0343622Y0139793D02*
X0329403Y0139793D01*
X0328664Y0138795D02*
X0343622Y0138795D01*
X0343622Y0137796D02*
X0329073Y0137796D01*
X0329573Y0136798D02*
X0343622Y0136798D01*
X0343622Y0135799D02*
X0329663Y0135799D01*
X0329406Y0134801D02*
X0343622Y0134801D01*
X0343622Y0133802D02*
X0328671Y0133802D01*
X0329066Y0132803D02*
X0343622Y0132803D01*
X0343622Y0131805D02*
X0329570Y0131805D01*
X0329663Y0130806D02*
X0343622Y0130806D01*
X0343622Y0129808D02*
X0329409Y0129808D01*
X0328679Y0128809D02*
X0343622Y0128809D01*
X0343622Y0127811D02*
X0329058Y0127811D01*
X0329567Y0126812D02*
X0343622Y0126812D01*
X0343622Y0125814D02*
X0329663Y0125814D01*
X0329413Y0124815D02*
X0343622Y0124815D01*
X0343622Y0123817D02*
X0328686Y0123817D01*
X0329051Y0122818D02*
X0343622Y0122818D01*
X0343622Y0121820D02*
X0329564Y0121820D01*
X0329663Y0120821D02*
X0343622Y0120821D01*
X0343622Y0119823D02*
X0329416Y0119823D01*
X0328694Y0118824D02*
X0343622Y0118824D01*
X0343622Y0117826D02*
X0329043Y0117826D01*
X0329561Y0116827D02*
X0343622Y0116827D01*
X0343622Y0115829D02*
X0329663Y0115829D01*
X0329419Y0114830D02*
X0343622Y0114830D01*
X0343622Y0113832D02*
X0328701Y0113832D01*
X0315225Y0109838D02*
X0272913Y0109838D01*
X0272913Y0110836D02*
X0343622Y0110836D01*
X0343622Y0111835D02*
X0296682Y0111835D01*
X0297488Y0112833D02*
X0343622Y0112833D01*
X0320600Y0132803D02*
X0301766Y0132803D01*
X0302586Y0133802D02*
X0320994Y0133802D01*
X0320259Y0134801D02*
X0302783Y0134801D01*
X0302783Y0134750D02*
X0300414Y0134750D01*
X0300414Y0134750D01*
X0302783Y0134750D01*
X0302544Y0135799D02*
X0320002Y0135799D01*
X0320092Y0136798D02*
X0301615Y0136798D01*
X0302462Y0137796D02*
X0320592Y0137796D01*
X0321001Y0138795D02*
X0303244Y0138795D01*
X0303571Y0139793D02*
X0320262Y0139793D01*
X0320002Y0140792D02*
X0303768Y0140792D01*
X0303717Y0141790D02*
X0320089Y0141790D01*
X0320585Y0142789D02*
X0303416Y0142789D01*
X0302879Y0143787D02*
X0321009Y0143787D01*
X0320265Y0144786D02*
X0301426Y0144786D01*
X0299401Y0144786D02*
X0296426Y0144786D01*
X0297879Y0143787D02*
X0297948Y0143787D01*
X0294401Y0144786D02*
X0291426Y0144786D01*
X0292879Y0143787D02*
X0292948Y0143787D01*
X0289401Y0144786D02*
X0286426Y0144786D01*
X0287879Y0143787D02*
X0287948Y0143787D01*
X0284401Y0144786D02*
X0281426Y0144786D01*
X0282879Y0143787D02*
X0282948Y0143787D01*
X0279401Y0144786D02*
X0276426Y0144786D01*
X0277879Y0143787D02*
X0277948Y0143787D01*
X0274401Y0144786D02*
X0272913Y0144786D01*
X0272913Y0145784D02*
X0320002Y0145784D01*
X0320086Y0146783D02*
X0272913Y0146783D01*
X0272913Y0147781D02*
X0320577Y0147781D01*
X0321016Y0148780D02*
X0272913Y0148780D01*
X0272913Y0149778D02*
X0320268Y0149778D01*
X0320002Y0150777D02*
X0272913Y0150777D01*
X0272913Y0151775D02*
X0320083Y0151775D01*
X0320570Y0152774D02*
X0272913Y0152774D01*
X0272913Y0153772D02*
X0321024Y0153772D01*
X0320271Y0154771D02*
X0272913Y0154771D01*
X0272913Y0155769D02*
X0320002Y0155769D01*
X0320080Y0156768D02*
X0272913Y0156768D01*
X0272913Y0157766D02*
X0320562Y0157766D01*
X0321031Y0158765D02*
X0272913Y0158765D01*
X0272913Y0159763D02*
X0320274Y0159763D01*
X0320002Y0160762D02*
X0272913Y0160762D01*
X0272913Y0161760D02*
X0320077Y0161760D01*
X0320555Y0162759D02*
X0272913Y0162759D01*
X0272913Y0163757D02*
X0321962Y0163757D01*
X0300413Y0133802D02*
X0300413Y0133802D01*
X0300413Y0132803D02*
X0300413Y0132803D01*
X0291663Y0119750D02*
X0281663Y0119750D01*
X0280413Y0121000D01*
X0278339Y0120821D02*
X0272913Y0120821D01*
X0272913Y0119823D02*
X0278656Y0119823D01*
X0278339Y0121820D02*
X0272913Y0121820D01*
X0272913Y0122818D02*
X0279298Y0122818D01*
X0280479Y0118824D02*
X0272913Y0118824D01*
X0272913Y0117826D02*
X0290653Y0117826D01*
X0295413Y0113500D02*
X0277913Y0113500D01*
X0276309Y0114830D02*
X0272913Y0114830D01*
X0272913Y0113832D02*
X0275839Y0113832D01*
X0275839Y0112833D02*
X0272913Y0112833D01*
X0272913Y0111835D02*
X0276644Y0111835D01*
X0279182Y0111835D02*
X0294144Y0111835D01*
X0285027Y0106842D02*
X0310790Y0106842D01*
X0309911Y0105844D02*
X0285648Y0105844D01*
X0285825Y0104845D02*
X0309497Y0104845D01*
X0309084Y0103847D02*
X0285825Y0103847D01*
X0285825Y0102848D02*
X0308670Y0102848D01*
X0308496Y0101850D02*
X0285825Y0101850D01*
X0285825Y0100851D02*
X0308496Y0100851D01*
X0308496Y0099853D02*
X0285589Y0099853D01*
X0284885Y0098854D02*
X0308496Y0098854D01*
X0308767Y0097856D02*
X0285175Y0097856D01*
X0285710Y0096857D02*
X0309180Y0096857D01*
X0309594Y0095859D02*
X0285825Y0095859D01*
X0285825Y0094860D02*
X0310024Y0094860D01*
X0311023Y0093862D02*
X0285825Y0093862D01*
X0285825Y0092863D02*
X0312021Y0092863D01*
X0313378Y0091865D02*
X0285825Y0091865D01*
X0285528Y0090866D02*
X0314854Y0090866D01*
X0314856Y0089868D02*
X0284737Y0089868D01*
X0281090Y0089868D02*
X0279737Y0089868D01*
X0276090Y0089868D02*
X0275154Y0089868D01*
X0273053Y0089868D02*
X0272913Y0089868D01*
X0272913Y0090866D02*
X0273053Y0090866D01*
X0273053Y0091865D02*
X0272913Y0091865D01*
X0272913Y0092863D02*
X0273053Y0092863D01*
X0273053Y0093862D02*
X0272913Y0093862D01*
X0272913Y0094860D02*
X0273053Y0094860D01*
X0273053Y0095859D02*
X0272913Y0095859D01*
X0272913Y0096140D02*
X0272913Y0100860D01*
X0273053Y0100860D01*
X0273053Y0099207D01*
X0273053Y0096140D01*
X0272913Y0096140D01*
X0272913Y0096857D02*
X0273053Y0096857D01*
X0273053Y0097856D02*
X0272913Y0097856D01*
X0272913Y0098854D02*
X0273053Y0098854D01*
X0273053Y0099853D02*
X0272913Y0099853D01*
X0272913Y0100851D02*
X0273053Y0100851D01*
X0273053Y0101850D02*
X0272913Y0101850D01*
X0272913Y0102848D02*
X0273053Y0102848D01*
X0273053Y0103847D02*
X0272913Y0103847D01*
X0272913Y0104845D02*
X0273053Y0104845D01*
X0273053Y0105844D02*
X0272913Y0105844D01*
X0272913Y0106842D02*
X0273053Y0106842D01*
X0273053Y0107841D02*
X0272913Y0107841D01*
X0272913Y0108839D02*
X0312815Y0108839D01*
X0311788Y0107841D02*
X0274045Y0107841D01*
X0275431Y0106842D02*
X0275800Y0106842D01*
X0280027Y0106842D02*
X0280800Y0106842D01*
X0270705Y0106842D02*
X0270431Y0106842D01*
X0270703Y0107841D02*
X0269045Y0107841D01*
X0265396Y0106842D02*
X0265027Y0106842D01*
X0260942Y0098854D02*
X0257508Y0098854D01*
X0257291Y0097856D02*
X0260652Y0097856D01*
X0260117Y0096857D02*
X0256965Y0096857D01*
X0256521Y0095859D02*
X0260002Y0095859D01*
X0260002Y0094860D02*
X0255939Y0094860D01*
X0255188Y0093862D02*
X0260002Y0093862D01*
X0260002Y0092863D02*
X0254216Y0092863D01*
X0252857Y0091865D02*
X0260002Y0091865D01*
X0260299Y0090866D02*
X0250756Y0090866D01*
X0261090Y0089868D02*
X0235655Y0089868D01*
X0256663Y0072893D02*
X0256663Y0072893D01*
X0256663Y0071894D02*
X0256663Y0071894D01*
X0256663Y0070896D02*
X0256663Y0070896D01*
X0256663Y0069897D02*
X0256663Y0069897D01*
X0257246Y0062415D02*
X0256013Y0061905D01*
X0255070Y0060961D01*
X0254559Y0059728D01*
X0254559Y0058394D01*
X0255070Y0057161D01*
X0256013Y0056217D01*
X0257246Y0055707D01*
X0258581Y0055707D01*
X0259813Y0056217D01*
X0260757Y0057161D01*
X0261268Y0058394D01*
X0261268Y0059728D01*
X0260757Y0060961D01*
X0259813Y0061905D01*
X0258581Y0062415D01*
X0257246Y0062415D01*
X0256024Y0061909D02*
X0224351Y0061909D01*
X0224813Y0061718D02*
X0223581Y0062228D01*
X0222246Y0062228D01*
X0221013Y0061718D01*
X0220070Y0060774D01*
X0219559Y0059541D01*
X0219559Y0058207D01*
X0220070Y0056974D01*
X0221013Y0056030D01*
X0222246Y0055520D01*
X0223581Y0055520D01*
X0224813Y0056030D01*
X0225757Y0056974D01*
X0226268Y0058207D01*
X0226268Y0059541D01*
X0225757Y0060774D01*
X0224813Y0061718D01*
X0225620Y0060911D02*
X0255049Y0060911D01*
X0254635Y0059912D02*
X0226114Y0059912D01*
X0226268Y0058914D02*
X0254559Y0058914D01*
X0254757Y0057915D02*
X0226147Y0057915D01*
X0225700Y0056917D02*
X0255314Y0056917D01*
X0256736Y0055918D02*
X0224543Y0055918D01*
X0223581Y0054354D02*
X0222246Y0054354D01*
X0221013Y0053844D01*
X0220070Y0052900D01*
X0219559Y0051667D01*
X0219559Y0050333D01*
X0220070Y0049100D01*
X0221013Y0048156D01*
X0222246Y0047646D01*
X0223581Y0047646D01*
X0224813Y0048156D01*
X0225757Y0049100D01*
X0226268Y0050333D01*
X0226268Y0051667D01*
X0225757Y0052900D01*
X0224813Y0053844D01*
X0223581Y0054354D01*
X0224626Y0053921D02*
X0255904Y0053921D01*
X0256013Y0054031D02*
X0255070Y0053087D01*
X0254559Y0051854D01*
X0254559Y0050520D01*
X0255070Y0049287D01*
X0256013Y0048343D01*
X0257246Y0047833D01*
X0258581Y0047833D01*
X0259813Y0048343D01*
X0260757Y0049287D01*
X0261268Y0050520D01*
X0261268Y0051854D01*
X0260757Y0053087D01*
X0259813Y0054031D01*
X0258581Y0054541D01*
X0257246Y0054541D01*
X0256013Y0054031D01*
X0255002Y0052923D02*
X0225735Y0052923D01*
X0226161Y0051924D02*
X0254588Y0051924D01*
X0254559Y0050926D02*
X0226268Y0050926D01*
X0226100Y0049927D02*
X0254805Y0049927D01*
X0255428Y0048929D02*
X0225586Y0048929D01*
X0224267Y0047930D02*
X0257011Y0047930D01*
X0257259Y0046932D02*
X0211405Y0046932D01*
X0211405Y0047930D02*
X0221560Y0047930D01*
X0220241Y0048929D02*
X0211405Y0048929D01*
X0211405Y0049927D02*
X0219727Y0049927D01*
X0219559Y0050926D02*
X0211405Y0050926D01*
X0211405Y0051924D02*
X0219665Y0051924D01*
X0220092Y0052923D02*
X0211405Y0052923D01*
X0211405Y0053921D02*
X0221200Y0053921D01*
X0221284Y0055918D02*
X0211405Y0055918D01*
X0211405Y0054920D02*
X0270807Y0054920D01*
X0270805Y0055918D02*
X0259091Y0055918D01*
X0260513Y0056917D02*
X0270803Y0056917D01*
X0270801Y0057915D02*
X0261069Y0057915D01*
X0261268Y0058914D02*
X0270799Y0058914D01*
X0270797Y0059912D02*
X0261192Y0059912D01*
X0260778Y0060911D02*
X0270795Y0060911D01*
X0270793Y0061909D02*
X0259803Y0061909D01*
X0259923Y0053921D02*
X0270809Y0053921D01*
X0270811Y0052923D02*
X0260825Y0052923D01*
X0261239Y0051924D02*
X0270813Y0051924D01*
X0270815Y0050926D02*
X0261268Y0050926D01*
X0261022Y0049927D02*
X0270817Y0049927D01*
X0270819Y0048929D02*
X0260399Y0048929D01*
X0258816Y0047930D02*
X0270821Y0047930D01*
X0272913Y0047930D02*
X0286560Y0047930D01*
X0286013Y0048156D02*
X0287246Y0047646D01*
X0288581Y0047646D01*
X0289813Y0048156D01*
X0290757Y0049100D01*
X0291268Y0050333D01*
X0291268Y0051667D01*
X0290757Y0052900D01*
X0289813Y0053844D01*
X0288581Y0054354D01*
X0287246Y0054354D01*
X0286013Y0053844D01*
X0285070Y0052900D01*
X0284559Y0051667D01*
X0284559Y0050333D01*
X0285070Y0049100D01*
X0286013Y0048156D01*
X0285241Y0048929D02*
X0272913Y0048929D01*
X0272913Y0049927D02*
X0284727Y0049927D01*
X0284559Y0050926D02*
X0272913Y0050926D01*
X0272913Y0051924D02*
X0284665Y0051924D01*
X0285092Y0052923D02*
X0272913Y0052923D01*
X0272913Y0053921D02*
X0286200Y0053921D01*
X0287246Y0055520D02*
X0288581Y0055520D01*
X0289813Y0056030D01*
X0290757Y0056974D01*
X0291268Y0058207D01*
X0291268Y0059541D01*
X0290757Y0060774D01*
X0289813Y0061718D01*
X0288581Y0062228D01*
X0287246Y0062228D01*
X0286013Y0061718D01*
X0285070Y0060774D01*
X0284559Y0059541D01*
X0284559Y0058207D01*
X0285070Y0056974D01*
X0286013Y0056030D01*
X0287246Y0055520D01*
X0286284Y0055918D02*
X0272913Y0055918D01*
X0272913Y0054920D02*
X0298475Y0054920D01*
X0298698Y0055142D02*
X0296271Y0052716D01*
X0296271Y0049284D01*
X0298698Y0046858D01*
X0302129Y0046858D01*
X0304555Y0049284D01*
X0304555Y0052716D01*
X0302129Y0055142D01*
X0298698Y0055142D01*
X0297477Y0053921D02*
X0289626Y0053921D01*
X0290735Y0052923D02*
X0296478Y0052923D01*
X0296271Y0051924D02*
X0291161Y0051924D01*
X0291268Y0050926D02*
X0296271Y0050926D01*
X0296271Y0049927D02*
X0291100Y0049927D01*
X0290586Y0048929D02*
X0296627Y0048929D01*
X0297626Y0047930D02*
X0289267Y0047930D01*
X0288581Y0046480D02*
X0287246Y0046480D01*
X0286013Y0045970D01*
X0285070Y0045026D01*
X0284559Y0043793D01*
X0284559Y0042459D01*
X0285070Y0041226D01*
X0286013Y0040282D01*
X0287246Y0039772D01*
X0288581Y0039772D01*
X0289813Y0040282D01*
X0290757Y0041226D01*
X0291268Y0042459D01*
X0291268Y0043793D01*
X0290757Y0045026D01*
X0289813Y0045970D01*
X0288581Y0046480D01*
X0289850Y0045933D02*
X0315790Y0045933D01*
X0314954Y0044934D02*
X0290795Y0044934D01*
X0291209Y0043936D02*
X0314559Y0043936D01*
X0314559Y0042937D02*
X0291268Y0042937D01*
X0291052Y0041939D02*
X0314852Y0041939D01*
X0315542Y0040940D02*
X0290472Y0040940D01*
X0288992Y0039942D02*
X0320667Y0039942D01*
X0320671Y0040940D02*
X0320285Y0040940D01*
X0319668Y0038943D02*
X0272913Y0038943D01*
X0272913Y0039942D02*
X0286835Y0039942D01*
X0285355Y0040940D02*
X0272913Y0040940D01*
X0272913Y0041939D02*
X0284774Y0041939D01*
X0284559Y0042937D02*
X0272913Y0042937D01*
X0272913Y0043936D02*
X0284618Y0043936D01*
X0285032Y0044934D02*
X0272913Y0044934D01*
X0272913Y0045933D02*
X0285977Y0045933D01*
X0298624Y0046932D02*
X0272913Y0046932D01*
X0270837Y0039942D02*
X0259165Y0039942D01*
X0258201Y0039089D02*
X0260445Y0039089D01*
X0260773Y0039001D01*
X0261066Y0038831D01*
X0261306Y0038592D01*
X0261475Y0038298D01*
X0261563Y0037971D01*
X0261563Y0035726D01*
X0258201Y0035726D01*
X0258201Y0035152D01*
X0261563Y0035152D01*
X0261563Y0032907D01*
X0261475Y0032580D01*
X0261306Y0032286D01*
X0261066Y0032047D01*
X0260773Y0031877D01*
X0260445Y0031789D01*
X0258201Y0031789D01*
X0258201Y0035151D01*
X0257626Y0035151D01*
X0257626Y0031789D01*
X0255382Y0031789D01*
X0255054Y0031877D01*
X0254761Y0032047D01*
X0254521Y0032286D01*
X0254352Y0032580D01*
X0254264Y0032907D01*
X0254264Y0035152D01*
X0257626Y0035152D01*
X0257626Y0035726D01*
X0254264Y0035726D01*
X0254264Y0037971D01*
X0254352Y0038298D01*
X0254521Y0038592D01*
X0254761Y0038831D01*
X0255054Y0039001D01*
X0255382Y0039089D01*
X0257626Y0039089D01*
X0257626Y0035726D01*
X0258201Y0035726D01*
X0258201Y0039089D01*
X0258201Y0038943D02*
X0257626Y0038943D01*
X0257626Y0037945D02*
X0258201Y0037945D01*
X0258201Y0036946D02*
X0257626Y0036946D01*
X0257626Y0035948D02*
X0258201Y0035948D01*
X0258201Y0034949D02*
X0257626Y0034949D01*
X0257626Y0033951D02*
X0258201Y0033951D01*
X0258201Y0032952D02*
X0257626Y0032952D01*
X0257626Y0031954D02*
X0258201Y0031954D01*
X0260905Y0031954D02*
X0270852Y0031954D01*
X0270850Y0032952D02*
X0261563Y0032952D01*
X0261563Y0033951D02*
X0270848Y0033951D01*
X0270846Y0034949D02*
X0261563Y0034949D01*
X0261563Y0035948D02*
X0270844Y0035948D01*
X0270842Y0036946D02*
X0261563Y0036946D01*
X0261563Y0037945D02*
X0270840Y0037945D01*
X0270839Y0038943D02*
X0260872Y0038943D01*
X0254955Y0038943D02*
X0191364Y0038943D01*
X0191778Y0039942D02*
X0208099Y0039942D01*
X0206784Y0040940D02*
X0191858Y0040940D01*
X0191762Y0041939D02*
X0205786Y0041939D01*
X0204884Y0042937D02*
X0191348Y0042937D01*
X0190478Y0043936D02*
X0204471Y0043936D01*
X0204421Y0044934D02*
X0082951Y0044934D01*
X0082951Y0043936D02*
X0109998Y0043936D01*
X0109384Y0042937D02*
X0082951Y0042937D01*
X0082894Y0041939D02*
X0109309Y0041939D01*
X0109688Y0040940D02*
X0082481Y0040940D01*
X0082951Y0045933D02*
X0204421Y0045933D01*
X0190516Y0037945D02*
X0219307Y0037945D01*
X0219264Y0037784D02*
X0219352Y0038111D01*
X0219521Y0038405D01*
X0219761Y0038644D01*
X0220054Y0038814D01*
X0220382Y0038902D01*
X0222626Y0038902D01*
X0222626Y0035539D01*
X0222626Y0034965D01*
X0219264Y0034965D01*
X0219264Y0032720D01*
X0219352Y0032393D01*
X0219521Y0032099D01*
X0219761Y0031860D01*
X0220054Y0031690D01*
X0220382Y0031602D01*
X0222626Y0031602D01*
X0222626Y0034964D01*
X0223201Y0034964D01*
X0223201Y0031602D01*
X0225445Y0031602D01*
X0225773Y0031690D01*
X0226066Y0031860D01*
X0226306Y0032099D01*
X0226475Y0032393D01*
X0226563Y0032720D01*
X0226563Y0034965D01*
X0223201Y0034965D01*
X0223201Y0035539D01*
X0226563Y0035539D01*
X0226563Y0037784D01*
X0226475Y0038111D01*
X0226306Y0038405D01*
X0226066Y0038644D01*
X0225773Y0038814D01*
X0225445Y0038902D01*
X0223201Y0038902D01*
X0223201Y0035539D01*
X0222626Y0035539D01*
X0219264Y0035539D01*
X0219264Y0037784D01*
X0219264Y0036946D02*
X0014882Y0036946D01*
X0014882Y0035948D02*
X0219264Y0035948D01*
X0219264Y0034949D02*
X0014882Y0034949D01*
X0014882Y0033951D02*
X0185364Y0033951D01*
X0185679Y0034266D02*
X0184569Y0033156D01*
X0183969Y0031706D01*
X0183969Y0030137D01*
X0184569Y0028687D01*
X0185679Y0027577D01*
X0187129Y0026976D01*
X0188698Y0026976D01*
X0190148Y0027577D01*
X0191258Y0028687D01*
X0191858Y0030137D01*
X0191858Y0031706D01*
X0191258Y0033156D01*
X0190148Y0034266D01*
X0188698Y0034866D01*
X0187129Y0034866D01*
X0185679Y0034266D01*
X0184485Y0032952D02*
X0014882Y0032952D01*
X0014882Y0031954D02*
X0184071Y0031954D01*
X0183969Y0030955D02*
X0014882Y0030955D01*
X0014882Y0029957D02*
X0184043Y0029957D01*
X0184457Y0028958D02*
X0014882Y0028958D01*
X0014882Y0027960D02*
X0185296Y0027960D01*
X0184550Y0025024D02*
X0183969Y0024442D01*
X0183969Y0017715D01*
X0184550Y0017134D01*
X0191277Y0017134D01*
X0191858Y0017715D01*
X0191858Y0024442D01*
X0191277Y0025024D01*
X0184550Y0025024D01*
X0184490Y0024964D02*
X0014882Y0024964D01*
X0014882Y0023966D02*
X0183969Y0023966D01*
X0183969Y0022967D02*
X0014882Y0022967D01*
X0014882Y0021969D02*
X0183969Y0021969D01*
X0183969Y0020970D02*
X0030286Y0020970D01*
X0031534Y0019972D02*
X0183969Y0019972D01*
X0183969Y0018973D02*
X0032532Y0018973D01*
X0033048Y0017975D02*
X0183969Y0017975D01*
X0191858Y0017975D02*
X0248684Y0017975D01*
X0249025Y0018798D02*
X0247945Y0016191D01*
X0247945Y0013368D01*
X0249025Y0010761D01*
X0251021Y0008765D01*
X0253628Y0007685D01*
X0256451Y0007685D01*
X0259058Y0008765D01*
X0261054Y0010761D01*
X0262134Y0013368D01*
X0262134Y0016191D01*
X0261054Y0018798D01*
X0259058Y0020794D01*
X0256451Y0021874D01*
X0253628Y0021874D01*
X0251021Y0020794D01*
X0249025Y0018798D01*
X0249200Y0018973D02*
X0191858Y0018973D01*
X0191858Y0019972D02*
X0250198Y0019972D01*
X0251446Y0020970D02*
X0191858Y0020970D01*
X0191858Y0021969D02*
X0270872Y0021969D01*
X0270870Y0022967D02*
X0191858Y0022967D01*
X0191858Y0023966D02*
X0270868Y0023966D01*
X0270866Y0024964D02*
X0191336Y0024964D01*
X0190531Y0027960D02*
X0270860Y0027960D01*
X0270858Y0028958D02*
X0191370Y0028958D01*
X0191784Y0029957D02*
X0270856Y0029957D01*
X0270854Y0030955D02*
X0191858Y0030955D01*
X0191756Y0031954D02*
X0219666Y0031954D01*
X0219264Y0032952D02*
X0191342Y0032952D01*
X0190463Y0033951D02*
X0219264Y0033951D01*
X0222626Y0033951D02*
X0223201Y0033951D01*
X0223201Y0034949D02*
X0222626Y0034949D01*
X0222626Y0035948D02*
X0223201Y0035948D01*
X0223201Y0036946D02*
X0222626Y0036946D01*
X0222626Y0037945D02*
X0223201Y0037945D01*
X0226520Y0037945D02*
X0254264Y0037945D01*
X0254264Y0036946D02*
X0226563Y0036946D01*
X0226563Y0035948D02*
X0254264Y0035948D01*
X0254264Y0034949D02*
X0226563Y0034949D01*
X0226563Y0033951D02*
X0254264Y0033951D01*
X0254264Y0032952D02*
X0226563Y0032952D01*
X0226160Y0031954D02*
X0254921Y0031954D01*
X0270862Y0026961D02*
X0014882Y0026961D01*
X0014882Y0025963D02*
X0270864Y0025963D01*
X0270874Y0020970D02*
X0258632Y0020970D01*
X0259880Y0019972D02*
X0270876Y0019972D01*
X0270878Y0018973D02*
X0260879Y0018973D01*
X0261395Y0017975D02*
X0270880Y0017975D01*
X0270882Y0016976D02*
X0261809Y0016976D01*
X0262134Y0015978D02*
X0270884Y0015978D01*
X0270886Y0014979D02*
X0262134Y0014979D01*
X0262134Y0013981D02*
X0270888Y0013981D01*
X0270890Y0012982D02*
X0261974Y0012982D01*
X0261560Y0011984D02*
X0270892Y0011984D01*
X0270894Y0010985D02*
X0261147Y0010985D01*
X0260280Y0009987D02*
X0270896Y0009987D01*
X0270898Y0008988D02*
X0259281Y0008988D01*
X0257186Y0007990D02*
X0270899Y0007990D01*
X0252893Y0007990D02*
X0028839Y0007990D01*
X0030935Y0008988D02*
X0250798Y0008988D01*
X0249799Y0009987D02*
X0031933Y0009987D01*
X0032800Y0010985D02*
X0248932Y0010985D01*
X0248518Y0011984D02*
X0033214Y0011984D01*
X0033627Y0012982D02*
X0248105Y0012982D01*
X0247945Y0013981D02*
X0033787Y0013981D01*
X0033787Y0014979D02*
X0247945Y0014979D01*
X0247945Y0015978D02*
X0033787Y0015978D01*
X0033462Y0016976D02*
X0248270Y0016976D01*
X0223201Y0031954D02*
X0222626Y0031954D01*
X0222626Y0032952D02*
X0223201Y0032952D01*
X0220127Y0056917D02*
X0211405Y0056917D01*
X0211405Y0057915D02*
X0219680Y0057915D01*
X0219559Y0058914D02*
X0211405Y0058914D01*
X0211405Y0059912D02*
X0219713Y0059912D01*
X0220206Y0060911D02*
X0211405Y0060911D01*
X0211405Y0061909D02*
X0221476Y0061909D01*
X0264737Y0089868D02*
X0265672Y0089868D01*
X0272913Y0088869D02*
X0315270Y0088869D01*
X0316104Y0087870D02*
X0272913Y0087870D01*
X0272913Y0086872D02*
X0317103Y0086872D01*
X0318101Y0085873D02*
X0272913Y0085873D01*
X0272913Y0084875D02*
X0307232Y0084875D01*
X0307322Y0085011D02*
X0307063Y0084623D01*
X0306884Y0084191D01*
X0306793Y0083733D01*
X0306793Y0083500D01*
X0306793Y0083267D01*
X0306884Y0082809D01*
X0307063Y0082377D01*
X0307322Y0081989D01*
X0307653Y0081659D01*
X0308041Y0081400D01*
X0308472Y0081221D01*
X0308930Y0081130D01*
X0309163Y0081130D01*
X0309163Y0083500D01*
X0306793Y0083500D01*
X0309163Y0083500D01*
X0309163Y0083500D01*
X0309163Y0085870D01*
X0308930Y0085870D01*
X0308472Y0085779D01*
X0308041Y0085600D01*
X0307653Y0085341D01*
X0307322Y0085011D01*
X0306822Y0083876D02*
X0272913Y0083876D01*
X0272913Y0082878D02*
X0306871Y0082878D01*
X0307432Y0081879D02*
X0272913Y0081879D01*
X0272913Y0080881D02*
X0320671Y0080881D01*
X0320671Y0081879D02*
X0310895Y0081879D01*
X0311004Y0081989D02*
X0311264Y0082377D01*
X0311442Y0082809D01*
X0311533Y0083267D01*
X0311533Y0083500D01*
X0311533Y0083733D01*
X0311442Y0084191D01*
X0311264Y0084623D01*
X0311004Y0085011D01*
X0310674Y0085341D01*
X0310286Y0085600D01*
X0309855Y0085779D01*
X0309397Y0085870D01*
X0309163Y0085870D01*
X0309163Y0083500D01*
X0309163Y0083500D01*
X0309163Y0083500D01*
X0309163Y0081130D01*
X0309397Y0081130D01*
X0309855Y0081221D01*
X0310286Y0081400D01*
X0310674Y0081659D01*
X0311004Y0081989D01*
X0311456Y0082878D02*
X0320671Y0082878D01*
X0320098Y0083876D02*
X0311505Y0083876D01*
X0311533Y0083500D02*
X0309164Y0083500D01*
X0309164Y0083500D01*
X0311533Y0083500D01*
X0311095Y0084875D02*
X0319100Y0084875D01*
X0320671Y0079882D02*
X0272913Y0079882D01*
X0272913Y0078884D02*
X0320671Y0078884D01*
X0320671Y0077885D02*
X0272913Y0077885D01*
X0272913Y0076887D02*
X0320671Y0076887D01*
X0320671Y0075888D02*
X0272913Y0075888D01*
X0272913Y0074890D02*
X0320671Y0074890D01*
X0320671Y0073891D02*
X0272913Y0073891D01*
X0272913Y0072893D02*
X0320671Y0072893D01*
X0320671Y0071894D02*
X0272913Y0071894D01*
X0272913Y0070896D02*
X0298201Y0070896D01*
X0298698Y0071392D02*
X0296271Y0068966D01*
X0296271Y0065534D01*
X0298698Y0063108D01*
X0302129Y0063108D01*
X0304555Y0065534D01*
X0304555Y0068966D01*
X0302129Y0071392D01*
X0298698Y0071392D01*
X0297203Y0069897D02*
X0289076Y0069897D01*
X0288581Y0070102D02*
X0287246Y0070102D01*
X0286013Y0069592D01*
X0285070Y0068648D01*
X0284559Y0067415D01*
X0284559Y0066081D01*
X0285070Y0064848D01*
X0286013Y0063904D01*
X0287246Y0063394D01*
X0288581Y0063394D01*
X0289813Y0063904D01*
X0290757Y0064848D01*
X0291268Y0066081D01*
X0291268Y0067415D01*
X0290757Y0068648D01*
X0289813Y0069592D01*
X0288581Y0070102D01*
X0286751Y0069897D02*
X0272913Y0069897D01*
X0272913Y0068899D02*
X0285320Y0068899D01*
X0284760Y0067900D02*
X0272913Y0067900D01*
X0272913Y0066902D02*
X0284559Y0066902D01*
X0284633Y0065903D02*
X0272913Y0065903D01*
X0272913Y0064905D02*
X0285046Y0064905D01*
X0286011Y0063906D02*
X0272913Y0063906D01*
X0272913Y0062908D02*
X0320671Y0062908D01*
X0320671Y0063906D02*
X0302927Y0063906D01*
X0303926Y0064905D02*
X0320671Y0064905D01*
X0320671Y0065903D02*
X0304555Y0065903D01*
X0304555Y0066902D02*
X0320671Y0066902D01*
X0320671Y0067900D02*
X0304555Y0067900D01*
X0304555Y0068899D02*
X0320671Y0068899D01*
X0320671Y0069897D02*
X0303624Y0069897D01*
X0302625Y0070896D02*
X0320671Y0070896D01*
X0320671Y0061909D02*
X0319803Y0061909D01*
X0316024Y0061909D02*
X0289351Y0061909D01*
X0290620Y0060911D02*
X0315049Y0060911D01*
X0314635Y0059912D02*
X0291114Y0059912D01*
X0291268Y0058914D02*
X0314559Y0058914D01*
X0314757Y0057915D02*
X0291147Y0057915D01*
X0290700Y0056917D02*
X0315314Y0056917D01*
X0316736Y0055918D02*
X0289543Y0055918D01*
X0285127Y0056917D02*
X0272913Y0056917D01*
X0272913Y0057915D02*
X0284680Y0057915D01*
X0284559Y0058914D02*
X0272913Y0058914D01*
X0272913Y0059912D02*
X0284713Y0059912D01*
X0285206Y0060911D02*
X0272913Y0060911D01*
X0272913Y0061909D02*
X0286476Y0061909D01*
X0289815Y0063906D02*
X0297899Y0063906D01*
X0296901Y0064905D02*
X0290781Y0064905D01*
X0291194Y0065903D02*
X0296271Y0065903D01*
X0296271Y0066902D02*
X0291268Y0066902D01*
X0291067Y0067900D02*
X0296271Y0067900D01*
X0296271Y0068899D02*
X0290506Y0068899D01*
X0302352Y0054920D02*
X0320671Y0054920D01*
X0320671Y0055918D02*
X0319091Y0055918D01*
X0320513Y0056917D02*
X0320671Y0056917D01*
X0320671Y0053921D02*
X0319923Y0053921D01*
X0315904Y0053921D02*
X0303350Y0053921D01*
X0304349Y0052923D02*
X0315002Y0052923D01*
X0314588Y0051924D02*
X0304555Y0051924D01*
X0304555Y0050926D02*
X0314559Y0050926D01*
X0314805Y0049927D02*
X0304555Y0049927D01*
X0304200Y0048929D02*
X0315428Y0048929D01*
X0317011Y0047930D02*
X0303201Y0047930D01*
X0302203Y0046932D02*
X0320671Y0046932D01*
X0320671Y0047930D02*
X0318816Y0047930D01*
X0320399Y0048929D02*
X0320671Y0048929D01*
X0320671Y0045933D02*
X0320037Y0045933D01*
X0309163Y0081879D02*
X0309163Y0081879D01*
X0309163Y0082878D02*
X0309163Y0082878D01*
X0309163Y0083876D02*
X0309163Y0083876D01*
X0309163Y0084875D02*
X0309163Y0084875D01*
X0270413Y0132803D02*
X0270413Y0132803D01*
X0270413Y0133802D02*
X0270413Y0133802D01*
X0270413Y0134750D02*
X0270413Y0134750D01*
X0268365Y0137796D02*
X0267462Y0137796D01*
X0267879Y0143787D02*
X0267948Y0143787D01*
X0269401Y0144786D02*
X0266426Y0144786D01*
X0272913Y0143787D02*
X0272948Y0143787D01*
X0182913Y0099853D02*
X0182913Y0099853D01*
X0182913Y0098854D02*
X0182913Y0098854D01*
X0182914Y0098500D02*
X0182914Y0098500D01*
X0182913Y0097856D02*
X0182913Y0097856D01*
X0182913Y0096857D02*
X0182913Y0096857D01*
X0181205Y0096857D02*
X0174622Y0096857D01*
X0175202Y0097856D02*
X0180625Y0097856D01*
X0180567Y0098854D02*
X0175259Y0098854D01*
X0175283Y0098500D02*
X0172914Y0098500D01*
X0172914Y0098500D01*
X0175283Y0098500D01*
X0174860Y0099853D02*
X0180967Y0099853D01*
X0172913Y0099853D02*
X0172913Y0099853D01*
X0172913Y0098854D02*
X0172913Y0098854D01*
X0172913Y0097856D02*
X0172913Y0097856D01*
X0172913Y0096857D02*
X0172913Y0096857D01*
X0127913Y0079882D02*
X0127913Y0079882D01*
X0127913Y0078884D02*
X0127913Y0078884D01*
X0127914Y0078500D02*
X0127914Y0078500D01*
X0127913Y0077885D02*
X0127913Y0077885D01*
X0127913Y0076887D02*
X0127913Y0076887D01*
X0117913Y0064905D02*
X0117913Y0064905D01*
X0117913Y0063906D02*
X0117913Y0063906D01*
X0117914Y0063500D02*
X0117914Y0063500D01*
X0117913Y0062908D02*
X0117913Y0062908D01*
X0117913Y0061909D02*
X0117913Y0061909D01*
X0116152Y0061909D02*
X0099674Y0061909D01*
X0099754Y0061989D02*
X0100014Y0062377D01*
X0100192Y0062809D01*
X0100283Y0063267D01*
X0100283Y0063500D01*
X0100283Y0063733D01*
X0100192Y0064191D01*
X0100014Y0064623D01*
X0099754Y0065011D01*
X0099424Y0065341D01*
X0099036Y0065600D01*
X0098605Y0065779D01*
X0098147Y0065870D01*
X0097913Y0065870D01*
X0097680Y0065870D01*
X0097222Y0065779D01*
X0096791Y0065600D01*
X0096403Y0065341D01*
X0096072Y0065011D01*
X0095813Y0064623D01*
X0095634Y0064191D01*
X0095543Y0063733D01*
X0095543Y0063500D01*
X0097913Y0063500D01*
X0097913Y0063500D01*
X0097913Y0065870D01*
X0097913Y0063500D01*
X0097913Y0063500D01*
X0097913Y0063500D01*
X0097913Y0061130D01*
X0098147Y0061130D01*
X0098605Y0061221D01*
X0099036Y0061400D01*
X0099424Y0061659D01*
X0099754Y0061989D01*
X0100212Y0062908D02*
X0115615Y0062908D01*
X0115578Y0063906D02*
X0100249Y0063906D01*
X0100283Y0063500D02*
X0097914Y0063500D01*
X0097914Y0063500D01*
X0100283Y0063500D01*
X0099825Y0064905D02*
X0116002Y0064905D01*
X0117215Y0059912D02*
X0081312Y0059912D01*
X0082311Y0058914D02*
X0116217Y0058914D01*
X0115218Y0057915D02*
X0082748Y0057915D01*
X0082951Y0056917D02*
X0114220Y0056917D01*
X0113221Y0055918D02*
X0082951Y0055918D01*
X0082951Y0054920D02*
X0112223Y0054920D01*
X0108152Y0052923D02*
X0090552Y0052923D01*
X0091346Y0051924D02*
X0107153Y0051924D01*
X0107089Y0050926D02*
X0091533Y0050926D01*
X0091284Y0049927D02*
X0107302Y0049927D01*
X0109163Y0051000D02*
X0110413Y0051000D01*
X0111663Y0043936D02*
X0111663Y0043936D01*
X0111663Y0042937D02*
X0111663Y0042937D01*
X0111664Y0042250D02*
X0111664Y0042250D01*
X0111663Y0041939D02*
X0111663Y0041939D01*
X0111663Y0040940D02*
X0111663Y0040940D01*
X0087998Y0048929D02*
X0082951Y0048929D01*
X0082951Y0049927D02*
X0087042Y0049927D01*
X0086793Y0050926D02*
X0082951Y0050926D01*
X0082951Y0051924D02*
X0086981Y0051924D01*
X0097913Y0061909D02*
X0097913Y0061909D01*
X0097913Y0062908D02*
X0097913Y0062908D01*
X0097913Y0063906D02*
X0097913Y0063906D01*
X0097913Y0064905D02*
X0097913Y0064905D01*
X0096002Y0064905D02*
X0076314Y0064905D01*
X0075289Y0063906D02*
X0095578Y0063906D01*
X0070794Y0059912D02*
X0058546Y0059912D01*
X0060956Y0058914D02*
X0069795Y0058914D01*
X0069359Y0057915D02*
X0062258Y0057915D01*
X0063256Y0056917D02*
X0069156Y0056917D01*
X0069156Y0055918D02*
X0064025Y0055918D01*
X0064439Y0054920D02*
X0069156Y0054920D01*
X0069156Y0053921D02*
X0064852Y0053921D01*
X0065155Y0052923D02*
X0069156Y0052923D01*
X0069156Y0051924D02*
X0065155Y0051924D01*
X0065155Y0050926D02*
X0069156Y0050926D01*
X0069156Y0049927D02*
X0065155Y0049927D01*
X0064790Y0048929D02*
X0069156Y0048929D01*
X0069156Y0047930D02*
X0064376Y0047930D01*
X0063963Y0046932D02*
X0069156Y0046932D01*
X0069156Y0045933D02*
X0063106Y0045933D01*
X0062108Y0044934D02*
X0069156Y0044934D01*
X0069156Y0043936D02*
X0060593Y0043936D01*
X0052734Y0043936D02*
X0029014Y0043936D01*
X0029014Y0044934D02*
X0051219Y0044934D01*
X0050221Y0045933D02*
X0029014Y0045933D01*
X0029014Y0046932D02*
X0049364Y0046932D01*
X0048950Y0047930D02*
X0029014Y0047930D01*
X0029014Y0048929D02*
X0048537Y0048929D01*
X0048171Y0049927D02*
X0029014Y0049927D01*
X0029014Y0050926D02*
X0048171Y0050926D01*
X0048171Y0051924D02*
X0029014Y0051924D01*
X0029014Y0052923D02*
X0048171Y0052923D01*
X0048474Y0053921D02*
X0029014Y0053921D01*
X0029014Y0054920D02*
X0048888Y0054920D01*
X0049302Y0055918D02*
X0029014Y0055918D01*
X0029014Y0056917D02*
X0048712Y0056917D01*
X0047714Y0057915D02*
X0028811Y0057915D01*
X0028374Y0058914D02*
X0046715Y0058914D01*
X0045717Y0059912D02*
X0027375Y0059912D01*
X0029014Y0042937D02*
X0069156Y0042937D01*
X0069212Y0041939D02*
X0028957Y0041939D01*
X0028544Y0040940D02*
X0069626Y0040940D01*
X0070440Y0039942D02*
X0027730Y0039942D01*
X0025921Y0038943D02*
X0072248Y0038943D01*
X0054781Y0059912D02*
X0050786Y0059912D01*
X0051784Y0058914D02*
X0052371Y0058914D01*
X0051512Y0095859D02*
X0014882Y0095859D01*
X0014882Y0096857D02*
X0053441Y0096857D01*
X0059163Y0106842D02*
X0059163Y0106842D01*
X0059163Y0107841D02*
X0059163Y0107841D01*
X0059163Y0108839D02*
X0059163Y0108839D01*
X0059163Y0109838D02*
X0059163Y0109838D01*
X0128415Y0183728D02*
X0128475Y0183728D01*
X0128183Y0184726D02*
X0128889Y0184726D01*
X0129478Y0185725D02*
X0127916Y0185725D01*
X0127636Y0186723D02*
X0130476Y0186723D01*
X0023100Y0020970D02*
X0014882Y0020970D01*
X0014882Y0019972D02*
X0021852Y0019972D01*
X0020853Y0018973D02*
X0014882Y0018973D01*
X0014882Y0017975D02*
X0020337Y0017975D01*
X0019924Y0016976D02*
X0014882Y0016976D01*
X0014882Y0015978D02*
X0019598Y0015978D01*
X0019598Y0014979D02*
X0014882Y0014979D01*
X0014882Y0013981D02*
X0019598Y0013981D01*
X0019758Y0012982D02*
X0014882Y0012982D01*
X0014882Y0011984D02*
X0020172Y0011984D01*
D28*
X0187913Y0070921D02*
X0187992Y0071000D01*
X0205413Y0071000D01*
X0207913Y0068500D01*
X0207913Y0044750D01*
X0209537Y0043126D01*
X0222913Y0043126D01*
X0257726Y0043126D01*
X0257913Y0043313D02*
X0258100Y0043500D01*
X0275413Y0043500D01*
X0287913Y0035252D02*
X0258100Y0035252D01*
X0288100Y0035439D02*
X0317913Y0035439D01*
X0321102Y0035439D02*
X0324163Y0038500D01*
X0324163Y0084750D01*
X0318346Y0090567D01*
X0318346Y0100469D01*
M02*
