G75*
%MOIN*%
%OFA0B0*%
%FSLAX25Y25*%
%IPPOS*%
%LPD*%
%AMOC8*
5,1,8,0,0,1.08239X$1,22.5*
%
%ADD10R,0.02756X0.03543*%
%ADD11R,0.04331X0.03937*%
%ADD12R,0.03543X0.02756*%
%ADD13C,0.01969*%
%ADD14C,0.00400*%
%ADD15R,0.13386X0.07480*%
%ADD16R,0.02677X0.01575*%
%ADD17R,0.01772X0.02874*%
%ADD18C,0.03937*%
%ADD19C,0.17717*%
%ADD20C,0.05906*%
%ADD21C,0.06890*%
%ADD22C,0.04724*%
%ADD23C,0.03937*%
D10*
X0136733Y0033780D03*
X0141851Y0033780D03*
X0147639Y0026300D03*
X0152757Y0026300D03*
X0170513Y0027835D03*
X0175631Y0027835D03*
X0175749Y0022559D03*
X0170631Y0022559D03*
X0178583Y0045512D03*
X0183702Y0045512D03*
X0176969Y0057993D03*
X0171851Y0057993D03*
X0142520Y0044685D03*
X0137402Y0044685D03*
X0182717Y0080630D03*
X0187835Y0080630D03*
X0164371Y0080867D03*
X0159253Y0080867D03*
D11*
X0108938Y0064292D03*
X0102245Y0064292D03*
D12*
X0104961Y0056693D03*
X0104961Y0051575D03*
X0105158Y0041890D03*
X0105158Y0036772D03*
X0097087Y0073859D03*
X0097087Y0078977D03*
D13*
X0155611Y0047855D02*
X0166044Y0047855D01*
X0166044Y0037422D01*
X0155611Y0037422D01*
X0155611Y0047855D01*
X0155611Y0047528D02*
X0166044Y0047528D01*
X0166044Y0045561D02*
X0155611Y0045561D01*
X0155611Y0043594D02*
X0166044Y0043594D01*
X0166044Y0041627D02*
X0155611Y0041627D01*
X0155611Y0039660D02*
X0166044Y0039660D01*
X0166044Y0037693D02*
X0155611Y0037693D01*
D14*
X0152757Y0037703D02*
X0150788Y0037703D01*
X0150788Y0037323D02*
X0150788Y0038111D01*
X0152757Y0038111D01*
X0152757Y0037323D01*
X0150788Y0037323D01*
X0150788Y0038102D02*
X0152757Y0038102D01*
X0152757Y0039292D02*
X0150788Y0039292D01*
X0150788Y0040079D01*
X0152757Y0040079D01*
X0152757Y0039292D01*
X0152757Y0039297D02*
X0150788Y0039297D01*
X0150788Y0039696D02*
X0152757Y0039696D01*
X0152757Y0041260D02*
X0150788Y0041260D01*
X0150788Y0042048D01*
X0152757Y0042048D01*
X0152757Y0041260D01*
X0152757Y0041290D02*
X0150788Y0041290D01*
X0150788Y0041688D02*
X0152757Y0041688D01*
X0152757Y0043229D02*
X0150788Y0043229D01*
X0150788Y0044016D01*
X0152757Y0044016D01*
X0152757Y0043229D01*
X0152757Y0043282D02*
X0150788Y0043282D01*
X0150788Y0043681D02*
X0152757Y0043681D01*
X0152757Y0045197D02*
X0150788Y0045197D01*
X0150788Y0045985D01*
X0152757Y0045985D01*
X0152757Y0045197D01*
X0152757Y0045275D02*
X0150788Y0045275D01*
X0150788Y0045673D02*
X0152757Y0045673D01*
X0152757Y0047166D02*
X0150788Y0047166D01*
X0150788Y0047953D01*
X0152757Y0047953D01*
X0152757Y0047166D01*
X0152757Y0047268D02*
X0150788Y0047268D01*
X0150788Y0047666D02*
X0152757Y0047666D01*
X0152757Y0049134D02*
X0150788Y0049134D01*
X0150788Y0049922D01*
X0152560Y0049922D01*
X0152757Y0049725D01*
X0152757Y0049134D01*
X0152757Y0049260D02*
X0150788Y0049260D01*
X0150788Y0049659D02*
X0152757Y0049659D01*
X0153741Y0050709D02*
X0154331Y0050709D01*
X0154331Y0052678D01*
X0153544Y0052678D01*
X0153544Y0050906D01*
X0153741Y0050709D01*
X0153596Y0050854D02*
X0154331Y0050854D01*
X0154331Y0051253D02*
X0153544Y0051253D01*
X0153544Y0051651D02*
X0154331Y0051651D01*
X0154331Y0052050D02*
X0153544Y0052050D01*
X0153544Y0052448D02*
X0154331Y0052448D01*
X0155513Y0052448D02*
X0156300Y0052448D01*
X0156300Y0052678D02*
X0155513Y0052678D01*
X0155513Y0050709D01*
X0156300Y0050709D01*
X0156300Y0052678D01*
X0156300Y0052050D02*
X0155513Y0052050D01*
X0155513Y0051651D02*
X0156300Y0051651D01*
X0156300Y0051253D02*
X0155513Y0051253D01*
X0155513Y0050854D02*
X0156300Y0050854D01*
X0157481Y0050854D02*
X0158269Y0050854D01*
X0158269Y0050709D02*
X0157481Y0050709D01*
X0157481Y0052678D01*
X0158269Y0052678D01*
X0158269Y0050709D01*
X0158269Y0051253D02*
X0157481Y0051253D01*
X0157481Y0051651D02*
X0158269Y0051651D01*
X0158269Y0052050D02*
X0157481Y0052050D01*
X0157481Y0052448D02*
X0158269Y0052448D01*
X0159450Y0052448D02*
X0160237Y0052448D01*
X0160237Y0052678D02*
X0159450Y0052678D01*
X0159450Y0050709D01*
X0160237Y0050709D01*
X0160237Y0052678D01*
X0160237Y0052050D02*
X0159450Y0052050D01*
X0159450Y0051651D02*
X0160237Y0051651D01*
X0160237Y0051253D02*
X0159450Y0051253D01*
X0159450Y0050854D02*
X0160237Y0050854D01*
X0161418Y0050854D02*
X0162206Y0050854D01*
X0162206Y0050709D02*
X0161418Y0050709D01*
X0161418Y0052678D01*
X0162206Y0052678D01*
X0162206Y0050709D01*
X0162206Y0051253D02*
X0161418Y0051253D01*
X0161418Y0051651D02*
X0162206Y0051651D01*
X0162206Y0052050D02*
X0161418Y0052050D01*
X0161418Y0052448D02*
X0162206Y0052448D01*
X0163387Y0052448D02*
X0164174Y0052448D01*
X0164174Y0052678D02*
X0163387Y0052678D01*
X0163387Y0050709D01*
X0164174Y0050709D01*
X0164174Y0052678D01*
X0164174Y0052050D02*
X0163387Y0052050D01*
X0163387Y0051651D02*
X0164174Y0051651D01*
X0164174Y0051253D02*
X0163387Y0051253D01*
X0163387Y0050854D02*
X0164174Y0050854D01*
X0165355Y0050854D02*
X0166143Y0050854D01*
X0166143Y0050709D02*
X0165355Y0050709D01*
X0165355Y0052678D01*
X0166143Y0052678D01*
X0166143Y0050709D01*
X0166143Y0051253D02*
X0165355Y0051253D01*
X0165355Y0051651D02*
X0166143Y0051651D01*
X0166143Y0052050D02*
X0165355Y0052050D01*
X0165355Y0052448D02*
X0166143Y0052448D01*
X0167324Y0052448D02*
X0168111Y0052448D01*
X0168111Y0052678D02*
X0167324Y0052678D01*
X0167324Y0050709D01*
X0167914Y0050709D01*
X0168111Y0050906D01*
X0168111Y0052678D01*
X0168111Y0052050D02*
X0167324Y0052050D01*
X0167324Y0051651D02*
X0168111Y0051651D01*
X0168111Y0051253D02*
X0167324Y0051253D01*
X0167324Y0050854D02*
X0168059Y0050854D01*
X0169095Y0049922D02*
X0168898Y0049725D01*
X0168898Y0049134D01*
X0170867Y0049134D01*
X0170867Y0049922D01*
X0169095Y0049922D01*
X0168898Y0049659D02*
X0170867Y0049659D01*
X0170867Y0049260D02*
X0168898Y0049260D01*
X0168898Y0047953D02*
X0170867Y0047953D01*
X0170867Y0047166D01*
X0168898Y0047166D01*
X0168898Y0047953D01*
X0168898Y0047666D02*
X0170867Y0047666D01*
X0170867Y0047268D02*
X0168898Y0047268D01*
X0168898Y0045985D02*
X0170867Y0045985D01*
X0170867Y0045197D01*
X0168898Y0045197D01*
X0168898Y0045985D01*
X0168898Y0045673D02*
X0170867Y0045673D01*
X0170867Y0045275D02*
X0168898Y0045275D01*
X0168898Y0044016D02*
X0170867Y0044016D01*
X0170867Y0043229D01*
X0168898Y0043229D01*
X0168898Y0044016D01*
X0168898Y0043681D02*
X0170867Y0043681D01*
X0170867Y0043282D02*
X0168898Y0043282D01*
X0168898Y0042048D02*
X0170867Y0042048D01*
X0170867Y0041260D01*
X0168898Y0041260D01*
X0168898Y0042048D01*
X0168898Y0041688D02*
X0170867Y0041688D01*
X0170867Y0041290D02*
X0168898Y0041290D01*
X0168898Y0040079D02*
X0170867Y0040079D01*
X0170867Y0039292D01*
X0168898Y0039292D01*
X0168898Y0040079D01*
X0168898Y0039696D02*
X0170867Y0039696D01*
X0170867Y0039297D02*
X0168898Y0039297D01*
X0168898Y0038111D02*
X0170867Y0038111D01*
X0170867Y0037323D01*
X0168898Y0037323D01*
X0168898Y0038111D01*
X0168898Y0038102D02*
X0170867Y0038102D01*
X0170867Y0037703D02*
X0168898Y0037703D01*
X0168898Y0036142D02*
X0170867Y0036142D01*
X0170867Y0035355D01*
X0169095Y0035355D01*
X0168898Y0035552D01*
X0168898Y0036142D01*
X0168898Y0036109D02*
X0170867Y0036109D01*
X0170867Y0035711D02*
X0168898Y0035711D01*
X0167914Y0034567D02*
X0167324Y0034567D01*
X0167324Y0032599D01*
X0168111Y0032599D01*
X0168111Y0034370D01*
X0167914Y0034567D01*
X0167966Y0034515D02*
X0167324Y0034515D01*
X0167324Y0034117D02*
X0168111Y0034117D01*
X0168111Y0033718D02*
X0167324Y0033718D01*
X0167324Y0033320D02*
X0168111Y0033320D01*
X0168111Y0032921D02*
X0167324Y0032921D01*
X0166143Y0032921D02*
X0165355Y0032921D01*
X0165355Y0032599D02*
X0166143Y0032599D01*
X0166143Y0034567D01*
X0165355Y0034567D01*
X0165355Y0032599D01*
X0165355Y0033320D02*
X0166143Y0033320D01*
X0166143Y0033718D02*
X0165355Y0033718D01*
X0165355Y0034117D02*
X0166143Y0034117D01*
X0166143Y0034515D02*
X0165355Y0034515D01*
X0164174Y0034515D02*
X0163387Y0034515D01*
X0163387Y0034567D02*
X0164174Y0034567D01*
X0164174Y0032599D01*
X0163387Y0032599D01*
X0163387Y0034567D01*
X0163387Y0034117D02*
X0164174Y0034117D01*
X0164174Y0033718D02*
X0163387Y0033718D01*
X0163387Y0033320D02*
X0164174Y0033320D01*
X0164174Y0032921D02*
X0163387Y0032921D01*
X0162206Y0032921D02*
X0161418Y0032921D01*
X0161418Y0032599D02*
X0162206Y0032599D01*
X0162206Y0034567D01*
X0161418Y0034567D01*
X0161418Y0032599D01*
X0161418Y0033320D02*
X0162206Y0033320D01*
X0162206Y0033718D02*
X0161418Y0033718D01*
X0161418Y0034117D02*
X0162206Y0034117D01*
X0162206Y0034515D02*
X0161418Y0034515D01*
X0160237Y0034515D02*
X0159450Y0034515D01*
X0159450Y0034567D02*
X0160237Y0034567D01*
X0160237Y0032599D01*
X0159450Y0032599D01*
X0159450Y0034567D01*
X0159450Y0034117D02*
X0160237Y0034117D01*
X0160237Y0033718D02*
X0159450Y0033718D01*
X0159450Y0033320D02*
X0160237Y0033320D01*
X0160237Y0032921D02*
X0159450Y0032921D01*
X0158269Y0032921D02*
X0157481Y0032921D01*
X0157481Y0032599D02*
X0158269Y0032599D01*
X0158269Y0034567D01*
X0157481Y0034567D01*
X0157481Y0032599D01*
X0157481Y0033320D02*
X0158269Y0033320D01*
X0158269Y0033718D02*
X0157481Y0033718D01*
X0157481Y0034117D02*
X0158269Y0034117D01*
X0158269Y0034515D02*
X0157481Y0034515D01*
X0156300Y0034515D02*
X0155513Y0034515D01*
X0155513Y0034567D02*
X0156300Y0034567D01*
X0156300Y0032599D01*
X0155513Y0032599D01*
X0155513Y0034567D01*
X0155513Y0034117D02*
X0156300Y0034117D01*
X0156300Y0033718D02*
X0155513Y0033718D01*
X0155513Y0033320D02*
X0156300Y0033320D01*
X0156300Y0032921D02*
X0155513Y0032921D01*
X0154331Y0032921D02*
X0153544Y0032921D01*
X0153544Y0032599D02*
X0154331Y0032599D01*
X0154331Y0034567D01*
X0153741Y0034567D01*
X0153544Y0034370D01*
X0153544Y0032599D01*
X0153544Y0033320D02*
X0154331Y0033320D01*
X0154331Y0033718D02*
X0153544Y0033718D01*
X0153544Y0034117D02*
X0154331Y0034117D01*
X0154331Y0034515D02*
X0153689Y0034515D01*
X0152757Y0035552D02*
X0152757Y0036142D01*
X0150788Y0036142D01*
X0150788Y0035355D01*
X0152560Y0035355D01*
X0152757Y0035552D01*
X0152757Y0035711D02*
X0150788Y0035711D01*
X0150788Y0036109D02*
X0152757Y0036109D01*
D15*
X0108426Y0073780D03*
X0108426Y0089134D03*
D16*
X0170887Y0080552D03*
X0170887Y0078583D03*
X0170887Y0076615D03*
X0170887Y0074646D03*
X0175887Y0074646D03*
X0175887Y0076615D03*
X0175887Y0078583D03*
X0175887Y0080552D03*
D17*
X0173387Y0080985D03*
X0173387Y0074213D03*
D18*
X0136143Y0073150D02*
X0132206Y0073150D01*
X0127206Y0073150D02*
X0123269Y0073150D01*
X0123269Y0068150D02*
X0127206Y0068150D01*
X0132206Y0068150D02*
X0136143Y0068150D01*
X0136143Y0063150D02*
X0132206Y0063150D01*
X0127206Y0063150D02*
X0123269Y0063150D01*
X0123269Y0058150D02*
X0127206Y0058150D01*
X0132206Y0058150D02*
X0136143Y0058150D01*
X0136143Y0053150D02*
X0132206Y0053150D01*
X0127206Y0053150D02*
X0123269Y0053150D01*
X0147206Y0093150D02*
X0147206Y0097087D01*
X0152206Y0097087D02*
X0152206Y0093150D01*
X0157206Y0093150D02*
X0157206Y0097087D01*
X0162206Y0097087D02*
X0162206Y0093150D01*
X0167206Y0093150D02*
X0167206Y0097087D01*
X0172206Y0097087D02*
X0172206Y0093150D01*
X0177206Y0093150D02*
X0177206Y0097087D01*
X0182206Y0097087D02*
X0182206Y0093150D01*
X0187206Y0093150D02*
X0187206Y0097087D01*
X0192206Y0097087D02*
X0192206Y0093150D01*
X0192206Y0013150D02*
X0192206Y0009213D01*
X0187206Y0009213D02*
X0187206Y0013150D01*
X0182206Y0013150D02*
X0182206Y0009213D01*
X0177206Y0009213D02*
X0177206Y0013150D01*
X0172206Y0013150D02*
X0172206Y0009213D01*
X0167206Y0009213D02*
X0167206Y0013150D01*
X0162206Y0013150D02*
X0162206Y0009213D01*
X0157206Y0009213D02*
X0157206Y0013150D01*
X0152206Y0013150D02*
X0152206Y0009213D01*
X0147206Y0009213D02*
X0147206Y0013150D01*
D19*
X0131674Y0017717D03*
X0131674Y0088583D03*
D20*
X0090788Y0067244D03*
X0090788Y0057402D03*
X0090788Y0049528D03*
X0090788Y0039685D03*
D21*
X0084980Y0030433D02*
X0080060Y0030433D01*
X0080060Y0076496D02*
X0084980Y0076496D01*
D22*
X0082520Y0062520D03*
X0082520Y0044410D03*
D23*
X0082520Y0030433D03*
X0082520Y0076496D03*
M02*
