%
M48
M72
T01C0.01181
T02C0.02559
T03C0.03937
T04C0.04724
T05C0.07874
T06C0.08268
%
T01
X98662Y43622
X105552Y46575
X110473Y57402
X115394Y64292
X146891Y52481
X145906Y48544
X161654Y55433
X165591Y55433
X154765Y58386
X176418Y62323
X172481Y71181
X165591Y73150
X158702Y76103
X170513Y83977
X179371Y83977
X188229Y84961
X180355Y73150
X154765Y86930
X96694Y84961
X183308Y48544
X186261Y52481
X173465Y32796
X157717Y26890
X146891Y20985
X131143Y33780
X105552Y29843
T02
X147206Y13150
X152206Y13150
X157206Y13150
X162206Y13150
X167206Y13150
X172206Y13150
X177206Y13150
X182206Y13150
X187206Y13150
X192206Y13150
X132206Y53150
X127206Y53150
X127206Y58150
X132206Y58150
X132206Y63150
X127206Y63150
X127206Y68150
X132206Y68150
X132206Y73150
X127206Y73150
X147206Y93150
X152206Y93150
X157206Y93150
X162206Y93150
X167206Y93150
X172206Y93150
X177206Y93150
X182206Y93150
X187206Y93150
X192206Y93150
T03
X82520Y30433
X90788Y39685
X90788Y49528
X90788Y57402
X90788Y67244
X82520Y76496
T04
X82520Y62520
X82520Y44410
T05
X131674Y17717
T06
X131674Y88583
M30
