G75*
%MOIN*%
%OFA0B0*%
%FSLAX25Y25*%
%IPPOS*%
%LPD*%
%AMOC8*
5,1,8,0,0,1.08239X$1,22.5*
%
%ADD10C,0.03937*%
%ADD11C,0.17717*%
%ADD12C,0.05906*%
%ADD13C,0.06890*%
%ADD14C,0.04724*%
%ADD15C,0.03937*%
D10*
X0123269Y0053150D02*
X0127206Y0053150D01*
X0132206Y0053150D02*
X0136143Y0053150D01*
X0136143Y0058150D02*
X0132206Y0058150D01*
X0127206Y0058150D02*
X0123269Y0058150D01*
X0123269Y0063150D02*
X0127206Y0063150D01*
X0132206Y0063150D02*
X0136143Y0063150D01*
X0136143Y0068150D02*
X0132206Y0068150D01*
X0127206Y0068150D02*
X0123269Y0068150D01*
X0123269Y0073150D02*
X0127206Y0073150D01*
X0132206Y0073150D02*
X0136143Y0073150D01*
X0147206Y0093150D02*
X0147206Y0097087D01*
X0152206Y0097087D02*
X0152206Y0093150D01*
X0157206Y0093150D02*
X0157206Y0097087D01*
X0162206Y0097087D02*
X0162206Y0093150D01*
X0167206Y0093150D02*
X0167206Y0097087D01*
X0172206Y0097087D02*
X0172206Y0093150D01*
X0177206Y0093150D02*
X0177206Y0097087D01*
X0182206Y0097087D02*
X0182206Y0093150D01*
X0187206Y0093150D02*
X0187206Y0097087D01*
X0192206Y0097087D02*
X0192206Y0093150D01*
X0192206Y0013150D02*
X0192206Y0009213D01*
X0187206Y0009213D02*
X0187206Y0013150D01*
X0182206Y0013150D02*
X0182206Y0009213D01*
X0177206Y0009213D02*
X0177206Y0013150D01*
X0172206Y0013150D02*
X0172206Y0009213D01*
X0167206Y0009213D02*
X0167206Y0013150D01*
X0162206Y0013150D02*
X0162206Y0009213D01*
X0157206Y0009213D02*
X0157206Y0013150D01*
X0152206Y0013150D02*
X0152206Y0009213D01*
X0147206Y0009213D02*
X0147206Y0013150D01*
D11*
X0131674Y0017717D03*
X0131674Y0088583D03*
D12*
X0090788Y0067244D03*
X0090788Y0057402D03*
X0090788Y0049528D03*
X0090788Y0039685D03*
D13*
X0084980Y0030433D02*
X0080060Y0030433D01*
X0080060Y0076496D02*
X0084980Y0076496D01*
D14*
X0082520Y0062520D03*
X0082520Y0044410D03*
D15*
X0082520Y0030433D03*
X0082520Y0076496D03*
M02*
