G75*
%MOIN*%
%OFA0B0*%
%FSLAX25Y25*%
%IPPOS*%
%LPD*%
%AMOC8*
5,1,8,0,0,1.08239X$1,22.5*
%
%ADD10C,0.00200*%
%ADD11C,0.00400*%
%ADD12C,0.01181*%
%ADD13C,0.00787*%
%ADD14C,0.00100*%
D10*
X0097601Y0036353D02*
X0097968Y0035986D01*
X0098702Y0035986D01*
X0099069Y0036353D01*
X0099811Y0036353D02*
X0100178Y0035986D01*
X0100912Y0035986D01*
X0101279Y0036353D01*
X0101279Y0036720D01*
X0100912Y0037087D01*
X0099811Y0037087D01*
X0099811Y0036353D01*
X0099811Y0037087D02*
X0100545Y0037821D01*
X0101279Y0038188D01*
X0099069Y0037821D02*
X0098702Y0038188D01*
X0097968Y0038188D01*
X0097601Y0037821D01*
X0097601Y0036353D01*
X0129283Y0042838D02*
X0129283Y0045040D01*
X0130384Y0045040D01*
X0130751Y0044673D01*
X0130751Y0043939D01*
X0130384Y0043572D01*
X0129283Y0043572D01*
X0130017Y0043572D02*
X0130751Y0042838D01*
X0131493Y0042838D02*
X0132961Y0042838D01*
X0132227Y0042838D02*
X0132227Y0045040D01*
X0131493Y0044306D01*
X0136855Y0039056D02*
X0136488Y0038689D01*
X0136488Y0037221D01*
X0136855Y0036854D01*
X0137589Y0036854D01*
X0137956Y0037221D01*
X0138698Y0036854D02*
X0140166Y0036854D01*
X0139432Y0036854D02*
X0139432Y0039056D01*
X0138698Y0038322D01*
X0137956Y0038689D02*
X0137589Y0039056D01*
X0136855Y0039056D01*
X0148762Y0053722D02*
X0149496Y0053722D01*
X0149129Y0053722D02*
X0149129Y0055924D01*
X0148762Y0055924D02*
X0149496Y0055924D01*
X0150235Y0055557D02*
X0150235Y0054089D01*
X0150602Y0053722D01*
X0151336Y0053722D01*
X0151703Y0054089D01*
X0152445Y0053722D02*
X0153913Y0053722D01*
X0153179Y0053722D02*
X0153179Y0055924D01*
X0152445Y0055190D01*
X0151703Y0055557D02*
X0151336Y0055924D01*
X0150602Y0055924D01*
X0150235Y0055557D01*
X0168073Y0061944D02*
X0168440Y0061577D01*
X0169174Y0061577D01*
X0169541Y0061944D01*
X0170283Y0061577D02*
X0171751Y0063045D01*
X0171751Y0063412D01*
X0171384Y0063779D01*
X0170650Y0063779D01*
X0170283Y0063412D01*
X0169541Y0063412D02*
X0169174Y0063779D01*
X0168440Y0063779D01*
X0168073Y0063412D01*
X0168073Y0061944D01*
X0170283Y0061577D02*
X0171751Y0061577D01*
X0185829Y0075723D02*
X0186196Y0075356D01*
X0186930Y0075356D01*
X0187297Y0075723D01*
X0188039Y0075723D02*
X0188406Y0075356D01*
X0189140Y0075356D01*
X0189507Y0075723D01*
X0189507Y0076090D01*
X0189140Y0076457D01*
X0188406Y0076457D01*
X0188039Y0076824D01*
X0188039Y0077191D01*
X0188406Y0077558D01*
X0189140Y0077558D01*
X0189507Y0077191D01*
X0189507Y0076824D01*
X0189140Y0076457D01*
X0188406Y0076457D02*
X0188039Y0076090D01*
X0188039Y0075723D01*
X0187297Y0077191D02*
X0186930Y0077558D01*
X0186196Y0077558D01*
X0185829Y0077191D01*
X0185829Y0075723D01*
X0154231Y0078912D02*
X0153864Y0078545D01*
X0153130Y0078545D01*
X0152763Y0078912D01*
X0152021Y0078545D02*
X0151288Y0079279D01*
X0151654Y0079279D02*
X0150554Y0079279D01*
X0150554Y0078545D02*
X0150554Y0080747D01*
X0151654Y0080747D01*
X0152021Y0080380D01*
X0152021Y0079646D01*
X0151654Y0079279D01*
X0152763Y0080380D02*
X0153130Y0080747D01*
X0153864Y0080747D01*
X0154231Y0080380D01*
X0154231Y0080013D01*
X0153864Y0079646D01*
X0154231Y0079279D01*
X0154231Y0078912D01*
X0153864Y0079646D02*
X0153497Y0079646D01*
X0118543Y0079963D02*
X0118543Y0081431D01*
X0118543Y0082172D02*
X0118543Y0083640D01*
X0118543Y0082906D02*
X0116341Y0082906D01*
X0117075Y0082172D01*
X0116341Y0079963D02*
X0118543Y0079963D01*
X0094349Y0083097D02*
X0092882Y0081629D01*
X0092882Y0081262D01*
X0092140Y0081629D02*
X0091773Y0081262D01*
X0091039Y0081262D01*
X0090672Y0081629D01*
X0090672Y0083097D01*
X0091039Y0083464D01*
X0091773Y0083464D01*
X0092140Y0083097D01*
X0092882Y0083464D02*
X0094349Y0083464D01*
X0094349Y0083097D01*
X0115369Y0061220D02*
X0115002Y0060853D01*
X0115002Y0059385D01*
X0115369Y0059018D01*
X0116103Y0059018D01*
X0116470Y0059385D01*
X0117212Y0060119D02*
X0118680Y0060119D01*
X0118313Y0059018D02*
X0118313Y0061220D01*
X0117212Y0060119D01*
X0116470Y0060853D02*
X0116103Y0061220D01*
X0115369Y0061220D01*
X0100609Y0055905D02*
X0099141Y0055905D01*
X0099141Y0054804D01*
X0099875Y0055171D01*
X0100242Y0055171D01*
X0100609Y0054804D01*
X0100609Y0054070D01*
X0100242Y0053703D01*
X0099508Y0053703D01*
X0099141Y0054070D01*
X0098399Y0054070D02*
X0098032Y0053703D01*
X0097298Y0053703D01*
X0096931Y0054070D01*
X0096931Y0055538D01*
X0097298Y0055905D01*
X0098032Y0055905D01*
X0098399Y0055538D01*
X0148378Y0022350D02*
X0148378Y0020882D01*
X0148745Y0020515D01*
X0149479Y0020515D01*
X0149846Y0020882D01*
X0150588Y0020882D02*
X0150955Y0020515D01*
X0151689Y0020515D01*
X0152056Y0020882D01*
X0152056Y0021249D01*
X0151689Y0021616D01*
X0151322Y0021616D01*
X0151689Y0021616D02*
X0152056Y0021983D01*
X0152056Y0022350D01*
X0151689Y0022717D01*
X0150955Y0022717D01*
X0150588Y0022350D01*
X0149846Y0022350D02*
X0149479Y0022717D01*
X0148745Y0022717D01*
X0148378Y0022350D01*
X0180632Y0022207D02*
X0180632Y0024409D01*
X0181733Y0024409D01*
X0182100Y0024042D01*
X0182100Y0023308D01*
X0181733Y0022941D01*
X0180632Y0022941D01*
X0181366Y0022941D02*
X0182100Y0022207D01*
X0182842Y0022574D02*
X0183209Y0022207D01*
X0183943Y0022207D01*
X0184310Y0022574D01*
X0184310Y0023308D01*
X0183943Y0023675D01*
X0183576Y0023675D01*
X0182842Y0023308D01*
X0182842Y0024409D01*
X0184310Y0024409D01*
X0183825Y0027482D02*
X0183825Y0029684D01*
X0182724Y0028583D01*
X0184192Y0028583D01*
X0181982Y0028583D02*
X0181982Y0029317D01*
X0181615Y0029684D01*
X0180514Y0029684D01*
X0180514Y0027482D01*
X0180514Y0028216D02*
X0181615Y0028216D01*
X0181982Y0028583D01*
X0181248Y0028216D02*
X0181982Y0027482D01*
X0182179Y0040238D02*
X0181445Y0040972D01*
X0181812Y0040972D02*
X0180711Y0040972D01*
X0180711Y0040238D02*
X0180711Y0042440D01*
X0181812Y0042440D01*
X0182179Y0042073D01*
X0182179Y0041339D01*
X0181812Y0040972D01*
X0182921Y0040238D02*
X0184389Y0041706D01*
X0184389Y0042073D01*
X0184022Y0042440D01*
X0183288Y0042440D01*
X0182921Y0042073D01*
X0182921Y0040238D02*
X0184389Y0040238D01*
D11*
X0170473Y0034567D02*
X0170473Y0032993D01*
X0168898Y0032993D01*
X0152757Y0032993D02*
X0151182Y0032993D01*
X0151182Y0034567D01*
X0151182Y0050709D02*
X0151182Y0052284D01*
X0152757Y0052284D01*
X0168898Y0052284D02*
X0170473Y0052284D01*
X0170473Y0050709D01*
D12*
X0169391Y0051201D03*
D13*
X0170237Y0082323D03*
D14*
X0175483Y0082166D02*
X0176734Y0082166D01*
X0176984Y0082416D01*
X0176984Y0082917D01*
X0176734Y0083167D01*
X0175483Y0083167D01*
X0175733Y0083639D02*
X0175483Y0083890D01*
X0175483Y0084390D01*
X0175733Y0084640D01*
X0175983Y0085113D02*
X0175483Y0085613D01*
X0176984Y0085613D01*
X0176984Y0085113D02*
X0176984Y0086113D01*
X0176734Y0084640D02*
X0176483Y0084640D01*
X0176233Y0084390D01*
X0176233Y0083890D01*
X0175983Y0083639D01*
X0175733Y0083639D01*
X0175232Y0084140D02*
X0177234Y0084140D01*
X0176984Y0084390D02*
X0176734Y0084640D01*
X0176984Y0084390D02*
X0176984Y0083890D01*
X0176734Y0083639D01*
M02*
